<svg width="49" height="49" viewBox="0 0 49 49" fill="none" xmlns="http://www.w3.org/2000/svg">
<path opacity="0.12" d="M26.1971 30.6174C25.603 31.2114 25.306 31.5084 24.9635 31.6197C24.6623 31.7176 24.3377 31.7176 24.0365 31.6197C23.694 31.5084 23.397 31.2114 22.8029 30.6174L14.5971 22.4115C13.3119 21.1264 12.6694 20.4838 12.6259 19.9321C12.5883 19.4535 12.782 18.9857 13.1471 18.6738C13.5679 18.3145 14.4767 18.3145 16.2941 18.3145L32.7059 18.3145C34.5233 18.3145 35.4321 18.3145 35.8529 18.6738C36.218 18.9857 36.4117 19.4535 36.3741 19.9321C36.3306 20.4838 35.6881 21.1264 34.4029 22.4115L26.1971 30.6174Z" fill="#C92222"/>
<path fill-rule="evenodd" clip-rule="evenodd" d="M35.366 19.2442C35.5485 19.4001 35.6454 19.634 35.6266 19.8733C35.6247 19.8966 35.5954 20.0377 35.2793 20.4153C34.9791 20.7739 34.5259 21.2281 33.8728 21.8812L25.6669 30.0871C25.3612 30.3928 25.1633 30.5898 25.0008 30.7278C24.845 30.8601 24.7716 30.8936 24.732 30.9064C24.5813 30.9554 24.4191 30.9554 24.2685 30.9064C24.2289 30.8936 24.1555 30.8601 23.9996 30.7278C23.8371 30.5898 23.6393 30.3928 23.3335 30.0871L15.1276 21.8812C14.4745 21.2281 14.0214 20.7739 13.7211 20.4153C13.405 20.0377 13.3757 19.8966 13.3738 19.8733C13.355 19.634 13.4519 19.4001 13.6344 19.2441C13.6522 19.229 13.7728 19.1499 14.2633 19.1064C14.7292 19.0652 15.3708 19.0645 16.2943 19.0645L32.7061 19.0645C33.6297 19.0645 34.2713 19.0652 34.7371 19.1065C35.2277 19.1499 35.3482 19.229 35.366 19.2442ZM37.122 19.991C37.1785 19.273 36.8878 18.5713 36.3402 18.1035C35.9371 17.7593 35.3929 17.6587 34.8695 17.6123C34.3293 17.5644 33.6207 17.5644 32.7445 17.5645L32.7061 17.5645L16.2943 17.5645L16.256 17.5645C15.3798 17.5644 14.6711 17.5644 14.1309 17.6123C13.6075 17.6587 13.0633 17.7593 12.6603 18.1035C12.1126 18.5713 11.822 19.273 11.8785 19.991C11.9201 20.5193 12.2337 20.9753 12.571 21.3782C12.9191 21.7941 13.4203 22.2952 14.0399 22.9148L14.0669 22.9418L22.2728 31.1477L22.2932 31.1681C22.5728 31.4477 22.814 31.6889 23.0289 31.8713C23.2557 32.0639 23.502 32.2346 23.8049 32.333C24.2568 32.4798 24.7436 32.4798 25.1955 32.333C25.4984 32.2346 25.7448 32.0639 25.9716 31.8713C26.1864 31.6889 26.4276 31.4477 26.7072 31.1682L26.7276 31.1477L34.9335 22.9418L34.9606 22.9148C35.5802 22.2952 36.0813 21.7941 36.4294 21.3782C36.7667 20.9753 37.0804 20.5193 37.122 19.991Z" fill="#C92222"/>
</svg>
