<svg width="554" height="444" viewBox="0 0 554 444" fill="none" xmlns="http://www.w3.org/2000/svg">
<path d="M516.84 44.6238L529.879 37.5L542.85 44.6238V59.3419L529.879 66.869L516.84 59.3419V44.6238Z" fill="#353535"/>
<path d="M487.115 44.6238L500.154 37.5L513.125 44.6238V59.3419L500.154 66.869L487.115 59.3419V44.6238Z" fill="#353535"/>
<path d="M457.39 44.6238L470.429 37.5L483.399 44.6238V59.3419L470.429 66.869L457.39 59.3419V44.6238Z" fill="#353535"/>
<path d="M427.665 44.6238L440.704 37.5L453.675 44.6238V59.3419L440.704 66.869L427.665 59.3419V44.6238Z" fill="#2C2C2C"/>
<path d="M397.94 44.6238L410.979 37.5L423.949 44.6238V59.3419L410.979 66.869L397.94 59.3419V44.6238Z" fill="#2C2C2C"/>
<path d="M368.214 44.6238L381.253 37.5L394.224 44.6238V59.3419L381.253 66.869L368.214 59.3419V44.6238Z" fill="#2C2C2C"/>
<path d="M338.489 44.6238L351.528 37.5L364.499 44.6238V59.3419L351.528 66.869L338.489 59.3419V44.6238Z" fill="#2C2C2C"/>
<path d="M308.764 44.6238L321.803 37.5L334.773 44.6238V59.3419L321.803 66.869L308.764 59.3419V44.6238Z" fill="#2C2C2C"/>
<path d="M279.039 44.6238L292.078 37.5L305.048 44.6238V59.3419L292.078 66.869L279.039 59.3419V44.6238Z" fill="#2C2C2C"/>
<path d="M249.314 44.6238L262.353 37.5L275.323 44.6238V59.3419L262.353 66.869L249.314 59.3419V44.6238Z" fill="black"/>
<path d="M219.588 44.6238L232.627 37.5L245.597 44.6238V59.3419L232.627 66.869L219.588 59.3419V44.6238Z" fill="#2C2C2C"/>
<path d="M189.864 44.6238L202.903 37.5L215.873 44.6238V59.3419L202.903 66.869L189.864 59.3419V44.6238Z" fill="#2C2C2C"/>
<path d="M160.138 44.6238L173.177 37.5L186.147 44.6238V59.3419L173.177 66.869L160.138 59.3419V44.6238Z" fill="black"/>
<path d="M130.413 44.6238L143.452 37.5L156.422 44.6238V59.3419L143.452 66.869L130.413 59.3419V44.6238Z" fill="#2C2C2C"/>
<path d="M100.688 44.6238L113.727 37.5L126.697 44.6238V59.3419L113.727 66.869L100.688 59.3419V44.6238Z" fill="black"/>
<path d="M70.9627 44.6238L84.0017 37.5L96.9722 44.6238V59.3419L84.0017 66.869L70.9627 59.3419V44.6238Z" fill="#2C2C2C"/>
<path d="M41.2376 44.6238L54.2766 37.5L67.2471 44.6238V59.3419L54.2766 66.869L41.2376 59.3419V44.6238Z" fill="#2C2C2C"/>
<path d="M11.5127 44.6238L24.5518 37.5L37.5222 44.6238V59.3419L24.5518 66.869L11.5127 59.3419V44.6238Z" fill="black"/>
<path d="M501.978 68.8104L515.017 61.6865L527.988 68.8104V83.5285L515.017 91.0555L501.978 83.5285V68.8104Z" fill="#353535"/>
<path d="M472.252 68.8104L485.291 61.6865L498.262 68.8104V83.5285L485.291 91.0555L472.252 83.5285V68.8104Z" fill="#353535"/>
<path d="M442.527 68.8104L455.566 61.6865L468.537 68.8104V83.5285L455.566 91.0555L442.527 83.5285V68.8104Z" fill="#2C2C2C"/>
<path d="M412.802 68.8104L425.841 61.6865L438.812 68.8104V83.5285L425.841 91.0555L412.802 83.5285V68.8104Z" fill="#2C2C2C"/>
<path d="M383.077 68.8104L396.116 61.6865L409.086 68.8104V83.5285L396.116 91.0555L383.077 83.5285V68.8104Z" fill="#2C2C2C"/>
<path d="M353.352 68.8104L366.391 61.6865L379.361 68.8104V83.5285L366.391 91.0555L353.352 83.5285V68.8104Z" fill="#2C2C2C"/>
<path d="M323.627 68.8104L336.666 61.6865L349.636 68.8104V83.5285L336.666 91.0555L323.627 83.5285V68.8104Z" fill="#2C2C2C"/>
<path d="M293.902 68.8104L306.941 61.6865L319.911 68.8104V83.5285L306.941 91.0555L293.902 83.5285V68.8104Z" fill="black"/>
<path d="M264.176 68.8104L277.215 61.6865L290.186 68.8104V83.5285L277.215 91.0555L264.176 83.5285V68.8104Z" fill="#2C2C2C"/>
<path d="M234.451 68.8104L247.49 61.6865L260.46 68.8104V83.5285L247.49 91.0555L234.451 83.5285V68.8104Z" fill="#2C2C2C"/>
<path d="M204.726 68.8104L217.765 61.6865L230.735 68.8104V83.5285L217.765 91.0555L204.726 83.5285V68.8104Z" fill="black"/>
<path d="M175.001 68.8104L188.04 61.6865L201.01 68.8104V83.5285L188.04 91.0555L175.001 83.5285V68.8104Z" fill="black"/>
<path d="M145.276 68.8104L158.315 61.6865L171.285 68.8104V83.5285L158.315 91.0555L145.276 83.5285V68.8104Z" fill="black"/>
<path d="M115.551 68.8104L128.59 61.6865L141.56 68.8104V83.5285L128.59 91.0555L115.551 83.5285V68.8104Z" fill="#2C2C2C"/>
<path d="M85.8257 68.8104L98.8648 61.6865L111.835 68.8104V83.5285L98.8648 91.0555L85.8257 83.5285V68.8104Z" fill="#2C2C2C"/>
<path d="M56.0999 68.8104L69.1389 61.6865L82.1094 68.8104V83.5285L69.1389 91.0555L56.0999 83.5285V68.8104Z" fill="#2C2C2C"/>
<path d="M26.3748 68.8104L39.4138 61.6865L52.3843 68.8104V83.5285L39.4138 91.0555L26.3748 83.5285V68.8104Z" fill="black"/>
<path d="M516.84 92.9969L529.879 85.873L542.85 92.9969V107.715L529.879 115.242L516.84 107.715V92.9969Z" fill="#353535"/>
<path d="M487.115 92.9969L500.154 85.873L513.125 92.9969V107.715L500.154 115.242L487.115 107.715V92.9969Z" fill="#353535"/>
<path d="M457.39 92.9969L470.429 85.873L483.399 92.9969V107.715L470.429 115.242L457.39 107.715V92.9969Z" fill="#2C2C2C"/>
<path d="M427.665 92.9969L440.704 85.873L453.675 92.9969V107.715L440.704 115.242L427.665 107.715V92.9969Z" fill="#353535"/>
<path d="M397.94 92.9969L410.979 85.873L423.949 92.9969V107.715L410.979 115.242L397.94 107.715V92.9969Z" fill="#2C2C2C"/>
<path d="M368.214 92.9969L381.253 85.873L394.224 92.9969V107.715L381.253 115.242L368.214 107.715V92.9969Z" fill="#2C2C2C"/>
<path d="M338.489 92.9969L351.528 85.873L364.499 92.9969V107.715L351.528 115.242L338.489 107.715V92.9969Z" fill="black"/>
<path d="M308.764 92.9969L321.803 85.873L334.773 92.9969V107.715L321.803 115.242L308.764 107.715V92.9969Z" fill="#2C2C2C"/>
<path d="M279.039 92.9969L292.078 85.873L305.048 92.9969V107.715L292.078 115.242L279.039 107.715V92.9969Z" fill="#2C2C2C"/>
<path d="M249.314 92.9969L262.353 85.873L275.323 92.9969V107.715L262.353 115.242L249.314 107.715V92.9969Z" fill="black"/>
<path d="M219.588 92.9969L232.627 85.873L245.597 92.9969V107.715L232.627 115.242L219.588 107.715V92.9969Z" fill="#2C2C2C"/>
<path d="M189.864 92.9969L202.903 85.873L215.873 92.9969V107.715L202.903 115.242L189.864 107.715V92.9969Z" fill="#2C2C2C"/>
<path d="M160.138 92.9969L173.177 85.873L186.147 92.9969V107.715L173.177 115.242L160.138 107.715V92.9969Z" fill="#858585"/>
<path d="M130.413 92.9969L143.452 85.873L156.422 92.9969V107.715L143.452 115.242L130.413 107.715V92.9969Z" fill="black"/>
<path d="M100.688 92.9969L113.727 85.873L126.697 92.9969V107.715L113.727 115.242L100.688 107.715V92.9969Z" fill="#2C2C2C"/>
<path d="M70.9627 92.9969L84.0017 85.873L96.9722 92.9969V107.715L84.0017 115.242L70.9627 107.715V92.9969Z" fill="black"/>
<path d="M41.2376 92.9969L54.2766 85.873L67.2471 92.9969V107.715L54.2766 115.242L41.2376 107.715V92.9969Z" fill="#2C2C2C"/>
<path d="M11.5127 92.9969L24.5518 85.873L37.5222 92.9969V107.715L24.5518 115.242L11.5127 107.715V92.9969Z" fill="black"/>
<path d="M501.978 117.182L515.017 110.059L527.988 117.182V131.901L515.017 139.428L501.978 131.901V117.182Z" fill="#353535"/>
<path d="M472.252 117.182L485.291 110.059L498.262 117.182V131.901L485.291 139.428L472.252 131.901V117.182Z" fill="#353535"/>
<path d="M442.527 117.182L455.566 110.059L468.537 117.182V131.901L455.566 139.428L442.527 131.901V117.182Z" fill="#2C2C2C"/>
<path d="M412.802 117.182L425.841 110.059L438.812 117.182V131.901L425.841 139.428L412.802 131.901V117.182Z" fill="#2C2C2C"/>
<path d="M383.077 117.182L396.116 110.059L409.086 117.182V131.901L396.116 139.428L383.077 131.901V117.182Z" fill="#2C2C2C"/>
<path d="M353.352 117.182L366.391 110.059L379.361 117.182V131.901L366.391 139.428L353.352 131.901V117.182Z" fill="#2C2C2C"/>
<path d="M323.627 117.182L336.666 110.059L349.636 117.182V131.901L336.666 139.428L323.627 131.901V117.182Z" fill="#2C2C2C"/>
<path d="M293.902 117.182L306.941 110.059L319.911 117.182V131.901L306.941 139.428L293.902 131.901V117.182Z" fill="#2C2C2C"/>
<path d="M264.176 117.182L277.215 110.059L290.186 117.182V131.901L277.215 139.428L264.176 131.901V117.182Z" fill="#2C2C2C"/>
<path d="M234.451 117.182L247.49 110.059L260.46 117.182V131.901L247.49 139.428L234.451 131.901V117.182Z" fill="#2C2C2C"/>
<path d="M204.726 117.182L217.765 110.059L230.735 117.182V131.901L217.765 139.428L204.726 131.901V117.182Z" fill="black"/>
<path d="M175.001 117.182L188.04 110.059L201.01 117.182V131.901L188.04 139.428L175.001 131.901V117.182Z" fill="#2C2C2C"/>
<path d="M145.276 117.182L158.315 110.059L171.285 117.182V131.901L158.315 139.428L145.276 131.901V117.182Z" fill="#2C2C2C"/>
<path d="M115.551 117.182L128.59 110.059L141.56 117.182V131.901L128.59 139.428L115.551 131.901V117.182Z" fill="black"/>
<path d="M85.8257 117.182L98.8648 110.059L111.835 117.182V131.901L98.8648 139.428L85.8257 131.901V117.182Z" fill="#858585"/>
<path d="M56.0999 117.182L69.1389 110.059L82.1094 117.182V131.901L69.1389 139.428L56.0999 131.901V117.182Z" fill="black"/>
<path d="M26.3748 117.182L39.4138 110.059L52.3843 117.182V131.901L39.4138 139.428L26.3748 131.901V117.182Z" fill="black"/>
<path d="M516.84 141.369L529.879 134.245L542.85 141.369V156.087L529.879 163.614L516.84 156.087V141.369Z" fill="#353535"/>
<path d="M487.115 141.369L500.154 134.245L513.125 141.369V156.087L500.154 163.614L487.115 156.087V141.369Z" fill="#353535"/>
<path d="M457.39 141.369L470.429 134.245L483.399 141.369V156.087L470.429 163.614L457.39 156.087V141.369Z" fill="#353535"/>
<path d="M427.665 141.369L440.704 134.245L453.675 141.369V156.087L440.704 163.614L427.665 156.087V141.369Z" fill="#2C2C2C"/>
<path d="M397.94 141.369L410.979 134.245L423.949 141.369V156.087L410.979 163.614L397.94 156.087V141.369Z" fill="#2C2C2C"/>
<path d="M368.214 141.369L381.253 134.245L394.224 141.369V156.087L381.253 163.614L368.214 156.087V141.369Z" fill="#2C2C2C"/>
<path d="M338.489 141.369L351.528 134.245L364.499 141.369V156.087L351.528 163.614L338.489 156.087V141.369Z" fill="#2C2C2C"/>
<path d="M308.764 141.369L321.803 134.245L334.773 141.369V156.087L321.803 163.614L308.764 156.087V141.369Z" fill="#2C2C2C"/>
<path d="M279.039 141.369L292.078 134.245L305.048 141.369V156.087L292.078 163.614L279.039 156.087V141.369Z" fill="#2C2C2C"/>
<path d="M249.314 141.369L262.353 134.245L275.323 141.369V156.087L262.353 163.614L249.314 156.087V141.369Z" fill="black"/>
<path d="M219.588 141.369L232.627 134.245L245.597 141.369V156.087L232.627 163.614L219.588 156.087V141.369Z" fill="#2C2C2C"/>
<path d="M189.864 141.369L202.903 134.245L215.873 141.369V156.087L202.903 163.614L189.864 156.087V141.369Z" fill="black"/>
<path d="M160.138 141.369L173.177 134.245L186.147 141.369V156.087L173.177 163.614L160.138 156.087V141.369Z" fill="black"/>
<path d="M130.413 141.369L143.452 134.245L156.422 141.369V156.087L143.452 163.614L130.413 156.087V141.369Z" fill="#2C2C2C"/>
<path d="M100.688 141.369L113.727 134.245L126.697 141.369V156.087L113.727 163.614L100.688 156.087V141.369Z" fill="#858585"/>
<path d="M70.9627 141.369L84.0017 134.245L96.9722 141.369V156.087L84.0017 163.614L70.9627 156.087V141.369Z" fill="#2C2C2C"/>
<path d="M41.2376 141.369L54.2766 134.245L67.2471 141.369V156.087L54.2766 163.614L41.2376 156.087V141.369Z" fill="#2C2C2C"/>
<path d="M11.5127 141.369L24.5518 134.245L37.5222 141.369V156.087L24.5518 163.614L11.5127 156.087V141.369Z" fill="#858585"/>
<path d="M501.978 165.555L515.017 158.432L527.988 165.555V180.274L515.017 187.801L501.978 180.274V165.555Z" fill="#2C2C2C"/>
<path d="M472.252 165.555L485.291 158.432L498.262 165.555V180.274L485.291 187.801L472.252 180.274V165.555Z" fill="#353535"/>
<path d="M353.352 165.555L366.391 158.432L379.361 165.555V180.274L366.391 187.801L353.352 180.274V165.555Z" fill="#2C2C2C"/>
<path d="M323.627 165.555L336.666 158.432L349.636 165.555V180.274L336.666 187.801L323.627 180.274V165.555Z" fill="#2C2C2C"/>
<path d="M293.902 165.555L306.941 158.432L319.911 165.555V180.274L306.941 187.801L293.902 180.274V165.555Z" fill="black"/>
<path d="M264.176 165.555L277.215 158.432L290.186 165.555V180.274L277.215 187.801L264.176 180.274V165.555Z" fill="#2C2C2C"/>
<path d="M234.451 165.555L247.49 158.432L260.46 165.555V180.274L247.49 187.801L234.451 180.274V165.555Z" fill="#2C2C2C"/>
<path d="M204.726 165.555L217.765 158.432L230.735 165.555V180.274L217.765 187.801L204.726 180.274V165.555Z" fill="black"/>
<path d="M175.001 165.555L188.04 158.432L201.01 165.555V180.274L188.04 187.801L175.001 180.274V165.555Z" fill="#2C2C2C"/>
<path d="M145.276 165.555L158.315 158.432L171.285 165.555V180.274L158.315 187.801L145.276 180.274V165.555Z" fill="black"/>
<path d="M115.551 165.555L128.59 158.432L141.56 165.555V180.274L128.59 187.801L115.551 180.274V165.555Z" fill="black"/>
<path d="M85.8257 165.555L98.8648 158.432L111.835 165.555V180.274L98.8648 187.801L85.8257 180.274V165.555Z" fill="#2C2C2C"/>
<path d="M56.0999 165.555L69.1389 158.432L82.1094 165.555V180.274L69.1389 187.801L56.0999 180.274V165.555Z" fill="black"/>
<path d="M26.3748 165.555L39.4138 158.432L52.3843 165.555V180.274L39.4138 187.801L26.3748 180.274V165.555Z" fill="black"/>
<path d="M516.84 189.742L529.879 182.618L542.85 189.742V204.46L529.879 211.987L516.84 204.46V189.742Z" fill="#2C2C2C"/>
<path d="M487.115 189.742L500.154 182.618L513.125 189.742V204.46L500.154 211.987L487.115 204.46V189.742Z" fill="#353535"/>
<path d="M338.489 189.742L351.528 182.618L364.499 189.742V204.46L351.528 211.987L338.489 204.46V189.742Z" fill="#2C2C2C"/>
<path d="M308.764 189.742L321.803 182.618L334.773 189.742V204.46L321.803 211.987L308.764 204.46V189.742Z" fill="#2C2C2C"/>
<path d="M279.039 189.742L292.078 182.618L305.048 189.742V204.46L292.078 211.987L279.039 204.46V189.742Z" fill="black"/>
<path d="M249.314 189.742L262.353 182.618L275.323 189.742V204.46L262.353 211.987L249.314 204.46V189.742Z" fill="black"/>
<path d="M219.588 189.742L232.627 182.618L245.597 189.742V204.46L232.627 211.987L219.588 204.46V189.742Z" fill="#2C2C2C"/>
<path d="M189.864 189.742L202.903 182.618L215.873 189.742V204.46L202.903 211.987L189.864 204.46V189.742Z" fill="black"/>
<path d="M160.138 189.742L173.177 182.618L186.147 189.742V204.46L173.177 211.987L160.138 204.46V189.742Z" fill="#2C2C2C"/>
<path d="M130.413 189.742L143.452 182.618L156.422 189.742V204.46L143.452 211.987L130.413 204.46V189.742Z" fill="#2C2C2C"/>
<path d="M100.688 189.742L113.727 182.618L126.697 189.742V204.46L113.727 211.987L100.688 204.46V189.742Z" fill="black"/>
<path d="M70.9627 189.742L84.0017 182.618L96.9722 189.742V204.46L84.0017 211.987L70.9627 204.46V189.742Z" fill="#2C2C2C"/>
<path d="M41.2376 189.742L54.2766 182.618L67.2471 189.742V204.46L54.2766 211.987L41.2376 204.46V189.742Z" fill="#2C2C2C"/>
<path d="M11.5127 189.742L24.5518 182.618L37.5222 189.742V204.46L24.5518 211.987L11.5127 204.46V189.742Z" fill="black"/>
<path d="M501.978 213.928L515.017 206.804L527.988 213.928V228.646L515.017 236.173L501.978 228.646V213.928Z" fill="#353535"/>
<path d="M472.252 213.928L485.291 206.804L498.262 213.928V228.646L485.291 236.173L472.252 228.646V213.928Z" fill="#2C2C2C"/>
<path d="M353.352 213.928L366.391 206.804L379.361 213.928V228.646L366.391 236.173L353.352 228.646V213.928Z" fill="#2C2C2C"/>
<path d="M323.627 213.928L336.666 206.804L349.636 213.928V228.646L336.666 236.173L323.627 228.646V213.928Z" fill="#2C2C2C"/>
<path d="M293.902 213.928L306.941 206.804L319.911 213.928V228.646L306.941 236.173L293.902 228.646V213.928Z" fill="#2C2C2C"/>
<path d="M264.176 213.928L277.215 206.804L290.186 213.928V228.646L277.215 236.173L264.176 228.646V213.928Z" fill="#2C2C2C"/>
<path d="M234.451 213.928L247.49 206.804L260.46 213.928V228.646L247.49 236.173L234.451 228.646V213.928Z" fill="black"/>
<path d="M204.726 213.928L217.765 206.804L230.735 213.928V228.646L217.765 236.173L204.726 228.646V213.928Z" fill="#2C2C2C"/>
<path d="M175.001 213.928L188.04 206.804L201.01 213.928V228.646L188.04 236.173L175.001 228.646V213.928Z" fill="black"/>
<path d="M145.276 213.928L158.315 206.804L171.285 213.928V228.646L158.315 236.173L145.276 228.646V213.928Z" fill="black"/>
<path d="M115.551 213.928L128.59 206.804L141.56 213.928V228.646L128.59 236.173L115.551 228.646V213.928Z" fill="#2C2C2C"/>
<path d="M85.8257 213.928L98.8648 206.804L111.835 213.928V228.646L98.8648 236.173L85.8257 228.646V213.928Z" fill="#2C2C2C"/>
<path d="M56.0999 213.928L69.1389 206.804L82.1094 213.928V228.646L69.1389 236.173L56.0999 228.646V213.928Z" fill="black"/>
<path d="M26.3748 213.928L39.4138 206.804L52.3843 213.928V228.646L39.4138 236.173L26.3748 228.646V213.928Z" fill="#2C2C2C"/>
<path d="M516.84 238.114L529.879 230.99L542.85 238.114V252.832L529.879 260.359L516.84 252.832V238.114Z" fill="#2C2C2C"/>
<path d="M487.115 238.114L500.154 230.99L513.125 238.114V252.832L500.154 260.359L487.115 252.832V238.114Z" fill="#2C2C2C"/>
<path d="M457.39 238.114L470.429 230.99L483.399 238.114V252.832L470.429 260.359L457.39 252.832V238.114Z" fill="#2C2C2C"/>
<path d="M338.489 238.114L351.528 230.99L364.499 238.114V252.832L351.528 260.359L338.489 252.832V238.114Z" fill="#2C2C2C"/>
<path d="M368 238.114L381.039 230.99L394.009 238.114V252.832L381.039 260.359L368 252.832V238.114Z" fill="#2C2C2C"/>
<path d="M308.764 238.114L321.803 230.99L334.773 238.114V252.832L321.803 260.359L308.764 252.832V238.114Z" fill="#2C2C2C"/>
<path d="M279.039 238.114L292.078 230.99L305.048 238.114V252.832L292.078 260.359L279.039 252.832V238.114Z" fill="black"/>
<path d="M249.314 238.114L262.353 230.99L275.323 238.114V252.832L262.353 260.359L249.314 252.832V238.114Z" fill="#2C2C2C"/>
<path d="M219.588 238.114L232.627 230.99L245.597 238.114V252.832L232.627 260.359L219.588 252.832V238.114Z" fill="#2C2C2C"/>
<path d="M189.864 238.114L202.903 230.99L215.873 238.114V252.832L202.903 260.359L189.864 252.832V238.114Z" fill="#2C2C2C"/>
<path d="M160.138 238.114L173.177 230.99L186.147 238.114V252.832L173.177 260.359L160.138 252.832V238.114Z" fill="black"/>
<path d="M130.413 238.114L143.452 230.99L156.422 238.114V252.832L143.452 260.359L130.413 252.832V238.114Z" fill="#2C2C2C"/>
<path d="M100.688 238.114L113.727 230.99L126.697 238.114V252.832L113.727 260.359L100.688 252.832V238.114Z" fill="black"/>
<path d="M70.9627 238.114L84.0017 230.99L96.9722 238.114V252.832L84.0017 260.359L70.9627 252.832V238.114Z" fill="#2C2C2C"/>
<path d="M41.2376 238.114L54.2766 230.99L67.2471 238.114V252.832L54.2766 260.359L41.2376 252.832V238.114Z" fill="black"/>
<path d="M11.5127 238.114L24.5518 230.99L37.5222 238.114V252.832L24.5518 260.359L11.5127 252.832V238.114Z" fill="#2C2C2C"/>
<path d="M501.978 262.301L515.017 255.177L527.988 262.301V277.019L515.017 284.546L501.978 277.019V262.301Z" fill="#2C2C2C"/>
<path d="M472.252 262.301L485.291 255.177L498.262 262.301V277.019L485.291 284.546L472.252 277.019V262.301Z" fill="#2C2C2C"/>
<path d="M442.527 262.301L455.566 255.177L468.537 262.301V277.019L455.566 284.546L442.527 277.019V262.301Z" fill="#353535"/>
<path d="M412.802 262.301L425.841 255.177L438.812 262.301V277.019L425.841 284.546L412.802 277.019V262.301Z" fill="#2C2C2C"/>
<path d="M383.077 262.301L396.116 255.177L409.086 262.301V277.019L396.116 284.546L383.077 277.019V262.301Z" fill="#2C2C2C"/>
<path d="M353.352 262.301L366.391 255.177L379.361 262.301V277.019L366.391 284.546L353.352 277.019V262.301Z" fill="#2C2C2C"/>
<path d="M323.627 262.301L336.666 255.177L349.636 262.301V277.019L336.666 284.546L323.627 277.019V262.301Z" fill="#2C2C2C"/>
<path d="M293.902 262.301L306.941 255.177L319.911 262.301V277.019L306.941 284.546L293.902 277.019V262.301Z" fill="#2C2C2C"/>
<path d="M264.176 262.301L277.215 255.177L290.186 262.301V277.019L277.215 284.546L264.176 277.019V262.301Z" fill="#2C2C2C"/>
<path d="M234.451 262.301L247.49 255.177L260.46 262.301V277.019L247.49 284.546L234.451 277.019V262.301Z" fill="#2C2C2C"/>
<path d="M204.726 262.301L217.765 255.177L230.735 262.301V277.019L217.765 284.546L204.726 277.019V262.301Z" fill="black"/>
<path d="M175.001 262.301L188.04 255.177L201.01 262.301V277.019L188.04 284.546L175.001 277.019V262.301Z" fill="#2C2C2C"/>
<path d="M145.276 262.301L158.315 255.177L171.285 262.301V277.019L158.315 284.546L145.276 277.019V262.301Z" fill="#2C2C2C"/>
<path d="M115.551 262.301L128.59 255.177L141.56 262.301V277.019L128.59 284.546L115.551 277.019V262.301Z" fill="black"/>
<path d="M85.8257 262.301L98.8648 255.177L111.835 262.301V277.019L98.8648 284.546L85.8257 277.019V262.301Z" fill="black"/>
<path d="M56.0999 262.301L69.1389 255.177L82.1094 262.301V277.019L69.1389 284.546L56.0999 277.019V262.301Z" fill="#2C2C2C"/>
<path d="M26.3748 262.301L39.4138 255.177L52.3843 262.301V277.019L39.4138 284.546L26.3748 277.019V262.301Z" fill="black"/>
<path d="M516.84 286.487L529.879 279.363L542.85 286.487V301.205L529.879 308.732L516.84 301.205V286.487Z" fill="#2C2C2C"/>
<path d="M487.115 286.487L500.154 279.363L513.125 286.487V301.205L500.154 308.732L487.115 301.205V286.487Z" fill="#2C2C2C"/>
<path d="M457.39 286.487L470.429 279.363L483.399 286.487V301.205L470.429 308.732L457.39 301.205V286.487Z" fill="#2C2C2C"/>
<path d="M427.665 286.487L440.704 279.363L453.675 286.487V301.205L440.704 308.732L427.665 301.205V286.487Z" fill="#2C2C2C"/>
<path d="M397.94 286.487L410.979 279.363L423.949 286.487V301.205L410.979 308.732L397.94 301.205V286.487Z" fill="#2C2C2C"/>
<path d="M368.214 286.487L381.253 279.363L394.224 286.487V301.205L381.253 308.732L368.214 301.205V286.487Z" fill="#2C2C2C"/>
<path d="M338.489 286.487L351.528 279.363L364.499 286.487V301.205L351.528 308.732L338.489 301.205V286.487Z" fill="black"/>
<path d="M308.764 286.487L321.803 279.363L334.773 286.487V301.205L321.803 308.732L308.764 301.205V286.487Z" fill="black"/>
<path d="M279.039 286.487L292.078 279.363L305.048 286.487V301.205L292.078 308.732L279.039 301.205V286.487Z" fill="#2C2C2C"/>
<path d="M249.314 286.487L262.353 279.363L275.323 286.487V301.205L262.353 308.732L249.314 301.205V286.487Z" fill="#2C2C2C"/>
<path d="M219.588 286.487L232.627 279.363L245.597 286.487V301.205L232.627 308.732L219.588 301.205V286.487Z" fill="black"/>
<path d="M189.864 286.487L202.903 279.363L215.873 286.487V301.205L202.903 308.732L189.864 301.205V286.487Z" fill="#2C2C2C"/>
<path d="M160.138 286.487L173.177 279.363L186.147 286.487V301.205L173.177 308.732L160.138 301.205V286.487Z" fill="#2C2C2C"/>
<path d="M130.413 286.487L143.452 279.363L156.422 286.487V301.205L143.452 308.732L130.413 301.205V286.487Z" fill="black"/>
<path d="M100.688 286.487L113.727 279.363L126.697 286.487V301.205L113.727 308.732L100.688 301.205V286.487Z" fill="black"/>
<path d="M70.9627 286.487L84.0017 279.363L96.9722 286.487V301.205L84.0017 308.732L70.9627 301.205V286.487Z" fill="#2C2C2C"/>
<path d="M41.2376 286.487L54.2766 279.363L67.2471 286.487V301.205L54.2766 308.732L41.2376 301.205V286.487Z" fill="#2C2C2C"/>
<path d="M11.5127 286.487L24.5518 279.363L37.5222 286.487V301.205L24.5518 308.732L11.5127 301.205V286.487Z" fill="#2C2C2C"/>
<path d="M501.978 310.673L515.017 303.549L527.988 310.673V325.391L515.017 332.918L501.978 325.391V310.673Z" fill="#353535"/>
<path d="M472.252 310.673L485.291 303.549L498.262 310.673V325.391L485.291 332.918L472.252 325.391V310.673Z" fill="#353535"/>
<path d="M442.527 310.673L455.566 303.549L468.537 310.673V325.391L455.566 332.918L442.527 325.391V310.673Z" fill="#2C2C2C"/>
<path d="M412.802 310.673L425.841 303.549L438.812 310.673V325.391L425.841 332.918L412.802 325.391V310.673Z" fill="#353535"/>
<path d="M383.077 310.673L396.116 303.549L409.086 310.673V325.391L396.116 332.918L383.077 325.391V310.673Z" fill="#2C2C2C"/>
<path d="M353.352 310.673L366.391 303.549L379.361 310.673V325.391L366.391 332.918L353.352 325.391V310.673Z" fill="#2C2C2C"/>
<path d="M323.627 310.673L336.666 303.549L349.636 310.673V325.391L336.666 332.918L323.627 325.391V310.673Z" fill="#2C2C2C"/>
<path d="M293.902 310.673L306.941 303.549L319.911 310.673V325.391L306.941 332.918L293.902 325.391V310.673Z" fill="#2C2C2C"/>
<path d="M264.176 310.673L277.215 303.549L290.186 310.673V325.391L277.215 332.918L264.176 325.391V310.673Z" fill="#2C2C2C"/>
<path d="M234.451 310.673L247.49 303.549L260.46 310.673V325.391L247.49 332.918L234.451 325.391V310.673Z" fill="#2C2C2C"/>
<path d="M204.726 310.673L217.765 303.549L230.735 310.673V325.391L217.765 332.918L204.726 325.391V310.673Z" fill="#2C2C2C"/>
<path d="M175.001 310.673L188.04 303.549L201.01 310.673V325.391L188.04 332.918L175.001 325.391V310.673Z" fill="#2C2C2C"/>
<path d="M145.276 310.673L158.315 303.549L171.285 310.673V325.391L158.315 332.918L145.276 325.391V310.673Z" fill="#2C2C2C"/>
<path d="M115.551 310.673L128.59 303.549L141.56 310.673V325.391L128.59 332.918L115.551 325.391V310.673Z" fill="#2C2C2C"/>
<path d="M85.8257 310.673L98.8648 303.549L111.835 310.673V325.391L98.8648 332.918L85.8257 325.391V310.673Z" fill="#2C2C2C"/>
<path d="M56.0999 310.673L69.1389 303.549L82.1094 310.673V325.391L69.1389 332.918L56.0999 325.391V310.673Z" fill="#2C2C2C"/>
<path d="M26.3748 310.673L39.4138 303.549L52.3843 310.673V325.391L39.4138 332.918L26.3748 325.391V310.673Z" fill="black"/>
<path d="M516.84 334.859L529.879 327.735L542.85 334.859V349.577L529.879 357.104L516.84 349.577V334.859Z" fill="#353535"/>
<path d="M487.115 334.859L500.154 327.735L513.125 334.859V349.577L500.154 357.104L487.115 349.577V334.859Z" fill="#2C2C2C"/>
<path d="M457.39 334.859L470.429 327.735L483.399 334.859V349.577L470.429 357.104L457.39 349.577V334.859Z" fill="#2C2C2C"/>
<path d="M427.665 334.859L440.704 327.735L453.675 334.859V349.577L440.704 357.104L427.665 349.577V334.859Z" fill="#2C2C2C"/>
<path d="M397.94 334.859L410.979 327.735L423.949 334.859V349.577L410.979 357.104L397.94 349.577V334.859Z" fill="#2C2C2C"/>
<path d="M368.214 334.859L381.253 327.735L394.224 334.859V349.577L381.253 357.104L368.214 349.577V334.859Z" fill="#2C2C2C"/>
<path d="M338.489 334.859L351.528 327.735L364.499 334.859V349.577L351.528 357.104L338.489 349.577V334.859Z" fill="#2C2C2C"/>
<path d="M308.764 334.859L321.803 327.735L334.773 334.859V349.577L321.803 357.104L308.764 349.577V334.859Z" fill="#2C2C2C"/>
<path d="M279.039 334.859L292.078 327.735L305.048 334.859V349.577L292.078 357.104L279.039 349.577V334.859Z" fill="#2C2C2C"/>
<path d="M249.314 334.859L262.353 327.735L275.323 334.859V349.577L262.353 357.104L249.314 349.577V334.859Z" fill="#2C2C2C"/>
<path d="M219.588 334.859L232.627 327.735L245.597 334.859V349.577L232.627 357.104L219.588 349.577V334.859Z" fill="#2C2C2C"/>
<path d="M189.864 334.859L202.903 327.735L215.873 334.859V349.577L202.903 357.104L189.864 349.577V334.859Z" fill="black"/>
<path d="M160.138 334.859L173.177 327.735L186.147 334.859V349.577L173.177 357.104L160.138 349.577V334.859Z" fill="black"/>
<path d="M130.413 334.859L143.452 327.735L156.422 334.859V349.577L143.452 357.104L130.413 349.577V334.859Z" fill="#2C2C2C"/>
<path d="M100.688 334.859L113.727 327.735L126.697 334.859V349.577L113.727 357.104L100.688 349.577V334.859Z" fill="#2C2C2C"/>
<path d="M70.9627 334.859L84.0017 327.735L96.9722 334.859V349.577L84.0017 357.104L70.9627 349.577V334.859Z" fill="#2C2C2C"/>
<path d="M41.2376 334.859L54.2766 327.735L67.2471 334.859V349.577L54.2766 357.104L41.2376 349.577V334.859Z" fill="#2C2C2C"/>
<path d="M11.5127 334.859L24.5518 327.735L37.5222 334.859V349.577L24.5518 357.104L11.5127 349.577V334.859Z" fill="#858585"/>
<path d="M516.84 383.648L529.879 376.524L542.85 383.648V398.366L529.879 405.893L516.84 398.366V383.648Z" fill="#353535"/>
<path d="M487.115 383.648L500.154 376.524L513.125 383.648V398.366L500.154 405.893L487.115 398.366V383.648Z" fill="#2C2C2C"/>
<path d="M457.39 383.648L470.429 376.524L483.399 383.648V398.366L470.429 405.893L457.39 398.366V383.648Z" fill="#2C2C2C"/>
<path d="M427.665 383.648L440.704 376.524L453.675 383.648V398.366L440.704 405.893L427.665 398.366V383.648Z" fill="#2C2C2C"/>
<path d="M397.94 383.648L410.979 376.524L423.949 383.648V398.366L410.979 405.893L397.94 398.366V383.648Z" fill="#2C2C2C"/>
<path d="M368.214 383.648L381.253 376.524L394.224 383.648V398.366L381.253 405.893L368.214 398.366V383.648Z" fill="#2C2C2C"/>
<path d="M338.489 383.648L351.528 376.524L364.499 383.648V398.366L351.528 405.893L338.489 398.366V383.648Z" fill="#2C2C2C"/>
<path d="M308.764 383.648L321.803 376.524L334.773 383.648V398.366L321.803 405.893L308.764 398.366V383.648Z" fill="#2C2C2C"/>
<path d="M279.039 383.648L292.078 376.524L305.048 383.648V398.366L292.078 405.893L279.039 398.366V383.648Z" fill="#2C2C2C"/>
<path d="M249.314 383.648L262.353 376.524L275.323 383.648V398.366L262.353 405.893L249.314 398.366V383.648Z" fill="#2C2C2C"/>
<path d="M219.588 383.648L232.627 376.524L245.597 383.648V398.366L232.627 405.893L219.588 398.366V383.648Z" fill="#2C2C2C"/>
<path d="M189.864 383.648L202.903 376.524L215.873 383.648V398.366L202.903 405.893L189.864 398.366V383.648Z" fill="black"/>
<path d="M160.138 383.648L173.177 376.524L186.147 383.648V398.366L173.177 405.893L160.138 398.366V383.648Z" fill="black"/>
<path d="M130.413 383.648L143.452 376.524L156.422 383.648V398.366L143.452 405.893L130.413 398.366V383.648Z" fill="#2C2C2C"/>
<path d="M100.688 383.648L113.727 376.524L126.697 383.648V398.366L113.727 405.893L100.688 398.366V383.648Z" fill="#2C2C2C"/>
<path d="M70.9627 383.648L84.0017 376.524L96.9722 383.648V398.366L84.0017 405.893L70.9627 398.366V383.648Z" fill="#2C2C2C"/>
<path d="M41.2376 383.648L54.2766 376.524L67.2471 383.648V398.366L54.2766 405.893L41.2376 398.366V383.648Z" fill="#2C2C2C"/>
<path d="M11.5127 383.648L24.5518 376.524L37.5222 383.648V398.366L24.5518 405.893L11.5127 398.366V383.648Z" fill="#858585"/>
<path d="M501.978 359.046L515.017 351.922L527.988 359.046V373.764L515.017 381.291L501.978 373.764V359.046Z" fill="#353535"/>
<path d="M472.252 359.046L485.291 351.922L498.262 359.046V373.764L485.291 381.291L472.252 373.764V359.046Z" fill="#353535"/>
<path d="M442.527 359.046L455.566 351.922L468.537 359.046V373.764L455.566 381.291L442.527 373.764V359.046Z" fill="#2C2C2C"/>
<path d="M412.802 359.046L425.841 351.922L438.812 359.046V373.764L425.841 381.291L412.802 373.764V359.046Z" fill="#2C2C2C"/>
<path d="M383.077 359.046L396.116 351.922L409.086 359.046V373.764L396.116 381.291L383.077 373.764V359.046Z" fill="#2C2C2C"/>
<path d="M353.352 359.046L366.391 351.922L379.361 359.046V373.764L366.391 381.291L353.352 373.764V359.046Z" fill="#2C2C2C"/>
<path d="M323.627 359.046L336.666 351.922L349.636 359.046V373.764L336.666 381.291L323.627 373.764V359.046Z" fill="#2C2C2C"/>
<path d="M293.902 359.046L306.941 351.922L319.911 359.046V373.764L306.941 381.291L293.902 373.764V359.046Z" fill="#2C2C2C"/>
<path d="M264.176 359.046L277.215 351.922L290.186 359.046V373.764L277.215 381.291L264.176 373.764V359.046Z" fill="#2C2C2C"/>
<path d="M234.451 359.046L247.49 351.922L260.46 359.046V373.764L247.49 381.291L234.451 373.764V359.046Z" fill="#2C2C2C"/>
<path d="M204.726 359.046L217.765 351.922L230.735 359.046V373.764L217.765 381.291L204.726 373.764V359.046Z" fill="#2C2C2C"/>
<path d="M175.001 359.046L188.04 351.922L201.01 359.046V373.764L188.04 381.291L175.001 373.764V359.046Z" fill="#2C2C2C"/>
<path d="M145.276 359.046L158.315 351.922L171.285 359.046V373.764L158.315 381.291L145.276 373.764V359.046Z" fill="#2C2C2C"/>
<path d="M115.551 359.046L128.59 351.922L141.56 359.046V373.764L128.59 381.291L115.551 373.764V359.046Z" fill="#2C2C2C"/>
<path d="M85.8257 359.046L98.8648 351.922L111.835 359.046V373.764L98.8648 381.291L85.8257 373.764V359.046Z" fill="black"/>
<path d="M56.0999 359.046L69.1389 351.922L82.1094 359.046V373.764L69.1389 381.291L56.0999 373.764V359.046Z" fill="#2C2C2C"/>
<path d="M26.3748 359.046L39.4138 351.922L52.3843 359.046V373.764L39.4138 381.291L26.3748 373.764V359.046Z" fill="black"/>
<path fill-rule="evenodd" clip-rule="evenodd" d="M421.534 177.832C422.695 178.949 422.695 180.745 421.534 181.862L400.052 202.578H419.454C421.074 202.578 422.41 203.87 422.41 205.425V206.169C425.213 203.935 428.805 202.578 432.703 202.578C441.637 202.578 448.908 209.607 448.908 218.235C448.908 226.798 441.703 233.805 432.834 233.871H432.571C423.702 233.805 416.519 226.798 416.519 218.235V208.271H392.956C391.752 208.271 390.679 207.593 390.241 206.52C390.088 206.169 390 205.819 390 205.446V205.403C390.022 204.68 390.307 203.957 390.876 203.432L417.373 177.832C417.943 177.285 418.665 177.022 419.388 177H419.52C420.242 177.022 420.987 177.285 421.534 177.832ZM443.017 218.235C443.017 212.739 438.396 208.271 432.703 208.271C427.031 208.271 422.41 212.739 422.41 218.235C422.41 223.71 427.031 228.177 432.703 228.177C438.396 228.177 443.017 223.71 443.017 218.235ZM444.156 192.504C445.316 193.621 445.316 195.417 444.156 196.512C443.586 197.081 442.842 197.344 442.075 197.344C441.331 197.344 440.564 197.081 439.995 196.512C438.046 194.65 435.462 193.599 432.703 193.599C429.965 193.599 427.359 194.65 425.432 196.512C424.841 197.081 424.096 197.344 423.33 197.344C422.585 197.344 421.841 197.081 421.25 196.512C420.111 195.417 420.111 193.621 421.25 192.504C424.315 189.548 428.388 187.927 432.703 187.927C437.038 187.927 441.112 189.548 444.156 192.504Z" fill="#858585"/>
</svg>
