<svg width="44" height="44" viewBox="0 0 44 44" fill="none" xmlns="http://www.w3.org/2000/svg">
<rect width="44" height="44" rx="12" fill="#F4F4F4"/>
<circle opacity="0.12" cx="22" cy="22" r="10" fill="black"/>
<path d="M21.0045 16H20.9955C20.9926 16 20.9896 16 20.9866 16H21.0134C21.0104 16 21.0074 16 21.0045 16Z" fill="black"/>
<path fill-rule="evenodd" clip-rule="evenodd" d="M21.4238 16.1695C21.6558 16.397 21.6558 16.7628 21.4238 16.9903L17.0476 21.2104H21C21.3301 21.2104 21.5978 21.4736 21.5978 21.7903V21.942C22.1688 21.487 22.9004 21.2104 23.6989 21.2104C25.519 21.2104 27 22.6424 27 24.4C27 26.1442 25.5323 27.5717 23.7257 27.5851H23.6721C21.8654 27.5717 20.3978 26.1442 20.3978 24.4V22.3703H15.5978C15.3569 22.3703 15.1383 22.232 15.0446 22.0134C15.0134 21.942 15 21.8706 15 21.7948V21.7859C15 21.6387 15.0625 21.4915 15.174 21.3844L20.5762 16.1695C20.6877 16.058 20.8349 16.0045 20.9866 16H21.0134C21.1606 16.0045 21.3078 16.058 21.4238 16.1695ZM25.8 24.4C25.8 23.2803 24.8543 22.3703 23.6989 22.3703C22.539 22.3703 21.5978 23.2803 21.5978 24.4C21.5978 25.5152 22.539 26.4253 23.6989 26.4253C24.8543 26.4253 25.8 25.5152 25.8 24.4ZM26.032 19.1584C26.2639 19.3859 26.2639 19.7517 26.032 19.9747C25.916 20.0907 25.7599 20.1442 25.6082 20.1442C25.452 20.1442 25.3004 20.0907 25.1844 19.9747C24.7874 19.5955 24.261 19.3814 23.6989 19.3814C23.1368 19.3814 22.6104 19.5955 22.2134 19.9747C22.0974 20.0907 21.9413 20.1442 21.7896 20.1442C21.6379 20.1442 21.4818 20.0907 21.3658 19.9747C21.1294 19.7517 21.1294 19.3859 21.3658 19.1584C21.9903 18.5561 22.8156 18.226 23.6989 18.226C24.5777 18.226 25.4074 18.5561 26.032 19.1584Z" fill="black"/>
<path fill-rule="evenodd" clip-rule="evenodd" d="M22 12.75C16.8914 12.75 12.75 16.8914 12.75 22C12.75 27.1086 16.8914 31.25 22 31.25C27.1086 31.25 31.25 27.1086 31.25 22C31.25 16.8914 27.1086 12.75 22 12.75ZM11.25 22C11.25 16.0629 16.0629 11.25 22 11.25C27.9371 11.25 32.75 16.0629 32.75 22C32.75 27.9371 27.9371 32.75 22 32.75C16.0629 32.75 11.25 27.9371 11.25 22Z" fill="black"/>
</svg>
