<svg width="44" height="44" viewBox="0 0 44 44" fill="none" xmlns="http://www.w3.org/2000/svg">
<rect width="44" height="44" rx="16" fill="#F4F4F4"/>
<path opacity="0.12" d="M18.4 31H25.6C27.8402 31 28.9603 31 29.816 30.564C30.5686 30.1805 31.1805 29.5686 31.564 28.816C32 27.9603 32 26.8402 32 24.6V19.5C30 21 25 22 22 22C19 22 14 21 12 19.5V24.6C12 26.8402 12 27.9603 12.436 28.816C12.8195 29.5686 13.4314 30.1805 14.184 30.564C15.0397 31 16.1598 31 18.4 31Z" fill="black"/>
<path fill-rule="evenodd" clip-rule="evenodd" d="M18.837 14.25C19.1755 12.8167 20.4632 11.75 22 11.75C23.5368 11.75 24.8245 12.8167 25.163 14.25H18.837ZM17.3085 14.2524C17.6671 11.9842 19.631 10.25 22 10.25C24.369 10.25 26.3329 11.9842 26.6915 14.2524C27.3062 14.2569 27.833 14.2698 28.2883 14.307C29.0017 14.3653 29.6053 14.4869 30.1565 14.7677C31.0502 15.2231 31.7769 15.9498 32.2323 16.8435C32.5131 17.3947 32.6347 17.9983 32.693 18.7117C32.75 19.4094 32.75 20.2748 32.75 21.367V21.4V24.6V24.633C32.75 25.7252 32.75 26.5906 32.693 27.2883C32.6347 28.0017 32.5131 28.6053 32.2323 29.1565C31.7769 30.0502 31.0502 30.7769 30.1565 31.2323C29.6053 31.5131 29.0017 31.6347 28.2883 31.693C27.5906 31.75 26.7252 31.75 25.633 31.75H25.6H18.4H18.367C17.2748 31.75 16.4094 31.75 15.7117 31.693C14.9983 31.6347 14.3947 31.5131 13.8435 31.2323C12.9498 30.7769 12.2231 30.0502 11.7677 29.1565C11.4869 28.6053 11.3653 28.0017 11.307 27.2883C11.25 26.5907 11.25 25.7252 11.25 24.633V24.633V24.6V21.4V21.367V21.367C11.25 20.2748 11.25 19.4094 11.307 18.7117C11.3653 17.9983 11.4869 17.3947 11.7677 16.8435C12.2231 15.9498 12.9498 15.2231 13.8435 14.7677C14.3947 14.4869 14.9983 14.3653 15.7117 14.307C16.167 14.2698 16.6938 14.2569 17.3085 14.2524ZM15.8339 15.802C15.2133 15.8527 14.829 15.9491 14.5245 16.1042C13.913 16.4158 13.4158 16.913 13.1042 17.5245C12.9491 17.829 12.8527 18.2133 12.802 18.8339C12.7901 18.9798 12.7809 19.1351 12.7738 19.3018C12.784 19.3058 12.7942 19.31 12.8043 19.3145L12.8043 19.3145L12.8044 19.3145L12.8046 19.3146L12.8057 19.3151L12.8132 19.3184L12.8472 19.3331C12.8782 19.3464 12.9257 19.3665 12.9887 19.3924C13.1147 19.4443 13.3026 19.5195 13.5446 19.6103C14.0289 19.7919 14.7284 20.0352 15.581 20.2789C16.0894 20.4241 16.65 20.5688 17.25 20.7004V20C17.25 19.5858 17.5858 19.25 18 19.25C18.4142 19.25 18.75 19.5858 18.75 20V20.9834C19.7776 21.145 20.8774 21.25 22 21.25C23.1226 21.25 24.2224 21.145 25.25 20.9834V20C25.25 19.5858 25.5858 19.25 26 19.25C26.4142 19.25 26.75 19.5858 26.75 20V20.7004C27.35 20.5688 27.9106 20.4241 28.419 20.2789C29.2716 20.0352 29.9711 19.7919 30.4554 19.6103C30.6974 19.5195 30.8853 19.4443 31.0113 19.3924C31.0743 19.3665 31.1218 19.3464 31.1528 19.3331L31.1868 19.3184L31.1943 19.3151L31.1954 19.3146L31.1956 19.3145C31.2058 19.31 31.216 19.3058 31.2262 19.3018C31.2191 19.1351 31.2099 18.9798 31.198 18.8339C31.1473 18.2133 31.0509 17.829 30.8958 17.5245C30.5842 16.913 30.087 16.4158 29.4755 16.1042C29.171 15.9491 28.7867 15.8527 28.1661 15.802C27.5367 15.7506 26.7325 15.75 25.6 15.75H18.4C17.2675 15.75 16.4633 15.7506 15.8339 15.802ZM25.25 22.5007V23C25.25 23.4142 25.5858 23.75 26 23.75C26.4142 23.75 26.75 23.4142 26.75 23V22.2341C27.5088 22.077 28.2096 21.8987 28.831 21.7211C29.7284 21.4648 30.4664 21.2081 30.9821 21.0147C31.0793 20.9783 31.1687 20.9441 31.2498 20.9125C31.25 21.068 31.25 21.2303 31.25 21.4V24.6C31.25 25.7325 31.2494 26.5367 31.198 27.1661C31.1473 27.7867 31.0509 28.171 30.8958 28.4755C30.5842 29.087 30.087 29.5842 29.4755 29.8958C29.171 30.0509 28.7867 30.1473 28.1661 30.198C27.5367 30.2494 26.7325 30.25 25.6 30.25H18.4C17.2675 30.25 16.4633 30.2494 15.8339 30.198C15.2133 30.1473 14.829 30.0509 14.5245 29.8958C13.913 29.5842 13.4158 29.087 13.1042 28.4755C12.9491 28.171 12.8527 27.7867 12.802 27.1661C12.7506 26.5367 12.75 25.7325 12.75 24.6V21.4C12.75 21.2303 12.75 21.068 12.7502 20.9125C12.8313 20.9441 12.9207 20.9783 13.0179 21.0147C13.5336 21.2081 14.2716 21.4648 15.169 21.7211C15.7904 21.8987 16.4912 22.077 17.25 22.2341V23C17.25 23.4142 17.5858 23.75 18 23.75C18.4142 23.75 18.75 23.4142 18.75 23V22.5007C19.7781 22.6527 20.8754 22.75 22 22.75C23.1246 22.75 24.2219 22.6527 25.25 22.5007Z" fill="black"/>
</svg>
