<svg width="41" height="41" viewBox="0 0 41 41" fill="none" xmlns="http://www.w3.org/2000/svg">
<rect opacity="0.12" x="3.41675" y="3.41699" width="34.1667" height="34.1667" rx="17.0833" fill="#22272F"/>
<path fill-rule="evenodd" clip-rule="evenodd" d="M20.5001 2.66699C10.651 2.66699 2.66675 10.6512 2.66675 20.5003C2.66675 30.3494 10.651 38.3337 20.5001 38.3337C30.3492 38.3337 38.3334 30.3494 38.3334 20.5003C38.3334 10.6512 30.3492 2.66699 20.5001 2.66699ZM36.8334 20.5003C36.8334 29.521 29.5207 36.8337 20.5001 36.8337C11.4794 36.8337 4.16675 29.521 4.16675 20.5003C4.16675 11.4797 11.4794 4.16699 20.5001 4.16699C29.5207 4.16699 36.8334 11.4797 36.8334 20.5003ZM15.2501 20C15.2501 19.5858 14.9143 19.25 14.5001 19.25C14.0859 19.25 13.7501 19.5858 13.7501 20V27C13.7501 27.4142 14.0859 27.75 14.5001 27.75C14.9143 27.75 15.2501 27.4142 15.2501 27V20ZM21.0001 17.25C21.4143 17.25 21.7501 17.5858 21.7501 18V27C21.7501 27.4142 21.4143 27.75 21.0001 27.75C20.5859 27.75 20.2501 27.4142 20.2501 27V18C20.2501 17.5858 20.5859 17.25 21.0001 17.25ZM27.75 14C27.75 13.5858 27.4142 13.25 27 13.25C26.5858 13.25 26.25 13.5858 26.25 14V27C26.25 27.4142 26.5858 27.75 27 27.75C27.4142 27.75 27.75 27.4142 27.75 27V14Z" fill="#22272F"/>
</svg>
