<svg width="40" height="41" viewBox="0 0 40 41" fill="none" xmlns="http://www.w3.org/2000/svg">
<rect opacity="0.12" x="3.33325" y="3.83325" width="33.3333" height="33.3333" rx="16" fill="black"/>
<path fill-rule="evenodd" clip-rule="evenodd" d="M19.9798 3.08326L19.9999 3.08326L20.02 3.08326C20.6201 3.08325 20.9406 3.08325 21.2146 3.09222C30.0354 3.38098 37.1189 10.4644 37.4076 19.2852C37.4166 19.5592 37.4166 19.8796 37.4166 20.4795L37.4166 20.4999L37.4166 20.5203C37.4166 21.1202 37.4166 21.4407 37.4076 21.7146C37.1189 30.5354 30.0354 37.6189 21.2146 37.9076C20.9407 37.9166 20.6202 37.9166 20.0203 37.9166L19.9999 37.9166L19.9795 37.9166C19.3796 37.9166 19.0592 37.9166 18.7852 37.9076C9.96444 37.6189 2.88098 30.5354 2.59222 21.7146C2.58325 21.4406 2.58325 21.1201 2.58325 20.52L2.58325 20.4999L2.58325 20.4798L2.58325 20.4798L2.58325 20.4798C2.58325 19.8797 2.58325 19.5592 2.59222 19.2852C2.88098 10.4644 9.96444 3.38098 18.7852 3.09222C19.0592 3.08325 19.3797 3.08325 19.9798 3.08326ZM4.08325 20.4999C4.08325 21.1248 4.08335 21.4192 4.09141 21.6655C4.35431 29.6964 10.8034 36.1455 18.8343 36.4084C19.0806 36.4165 19.375 36.4166 19.9999 36.4166C20.6248 36.4166 20.9192 36.4165 21.1655 36.4084C29.1964 36.1455 35.6455 29.6964 35.9084 21.6655C35.9165 21.4192 35.9166 21.1248 35.9166 20.4999C35.9166 19.875 35.9165 19.5806 35.9084 19.3343C35.6455 11.3034 29.1964 4.85432 21.1655 4.59142C20.9192 4.58336 20.6248 4.58325 19.9999 4.58325C19.375 4.58326 19.0806 4.58336 18.8343 4.59142C10.8034 4.85432 4.35431 11.3034 4.09141 19.3343C4.08335 19.5806 4.08325 19.875 4.08325 20.4999ZM11.1363 16.6363C11.4291 16.3434 11.904 16.3434 12.1969 16.6363L17.197 21.6364C17.3377 21.777 17.4167 21.9678 17.4167 22.1667C17.4167 22.3656 17.3377 22.5564 17.197 22.697L12.1968 27.6971C11.9039 27.99 11.429 27.99 11.1361 27.6971C10.8433 27.4042 10.8433 26.9293 11.1362 26.6365L15.606 22.1667L11.1363 17.6969C10.8434 17.404 10.8434 16.9292 11.1363 16.6363ZM21.6666 26.4166C21.2524 26.4166 20.9166 26.7524 20.9166 27.1666C20.9166 27.5808 21.2524 27.9166 21.6666 27.9166L28.3333 27.9166C28.7475 27.9166 29.0833 27.5808 29.0833 27.1666C29.0833 26.7524 28.7475 26.4166 28.3333 26.4166L21.6666 26.4166Z" fill="black"/>
</svg>
