<svg width="44" height="44" viewBox="0 0 44 44" fill="none" xmlns="http://www.w3.org/2000/svg">
<rect width="44" height="44" rx="16" fill="#F4F4F4"/>
<path opacity="0.12" d="M28.9522 25.7381L29.6605 25.9151C30.4461 26.1115 30.8389 26.2097 31.1388 26.4174C31.4725 26.6486 31.7279 26.9757 31.8712 27.3555C32 27.6968 32 28.0916 32 28.8811C32 29.8953 32 30.4024 31.7915 30.8225C31.5771 31.2546 31.1194 31.6595 30.6644 31.8198C30.2221 31.9756 29.7876 31.9223 28.9186 31.8158C25.8039 31.4338 23.0221 30.467 20.6579 29C18.2334 27.4956 16.248 25.4652 14.7929 23C13.4418 20.7109 12.5479 18.047 12.1842 15.0812C12.0777 14.2123 12.0244 13.7779 12.1802 13.3355C12.3405 12.8805 12.7454 12.4229 13.1775 12.2085C13.5976 12 14.0946 12 15.0885 12C15.8983 12 16.3032 12 16.6445 12.1288C17.0243 12.2721 17.3514 12.5275 17.5826 12.8612C17.7903 13.1611 17.8885 13.5539 18.0849 14.3395L18.0849 14.3395L18.2072 14.8286L18.2072 14.8286C18.4976 15.9904 18.6428 16.5714 18.621 17.1414C18.6016 17.6463 18.4867 18.1429 18.2825 18.605C18.0519 19.1268 17.6664 19.585 16.8953 20.5013L14.7929 23C16.248 25.4652 18.2334 27.4956 20.6579 29L23.5641 26.8239L23.5641 26.8239C24.459 26.1539 24.9064 25.8188 25.4047 25.6219C25.8462 25.4474 26.3151 25.3529 26.7897 25.3428C27.3254 25.3313 27.8677 25.4669 28.9522 25.7381Z" fill="black"/>
<path fill-rule="evenodd" clip-rule="evenodd" d="M15.0885 12.7501C15.961 12.7501 16.1977 12.7619 16.3797 12.8306C16.6171 12.9202 16.8216 13.0798 16.966 13.2884C17.0768 13.4483 17.1456 13.6751 17.3572 14.5215L17.4795 15.0107C17.7808 16.2156 17.8883 16.6748 17.8715 17.1128C17.8557 17.523 17.7624 17.9265 17.5965 18.302C17.4193 18.7029 17.1211 19.0682 16.3214 20.0186L14.923 21.6807C13.9135 19.7051 13.2317 17.4616 12.9286 14.9901C12.8146 14.0599 12.8028 13.8255 12.8876 13.5849C12.983 13.3141 13.2537 13.0081 13.5109 12.8805C13.6071 12.8327 13.7348 12.7949 13.9825 12.7734C14.2438 12.7508 14.5788 12.7501 15.0885 12.7501ZM17.4692 20.9844L15.7144 23.0699C16.9881 25.0846 18.6436 26.7758 20.6247 28.088L23.1145 26.2237L23.2006 26.1593C24.0128 25.5508 24.5361 25.1589 25.129 24.9245C25.6532 24.7173 26.2101 24.6051 26.7737 24.5931C27.4111 24.5795 28.0453 24.7382 29.0298 24.9845L29.1341 25.0106L29.8424 25.1877L29.9631 25.2178C30.6297 25.3838 31.1508 25.5136 31.5658 25.801C32.0246 26.1188 32.3759 26.5687 32.5729 27.0909C32.7511 27.5632 32.7507 28.0901 32.7501 28.7614L32.75 28.8813V28.9117C32.75 29.3929 32.75 29.8003 32.7212 30.1384C32.6908 30.4961 32.6248 30.8306 32.4633 31.1561C32.162 31.7631 31.5528 32.3022 30.9136 32.5273C30.3021 32.7427 29.6992 32.6682 28.9486 32.5753L28.8273 32.5603C25.6136 32.1662 22.7265 31.1664 20.2624 29.6374C17.7348 28.069 15.6636 25.9507 14.147 23.3814C12.7394 20.9966 11.815 18.2326 11.4398 15.1726L11.4248 15.0513C11.332 14.3008 11.2574 13.698 11.4728 13.0865C11.6979 12.4473 12.237 11.8381 12.8441 11.5368C13.168 11.3761 13.4988 11.3097 13.8531 11.279C14.1867 11.2501 14.587 11.2501 15.058 11.2501L15.0885 11.2501L15.2129 11.2501C15.8998 11.2495 16.4369 11.249 16.9092 11.4272C17.4314 11.6242 17.8813 11.9755 18.1991 12.4343C18.4866 12.8493 18.6164 13.3705 18.7823 14.037L18.8125 14.1577L18.9347 14.6469L18.9628 14.759C19.2266 15.8131 19.3964 16.492 19.3704 17.1703C19.3474 17.7699 19.211 18.3596 18.9685 18.9083C18.6941 19.5292 18.2434 20.0646 17.5437 20.8959L17.5436 20.8959L17.4692 20.9844ZM29.0099 31.0715C26.4117 30.7529 24.0654 30.0157 22.0174 28.9191L24.0136 27.4244C24.9415 26.7297 25.2974 26.4709 25.6804 26.3195C26.039 26.1778 26.4201 26.101 26.8057 26.0927C27.2174 26.084 27.6457 26.1847 28.7703 26.4658L29.4786 26.6429C30.3251 26.8545 30.5518 26.9233 30.7117 27.0341C30.9203 27.1786 31.0799 27.3831 31.1695 27.6204C31.2384 27.8029 31.25 28.0313 31.25 28.8813C31.25 29.401 31.2494 29.7442 31.2266 30.0111C31.205 30.2654 31.1666 30.3946 31.1197 30.4892C30.992 30.7464 30.6861 31.0172 30.4153 31.1125C30.1746 31.1973 29.9402 31.1856 29.0099 31.0715ZM29.5304 12.4698C29.2375 12.1769 28.7626 12.1769 28.4697 12.4698C28.1768 12.7627 28.1768 13.2376 28.4697 13.5305L30.1893 15.2502H24C23.5858 15.2502 23.25 15.5859 23.25 16.0002C23.25 16.4144 23.5858 16.7502 24 16.7502H30.1893L28.4697 18.4698C28.1768 18.7627 28.1768 19.2376 28.4697 19.5305C28.7626 19.8233 29.2375 19.8233 29.5304 19.5305L32.5303 16.5305C32.8232 16.2376 32.8232 15.7627 32.5303 15.4698L29.5304 12.4698Z" fill="black"/>
</svg>
