<svg width="22" height="22" viewBox="0 0 22 22" fill="none" xmlns="http://www.w3.org/2000/svg">
<path fill-rule="evenodd" clip-rule="evenodd" d="M4.16957 0.25L4.2 0.250001H5.8L5.83044 0.25C6.36459 0.24999 6.81044 0.249981 7.17467 0.27974C7.55456 0.310778 7.91121 0.377889 8.24848 0.549733C8.76592 0.813385 9.18662 1.23408 9.45027 1.75153C9.62211 2.08879 9.68922 2.44545 9.72026 2.82533C9.75002 3.18955 9.75001 3.63538 9.75 4.16951V4.16955V4.2V5.8V5.83045V5.83049C9.75001 6.36462 9.75002 6.81045 9.72026 7.17467C9.68922 7.55456 9.62211 7.91121 9.45027 8.24848C9.18662 8.76592 8.76592 9.18662 8.24848 9.45027C7.91121 9.62211 7.55456 9.68922 7.17467 9.72026C6.81045 9.75002 6.36462 9.75001 5.83049 9.75H5.83045H5.8H4.2H4.16955H4.16951C3.63538 9.75001 3.18955 9.75002 2.82533 9.72026C2.44545 9.68922 2.08879 9.62211 1.75153 9.45027C1.23408 9.18662 0.813385 8.76592 0.549733 8.24848C0.377889 7.91121 0.310778 7.55456 0.27974 7.17467C0.249981 6.81044 0.24999 6.36459 0.25 5.83044L0.250001 5.8V4.2L0.25 4.16957C0.24999 3.63541 0.249981 3.18956 0.27974 2.82533C0.310778 2.44545 0.377889 2.08879 0.549733 1.75153C0.813385 1.23408 1.23408 0.813385 1.75153 0.549733C2.08879 0.377889 2.44545 0.310778 2.82533 0.27974C3.18956 0.249981 3.63541 0.24999 4.16957 0.25ZM2.94748 1.77476C2.66036 1.79822 2.52307 1.8401 2.43251 1.88624C2.19731 2.00608 2.00608 2.19731 1.88624 2.43251C1.8401 2.52307 1.79822 2.66036 1.77476 2.94748C1.75058 3.24336 1.75 3.62757 1.75 4.2V5.8C1.75 6.37243 1.75058 6.75664 1.77476 7.05252C1.79822 7.33965 1.8401 7.47693 1.88624 7.56749C2.00608 7.80269 2.19731 7.99392 2.43251 8.11376C2.52307 8.1599 2.66036 8.20178 2.94748 8.22524C3.24336 8.24942 3.62757 8.25 4.2 8.25H5.8C6.37243 8.25 6.75664 8.24942 7.05252 8.22524C7.33965 8.20178 7.47693 8.1599 7.56749 8.11376C7.80269 7.99392 7.99392 7.80269 8.11376 7.56749C8.1599 7.47693 8.20178 7.33965 8.22524 7.05252C8.24942 6.75664 8.25 6.37243 8.25 5.8V4.2C8.25 3.62757 8.24942 3.24336 8.22524 2.94748C8.20178 2.66036 8.1599 2.52307 8.11376 2.43251C7.99392 2.19731 7.80269 2.00608 7.56749 1.88624C7.47693 1.8401 7.33965 1.79822 7.05252 1.77476C6.75664 1.75058 6.37243 1.75 5.8 1.75H4.2C3.62757 1.75 3.24336 1.75058 2.94748 1.77476ZM4.16957 12.25H4.2H5.8H5.83044C6.36459 12.25 6.81044 12.25 7.17467 12.2797C7.55456 12.3108 7.91121 12.3779 8.24848 12.5497C8.76592 12.8134 9.18662 13.2341 9.45027 13.7515C9.62211 14.0888 9.68922 14.4454 9.72026 14.8253C9.75002 15.1895 9.75001 15.6354 9.75 16.1695V16.1695V16.2V17.8V17.8305V17.8305C9.75001 18.3646 9.75002 18.8105 9.72026 19.1747C9.68922 19.5546 9.62211 19.9112 9.45027 20.2485C9.18662 20.7659 8.76592 21.1866 8.24848 21.4503C7.91121 21.6221 7.55456 21.6892 7.17467 21.7203C6.81048 21.75 6.3647 21.75 5.83064 21.75H5.83045H5.8H4.2H4.16955H4.16936C3.6353 21.75 3.18952 21.75 2.82533 21.7203C2.44545 21.6892 2.08879 21.6221 1.75153 21.4503C1.23408 21.1866 0.813385 20.7659 0.549733 20.2485C0.377889 19.9112 0.310778 19.5546 0.27974 19.1747C0.249981 18.8104 0.24999 18.3646 0.25 17.8304L0.250001 17.8V16.2L0.25 16.1696C0.24999 15.6354 0.249981 15.1896 0.27974 14.8253C0.310778 14.4454 0.377889 14.0888 0.549733 13.7515C0.813385 13.2341 1.23408 12.8134 1.75153 12.5497C2.08879 12.3779 2.44545 12.3108 2.82533 12.2797C3.18956 12.25 3.63541 12.25 4.16957 12.25ZM2.94748 13.7748C2.66036 13.7982 2.52307 13.8401 2.43251 13.8862C2.19731 14.0061 2.00608 14.1973 1.88624 14.4325C1.8401 14.5231 1.79822 14.6604 1.77476 14.9475C1.75058 15.2434 1.75 15.6276 1.75 16.2V17.8C1.75 18.3724 1.75058 18.7566 1.77476 19.0525C1.79822 19.3396 1.8401 19.4769 1.88624 19.5675C2.00608 19.8027 2.19731 19.9939 2.43251 20.1138C2.52307 20.1599 2.66036 20.2018 2.94748 20.2252C3.24336 20.2494 3.62757 20.25 4.2 20.25H5.8C6.37243 20.25 6.75664 20.2494 7.05252 20.2252C7.33965 20.2018 7.47693 20.1599 7.56749 20.1138C7.80269 19.9939 7.99392 19.8027 8.11376 19.5675C8.1599 19.4769 8.20178 19.3396 8.22524 19.0525C8.24942 18.7566 8.25 18.3724 8.25 17.8V16.2C8.25 15.6276 8.24942 15.2434 8.22524 14.9475C8.20178 14.6604 8.1599 14.5231 8.11376 14.4325C7.99392 14.1973 7.80269 14.0061 7.56749 13.8862C7.47693 13.8401 7.33965 13.7982 7.05252 13.7748C6.75664 13.7506 6.37243 13.75 5.8 13.75H4.2C3.62757 13.75 3.24336 13.7506 2.94748 13.7748ZM16.2 12.25H16.1696C15.6354 12.25 15.1896 12.25 14.8253 12.2797C14.4454 12.3108 14.0888 12.3779 13.7515 12.5497C13.2341 12.8134 12.8134 13.2341 12.5497 13.7515C12.3779 14.0888 12.3108 14.4454 12.2797 14.8253C12.25 15.1896 12.25 15.6354 12.25 16.1696V16.2V17.8V17.8304C12.25 18.3646 12.25 18.8104 12.2797 19.1747C12.3108 19.5546 12.3779 19.9112 12.5497 20.2485C12.8134 20.7659 13.2341 21.1866 13.7515 21.4503C14.0888 21.6221 14.4454 21.6892 14.8253 21.7203C15.1895 21.75 15.6353 21.75 16.1694 21.75H16.1695H16.2H17.8H17.8305H17.8306C18.3647 21.75 18.8105 21.75 19.1747 21.7203C19.5546 21.6892 19.9112 21.6221 20.2485 21.4503C20.7659 21.1866 21.1866 20.7659 21.4503 20.2485C21.6221 19.9112 21.6892 19.5546 21.7203 19.1747C21.75 18.8105 21.75 18.3647 21.75 17.8306V17.8305V17.8V16.2V16.1695V16.1694C21.75 15.6353 21.75 15.1895 21.7203 14.8253C21.6892 14.4454 21.6221 14.0888 21.4503 13.7515C21.1866 13.2341 20.7659 12.8134 20.2485 12.5497C19.9112 12.3779 19.5546 12.3108 19.1747 12.2797C18.8104 12.25 18.3646 12.25 17.8304 12.25H17.8H16.2ZM14.4325 13.8862C14.5231 13.8401 14.6604 13.7982 14.9475 13.7748C15.2434 13.7506 15.6276 13.75 16.2 13.75H17.8C18.3724 13.75 18.7566 13.7506 19.0525 13.7748C19.3396 13.7982 19.4769 13.8401 19.5675 13.8862C19.8027 14.0061 19.9939 14.1973 20.1138 14.4325C20.1599 14.5231 20.2018 14.6604 20.2252 14.9475C20.2494 15.2434 20.25 15.6276 20.25 16.2V17.8C20.25 18.3724 20.2494 18.7566 20.2252 19.0525C20.2018 19.3396 20.1599 19.4769 20.1138 19.5675C19.9939 19.8027 19.8027 19.9939 19.5675 20.1138C19.4769 20.1599 19.3396 20.2018 19.0525 20.2252C18.7566 20.2494 18.3724 20.25 17.8 20.25H16.2C15.6276 20.25 15.2434 20.2494 14.9475 20.2252C14.6604 20.2018 14.5231 20.1599 14.4325 20.1138C14.1973 19.9939 14.0061 19.8027 13.8862 19.5675C13.8401 19.4769 13.7982 19.3396 13.7748 19.0525C13.7506 18.7566 13.75 18.3724 13.75 17.8V16.2C13.75 15.6276 13.7506 15.2434 13.7748 14.9475C13.7982 14.6604 13.8401 14.5231 13.8862 14.4325C14.0061 14.1973 14.1973 14.0061 14.4325 13.8862Z" fill="white"/>
<path d="M13 5H21M17 1V9" stroke="#C92222" stroke-width="1.5" stroke-linecap="round" stroke-linejoin="round"/>
</svg>
