<svg width="40" height="41" viewBox="0 0 40 41" fill="none" xmlns="http://www.w3.org/2000/svg">
<rect opacity="0.12" x="3.33325" y="3.83325" width="33.3333" height="33.3333" rx="16" fill="black"/>
<path fill-rule="evenodd" clip-rule="evenodd" d="M19.9999 3.08325H19.9798C19.3797 3.08325 19.0592 3.08325 18.7852 3.09222C9.96445 3.38098 2.88098 10.4644 2.59222 19.2852C2.58325 19.5592 2.58325 19.8797 2.58325 20.4798V20.4999V20.52C2.58325 21.1201 2.58325 21.4406 2.59222 21.7146C2.88098 30.5354 9.96445 37.6189 18.7852 37.9076C19.0592 37.9166 19.3796 37.9166 19.9795 37.9166H19.9999H20.0203C20.6202 37.9166 20.9407 37.9166 21.2146 37.9076C30.0354 37.6189 37.1189 30.5354 37.4076 21.7146C37.4166 21.4407 37.4166 21.1202 37.4166 20.5203V20.4999V20.4795C37.4166 19.8796 37.4166 19.5592 37.4076 19.2852C37.1189 10.4644 30.0354 3.38098 21.2146 3.09222C20.9406 3.08325 20.6201 3.08325 20.02 3.08325H19.9999ZM4.09142 21.6656C4.08335 21.4192 4.08325 21.1248 4.08325 20.4999C4.08325 19.875 4.08335 19.5806 4.09142 19.3343C4.35432 11.3034 10.8034 4.85432 18.8343 4.59142C19.0806 4.58335 19.375 4.58325 19.9999 4.58325C20.6248 4.58325 20.9192 4.58335 21.1656 4.59142C29.1964 4.85432 35.6455 11.3034 35.9084 19.3343C35.9165 19.5806 35.9166 19.875 35.9166 20.4999C35.9166 21.1248 35.9165 21.4192 35.9084 21.6656C35.6455 29.6964 29.1964 36.1455 21.1656 36.4084C20.9192 36.4165 20.6248 36.4166 19.9999 36.4166C19.375 36.4166 19.0806 36.4165 18.8343 36.4084C10.8034 36.1455 4.35432 29.6964 4.09142 21.6656ZM23.3333 13.0833C22.919 13.0833 22.5833 13.419 22.5833 13.8333C22.5833 14.2475 22.919 14.5833 23.3333 14.5833H28.3986L23.3337 20.6612C22.9364 21.138 22.6679 21.4591 22.4417 21.6882C22.2211 21.9116 22.0915 21.9933 21.9931 22.0324C21.7333 22.1354 21.4464 22.1484 21.1784 22.0693C21.0769 22.0394 20.9403 21.9697 20.7004 21.7672C20.4544 21.5595 20.158 21.264 19.7191 20.8251L19.4597 20.5657L19.4381 20.5441L19.4381 20.5441C19.0604 20.1664 18.7452 19.8512 18.4666 19.6147C18.176 19.368 17.8764 19.1632 17.5164 19.0463C16.9641 18.8668 16.3691 18.8668 15.8168 19.0463C15.4568 19.1632 15.1571 19.368 14.8666 19.6147C14.588 19.8512 14.2727 20.1664 13.895 20.5441L13.8735 20.5657L9.46959 24.9696C9.1767 25.2625 9.1767 25.7374 9.46959 26.0302C9.76248 26.3231 10.2374 26.3231 10.5302 26.0302L14.9342 21.6263C15.3389 21.2216 15.611 20.9503 15.8373 20.7582C16.057 20.5717 16.1836 20.5043 16.2803 20.4729C16.5314 20.3913 16.8018 20.3913 17.0529 20.4729C17.1495 20.5043 17.2762 20.5717 17.4958 20.7582C17.7221 20.9503 17.9942 21.2216 18.399 21.6263L18.6585 21.8858L18.6811 21.9084C19.0915 22.3189 19.4326 22.66 19.7329 22.9134C20.0447 23.1767 20.3671 23.3939 20.7538 23.508C21.3436 23.682 21.9746 23.6534 22.5461 23.4267C22.9209 23.278 23.2223 23.0325 23.5091 22.7421C23.7851 22.4626 24.0939 22.092 24.4655 21.646L24.486 21.6215L29.2499 15.9048V20.4999C29.2499 20.9141 29.5857 21.2499 29.9999 21.2499C30.4141 21.2499 30.7499 20.9141 30.7499 20.4999V13.8333C30.7499 13.419 30.4141 13.0833 29.9999 13.0833H23.3333Z" fill="black"/>
</svg>
