<svg width="116" height="100" viewBox="0 0 116 100" fill="none" xmlns="http://www.w3.org/2000/svg">
<g opacity="0.43">
<rect x="115.5" y="99.4572" width="2.18857" height="2.18857" transform="rotate(180 115.5 99.4572)" fill="white"/>
<rect x="115.5" y="87.3683" width="2.18857" height="2.18857" transform="rotate(180 115.5 87.3683)" fill="white"/>
<rect x="102.368" y="87.3683" width="2.18857" height="2.18857" transform="rotate(180 102.368 87.3683)" fill="white"/>
<rect x="115.5" y="75.2784" width="2.18857" height="2.18857" transform="rotate(180 115.5 75.2784)" fill="white"/>
<rect x="102.368" y="75.2784" width="2.18857" height="2.18857" transform="rotate(180 102.368 75.2784)" fill="white"/>
<rect x="89.2373" y="75.2783" width="2.18857" height="2.18857" transform="rotate(180 89.2373 75.2783)" fill="white"/>
<rect x="115.5" y="63.1896" width="2.18857" height="2.18857" transform="rotate(180 115.5 63.1896)" fill="white"/>
<rect x="102.368" y="63.1896" width="2.18857" height="2.18857" transform="rotate(180 102.368 63.1896)" fill="white"/>
<rect x="89.2373" y="63.1897" width="2.18857" height="2.18857" transform="rotate(180 89.2373 63.1897)" fill="white"/>
<rect x="76.1055" y="63.1897" width="2.18857" height="2.18857" transform="rotate(180 76.1055 63.1897)" fill="white"/>
<rect x="115.5" y="51.1007" width="2.18857" height="2.18857" transform="rotate(180 115.5 51.1007)" fill="white"/>
<rect x="102.368" y="51.1007" width="2.18857" height="2.18857" transform="rotate(180 102.368 51.1007)" fill="white"/>
<rect x="89.2373" y="51.1005" width="2.18857" height="2.18857" transform="rotate(180 89.2373 51.1005)" fill="white"/>
<rect x="76.1055" y="51.1005" width="2.18857" height="2.18857" transform="rotate(180 76.1055 51.1005)" fill="white"/>
<rect x="62.9746" y="51.1007" width="2.18857" height="2.18857" transform="rotate(180 62.9746 51.1007)" fill="white"/>
<rect x="115.5" y="39.0109" width="2.18857" height="2.18857" transform="rotate(180 115.5 39.0109)" fill="white"/>
<rect x="102.368" y="39.0109" width="2.18857" height="2.18857" transform="rotate(180 102.368 39.0109)" fill="white"/>
<rect x="89.2373" y="39.0109" width="2.18857" height="2.18857" transform="rotate(180 89.2373 39.0109)" fill="white"/>
<rect x="76.1055" y="39.0109" width="2.18857" height="2.18857" transform="rotate(180 76.1055 39.0109)" fill="white"/>
<rect x="62.9746" y="39.0109" width="2.18857" height="2.18857" transform="rotate(180 62.9746 39.0109)" fill="white"/>
<rect x="49.8428" y="39.0109" width="2.18857" height="2.18857" transform="rotate(180 49.8428 39.0109)" fill="white"/>
<rect x="115.5" y="26.9221" width="2.18857" height="2.18857" transform="rotate(180 115.5 26.9221)" fill="white"/>
<rect x="102.368" y="26.9221" width="2.18857" height="2.18857" transform="rotate(180 102.368 26.9221)" fill="white"/>
<rect x="89.2373" y="26.9222" width="2.18857" height="2.18857" transform="rotate(180 89.2373 26.9222)" fill="white"/>
<rect x="76.1055" y="26.9222" width="2.18857" height="2.18857" transform="rotate(180 76.1055 26.9222)" fill="white"/>
<rect x="62.9746" y="26.9221" width="2.18857" height="2.18857" transform="rotate(180 62.9746 26.9221)" fill="white"/>
<rect x="49.8428" y="26.9222" width="2.18857" height="2.18857" transform="rotate(180 49.8428 26.9222)" fill="white"/>
<rect x="36.7119" y="26.9221" width="2.18857" height="2.18857" transform="rotate(180 36.7119 26.9221)" fill="white"/>
<rect x="115.5" y="14.8329" width="2.18857" height="2.18857" transform="rotate(180 115.5 14.8329)" fill="white"/>
<rect x="102.368" y="14.8329" width="2.18857" height="2.18857" transform="rotate(180 102.368 14.8329)" fill="white"/>
<rect x="89.2373" y="14.8328" width="2.18857" height="2.18857" transform="rotate(180 89.2373 14.8328)" fill="white"/>
<rect x="76.1055" y="14.8328" width="2.18857" height="2.18857" transform="rotate(180 76.1055 14.8328)" fill="white"/>
<rect x="62.9746" y="14.8329" width="2.18857" height="2.18857" transform="rotate(180 62.9746 14.8329)" fill="white"/>
<rect x="49.8428" y="14.8328" width="2.18857" height="2.18857" transform="rotate(180 49.8428 14.8328)" fill="white"/>
<rect x="36.7119" y="14.8329" width="2.18857" height="2.18857" transform="rotate(180 36.7119 14.8329)" fill="white"/>
<rect x="23.5801" y="14.8328" width="2.18857" height="2.18857" transform="rotate(180 23.5801 14.8328)" fill="white"/>
<rect x="115.5" y="2.74329" width="2.18857" height="2.18857" transform="rotate(180 115.5 2.74329)" fill="white"/>
<rect x="102.368" y="2.74329" width="2.18857" height="2.18857" transform="rotate(180 102.368 2.74329)" fill="white"/>
<rect x="89.2373" y="2.74329" width="2.18857" height="2.18857" transform="rotate(180 89.2373 2.74329)" fill="white"/>
<rect x="76.1055" y="2.74329" width="2.18857" height="2.18857" transform="rotate(180 76.1055 2.74329)" fill="white"/>
<rect x="62.9746" y="2.74329" width="2.18857" height="2.18857" transform="rotate(180 62.9746 2.74329)" fill="white"/>
<rect x="49.8428" y="2.74329" width="2.18857" height="2.18857" transform="rotate(180 49.8428 2.74329)" fill="white"/>
<rect x="36.7119" y="2.74329" width="2.18857" height="2.18857" transform="rotate(180 36.7119 2.74329)" fill="white"/>
<rect x="23.5801" y="2.74329" width="2.18857" height="2.18857" transform="rotate(180 23.5801 2.74329)" fill="white"/>
<rect x="10.4482" y="2.74329" width="2.18857" height="2.18857" transform="rotate(180 10.4482 2.74329)" fill="white"/>
</g>
</svg>
