<svg width="59" height="58" viewBox="0 0 59 58" fill="none" xmlns="http://www.w3.org/2000/svg">
<path opacity="0.12" d="M5.3335 9.633C5.3335 7.95285 5.3335 7.11277 5.66048 6.47104C5.9481 5.90655 6.40704 5.44761 6.97152 5.15999C7.61326 4.83301 8.45334 4.83301 10.1335 4.83301H24.1169C25.1938 4.83301 25.7322 4.83301 26.2076 4.99697C26.628 5.14197 27.0109 5.3786 27.3286 5.68975C27.6878 6.04161 27.9286 6.5232 28.4102 7.48638L31.0324 12.7308C31.3534 13.3729 31.514 13.6939 31.7535 13.9285C31.9653 14.1359 32.2205 14.2937 32.5008 14.3904C32.8177 14.4997 33.1766 14.4997 33.8945 14.4997H47.2668C49.507 14.4997 50.6271 14.4997 51.4828 14.9356C52.2354 15.3191 52.8474 15.9311 53.2309 16.6837C53.6668 17.5394 53.6668 18.6595 53.6668 20.8997V46.7663C53.6668 49.0065 53.6668 50.1267 53.2309 50.9823C52.8474 51.735 52.2354 52.3469 51.4828 52.7304C50.6271 53.1663 49.507 53.1663 47.2668 53.1663H11.7335C9.49328 53.1663 8.37318 53.1663 7.51753 52.7304C6.76489 52.3469 6.15296 51.735 5.76947 50.9823C5.3335 50.1267 5.3335 49.0066 5.3335 46.7663V9.633Z" fill="black"/>
<path d="M5.3335 9.633C5.3335 7.95285 5.3335 7.11277 5.66048 6.47104C5.9481 5.90655 6.40704 5.44761 6.97152 5.15999C7.61326 4.83301 8.45334 4.83301 10.1335 4.83301H24.1169C25.1938 4.83301 25.7322 4.83301 26.2076 4.99697C26.628 5.14197 27.0109 5.3786 27.3286 5.68975C27.6878 6.04161 27.9286 6.5232 28.4102 7.48638L31.0324 12.7308C31.3534 13.3729 31.514 13.6939 31.7535 13.9285C31.9653 14.1359 32.2205 14.2937 32.5008 14.3904C32.8177 14.4997 33.1766 14.4997 33.8945 14.4997H47.2668C49.507 14.4997 50.6271 14.4997 51.4828 14.9356C52.2354 15.3191 52.8474 15.9311 53.2309 16.6837C53.6668 17.5394 53.6668 18.6595 53.6668 20.8997V46.7663C53.6668 49.0065 53.6668 50.1267 53.2309 50.9823C52.8474 51.735 52.2354 52.3469 51.4828 52.7304C50.6271 53.1663 49.507 53.1663 47.2668 53.1663H11.7335C9.49328 53.1663 8.37318 53.1663 7.51753 52.7304C6.76489 52.3469 6.15296 51.735 5.76947 50.9823C5.3335 50.1267 5.3335 49.0066 5.3335 46.7663V9.633Z" fill="black"/>
<path d="M29.5002 26.583V41.083M29.5002 41.083L35.5418 35.0413M29.5002 41.083L23.4585 35.0413" stroke="white" stroke-width="2" stroke-linecap="round" stroke-linejoin="round"/>
</svg>
