<svg width="530" height="298" viewBox="0 0 530 298" fill="none" xmlns="http://www.w3.org/2000/svg">
<path d="M279.193 289.913H201.386L177.506 186.246L243.772 160.13L308.445 186.844L279.193 289.913Z" fill="#2E2E2E"/>
<path d="M476 176.083L279.193 289.918V194.424L361.179 116.674L476 111.434V176.083Z" fill="#1E1E1E"/>
<path d="M201.386 289.918L40 196.618V133.391L201.386 194.425V289.918Z" fill="#323232"/>
<path d="M476 146.801V101.746L314.614 8.44531H236.807L40 122.28V167.335L201.386 260.636H279.193L476 146.801Z" fill="#C92222"/>
<path opacity="0.25" d="M293.736 199.33L183.354 202.638L40 119.118V176.383L201.375 270.445H279.196L476 155.71V98.4453L293.736 199.33Z" fill="black"/>
<path d="M476 146.801V101.746L314.614 8.44531H236.807L40 122.28V167.335L201.386 260.636H279.193L476 146.801Z" fill="#C92222"/>
<path fill-rule="evenodd" clip-rule="evenodd" d="M201.538 136.475C203.339 136.455 204.759 137.275 204.724 138.314L204.118 157.582L219.462 148.723C220.744 147.983 222.822 147.963 224.052 148.673L224.641 149.013C225.091 146.714 226.858 144.454 229.94 142.674C237.006 138.594 248.316 138.484 255.139 142.424C261.911 146.334 261.755 152.823 254.793 156.903L254.585 157.023C247.519 161.042 236.296 161.122 229.525 157.212L221.645 152.663L203.01 163.422C202.057 163.972 200.672 164.152 199.477 163.862C199.078 163.772 198.732 163.652 198.437 163.482L198.403 163.462C197.849 163.122 197.502 162.662 197.537 162.162L198.247 138.374C198.264 137.864 198.628 137.414 199.182 137.075L199.286 137.015C199.875 136.695 200.672 136.475 201.538 136.475ZM250.48 145.114C246.133 142.604 238.946 142.674 234.443 145.274C229.958 147.863 229.836 152.013 234.183 154.523C238.513 157.023 245.7 156.953 250.186 154.363C254.689 151.763 254.81 147.613 250.48 145.114ZM231.031 132.845C232.833 132.825 234.253 133.645 234.201 134.675C234.201 135.195 233.82 135.655 233.214 136.005C232.625 136.345 231.811 136.575 230.91 136.575C227.897 136.615 225.022 137.315 222.84 138.574C220.675 139.824 219.445 141.494 219.393 143.224C219.376 143.754 218.995 144.214 218.389 144.564C217.8 144.904 217.003 145.124 216.085 145.134C214.319 145.154 212.899 144.334 212.916 143.304C213.003 140.554 214.942 137.954 218.354 135.985C221.783 134.005 226.286 132.885 231.031 132.845Z" fill="white"/>
<path d="M262.839 135.919L248.295 127.521L249.981 126.548L263.046 134.091L268.785 130.778L270.264 131.632L262.839 135.919ZM274.844 128.988L264.264 118.256L266.887 116.742L285.444 122.868L283.709 123.87L278.838 122.23L273.75 125.168L276.58 127.986L274.844 128.988ZM272.665 124.086L276.964 121.604L266.709 118.154L272.665 124.086ZM280.69 108.818C283.382 107.264 286.015 107.008 288.381 108.374C290.62 109.666 290.186 111.238 288.717 112.166C290.432 111.221 293.154 110.765 295.757 112.268C298.311 113.743 298.262 115.468 295.155 117.261L290.403 120.005L275.858 111.608L280.69 108.818ZM281.765 109.906L278.964 111.522L283.717 114.266L286.133 112.872C288.233 111.659 288.608 110.452 286.951 109.496C285.305 108.545 283.54 108.881 281.765 109.906ZM293.351 116.595C295.353 115.439 295.698 114.215 293.952 113.207C291.832 111.983 289.565 112.587 287.691 113.669L285.186 115.115L290.551 118.212L293.351 116.595ZM309.935 108.956C306.918 110.698 303.703 110.891 300.814 109.223L300.143 108.836L301.829 107.863L302.47 108.233C304.482 109.394 306.385 109.252 308.397 108.09C310.477 106.889 310.881 105.881 309.294 104.965C307.618 103.997 305.429 104.43 302.628 105.284C299.443 106.257 296.416 106.559 294 105.164C291.634 103.798 292.186 101.976 294.927 100.393C297.826 98.7197 301.031 98.418 303.792 100.012L304.531 100.439L302.845 101.412L302.175 101.025C300.262 99.9209 298.457 100.109 296.475 101.253C294.572 102.352 294.119 103.342 295.637 104.219C297.353 105.21 299.591 104.714 302.421 103.889C305.853 102.887 308.466 102.585 310.881 103.98C313.307 105.38 312.913 107.236 309.935 108.956Z" fill="white"/>
<circle cx="2.37311" cy="2.37311" r="2.37311" transform="matrix(0.866025 -0.5 0.866025 0.5 297.536 20.8184)" fill="black"/>
<circle cx="2.37311" cy="2.37311" r="2.37311" transform="matrix(0.866025 -0.5 0.866025 0.5 302.768 23.6436)" fill="black"/>
<circle cx="2.37311" cy="2.37311" r="2.37311" transform="matrix(0.866025 -0.5 0.866025 0.5 308 26.4688)" fill="black"/>
<circle cx="2.37311" cy="2.37311" r="2.37311" transform="matrix(0.866025 -0.5 0.866025 0.5 313.232 29.294)" fill="black"/>
<circle cx="2.37311" cy="2.37311" r="2.37311" transform="matrix(0.866025 -0.5 0.866025 0.5 318.464 32.1192)" fill="black"/>
<circle cx="2.37311" cy="2.37311" r="2.37311" transform="matrix(0.866025 -0.5 0.866025 0.5 323.697 34.9444)" fill="black"/>
<circle cx="2.37311" cy="2.37311" r="2.37311" transform="matrix(0.866025 -0.5 0.866025 0.5 328.929 37.7696)" fill="black"/>
<circle cx="2.37311" cy="2.37311" r="2.37311" transform="matrix(0.866025 -0.5 0.866025 0.5 334.161 40.5948)" fill="black"/>
<circle cx="2.37311" cy="2.37311" r="2.37311" transform="matrix(0.866025 -0.5 0.866025 0.5 339.393 43.42)" fill="black"/>
<circle cx="2.37311" cy="2.37311" r="2.37311" transform="matrix(0.866025 -0.5 0.866025 0.5 344.625 46.2452)" fill="black"/>
<circle cx="2.37311" cy="2.37311" r="2.37311" transform="matrix(0.866025 -0.5 0.866025 0.5 349.857 49.0704)" fill="black"/>
<circle cx="2.37311" cy="2.37311" r="2.37311" transform="matrix(0.866025 -0.5 0.866025 0.5 296.768 25.6436)" fill="black"/>
<circle cx="2.37311" cy="2.37311" r="2.37311" transform="matrix(0.866025 -0.5 0.866025 0.5 302 28.4688)" fill="black"/>
<circle cx="2.37311" cy="2.37311" r="2.37311" transform="matrix(0.866025 -0.5 0.866025 0.5 307.232 31.294)" fill="black"/>
<circle cx="2.37311" cy="2.37311" r="2.37311" transform="matrix(0.866025 -0.5 0.866025 0.5 312.464 34.1192)" fill="black"/>
<circle cx="2.37311" cy="2.37311" r="2.37311" transform="matrix(0.866025 -0.5 0.866025 0.5 317.697 36.9444)" fill="black"/>
<circle cx="2.37311" cy="2.37311" r="2.37311" transform="matrix(0.866025 -0.5 0.866025 0.5 322.929 39.7696)" fill="black"/>
<circle cx="2.37311" cy="2.37311" r="2.37311" transform="matrix(0.866025 -0.5 0.866025 0.5 328.161 42.5948)" fill="black"/>
<circle cx="2.37311" cy="2.37311" r="2.37311" transform="matrix(0.866025 -0.5 0.866025 0.5 333.393 45.42)" fill="black"/>
<circle cx="2.37311" cy="2.37311" r="2.37311" transform="matrix(0.866025 -0.5 0.866025 0.5 338.625 48.2452)" fill="black"/>
<circle cx="2.37311" cy="2.37311" r="2.37311" transform="matrix(0.866025 -0.5 0.866025 0.5 343.857 51.0704)" fill="black"/>
<circle cx="2.37311" cy="2.37311" r="2.37311" transform="matrix(0.866025 -0.5 0.866025 0.5 349.09 53.8956)" fill="black"/>
<circle cx="2.37311" cy="2.37311" r="2.37311" transform="matrix(0.866025 -0.5 0.866025 0.5 296 30.4688)" fill="black"/>
<circle cx="2.37311" cy="2.37311" r="2.37311" transform="matrix(0.866025 -0.5 0.866025 0.5 301.232 33.294)" fill="black"/>
<circle cx="2.37311" cy="2.37311" r="2.37311" transform="matrix(0.866025 -0.5 0.866025 0.5 306.464 36.1192)" fill="black"/>
<circle cx="2.37311" cy="2.37311" r="2.37311" transform="matrix(0.866025 -0.5 0.866025 0.5 311.697 38.9444)" fill="black"/>
<circle cx="2.37311" cy="2.37311" r="2.37311" transform="matrix(0.866025 -0.5 0.866025 0.5 316.929 41.7696)" fill="black"/>
<circle cx="2.37311" cy="2.37311" r="2.37311" transform="matrix(0.866025 -0.5 0.866025 0.5 322.161 44.5948)" fill="black"/>
<circle cx="2.37311" cy="2.37311" r="2.37311" transform="matrix(0.866025 -0.5 0.866025 0.5 327.393 47.42)" fill="black"/>
<circle cx="2.37311" cy="2.37311" r="2.37311" transform="matrix(0.866025 -0.5 0.866025 0.5 332.625 50.2452)" fill="black"/>
<circle cx="2.37311" cy="2.37311" r="2.37311" transform="matrix(0.866025 -0.5 0.866025 0.5 337.857 53.0704)" fill="black"/>
<circle cx="2.37311" cy="2.37311" r="2.37311" transform="matrix(0.866025 -0.5 0.866025 0.5 343.09 55.8956)" fill="black"/>
<circle cx="2.37311" cy="2.37311" r="2.37311" transform="matrix(0.866025 -0.5 0.866025 0.5 348.322 58.7208)" fill="black"/>
<circle cx="2.37311" cy="2.37311" r="2.37311" transform="matrix(0.866025 -0.5 0.866025 0.5 51.5356 141.818)" fill="black"/>
<circle cx="2.37311" cy="2.37311" r="2.37311" transform="matrix(0.866025 -0.5 0.866025 0.5 56.7678 144.644)" fill="black"/>
<circle cx="2.37311" cy="2.37311" r="2.37311" transform="matrix(0.866025 -0.5 0.866025 0.5 62 147.469)" fill="black"/>
<circle cx="2.37311" cy="2.37311" r="2.37311" transform="matrix(0.866025 -0.5 0.866025 0.5 50.7678 146.644)" fill="black"/>
<circle cx="2.37311" cy="2.37311" r="2.37311" transform="matrix(0.866025 -0.5 0.866025 0.5 56 149.469)" fill="black"/>
<circle cx="2.37311" cy="2.37311" r="2.37311" transform="matrix(0.866025 -0.5 0.866025 0.5 61.2322 152.294)" fill="black"/>
<circle cx="2.37311" cy="2.37311" r="2.37311" transform="matrix(0.866025 -0.5 0.866025 0.5 50 151.469)" fill="black"/>
<circle cx="2.37311" cy="2.37311" r="2.37311" transform="matrix(0.866025 -0.5 0.866025 0.5 55.2322 154.294)" fill="black"/>
<circle cx="2.37311" cy="2.37311" r="2.37311" transform="matrix(0.866025 -0.5 0.866025 0.5 60.4644 157.119)" fill="black"/>
<circle cx="2.37311" cy="2.37311" r="2.37311" transform="matrix(0.866025 -0.5 0.866025 0.5 448.536 103.818)" fill="black"/>
<circle cx="2.37311" cy="2.37311" r="2.37311" transform="matrix(0.866025 -0.5 0.866025 0.5 453.768 106.644)" fill="black"/>
<circle cx="2.37311" cy="2.37311" r="2.37311" transform="matrix(0.866025 -0.5 0.866025 0.5 459 109.469)" fill="black"/>
<circle cx="2.37311" cy="2.37311" r="2.37311" transform="matrix(0.866025 -0.5 0.866025 0.5 447.768 108.644)" fill="black"/>
<circle cx="2.37311" cy="2.37311" r="2.37311" transform="matrix(0.866025 -0.5 0.866025 0.5 453 111.469)" fill="black"/>
<circle cx="2.37311" cy="2.37311" r="2.37311" transform="matrix(0.866025 -0.5 0.866025 0.5 458.232 114.294)" fill="black"/>
<circle cx="2.37311" cy="2.37311" r="2.37311" transform="matrix(0.866025 -0.5 0.866025 0.5 447 113.469)" fill="black"/>
<circle cx="2.37311" cy="2.37311" r="2.37311" transform="matrix(0.866025 -0.5 0.866025 0.5 452.232 116.294)" fill="black"/>
<circle cx="2.37311" cy="2.37311" r="2.37311" transform="matrix(0.866025 -0.5 0.866025 0.5 457.464 119.119)" fill="black"/>
<circle cx="2.37311" cy="2.37311" r="2.37311" transform="matrix(0.866025 -0.5 0.866025 0.5 355.536 51.8184)" fill="black"/>
<circle cx="2.37311" cy="2.37311" r="2.37311" transform="matrix(0.866025 -0.5 0.866025 0.5 360.768 54.6436)" fill="black"/>
<circle cx="2.37311" cy="2.37311" r="2.37311" transform="matrix(0.866025 -0.5 0.866025 0.5 366 57.4688)" fill="black"/>
<circle cx="2.37311" cy="2.37311" r="2.37311" transform="matrix(0.866025 -0.5 0.866025 0.5 371.232 60.294)" fill="black"/>
<circle cx="2.37311" cy="2.37311" r="2.37311" transform="matrix(0.866025 -0.5 0.866025 0.5 376.464 63.1192)" fill="black"/>
<circle cx="2.37311" cy="2.37311" r="2.37311" transform="matrix(0.866025 -0.5 0.866025 0.5 381.697 65.9444)" fill="black"/>
<circle cx="2.37311" cy="2.37311" r="2.37311" transform="matrix(0.866025 -0.5 0.866025 0.5 386.929 68.7696)" fill="black"/>
<circle cx="2.37311" cy="2.37311" r="2.37311" transform="matrix(0.866025 -0.5 0.866025 0.5 392.161 71.5948)" fill="black"/>
<circle cx="2.37311" cy="2.37311" r="2.37311" transform="matrix(0.866025 -0.5 0.866025 0.5 397.393 74.42)" fill="black"/>
<circle cx="2.37311" cy="2.37311" r="2.37311" transform="matrix(0.866025 -0.5 0.866025 0.5 402.625 77.2452)" fill="black"/>
<circle cx="2.37311" cy="2.37311" r="2.37311" transform="matrix(0.866025 -0.5 0.866025 0.5 407.857 80.0704)" fill="black"/>
<circle cx="2.37311" cy="2.37311" r="2.37311" transform="matrix(0.866025 -0.5 0.866025 0.5 354.768 56.6436)" fill="black"/>
<circle cx="2.37311" cy="2.37311" r="2.37311" transform="matrix(0.866025 -0.5 0.866025 0.5 360 59.4688)" fill="black"/>
<circle cx="2.37311" cy="2.37311" r="2.37311" transform="matrix(0.866025 -0.5 0.866025 0.5 365.232 62.294)" fill="black"/>
<circle cx="2.37311" cy="2.37311" r="2.37311" transform="matrix(0.866025 -0.5 0.866025 0.5 370.464 65.1192)" fill="black"/>
<circle cx="2.37311" cy="2.37311" r="2.37311" transform="matrix(0.866025 -0.5 0.866025 0.5 375.697 67.9444)" fill="black"/>
<circle cx="2.37311" cy="2.37311" r="2.37311" transform="matrix(0.866025 -0.5 0.866025 0.5 380.929 70.7696)" fill="black"/>
<circle cx="2.37311" cy="2.37311" r="2.37311" transform="matrix(0.866025 -0.5 0.866025 0.5 386.161 73.5948)" fill="black"/>
<circle cx="2.37311" cy="2.37311" r="2.37311" transform="matrix(0.866025 -0.5 0.866025 0.5 391.393 76.42)" fill="black"/>
<circle cx="2.37311" cy="2.37311" r="2.37311" transform="matrix(0.866025 -0.5 0.866025 0.5 396.625 79.2452)" fill="black"/>
<circle cx="2.37311" cy="2.37311" r="2.37311" transform="matrix(0.866025 -0.5 0.866025 0.5 401.857 82.0704)" fill="black"/>
<circle cx="2.37311" cy="2.37311" r="2.37311" transform="matrix(0.866025 -0.5 0.866025 0.5 407.09 84.8956)" fill="black"/>
<circle cx="2.37311" cy="2.37311" r="2.37311" transform="matrix(0.866025 -0.5 0.866025 0.5 354 61.4688)" fill="black"/>
<circle cx="2.37311" cy="2.37311" r="2.37311" transform="matrix(0.866025 -0.5 0.866025 0.5 359.232 64.294)" fill="black"/>
<circle cx="2.37311" cy="2.37311" r="2.37311" transform="matrix(0.866025 -0.5 0.866025 0.5 364.464 67.1192)" fill="black"/>
<circle cx="2.37311" cy="2.37311" r="2.37311" transform="matrix(0.866025 -0.5 0.866025 0.5 369.697 69.9444)" fill="black"/>
<circle cx="2.37311" cy="2.37311" r="2.37311" transform="matrix(0.866025 -0.5 0.866025 0.5 374.929 72.7696)" fill="black"/>
<circle cx="2.37311" cy="2.37311" r="2.37311" transform="matrix(0.866025 -0.5 0.866025 0.5 380.161 75.5948)" fill="black"/>
<circle cx="2.37311" cy="2.37311" r="2.37311" transform="matrix(0.866025 -0.5 0.866025 0.5 385.393 78.42)" fill="black"/>
<circle cx="2.37311" cy="2.37311" r="2.37311" transform="matrix(0.866025 -0.5 0.866025 0.5 390.625 81.2452)" fill="black"/>
<circle cx="2.37311" cy="2.37311" r="2.37311" transform="matrix(0.866025 -0.5 0.866025 0.5 395.857 84.0704)" fill="black"/>
<circle cx="2.37311" cy="2.37311" r="2.37311" transform="matrix(0.866025 -0.5 0.866025 0.5 401.09 86.8956)" fill="black"/>
<circle cx="2.37311" cy="2.37311" r="2.37311" transform="matrix(0.866025 -0.5 0.866025 0.5 406.322 89.7208)" fill="black"/>
</svg>
