<svg width="896" height="479" viewBox="0 0 896 479" fill="none" xmlns="http://www.w3.org/2000/svg">
<g clip-path="url(#clip0_1230_77497)">
<path d="M0 26.0784C0 13.7849 0 7.6382 3.8191 3.8191C7.6382 0 13.7849 0 26.0784 0H862C878.028 0 886.042 0 891.021 4.97918C896 9.95837 896 17.9722 896 34V415C896 445.17 896 460.255 886.627 469.627C877.255 479 862.17 479 832 479H0V26.0784Z" fill="#1A1A1A"/>
<rect x="68.5" y="55.5" width="1235" height="63" fill="#1A1A1A" stroke="black"/>
<g filter="url(#filter0_b_1230_77497)">
<rect x="68.4558" y="118.75" width="307.353" height="696.201" fill="#1A1A1A"/>
</g>
<rect x="85.8416" y="296.642" width="52.1569" height="17.3856" rx="8.69281" fill="#3B3B3B"/>
<rect x="258.611" y="296.642" width="84.7549" height="17.3856" rx="8.69281" fill="#3B3B3B"/>
<rect x="85.8416" y="331.414" width="257.525" height="17.3856" rx="8.69281" fill="#3B3B3B"/>
<rect x="85.8416" y="366.185" width="257.525" height="17.3856" rx="8.69281" fill="#3B3B3B"/>
<rect x="85.8416" y="400.956" width="257.525" height="17.3856" rx="8.69281" fill="#3B3B3B"/>
<rect x="85.8416" y="145.604" width="111.92" height="17.3856" rx="8.69281" fill="#3B3B3B"/>
<rect x="85.8416" y="171.683" width="257.525" height="17.3856" rx="8.69281" fill="#3B3B3B"/>
<rect x="85.8416" y="215.147" width="257.68" height="26.3889" rx="13.1944" fill="#3B3B3B"/>
<rect x="398.783" y="145.604" width="111.92" height="17.3856" rx="8.69281" fill="#393939"/>
<rect x="398.783" y="171.683" width="303.162" height="17.3856" rx="8.69281" fill="#3B3B3B"/>
<rect x="398.783" y="206.454" width="84.7549" height="34.7712" rx="17.3856" fill="#393939"/>
<rect x="492.23" y="206.454" width="84.7549" height="34.7712" rx="17.3856" fill="#393939"/>
<rect x="585.678" y="206.454" width="84.7549" height="34.7712" rx="17.3856" fill="#393939"/>
<rect x="679.126" y="206.454" width="84.7549" height="34.7712" rx="17.3856" fill="#393939"/>
<rect x="398.783" y="267.304" width="78.2353" height="17.3856" rx="8.69281" fill="#393939"/>
<circle cx="409.649" cy="320.392" r="10.866" fill="#3B3B3B"/>
<line x1="410.425" y1="340.727" x2="410.425" y2="392.728" stroke="#393939" stroke-width="1.55229" stroke-linecap="round"/>
<circle cx="409.649" cy="413.064" r="10.866" fill="#3B3B3B"/>
<line x1="410.425" y1="433.399" x2="410.425" y2="479.657" stroke="#393939" stroke-width="1.55229" stroke-linecap="round"/>
<rect x="437.9" y="301.92" width="438.987" height="45.6373" rx="17.3856" fill="#393939"/>
<rect x="437.9" y="364.943" width="26.0784" height="8.69281" rx="4.34641" fill="#3B3B3B"/>
<rect x="437.9" y="391.021" width="438.987" height="45.6373" rx="17.3856" fill="#393939"/>
<rect x="437.9" y="454.044" width="26.0784" height="8.69281" rx="4.34641" fill="#3B3B3B"/>
<circle cx="105.4" cy="88.0148" r="17.3856" fill="#3B3B3B"/>
<rect x="137.998" y="79.322" width="111.92" height="17.3856" rx="8.69281" fill="#3B3B3B"/>
<rect x="265.131" y="79.322" width="17.3856" height="17.3856" rx="8.69281" fill="#3B3B3B"/>
<circle cx="101.054" cy="29.3383" r="13.0392" fill="#CFCFCF"/>
<mask id="path-31-inside-1_1230_77497" fill="white">
<path d="M68.3008 0H1303.92V55.8824H68.3008V0Z"/>
</mask>
<path d="M68.3008 0H1303.92V55.8824H68.3008V0Z" fill="#1A1A1A"/>
<path d="M1303.92 55.1062H68.3008V56.6585H1303.92V55.1062Z" fill="black" mask="url(#path-31-inside-1_1230_77497)"/>
<path fill-rule="evenodd" clip-rule="evenodd" d="M37.392 32.5427C38.0342 33.1607 38.0342 34.1543 37.392 34.7722L25.5055 46.2347H36.2409C37.1376 46.2347 37.8767 46.9496 37.8767 47.8099V48.2218C39.4276 46.9859 41.4148 46.2347 43.5716 46.2347C48.5152 46.2347 52.538 50.1242 52.538 54.8982C52.538 59.6359 48.5516 63.5132 43.6443 63.5496H43.4989C38.5916 63.5132 34.6173 59.6359 34.6173 54.8982V49.385H21.5796C20.9132 49.385 20.3195 49.0094 20.0771 48.4157C19.9923 48.2218 19.9438 48.028 19.9438 47.822V47.7978C19.956 47.3979 20.1135 46.998 20.4285 46.7072L35.0898 32.5427C35.4049 32.2398 35.8047 32.0944 36.2046 32.0823H36.2773C36.6771 32.0944 37.0891 32.2398 37.392 32.5427ZM49.2786 54.8982C49.2786 51.8569 46.7219 49.385 43.5716 49.385C40.4333 49.385 37.8767 51.8569 37.8767 54.8982C37.8767 57.9274 40.4333 60.3992 43.5716 60.3992C46.7219 60.3992 49.2786 57.9274 49.2786 54.8982ZM49.9087 40.661C50.5508 41.2789 50.5508 42.2725 49.9087 42.8783C49.5936 43.1934 49.1816 43.3388 48.7576 43.3388C48.3456 43.3388 47.9215 43.1934 47.6065 42.8783C46.5281 41.8484 45.0983 41.2668 43.5716 41.2668C42.057 41.2668 40.6151 41.8484 39.5488 42.8783C39.2217 43.1934 38.8097 43.3388 38.3856 43.3388C37.9736 43.3388 37.5617 43.1934 37.2345 42.8783C36.6044 42.2725 36.6044 41.2789 37.2345 40.661C38.9309 39.0252 41.1846 38.1286 43.5716 38.1286C45.9707 38.1286 48.2244 39.0252 49.9087 40.661Z" fill="#666666"/>
<g clip-path="url(#clip1_1230_77497)">
<path opacity="0.12" d="M40.4149 122.979V121.567C40.4149 120.642 40.4149 120.18 40.2973 119.753C40.1931 119.374 40.0217 119.018 39.7915 118.7C39.5315 118.342 39.1704 118.053 38.4482 117.475L37.1381 116.427C35.9697 115.492 35.3856 115.025 34.7377 114.846C34.1663 114.688 33.5626 114.688 32.9911 114.846C32.3433 115.025 31.7591 115.492 30.5908 116.427L30.5908 116.427L29.2807 117.475L29.2807 117.475C28.5585 118.053 28.1973 118.342 27.9374 118.7C27.7071 119.018 27.5358 119.374 27.4316 119.753C27.314 120.18 27.314 120.642 27.314 121.567V122.979C27.314 124.813 27.314 125.73 27.6709 126.431C27.985 127.047 28.486 127.548 29.1023 127.862C29.8029 128.219 30.72 128.219 32.5543 128.219H35.1745C37.0088 128.219 37.926 128.219 38.6266 127.862C39.2429 127.548 39.7439 127.047 40.0579 126.431C40.4149 125.73 40.4149 124.813 40.4149 122.979Z" fill="#6B6B6B"/>
<path fill-rule="evenodd" clip-rule="evenodd" d="M33.1227 115.319C33.6085 115.185 34.1216 115.185 34.6073 115.319C34.8584 115.389 35.1156 115.518 35.4653 115.758C35.82 116.002 36.242 116.339 36.8317 116.811L38.1418 117.859C38.8854 118.454 39.1825 118.697 39.3943 118.989C39.59 119.259 39.7356 119.562 39.8242 119.883C39.92 120.231 39.9242 120.615 39.9242 121.567V122.979C39.9242 123.904 39.9238 124.569 39.8812 125.09C39.8391 125.606 39.7581 125.938 39.6207 126.208C39.3538 126.732 38.928 127.158 38.4041 127.425C38.1346 127.562 37.802 127.643 37.2863 127.685C36.7647 127.728 36.1004 127.728 35.1751 127.728H32.5549C31.6297 127.728 30.9653 127.728 30.4438 127.685C29.928 127.643 29.5954 127.562 29.3259 127.425C28.8021 127.158 28.3762 126.732 28.1093 126.208C27.9719 125.938 27.891 125.606 27.8488 125.09C27.8062 124.569 27.8058 123.904 27.8058 122.979V121.567C27.8058 120.615 27.81 120.231 27.9058 119.883C27.9944 119.562 28.14 119.259 28.3357 118.989C28.5476 118.697 28.8446 118.454 29.5882 117.859L30.8983 116.811C31.488 116.339 31.91 116.002 32.2648 115.758C32.6144 115.518 32.8716 115.389 33.1227 115.319ZM34.8693 114.372C34.2121 114.191 33.5179 114.191 32.8607 114.372C32.464 114.482 32.1052 114.676 31.7087 114.948C31.3208 115.214 30.8709 115.574 30.2995 116.032L30.2995 116.032L30.2845 116.044L28.9744 117.092L28.9155 117.139C28.2495 117.671 27.8396 117.999 27.5402 118.412C27.2754 118.777 27.0784 119.187 26.9585 119.622C26.8231 120.114 26.8231 120.639 26.8232 121.492L26.8233 121.567V122.979L26.8233 123.001C26.8233 123.899 26.8232 124.604 26.8695 125.17C26.9166 125.747 27.0141 126.223 27.2338 126.654C27.5949 127.363 28.1711 127.939 28.8798 128.3C29.3109 128.52 29.7872 128.617 30.3637 128.664C30.9299 128.711 31.6344 128.711 32.5329 128.711H32.533H32.5549H35.1751H35.197H35.1971C36.0956 128.711 36.8001 128.711 37.3663 128.664C37.9428 128.617 38.4191 128.52 38.8502 128.3C39.5589 127.939 40.1351 127.363 40.4962 126.654C40.7159 126.223 40.8134 125.747 40.8605 125.17C40.9068 124.604 40.9068 123.899 40.9068 123.001V123.001V122.979V121.567L40.9068 121.492C40.9069 120.639 40.9069 120.114 40.7715 119.622C40.6516 119.187 40.4546 118.777 40.1898 118.412C39.8905 117.999 39.4805 117.671 38.8145 117.139L38.8145 117.139L38.7556 117.092L37.4455 116.044L37.4305 116.032C36.8591 115.574 36.4093 115.214 36.0213 114.948C35.6249 114.676 35.266 114.482 34.8693 114.372ZM31.8999 123.798C31.6285 123.798 31.4086 124.018 31.4086 124.289C31.4086 124.56 31.6285 124.78 31.8999 124.78H35.8301C36.1015 124.78 36.3214 124.56 36.3214 124.289C36.3214 124.018 36.1015 123.798 35.8301 123.798H31.8999Z" fill="#6B6B6B"/>
</g>
<path opacity="0.12" fill-rule="evenodd" clip-rule="evenodd" d="M29.2786 157.041C28.1933 157.041 27.3135 157.921 27.3135 159.006C27.3135 160.091 28.1933 160.971 29.2786 160.971C30.3639 160.971 31.2438 160.091 31.2438 159.006C31.2438 157.921 30.3639 157.041 29.2786 157.041ZM38.4493 157.041C37.3639 157.041 36.4841 157.921 36.4841 159.006C36.4841 160.091 37.3639 160.971 38.4493 160.971C39.5346 160.971 40.4144 160.091 40.4144 159.006C40.4144 157.921 39.5346 157.041 38.4493 157.041ZM27.3135 168.177C27.3135 167.091 28.1933 166.212 29.2786 166.212C30.3639 166.212 31.2438 167.091 31.2438 168.177C31.2438 169.262 30.3639 170.142 29.2786 170.142C28.1933 170.142 27.3135 169.262 27.3135 168.177ZM38.4493 166.212C37.3639 166.212 36.4841 167.091 36.4841 168.177C36.4841 169.262 37.3639 170.142 38.4493 170.142C39.5346 170.142 40.4144 169.262 40.4144 168.177C40.4144 167.091 39.5346 166.212 38.4493 166.212Z" fill="#6B6B6B"/>
<path fill-rule="evenodd" clip-rule="evenodd" d="M26.8232 159.006C26.8232 157.65 27.923 156.55 29.2797 156.55C30.4681 156.55 31.4594 157.394 31.687 158.515H33.865C34.1363 158.515 34.3563 158.735 34.3563 159.006C34.3563 159.278 34.1363 159.498 33.865 159.498H31.687C31.4594 160.619 30.4681 161.463 29.2797 161.463C27.923 161.463 26.8232 160.363 26.8232 159.006ZM29.2797 157.532C30.0937 157.532 30.7535 158.192 30.7535 159.006C30.7535 159.82 30.0937 160.48 29.2797 160.48C28.4657 160.48 27.8058 159.82 27.8058 159.006C27.8058 158.192 28.4657 157.532 29.2797 157.532ZM29.771 163.592C29.771 163.32 29.551 163.1 29.2797 163.1C29.0083 163.1 28.7884 163.32 28.7884 163.592V165.77C27.6672 165.997 26.8232 166.988 26.8232 168.177C26.8232 169.534 27.923 170.633 29.2797 170.633C30.6363 170.633 31.7361 169.534 31.7361 168.177C31.7361 166.988 30.8922 165.997 29.771 165.77V163.592ZM29.2797 166.703L29.2805 166.703C30.0941 166.703 30.7535 167.363 30.7535 168.177C30.7535 168.991 30.0937 169.651 29.2797 169.651C28.4657 169.651 27.8058 168.991 27.8058 168.177C27.8058 167.363 28.4657 166.703 29.2797 166.703ZM38.9416 161.414C40.0628 161.186 40.9067 160.195 40.9067 159.006C40.9067 157.65 39.807 156.55 38.4503 156.55C37.0937 156.55 35.9939 157.65 35.9939 159.006C35.9939 160.195 36.8378 161.186 37.959 161.414V163.592C37.959 163.863 38.179 164.083 38.4503 164.083C38.7216 164.083 38.9416 163.863 38.9416 163.592L38.9416 161.414ZM33.865 167.686C33.5937 167.686 33.3737 167.906 33.3737 168.177C33.3737 168.448 33.5937 168.668 33.865 168.668L36.043 168.668C36.2706 169.789 37.2619 170.633 38.4503 170.633C39.807 170.633 40.9067 169.534 40.9067 168.177C40.9067 166.82 39.807 165.72 38.4503 165.72C37.2619 165.72 36.2706 166.564 36.043 167.686H33.865ZM36.9765 168.177C36.9765 168.991 37.6363 169.651 38.4503 169.651C39.2643 169.651 39.9242 168.991 39.9242 168.177C39.9242 167.363 39.2643 166.703 38.4503 166.703C37.6363 166.703 36.9765 167.363 36.9765 168.177ZM39.9242 159.006C39.9242 159.82 39.2643 160.48 38.4503 160.48C37.6363 160.48 36.9765 159.82 36.9765 159.006C36.9765 158.192 37.6363 157.532 38.4503 157.532C39.2643 157.532 39.9242 158.192 39.9242 159.006Z" fill="#6B6B6B"/>
<path opacity="0.12" d="M38.4185 207.963L38.8824 208.079C39.397 208.208 39.6543 208.272 39.8508 208.408C40.0693 208.559 40.2367 208.774 40.3305 209.022C40.4149 209.246 40.4149 209.505 40.4149 210.022V210.022C40.4149 210.686 40.4149 211.018 40.2783 211.293C40.1378 211.577 39.8381 211.842 39.54 211.947C39.2503 212.049 38.9657 212.014 38.3964 211.944C36.3562 211.694 34.534 211.061 32.9853 210.1C31.3971 209.114 30.0966 207.784 29.1435 206.169C28.2584 204.67 27.6728 202.925 27.4346 200.982C27.3648 200.413 27.33 200.128 27.432 199.839C27.537 199.541 27.8022 199.241 28.0853 199.1C28.3605 198.964 28.686 198.964 29.3371 198.964C29.8675 198.964 30.1328 198.964 30.3563 199.048C30.6051 199.142 30.8194 199.309 30.9708 199.528C31.1069 199.724 31.1712 199.982 31.2998 200.496L31.2998 200.496L31.3799 200.817L31.3799 200.817C31.5702 201.578 31.6653 201.958 31.651 202.332C31.6383 202.662 31.5631 202.988 31.4293 203.29C31.2782 203.632 31.0257 203.932 30.5206 204.533L29.1435 206.169C30.0966 207.784 31.3971 209.114 32.9853 210.1L34.889 208.674C35.4752 208.235 35.7683 208.016 36.0947 207.887C36.3838 207.773 36.691 207.711 37.0019 207.704C37.3528 207.697 37.708 207.785 38.4185 207.963Z" fill="#6B6B6B"/>
<path fill-rule="evenodd" clip-rule="evenodd" d="M29.3372 199.455C29.9088 199.455 30.0638 199.463 30.183 199.508C30.3385 199.567 30.4724 199.671 30.5671 199.808C30.6396 199.913 30.6847 200.061 30.8233 200.616L30.9035 200.936C31.1008 201.725 31.1712 202.026 31.1602 202.313C31.1499 202.582 31.0888 202.846 30.9801 203.092C30.864 203.355 30.6687 203.594 30.1449 204.217L29.2288 205.305C28.5675 204.011 28.1209 202.542 27.9224 200.923C27.8477 200.313 27.84 200.16 27.8955 200.002C27.958 199.825 28.1354 199.624 28.3038 199.541C28.3668 199.509 28.4505 199.485 28.6127 199.471C28.7839 199.456 29.0034 199.455 29.3372 199.455ZM30.8967 204.849L29.7472 206.215C30.5815 207.535 31.666 208.643 32.9637 209.502L34.5946 208.281L34.651 208.239C35.1831 207.84 35.5258 207.584 35.9142 207.43C36.2576 207.294 36.6224 207.221 36.9916 207.213C37.4091 207.204 37.8245 207.308 38.4694 207.469L38.5378 207.486L39.0017 207.602L39.0808 207.622C39.5174 207.731 39.8588 207.816 40.1306 208.004C40.4312 208.212 40.6613 208.507 40.7903 208.849C40.9071 209.159 40.9067 209.504 40.9064 209.943L40.9063 210.022V210.042C40.9063 210.357 40.9063 210.624 40.8875 210.845C40.8675 211.08 40.8243 211.299 40.7185 211.512C40.5212 211.91 40.1221 212.263 39.7034 212.41C39.3028 212.551 38.9079 212.503 38.4163 212.442H38.4162L38.3368 212.432C36.2317 212.174 34.3404 211.519 32.7264 210.517C31.0707 209.49 29.7139 208.102 28.7205 206.419C27.7984 204.857 27.1929 203.047 26.9471 201.042L26.9373 200.963C26.8765 200.471 26.8277 200.076 26.9688 199.676C27.1162 199.257 27.4694 198.858 27.867 198.661C28.0792 198.555 28.2959 198.512 28.528 198.492C28.7465 198.473 29.0087 198.473 29.3172 198.473L29.3372 198.473L29.4187 198.473C29.8687 198.472 30.2205 198.472 30.5299 198.589C30.8719 198.718 31.1666 198.948 31.3748 199.248C31.5631 199.52 31.6481 199.862 31.7569 200.298L31.7766 200.377L31.8567 200.698L31.8751 200.771C32.0478 201.462 32.1591 201.906 32.1421 202.351C32.127 202.743 32.0377 203.13 31.8788 203.489C31.699 203.896 31.4038 204.247 30.9455 204.791L30.8967 204.849ZM38.4564 211.457C36.7544 211.248 35.2175 210.765 33.8759 210.047L35.1836 209.068C35.7914 208.613 36.0245 208.443 36.2754 208.344C36.5103 208.251 36.7599 208.201 37.0125 208.195C37.2822 208.19 37.5628 208.256 38.2994 208.44L38.7634 208.556C39.3179 208.694 39.4664 208.739 39.5712 208.812C39.7078 208.907 39.8124 209.041 39.871 209.196C39.9161 209.316 39.9237 209.465 39.9237 210.022C39.9237 210.362 39.9233 210.587 39.9084 210.762C39.8943 210.929 39.8691 211.013 39.8384 211.075C39.7548 211.244 39.5543 211.421 39.377 211.484C39.2193 211.539 39.0657 211.531 38.4564 211.457ZM38.7973 199.272C38.6054 199.08 38.2944 199.08 38.1025 199.272C37.9107 199.464 37.9107 199.775 38.1025 199.966L39.229 201.093H35.1747C34.9033 201.093 34.6834 201.313 34.6834 201.584C34.6834 201.856 34.9033 202.076 35.1747 202.076H39.229L38.1025 203.202C37.9107 203.394 37.9107 203.705 38.1025 203.897C38.2944 204.089 38.6054 204.089 38.7973 203.897L40.7624 201.932C40.9543 201.74 40.9543 201.429 40.7624 201.237L38.7973 199.272Z" fill="#6B6B6B"/>
<path d="M40.4149 246.848V250.386C40.4149 252.744 39.7598 253.333 37.1397 253.333H30.5892C27.969 253.333 27.314 252.744 27.314 250.386V244.49C27.314 242.132 27.969 241.542 30.5892 241.542H31.5718C32.5543 241.542 32.7705 241.802 33.1439 242.25L34.1264 243.429C34.3754 243.724 34.5195 243.901 35.1745 243.901H37.1397C39.7598 243.901 40.4149 244.49 40.4149 246.848Z" fill="black" fill-opacity="0.12"/>
<path d="M29.9341 248.093H35.1745" stroke="#6B6B6B" stroke-width="0.98257" stroke-linecap="round" stroke-linejoin="round"/>
<path d="M29.9341 250.713H35.1745" stroke="#6B6B6B" stroke-width="0.98257" stroke-linecap="round" stroke-linejoin="round"/>
<path d="M29.9341 245.473H31.2442" stroke="#6B6B6B" stroke-width="0.98257" stroke-linecap="round" stroke-linejoin="round"/>
<path fill-rule="evenodd" clip-rule="evenodd" d="M28.2982 242.497C27.9802 242.783 27.8058 243.315 27.8058 244.49V250.386C27.8058 251.561 27.9802 252.092 28.2982 252.379C28.635 252.682 29.2705 252.842 30.5898 252.842H37.1402C38.4595 252.842 39.095 252.682 39.4318 252.379C39.7498 252.092 39.9242 251.561 39.9242 250.386V246.848C39.9242 245.673 39.7498 245.142 39.4318 244.855C39.095 244.552 38.4595 244.392 37.1402 244.392H35.1751C34.8092 244.392 34.5155 244.344 34.264 244.207C34.034 244.082 33.8825 243.902 33.7717 243.77C33.7649 243.762 33.7582 243.754 33.7517 243.746L33.7496 243.744L33.7496 243.744L32.767 242.565C32.5698 242.328 32.4798 242.229 32.3532 242.16C32.2326 242.095 32.0269 242.034 31.5723 242.034H30.5898C29.2705 242.034 28.635 242.194 28.2982 242.497ZM27.6409 241.767C28.2867 241.186 29.2888 241.051 30.5898 241.051H31.5723C32.1004 241.051 32.494 241.12 32.8205 241.296C33.1284 241.463 33.3295 241.704 33.5011 241.911C33.508 241.919 33.515 241.927 33.5219 241.935L34.5034 243.113C34.639 243.274 34.6798 243.315 34.7335 243.344C34.78 243.369 34.8859 243.409 35.1751 243.409H37.1402C38.4411 243.409 39.4432 243.544 40.0891 244.125C40.7536 244.723 40.9067 245.665 40.9067 246.848V250.386C40.9067 251.569 40.7536 252.511 40.0891 253.109C39.4432 253.69 38.4411 253.825 37.1402 253.825H30.5898C29.2888 253.825 28.2867 253.69 27.6409 253.109C26.9764 252.511 26.8232 251.569 26.8232 250.386V244.49C26.8232 243.307 26.9764 242.365 27.6409 241.767Z" fill="#6B6B6B"/>
<rect opacity="0.12" x="29.2791" y="284.775" width="9.17065" height="11.1358" rx="4.58532" fill="#6B6B6B"/>
<path fill-rule="evenodd" clip-rule="evenodd" d="M33.865 282.319C32.5084 282.319 31.4086 283.419 31.4086 284.775V284.917C30.5873 285.372 29.9055 286.048 29.4434 286.864L28.5829 286.004C28.2265 285.647 28.1071 285.524 28.023 285.386C27.9422 285.255 27.8827 285.111 27.8466 284.96C27.809 284.804 27.8058 284.632 27.8058 284.128V283.465C27.8058 283.194 27.5859 282.974 27.3145 282.974C27.0432 282.974 26.8233 283.194 26.8233 283.465V284.128L26.8233 284.184C26.8231 284.611 26.823 284.906 26.8911 285.19C26.9513 285.44 27.0506 285.68 27.1852 285.9C27.3376 286.149 27.5466 286.357 27.8485 286.659L27.8485 286.659L27.8881 286.699L28.9323 287.743C28.9615 287.772 28.9934 287.797 29.0273 287.817C28.8721 288.304 28.7884 288.822 28.7884 289.361V291.326C28.7884 291.472 28.7946 291.616 28.8066 291.759L27.8881 292.678L27.8485 292.717C27.5466 293.019 27.3376 293.228 27.1852 293.476C27.0506 293.696 26.9513 293.936 26.8911 294.186C26.823 294.47 26.8231 294.766 26.8233 295.192L26.8233 295.248V295.911C26.8233 296.182 27.0432 296.402 27.3145 296.402C27.5859 296.402 27.8058 296.182 27.8058 295.911V295.248C27.8058 294.744 27.809 294.572 27.8466 294.416C27.8827 294.265 27.9422 294.122 28.023 293.99C28.1071 293.853 28.2265 293.729 28.5829 293.372L29.0417 292.914C29.7083 294.94 31.6158 296.402 33.865 296.402C36.1142 296.402 38.0218 294.94 38.6884 292.914L39.1472 293.372C39.5036 293.729 39.6229 293.853 39.707 293.99C39.7878 294.122 39.8474 294.265 39.8835 294.416C39.921 294.572 39.9242 294.744 39.9242 295.248V295.911C39.9242 296.182 40.1441 296.402 40.4155 296.402C40.6868 296.402 40.9068 296.182 40.9068 295.911V295.248L40.9068 295.192C40.9069 294.766 40.907 294.47 40.8389 294.186C40.7787 293.936 40.6795 293.696 40.5448 293.476C40.3924 293.228 40.1834 293.019 39.8815 292.717L39.8419 292.678L38.9234 291.759C38.9355 291.616 38.9416 291.472 38.9416 291.326V289.361C38.9416 288.822 38.8579 288.304 38.7027 287.817C38.7366 287.797 38.7685 287.772 38.7977 287.743L39.8419 286.699L39.8815 286.659C40.1834 286.357 40.3924 286.149 40.5448 285.9C40.6795 285.68 40.7787 285.44 40.8389 285.19C40.907 284.906 40.9069 284.611 40.9068 284.184L40.9068 284.128V283.465C40.9068 283.194 40.6868 282.974 40.4155 282.974C40.1441 282.974 39.9242 283.194 39.9242 283.465V284.128C39.9242 284.632 39.921 284.804 39.8835 284.96C39.8474 285.111 39.7878 285.255 39.707 285.386C39.6229 285.524 39.5036 285.647 39.1472 286.004L38.2866 286.864C37.8245 286.048 37.1427 285.372 36.3214 284.917V284.775C36.3214 283.419 35.2217 282.319 33.865 282.319ZM35.3119 284.493C35.1803 283.814 34.5825 283.301 33.865 283.301C33.1475 283.301 32.5498 283.814 32.4181 284.493C32.8767 284.357 33.3623 284.284 33.865 284.284C34.3677 284.284 34.8534 284.357 35.3119 284.493ZM33.3737 295.256C33.3737 295.304 33.3805 295.349 33.393 295.393C31.3543 295.159 29.771 293.427 29.771 291.326V289.361C29.771 287.1 31.6039 285.267 33.865 285.267C36.1261 285.267 37.9591 287.1 37.9591 289.361V291.326C37.9591 293.427 36.3758 295.159 34.337 295.393C34.3496 295.349 34.3563 295.304 34.3563 295.256V291.326C34.3563 291.054 34.1363 290.834 33.865 290.834C33.5937 290.834 33.3737 291.054 33.3737 291.326V295.256Z" fill="#6B6B6B"/>
<circle cx="33.8644" cy="331.283" r="6.55046" fill="black" fill-opacity="0.12"/>
<path d="M33.9331 332.593C33.8874 332.586 33.8341 332.586 33.7884 332.593C32.7373 332.555 31.8994 331.695 31.8994 330.628C31.8994 329.539 32.7753 328.663 33.8646 328.663C34.9538 328.663 35.8297 329.547 35.8297 330.628C35.8221 331.695 34.9842 332.563 33.9331 332.593Z" stroke="#6B6B6B" stroke-width="0.98257" stroke-linecap="round" stroke-linejoin="round"/>
<path fill-rule="evenodd" clip-rule="evenodd" d="M27.8058 331.283C27.8058 327.937 30.5186 325.224 33.865 325.224C37.2114 325.224 39.9242 327.937 39.9242 331.283C39.9242 333.014 39.1989 334.575 38.0358 335.679C37.7761 335.264 37.3423 334.935 36.8672 334.696C36.0752 334.299 35.014 334.067 33.865 334.067C32.7166 334.067 31.6555 334.297 30.8632 334.693C30.3868 334.932 29.9526 335.262 29.6931 335.678C28.5306 334.574 27.8058 333.013 27.8058 331.283ZM30.4734 336.305C31.4412 336.96 32.6084 337.343 33.865 337.343C35.1212 337.343 36.2882 336.96 37.2558 336.306C37.1606 336.082 36.9139 335.819 36.4269 335.575C35.7984 335.26 34.8944 335.05 33.865 335.05C32.8349 335.05 31.9309 335.258 31.3027 335.572C30.8151 335.816 30.5682 336.08 30.4734 336.305ZM33.865 324.242C29.9759 324.242 26.8232 327.394 26.8232 331.283C26.8232 335.172 29.9759 338.325 33.865 338.325C37.754 338.325 40.9067 335.172 40.9067 331.283C40.9067 327.394 37.754 324.242 33.865 324.242Z" fill="#6B6B6B"/>
<path opacity="0.12" fill-rule="evenodd" clip-rule="evenodd" d="M38.3588 379.668C38.6209 379.568 38.8439 379.345 39.29 378.899L39.5579 378.631C40.004 378.185 40.227 377.962 40.3268 377.7C40.4147 377.469 40.4355 377.217 40.3868 376.975C40.3314 376.7 40.1481 376.444 39.7814 375.93L39.2644 375.206C39.0303 374.879 38.9701 374.463 39.0357 374.066C39.0818 373.786 39.1058 373.499 39.1058 373.206C39.1058 372.914 39.0818 372.627 39.0357 372.347C38.9702 371.95 39.0304 371.534 39.2644 371.207L39.7813 370.483C40.148 369.97 40.3314 369.713 40.3867 369.438C40.4354 369.196 40.4146 368.944 40.3267 368.713C40.227 368.451 40.0039 368.228 39.5578 367.782L39.2899 367.514C38.8438 367.068 38.6208 366.845 38.3587 366.746C38.1277 366.658 37.8766 366.637 37.6343 366.686C37.3594 366.741 37.1027 366.924 36.5894 367.291L35.8661 367.807C35.5384 368.042 35.1228 368.102 34.7254 368.036C34.4456 367.99 34.1583 367.966 33.8654 367.966C33.5727 367.966 33.2855 367.99 33.0059 368.036C32.6086 368.102 32.193 368.041 31.8653 367.807L31.142 367.291C30.6286 366.924 30.372 366.741 30.0971 366.685C29.8548 366.637 29.6036 366.657 29.3726 366.745C29.1105 366.845 28.8875 367.068 28.4414 367.514L28.4414 367.514L28.1735 367.782C27.7274 368.228 27.5044 368.451 27.4046 368.713C27.3167 368.944 27.2959 369.195 27.3447 369.438C27.4 369.713 27.5833 369.969 27.95 370.483L28.4665 371.206C28.7006 371.534 28.7608 371.949 28.6952 372.347C28.6491 372.626 28.6251 372.913 28.6251 373.206C28.6251 373.499 28.6491 373.787 28.6953 374.066C28.7609 374.464 28.7007 374.879 28.4666 375.207L27.9499 375.93C27.5832 376.444 27.3999 376.7 27.3446 376.975C27.2958 377.218 27.3166 377.469 27.4045 377.7C27.5043 377.962 27.7273 378.185 28.1734 378.631L28.4413 378.899C28.8874 379.345 29.1104 379.568 29.3725 379.668C29.6035 379.756 29.8547 379.776 30.097 379.728C30.3719 379.672 30.6285 379.489 31.1419 379.122L31.8657 378.605C32.1933 378.371 32.6089 378.311 33.0062 378.377C33.2857 378.423 33.5728 378.447 33.8654 378.447C34.1582 378.447 34.4454 378.423 34.7251 378.377C35.1225 378.311 35.5381 378.371 35.8658 378.605L36.5895 379.122L36.5895 379.122L36.5895 379.122L36.5895 379.122C37.1028 379.489 37.3595 379.672 37.6344 379.727C37.8767 379.776 38.1278 379.755 38.3588 379.668ZM33.865 375.171C34.9503 375.171 35.8301 374.292 35.8301 373.206C35.8301 372.121 34.9503 371.241 33.865 371.241C32.7797 371.241 31.8998 372.121 31.8998 373.206C31.8998 374.292 32.7797 375.171 33.865 375.171Z" fill="#6B6B6B"/>
<path d="M39.29 378.899L38.9426 378.551V378.551L39.29 378.899ZM38.3588 379.668L38.1841 379.208H38.1841L38.3588 379.668ZM39.5579 378.631L39.2105 378.283H39.2105L39.5579 378.631ZM40.3268 377.7L39.8676 377.525L40.3268 377.7ZM40.3868 376.975L40.8684 376.878V376.878L40.3868 376.975ZM39.7814 375.93L39.3816 376.216L39.7814 375.93ZM39.2644 375.206L38.8646 375.492L38.8646 375.492L39.2644 375.206ZM39.0357 374.066L39.5204 374.146L39.0357 374.066ZM39.0357 372.347L39.5204 372.267V372.267L39.0357 372.347ZM39.2644 371.207L39.6642 371.492V371.492L39.2644 371.207ZM39.7813 370.483L39.3816 370.197L39.3816 370.197L39.7813 370.483ZM40.3867 369.438L40.8683 369.535V369.535L40.3867 369.438ZM40.3267 368.713L39.8676 368.888V368.888L40.3267 368.713ZM39.5578 367.782L39.2104 368.13V368.13L39.5578 367.782ZM39.2899 367.514L39.6373 367.167L39.6373 367.167L39.2899 367.514ZM38.3587 366.746L38.5335 366.286V366.286L38.3587 366.746ZM37.6343 366.686L37.7312 367.167V367.167L37.6343 366.686ZM36.5894 367.291L36.3038 366.891L36.3038 366.891L36.5894 367.291ZM35.8661 367.807L36.1517 368.207L36.1517 368.207L35.8661 367.807ZM34.7254 368.036L34.8055 367.551L34.7254 368.036ZM33.0059 368.036L32.9259 367.551V367.551L33.0059 368.036ZM31.8653 367.807L32.1508 367.408V367.408L31.8653 367.807ZM31.142 367.291L30.8564 367.691H30.8564L31.142 367.291ZM30.0971 366.685L30.0002 367.167L30.0971 366.685ZM29.3726 366.745L29.5474 367.205L29.3726 366.745ZM28.4414 367.514L28.094 367.167H28.094L28.4414 367.514ZM28.4414 367.514L28.094 367.167V367.167L28.4414 367.514ZM28.1735 367.782L28.5209 368.13L28.1735 367.782ZM27.4046 368.713L26.9455 368.539L26.9455 368.539L27.4046 368.713ZM27.3447 369.438L27.8263 369.341L27.3447 369.438ZM27.95 370.483L28.3498 370.197L27.95 370.483ZM28.4665 371.206L28.0668 371.491L28.4665 371.206ZM28.6952 372.347L28.2105 372.267L28.6952 372.347ZM28.6953 374.066L29.18 373.986L28.6953 374.066ZM28.4666 375.207L28.0668 374.921H28.0668L28.4666 375.207ZM27.9499 375.93L28.3497 376.216L28.3497 376.216L27.9499 375.93ZM27.3446 376.975L27.8262 377.072H27.8262L27.3446 376.975ZM27.4045 377.7L26.9454 377.875L26.9454 377.875L27.4045 377.7ZM28.1734 378.631L28.5208 378.284H28.5208L28.1734 378.631ZM28.4413 378.899L28.7887 378.551L28.7887 378.551L28.4413 378.899ZM29.3725 379.668L29.5473 379.209H29.5473L29.3725 379.668ZM30.097 379.728L30.1939 380.209H30.1939L30.097 379.728ZM31.1419 379.122L30.8563 378.723L30.8563 378.723L31.1419 379.122ZM31.8657 378.605L32.1512 379.005H32.1512L31.8657 378.605ZM33.0062 378.377L32.9262 378.861H32.9262L33.0062 378.377ZM34.7251 378.377L34.8051 378.861H34.8051L34.7251 378.377ZM35.8658 378.605L36.1513 378.205V378.205L35.8658 378.605ZM36.5895 379.122L36.8843 378.729L36.875 378.722L36.5895 379.122ZM36.5895 379.122L36.2946 379.515L36.3039 379.522L36.5895 379.122ZM37.6344 379.727L37.7313 379.246L37.6344 379.727ZM38.9426 378.551C38.7144 378.78 38.5621 378.931 38.4352 379.04C38.313 379.145 38.2411 379.187 38.1841 379.208L38.5336 380.127C38.7387 380.049 38.9093 379.928 39.0756 379.786C39.2372 379.647 39.4196 379.464 39.6374 379.246L38.9426 378.551ZM39.2105 378.283L38.9426 378.551L39.6374 379.246L39.9053 378.978L39.2105 378.283ZM39.8676 377.525C39.846 377.582 39.8047 377.654 39.6996 377.776C39.5905 377.903 39.4388 378.055 39.2105 378.283L39.9053 378.978C40.1231 378.76 40.3059 378.578 40.4448 378.416C40.5877 378.25 40.7079 378.079 40.7859 377.874L39.8676 377.525ZM39.9051 377.072C39.9356 377.223 39.9226 377.38 39.8676 377.525L40.7859 377.874C40.9068 377.557 40.9354 377.211 40.8684 376.878L39.9051 377.072ZM39.3816 376.216C39.5693 376.478 39.6939 376.654 39.7807 376.797C39.8642 376.935 39.8931 377.012 39.9051 377.072L40.8684 376.878C40.8251 376.663 40.7347 376.475 40.621 376.287C40.5106 376.105 40.3602 375.895 40.1812 375.645L39.3816 376.216ZM38.8646 375.492L39.3816 376.216L40.1812 375.645L39.6642 374.921L38.8646 375.492ZM38.5509 373.986C38.4697 374.478 38.5376 375.034 38.8646 375.492L39.6642 374.921C39.5231 374.723 39.4706 374.448 39.5204 374.146L38.5509 373.986ZM38.6145 373.206C38.6145 373.472 38.5927 373.732 38.5509 373.986L39.5204 374.146C39.5709 373.84 39.5971 373.526 39.5971 373.206H38.6145ZM38.551 372.427C38.5927 372.68 38.6145 372.941 38.6145 373.206H39.5971C39.5971 372.887 39.5709 372.573 39.5204 372.267L38.551 372.427ZM38.8646 370.921C38.5376 371.379 38.4697 371.934 38.551 372.427L39.5204 372.267C39.4706 371.965 39.5232 371.69 39.6642 371.492L38.8646 370.921ZM39.3816 370.197L38.8646 370.921L39.6642 371.492L40.1811 370.768L39.3816 370.197ZM39.905 369.341C39.893 369.401 39.8641 369.479 39.7806 369.616C39.6939 369.76 39.5692 369.935 39.3816 370.197L40.1811 370.768C40.3602 370.518 40.5105 370.308 40.6209 370.126C40.7346 369.938 40.825 369.75 40.8683 369.535L39.905 369.341ZM39.8676 368.888C39.9225 369.033 39.9355 369.19 39.905 369.341L40.8683 369.535C40.9353 369.202 40.9067 368.856 40.7858 368.539L39.8676 368.888ZM39.2104 368.13C39.4387 368.358 39.5905 368.51 39.6995 368.637C39.8046 368.759 39.8459 368.831 39.8676 368.888L40.7858 368.539C40.7078 368.334 40.5877 368.163 40.4447 367.997C40.3058 367.835 40.123 367.653 39.9052 367.435L39.2104 368.13ZM38.9425 367.862L39.2104 368.13L39.9052 367.435L39.6373 367.167L38.9425 367.862ZM38.184 367.205C38.241 367.226 38.3129 367.268 38.4351 367.373C38.5621 367.482 38.7143 367.634 38.9425 367.862L39.6373 367.167C39.4195 366.949 39.2371 366.766 39.0755 366.628C38.9092 366.485 38.7386 366.364 38.5335 366.286L38.184 367.205ZM37.7312 367.167C37.8826 367.137 38.0396 367.15 38.184 367.205L38.5335 366.286C38.2159 366.165 37.8705 366.137 37.5374 366.204L37.7312 367.167ZM36.8749 367.691C37.1376 367.503 37.3127 367.378 37.4558 367.292C37.5937 367.208 37.6714 367.179 37.7312 367.167L37.5374 366.204C37.3223 366.247 37.1342 366.338 36.9466 366.451C36.7644 366.562 36.5545 366.712 36.3038 366.891L36.8749 367.691ZM36.1517 368.207L36.8749 367.691L36.3038 366.891L35.5806 367.408L36.1517 368.207ZM34.6454 368.521C35.1381 368.602 35.6938 368.534 36.1517 368.207L35.5806 367.408C35.3831 367.549 35.1075 367.601 34.8055 367.551L34.6454 368.521ZM33.8654 368.457C34.1314 368.457 34.3919 368.479 34.6454 368.521L34.8055 367.551C34.4993 367.501 34.1852 367.475 33.8654 367.475V368.457ZM33.0859 368.521C33.3392 368.479 33.5996 368.457 33.8654 368.457V367.475C33.5458 367.475 33.2319 367.501 32.9259 367.551L33.0859 368.521ZM31.5797 368.207C32.0376 368.534 32.5933 368.602 33.0859 368.521L32.9259 367.551C32.6239 367.601 32.3483 367.549 32.1508 367.408L31.5797 368.207ZM30.8564 367.691L31.5797 368.207L32.1508 367.408L31.4275 366.891L30.8564 367.691ZM30.0002 367.167C30.0599 367.179 30.1376 367.208 30.2755 367.291C30.4186 367.378 30.5937 367.503 30.8564 367.691L31.4275 366.891C31.1769 366.712 30.9669 366.562 30.7847 366.451C30.5972 366.338 30.4091 366.247 30.194 366.204L30.0002 367.167ZM29.5474 367.205C29.6917 367.15 29.8487 367.137 30.0002 367.167L30.194 366.204C29.8608 366.137 29.5154 366.165 29.1978 366.286L29.5474 367.205ZM28.7888 367.862C29.0171 367.633 29.1693 367.482 29.2962 367.373C29.4185 367.267 29.4904 367.226 29.5474 367.205L29.1978 366.286C28.9928 366.364 28.8221 366.484 28.6558 366.627C28.4942 366.766 28.3118 366.949 28.094 367.167L28.7888 367.862ZM28.7888 367.862L28.7888 367.862L28.094 367.167L28.094 367.167L28.7888 367.862ZM28.5209 368.13L28.7888 367.862L28.094 367.167L27.8261 367.435L28.5209 368.13ZM27.8638 368.888C27.8855 368.831 27.9267 368.759 28.0318 368.637C28.1409 368.51 28.2926 368.358 28.5209 368.13L27.8261 367.435C27.6083 367.653 27.4255 367.835 27.2866 367.997C27.1437 368.163 27.0235 368.333 26.9455 368.539L27.8638 368.888ZM27.8263 369.341C27.7958 369.189 27.8088 369.032 27.8638 368.888L26.9455 368.539C26.8246 368.856 26.796 369.202 26.863 369.535L27.8263 369.341ZM28.3498 370.197C28.1621 369.934 28.0375 369.759 27.9508 369.616C27.8672 369.478 27.8383 369.401 27.8263 369.341L26.863 369.535C26.9063 369.75 26.9968 369.938 27.1104 370.125C27.2208 370.308 27.3712 370.518 27.5502 370.768L28.3498 370.197ZM28.8663 370.92L28.3498 370.197L27.5502 370.768L28.0668 371.491L28.8663 370.92ZM29.18 372.427C29.2613 371.934 29.1934 371.378 28.8663 370.92L28.0668 371.491C28.2078 371.689 28.2604 371.964 28.2105 372.267L29.18 372.427ZM29.1163 373.206C29.1163 372.94 29.1381 372.68 29.18 372.427L28.2105 372.267C28.16 372.573 28.1338 372.887 28.1338 373.206H29.1163ZM29.18 373.986C29.1382 373.733 29.1163 373.472 29.1163 373.206H28.1338C28.1338 373.526 28.16 373.84 28.2106 374.146L29.18 373.986ZM28.8664 375.493C29.1935 375.035 29.2613 374.479 29.18 373.986L28.2106 374.146C28.2604 374.448 28.2079 374.724 28.0668 374.921L28.8664 375.493ZM28.3497 376.216L28.8664 375.493L28.0668 374.921L27.5501 375.645L28.3497 376.216ZM27.8262 377.072C27.8382 377.012 27.8671 376.935 27.9507 376.797C28.0374 376.654 28.1621 376.479 28.3497 376.216L27.5501 375.645C27.3711 375.895 27.2208 376.105 27.1103 376.288C26.9967 376.475 26.9062 376.663 26.863 376.878L27.8262 377.072ZM27.8637 377.525C27.8087 377.381 27.7957 377.224 27.8262 377.072L26.863 376.878C26.7959 377.212 26.8245 377.557 26.9454 377.875L27.8637 377.525ZM28.5208 378.284C28.2925 378.055 28.1408 377.903 28.0317 377.776C27.9266 377.654 27.8854 377.582 27.8637 377.525L26.9454 377.875C27.0235 378.08 27.1436 378.25 27.2865 378.417C27.4254 378.578 27.6082 378.76 27.826 378.978L28.5208 378.284ZM28.7887 378.551L28.5208 378.284L27.826 378.978L28.0939 379.246L28.7887 378.551ZM29.5473 379.209C29.4903 379.187 29.4184 379.146 29.2961 379.041C29.1692 378.931 29.017 378.78 28.7887 378.551L28.0939 379.246C28.3117 379.464 28.4941 379.647 28.6557 379.786C28.822 379.929 28.9927 380.049 29.1977 380.127L29.5473 379.209ZM30.0001 379.246C29.8486 379.276 29.6916 379.264 29.5473 379.209L29.1977 380.127C29.5154 380.248 29.8607 380.276 30.1939 380.209L30.0001 379.246ZM30.8563 378.723C30.5936 378.91 30.4186 379.035 30.2754 379.122C30.1376 379.205 30.0598 379.234 30.0001 379.246L30.1939 380.209C30.409 380.166 30.5971 380.076 30.7846 379.962C30.9669 379.851 31.1768 379.701 31.4274 379.522L30.8563 378.723ZM31.5801 378.206L30.8563 378.723L31.4274 379.522L32.1512 379.005L31.5801 378.206ZM33.0861 377.892C32.5936 377.811 32.038 377.879 31.5801 378.206L32.1512 379.005C32.3487 378.864 32.6242 378.812 32.9262 378.861L33.0861 377.892ZM33.8654 377.955C33.5997 377.955 33.3394 377.934 33.0861 377.892L32.9262 378.861C33.2321 378.912 33.5459 378.938 33.8654 378.938V377.955ZM34.6451 377.892C34.3918 377.934 34.1313 377.955 33.8654 377.955V378.938C34.1851 378.938 34.4991 378.912 34.8051 378.861L34.6451 377.892ZM36.1513 378.205C35.6934 377.878 35.1377 377.81 34.6451 377.892L34.8051 378.861C35.1072 378.811 35.3827 378.864 35.5802 379.005L36.1513 378.205ZM36.875 378.722L36.1513 378.205L35.5802 379.005L36.3039 379.522L36.875 378.722ZM36.8842 378.729L36.8842 378.729L36.2947 379.515L36.2947 379.515L36.8842 378.729ZM36.8842 378.729L36.8842 378.729L36.2947 379.515L36.2947 379.515L36.8842 378.729ZM36.8843 378.729L36.8842 378.729L36.2947 379.515L36.2947 379.515L36.8843 378.729ZM37.7313 379.246C37.6715 379.234 37.5938 379.205 37.4559 379.121C37.3128 379.035 37.1377 378.91 36.875 378.722L36.3039 379.522C36.5546 379.701 36.7645 379.851 36.9468 379.962C37.1343 380.075 37.3224 380.166 37.5375 380.209L37.7313 379.246ZM38.1841 379.208C38.0397 379.263 37.8827 379.276 37.7313 379.246L37.5375 380.209C37.8706 380.276 38.216 380.248 38.5336 380.127L38.1841 379.208ZM35.3388 373.206C35.3388 374.02 34.679 374.68 33.865 374.68V375.663C35.2216 375.663 36.3214 374.563 36.3214 373.206H35.3388ZM33.865 371.733C34.679 371.733 35.3388 372.392 35.3388 373.206H36.3214C36.3214 371.85 35.2216 370.75 33.865 370.75V371.733ZM32.3911 373.206C32.3911 372.392 33.051 371.733 33.865 371.733V370.75C32.5083 370.75 31.4085 371.85 31.4085 373.206H32.3911ZM33.865 374.68C33.051 374.68 32.3911 374.02 32.3911 373.206H31.4085C31.4085 374.563 32.5083 375.663 33.865 375.663V374.68Z" fill="#6B6B6B"/>
<circle opacity="0.12" cx="33.8644" cy="415.13" r="6.55046" fill="#6B6B6B"/>
<path fill-rule="evenodd" clip-rule="evenodd" d="M33.865 409.07C30.5186 409.07 27.8058 411.783 27.8058 415.13C27.8058 418.476 30.5186 421.189 33.865 421.189C37.2114 421.189 39.9242 418.476 39.9242 415.13C39.9242 411.783 37.2114 409.07 33.865 409.07ZM26.8232 415.13C26.8232 411.241 29.9759 408.088 33.865 408.088C37.754 408.088 40.9067 411.241 40.9067 415.13C40.9067 419.019 37.754 422.171 33.865 422.171C29.9759 422.171 26.8232 419.019 26.8232 415.13ZM34.52 417.75C34.52 418.112 34.2268 418.405 33.865 418.405C33.5032 418.405 33.2099 418.112 33.2099 417.75C33.2099 417.388 33.5032 417.095 33.865 417.095C34.2268 417.095 34.52 417.388 34.52 417.75ZM33.0462 413.82C33.0462 413.367 33.4128 413.001 33.865 413.001C34.3172 413.001 34.6838 413.367 34.6838 413.82V413.899C34.6838 414.137 34.5892 414.366 34.4207 414.534L33.5176 415.437C33.3257 415.629 33.3257 415.94 33.5176 416.132C33.7095 416.324 34.0205 416.324 34.2124 416.132L35.1155 415.229C35.4682 414.876 35.6664 414.398 35.6664 413.899V413.82C35.6664 412.825 34.8599 412.018 33.865 412.018C32.8701 412.018 32.0636 412.825 32.0636 413.82V414.147C32.0636 414.418 32.2836 414.638 32.5549 414.638C32.8262 414.638 33.0462 414.418 33.0462 414.147V413.82Z" fill="#6B6B6B"/>
<rect width="1" height="867.108" transform="translate(67.7288)" fill="black"/>
</g>
<defs>
<filter id="filter0_b_1230_77497" x="18.7826" y="69.0763" width="406.699" height="795.548" filterUnits="userSpaceOnUse" color-interpolation-filters="sRGB">
<feFlood flood-opacity="0" result="BackgroundImageFix"/>
<feGaussianBlur in="BackgroundImageFix" stdDeviation="24.8366"/>
<feComposite in2="SourceAlpha" operator="in" result="effect1_backgroundBlur_1230_77497"/>
<feBlend mode="normal" in="SourceGraphic" in2="effect1_backgroundBlur_1230_77497" result="shape"/>
</filter>
<clipPath id="clip0_1230_77497">
<path d="M0 26.0784C0 13.7849 0 7.6382 3.8191 3.8191C7.6382 0 13.7849 0 26.0784 0H862C878.028 0 886.042 0 891.021 4.97918C896 9.95837 896 17.9722 896 34V415C896 445.17 896 460.255 886.627 469.627C877.255 479 862.17 479 832 479H0V26.0784Z" fill="white"/>
</clipPath>
<clipPath id="clip1_1230_77497">
<rect width="15.7211" height="15.7211" fill="white" transform="translate(26.0039 113.808)"/>
</clipPath>
</defs>
</svg>
