<svg width="40" height="41" viewBox="0 0 40 41" fill="none" xmlns="http://www.w3.org/2000/svg">
<path opacity="0.12" d="M36.6666 3.83325V23.7285C36.6666 24.8438 36.6666 25.4014 36.4522 25.8263C36.262 26.2034 35.9658 26.5036 35.5913 26.6989C35.1693 26.9189 34.6017 26.9265 33.4664 26.9418H33.4663C28.0657 27.0144 24.6938 27.4824 19.9999 30.4999C15.3061 27.4824 11.9342 27.0144 6.5335 26.9418H6.53347C5.39817 26.9265 4.83051 26.9189 4.40854 26.6989C4.03404 26.5036 3.73782 26.2034 3.54759 25.8263C3.33325 25.4014 3.33325 24.8438 3.33325 23.7285V3.83325H3.33329C10.7407 3.83325 14.4444 3.83326 19.9999 7.40468C25.5555 3.83325 29.2592 3.83325 36.6666 3.83325Z" fill="black"/>
<path fill-rule="evenodd" clip-rule="evenodd" d="M12.4905 3.54095C15.0193 3.98429 17.3232 4.85235 19.9999 6.51727C22.6767 4.85235 24.9806 3.98429 27.5093 3.54095C30.12 3.08323 32.9539 3.08324 36.6112 3.08325L36.6666 3.08325C37.0808 3.08325 37.4166 3.41904 37.4166 3.83325V23.7285V23.7585C37.4166 24.2906 37.4166 24.7343 37.3874 25.0966C37.3569 25.4741 37.291 25.8288 37.1219 26.1641C36.8609 26.6814 36.4518 27.096 35.9381 27.3639C35.6037 27.5383 35.2463 27.6085 34.8658 27.6439C34.4994 27.678 34.0485 27.6841 33.5064 27.6913L33.4764 27.6917C30.7891 27.7279 28.6638 27.8627 26.6425 28.346C24.6326 28.8265 22.6935 29.6599 20.4055 31.1308C20.1584 31.2896 19.8414 31.2896 19.5944 31.1308C17.3063 29.6599 15.3672 28.8265 13.3573 28.346C11.336 27.8627 9.2107 27.7279 6.52342 27.6917L6.49347 27.6913C5.95129 27.6841 5.50048 27.678 5.13403 27.6439C4.75353 27.6085 4.39615 27.5383 4.06178 27.3639C3.54806 27.096 3.13891 26.6814 2.87797 26.1641C2.70881 25.8288 2.64295 25.4741 2.61248 25.0966C2.58323 24.7343 2.58324 24.2906 2.58325 23.7586L2.58325 23.7285V3.83325C2.58325 3.63434 2.66227 3.44357 2.80292 3.30292C2.94358 3.16227 3.13434 3.08325 3.33325 3.08325L3.38865 3.08325C7.04598 3.08324 9.87987 3.08323 12.4905 3.54095ZM12.2315 5.01841C14.5643 5.42741 16.7001 6.22534 19.2499 7.81731V29.1612C17.313 28.0356 15.5467 27.3272 13.7062 26.8871C11.5179 26.3639 9.25695 26.2284 6.54358 26.1919C5.96381 26.1841 5.57298 26.1783 5.27301 26.1504C4.98035 26.1231 4.84292 26.0795 4.75531 26.0339C4.52002 25.9112 4.33673 25.7254 4.21722 25.4885C4.17203 25.3989 4.13073 25.2623 4.10761 24.9759C4.08382 24.6812 4.08325 24.2984 4.08325 23.7285V4.58342C7.42563 4.58559 9.93163 4.61519 12.2315 5.01841ZM26.2937 26.8871C24.4532 27.3272 22.6869 28.0356 20.7499 29.1612V7.81731C23.2997 6.22534 25.4355 5.42741 27.7683 5.01841C30.0682 4.61519 32.5742 4.58558 35.9166 4.58342V23.7285C35.9166 24.2984 35.916 24.6812 35.8922 24.9759C35.8691 25.2623 35.8278 25.3989 35.7826 25.4885C35.6631 25.7254 35.4798 25.9112 35.2445 26.0339C35.1569 26.0795 35.0195 26.1231 34.7268 26.1504C34.4269 26.1783 34.036 26.1841 33.4563 26.1919C30.7429 26.2284 28.4819 26.3639 26.2937 26.8871ZM4.99992 32.2499C4.58571 32.2499 4.24992 32.5857 4.24992 32.9999C4.24992 33.4141 4.58571 33.7499 4.99992 33.7499C8.30702 33.7499 10.7301 33.9575 12.9276 34.5568C15.1171 35.154 17.1261 36.1521 19.5839 37.7906C19.8358 37.9586 20.164 37.9586 20.4159 37.7906C22.8737 36.1521 24.8827 35.154 27.0723 34.5568C29.2697 33.9575 31.6928 33.7499 34.9999 33.7499C35.4141 33.7499 35.7499 33.4141 35.7499 32.9999C35.7499 32.5857 35.4141 32.2499 34.9999 32.2499C31.6404 32.2499 29.0635 32.459 26.6776 33.1097C24.4154 33.7266 22.3642 34.7297 19.9999 36.2684C17.6357 34.7297 15.5844 33.7266 13.3223 33.1097C10.9364 32.459 8.35949 32.2499 4.99992 32.2499Z" fill="black"/>
</svg>
