<svg width="44" height="44" viewBox="0 0 44 44" fill="none" xmlns="http://www.w3.org/2000/svg">
<rect width="44" height="44" rx="12" fill="#F4F4F4"/>
<path opacity="0.12" fill-rule="evenodd" clip-rule="evenodd" d="M26 15C26 13.3431 27.3431 12 29 12C30.6569 12 32 13.3431 32 15C32 16.6569 30.6569 18 29 18C27.3431 18 26 16.6569 26 15ZM12 22C12 20.3431 13.3431 19 15 19C16.6569 19 18 20.3431 18 22C18 23.6569 16.6569 25 15 25C13.3431 25 12 23.6569 12 22ZM29 26C27.3431 26 26 27.3431 26 29C26 30.6569 27.3431 32 29 32C30.6569 32 32 30.6569 32 29C32 27.3431 30.6569 26 29 26Z" fill="black"/>
<path fill-rule="evenodd" clip-rule="evenodd" d="M25.325 14.25C25.6725 12.5383 27.1858 11.25 29 11.25C31.0711 11.25 32.75 12.9289 32.75 15C32.75 17.0711 31.0711 18.75 29 18.75C27.1858 18.75 25.6725 17.4617 25.325 15.75L19 15.75C17.4315 15.75 16.1224 16.8612 15.8172 18.3393C17.4953 18.7123 18.75 20.2096 18.75 22C18.75 23.7904 17.4953 25.2877 15.8172 25.6607C16.1224 27.1388 17.4315 28.25 19 28.25L25.325 28.25C25.6725 26.5383 27.1858 25.25 29 25.25C31.0711 25.25 32.75 26.9289 32.75 29C32.75 31.0711 31.0711 32.75 29 32.75C27.1858 32.75 25.6725 31.4617 25.325 29.75L19 29.75C16.6091 29.75 14.6308 27.9836 14.299 25.6846C12.5629 25.3563 11.25 23.8315 11.25 22C11.25 20.1685 12.5629 18.6437 14.299 18.3154C14.6308 16.0164 16.6091 14.25 19 14.25L25.325 14.25ZM26.75 29C26.75 30.2426 27.7574 31.25 29 31.25C30.2426 31.25 31.25 30.2426 31.25 29C31.25 27.7574 30.2426 26.75 29 26.75C27.7574 26.75 26.75 27.7574 26.75 29ZM17.25 22C17.25 23.2423 16.2432 24.2494 15.001 24.25L15 24.25C13.7574 24.25 12.75 23.2426 12.75 22C12.75 20.7574 13.7574 19.75 15 19.75C16.2426 19.75 17.25 20.7574 17.25 22ZM26.75 15C26.75 16.2426 27.7574 17.25 29 17.25C30.2426 17.25 31.25 16.2426 31.25 15C31.25 13.7574 30.2426 12.75 29 12.75C27.7574 12.75 26.75 13.7574 26.75 15Z" fill="black"/>
</svg>
