<svg width="45" height="44" viewBox="0 0 45 44" fill="none" xmlns="http://www.w3.org/2000/svg">
<rect opacity="0.12" x="4.16602" y="3.66699" width="36.6667" height="36.6667" rx="5" fill="black"/>
<path fill-rule="evenodd" clip-rule="evenodd" d="M12.166 2.917L12.1325 2.917L12.1324 2.917C10.7607 2.91699 9.68528 2.91699 8.82095 2.98761C7.94081 3.05952 7.2137 3.20838 6.55557 3.54371C5.47364 4.09498 4.594 4.97462 4.04273 6.05655C3.70739 6.71468 3.55854 7.44179 3.48663 8.32193C3.41601 9.18628 3.41601 10.2617 3.41601 11.6334L3.41601 11.667L3.41601 32.3337L3.41601 32.3672L3.41601 32.3673C3.41601 33.739 3.41601 34.8144 3.48663 35.6787C3.55854 36.5589 3.70739 37.286 4.04273 37.9441C4.594 39.026 5.47364 39.9057 6.55557 40.4569C7.2137 40.7923 7.94081 40.9411 8.82095 41.013C9.68525 41.0837 10.7606 41.0837 12.1322 41.0837L12.1322 41.0837L12.1323 41.0837L12.1323 41.0837L12.1324 41.0837L12.1324 41.0837L12.166 41.0837L32.8327 41.0837L32.8663 41.0837L32.8663 41.0837L32.8664 41.0837L32.8664 41.0837L32.8665 41.0837L32.8665 41.0837C34.2381 41.0837 35.3135 41.0837 36.1777 41.013C37.0579 40.9411 37.785 40.7923 38.4431 40.4569C39.5251 39.9057 40.4047 39.026 40.956 37.9441C41.2913 37.286 41.4402 36.5589 41.5121 35.6787C41.5827 34.8144 41.5827 33.7391 41.5827 32.3675L41.5827 32.3674L41.5827 32.3674L41.5827 32.3673L41.5827 32.3673L41.5827 32.3672L41.5827 32.3337L41.5827 11.667L41.5827 11.6334L41.5827 11.6334L41.5827 11.6333L41.5827 11.6333L41.5827 11.6332L41.5827 11.6332C41.5827 10.2616 41.5827 9.18623 41.5121 8.32193C41.4402 7.44179 41.2913 6.71468 40.956 6.05655C40.4047 4.97462 39.5251 4.09498 38.4431 3.54371C37.785 3.20838 37.0579 3.05952 36.1777 2.98761C35.3134 2.91699 34.238 2.91699 32.8662 2.917L32.8327 2.917L12.166 2.917ZM7.23655 4.88022C7.64798 4.67059 8.15572 4.54696 8.9431 4.48263C9.73923 4.41758 10.7535 4.417 12.166 4.417L32.8327 4.417C34.2452 4.417 35.2595 4.41758 36.0556 4.48263C36.843 4.54696 37.3507 4.67059 37.7621 4.88022C38.5618 5.28768 39.212 5.93785 39.6195 6.73754C39.8291 7.14897 39.9527 7.6567 40.0171 8.44408C40.0821 9.24022 40.0827 10.2545 40.0827 11.667L40.0827 32.3337C40.0827 33.7462 40.0821 34.7604 40.0171 35.5566C39.9527 36.344 39.8291 36.8517 39.6195 37.2631C39.212 38.0628 38.5618 38.713 37.7621 39.1204C37.3507 39.3301 36.843 39.4537 36.0556 39.518C35.2595 39.5831 34.2452 39.5837 32.8327 39.5837L12.166 39.5837C10.7535 39.5837 9.73924 39.5831 8.9431 39.518C8.15572 39.4537 7.64798 39.3301 7.23655 39.1204C6.43687 38.713 5.7867 38.0628 5.37924 37.2631C5.1696 36.8517 5.04598 36.344 4.98164 35.5566C4.9166 34.7604 4.91601 33.7462 4.91601 32.3337L4.91601 11.667C4.91601 10.2545 4.9166 9.24022 4.98164 8.44408C5.04598 7.6567 5.1696 7.14897 5.37924 6.73754C5.7867 5.93785 6.43687 5.28768 7.23655 4.88022ZM11.5 32.25C11.0858 32.25 10.75 32.5858 10.75 33C10.75 33.4142 11.0858 33.75 11.5 33.75L33.5 33.75C33.9142 33.75 34.25 33.4142 34.25 33C34.25 32.5858 33.9142 32.25 33.5 32.25L11.5 32.25ZM19.916 25.667C19.916 25.2528 20.2518 24.917 20.666 24.917L33.4994 24.917C33.9136 24.917 34.2494 25.2528 34.2494 25.667C34.2494 26.0812 33.9136 26.417 33.4994 26.417L20.666 26.417C20.2518 26.417 19.916 26.0812 19.916 25.667ZM20.666 17.584C20.2518 17.584 19.916 17.9198 19.916 18.334C19.916 18.7482 20.2518 19.084 20.666 19.084L33.4994 19.084C33.9136 19.084 34.2494 18.7482 34.2494 18.334C34.2494 17.9198 33.9136 17.584 33.4994 17.584L20.666 17.584ZM10.75 11C10.75 10.5858 11.0858 10.25 11.5 10.25L33.5 10.25C33.9142 10.25 34.25 10.5858 34.25 11C34.25 11.4142 33.9142 11.75 33.5 11.75L11.5 11.75C11.0858 11.75 10.75 11.4142 10.75 11ZM15.697 21.4703L12.0303 17.8037C11.7374 17.5108 11.2626 17.5108 10.9697 17.8037C10.6768 18.0965 10.6768 18.5714 10.9697 18.8643L14.106 22.0007L10.9697 25.137C10.6768 25.4299 10.6768 25.9048 10.9697 26.1976C11.2626 26.4905 11.7374 26.4905 12.0303 26.1976L15.697 22.531C15.8376 22.3903 15.9167 22.1996 15.9167 22.0007C15.9167 21.8017 15.8376 21.611 15.697 21.4703Z" fill="black"/>
</svg>
