<svg width="45" height="44" viewBox="0 0 45 44" fill="none" xmlns="http://www.w3.org/2000/svg">
<path opacity="0.12" d="M12.9073 33.8396L9.46857 35.9888C8.57034 36.5502 8.12123 36.8309 7.66317 36.8796C7.25992 36.9224 6.85316 36.8417 6.49686 36.648C6.09213 36.4281 5.78429 35.9971 5.16862 35.1352L3.90961 33.3726C3.35221 32.5922 3.07351 32.202 2.9943 31.7578C2.92805 31.3864 2.98097 30.9452 3.13318 30.5999C3.31518 30.1871 3.6498 29.8984 4.31902 29.3211C7.82053 26.3004 11.5285 24.2903 15.1673 23.153C17.6747 22.3693 20.1492 22 22.5007 22C24.8521 22 27.3266 22.3693 29.834 23.153C33.4728 24.2903 37.1808 26.3004 40.6823 29.3212C41.3515 29.8985 41.6861 30.1872 41.8681 30.6001C42.0203 30.9453 42.0732 31.3865 42.007 31.758C41.9278 32.2022 41.6491 32.5923 41.0917 33.3726L41.0917 33.3727L39.8327 35.1352C39.217 35.9971 38.9092 36.4281 38.5044 36.648C38.1481 36.8417 37.7414 36.9224 37.3381 36.8796C36.8801 36.8309 36.431 36.5502 35.5328 35.9888L32.094 33.8396C31.6013 33.5316 31.3549 33.3776 31.1685 33.172C31.0033 32.9898 30.8732 32.7788 30.7846 32.5494C30.6846 32.2905 30.6577 32.0012 30.6038 31.4226L29.834 23.153C27.3266 22.3693 24.8521 22 22.5007 22C20.1492 22 17.6747 22.3693 15.1673 23.153L14.3975 31.4226V31.4226C14.3436 32.0012 14.3167 32.2905 14.2167 32.5494C14.1281 32.7788 13.998 32.9898 13.8328 33.172C13.6464 33.3776 13.4 33.5316 12.9073 33.8396Z" fill="black"/>
<path fill-rule="evenodd" clip-rule="evenodd" d="M13.3326 6.58301C12.9184 6.58301 12.5826 6.91879 12.5826 7.33301V14.6663C12.5826 15.0806 12.9184 15.4163 13.3326 15.4163C13.7468 15.4163 14.0826 15.0806 14.0826 14.6663V9.14367L19.7062 14.7673L19.7277 14.7888L19.7277 14.7888C20.1054 15.1665 20.4206 15.4818 20.6992 15.7183C20.9898 15.9649 21.2895 16.1697 21.6494 16.2867C22.2018 16.4661 22.7967 16.4661 23.349 16.2867C23.709 16.1697 24.0087 15.9649 24.2992 15.7183C24.5778 15.4818 24.8931 15.1665 25.2708 14.7888L25.2923 14.7673L31.2796 8.78C31.5725 8.48711 31.5725 8.01224 31.2796 7.71934C30.9867 7.42645 30.5118 7.42645 30.2189 7.71934L24.2317 13.7066C23.8269 14.1114 23.5548 14.3826 23.3285 14.5748C23.1089 14.7612 22.9822 14.8287 22.8855 14.8601C22.6345 14.9416 22.364 14.9416 22.113 14.8601C22.0163 14.8287 21.8896 14.7612 21.67 14.5748C21.4437 14.3826 21.1716 14.1114 20.7668 13.7066L15.1432 8.08301H20.6659C21.0801 8.08301 21.4159 7.74722 21.4159 7.33301C21.4159 6.91879 21.0801 6.58301 20.6659 6.58301H13.3326ZM22.4992 21.25C20.0694 21.25 17.5195 21.6316 14.9422 22.4371C11.2011 23.6064 7.40337 25.6685 3.82771 28.7532L3.73133 28.8362C3.15618 29.3313 2.69719 29.7264 2.4455 30.2974C2.23318 30.779 2.16213 31.3713 2.25454 31.8895C2.36416 32.5042 2.739 33.0277 3.21392 33.6911L3.29791 33.8085L4.55692 35.5711L4.57397 35.595L4.574 35.595C4.8673 36.0056 5.11279 36.3494 5.33663 36.6153C5.57068 36.8934 5.81921 37.1341 6.13733 37.307C6.62725 37.5732 7.18653 37.6843 7.74101 37.6254C8.10105 37.5871 8.42268 37.4596 8.74521 37.292C9.05367 37.1317 9.41185 36.9078 9.83978 36.6403L9.86466 36.6248L13.3034 34.4756L13.3769 34.4297C13.798 34.1669 14.1292 33.9602 14.3871 33.6757C14.6142 33.4252 14.7931 33.135 14.9149 32.8197C15.0533 32.4615 15.0892 32.0727 15.1349 31.5785L15.1429 31.4921L15.8659 23.725C18.1394 23.062 20.3744 22.75 22.4992 22.75C24.6241 22.75 26.8591 23.062 29.1326 23.725L29.8556 31.4921L29.8636 31.5785C29.9093 32.0727 29.9452 32.4615 30.0836 32.8197C30.2054 33.135 30.3843 33.4252 30.6114 33.6757C30.8693 33.9602 31.2005 34.1669 31.6215 34.4297L31.6216 34.4297L31.6951 34.4756L35.1339 36.6248L35.1588 36.6404C35.5867 36.9079 35.9449 37.1317 36.2533 37.292C36.5758 37.4596 36.8974 37.5871 37.2575 37.6254C37.812 37.6843 38.3712 37.5733 38.8612 37.307C39.1793 37.1341 39.4278 36.8934 39.6619 36.6153C39.8857 36.3494 40.1312 36.0057 40.4245 35.5951L40.4245 35.595L40.4416 35.5712L41.7006 33.8086L41.7845 33.6912C42.2595 33.0279 42.6343 32.5043 42.7439 31.8897C42.8363 31.3715 42.7653 30.7792 42.553 30.2975C42.3013 29.7266 41.8423 29.3315 41.2672 28.8363L41.1708 28.7533C37.5951 25.6686 33.7973 23.6064 30.0563 22.4372C27.4789 21.6316 24.9291 21.25 22.4992 21.25ZM4.80752 29.889C7.88757 27.2319 11.1218 25.3813 14.3123 24.2313L13.6493 31.3531C13.5915 31.9745 13.5694 32.1402 13.5157 32.2792C13.4603 32.4225 13.379 32.5544 13.2758 32.6683C13.1757 32.7787 13.0376 32.8728 12.5084 33.2036L9.06966 35.3528C8.61039 35.6398 8.3028 35.8314 8.05359 35.9609C7.81249 36.0862 7.68054 36.1233 7.58252 36.1338C7.33048 36.1605 7.07626 36.1101 6.85357 35.989C6.76696 35.942 6.6592 35.8573 6.48424 35.6494C6.30339 35.4345 6.09231 35.14 5.77751 34.6992L4.51851 32.9366C3.91804 32.096 3.77367 31.8641 3.73124 31.6262C3.69116 31.4014 3.72594 31.1114 3.81804 30.9025C3.91645 30.6792 4.08925 30.5086 4.80752 29.889ZM31.3492 31.3531L30.6862 24.2313C33.8767 25.3813 37.1109 27.2319 40.191 29.8891C40.9092 30.5087 41.082 30.6794 41.1805 30.9026C41.2725 31.1115 41.3073 31.4015 41.2672 31.6263C41.2248 31.8642 41.0804 32.0961 40.48 32.9368L39.221 34.6993C38.9062 35.14 38.6951 35.4345 38.5143 35.6494C38.3393 35.8573 38.2315 35.942 38.1449 35.9891C37.9222 36.1101 37.668 36.1605 37.416 36.1338C37.318 36.1233 37.186 36.0862 36.9449 35.9609C36.6957 35.8314 36.3881 35.6399 35.9289 35.3528L32.4901 33.2036C31.9609 32.8728 31.8228 32.7787 31.7227 32.6683C31.6195 32.5544 31.5382 32.4225 31.4828 32.2792C31.4291 32.1402 31.407 31.9745 31.3492 31.3531Z" fill="black"/>
</svg>
