<svg width="45" height="45" viewBox="0 0 45 45" fill="none" xmlns="http://www.w3.org/2000/svg">
<path opacity="0.12" fill-rule="evenodd" clip-rule="evenodd" d="M29.832 9.25001C29.832 6.21244 32.2945 3.75001 35.332 3.75001C38.3696 3.75001 40.832 6.21244 40.832 9.25001L40.832 9.5C40.832 12.5376 38.3696 15 35.332 15C32.2945 15 29.832 12.5376 29.832 9.5L29.832 9.25001ZM4.16601 22.375C4.16601 19.3374 6.62845 16.875 9.66601 16.875C12.7036 16.875 15.166 19.3374 15.166 22.375L15.166 22.625C15.166 25.6626 12.7036 28.125 9.66601 28.125C6.62845 28.125 4.16601 25.6626 4.16601 22.625L4.16601 22.375ZM35.332 30C32.2945 30 29.832 32.4624 29.832 35.5L29.832 35.75C29.832 38.7876 32.2945 41.25 35.332 41.25C38.3696 41.25 40.832 38.7876 40.832 35.75L40.832 35.5C40.832 32.4624 38.3696 30 35.332 30Z" fill="black"/>
<path fill-rule="evenodd" clip-rule="evenodd" d="M29.1129 8.62501C29.4265 5.46668 32.0912 3.00001 35.332 3.00001C38.7838 3.00001 41.582 5.79823 41.582 9.25001L41.582 9.5C41.582 12.9518 38.7838 15.75 35.332 15.75C32.0912 15.75 29.4265 13.2833 29.1129 10.125L17.166 10.125C13.6748 10.125 10.8027 12.7755 10.452 16.174C13.5328 16.5605 15.916 19.1894 15.916 22.375L15.916 22.625C15.916 25.8106 13.5328 28.4395 10.452 28.8261C10.8027 32.2246 13.6748 34.875 17.166 34.875L29.1129 34.875C29.4265 31.7167 32.0912 29.25 35.332 29.25C38.7838 29.25 41.582 32.0482 41.582 35.5L41.582 35.75C41.582 39.2018 38.7838 42 35.332 42C32.0912 42 29.4265 39.5333 29.1129 36.375L17.166 36.375C12.8485 36.375 9.30561 33.0584 8.94605 28.834C5.83338 28.477 3.41601 25.8333 3.41601 22.625L3.41601 22.375C3.41601 19.1667 5.83338 16.523 8.94605 16.166C9.30561 11.9416 12.8485 8.62501 17.166 8.62501L29.1129 8.62501ZM30.582 35.6566L30.582 35.75C30.582 38.3734 32.7087 40.5 35.332 40.5C37.9554 40.5 40.082 38.3734 40.082 35.75L40.082 35.5C40.082 32.8767 37.9554 30.75 35.332 30.75C32.7087 30.75 30.582 32.8767 30.582 35.5L30.582 35.5934C30.5825 35.6039 30.5827 35.6144 30.5827 35.625C30.5827 35.6356 30.5825 35.6461 30.582 35.6566ZM14.416 22.625C14.416 25.2478 12.2902 27.3742 9.6676 27.375L9.66601 27.375C7.04266 27.375 4.91601 25.2484 4.91601 22.625L4.91601 22.375C4.91601 19.7517 7.04266 17.625 9.66601 17.625C12.2894 17.625 14.416 19.7517 14.416 22.375L14.416 22.625ZM30.582 9.40655C30.5825 9.39609 30.5827 9.38558 30.5827 9.37501C30.5827 9.36444 30.5825 9.35392 30.582 9.34346L30.582 9.25001C30.582 6.62665 32.7087 4.50001 35.332 4.50001C37.9554 4.50001 40.082 6.62665 40.082 9.25001L40.082 9.5C40.082 12.1234 37.9554 14.25 35.332 14.25C32.7087 14.25 30.582 12.1234 30.582 9.5L30.582 9.40655Z" fill="black"/>
</svg>
