<svg width="45" height="44" viewBox="0 0 45 44" fill="none" xmlns="http://www.w3.org/2000/svg">
<path opacity="0.12" d="M22.5 40.3337C31.6127 40.3337 39 37.8712 39 34.8337V9.16699C39 9.16699 38.0833 14.667 22.5 14.667C6.91667 14.667 6 9.16699 6 9.16699V34.8337C6 37.8712 13.3873 40.3337 22.5 40.3337Z" fill="black"/>
<path fill-rule="evenodd" clip-rule="evenodd" d="M6.75 9.16699C6.75 8.7359 7.01142 8.20585 7.76088 7.6152C8.50189 7.03122 9.62063 6.47251 11.0699 5.98942C13.9606 5.02584 18.0018 4.41699 22.5 4.41699C26.9982 4.41699 31.0394 5.02584 33.9301 5.98942C35.3794 6.47251 36.4981 7.03122 37.2391 7.6152C37.9886 8.20585 38.25 8.7359 38.25 9.16699C38.25 9.59808 37.9886 10.1281 37.2391 10.7188C36.4981 11.3028 35.3794 11.8615 33.9301 12.3446C31.0394 13.3081 26.9982 13.917 22.5 13.917C18.0018 13.917 13.9606 13.3081 11.0699 12.3446C9.62063 11.8615 8.50189 11.3028 7.76088 10.7188C7.01142 10.1281 6.75 9.59808 6.75 9.16699ZM38.25 11.8309C38.2228 11.853 38.1953 11.8751 38.1676 11.8969C37.2387 12.6289 35.9411 13.2554 34.4044 13.7676C31.3233 14.7946 27.1145 15.417 22.5 15.417C17.8855 15.417 13.6767 14.7946 10.5956 13.7676C9.05894 13.2554 7.7613 12.6289 6.83242 11.8969C6.80471 11.8751 6.77723 11.853 6.75 11.8309L6.75 22L6.75 22.0008C6.75032 22.4317 7.01188 22.9615 7.76088 23.5518C8.50189 24.1358 9.62063 24.6945 11.0699 25.1776C13.9606 26.1411 18.0018 26.75 22.5 26.75C26.9982 26.75 31.0394 26.1411 33.9301 25.1776C35.3794 24.6945 36.4981 24.1358 37.2391 23.5518C37.9886 22.9611 38.25 22.4311 38.25 22V11.8309ZM39.75 22V9.16699C39.75 8.0793 39.088 7.16246 38.1676 6.43709C37.2387 5.70505 35.9411 5.0786 34.4044 4.56639C31.3233 3.53936 27.1145 2.91699 22.5 2.91699C17.8855 2.91699 13.6767 3.53936 10.5956 4.56639C9.05894 5.0786 7.7613 5.70505 6.83242 6.43709C5.912 7.16246 5.25 8.0793 5.25 9.16699V22V34.8337C5.25 35.2479 5.58579 35.5837 6 35.5837C6.41421 35.5837 6.75 35.2479 6.75 34.8337L6.75 24.6639C6.77723 24.6861 6.80471 24.7081 6.83242 24.7299C7.7613 25.4619 9.05894 26.0884 10.5956 26.6006C13.6767 27.6276 17.8855 28.25 22.5 28.25C27.1145 28.25 31.3233 27.6276 34.4044 26.6006C35.9411 26.0884 37.2387 25.4619 38.1676 24.7299C38.1953 24.7081 38.2228 24.6861 38.25 24.6639V34.8337C38.25 35.2479 38.5858 35.5837 39 35.5837C39.4142 35.5837 39.75 35.2479 39.75 34.8337V22Z" fill="black"/>
</svg>
