<svg width="45" height="44" viewBox="0 0 45 44" fill="none" xmlns="http://www.w3.org/2000/svg">
<path opacity="0.12" fill-rule="evenodd" clip-rule="evenodd" d="M22.4993 40.3337C32.6246 40.3337 40.8327 32.1255 40.8327 22.0003C40.8327 11.8751 32.6246 3.66699 22.4993 3.66699C12.3741 3.66699 4.16602 11.8751 4.16602 22.0003C4.16602 32.1255 12.3741 40.3337 22.4993 40.3337ZM19.6578 19.5633C19.5284 19.7364 19.4365 19.9385 19.2528 20.3428L15.166 29.3337L24.1569 25.2469L24.1569 25.2469C24.5612 25.0631 24.7633 24.9713 24.9364 24.8419C25.0899 24.7271 25.2261 24.5909 25.3409 24.4374C25.4703 24.2643 25.5622 24.0622 25.7459 23.6579L25.7459 23.6579L29.8327 14.667L20.8418 18.7538C20.4375 18.9375 20.2354 19.0294 20.0623 19.1588C19.9088 19.2735 19.7726 19.4098 19.6578 19.5633Z" fill="#22272F"/>
<path fill-rule="evenodd" clip-rule="evenodd" d="M4.91602 22.0003C4.91602 12.2893 12.7883 4.41699 22.4993 4.41699C32.2104 4.41699 40.0827 12.2893 40.0827 22.0003C40.0827 31.7113 32.2104 39.5837 22.4993 39.5837C12.7883 39.5837 4.91602 31.7113 4.91602 22.0003ZM22.4993 2.91699C11.9599 2.91699 3.41602 11.4609 3.41602 22.0003C3.41602 32.5398 11.9599 41.0837 22.4993 41.0837C33.0388 41.0837 41.5827 32.5398 41.5827 22.0003C41.5827 11.4609 33.0388 2.91699 22.4993 2.91699ZM30.5155 14.9773C30.6448 14.6927 30.5841 14.3577 30.363 14.1367C30.1419 13.9156 29.8069 13.8548 29.5223 13.9842L20.5314 18.071L20.4717 18.0981C20.1254 18.2553 19.8527 18.3791 19.6133 18.5581C19.4022 18.7158 19.2149 18.9032 19.0571 19.1143C18.8781 19.3537 18.7543 19.6264 18.5971 19.9727L18.57 20.0324L14.4832 29.0233C14.3539 29.3079 14.4146 29.6429 14.6357 29.864C14.8568 30.0851 15.1918 30.1458 15.4764 30.0164L24.4673 25.9297L24.527 25.9025L24.527 25.9025C24.8733 25.7453 25.146 25.6216 25.3854 25.4426C25.5965 25.2848 25.7838 25.0975 25.9416 24.8864C26.1206 24.647 26.2444 24.3743 26.4016 24.028L26.4287 23.9682L30.5155 14.9773ZM21.1521 19.4365L28.3223 16.1774L25.0631 23.3475C24.8661 23.7811 24.8098 23.8952 24.7402 23.9883C24.6685 24.0843 24.5833 24.1694 24.4874 24.2412C24.3942 24.3108 24.2801 24.367 23.8466 24.5641L16.6764 27.8233L19.9356 20.6531C20.1326 20.2195 20.1889 20.1055 20.2585 20.0123C20.3302 19.9164 20.4154 19.8312 20.5113 19.7595C20.6045 19.6899 20.7186 19.6336 21.1521 19.4365Z" fill="#22272F"/>
</svg>
