<svg width="45" height="44" viewBox="0 0 45 44" fill="none" xmlns="http://www.w3.org/2000/svg">
<g opacity="0.12">
<path d="M4.16602 34.8337V9.16699C4.16602 11.5617 10.5827 14.667 16.9993 14.667V40.3337C11.4993 40.3337 4.16602 37.5837 4.16602 34.8337Z" fill="black"/>
<path d="M40.8327 34.8337V9.16699C40.8327 11.5617 35.3327 14.667 27.9994 14.667V40.3337C35.3327 40.3337 40.8327 37.5837 40.8327 34.8337Z" fill="black"/>
</g>
<path fill-rule="evenodd" clip-rule="evenodd" d="M6.15943 7.65396C5.20254 8.27934 4.91602 8.80713 4.91602 9.16699C4.91602 9.43968 5.11648 9.89397 5.76895 10.4777C6.39484 11.0376 7.32383 11.6124 8.48251 12.1303C10.7971 13.165 13.9014 13.917 16.9993 13.917C17.4136 13.917 17.7493 14.2528 17.7493 14.667V40.3337C17.7493 40.7479 17.4136 41.0837 16.9993 41.0837C14.1431 41.0837 10.8386 40.3737 8.23621 39.3091C6.93569 38.777 5.77117 38.1406 4.91765 37.4294C4.08789 36.7379 3.41602 35.8591 3.41602 34.8337V9.16699C3.41602 8.00807 4.28207 7.08897 5.33882 6.39833C6.43379 5.68271 7.95072 5.06497 9.70721 4.55739C13.23 3.53939 17.8848 2.91699 22.4993 2.91699C27.1139 2.91699 31.7687 3.53939 35.2915 4.55739C37.048 5.06497 38.5649 5.68271 39.6599 6.39833C40.7166 7.08897 41.5827 8.00807 41.5827 9.16699V34.8337C41.5827 35.7825 41.1084 36.6478 40.395 37.3775C39.6796 38.1092 38.675 38.7583 37.4738 39.2989C35.0681 40.3814 31.7514 41.0837 27.9994 41.0837C27.5851 41.0837 27.2494 40.7479 27.2494 40.3337V14.667C27.2494 14.2528 27.5851 13.917 27.9994 13.917C31.5665 13.917 34.6646 13.1606 36.8473 12.1361C37.9408 11.6229 38.7777 11.0549 39.3294 10.5053C39.8942 9.94264 40.0827 9.48005 40.0827 9.16699C40.0827 8.80713 39.7962 8.27934 38.8393 7.65396C37.9206 7.05356 36.5628 6.48615 34.8751 5.99842C31.5094 5.02582 26.9975 4.41699 22.4993 4.41699C18.0012 4.41699 13.4893 5.02582 10.1236 5.99842C8.43587 6.48615 7.0781 7.05356 6.15943 7.65396ZM40.0827 11.8537C39.4041 12.4514 38.5197 13.0081 37.4847 13.4939C35.2448 14.5453 32.2056 15.3089 28.7494 15.4064V39.5738C32.0131 39.4873 34.8341 38.8418 36.8582 37.931C37.9487 37.4403 38.7774 36.8863 39.3225 36.3289C39.8694 35.7695 40.0827 35.2598 40.0827 34.8337V11.8537ZM4.91602 11.7238V34.8337C4.91602 35.1833 5.1608 35.6794 5.87792 36.277C6.57128 36.8548 7.58384 37.4215 8.80416 37.9207C11.0162 38.8257 13.7817 39.4569 16.2493 39.5666V15.4036C13.1859 15.2945 10.18 14.5322 7.87035 13.4997C6.69969 12.9764 5.6799 12.3713 4.91602 11.7238Z" fill="black"/>
</svg>
