<svg width="46" height="44" viewBox="0 0 46 44" fill="none" xmlns="http://www.w3.org/2000/svg">
<path opacity="0.12" d="M6.125 19.2503C6.125 10.0837 13.625 3.66699 23 3.66699C32.375 3.66699 39.875 10.0837 39.875 19.2503C39.875 33.6453 26.75 40.3333 23 40.3333C19.25 40.3333 6.125 33.6453 6.125 19.2503Z" fill="black"/>
<path fill-rule="evenodd" clip-rule="evenodd" d="M6.875 19.2503C6.875 10.5684 13.965 4.41699 23 4.41699C32.035 4.41699 39.125 10.5684 39.125 19.2503C39.125 26.1967 35.9649 31.2787 32.3343 34.6396C30.5163 36.3224 28.5863 37.5672 26.8917 38.3885C25.1729 39.2215 23.7705 39.5833 23 39.5833C22.2295 39.5833 20.8271 39.2215 19.1083 38.3885C17.4137 37.5672 15.4837 36.3224 13.6657 34.6396C10.0351 31.2787 6.875 26.1967 6.875 19.2503ZM23 2.91699C13.285 2.91699 5.375 9.59897 5.375 19.2503C5.375 26.699 8.77741 32.1585 12.6468 35.7403C14.5788 37.5288 16.6332 38.8558 18.4542 39.7383C20.251 40.6092 21.8955 41.0833 23 41.0833C24.1045 41.0833 25.749 40.6092 27.5458 39.7383C29.3668 38.8558 31.4212 37.5288 33.3532 35.7403C37.2226 32.1585 40.625 26.699 40.625 19.2503C40.625 9.59897 32.715 2.91699 23 2.91699ZM31.0243 17.0363C31.3205 16.7467 31.3258 16.2718 31.0363 15.9757C30.7467 15.6795 30.2718 15.6742 29.9757 15.9637L21.125 24.6177L17.8993 21.4637C17.6032 21.1742 17.1283 21.1795 16.8387 21.4757C16.5492 21.7718 16.5545 22.2467 16.8507 22.5363L20.6007 26.2029C20.8921 26.4879 21.3579 26.4879 21.6493 26.2029L31.0243 17.0363Z" fill="black"/>
</svg>
