<svg width="45" height="44" viewBox="0 0 45 44" fill="none" xmlns="http://www.w3.org/2000/svg">
<path opacity="0.12" d="M4.16602 16.5H40.8327V33.9333C40.8327 36.1735 40.8327 37.2936 40.3967 38.1493C40.0132 38.9019 39.4013 39.5139 38.6486 39.8974C37.793 40.3333 36.6729 40.3333 34.4327 40.3333H10.566C8.32581 40.3333 7.2057 40.3333 6.35005 39.8974C5.59741 39.5139 4.98548 38.9019 4.60199 38.1493C4.16602 37.2936 4.16602 36.1735 4.16602 33.9333V16.5Z" fill="black"/>
<path fill-rule="evenodd" clip-rule="evenodd" d="M12.166 2.91699H12.1325C10.7607 2.91699 9.6853 2.91698 8.82095 2.9876C7.94081 3.05951 7.2137 3.20837 6.55557 3.5437C5.47364 4.09498 4.594 4.97461 4.04273 6.05655C3.70739 6.71468 3.55854 7.44179 3.48663 8.32193C3.41601 9.18628 3.41601 10.2617 3.41602 11.6334V11.667V16.5V32.3337V32.3672C3.41601 33.7389 3.41601 34.8144 3.48663 35.6787C3.55854 36.5589 3.70739 37.286 4.04273 37.9441C4.594 39.026 5.47364 39.9057 6.55557 40.4569C7.2137 40.7923 7.94081 40.9411 8.82095 41.0131C9.68527 41.0837 10.7607 41.0837 12.1323 41.0837H12.1323H12.1324H12.1324H12.166H32.8327H32.8663H32.8663H32.8664H32.8664C34.2381 41.0837 35.3134 41.0837 36.1777 41.0131C37.0579 40.9411 37.785 40.7923 38.4431 40.4569C39.5251 39.9057 40.4047 39.026 40.956 37.9441C41.2913 37.286 41.4402 36.5589 41.5121 35.6787C41.5827 34.8144 41.5827 33.739 41.5827 32.3674V32.3673V32.3673V32.3672V32.3337V27.5316C41.5831 27.5211 41.5833 27.5106 41.5833 27.5C41.5833 27.4894 41.5831 27.4789 41.5827 27.4684V16.5V11.667V11.6334V11.6334V11.6333V11.6333C41.5827 10.2616 41.5827 9.18624 41.5121 8.32193C41.4402 7.44179 41.2913 6.71468 40.956 6.05655C40.4047 4.97461 39.5251 4.09498 38.4431 3.5437C37.785 3.20837 37.0579 3.05951 36.1777 2.9876C35.3134 2.91698 34.238 2.91699 32.8662 2.91699H32.8327H12.166ZM40.0827 26.75V17.25H17.75V26.75L40.0827 26.75ZM16.25 27.5008C16.25 27.5005 16.25 27.5003 16.25 27.5C16.25 27.4997 16.25 27.4995 16.25 27.4992V17.25H4.91602V32.3337C4.91602 33.7462 4.9166 34.7604 4.98165 35.5566C5.04598 36.344 5.1696 36.8517 5.37924 37.2631C5.7867 38.0628 6.43687 38.713 7.23656 39.1204C7.64798 39.3301 8.15572 39.4537 8.9431 39.518C9.73924 39.5831 10.7535 39.5837 12.166 39.5837H16.25L16.25 27.5008ZM17.75 28.25L40.0827 28.25V32.3337C40.0827 33.7462 40.0821 34.7604 40.0171 35.5566C39.9527 36.344 39.8291 36.8517 39.6195 37.2631C39.212 38.0628 38.5618 38.713 37.7621 39.1204C37.3507 39.3301 36.843 39.4537 36.0556 39.518C35.2595 39.5831 34.2452 39.5837 32.8327 39.5837H17.75L17.75 28.25ZM4.91602 15.75H17H40.0827V11.667C40.0827 10.2545 40.0821 9.24021 40.0171 8.44408C39.9527 7.6567 39.8291 7.14896 39.6195 6.73753C39.212 5.93784 38.5618 5.28768 37.7621 4.88021C37.3507 4.67058 36.843 4.54695 36.0556 4.48262C35.2595 4.41758 34.2452 4.41699 32.8327 4.41699H12.166C10.7535 4.41699 9.73923 4.41758 8.9431 4.48262C8.15572 4.54695 7.64798 4.67058 7.23656 4.88021C6.43687 5.28768 5.7867 5.93784 5.37924 6.73753C5.1696 7.14896 5.04598 7.6567 4.98165 8.44408C4.9166 9.24021 4.91602 10.2545 4.91602 11.667V15.75Z" fill="black"/>
</svg>
