<svg width="45" height="44" viewBox="0 0 45 44" fill="none" xmlns="http://www.w3.org/2000/svg">
<path opacity="0.12" fill-rule="evenodd" clip-rule="evenodd" d="M11.4993 7.33341C11.4993 9.35846 9.85773 11.0001 7.83268 11.0001C5.80764 11.0001 4.16602 9.35846 4.16602 7.33341C4.16602 5.30837 5.80764 3.66675 7.83268 3.66675C9.85773 3.66675 11.4993 5.30837 11.4993 7.33341ZM11.4993 22.0001C11.4993 24.0251 9.85773 25.6667 7.83268 25.6667C5.80764 25.6667 4.16602 24.0251 4.16602 22.0001C4.16602 19.975 5.80764 18.3334 7.83268 18.3334C9.85773 18.3334 11.4993 19.975 11.4993 22.0001ZM7.83268 40.3334C9.85773 40.3334 11.4993 38.6918 11.4993 36.6667C11.4993 34.6417 9.85773 33.0001 7.83268 33.0001C5.80764 33.0001 4.16602 34.6417 4.16602 36.6667C4.16602 38.6918 5.80764 40.3334 7.83268 40.3334ZM26.166 7.33341C26.166 9.35846 24.5244 11.0001 22.4993 11.0001C20.4743 11.0001 18.8327 9.35846 18.8327 7.33341C18.8327 5.30837 20.4743 3.66675 22.4993 3.66675C24.5244 3.66675 26.166 5.30837 26.166 7.33341ZM22.4993 25.6667C24.5244 25.6667 26.166 24.0251 26.166 22.0001C26.166 19.975 24.5244 18.3334 22.4993 18.3334C20.4743 18.3334 18.8327 19.975 18.8327 22.0001C18.8327 24.0251 20.4743 25.6667 22.4993 25.6667ZM26.166 36.6667C26.166 38.6918 24.5244 40.3334 22.4993 40.3334C20.4743 40.3334 18.8327 38.6918 18.8327 36.6667C18.8327 34.6417 20.4743 33.0001 22.4993 33.0001C24.5244 33.0001 26.166 34.6417 26.166 36.6667ZM37.166 11.0001C39.1911 11.0001 40.8327 9.35846 40.8327 7.33341C40.8327 5.30837 39.1911 3.66675 37.166 3.66675C35.141 3.66675 33.4993 5.30837 33.4993 7.33341C33.4993 9.35846 35.141 11.0001 37.166 11.0001ZM40.8327 22.0001C40.8327 24.0251 39.1911 25.6667 37.166 25.6667C35.141 25.6667 33.4993 24.0251 33.4993 22.0001C33.4993 19.975 35.141 18.3334 37.166 18.3334C39.1911 18.3334 40.8327 19.975 40.8327 22.0001ZM37.166 40.3334C39.1911 40.3334 40.8327 38.6918 40.8327 36.6667C40.8327 34.6417 39.1911 33.0001 37.166 33.0001C35.141 33.0001 33.4993 34.6417 33.4993 36.6667C33.4993 38.6918 35.141 40.3334 37.166 40.3334Z" fill="black"/>
<path fill-rule="evenodd" clip-rule="evenodd" d="M7.83268 4.41675C6.22185 4.41675 4.91602 5.72258 4.91602 7.33342C4.91602 8.94425 6.22185 10.2501 7.83268 10.2501C9.44351 10.2501 10.7493 8.94425 10.7493 7.33342C10.7493 5.72258 9.44351 4.41675 7.83268 4.41675ZM3.41602 7.33342C3.41602 4.89416 5.39342 2.91675 7.83268 2.91675C10.2719 2.91675 12.2493 4.89416 12.2493 7.33342C12.2493 9.77267 10.2719 11.7501 7.83268 11.7501C5.39342 11.7501 3.41602 9.77267 3.41602 7.33342ZM7.83268 19.0834C6.22185 19.0834 4.91602 20.3893 4.91602 22.0001C4.91602 23.6109 6.22185 24.9167 7.83268 24.9167C9.44351 24.9167 10.7493 23.6109 10.7493 22.0001C10.7493 20.3893 9.44351 19.0834 7.83268 19.0834ZM3.41602 22.0001C3.41602 19.5608 5.39342 17.5834 7.83268 17.5834C10.2719 17.5834 12.2493 19.5608 12.2493 22.0001C12.2493 24.4393 10.2719 26.4167 7.83268 26.4167C5.39342 26.4167 3.41602 24.4393 3.41602 22.0001ZM4.91602 36.6667C4.91602 35.0559 6.22185 33.7501 7.83268 33.7501C9.44351 33.7501 10.7493 35.0559 10.7493 36.6667C10.7493 38.2776 9.44351 39.5834 7.83268 39.5834C6.22185 39.5834 4.91602 38.2776 4.91602 36.6667ZM7.83268 32.2501C5.39342 32.2501 3.41602 34.2275 3.41602 36.6667C3.41602 39.106 5.39342 41.0834 7.83268 41.0834C10.2719 41.0834 12.2493 39.106 12.2493 36.6667C12.2493 34.2275 10.2719 32.2501 7.83268 32.2501ZM22.4993 4.41675C20.8885 4.41675 19.5827 5.72258 19.5827 7.33342C19.5827 8.94425 20.8885 10.2501 22.4993 10.2501C24.1102 10.2501 25.416 8.94425 25.416 7.33342C25.416 5.72258 24.1102 4.41675 22.4993 4.41675ZM18.0827 7.33342C18.0827 4.89416 20.0601 2.91675 22.4993 2.91675C24.9386 2.91675 26.916 4.89416 26.916 7.33342C26.916 9.77267 24.9386 11.7501 22.4993 11.7501C20.0601 11.7501 18.0827 9.77267 18.0827 7.33342ZM19.5827 22.0001C19.5827 20.3893 20.8885 19.0834 22.4993 19.0834C24.1102 19.0834 25.416 20.3893 25.416 22.0001C25.416 23.6109 24.1102 24.9167 22.4993 24.9167C20.8885 24.9167 19.5827 23.6109 19.5827 22.0001ZM22.4993 17.5834C20.0601 17.5834 18.0827 19.5608 18.0827 22.0001C18.0827 24.4393 20.0601 26.4167 22.4993 26.4167C24.9386 26.4167 26.916 24.4393 26.916 22.0001C26.916 19.5608 24.9386 17.5834 22.4993 17.5834ZM22.4993 33.7501C20.8885 33.7501 19.5827 35.0559 19.5827 36.6667C19.5827 38.2776 20.8885 39.5834 22.4993 39.5834C24.1102 39.5834 25.416 38.2776 25.416 36.6667C25.416 35.0559 24.1102 33.7501 22.4993 33.7501ZM18.0827 36.6667C18.0827 34.2275 20.0601 32.2501 22.4993 32.2501C24.9386 32.2501 26.916 34.2275 26.916 36.6667C26.916 39.106 24.9386 41.0834 22.4993 41.0834C20.0601 41.0834 18.0827 39.106 18.0827 36.6667ZM34.2493 7.33342C34.2493 5.72258 35.5552 4.41675 37.166 4.41675C38.7768 4.41675 40.0827 5.72258 40.0827 7.33342C40.0827 8.94425 38.7768 10.2501 37.166 10.2501C35.5552 10.2501 34.2493 8.94425 34.2493 7.33342ZM37.166 2.91675C34.7268 2.91675 32.7493 4.89416 32.7493 7.33342C32.7493 9.77267 34.7268 11.7501 37.166 11.7501C39.6053 11.7501 41.5827 9.77267 41.5827 7.33342C41.5827 4.89416 39.6053 2.91675 37.166 2.91675ZM37.166 19.0834C35.5552 19.0834 34.2493 20.3893 34.2493 22.0001C34.2493 23.6109 35.5552 24.9167 37.166 24.9167C38.7768 24.9167 40.0827 23.6109 40.0827 22.0001C40.0827 20.3893 38.7768 19.0834 37.166 19.0834ZM32.7493 22.0001C32.7493 19.5608 34.7268 17.5834 37.166 17.5834C39.6053 17.5834 41.5827 19.5608 41.5827 22.0001C41.5827 24.4393 39.6053 26.4167 37.166 26.4167C34.7268 26.4167 32.7493 24.4393 32.7493 22.0001ZM34.2493 36.6667C34.2493 35.0559 35.5552 33.7501 37.166 33.7501C38.7768 33.7501 40.0827 35.0559 40.0827 36.6667C40.0827 38.2776 38.7768 39.5834 37.166 39.5834C35.5552 39.5834 34.2493 38.2776 34.2493 36.6667ZM37.166 32.2501C34.7268 32.2501 32.7493 34.2275 32.7493 36.6667C32.7493 39.106 34.7268 41.0834 37.166 41.0834C39.6053 41.0834 41.5827 39.106 41.5827 36.6667C41.5827 34.2275 39.6053 32.2501 37.166 32.2501Z" fill="black"/>
</svg>
