<svg width="45" height="44" viewBox="0 0 45 44" fill="none" xmlns="http://www.w3.org/2000/svg">
<path opacity="0.12" fill-rule="evenodd" clip-rule="evenodd" d="M22.4993 40.3337C32.6246 40.3337 40.8327 32.1255 40.8327 22.0003C40.8327 11.8751 32.6246 3.66699 22.4993 3.66699C12.3741 3.66699 4.16602 11.8751 4.16602 22.0003C4.16602 32.1255 12.3741 40.3337 22.4993 40.3337ZM18.832 23.0185C18.832 28.9938 26.1654 28.9939 26.1654 23.0185C26.1654 19.216 22.4986 16.5 22.4986 16.5C22.4986 16.5 18.832 19.216 18.832 23.0185Z" fill="black"/>
<path fill-rule="evenodd" clip-rule="evenodd" d="M23.25 7.33366V4.43273C27.5402 4.61291 31.4329 6.33035 34.3917 9.04851L32.9698 10.4699C32.6768 10.7627 32.6767 11.2376 32.9696 11.5306C33.2624 11.8235 33.7373 11.8236 34.0302 11.5308L35.4523 10.1092C38.1699 13.0679 39.8869 16.9603 40.067 21.25H37.166C36.7518 21.25 36.416 21.5858 36.416 22C36.416 22.4142 36.7518 22.75 37.166 22.75H40.067C39.8871 27.0399 38.1701 30.9325 35.4524 33.8913L34.0302 32.4696C33.7373 32.1767 33.2624 32.1768 32.9696 32.4698C32.6767 32.7627 32.6768 33.2376 32.9698 33.5304L34.3918 34.952C31.2614 37.8279 27.0854 39.5837 22.4993 39.5837C17.9136 39.5837 13.7379 37.8282 10.6075 34.9526L12.0303 33.5304C12.3232 33.2376 12.3233 32.7627 12.0304 32.4698C11.7376 32.1768 11.2627 32.1767 10.9698 32.4696L9.54689 33.892C6.8289 30.9331 5.11166 27.0402 4.93171 22.75H7.83268C8.2469 22.75 8.58268 22.4142 8.58268 22C8.58268 21.5858 8.2469 21.25 7.83268 21.25H4.93174C5.11184 16.96 6.82907 13.0674 9.54697 10.1086L10.969 11.5307C11.2619 11.8235 11.7368 11.8235 12.0297 11.5307C12.3226 11.2378 12.3226 10.7629 12.0297 10.47L10.6076 9.04795C13.5666 6.32984 17.4596 4.61255 21.75 4.43267V7.33366C21.75 7.74787 22.0858 8.08366 22.5 8.08366C22.9142 8.08366 23.25 7.74787 23.25 7.33366ZM22.5 2.91699C33.039 2.91734 41.5825 11.461 41.5827 22.0001V22.0003C41.5827 32.5398 33.0388 41.0837 22.4993 41.0837C11.9599 41.0837 3.41602 32.5398 3.41602 22.0003V21.9976C3.4175 11.4594 11.9608 2.91699 22.4993 2.91699H22.5ZM22.4986 16.5L22.945 15.8973C22.6798 15.7009 22.3174 15.7009 22.0522 15.8973L22.4986 16.5ZM21.2527 18.7997C21.6807 18.2607 22.11 17.8313 22.4316 17.5375C22.4545 17.5166 22.4769 17.4963 22.4986 17.4768C22.5204 17.4963 22.5427 17.5166 22.5657 17.5375C22.8873 17.8313 23.3166 18.2607 23.7447 18.7998C24.6108 19.8904 25.4154 21.3576 25.4154 23.0185C25.4154 24.3556 25.008 25.2847 24.4677 25.8717C23.9248 26.4616 23.2095 26.75 22.4987 26.75C21.7879 26.75 21.0726 26.4616 20.5297 25.8717C19.9894 25.2847 19.582 24.3556 19.582 23.0185C19.582 21.3576 20.3866 19.8904 21.2527 18.7997ZM26.9154 23.0185C26.9154 20.877 25.8866 19.0849 24.9193 17.8669C24.4307 17.2517 23.9433 16.7643 23.5774 16.4301C23.394 16.2625 23.2399 16.1324 23.1299 16.0427C23.0748 15.9978 23.0307 15.963 22.9993 15.9387C22.9836 15.9265 22.9711 15.917 22.962 15.9101L22.9508 15.9017L22.9473 15.899L22.946 15.898L22.9454 15.8976C22.9452 15.8975 22.945 15.8973 22.4986 16.5C22.0522 15.8973 22.052 15.8975 22.0517 15.8977L22.0512 15.898L22.0499 15.899L22.0463 15.9017L22.0352 15.9101C22.0261 15.917 22.0136 15.9265 21.9979 15.9387C21.9665 15.9631 21.9223 15.9979 21.8673 16.0427C21.7572 16.1324 21.6032 16.2625 21.4198 16.4301C21.0539 16.7644 20.5665 17.2517 20.078 17.8669C19.1108 19.0849 18.082 20.877 18.082 23.0185C18.082 24.6691 18.5913 25.9807 19.426 26.8875C20.2581 27.7915 21.3761 28.25 22.4987 28.25C23.6213 28.25 24.7393 27.7915 25.5714 26.8876C26.4061 25.9807 26.9154 24.6691 26.9154 23.0185Z" fill="black"/>
</svg>
