<svg width="45" height="43" viewBox="0 0 45 43" fill="none" xmlns="http://www.w3.org/2000/svg">
<rect opacity="0.12" x="4.16602" y="3.58301" width="36.6667" height="35.8333" rx="5" fill="black"/>
<path fill-rule="evenodd" clip-rule="evenodd" d="M12.1325 2.83301H12.166H32.8327H32.8662C34.238 2.833 35.3134 2.833 36.1777 2.90362C37.0579 2.97553 37.785 3.12439 38.4431 3.45972C39.5251 4.01099 40.4047 4.89063 40.956 5.97256C41.2913 6.63069 41.4402 7.3578 41.5121 8.23794C41.5827 9.10227 41.5827 10.1777 41.5827 11.5493V11.5494V11.5494V11.583V31.4163V31.4499V31.45V31.45C41.5827 32.8217 41.5827 33.8971 41.5121 34.7614C41.4402 35.6415 41.2913 36.3687 40.956 37.0268C40.4047 38.1087 39.5251 38.9884 38.4431 39.5396C37.785 39.875 37.0579 40.0238 36.1777 40.0957C35.3134 40.1663 34.238 40.1663 32.8664 40.1663H32.8663H32.8663H32.8327H12.166H12.1324H12.1324H12.1323C10.7607 40.1663 9.68528 40.1663 8.82095 40.0957C7.94081 40.0238 7.2137 39.875 6.55557 39.5396C5.47364 38.9884 4.594 38.1087 4.04273 37.0268C3.70739 36.3687 3.55854 35.6415 3.48663 34.7614C3.41601 33.8971 3.41601 32.8216 3.41602 31.4499V31.4163V11.583V11.5494C3.41601 10.1777 3.41601 9.10229 3.48663 8.23794C3.55854 7.3578 3.70739 6.63069 4.04273 5.97256C4.594 4.89063 5.47364 4.01099 6.55557 3.45972C7.2137 3.12439 7.94081 2.97553 8.82095 2.90362C9.6853 2.833 10.7607 2.833 12.1325 2.83301ZM8.9431 4.39864C8.15572 4.46297 7.64798 4.5866 7.23656 4.79623C6.43687 5.20369 5.7867 5.85386 5.37924 6.65355C5.1696 7.06498 5.04598 7.57271 4.98165 8.36009C4.9166 9.15623 4.91602 10.1705 4.91602 11.583V31.4163C4.91602 32.8288 4.9166 33.8431 4.98165 34.6393C5.04598 35.4266 5.1696 35.9344 5.37924 36.3458C5.7867 37.1455 6.43687 37.7957 7.23656 38.2031C7.64798 38.4128 8.15572 38.5364 8.9431 38.6007C9.73924 38.6658 10.7535 38.6663 12.166 38.6663H32.8327C34.2452 38.6663 35.2595 38.6658 36.0556 38.6007C36.843 38.5364 37.3507 38.4128 37.7621 38.2031C38.5618 37.7957 39.212 37.1455 39.6195 36.3458C39.8291 35.9344 39.9527 35.4266 40.0171 34.6393C40.0821 33.8431 40.0827 32.8288 40.0827 31.4163V11.583C40.0827 10.1705 40.0821 9.15623 40.0171 8.36009C39.9527 7.57271 39.8291 7.06498 39.6195 6.65355C39.212 5.85386 38.5618 5.20369 37.7621 4.79623C37.3507 4.5866 36.843 4.46297 36.0556 4.39864C35.2595 4.33359 34.2452 4.33301 32.8327 4.33301H12.166C10.7535 4.33301 9.73923 4.33359 8.9431 4.39864ZM16.6197 10.2258C16.9092 10.522 16.9038 10.9969 16.6075 11.2864L13.3405 14.4793H26.1667C26.5809 14.4793 26.9167 14.8151 26.9167 15.2293C26.9167 15.6435 26.5809 15.9793 26.1667 15.9793H13.3405L16.6075 19.1721C16.9038 19.4616 16.9092 19.9364 16.6197 20.2327C16.3302 20.5289 15.8554 20.5344 15.5591 20.2449L10.9758 15.7657C10.8314 15.6246 10.75 15.4312 10.75 15.2293C10.75 15.0274 10.8314 14.834 10.9758 14.6929L15.5591 10.2136C15.8554 9.92411 16.3302 9.92956 16.6197 10.2258ZM28.3925 23.8274C28.0962 23.5379 28.0908 23.0631 28.3803 22.7668C28.6698 22.4706 29.1446 22.4651 29.4409 22.7546L34.0242 27.2338C34.1686 27.3749 34.25 27.5683 34.25 27.7702C34.25 27.9721 34.1686 28.1655 34.0242 28.3066L29.4409 32.7857C29.1446 33.0752 28.6698 33.0698 28.3803 32.7735C28.0908 32.4773 28.0962 32.0025 28.3925 31.713L31.6595 28.5202H18.8333C18.4191 28.5202 18.0833 28.1844 18.0833 27.7702C18.0833 27.356 18.4191 27.0202 18.8333 27.0202H31.6595L28.3925 23.8274Z" fill="black"/>
</svg>
