<svg width="45" height="44" viewBox="0 0 45 44" fill="none" xmlns="http://www.w3.org/2000/svg">
<rect opacity="0.12" x="4.16602" y="3.66663" width="36.6667" height="36.6667" rx="5" fill="black"/>
<path fill-rule="evenodd" clip-rule="evenodd" d="M12.166 2.91663H12.1325C10.7607 2.91662 9.6853 2.91662 8.82095 2.98724C7.94081 3.05915 7.2137 3.208 6.55557 3.54334C5.47364 4.09461 4.594 4.97425 4.04273 6.05618C3.70739 6.71431 3.55854 7.44142 3.48663 8.32156C3.41601 9.18591 3.41601 10.2614 3.41602 11.6331V11.6666V32.3333V32.3669C3.41601 33.7386 3.41601 34.814 3.48663 35.6784C3.55854 36.5585 3.70739 37.2856 4.04273 37.9437C4.594 39.0257 5.47364 39.9053 6.55557 40.4566C7.2137 40.7919 7.94081 40.9408 8.82095 41.0127C9.68529 41.0833 10.7607 41.0833 12.1324 41.0833H12.1324H12.166H32.8327H32.8663H32.8663C34.238 41.0833 35.3134 41.0833 36.1777 41.0127C37.0579 40.9408 37.785 40.7919 38.4431 40.4566C39.5251 39.9053 40.4047 39.0257 40.956 37.9437C41.2913 37.2856 41.4402 36.5585 41.5121 35.6784C41.5827 34.814 41.5827 33.7386 41.5827 32.3669V32.3669V32.3333V11.6666V11.633V11.633C41.5827 10.2613 41.5827 9.1859 41.5121 8.32156C41.4402 7.44142 41.2913 6.71431 40.956 6.05618C40.4047 4.97425 39.5251 4.09461 38.4431 3.54334C37.785 3.208 37.0579 3.05915 36.1777 2.98724C35.3134 2.91662 34.238 2.91662 32.8662 2.91663H32.8327H12.166ZM7.23656 4.87985C7.64798 4.67022 8.15572 4.54659 8.9431 4.48226C9.73923 4.41721 10.7535 4.41663 12.166 4.41663H32.8327C34.2452 4.41663 35.2595 4.41721 36.0556 4.48226C36.843 4.54659 37.3507 4.67022 37.7621 4.87985C38.5618 5.28731 39.212 5.93748 39.6195 6.73717C39.8291 7.14859 39.9527 7.65633 40.0171 8.44371C40.0821 9.23984 40.0827 10.2541 40.0827 11.6666V32.3333C40.0827 33.7458 40.0821 34.7601 40.0171 35.5562C39.9527 36.3436 39.8291 36.8513 39.6195 37.2628C39.212 38.0624 38.5618 38.7126 37.7621 39.1201C37.3507 39.3297 36.843 39.4533 36.0556 39.5177C35.2595 39.5827 34.2452 39.5833 32.8327 39.5833H12.166C10.7535 39.5833 9.73924 39.5827 8.9431 39.5177C8.15572 39.4533 7.64798 39.3297 7.23656 39.1201C6.43687 38.7126 5.7867 38.0624 5.37924 37.2628C5.1696 36.8513 5.04598 36.3436 4.98165 35.5562C4.9166 34.7601 4.91602 33.7458 4.91602 32.3333V11.6666C4.91602 10.2541 4.9166 9.23985 4.98165 8.44371C5.04598 7.65633 5.1696 7.14859 5.37924 6.73717C5.7867 5.93748 6.43687 5.28731 7.23656 4.87985ZM26.166 13.9166C25.7518 13.9166 25.416 14.2524 25.416 14.6666C25.416 15.0808 25.7518 15.4166 26.166 15.4166H31.8981L25.9998 22.4946C25.6025 22.9713 25.334 23.2925 25.1078 23.5216C24.8872 23.7449 24.7576 23.8267 24.6592 23.8657C24.3994 23.9688 24.1125 23.9818 23.8445 23.9027C23.743 23.8727 23.6064 23.803 23.3665 23.6006C23.1205 23.3929 22.8241 23.0974 22.3852 22.6585L21.6258 21.899L21.6042 21.8775C21.2265 21.4998 20.9113 21.1845 20.6327 20.948C20.3421 20.7014 20.0425 20.4966 19.6825 20.3796C19.1302 20.2002 18.5352 20.2002 17.9829 20.3796C17.6229 20.4966 17.3232 20.7014 17.0327 20.948C16.7541 21.1845 16.4388 21.4998 16.0612 21.8775L16.0611 21.8775L16.0396 21.899L10.969 26.9696C10.6761 27.2625 10.6761 27.7374 10.969 28.0303C11.2619 28.3232 11.7368 28.3232 12.0297 28.0303L17.1003 22.9597C17.505 22.5549 17.7771 22.2837 18.0034 22.0915C18.2231 21.9051 18.3497 21.8376 18.4464 21.8062C18.6975 21.7247 18.9679 21.7247 19.219 21.8062C19.3156 21.8376 19.4423 21.9051 19.6619 22.0915C19.8882 22.2837 20.1603 22.5549 20.5651 22.9597L21.3246 23.7192L21.3472 23.7418L21.3472 23.7418C21.7577 24.1523 22.0987 24.4934 22.399 24.7468C22.7108 25.01 23.0332 25.2272 23.4199 25.3414C24.0097 25.5154 24.6407 25.4868 25.2122 25.26C25.587 25.1114 25.8884 24.8659 26.1752 24.5755C26.4512 24.2959 26.76 23.9254 27.1316 23.4794L27.1521 23.4548L32.7493 16.7382V22C32.7493 22.4142 33.0851 22.75 33.4993 22.75C33.9136 22.75 34.2493 22.4142 34.2493 22V14.6666C34.2493 14.2524 33.9136 13.9166 33.4993 13.9166H26.166Z" fill="black"/>
</svg>
