<svg width="45" height="44" viewBox="0 0 45 44" fill="none" xmlns="http://www.w3.org/2000/svg">
<rect opacity="0.12" x="4.16602" y="3.66699" width="36.6667" height="36.6667" rx="6" fill="black"/>
<path fill-rule="evenodd" clip-rule="evenodd" d="M13.766 2.917L13.7321 2.917L13.732 2.917C12.0806 2.91699 10.7952 2.91699 9.76415 3.00123C8.71726 3.08677 7.86666 3.26287 7.10158 3.6527C5.83148 4.29985 4.79887 5.33247 4.15172 6.60256C3.76189 7.36765 3.58578 8.21824 3.50025 9.26513C3.41601 10.2962 3.41601 11.5816 3.41601 13.2331L3.41601 13.267L3.41601 30.7337L3.41601 30.7676L3.41601 30.7677C3.41601 32.4191 3.41601 33.7044 3.50025 34.7355C3.58578 35.7824 3.76189 36.633 4.15172 37.3981C4.79887 38.6682 5.83148 39.7008 7.10158 40.348C7.86666 40.7378 8.71726 40.9139 9.76415 40.9994C10.7952 41.0837 12.0805 41.0837 13.7319 41.0837L13.732 41.0837L13.732 41.0837L13.7321 41.0837L13.766 41.0837L31.2327 41.0837L31.2666 41.0837L31.2667 41.0837L31.2667 41.0837L31.2668 41.0837C32.9182 41.0837 34.2035 41.0837 35.2345 40.9994C36.2814 40.9139 37.132 40.7378 37.8971 40.348C39.1672 39.7008 40.1998 38.6682 40.847 37.3981C41.2368 36.633 41.4129 35.7824 41.4984 34.7355C41.5827 33.7045 41.5827 32.4191 41.5827 30.7678L41.5827 30.7677L41.5827 30.7677L41.5827 30.7676L41.5827 30.7337L41.5827 13.267L41.5827 13.233L41.5827 13.233L41.5827 13.2329L41.5827 13.2329C41.5827 11.5815 41.5827 10.2962 41.4985 9.26513C41.4129 8.21824 41.2368 7.36765 40.847 6.60256C40.1998 5.33247 39.1672 4.29985 37.8971 3.6527C37.132 3.26287 36.2814 3.08677 35.2345 3.00123C34.2035 2.91699 32.9181 2.91699 31.2666 2.917L31.2327 2.917L13.766 2.917ZM7.78256 4.98921C8.30095 4.72508 8.93217 4.57421 9.8863 4.49625C10.8492 4.41758 12.0735 4.417 13.766 4.417L31.2327 4.417C32.9252 4.417 34.1495 4.41758 35.1124 4.49625C36.0665 4.57421 36.6978 4.72508 37.2161 4.98921C38.204 5.49255 39.0071 6.2957 39.5105 7.28355C39.7746 7.80193 39.9255 8.43315 40.0034 9.38728C40.0821 10.3502 40.0827 11.5745 40.0827 13.267L40.0827 30.7337C40.0827 32.4262 40.0821 33.6505 40.0034 34.6134C39.9255 35.5675 39.7746 36.1987 39.5105 36.7171C39.0071 37.705 38.204 38.5081 37.2161 39.0114C36.6978 39.2756 36.0665 39.4264 35.1124 39.5044C34.1495 39.5831 32.9252 39.5837 31.2327 39.5837L13.766 39.5837C12.0735 39.5837 10.8492 39.5831 9.8863 39.5044C8.93217 39.4264 8.30095 39.2756 7.78256 39.0114C6.79471 38.5081 5.99156 37.705 5.48823 36.7171C5.2241 36.1987 5.07322 35.5675 4.99527 34.6134C4.9166 33.6505 4.91601 32.4262 4.91601 30.7337L4.91601 13.267C4.91601 11.5745 4.9166 10.3502 4.99527 9.38728C5.07322 8.43315 5.2241 7.80193 5.48823 7.28355C5.99156 6.2957 6.79471 5.49255 7.78256 4.98921ZM14.082 14.667C14.082 14.2528 13.7462 13.917 13.332 13.917C12.9178 13.917 12.582 14.2528 12.582 14.667L12.582 29.3337C12.582 29.7479 12.9178 30.0837 13.332 30.0837C13.7462 30.0837 14.082 29.7479 14.082 29.3337L14.082 14.667ZM22.5 19.417C22.9142 19.417 23.25 19.7528 23.25 20.167L23.25 29.3337C23.25 29.7479 22.9142 30.0837 22.5 30.0837C22.0858 30.0837 21.75 29.7479 21.75 29.3337L21.75 20.167C21.75 19.7528 22.0858 19.417 22.5 19.417ZM32.416 16.5C32.416 16.0858 32.0802 15.75 31.666 15.75C31.2518 15.75 30.916 16.0858 30.916 16.5L30.916 29.3333C30.916 29.7475 31.2518 30.0833 31.666 30.0833C32.0802 30.0833 32.416 29.7475 32.416 29.3333L32.416 16.5Z" fill="black"/>
</svg>
