<svg width="45" height="43" viewBox="0 0 45 43" fill="none" xmlns="http://www.w3.org/2000/svg">
<path opacity="0.12" d="M6 3.58301H39V22.2663C39 24.5065 39 25.6267 38.564 26.4823C38.1805 27.235 37.5686 27.8469 36.816 28.2304C35.9603 28.6663 34.8402 28.6663 32.6 28.6663H12.4C10.1598 28.6663 9.03969 28.6663 8.18404 28.2304C7.43139 27.8469 6.81947 27.235 6.43597 26.4823C6 25.6267 6 24.5066 6 22.2663V3.58301Z" fill="black"/>
<path fill-rule="evenodd" clip-rule="evenodd" d="M3.41602 3.58301C3.41602 3.16879 3.7518 2.83301 4.16602 2.83301H6H39H40.8327C41.2469 2.83301 41.5827 3.16879 41.5827 3.58301C41.5827 3.99722 41.2469 4.33301 40.8327 4.33301H39.75V22.2663V22.2994C39.75 23.3915 39.75 24.257 39.693 24.9546C39.6347 25.668 39.5131 26.2716 39.2323 26.8228C38.7769 27.7166 38.0502 28.4432 37.1565 28.8986C36.6053 29.1795 36.0017 29.3011 35.2883 29.3594C34.5906 29.4164 33.7252 29.4163 32.633 29.4163H32.6H23.2487V33.6114L32.0447 38.769C32.402 38.9786 32.5219 39.4381 32.3123 39.7954C32.1028 40.1527 31.6433 40.2725 31.286 40.063L23.2487 35.3502V39.416C23.2487 39.8302 22.9129 40.166 22.4987 40.166C22.0845 40.166 21.7487 39.8302 21.7487 39.416V35.3502L13.7114 40.063C13.3541 40.2725 12.8946 40.1527 12.6851 39.7954C12.4755 39.4381 12.5953 38.9786 12.9527 38.769L21.7487 33.6114V29.4163H12.4H12.367C11.2748 29.4163 10.4094 29.4164 9.71173 29.3594C8.99834 29.3011 8.39472 29.1795 7.84354 28.8986C6.94978 28.4432 6.22312 27.7166 5.76772 26.8228C5.48688 26.2716 5.36527 25.668 5.30699 24.9546C5.24999 24.257 5.24999 23.3915 5.25 22.2993L5.25 22.2663V4.33301H4.16602C3.7518 4.33301 3.41602 3.99722 3.41602 3.58301ZM22.521 27.9163C22.5136 27.9161 22.5062 27.916 22.4987 27.916C22.4912 27.916 22.4838 27.9161 22.4764 27.9163H12.4C11.2675 27.9163 10.4633 27.9158 9.83388 27.8643C9.21325 27.8136 8.829 27.7172 8.52453 27.5621C7.913 27.2505 7.41582 26.7533 7.10423 26.1418C6.94909 25.8373 6.85271 25.4531 6.80201 24.8325C6.75058 24.2031 6.75 23.3988 6.75 22.2663V4.33301H38.25V22.2663C38.25 23.3988 38.2494 24.2031 38.198 24.8325C38.1473 25.4531 38.0509 25.8373 37.8958 26.1418C37.5842 26.7533 37.087 27.2505 36.4755 27.5621C36.171 27.7172 35.7867 27.8136 35.1661 27.8643C34.5367 27.9158 33.7325 27.9163 32.6 27.9163H22.521ZM30.2423 14.9614C30.5893 14.7353 30.6874 14.2707 30.4613 13.9236C30.2352 13.5766 29.7706 13.4785 29.4235 13.7046L24.427 16.9598L21.1903 13.7966C20.939 13.5511 20.551 13.5128 20.2567 13.7046L14.7566 17.2879C14.4096 17.514 14.3115 17.9787 14.5376 18.3257C14.7637 18.6728 15.2284 18.7708 15.5754 18.5447L20.5718 15.2896L23.8085 18.4527C24.0597 18.6982 24.4478 18.7365 24.7421 18.5447L30.2423 14.9614Z" fill="black"/>
</svg>
