<svg width="45" height="46" viewBox="0 0 45 46" fill="none" xmlns="http://www.w3.org/2000/svg">
<rect opacity="0.12" x="3.70898" y="3.35388" width="36.6667" height="38.3333" rx="5" fill="black"/>
<path fill-rule="evenodd" clip-rule="evenodd" d="M11.709 2.60389L11.6754 2.60389C10.3037 2.60388 9.22827 2.60388 8.36392 2.6745C7.48378 2.74641 6.75667 2.89527 6.09854 3.2306C5.01661 3.78187 4.13697 4.66151 3.5857 5.74344C3.25036 6.40157 3.10151 7.12868 3.02959 8.00882C2.95897 8.87317 2.95898 9.9486 2.95898 11.3203L2.95898 11.3539L2.95898 33.6872L2.95898 33.7208C2.95898 35.0925 2.95897 36.1679 3.02959 37.0323C3.10151 37.9124 3.25036 38.6395 3.5857 39.2977C4.13697 40.3796 5.01661 41.2592 6.09854 41.8105C6.75667 42.1458 7.48378 42.2947 8.36392 42.3666C9.22822 42.4372 10.3036 42.4372 11.6752 42.4372L11.6752 42.4372L11.6753 42.4372L11.6753 42.4372L11.6754 42.4372L11.6754 42.4372L11.709 42.4372L32.3756 42.4372L32.4092 42.4372L32.4093 42.4372L32.4093 42.4372L32.4094 42.4372L32.4094 42.4372L32.4095 42.4372C33.7811 42.4372 34.8564 42.4372 35.7207 42.3666C36.6009 42.2947 37.328 42.1458 37.9861 41.8105C39.068 41.2592 39.9477 40.3796 40.4989 39.2977C40.8343 38.6395 40.9831 37.9124 41.055 37.0323C41.1257 36.168 41.1257 35.0926 41.1257 33.721L41.1257 33.721L41.1257 33.7209L41.1257 33.7209L41.1257 33.7208L41.1257 33.7208L41.1257 33.6872L41.1257 11.3539L41.1257 11.3203L41.1257 11.3203L41.1257 11.3202L41.1257 11.3202L41.1257 11.3201L41.1257 11.3201C41.1257 9.94847 41.1257 8.87312 41.055 8.00882C40.9831 7.12868 40.8343 6.40157 40.4989 5.74344C39.9477 4.66151 39.068 3.78187 37.9861 3.2306C37.328 2.89527 36.6009 2.74641 35.7207 2.6745C34.8564 2.60388 33.7809 2.60388 32.4092 2.60389L32.3756 2.60389L11.709 2.60389ZM6.77952 4.56711C7.19095 4.35748 7.69869 4.23385 8.48607 4.16952C9.2822 4.10447 10.2965 4.10389 11.709 4.10389L32.3756 4.10389C33.7882 4.10389 34.8024 4.10447 35.5986 4.16952C36.3859 4.23385 36.8937 4.35748 37.3051 4.56711C38.1048 4.97457 38.755 5.62474 39.1624 6.42443C39.3721 6.83586 39.4957 7.34359 39.56 8.13097C39.6251 8.92711 39.6257 9.94138 39.6257 11.3539L39.6257 33.6872C39.6257 35.0997 39.6251 36.114 39.56 36.9101C39.4957 37.6975 39.3721 38.2052 39.1624 38.6167C38.755 39.4164 38.1048 40.0665 37.3051 40.474C36.8937 40.6836 36.3859 40.8072 35.5986 40.8716C34.8024 40.9366 33.7882 40.9372 32.3756 40.9372L11.709 40.9372C10.2965 40.9372 9.2822 40.9366 8.48607 40.8716C7.69869 40.8072 7.19095 40.6836 6.77952 40.474C5.97983 40.0665 5.32967 39.4164 4.92221 38.6167C4.71257 38.2052 4.58894 37.6975 4.52461 36.9101C4.45957 36.114 4.45898 35.0997 4.45898 33.6872L4.45898 11.3539C4.45898 9.94138 4.45957 8.9271 4.52461 8.13097C4.58894 7.34359 4.71257 6.83586 4.92221 6.42443C5.32967 5.62474 5.97983 4.97457 6.77952 4.56711ZM17.293 16.7702C17.293 16.356 16.9572 16.0202 16.543 16.0202C16.1288 16.0202 15.793 16.356 15.793 16.7702L15.793 28.2702C15.793 28.6844 16.1288 29.0202 16.543 29.0202C16.9572 29.0202 17.293 28.6844 17.293 28.2702L17.293 16.7702ZM11.043 19.8539C11.4572 19.8539 11.793 20.1897 11.793 20.6039L11.793 24.4372C11.793 24.8514 11.4572 25.1872 11.043 25.1872C10.6288 25.1872 10.293 24.8514 10.293 24.4372L10.293 20.6039C10.293 20.1897 10.6288 19.8539 11.043 19.8539ZM22.793 12.9376C22.793 12.5233 22.4572 12.1876 22.043 12.1876C21.6288 12.1876 21.293 12.5233 21.293 12.9376L21.293 32.1042C21.293 32.5184 21.6288 32.8542 22.043 32.8542C22.4572 32.8542 22.793 32.5184 22.793 32.1042L22.793 12.9376ZM27.543 16.0202C27.9572 16.0202 28.293 16.356 28.293 16.7702L28.293 28.2702C28.293 28.6844 27.9572 29.0202 27.543 29.0202C27.1288 29.0202 26.793 28.6844 26.793 28.2702L26.793 16.7702C26.793 16.356 27.1288 16.0202 27.543 16.0202ZM33.793 20.6039C33.793 20.1897 33.4572 19.8539 33.043 19.8539C32.6288 19.8539 32.293 20.1897 32.293 20.6039L32.293 24.4372C32.293 24.8514 32.6288 25.1872 33.043 25.1872C33.4572 25.1872 33.793 24.8514 33.793 24.4372L33.793 20.6039Z" fill="black"/>
</svg>
