<svg width="372" height="289" viewBox="0 0 372 289" fill="none" xmlns="http://www.w3.org/2000/svg">
<rect x="0.5" y="0.162109" width="371" height="288" rx="24" fill="black"/>
<path d="M142.623 157.974L72.0564 116.965L72.6586 116.035L143.171 157.045L142.623 157.974Z" fill="#484848"/>
<path d="M313.491 250.583L242.925 208.979L243.527 208.036L314.039 249.64L313.491 250.583Z" fill="#484848"/>
<path d="M308.039 139.96L283.447 126.48L265.911 136.253L265.414 135.387L283.447 125.373L308.039 138.853L324.483 129.657L324.98 130.476L308.039 139.96Z" fill="#484848"/>
<path d="M107.025 223.839L82.6846 209.797L65.3267 219.978L64.835 219.075L82.6846 208.644L107.025 222.686L123.301 213.107L123.793 213.96L107.025 223.839Z" fill="#484848"/>
<path d="M340.93 126.652C339.505 127.474 337.148 127.474 335.723 126.652C334.244 125.83 334.244 124.46 335.723 123.638C337.148 122.815 339.505 122.815 340.93 123.638C342.355 124.46 342.355 125.83 340.93 126.652Z" fill="#484848"/>
<path d="M53.2056 225.848C51.7807 226.67 49.4241 226.67 47.9992 225.848C46.5195 225.026 46.5195 223.656 47.9992 222.833C49.4241 222.011 51.7807 222.011 53.2056 222.833C54.6306 223.656 54.6306 225.026 53.2056 225.848Z" fill="#484848"/>
<path fill-rule="evenodd" clip-rule="evenodd" d="M179.786 245.721L179.556 245.583L67.8743 181.386L68.5639 180.973L205.166 102.276L205.396 102.414L317.078 166.611L316.388 167.024L179.786 245.721ZM69.7134 181.386L179.786 244.665L315.193 166.611L205.166 103.332L69.7134 181.386Z" fill="#484848"/>
<path d="M283.648 43.3186V46.7224L305.955 59.608V56.265L283.648 43.3186Z" fill="#484848"/>
<path d="M350.204 59.2434L327.897 72.3722L327.958 136.193L350.204 123.55V59.2434Z" fill="#1C1C1C"/>
<path d="M283.648 46.7223L327.897 72.3721L327.958 136.193L283.709 110.664L283.648 46.7223Z" fill="#3D3D3D"/>
<path d="M350.265 123.367L327.958 136.192V139.535L350.265 126.589V123.367Z" fill="#484848"/>
<path d="M327.958 136.193V139.535L283.709 114.007V110.664L327.958 136.193Z" fill="#484848"/>
<path d="M327.897 68.9684L350.143 56.022L350.204 59.2434L327.897 72.3114V68.9684Z" fill="#484848"/>
<path d="M305.59 56.0826V59.4256L327.897 72.3721V68.9683L305.59 56.0826Z" fill="#484848"/>
<path d="M327.897 69.2112L283.648 43.3183L305.833 30.5542L350.143 56.0216L327.897 69.2112Z" fill="#282828"/>
<path d="M310.513 56.1432L312.519 57.3588L327.775 66.4153L343.214 57.298L345.22 56.0824L327.836 46.175L310.513 56.1432Z" fill="black"/>
<path d="M312.519 57.3587L327.775 66.4151L343.214 57.2979L327.836 48.5454L312.519 57.3587Z" fill="#161616"/>
<path d="M288.754 43.6226L290.76 44.8382L306.077 53.8339L321.454 44.7166L323.521 43.5618L306.077 33.6544L288.754 43.6226Z" fill="black"/>
<path d="M290.76 44.8378L306.077 53.8335L321.454 44.7163L306.077 36.0245L290.76 44.8378Z" fill="#161616"/>
<path d="M316.592 72.5547V82.7659L307.353 77.4172L316.288 82.5836V72.3723L316.592 72.5547Z" fill="black"/>
<path d="M316.592 72.2507V82.5228L307.353 77.1133V66.902L316.592 72.2507Z" fill="black"/>
<path d="M316.349 72.3115L307.353 67.1451V76.7486L306.806 77.0525V66.8412L316.349 72.3115Z" fill="black"/>
<path d="M316.592 81.9758V82.6444L306.927 76.9918L307.353 76.6879L316.592 81.9758Z" fill="black"/>
<path d="M316.288 72.3115L307.353 67.1451V76.8093L306.806 77.0525V66.8412L316.288 72.3115Z" fill="#484848"/>
<path d="M316.592 82.0366V82.7052L306.867 76.9918L307.353 76.7487L316.592 82.0366Z" fill="black"/>
<path d="M311.79 69.6368V79.301L311.243 79.5442V69.3329L311.79 69.6368Z" fill="#484848"/>
<path d="M310.878 68.847V79.3622L311.243 79.5446V69.3333L310.878 68.847Z" fill="black"/>
<path fill-rule="evenodd" clip-rule="evenodd" d="M316.592 72.1899V83.1305L306.441 77.2347V66.2941L316.592 72.1899ZM316.227 72.433L306.867 67.0234V77.0524L316.227 82.4619V72.433Z" fill="#606060"/>
<path d="M316.592 89.27V99.542L307.353 94.1933L316.288 99.3597V89.0876L316.592 89.27Z" fill="black"/>
<path d="M316.592 89.027V99.2991L307.353 93.8895V83.6782L316.592 89.027Z" fill="black"/>
<path d="M316.349 89.0871L307.353 83.9207V93.5242L306.806 93.8281V83.6168L316.349 89.0871Z" fill="black"/>
<path d="M316.592 98.6907V99.4201L306.927 93.7674L307.353 93.4635L316.592 98.6907Z" fill="black"/>
<path d="M316.288 89.0871L307.353 83.9207V93.5242L306.806 93.8281V83.6168L316.288 89.0871Z" fill="#484848"/>
<path d="M316.592 98.752V99.4814L306.867 93.7679L307.353 93.5248L316.592 98.752Z" fill="black"/>
<path d="M311.79 86.4129V96.0772L311.243 96.3203V86.109L311.79 86.4129Z" fill="#484848"/>
<path d="M310.878 85.6227V96.1379L311.243 96.3202V86.1089L310.878 85.6227Z" fill="black"/>
<path fill-rule="evenodd" clip-rule="evenodd" d="M316.592 88.9659V99.9065L306.441 94.0107V83.0701L316.592 88.9659ZM316.227 89.209L306.867 83.7994V93.8284L316.227 99.2379V89.209Z" fill="#606060"/>
<path d="M316.592 106.046V116.318L307.353 110.908L316.288 116.135V105.863L316.592 106.046Z" fill="black"/>
<path d="M316.592 105.742V116.014L307.353 110.665V100.393L316.592 105.742Z" fill="black"/>
<path d="M316.349 105.863L307.353 100.697V110.24L306.806 110.604V100.332L316.349 105.863Z" fill="black"/>
<path d="M316.592 115.467V116.135L306.927 110.483L307.353 110.24L316.592 115.467Z" fill="black"/>
<path d="M316.288 105.863L307.353 100.636V110.3L306.806 110.604V100.332L316.288 105.863Z" fill="#484848"/>
<path d="M316.592 115.528V116.196L306.867 110.544L307.353 110.24L316.592 115.528Z" fill="black"/>
<path d="M311.79 103.189V112.792L311.243 113.096V102.885L311.79 103.189Z" fill="#484848"/>
<path d="M310.878 102.399V112.853L311.243 113.096V102.885L310.878 102.399Z" fill="black"/>
<path fill-rule="evenodd" clip-rule="evenodd" d="M316.592 105.681V116.621L306.441 110.725V99.8456L316.592 105.681ZM316.227 105.863L306.867 100.453V110.482L316.227 115.953V105.863Z" fill="#606060"/>
<path d="M300.789 62.9513V73.345L297.324 71.2784V60.8848L300.789 62.9513Z" fill="black"/>
<path d="M297.385 61.1887V70.9137L296.777 71.2176V60.824L297.385 61.1887Z" fill="black"/>
<path d="M300.788 72.8587V73.4665L296.898 71.1568L297.385 70.8529L300.788 72.8587Z" fill="black"/>
<path d="M297.324 61.1887V70.9137L296.777 71.2176V60.824L297.324 61.1887Z" fill="#484848"/>
<path d="M300.788 72.919V73.5268L296.838 71.1563L297.324 70.9132L300.788 72.919Z" fill="black"/>
<path fill-rule="evenodd" clip-rule="evenodd" d="M301.275 63.1941V74.1956L296.473 71.3996V60.3982L301.275 63.1941ZM300.728 63.2549L296.777 60.9452V71.1565L300.728 73.4054V63.2549Z" fill="#606060"/>
<path d="M300.789 79.7266V90.1202L297.324 88.0537V77.66L300.789 79.7266Z" fill="black"/>
<path d="M297.385 77.9644V87.6894L296.838 87.9934V77.5997L297.385 77.9644Z" fill="black"/>
<path d="M300.788 89.634V90.2418L296.898 87.9321L297.385 87.6282L300.788 89.634Z" fill="black"/>
<path d="M297.324 77.9644V87.6894L296.777 87.9934V77.5997L297.324 77.9644Z" fill="#484848"/>
<path d="M300.788 89.6943V90.3021L296.898 87.9316L297.324 87.6885L300.788 89.6943Z" fill="black"/>
<path fill-rule="evenodd" clip-rule="evenodd" d="M301.335 79.9698V90.9712L296.473 88.1753V77.1738L301.335 79.9698ZM300.788 80.0306L296.898 77.7816V87.9321L300.788 90.2418V80.0306Z" fill="#606060"/>
<path d="M300.789 96.5021V106.896L297.324 104.829V94.4355L300.789 96.5021Z" fill="black"/>
<path d="M297.385 94.7401V104.404L296.838 104.769V94.3754L297.385 94.7401Z" fill="black"/>
<path d="M300.788 106.41V107.018L296.898 104.708L297.385 104.404L300.788 106.41Z" fill="black"/>
<path d="M297.324 94.7401V104.465L296.777 104.769V94.3754L297.324 94.7401Z" fill="#484848"/>
<path d="M300.788 106.47V107.078L296.898 104.708L297.324 104.465L300.788 106.47Z" fill="black"/>
<path fill-rule="evenodd" clip-rule="evenodd" d="M301.335 96.7458V107.747L296.473 104.951V93.9498L301.335 96.7458ZM300.788 96.8066L296.898 94.4969V104.708L300.788 106.957V96.8066Z" fill="#606060"/>
<path d="M290.881 104.465L295.197 101.973V105.985L290.881 108.537V104.465Z" fill="#1C1C1C"/>
<path d="M295.197 101.973L294.163 101.365L290.76 103.31L290.881 104.465L295.197 101.973Z" fill="#484848"/>
<path d="M300.728 109.085L304.131 107.14V112.914L300.728 114.92V109.085Z" fill="#1C1C1C"/>
<path d="M300.728 109.084L290.76 103.31V109.145L300.728 114.919V109.084Z" fill="#2D2D2D"/>
<path d="M290.76 103.31L291.732 102.763L301.7 108.537L300.728 109.084L290.76 103.31Z" fill="#484848"/>
<path d="M304.131 107.14L303.098 106.471L299.694 108.477L300.728 109.085L304.131 107.14Z" fill="#484848"/>
<path d="M290.881 87.7496L295.257 85.1968V89.2084L290.881 91.7612V87.7496Z" fill="#1C1C1C"/>
<path d="M295.257 85.1972L294.163 84.5894L290.76 86.5344L290.881 87.75L295.257 85.1972Z" fill="#484848"/>
<path d="M300.788 92.3087L304.131 90.3636L304.192 96.1379L300.788 98.1437V92.3087Z" fill="#1C1C1C"/>
<path d="M300.788 92.3079L290.76 86.5337V92.3687L300.788 98.1429V92.3079Z" fill="#2D2D2D"/>
<path d="M290.76 86.5342L291.732 85.9872L301.7 91.7614L300.788 92.3085L290.76 86.5342Z" fill="#484848"/>
<path d="M304.131 90.3634L303.098 89.7556L299.694 91.7006L300.788 92.3084L304.131 90.3634Z" fill="#484848"/>
<path d="M290.881 70.9742L295.257 68.4214V72.433L290.881 74.9858V70.9742Z" fill="#1C1C1C"/>
<path d="M295.257 68.4213L294.163 67.8135L290.76 69.7585L290.881 70.9741L295.257 68.4213Z" fill="#484848"/>
<path d="M300.788 75.5325L304.131 73.5875L304.192 79.3618L300.788 81.3675V75.5325Z" fill="#1C1C1C"/>
<path d="M300.788 75.5328L290.76 69.7585V75.5936L300.788 81.3678V75.5328Z" fill="#2D2D2D"/>
<path d="M290.76 69.7582L291.732 69.2112L301.7 74.9854L300.788 75.5325L290.76 69.7582Z" fill="#484848"/>
<path d="M304.131 73.5879L303.098 72.9801L299.694 74.9251L300.788 75.5329L304.131 73.5879Z" fill="#484848"/>
<path d="M334.34 75.2898V85.5618L343.579 80.1523L334.644 85.3187V75.1074L334.34 75.2898Z" fill="black"/>
<path d="M334.34 74.9858V85.2579L343.579 79.8484V69.6371L334.34 74.9858Z" fill="black"/>
<path d="M334.583 75.0466L343.579 69.8802V79.4837L344.126 79.7876V69.5763L334.583 75.0466Z" fill="black"/>
<path d="M334.34 84.711V85.3796L344.004 79.7269L343.579 79.4838L334.34 84.711Z" fill="black"/>
<path d="M334.644 75.0466L343.579 69.8802V79.5444L344.126 79.7876V69.5763L334.644 75.0466Z" fill="#484848"/>
<path d="M334.34 84.7717V85.4403L344.065 79.7877L343.579 79.4838L334.34 84.7717Z" fill="black"/>
<path d="M339.142 72.4332V82.0366L339.689 82.3405V72.0685L339.142 72.4332Z" fill="#484848"/>
<path d="M340.053 71.6429V82.0974L339.689 82.3405V72.0684L340.053 71.6429Z" fill="black"/>
<path fill-rule="evenodd" clip-rule="evenodd" d="M344.49 69.0897V79.9696L334.34 85.8654V74.9247L344.49 69.0897ZM334.705 85.2576L344.065 79.7873V69.7583L334.705 75.1679V85.2576Z" fill="#606060"/>
<path d="M334.34 92.0659V102.338L343.579 96.9284L334.644 102.095V91.8835L334.34 92.0659Z" fill="black"/>
<path d="M334.34 91.7615V102.034L343.579 96.624V86.4127L334.34 91.7615Z" fill="black"/>
<path d="M334.583 91.8227L343.579 86.6563V96.2598L344.126 96.5637V86.3524L334.583 91.8227Z" fill="black"/>
<path d="M334.34 101.487V102.156L344.004 96.503L343.579 96.2599L334.34 101.487Z" fill="black"/>
<path d="M334.644 91.8227L343.579 86.6563V96.3206L344.126 96.5637V86.3524L334.644 91.8227Z" fill="#484848"/>
<path d="M334.34 101.548V102.216L344.065 96.503L343.579 96.2599L334.34 101.548Z" fill="black"/>
<path d="M339.142 89.2088V98.8123L339.689 99.1162V88.8441L339.142 89.2088Z" fill="#484848"/>
<path d="M340.053 88.3578V98.873L339.689 99.1161V88.844L340.053 88.3578Z" fill="black"/>
<path fill-rule="evenodd" clip-rule="evenodd" d="M344.49 85.8052V96.7458L334.34 102.642V91.701L344.49 85.8052ZM334.705 101.973L344.065 96.5027V86.4738L334.705 91.8833V101.973Z" fill="#606060"/>
<path d="M334.34 108.781V119.053L343.579 113.704L334.644 118.87V108.598L334.34 108.781Z" fill="black"/>
<path d="M334.34 108.538V118.749L343.579 113.4V103.128L334.34 108.538Z" fill="black"/>
<path d="M334.583 108.598L343.579 103.432V112.975L344.126 113.339V103.067L334.583 108.598Z" fill="black"/>
<path d="M334.34 118.202V118.931L344.004 113.279L343.579 112.975L334.34 118.202Z" fill="black"/>
<path d="M334.644 108.598L343.579 103.432V113.035L344.126 113.339V103.067L334.644 108.598Z" fill="#484848"/>
<path d="M334.34 118.263V118.992L344.065 113.279L343.579 112.975L334.34 118.263Z" fill="black"/>
<path d="M339.142 105.924V115.588L339.689 115.831V105.62L339.142 105.924Z" fill="#484848"/>
<path d="M340.053 105.134V115.649L339.689 115.831V105.62L340.053 105.134Z" fill="black"/>
<path fill-rule="evenodd" clip-rule="evenodd" d="M344.49 102.581V113.521L334.34 119.417V108.476L344.49 102.581ZM334.705 118.688L344.065 113.278V103.189L334.705 108.598V118.688Z" fill="#606060"/>
<path d="M31.4053 163.058V166.462L53.7121 179.348V176.005L31.4053 163.058Z" fill="#484848"/>
<path d="M97.9611 178.983L75.6543 192.112L75.7151 255.932L97.9611 243.29V178.983Z" fill="#1C1C1C"/>
<path d="M31.4053 166.462L75.6541 192.111L75.7149 255.932L31.466 230.404L31.4053 166.462Z" fill="#3D3D3D"/>
<path d="M98.0219 243.107L75.7151 255.932V259.275L98.0219 246.329V243.107Z" fill="#484848"/>
<path d="M75.7149 255.932V259.275L31.4661 233.747V230.404L75.7149 255.932Z" fill="#484848"/>
<path d="M75.6543 188.708L97.9003 175.761L97.9611 178.983L75.6543 192.051V188.708Z" fill="#484848"/>
<path d="M53.3474 175.822V179.165L75.6542 192.111V188.708L53.3474 175.822Z" fill="#484848"/>
<path d="M75.6541 188.951L31.4053 163.058L53.5905 150.294L97.9001 175.761L75.6541 188.951Z" fill="#282828"/>
<path d="M58.2708 175.883L60.2765 177.099L75.5327 186.155L90.9711 177.038L92.9769 175.822L75.5935 165.915L58.2708 175.883Z" fill="black"/>
<path d="M60.2764 177.098L75.5325 186.155L90.971 177.038L75.5933 168.285L60.2764 177.098Z" fill="#161616"/>
<path d="M36.5107 163.362L38.5166 164.578L53.8334 173.573L69.2112 164.456L71.2777 163.301L53.8334 153.394L36.5107 163.362Z" fill="black"/>
<path d="M38.5166 164.578L53.8335 173.573L69.2112 164.456L53.8335 155.765L38.5166 164.578Z" fill="#161616"/>
<path d="M64.3489 192.294V202.506L55.1101 197.157L64.045 202.323V192.112L64.3489 192.294Z" fill="black"/>
<path d="M64.3489 191.99V202.263L55.1101 196.853V186.642L64.3489 191.99Z" fill="black"/>
<path d="M64.1057 192.051L55.11 186.885V196.488L54.563 196.792V186.581L64.1057 192.051Z" fill="black"/>
<path d="M64.3488 201.716V202.384L54.6846 196.732L55.11 196.428L64.3488 201.716Z" fill="black"/>
<path d="M64.0449 192.051L55.11 186.885V196.549L54.563 196.792V186.581L64.0449 192.051Z" fill="#484848"/>
<path d="M64.3488 201.776V202.445L54.6238 196.732L55.11 196.488L64.3488 201.776Z" fill="black"/>
<path d="M59.547 189.377V199.041L59 199.284V189.073L59.547 189.377Z" fill="#484848"/>
<path d="M58.6355 188.587V199.102L59.0002 199.284V189.073L58.6355 188.587Z" fill="black"/>
<path fill-rule="evenodd" clip-rule="evenodd" d="M64.3487 191.929V202.87L54.1982 196.974V186.034L64.3487 191.929ZM63.984 192.173L54.6237 186.763V196.792L63.984 202.202V192.173Z" fill="#606060"/>
<path d="M64.3489 209.009V219.281L55.1101 213.933L64.045 219.099V208.827L64.3489 209.009Z" fill="black"/>
<path d="M64.3489 208.766V219.038L55.1101 213.629V203.417L64.3489 208.766Z" fill="black"/>
<path d="M64.1057 208.827L55.11 203.661V213.264L54.563 213.568V203.357L64.1057 208.827Z" fill="black"/>
<path d="M64.3488 218.431V219.16L54.6846 213.508L55.11 213.204L64.3488 218.431Z" fill="black"/>
<path d="M64.0449 208.827L55.11 203.661V213.264L54.563 213.568V203.357L64.0449 208.827Z" fill="#484848"/>
<path d="M64.3488 218.492V219.221L54.6238 213.508L55.11 213.265L64.3488 218.492Z" fill="black"/>
<path d="M59.547 206.153V215.817L59 216.06V205.849L59.547 206.153Z" fill="#484848"/>
<path d="M58.6355 205.363V215.878L59.0002 216.061V205.849L58.6355 205.363Z" fill="black"/>
<path fill-rule="evenodd" clip-rule="evenodd" d="M64.3487 208.706V219.646L54.1982 213.75V202.81L64.3487 208.706ZM63.984 208.949L54.6237 203.539V213.568L63.984 218.978V208.949Z" fill="#606060"/>
<path d="M64.3489 225.785V236.057L55.1101 230.647L64.045 235.875V225.603L64.3489 225.785Z" fill="black"/>
<path d="M64.3489 225.481V235.753L55.1101 230.404V220.132L64.3489 225.481Z" fill="black"/>
<path d="M64.1057 225.603L55.11 220.436V229.979L54.563 230.344V220.072L64.1057 225.603Z" fill="black"/>
<path d="M64.3488 235.206V235.875L54.6846 230.222L55.11 229.979L64.3488 235.206Z" fill="black"/>
<path d="M64.0449 225.603L55.11 220.375V230.04L54.563 230.344V220.072L64.0449 225.603Z" fill="#484848"/>
<path d="M64.3488 235.267V235.936L54.6238 230.283L55.11 229.979L64.3488 235.267Z" fill="black"/>
<path d="M59.547 222.928V232.532L59 232.836V222.625L59.547 222.928Z" fill="#484848"/>
<path d="M58.6355 222.138V232.593L59.0002 232.836V222.624L58.6355 222.138Z" fill="black"/>
<path fill-rule="evenodd" clip-rule="evenodd" d="M64.3487 225.42V236.361L54.1982 230.465V219.585L64.3487 225.42ZM63.984 225.603L54.6237 220.193V230.222L63.984 235.692V225.603Z" fill="#606060"/>
<path d="M48.5458 182.691V193.085L45.0813 191.018V180.624L48.5458 182.691Z" fill="black"/>
<path d="M45.1417 180.928V190.653L44.5339 190.957V180.564L45.1417 180.928Z" fill="black"/>
<path d="M48.5458 192.598V193.206L44.6558 190.897L45.142 190.593L48.5458 192.598Z" fill="black"/>
<path d="M45.081 180.928V190.653L44.5339 190.957V180.564L45.081 180.928Z" fill="#484848"/>
<path d="M48.5455 192.659V193.267L44.5947 190.897L45.081 190.653L48.5455 192.659Z" fill="black"/>
<path fill-rule="evenodd" clip-rule="evenodd" d="M49.0317 182.934V193.935L44.23 191.139V180.138L49.0317 182.934ZM48.4847 182.995L44.5339 180.685V190.896L48.4847 193.145V182.995Z" fill="#606060"/>
<path d="M48.5458 199.466V209.86L45.0813 207.793V197.4L48.5458 199.466Z" fill="black"/>
<path d="M45.1417 197.704V207.429L44.5947 207.733V197.339L45.1417 197.704Z" fill="black"/>
<path d="M48.5458 209.374V209.982L44.6558 207.672L45.142 207.369L48.5458 209.374Z" fill="black"/>
<path d="M45.081 197.704V207.429L44.5339 207.733V197.339L45.081 197.704Z" fill="#484848"/>
<path d="M48.5458 209.435V210.042L44.6558 207.672L45.0812 207.429L48.5458 209.435Z" fill="black"/>
<path fill-rule="evenodd" clip-rule="evenodd" d="M49.0925 199.71V210.711L44.23 207.916V196.914L49.0925 199.71ZM48.5455 199.771L44.6555 197.522V207.672L48.5455 209.982V199.771Z" fill="#606060"/>
<path d="M48.5458 216.243V226.636L45.0813 224.57V214.176L48.5458 216.243Z" fill="black"/>
<path d="M45.1417 214.48V224.144L44.5947 224.509V214.115L45.1417 214.48Z" fill="black"/>
<path d="M48.5458 226.15V226.758L44.6558 224.448L45.142 224.144L48.5458 226.15Z" fill="black"/>
<path d="M45.081 214.48V224.205L44.5339 224.509V214.115L45.081 214.48Z" fill="#484848"/>
<path d="M48.5458 226.21V226.818L44.6558 224.448L45.0812 224.204L48.5458 226.21Z" fill="black"/>
<path fill-rule="evenodd" clip-rule="evenodd" d="M49.0925 216.486V227.487L44.23 224.691V213.69L49.0925 216.486ZM48.5455 216.546L44.6555 214.237V224.448L48.5455 226.697V216.546Z" fill="#606060"/>
<path d="M38.6382 224.205L42.9537 221.713V225.724L38.6382 228.277V224.205Z" fill="#1C1C1C"/>
<path d="M42.9536 221.712L41.9203 221.105L38.5166 223.05L38.6381 224.204L42.9536 221.712Z" fill="#484848"/>
<path d="M48.4849 228.824L51.8886 226.879V232.653L48.4849 234.659V228.824Z" fill="#1C1C1C"/>
<path d="M48.4847 228.824L38.5166 223.05V228.885L48.4847 234.659V228.824Z" fill="#2D2D2D"/>
<path d="M38.5166 223.05L39.4891 222.503L49.4573 228.277L48.4847 228.824L38.5166 223.05Z" fill="#484848"/>
<path d="M51.8887 226.879L50.8554 226.211L47.4517 228.217L48.485 228.824L51.8887 226.879Z" fill="#484848"/>
<path d="M38.6382 207.49L43.0145 204.937V208.949L38.6382 211.502V207.49Z" fill="#1C1C1C"/>
<path d="M43.0144 204.937L41.9203 204.329L38.5166 206.274L38.6381 207.49L43.0144 204.937Z" fill="#484848"/>
<path d="M48.5457 212.048L51.8886 210.103L51.9494 215.878L48.5457 217.883V212.048Z" fill="#1C1C1C"/>
<path d="M48.5455 212.048L38.5166 206.274V212.109L48.5455 217.883V212.048Z" fill="#2D2D2D"/>
<path d="M38.5166 206.274L39.4891 205.727L49.4573 211.501L48.5455 212.048L38.5166 206.274Z" fill="#484848"/>
<path d="M51.8887 210.103L50.8554 209.495L47.4517 211.44L48.5458 212.048L51.8887 210.103Z" fill="#484848"/>
<path d="M38.6382 190.714L43.0145 188.161V192.173L38.6382 194.725V190.714Z" fill="#1C1C1C"/>
<path d="M43.0144 188.161L41.9203 187.553L38.5166 189.498L38.6381 190.714L43.0144 188.161Z" fill="#484848"/>
<path d="M48.5457 195.272L51.8886 193.327L51.9494 199.102L48.5457 201.107V195.272Z" fill="#1C1C1C"/>
<path d="M48.5455 195.272L38.5166 189.498V195.333L48.5455 201.107V195.272Z" fill="#2D2D2D"/>
<path d="M38.5166 189.498L39.4891 188.951L49.4573 194.726L48.5455 195.273L38.5166 189.498Z" fill="#484848"/>
<path d="M51.8887 193.328L50.8554 192.72L47.4517 194.665L48.5458 195.273L51.8887 193.328Z" fill="#484848"/>
<path d="M82.0969 195.029V205.301L91.3357 199.891L82.4008 205.058V194.847L82.0969 195.029Z" fill="black"/>
<path d="M82.0969 194.725V204.997L91.3357 199.588V189.376L82.0969 194.725Z" fill="black"/>
<path d="M82.3401 194.786L91.3357 189.619V199.223L91.8828 199.527V189.316L82.3401 194.786Z" fill="black"/>
<path d="M82.0969 204.45V205.119L91.7612 199.466L91.3357 199.223L82.0969 204.45Z" fill="black"/>
<path d="M82.4009 194.786L91.3358 189.619V199.284L91.8828 199.527V189.316L82.4009 194.786Z" fill="#484848"/>
<path d="M82.0969 204.511V205.18L91.822 199.527L91.3357 199.223L82.0969 204.511Z" fill="black"/>
<path d="M86.8989 192.172V201.776L87.446 202.08V191.808L86.8989 192.172Z" fill="#484848"/>
<path d="M87.8105 191.382V201.837L87.4458 202.08V191.808L87.8105 191.382Z" fill="black"/>
<path fill-rule="evenodd" clip-rule="evenodd" d="M92.2474 188.829V199.709L82.0969 205.605V194.664L92.2474 188.829ZM82.4616 204.997L91.822 199.527V189.498L82.4616 194.907V204.997Z" fill="#606060"/>
<path d="M82.0969 211.805V222.077L91.3357 216.667L82.4008 221.833V211.622L82.0969 211.805Z" fill="black"/>
<path d="M82.0969 211.501V221.773L91.3357 216.363V206.152L82.0969 211.501Z" fill="black"/>
<path d="M82.3401 211.562L91.3357 206.395V215.999L91.8828 216.302V206.091L82.3401 211.562Z" fill="black"/>
<path d="M82.0969 221.226V221.894L91.7612 216.242L91.3357 215.999L82.0969 221.226Z" fill="black"/>
<path d="M82.4009 211.562L91.3358 206.395V216.059L91.8828 216.302V206.091L82.4009 211.562Z" fill="#484848"/>
<path d="M82.0969 221.287V221.955L91.822 216.242L91.3357 215.999L82.0969 221.287Z" fill="black"/>
<path d="M86.8989 208.948V218.552L87.446 218.855V208.583L86.8989 208.948Z" fill="#484848"/>
<path d="M87.8105 208.098V218.613L87.4458 218.856V208.584L87.8105 208.098Z" fill="black"/>
<path fill-rule="evenodd" clip-rule="evenodd" d="M92.2474 205.544V216.484L82.0969 222.38V211.44L92.2474 205.544ZM82.4616 221.712L91.822 216.241V206.212L82.4616 211.622V221.712Z" fill="#606060"/>
<path d="M82.0969 228.52V238.792L91.3357 233.443L82.4008 238.609V228.337L82.0969 228.52Z" fill="black"/>
<path d="M82.0969 228.276V238.488L91.3357 233.139V222.867L82.0969 228.276Z" fill="black"/>
<path d="M82.3401 228.337L91.3357 223.171V232.714L91.8828 233.078V222.806L82.3401 228.337Z" fill="black"/>
<path d="M82.0969 237.941V238.67L91.7612 233.018L91.3357 232.714L82.0969 237.941Z" fill="black"/>
<path d="M82.4009 228.337L91.3358 223.171V232.774L91.8828 233.078V222.806L82.4009 228.337Z" fill="#484848"/>
<path d="M82.0969 238.002V238.731L91.822 233.018L91.3357 232.714L82.0969 238.002Z" fill="black"/>
<path d="M86.8989 225.663V235.327L87.446 235.57V225.359L86.8989 225.663Z" fill="#484848"/>
<path d="M87.8105 224.873V235.388L87.4458 235.57V225.359L87.8105 224.873Z" fill="black"/>
<path fill-rule="evenodd" clip-rule="evenodd" d="M92.2474 222.32V233.261L82.0969 239.156V228.216L92.2474 222.32ZM82.4616 238.427L91.822 233.017V222.928L82.4616 228.337V238.427Z" fill="#606060"/>
<path d="M21 32.7639V36.1677L43.3068 49.0533V45.7104L21 32.7639Z" fill="#484848"/>
<path d="M87.5556 48.6887L65.2488 61.8175L65.3095 125.638L87.5556 112.995V48.6887Z" fill="#1C1C1C"/>
<path d="M21 36.1675L65.2489 61.8172L65.3096 125.638L21.0608 100.11L21 36.1675Z" fill="#3D3D3D"/>
<path d="M87.6164 112.813L65.3096 125.638V128.981L87.6164 116.035V112.813Z" fill="#484848"/>
<path d="M65.3097 125.638V128.981L21.0608 103.453V100.11L65.3097 125.638Z" fill="#484848"/>
<path d="M65.249 58.4142L87.495 45.4678L87.5558 48.6892L65.249 61.7572V58.4142Z" fill="#484848"/>
<path d="M42.9421 45.5286V48.8715L65.2489 61.818V58.4142L42.9421 45.5286Z" fill="#484848"/>
<path d="M65.2489 58.657L21 32.7641L43.1852 20L87.4949 45.4674L65.2489 58.657Z" fill="#282828"/>
<path d="M47.8652 45.589L49.871 46.8046L65.1271 55.8611L80.5656 46.7438L82.5714 45.5282L65.1879 35.6208L47.8652 45.589Z" fill="black"/>
<path d="M49.8711 46.8045L65.1272 55.8609L80.5657 46.7437L65.188 37.9912L49.8711 46.8045Z" fill="#161616"/>
<path d="M26.1055 33.0678L28.1113 34.2834L43.4282 43.279L58.8059 34.1618L60.8724 33.007L43.4282 23.0996L26.1055 33.0678Z" fill="black"/>
<path d="M28.1116 34.2835L43.4285 43.2792L58.8062 34.162L43.4285 25.4702L28.1116 34.2835Z" fill="#161616"/>
<path d="M53.9434 62.0005V72.2117L44.7046 66.863L53.6395 72.0294V61.8181L53.9434 62.0005Z" fill="black"/>
<path d="M53.9434 61.6965V71.9686L44.7046 66.5591V56.3478L53.9434 61.6965Z" fill="black"/>
<path d="M53.7004 61.7573L44.7048 56.5909V66.1944L44.1577 66.4983V56.287L53.7004 61.7573Z" fill="black"/>
<path d="M53.9436 71.4216V72.0902L44.2793 66.4376L44.7048 66.1337L53.9436 71.4216Z" fill="black"/>
<path d="M53.6396 61.7573L44.7048 56.5909V66.2551L44.1577 66.4983V56.287L53.6396 61.7573Z" fill="#484848"/>
<path d="M53.9435 71.4824V72.151L44.2185 66.4376L44.7047 66.1945L53.9435 71.4824Z" fill="black"/>
<path d="M49.1418 59.0826V68.7468L48.5947 68.99V58.7787L49.1418 59.0826Z" fill="#484848"/>
<path d="M48.2302 58.2924V68.8075L48.5949 68.9899V58.7786L48.2302 58.2924Z" fill="black"/>
<path fill-rule="evenodd" clip-rule="evenodd" d="M53.9435 61.6357V72.5763L43.793 66.6805V55.7399L53.9435 61.6357ZM53.5788 61.8788L44.2184 56.4692V66.4982L53.5788 71.9077V61.8788Z" fill="#606060"/>
<path d="M53.9434 78.7152V88.9872L44.7046 83.6385L53.6395 88.8049V78.5328L53.9434 78.7152Z" fill="black"/>
<path d="M53.9434 78.4722V88.7442L44.7046 83.3347V73.1234L53.9434 78.4722Z" fill="black"/>
<path d="M53.7004 78.533L44.7048 73.3665V82.97L44.1577 83.2739V73.0626L53.7004 78.533Z" fill="black"/>
<path d="M53.9436 88.1365V88.8659L44.2793 83.2132L44.7048 82.9093L53.9436 88.1365Z" fill="black"/>
<path d="M53.6396 78.533L44.7048 73.3665V82.97L44.1577 83.2739V73.0626L53.6396 78.533Z" fill="#484848"/>
<path d="M53.9435 88.1973V88.9267L44.2185 83.2132L44.7047 82.9701L53.9435 88.1973Z" fill="black"/>
<path d="M49.1418 75.8582V85.5225L48.5947 85.7656V75.5543L49.1418 75.8582Z" fill="#484848"/>
<path d="M48.2302 75.0685V85.5837L48.5949 85.766V75.5547L48.2302 75.0685Z" fill="black"/>
<path fill-rule="evenodd" clip-rule="evenodd" d="M53.9435 78.4112V89.3518L43.793 83.456V72.5154L53.9435 78.4112ZM53.5788 78.6543L44.2184 73.2448V83.2737L53.5788 88.6832V78.6543Z" fill="#606060"/>
<path d="M53.9434 95.4908V105.763L44.7046 100.353L53.6395 105.581V95.3085L53.9434 95.4908Z" fill="black"/>
<path d="M53.9434 95.187V105.459L44.7046 100.11V89.8383L53.9434 95.187Z" fill="black"/>
<path d="M53.7004 95.3086L44.7048 90.1421V99.6848L44.1577 100.05V89.7775L53.7004 95.3086Z" fill="black"/>
<path d="M53.9436 104.912V105.581L44.2793 99.9281L44.7048 99.6849L53.9436 104.912Z" fill="black"/>
<path d="M53.6396 95.3086L44.7048 90.0814V99.7456L44.1577 100.05V89.7775L53.6396 95.3086Z" fill="#484848"/>
<path d="M53.9435 104.973V105.642L44.2185 99.9888L44.7047 99.6849L53.9435 104.973Z" fill="black"/>
<path d="M49.1418 92.6344V102.238L48.5947 102.542V92.3304L49.1418 92.6344Z" fill="#484848"/>
<path d="M48.2302 91.8441V102.299L48.5949 102.542V92.3304L48.2302 91.8441Z" fill="black"/>
<path fill-rule="evenodd" clip-rule="evenodd" d="M53.9435 95.1264V106.067L43.793 100.171V89.2914L53.9435 95.1264ZM53.5788 95.3087L44.2184 89.8992V99.9281L53.5788 105.398V95.3087Z" fill="#606060"/>
<path d="M38.1403 52.3965V62.7901L34.6758 60.7236V50.33L38.1403 52.3965Z" fill="black"/>
<path d="M34.7365 50.6345V60.3595L34.1287 60.6634V50.2698L34.7365 50.6345Z" fill="black"/>
<path d="M38.1403 62.304V62.9118L34.2502 60.6021L34.7365 60.2982L38.1403 62.304Z" fill="black"/>
<path d="M34.6757 50.6345V60.3595L34.1287 60.6634V50.2698L34.6757 50.6345Z" fill="#484848"/>
<path d="M38.1402 62.3648V62.9726L34.1895 60.6021L34.6757 60.359L38.1402 62.3648Z" fill="black"/>
<path fill-rule="evenodd" clip-rule="evenodd" d="M38.6267 52.6399V63.6414L33.825 60.8454V49.844L38.6267 52.6399ZM38.0797 52.7007L34.1289 50.391V60.6023L38.0797 62.8512V52.7007Z" fill="#606060"/>
<path d="M38.1403 69.1718V79.5654L34.6758 77.4988V67.1052L38.1403 69.1718Z" fill="black"/>
<path d="M34.7365 67.4097V77.1348L34.1895 77.4387V67.045L34.7365 67.4097Z" fill="black"/>
<path d="M38.1403 79.0798V79.6876L34.2502 77.3779L34.7365 77.074L38.1403 79.0798Z" fill="black"/>
<path d="M34.6757 67.4097V77.1348L34.1287 77.4387V67.045L34.6757 67.4097Z" fill="#484848"/>
<path d="M38.1403 79.1401V79.7479L34.2502 77.3774L34.6757 77.1343L38.1403 79.1401Z" fill="black"/>
<path fill-rule="evenodd" clip-rule="evenodd" d="M38.6875 69.4156V80.417L33.825 77.6211V66.6196L38.6875 69.4156ZM38.1405 69.4764L34.2504 67.2274V77.3779L38.1405 79.6876V69.4764Z" fill="#606060"/>
<path d="M38.1403 85.9479V96.3415L34.6758 94.275V83.8813L38.1403 85.9479Z" fill="black"/>
<path d="M34.7365 84.1859V93.8501L34.1895 94.2148V83.8212L34.7365 84.1859Z" fill="black"/>
<path d="M38.1403 95.8554V96.4632L34.2502 94.1535L34.7365 93.8496L38.1403 95.8554Z" fill="black"/>
<path d="M34.6757 84.1859V93.9109L34.1287 94.2148V83.8212L34.6757 84.1859Z" fill="#484848"/>
<path d="M38.1403 95.9162V96.524L34.2502 94.1535L34.6757 93.9104L38.1403 95.9162Z" fill="black"/>
<path fill-rule="evenodd" clip-rule="evenodd" d="M38.6875 86.1911V97.1925L33.825 94.3966V83.3951L38.6875 86.1911ZM38.1405 86.2519L34.2504 83.9422V94.1535L38.1405 96.4024V86.2519Z" fill="#606060"/>
<path d="M28.2332 93.9109L32.5487 91.4188V95.4304L28.2332 97.9832V93.9109Z" fill="#1C1C1C"/>
<path d="M32.5486 91.4185L31.5153 90.8107L28.1116 92.7557L28.2331 93.9105L32.5486 91.4185Z" fill="#484848"/>
<path d="M38.0796 98.53L41.4834 96.585V102.359L38.0796 104.365V98.53Z" fill="#1C1C1C"/>
<path d="M38.0797 98.5301L28.1116 92.7559V98.5909L38.0797 104.365V98.5301Z" fill="#2D2D2D"/>
<path d="M28.1116 92.7556L29.0841 92.2086L39.0522 97.9829L38.0797 98.5299L28.1116 92.7556Z" fill="#484848"/>
<path d="M41.4832 96.5849L40.4499 95.9163L37.0461 97.922L38.0794 98.5299L41.4832 96.5849Z" fill="#484848"/>
<path d="M28.2332 77.1954L32.6094 74.6426V78.6542L28.2332 81.207V77.1954Z" fill="#1C1C1C"/>
<path d="M32.6094 74.643L31.5153 74.0352L28.1116 75.9802L28.2331 77.1958L32.6094 74.643Z" fill="#484848"/>
<path d="M38.1404 81.7545L41.4834 79.8094L41.5441 85.5837L38.1404 87.5895V81.7545Z" fill="#1C1C1C"/>
<path d="M38.1405 81.7537L28.1116 75.9795V81.8145L38.1405 87.5887V81.7537Z" fill="#2D2D2D"/>
<path d="M28.1116 75.9795L29.0841 75.4325L39.0522 81.2067L38.1405 81.7538L28.1116 75.9795Z" fill="#484848"/>
<path d="M41.4832 79.8092L40.4499 79.2014L37.0461 81.1464L38.1402 81.7542L41.4832 79.8092Z" fill="#484848"/>
<path d="M28.2332 60.42L32.6094 57.8672V61.8788L28.2332 64.4316V60.42Z" fill="#1C1C1C"/>
<path d="M32.6094 57.8671L31.5153 57.2593L28.1116 59.2043L28.2331 60.4199L32.6094 57.8671Z" fill="#484848"/>
<path d="M38.1404 64.9783L41.4834 63.0333L41.5441 68.8076L38.1404 70.8133V64.9783Z" fill="#1C1C1C"/>
<path d="M38.1405 64.9781L28.1116 59.2039V65.0389L38.1405 70.8131V64.9781Z" fill="#2D2D2D"/>
<path d="M28.1116 59.204L29.0841 58.657L39.0522 64.4312L38.1405 64.9783L28.1116 59.204Z" fill="#484848"/>
<path d="M41.4832 63.0337L40.4499 62.4259L37.0461 64.3709L38.1402 64.9787L41.4832 63.0337Z" fill="#484848"/>
<path d="M71.6919 64.7356V75.0076L80.9307 69.5981L71.9958 74.7645V64.5532L71.6919 64.7356Z" fill="black"/>
<path d="M71.6919 64.4316V74.7037L80.9307 69.2942V59.0829L71.6919 64.4316Z" fill="black"/>
<path d="M71.9351 64.4924L80.9307 59.326V68.9295L81.4777 69.2334V59.0221L71.9351 64.4924Z" fill="black"/>
<path d="M71.6919 74.1568V74.8254L81.3562 69.1727L80.9307 68.9296L71.6919 74.1568Z" fill="black"/>
<path d="M71.9958 64.4924L80.9307 59.326V68.9902L81.4778 69.2334V59.0221L71.9958 64.4924Z" fill="#484848"/>
<path d="M71.6919 74.2175V74.8861L81.4169 69.2335L80.9307 68.9296L71.6919 74.2175Z" fill="black"/>
<path d="M76.4937 61.8785V71.4819L77.0407 71.7858V61.5138L76.4937 61.8785Z" fill="#484848"/>
<path d="M77.4052 61.0887V71.5432L77.0405 71.7863V61.5142L77.4052 61.0887Z" fill="black"/>
<path fill-rule="evenodd" clip-rule="evenodd" d="M81.8424 58.5355V69.4154L71.6919 75.3112V64.3705L81.8424 58.5355ZM72.0566 74.7034L81.4169 69.2331V59.2041L72.0566 64.6137V74.7034Z" fill="#606060"/>
<path d="M71.6919 81.5111V91.7831L80.9307 86.3736L71.9958 91.54V81.3287L71.6919 81.5111Z" fill="black"/>
<path d="M71.6919 81.2073V91.4793L80.9307 86.0698V75.8585L71.6919 81.2073Z" fill="black"/>
<path d="M71.9351 81.2681L80.9307 76.1016V85.7051L81.4777 86.009V75.7977L71.9351 81.2681Z" fill="black"/>
<path d="M71.6919 90.9324V91.601L81.3562 85.9483L80.9307 85.7052L71.6919 90.9324Z" fill="black"/>
<path d="M71.9958 81.2681L80.9307 76.1016V85.7659L81.4778 86.009V75.7977L71.9958 81.2681Z" fill="#484848"/>
<path d="M71.6919 90.9932V91.6618L81.4169 85.9483L80.9307 85.7052L71.6919 90.9932Z" fill="black"/>
<path d="M76.4937 78.6541V88.2576L77.0407 88.5615V78.2894L76.4937 78.6541Z" fill="#484848"/>
<path d="M77.4052 77.8036V88.3188L77.0405 88.5619V78.2898L77.4052 77.8036Z" fill="black"/>
<path fill-rule="evenodd" clip-rule="evenodd" d="M81.8424 75.2505V86.1911L71.6919 92.0869V81.1463L81.8424 75.2505ZM72.0566 91.4183L81.4169 85.948V75.9191L72.0566 81.3286V91.4183Z" fill="#606060"/>
<path d="M71.6919 98.2265V108.499L80.9307 103.15L71.9958 108.316V98.0442L71.6919 98.2265Z" fill="black"/>
<path d="M71.6919 97.9829V108.194L80.9307 102.845V92.5734L71.6919 97.9829Z" fill="black"/>
<path d="M71.9351 98.0437L80.9307 92.8773V102.42L81.4777 102.785V92.5126L71.9351 98.0437Z" fill="black"/>
<path d="M71.6919 107.647V108.377L81.3562 102.724L80.9307 102.42L71.6919 107.647Z" fill="black"/>
<path d="M71.9958 98.0437L80.9307 92.8773V102.481L81.4778 102.785V92.5126L71.9958 98.0437Z" fill="#484848"/>
<path d="M71.6919 107.708V108.437L81.4169 102.724L80.9307 102.42L71.6919 107.708Z" fill="black"/>
<path d="M76.4937 95.3695V105.034L77.0407 105.277V95.0656L76.4937 95.3695Z" fill="#484848"/>
<path d="M77.4052 94.5792V105.094L77.0405 105.277V95.0655L77.4052 94.5792Z" fill="black"/>
<path fill-rule="evenodd" clip-rule="evenodd" d="M81.8424 92.0265V102.967L71.6919 108.863V97.9223L81.8424 92.0265ZM72.0566 108.134L81.4169 102.724V92.6343L72.0566 98.0438V108.134Z" fill="#606060"/>
<path d="M259.336 172.783V176.187L281.642 189.072V185.729L259.336 172.783Z" fill="#484848"/>
<path d="M325.892 188.708L303.585 201.837L303.645 265.657L325.892 253.015V188.708Z" fill="#1C1C1C"/>
<path d="M259.336 176.187L303.585 201.836L303.645 265.657L259.396 240.129L259.336 176.187Z" fill="#3D3D3D"/>
<path d="M325.952 252.832L303.645 265.657V269L325.952 256.054V252.832Z" fill="#484848"/>
<path d="M303.645 265.657V269L259.396 243.472V240.129L303.645 265.657Z" fill="#484848"/>
<path d="M303.585 198.432L325.831 185.486L325.892 188.707L303.585 201.775V198.432Z" fill="#484848"/>
<path d="M281.278 185.547V188.89L303.585 201.836V198.432L281.278 185.547Z" fill="#484848"/>
<path d="M303.585 198.676L259.336 172.783L281.521 160.019L325.831 185.486L303.585 198.676Z" fill="#282828"/>
<path d="M286.201 185.608L288.207 186.823L303.463 195.88L318.902 186.762L320.907 185.547L303.524 175.639L286.201 185.608Z" fill="black"/>
<path d="M288.207 186.823L303.463 195.88L318.902 186.762L303.524 178.01L288.207 186.823Z" fill="#161616"/>
<path d="M264.441 173.087L266.447 174.303L281.764 183.298L297.142 174.181L299.208 173.026L281.764 163.119L264.441 173.087Z" fill="black"/>
<path d="M266.447 174.303L281.764 183.298L297.142 174.181L281.764 165.49L266.447 174.303Z" fill="#161616"/>
<path d="M292.279 202.019V212.23L283.041 206.882L291.975 212.048V201.837L292.279 202.019Z" fill="black"/>
<path d="M292.279 201.715V211.987L283.041 206.578V196.367L292.279 201.715Z" fill="black"/>
<path d="M292.036 201.776L283.04 196.61V206.213L282.493 206.517V196.306L292.036 201.776Z" fill="black"/>
<path d="M292.279 211.44V212.109L282.615 206.456L283.04 206.152L292.279 211.44Z" fill="black"/>
<path d="M291.975 201.776L283.04 196.61V206.274L282.493 206.517V196.306L291.975 201.776Z" fill="#484848"/>
<path d="M292.279 211.501V212.17L282.554 206.456L283.04 206.213L292.279 211.501Z" fill="black"/>
<path d="M287.477 199.101V208.766L286.93 209.009V198.797L287.477 199.101Z" fill="#484848"/>
<path d="M286.566 198.312V208.827L286.931 209.009V198.798L286.566 198.312Z" fill="black"/>
<path fill-rule="evenodd" clip-rule="evenodd" d="M292.279 201.655V212.595L282.129 206.7V195.759L292.279 201.655ZM291.915 201.898L282.554 196.488V206.517L291.915 211.927V201.898Z" fill="#606060"/>
<path d="M292.279 218.734V229.007L283.041 223.658L291.975 228.824V218.552L292.279 218.734Z" fill="black"/>
<path d="M292.279 218.491V228.764L283.041 223.354V213.143L292.279 218.491Z" fill="black"/>
<path d="M292.036 218.552L283.04 213.386V222.989L282.493 223.293V213.082L292.036 218.552Z" fill="black"/>
<path d="M292.279 228.155V228.885L282.615 223.232L283.04 222.928L292.279 228.155Z" fill="black"/>
<path d="M291.975 218.552L283.04 213.386V222.989L282.493 223.293V213.082L291.975 218.552Z" fill="#484848"/>
<path d="M292.279 228.217V228.946L282.554 223.233L283.04 222.989L292.279 228.217Z" fill="black"/>
<path d="M287.477 215.878V225.542L286.93 225.785V215.574L287.477 215.878Z" fill="#484848"/>
<path d="M286.566 215.087V225.602L286.931 225.785V215.573L286.566 215.087Z" fill="black"/>
<path fill-rule="evenodd" clip-rule="evenodd" d="M292.279 218.43V229.371L282.129 223.475V212.535L292.279 218.43ZM291.915 218.673L282.554 213.264V223.293L291.915 228.702V218.673Z" fill="#606060"/>
<path d="M292.279 235.51V245.782L283.041 240.372L291.975 245.599V235.327L292.279 235.51Z" fill="black"/>
<path d="M292.279 235.206V245.478L283.041 240.129V229.857L292.279 235.206Z" fill="black"/>
<path d="M292.036 235.327L283.04 230.161V239.704L282.493 240.068V229.796L292.036 235.327Z" fill="black"/>
<path d="M292.279 244.931V245.599L282.615 239.947L283.04 239.704L292.279 244.931Z" fill="black"/>
<path d="M291.975 235.327L283.04 230.1V239.764L282.493 240.068V229.796L291.975 235.327Z" fill="#484848"/>
<path d="M292.279 244.992V245.66L282.554 240.008L283.04 239.704L292.279 244.992Z" fill="black"/>
<path d="M287.477 232.653V242.256L286.93 242.56V232.349L287.477 232.653Z" fill="#484848"/>
<path d="M286.566 231.863V242.317L286.931 242.56V232.349L286.566 231.863Z" fill="black"/>
<path fill-rule="evenodd" clip-rule="evenodd" d="M292.279 235.145V246.086L282.129 240.19V229.31L292.279 235.145ZM291.915 235.327L282.554 229.918V239.947L291.915 245.417V235.327Z" fill="#606060"/>
<path d="M276.476 192.416V202.81L273.011 200.743V190.349L276.476 192.416Z" fill="black"/>
<path d="M273.072 190.653V200.378L272.464 200.682V190.289L273.072 190.653Z" fill="black"/>
<path d="M276.476 202.323V202.931L272.586 200.622L273.072 200.318L276.476 202.323Z" fill="black"/>
<path d="M273.011 190.653V200.378L272.464 200.682V190.289L273.011 190.653Z" fill="#484848"/>
<path d="M276.476 202.384V202.991L272.525 200.621L273.011 200.378L276.476 202.384Z" fill="black"/>
<path fill-rule="evenodd" clip-rule="evenodd" d="M276.962 192.659V203.66L272.16 200.864V189.863L276.962 192.659ZM276.415 192.72L272.464 190.41V200.621L276.415 202.87V192.72Z" fill="#606060"/>
<path d="M276.476 209.191V219.585L273.011 217.518V207.125L276.476 209.191Z" fill="black"/>
<path d="M273.072 207.429V217.154L272.525 217.458V207.064L273.072 207.429Z" fill="black"/>
<path d="M276.476 219.099V219.707L272.586 217.397L273.072 217.093L276.476 219.099Z" fill="black"/>
<path d="M273.011 207.429V217.154L272.464 217.458V207.064L273.011 207.429Z" fill="#484848"/>
<path d="M276.476 219.16V219.767L272.586 217.397L273.011 217.154L276.476 219.16Z" fill="black"/>
<path fill-rule="evenodd" clip-rule="evenodd" d="M277.023 209.435V220.436L272.16 217.64V206.639L277.023 209.435ZM276.476 209.496L272.586 207.247V217.397L276.476 219.707V209.496Z" fill="#606060"/>
<path d="M276.476 225.967V236.361L273.011 234.294V223.9L276.476 225.967Z" fill="black"/>
<path d="M273.072 224.205V233.869L272.525 234.234V223.84L273.072 224.205Z" fill="black"/>
<path d="M276.476 235.875V236.483L272.586 234.173L273.072 233.869L276.476 235.875Z" fill="black"/>
<path d="M273.011 224.205V233.93L272.464 234.234V223.84L273.011 224.205Z" fill="#484848"/>
<path d="M276.476 235.935V236.543L272.586 234.173L273.011 233.929L276.476 235.935Z" fill="black"/>
<path fill-rule="evenodd" clip-rule="evenodd" d="M277.023 226.21V237.212L272.16 234.416V223.415L277.023 226.21ZM276.476 226.271L272.586 223.962V234.173L276.476 236.422V226.271Z" fill="#606060"/>
<path d="M266.569 233.93L270.884 231.438V235.449L266.569 238.002V233.93Z" fill="#1C1C1C"/>
<path d="M270.884 231.438L269.851 230.83L266.447 232.775L266.569 233.93L270.884 231.438Z" fill="#484848"/>
<path d="M276.415 238.549L279.819 236.604V242.379L276.415 244.384V238.549Z" fill="#1C1C1C"/>
<path d="M276.415 238.549L266.447 232.775V238.61L276.415 244.384V238.549Z" fill="#2D2D2D"/>
<path d="M266.447 232.774L267.42 232.227L277.388 238.002L276.415 238.549L266.447 232.774Z" fill="#484848"/>
<path d="M279.819 236.604L278.786 235.936L275.382 237.941L276.415 238.549L279.819 236.604Z" fill="#484848"/>
<path d="M266.569 217.214L270.945 214.661V218.673L266.569 221.226V217.214Z" fill="#1C1C1C"/>
<path d="M270.945 214.662L269.851 214.054L266.447 215.999L266.569 217.214L270.945 214.662Z" fill="#484848"/>
<path d="M276.476 221.773L279.819 219.828L279.88 225.602L276.476 227.608V221.773Z" fill="#1C1C1C"/>
<path d="M276.476 221.773L266.447 215.998V221.833L276.476 227.608V221.773Z" fill="#2D2D2D"/>
<path d="M266.447 215.999L267.42 215.452L277.388 221.226L276.476 221.773L266.447 215.999Z" fill="#484848"/>
<path d="M279.819 219.828L278.786 219.22L275.382 221.165L276.476 221.773L279.819 219.828Z" fill="#484848"/>
<path d="M266.569 200.439L270.945 197.886V201.897L266.569 204.45V200.439Z" fill="#1C1C1C"/>
<path d="M270.945 197.886L269.851 197.278L266.447 199.223L266.569 200.439L270.945 197.886Z" fill="#484848"/>
<path d="M276.476 204.997L279.819 203.052L279.88 208.826L276.476 210.832V204.997Z" fill="#1C1C1C"/>
<path d="M276.476 204.997L266.447 199.223V205.058L276.476 210.832V204.997Z" fill="#2D2D2D"/>
<path d="M266.447 199.223L267.42 198.676L277.388 204.45L276.476 204.997L266.447 199.223Z" fill="#484848"/>
<path d="M279.819 203.052L278.786 202.445L275.382 204.39L276.476 204.997L279.819 203.052Z" fill="#484848"/>
<path d="M310.027 204.754V215.026L319.266 209.616L310.331 214.783V204.571L310.027 204.754Z" fill="black"/>
<path d="M310.027 204.45V214.722L319.266 209.312V199.101L310.027 204.45Z" fill="black"/>
<path d="M310.271 204.511L319.266 199.344V208.948L319.813 209.252V199.04L310.271 204.511Z" fill="black"/>
<path d="M310.027 214.175V214.844L319.692 209.191L319.266 208.948L310.027 214.175Z" fill="black"/>
<path d="M310.331 204.511L319.266 199.344V209.009L319.813 209.252V199.04L310.331 204.511Z" fill="#484848"/>
<path d="M310.027 214.236V214.904L319.752 209.252L319.266 208.948L310.027 214.236Z" fill="black"/>
<path d="M314.829 201.897V211.501L315.376 211.805V201.533L314.829 201.897Z" fill="#484848"/>
<path d="M315.741 201.107V211.561L315.376 211.804V201.532L315.741 201.107Z" fill="black"/>
<path fill-rule="evenodd" clip-rule="evenodd" d="M320.178 198.554V209.434L310.027 215.33V204.389L320.178 198.554ZM310.392 214.722L319.752 209.252V199.223L310.392 204.632V214.722Z" fill="#606060"/>
<path d="M310.027 221.53V231.802L319.266 226.392L310.331 231.559V221.348L310.027 221.53Z" fill="black"/>
<path d="M310.027 221.226V231.498L319.266 226.088V215.877L310.027 221.226Z" fill="black"/>
<path d="M310.271 221.287L319.266 216.12V225.724L319.813 226.028V215.817L310.271 221.287Z" fill="black"/>
<path d="M310.027 230.951V231.62L319.692 225.967L319.266 225.724L310.027 230.951Z" fill="black"/>
<path d="M310.331 221.287L319.266 216.12V225.785L319.813 226.028V215.817L310.331 221.287Z" fill="#484848"/>
<path d="M310.027 231.012V231.68L319.752 225.967L319.266 225.724L310.027 231.012Z" fill="black"/>
<path d="M314.829 218.673V228.276L315.376 228.58V218.308L314.829 218.673Z" fill="#484848"/>
<path d="M315.741 217.822V228.337L315.376 228.581V218.309L315.741 217.822Z" fill="black"/>
<path fill-rule="evenodd" clip-rule="evenodd" d="M320.178 215.269V226.21L310.027 232.106V221.165L320.178 215.269ZM310.392 231.437L319.752 225.967V215.938L310.392 221.347V231.437Z" fill="#606060"/>
<path d="M310.027 238.244V248.516L319.266 243.168L310.331 248.334V238.062L310.027 238.244Z" fill="black"/>
<path d="M310.027 238.001V248.213L319.266 242.864V232.592L310.027 238.001Z" fill="black"/>
<path d="M310.271 238.062L319.266 232.896V242.438L319.813 242.803V232.531L310.271 238.062Z" fill="black"/>
<path d="M310.027 247.665V248.395L319.692 242.742L319.266 242.438L310.027 247.665Z" fill="black"/>
<path d="M310.331 238.062L319.266 232.896V242.499L319.813 242.803V232.531L310.331 238.062Z" fill="#484848"/>
<path d="M310.027 247.726V248.456L319.752 242.742L319.266 242.438L310.027 247.726Z" fill="black"/>
<path d="M314.829 235.387V245.051L315.376 245.295V235.083L314.829 235.387Z" fill="#484848"/>
<path d="M315.741 234.597V245.113L315.376 245.295V235.084L315.741 234.597Z" fill="black"/>
<path fill-rule="evenodd" clip-rule="evenodd" d="M320.178 232.045V242.985L310.027 248.881V237.94L320.178 232.045ZM310.392 248.152L319.752 242.742V232.652L310.392 238.062V248.152Z" fill="#606060"/>
<path d="M191.891 218.97H174.276L168.899 204.203L183.872 198.351L198.473 204.342L191.891 218.97Z" fill="black"/>
<path d="M236.437 193.196L191.891 218.97V206.106L210.479 188.506L236.437 180.333V193.196Z" fill="black"/>
<path d="M236.437 180.333V170.117L199.91 148.987H182.296L137.75 174.761V184.977L174.277 206.107H191.891L236.437 180.333Z" fill="black"/>
<path d="M174.277 218.971L137.75 197.842V184.978L174.277 206.108V218.971Z" fill="black"/>
<path d="M191.984 215.999H173.859L168.343 176.572L183.733 170.489L198.798 176.665L191.984 215.999Z" fill="#313131"/>
<path d="M237.828 189.483L191.984 215.999V178.477L211.128 160.365L237.828 151.96V189.483Z" fill="#1C1C1C"/>
<path d="M237.828 151.96V141.511L200.235 119.731H182.157L136.266 146.248V156.743L173.859 178.476H191.984L237.828 151.96Z" fill="#272727"/>
<path d="M173.859 215.999L136.266 194.265V156.743L173.859 178.476V215.999Z" fill="#3D3D3D"/>
<path d="M249.652 212.106C246.522 214.187 241.478 214.187 238.348 212.106C235.217 210.025 235.217 206.643 238.348 204.561C241.478 202.48 246.522 202.48 249.652 204.561C252.783 206.643 252.783 210.025 249.652 212.106Z" fill="#313131"/>
<path d="M241.833 209.454H244.66C245.259 209.454 245.559 209.454 245.788 209.387C245.989 209.327 246.153 209.233 246.255 209.117C246.372 208.985 246.372 208.812 246.372 208.466L246.372 206.834" stroke="black" stroke-linecap="round" stroke-linejoin="round"/>
<path d="M191.891 177.223H174.277L168.9 162.501L183.872 156.604L198.473 162.594L191.891 177.223Z" fill="#313131"/>
<path d="M236.437 151.495L191.891 177.222V164.359L210.479 146.758L236.437 138.585V151.495Z" fill="#1C1C1C"/>
<path d="M236.437 138.585V128.415L199.91 107.285H182.296L137.75 133.059V143.229L174.277 164.358H191.891L236.437 138.585Z" fill="#272727"/>
<path d="M174.277 177.222L137.75 156.139V143.229L174.277 164.359V177.222Z" fill="#3D3D3D"/>
<path d="M174.277 177.223L160.788 169.421V163.338L174.277 171.139V177.223Z" fill="#C92222"/>
<path opacity="0.3" d="M195.182 159.901L170.197 160.644L137.75 141.883V154.746L174.277 175.876H191.891L236.437 150.102V137.239L195.182 159.901Z" fill="black"/>
<path d="M191.984 173.414H173.859L168.343 149.266L183.733 143.229L198.798 149.405L191.984 173.414Z" fill="#313131"/>
<path d="M237.828 146.899L191.984 173.415V151.217L211.128 133.106L237.828 124.701V146.899Z" fill="#1C1C1C"/>
<path d="M237.828 124.7V114.205L200.235 92.4718H182.157L136.266 118.988V129.437L173.859 151.217H191.984L237.828 124.7Z" fill="#272727"/>
<path d="M173.859 173.414L136.266 151.727V129.437L173.859 151.217V173.414Z" fill="#3D3D3D"/>
<path d="M191.891 149.964H174.277L168.9 135.196L183.872 129.298L198.473 135.335L191.891 149.964Z" fill="#313131"/>
<path d="M236.437 124.189L191.891 149.962V137.052L210.479 119.452L236.437 111.325V124.189Z" fill="#1C1C1C"/>
<path d="M236.437 111.326V101.109L199.91 79.9795H182.296L137.75 105.753V115.923L174.277 137.053H191.891L236.437 111.326Z" fill="#272727"/>
<path d="M174.277 149.963L137.75 128.834V115.924L174.277 137.053V149.963Z" fill="#3D3D3D"/>
<path d="M174.277 149.964L160.788 142.162V136.032L174.277 143.834V149.964Z" fill="#C92222"/>
<path opacity="0.3" d="M195.182 132.595L170.197 133.338L137.75 114.577V127.487L174.277 148.57H191.891L236.437 122.797V109.933L195.182 132.595Z" fill="black"/>
<path d="M191.984 146.293H173.859L168.343 122.145L183.733 116.062L198.798 122.238L191.984 146.293Z" fill="#313131"/>
<path d="M237.828 119.778L191.984 146.294V124.05L211.128 105.939L237.828 97.5336V119.778Z" fill="#1C1C1C"/>
<path d="M237.828 97.5332V87.038L200.235 65.3047H182.157L136.266 91.8212V102.316L173.859 124.05H191.984L237.828 97.5332Z" fill="#272727"/>
<path d="M173.859 146.295L136.266 124.561V102.317L173.859 124.051V146.295Z" fill="#3D3D3D"/>
<path d="M191.891 122.796H174.277L168.9 108.075L183.872 102.177L198.473 108.168L191.891 122.796Z" fill="#313131"/>
<path d="M236.437 97.0226L191.891 122.796V109.933L210.479 92.3323L236.437 84.1591V97.0226Z" fill="#1C1C1C"/>
<path d="M236.437 84.1581V73.9416L199.91 52.8584H182.296L137.75 78.6319V88.802L174.277 109.932H191.891L236.437 84.1581Z" fill="#272727"/>
<path d="M174.277 122.796L137.75 101.713V88.8032L174.277 109.933V122.796Z" fill="#3D3D3D"/>
<path d="M174.277 122.795L160.788 114.994V108.91L174.277 116.712V122.795Z" fill="#C92222"/>
<path opacity="0.3" d="M195.182 105.474L170.197 106.217L137.75 87.4559V100.319L174.277 121.449H191.891L236.437 95.6755V82.812L195.182 105.474Z" fill="black"/>
<path d="M191.984 119.267H173.859L168.343 95.072L183.733 89.0349L198.798 95.2113L191.984 119.267Z" fill="#313131"/>
<path d="M237.828 92.7044L191.984 119.267V96.9767L211.128 78.9121L237.828 70.4602V92.7044Z" fill="#1C1C1C"/>
<path d="M237.828 70.4599V60.0112L200.235 38.2778H182.157L136.266 64.7944V75.2431L173.859 96.9764H191.984L237.828 70.4599Z" fill="#272727"/>
<path d="M173.859 119.267L136.266 97.487V75.2428L173.859 96.9761V119.267Z" fill="#3D3D3D"/>
<path d="M191.891 95.4446H174.277L168.9 91.5437L183.872 85.646L197.454 91.2186L191.891 95.4446Z" fill="#313131"/>
<path d="M236.437 69.6711L191.891 95.4446V93.4013L210.479 75.801L236.437 67.6278V69.6711Z" fill="#1C1C1C"/>
<path d="M236.437 67.6274V57.4573L199.91 36.3276H182.296L137.75 62.1012V72.2712L174.277 93.4009H191.891L236.437 67.6274Z" fill="#272727"/>
<path fill-rule="evenodd" clip-rule="evenodd" d="M170.419 56.6271C171.657 56.6134 172.633 57.1769 172.61 57.8917L172.193 71.1353L182.74 65.0461C183.621 64.5375 185.049 64.5238 185.894 65.0118L186.299 65.2454C186.608 63.6647 187.823 62.1115 189.941 60.8882C194.798 58.0841 202.571 58.0085 207.261 60.7163C211.916 63.4036 211.809 67.8639 207.023 70.668L206.881 70.7504C202.024 73.5132 194.31 73.5682 189.656 70.881L184.24 67.7539L171.431 75.1489C170.776 75.5269 169.824 75.6506 169.003 75.4513C168.729 75.3895 168.491 75.307 168.288 75.1902L168.265 75.1764C167.884 74.9427 167.646 74.6266 167.669 74.283L168.158 57.9329C168.169 57.5824 168.419 57.2731 168.8 57.0395L168.872 56.9982C169.276 56.7783 169.824 56.6271 170.419 56.6271ZM204.059 62.5651C201.071 60.8401 196.131 60.8882 193.036 62.6751C189.953 64.4551 189.87 67.3072 192.858 69.0323C195.834 70.7504 200.774 70.7023 203.857 68.9223C206.952 67.1354 207.035 64.2833 204.059 62.5651ZM190.691 54.1323C191.929 54.1186 192.905 54.6821 192.87 55.39C192.87 55.7474 192.608 56.0636 192.191 56.3041C191.787 56.5378 191.227 56.6958 190.608 56.6958C188.537 56.7233 186.561 57.2044 185.061 58.0704C183.573 58.9295 182.728 60.0772 182.692 61.2661C182.68 61.6304 182.418 61.9465 182.002 62.1871C181.597 62.4208 181.049 62.572 180.418 62.5788C179.204 62.5926 178.228 62.029 178.24 61.3211C178.3 59.4312 179.633 57.6443 181.978 56.2904C184.335 54.9296 187.43 54.1598 190.691 54.1323Z" fill="#757575"/>
<path d="M174.277 95.4449L137.75 74.3153V72.272L174.277 93.4016V95.4449Z" fill="#3D3D3D"/>
<path d="M268.652 139.106C265.522 141.187 260.478 141.187 257.348 139.106C254.217 137.025 254.217 133.643 257.348 131.561C260.478 129.48 265.522 129.48 268.652 131.561C271.783 133.643 271.783 137.025 268.652 139.106Z" fill="#313131"/>
<path d="M260.833 136.454H263.66C264.259 136.454 264.559 136.454 264.788 136.387C264.989 136.327 265.153 136.233 265.255 136.117C265.372 135.985 265.372 135.812 265.372 135.466L265.372 133.834" stroke="black" stroke-linecap="round" stroke-linejoin="round"/>
<path d="M105.348 134.561C108.478 132.48 113.522 132.48 116.652 134.561C119.783 136.642 119.783 140.024 116.652 142.106C113.522 144.187 108.478 144.187 105.348 142.106C102.217 140.024 102.217 136.642 105.348 134.561Z" fill="#313131"/>
<path d="M114.167 137.213H111.34C110.741 137.213 110.441 137.213 110.212 137.28C110.011 137.34 109.847 137.434 109.745 137.55C109.628 137.682 109.628 137.855 109.628 138.201L109.628 139.833" stroke="black" stroke-linecap="round" stroke-linejoin="round"/>
<path d="M119.348 209.561C122.478 207.48 127.522 207.48 130.652 209.561C133.783 211.642 133.783 215.024 130.652 217.106C127.522 219.187 122.478 219.187 119.348 217.106C116.217 215.024 116.217 211.642 119.348 209.561Z" fill="#313131"/>
<path d="M128.167 212.213H125.34C124.741 212.213 124.441 212.213 124.212 212.28C124.011 212.34 123.847 212.434 123.745 212.55C123.628 212.682 123.628 212.855 123.628 213.201L123.628 214.833" stroke="black" stroke-linecap="round" stroke-linejoin="round"/>
</svg>
