<svg width="484" height="367" viewBox="0 0 484 367" fill="none" xmlns="http://www.w3.org/2000/svg">
<path d="M418.656 177.443L382.508 157.628L356.73 171.994L356 170.72L382.508 156L418.656 175.815L442.828 162.298L443.558 163.501L418.656 177.443Z" fill="#272727"/>
<path d="M126.452 299.632L90.673 278.991L65.1578 293.956L64.435 292.629L90.673 277.296L126.452 297.936L150.377 283.856L151.1 285.11L126.452 299.632Z" fill="#272727"/>
<path d="M47.3403 302.585C45.2458 303.793 41.7817 303.793 39.6872 302.585C37.5121 301.376 37.5121 299.362 39.6872 298.154C41.7817 296.946 45.2458 296.946 47.3403 298.154C49.4349 299.362 49.4349 301.376 47.3403 302.585Z" fill="#484848"/>
<path fill-rule="evenodd" clip-rule="evenodd" d="M233.406 331.796L233.068 331.594L68.9023 237.229L69.9161 236.622L270.714 120.942L271.052 121.144L435.218 215.509L434.204 216.116L233.406 331.796ZM71.6057 237.229L233.406 330.245L432.447 215.509L270.714 122.493L71.6057 237.229Z" fill="#272727"/>
<path d="M153.729 189.542L50 128.386L50.8852 127L154.534 188.155L153.729 189.542Z" fill="#272727"/>
<path d="M141.977 361.757L159.847 351.284L142.808 330.006L138.32 337.321L141.977 361.757Z" fill="#3A3A3A"/>
<path d="M141.977 361.757L159.847 351.284L142.808 330.006L138.32 337.321L141.977 361.757Z" fill="black" fill-opacity="0.2"/>
<path d="M12.3144 245.309L40.8235 228.852C40.8235 228.852 39.743 245.226 39.743 245.309L23.3689 250.38L12.3144 245.309Z" fill="#3A3A3A"/>
<path d="M12.3144 245.309L40.8235 228.852C40.8235 228.852 39.743 245.226 39.743 245.309L23.3689 250.38L12.3144 245.309Z" fill="black" fill-opacity="0.2"/>
<path d="M146.88 308.395C144.719 307.149 142.641 306.4 140.73 306.068C137.904 291.024 127.348 274.982 114.797 267.751C111.057 265.59 107.483 264.426 104.241 264.177C102.496 245.808 89.7791 225.029 74.3194 216.135C66.257 211.481 58.9427 210.899 53.5401 213.725L53.2908 213.891C53.1246 213.947 52.986 214.03 52.8752 214.141L36.0856 224.032L41.6544 228.437C36.6674 230.681 33.4258 236.25 33.4258 244.561C33.4258 259.938 44.231 278.556 57.5298 286.203L146.88 350.037C156.855 355.855 165 351.117 165 339.647C165 328.177 156.855 314.13 146.88 308.395Z" fill="#3A3A3A"/>
<path d="M146.88 308.395C144.719 307.149 142.641 306.4 140.73 306.068C137.904 291.024 127.348 274.982 114.797 267.751C111.057 265.59 107.483 264.426 104.241 264.177C102.496 245.808 89.7791 225.029 74.3194 216.135C66.257 211.481 58.9427 210.899 53.5401 213.725L53.2908 213.891C53.1246 213.947 52.986 214.03 52.8752 214.141L36.0856 224.032L41.6544 228.437C36.6674 230.681 33.4258 236.25 33.4258 244.561C33.4258 259.938 44.231 278.556 57.5298 286.203L146.88 350.037C156.855 355.855 165 351.117 165 339.647C165 328.177 156.855 314.13 146.88 308.395Z" fill="black" fill-opacity="0.2"/>
<path d="M34.2572 237.829L72.8235 215.304C65.3429 211.398 58.6105 211.065 53.5403 213.725L53.291 213.891C53.1248 213.947 52.9862 214.03 52.8754 214.14L36.0858 224.031L41.6546 228.437C38.1637 230.016 35.504 233.174 34.2572 237.829Z" fill="#3A3A3A"/>
<path d="M34.2572 237.829L72.8235 215.304C65.3429 211.398 58.6105 211.065 53.5403 213.725L53.291 213.891C53.1248 213.947 52.9862 214.03 52.8754 214.14L36.0858 224.031L41.6546 228.437C38.1637 230.016 35.504 233.174 34.2572 237.829Z" fill="black" fill-opacity="0.2"/>
<path d="M105.488 304.156L133.665 287.616C128.844 279.304 122.195 271.99 114.798 267.751C113.856 267.197 112.914 266.698 111.972 266.255L76.1481 287.2L105.488 304.156Z" fill="#3A3A3A"/>
<path d="M43.982 225.86L56.5327 233.174L79.4729 219.626C77.8106 218.296 76.0928 217.133 74.3197 216.135C71.5768 214.473 68.834 213.392 66.3405 212.728L43.982 225.86Z" fill="#C92222"/>
<path d="M130.59 282.795L108.065 296.011L115.878 304.738L136.325 292.686C134.662 289.195 132.751 285.871 130.59 282.795Z" fill="#C92222"/>
<path d="M129.26 318.786C127.099 317.539 125.021 316.791 123.109 316.458C120.2 301.414 109.727 285.373 97.1767 278.142C93.4364 275.981 89.8624 274.817 86.6208 274.568C84.8754 256.199 72.1585 235.419 56.6987 226.526C40.0754 216.884 26.6104 224.697 26.6104 243.897C26.6104 244.562 26.6104 245.2 26.6104 245.809C14.4753 240.24 5 246.557 5 260.936C5 276.313 15.7221 294.931 29.0208 302.578L129.26 360.427C139.234 366.246 147.296 361.591 147.296 350.038C147.296 338.568 139.234 324.521 129.26 318.786Z" fill="#272727"/>
<path d="M129.26 318.786C127.099 317.539 125.021 316.791 123.109 316.458C120.2 301.414 109.727 285.373 97.1767 278.142C93.4364 275.981 89.8624 274.817 86.6208 274.568C84.8754 256.199 72.1585 235.419 56.6987 226.526C40.0754 216.884 26.6104 224.697 26.6104 243.897C26.6104 244.562 26.6104 245.2 26.6104 245.809C14.4753 240.24 5 246.557 5 260.936C5 276.313 15.7221 294.931 29.0208 302.578L129.26 360.427C139.234 366.246 147.296 361.591 147.296 350.038C147.296 338.568 139.234 324.521 129.26 318.786Z" fill="url(#paint0_linear_1230_110773)"/>
<path d="M26.6104 245.809C26.6104 245.199 26.6104 244.562 26.6104 243.897C26.6104 243.842 26.6104 243.814 26.6104 243.814C19.8779 241.154 14.1429 242.318 10.4857 246.557C14.3922 243.316 20.1273 242.817 26.6104 245.809Z" fill="#272727"/>
<path d="M130.756 317.372C128.595 316.125 126.517 315.377 124.605 315.045C121.696 300 111.223 283.959 98.6727 276.728C94.9325 274.483 91.2753 273.32 88.0338 273.071C86.3714 254.785 73.6545 234.006 58.1948 225.112C47.8052 219.128 38.6623 219.876 33.2597 225.943C38.7454 221.206 47.2233 221.039 56.6987 226.525C72.1584 235.419 84.8753 256.198 86.6208 274.567C89.8623 274.816 93.4364 275.98 97.1766 278.141C109.727 285.372 120.2 301.413 123.109 316.458C125.021 316.79 127.099 317.538 129.26 318.785C139.234 324.52 147.296 338.567 147.296 350.037C147.296 354.193 146.216 357.434 144.47 359.678C147.13 357.517 148.792 353.777 148.792 348.624C148.792 337.071 140.73 323.107 130.756 317.372Z" fill="#292929"/>
<path d="M22.983 248.742L30.8189 252.441L30.3884 243.839C30.3884 243.208 30.3597 242.606 30.3023 242.032C30.3023 234.376 32.6272 228.785 36.8466 226.376C41.0659 223.968 47.0936 224.742 53.724 228.527C68.0182 236.785 80.4179 256.828 82.054 274.205L82.4845 278.592L86.8761 278.936C89.5455 279.108 92.5593 280.14 95.6593 281.947C107.026 288.485 117.273 303.711 119.942 318.162L120.631 321.775L124.334 322.291C125.769 322.521 127.29 323.094 128.897 324.012C137.595 329.087 145 341.819 145 351.883C145 355.668 143.967 358.421 142.072 359.453C140.264 360.486 137.336 360.055 134.064 358.163L30.2162 298.291C18.1608 291.323 7.99994 273.603 7.99994 259.667C7.99994 254.248 9.54991 250.032 12.3915 248.226C13.5109 247.538 14.9748 247.194 16.5248 247.194C18.4192 247.194 20.658 247.71 22.983 248.742Z" fill="#272727"/>
<path d="M22.983 248.742L30.8189 252.441L30.3884 243.839C30.3884 243.208 30.3597 242.606 30.3023 242.032C30.3023 234.376 32.6272 228.785 36.8466 226.376C41.0659 223.968 47.0936 224.742 53.724 228.527C68.0182 236.785 80.4179 256.828 82.054 274.205L82.4845 278.592L86.8761 278.936C89.5455 279.108 92.5593 280.14 95.6593 281.947C107.026 288.485 117.273 303.711 119.942 318.162L120.631 321.775L124.334 322.291C125.769 322.521 127.29 323.094 128.897 324.012C137.595 329.087 145 341.819 145 351.883C145 355.668 143.967 358.421 142.072 359.453C140.264 360.486 137.336 360.055 134.064 358.163L30.2162 298.291C18.1608 291.323 7.99994 273.603 7.99994 259.667C7.99994 254.248 9.54991 250.032 12.3915 248.226C13.5109 247.538 14.9748 247.194 16.5248 247.194C18.4192 247.194 20.658 247.71 22.983 248.742Z" fill="url(#paint1_linear_1230_110773)"/>
<path d="M45.5136 282.352C45.4285 284.6 43.9159 286.439 40.9219 284.556C37.8821 282.644 36.2525 278.718 36.4037 274.725C36.5556 270.714 38.3992 268.992 41.4389 270.904C43.953 272.485 45.2888 275.314 45.5809 277.487C45.6434 277.894 45.6679 278.278 45.6543 278.638L43.6354 277.368C43.6422 277.188 43.6414 277.003 43.6254 276.809C43.5099 275.328 42.7207 273.717 41.3646 272.864C39.7572 271.853 38.5694 272.736 38.4454 276.009C38.3214 279.283 39.388 281.602 40.9954 282.613C42.5267 283.576 43.4355 282.647 43.4948 281.082L45.5136 282.352ZM48.6851 289.236L49.1875 275.971L51.1987 277.236L50.7706 288.54L55.0292 291.219L54.955 293.18L48.6851 289.236ZM61.9346 297.772C59.2072 296.057 57.1671 292.26 57.3333 287.871C57.4999 283.473 59.7167 282.4 62.4517 284.12C65.2095 285.855 67.2361 289.597 67.0696 293.995C66.9033 298.384 64.662 299.488 61.9346 297.772ZM62.0085 295.821C63.5855 296.813 64.8898 296.15 65.0202 292.706C65.151 289.252 63.9468 287.068 62.3774 286.081C60.8233 285.103 59.4982 285.697 59.3674 289.15C59.2366 292.604 60.4544 294.843 62.0085 295.821ZM78.5369 303.077C78.4088 306.458 76.7927 307.118 74.2405 305.512C71.696 303.912 70.2191 301.307 70.3472 297.926L70.667 289.481L72.6782 290.746L72.3577 299.209C72.277 301.34 72.8971 302.679 74.3141 303.57C75.7387 304.466 76.4442 303.961 76.5249 301.83L76.8455 293.367L78.8567 294.632L78.5369 303.077ZM82.0054 310.194L82.5078 296.928L85.8675 299.041C88.8539 300.92 90.7421 304.815 90.5916 308.79C90.4411 312.765 88.3515 314.185 85.3651 312.307L82.0054 310.194ZM85.537 300.767L84.4475 300.082L84.0882 309.57L85.1776 310.255C86.9984 311.401 88.4385 310.446 88.5499 307.505C88.6613 304.565 87.3577 301.912 85.537 300.767Z" fill="#757575"/>
<path d="M308 200.6L308.1 304.2L348 327.3V224.2L308 200.6Z" fill="#3D3D3D"/>
<path d="M306 203.9V305.3L318.6 312.6V211.1L306 203.9Z" fill="#3D3D3D"/>
<path d="M318.6 312.6L320.6 311.5V210L318.6 211.1V312.6Z" fill="#2B2B2B"/>
<path d="M395.5 356.9L438 332.2V231.4L395.5 254.3V356.9Z" fill="#1C1C1C"/>
<path d="M333.4 219.7V321.1L395.5 356.5V255.3L333.4 219.7Z" fill="#3D3D3D"/>
<path d="M395.5 259.1V357.4L405.9 351.4V253L395.5 259.1Z" fill="#1C1C1C"/>
<path d="M320.6 311.5L318.6 312.6V307.9L320.6 306.7V311.5Z" fill="#2B2B2B"/>
<path d="M420.9 342.5L405.9 351V346.3L420.9 337.7V342.5Z" fill="#282828"/>
<path d="M420.9 342.5L425 344.9V340.1L420.9 337.7V342.5Z" fill="#2B2B2B"/>
<path d="M450.6 325V330.2L425 344.9V340.1L450.6 325Z" fill="#484848"/>
<path d="M320.6 311.5L333.4 319V314.2L320.6 306.7V311.5Z" fill="#282828"/>
<path d="M306 305.3L318.6 312.6V307.9L306 300.6V305.3Z" fill="#1A1A1A"/>
<path d="M395.5 360.3L405.9 354.3V349.5L395.5 355.5V360.3Z" fill="#484848"/>
<path d="M333.4 319.7V324.4L395.5 360.3V355.5L333.4 319.7Z" fill="#1A1A1A"/>
<path d="M420.9 241.3L405.9 249.8V248.3L403 246.7L420.9 236.5V241.3Z" fill="#282828"/>
<path d="M420.9 241.3L425 243.7V238.8L420.9 236.5V241.3Z" fill="#2B2B2B"/>
<path d="M450.6 224.1V228.9L425 243.7V238.8L450.6 224.1Z" fill="#484848"/>
<path d="M306 204.1L318.6 211.4L318.7 206.6L306 199.3V204.1Z" fill="#1A1A1A"/>
<path d="M395.5 259.1L405.9 253V248.3L395.5 254.3V259.1Z" fill="#484848"/>
<path d="M333.4 218.4V223.2L395.5 259.1V254.3L333.4 218.4Z" fill="#1A1A1A"/>
<path d="M320.6 210.2L338.3 220.6V215.8L320.6 205.5V210.2Z" fill="#282828"/>
<path d="M320.6 210.2L318.6 211.4V206.7L320.6 205.5V210.2Z" fill="#2B2B2B"/>
<path d="M395.5 254.3L333.5 218.4L338.3 215.8L320.6 205.5L318.6 206.7L306 199.3L356.8 170L450.6 224.1L425.1 238.8L421 236.5L403.1 246.7L405.9 248.3L395.5 254.3Z" fill="#282828"/>
<path d="M450.6 228.9V325L425 340.1V243.7L450.6 228.9Z" fill="#1C1C1C"/>
<path d="M329.2 232.2V244.6L325.1 242.2V229.8L329.2 232.2Z" fill="#1C1C1C"/>
<path d="M325.1 230.1V241.7L324.5 242.1V229.7L325.1 230.1Z" fill="#6D6E71"/>
<path d="M329.2 244V244.7L324.6 242L325.1 241.7L329.2 244Z" fill="#6D6E71"/>
<path d="M325.1 230.1V241.7L324.4 242.1V229.7L325.1 230.1Z" fill="#555555"/>
<path d="M329.2 244.1V244.8L324.5 242L325.1 241.7L329.2 244.1Z" fill="#282828"/>
<path fill-rule="evenodd" clip-rule="evenodd" d="M329.8 232.3V245.6L324 242.3V229L329.8 232.3ZM329.3 232.6L324.6 229.9V242L329.3 244.7V232.6Z" fill="#58595B"/>
<path d="M329.2 256.6V269L325.1 266.5V254.1L329.2 256.6Z" fill="#1C1C1C"/>
<path d="M325.1 254.4V266L324.5 266.4V254L325.1 254.4Z" fill="#6D6E71"/>
<path d="M329.2 268.4V269.1L324.6 266.3L325.1 266L329.2 268.4Z" fill="#6D6E71"/>
<path d="M325.1 254.4V266.1L324.4 266.4V254L325.1 254.4Z" fill="#555555"/>
<path d="M329.2 268.4V269.1L324.5 266.3L325.1 266L329.2 268.4Z" fill="#282828"/>
<path fill-rule="evenodd" clip-rule="evenodd" d="M329.8 256.7V270L324 266.7V253.4L329.8 256.7ZM329.3 256.9L324.6 254.3V266.4L329.3 269.1V256.9Z" fill="#58595B"/>
<path d="M329.2 281V293.4L325.1 290.9V278.6L329.2 281Z" fill="#1C1C1C"/>
<path d="M325.1 278.9V290.5L324.5 290.9V278.5L325.1 278.9Z" fill="#6D6E71"/>
<path d="M329.2 292.8V293.5L324.6 290.8L325.1 290.5L329.2 292.8Z" fill="#6D6E71"/>
<path d="M325.1 278.9V290.5L324.4 290.9V278.5L325.1 278.9Z" fill="#555555"/>
<path d="M329.2 292.9V293.6L324.5 290.8L325.1 290.5L329.2 292.9Z" fill="#282828"/>
<path fill-rule="evenodd" clip-rule="evenodd" d="M329.8 281.2V294.4L324 291.1V277.9L329.8 281.2ZM329.3 281.4L324.6 278.7V290.9L329.3 293.6V281.4Z" fill="#58595B"/>
<path d="M431.2 248.7V262.4L443.6 255.2L431.6 262.2V248.4L431.2 248.7Z" fill="#1C1C1C"/>
<path d="M431.2 248.3V262L443.6 254.8V241.1L431.2 248.3Z" fill="black"/>
<path d="M431.6 248.4L443.6 241.5V254.3L444.3 254.7V241L431.6 248.4Z" fill="#6D6E71"/>
<path d="M431.2 261.3V262.2L444.2 254.7L443.6 254.3L431.2 261.3Z" fill="#6D6E71"/>
<path d="M431.6 248.4L443.6 241.5V254.4L444.4 254.7V241L431.6 248.4Z" fill="#3D3D3D"/>
<path d="M431.2 261.4V262.3L444.3 254.7L443.6 254.3L431.2 261.4Z" fill="#282828"/>
<path d="M437.6 244.8V257.7L438.4 258.1V244.4L437.6 244.8Z" fill="#3D3D3D"/>
<path d="M438.9 243.8V257.8L438.4 258.1V244.4L438.9 243.8Z" fill="#555555"/>
<path fill-rule="evenodd" clip-rule="evenodd" d="M444.8 240.3V255L431.2 262.9V248.2L444.8 240.3ZM431.7 262L444.3 254.6V241.2L431.7 248.4V262Z" fill="#58595B"/>
<path d="M411.3 259.7V273.3L415.8 270.6V257L411.3 259.7Z" fill="black"/>
<path d="M415.8 257.4V270.1L416.5 270.5V257L415.8 257.4Z" fill="#6D6E71"/>
<path d="M411.3 272.7V273.4L416.4 270.4L415.8 270.1L411.3 272.7Z" fill="#6D6E71"/>
<path d="M415.8 257.4V270.2L416.6 270.5V257L415.8 257.4Z" fill="#3D3D3D"/>
<path d="M411.3 272.7V273.5L416.5 270.5L415.8 270.1L411.3 272.7Z" fill="#282828"/>
<path fill-rule="evenodd" clip-rule="evenodd" d="M417 256.3V270.8L410.7 274.4V259.8L417 256.3ZM411.3 273.5L416.5 270.5V257.2L411.3 260.1V273.5Z" fill="#58595B"/>
<path d="M430.9 274.8V288.6L443.4 281.3L431.4 288.3V274.5L430.9 274.8Z" fill="#1C1C1C"/>
<path d="M430.9 274.4V288.2L443.4 280.9V267.2L430.9 274.4Z" fill="black"/>
<path d="M431.3 274.5L443.3 267.6V280.4L444.1 280.9V267.2L431.3 274.5Z" fill="#6D6E71"/>
<path d="M430.9 287.4V288.3L443.9 280.8L443.3 280.4L430.9 287.4Z" fill="#6D6E71"/>
<path d="M431.4 274.5L443.4 267.6V280.5L444.1 280.9V267.1L431.4 274.5Z" fill="#3D3D3D"/>
<path d="M430.9 287.5V288.4L444 280.8L443.3 280.4L430.9 287.5Z" fill="#282828"/>
<path d="M437.4 271V283.9L438.1 284.2V270.5L437.4 271Z" fill="#3D3D3D"/>
<path d="M438.6 269.9V284L438.1 284.2V270.5L438.6 269.9Z" fill="#555555"/>
<path fill-rule="evenodd" clip-rule="evenodd" d="M444.5 266.5V281.1L430.9 289V274.3L444.5 266.5ZM431.5 288.2L444 280.9V267.4L431.5 274.7V288.2Z" fill="#58595B"/>
<path d="M411 285.8V299.4L415.5 296.7V283.2L411 285.8Z" fill="black"/>
<path d="M415.5 283.5V296.2L416.2 296.6V283.1L415.5 283.5Z" fill="#6D6E71"/>
<path d="M411 298.8V299.6L416.1 296.6L415.5 296.2L411 298.8Z" fill="#6D6E71"/>
<path d="M415.5 283.5V296.3L416.3 296.6V283.1L415.5 283.5Z" fill="#3D3D3D"/>
<path d="M411 298.8V299.6L416.2 296.6L415.5 296.2L411 298.8Z" fill="#282828"/>
<path fill-rule="evenodd" clip-rule="evenodd" d="M416.7 282.4V296.9L410.4 300.5V286L416.7 282.4ZM411 299.5L416.2 296.5V283.2L411 286.2V299.5Z" fill="#58595B"/>
<path d="M430.9 300.6V314.4L443.4 307.2L431.4 314.1V300.4L430.9 300.6Z" fill="#1C1C1C"/>
<path d="M430.9 300.3V314L443.4 306.8V293.1L430.9 300.3Z" fill="black"/>
<path d="M431.3 300.4L443.3 293.4V306.3L444.1 306.7V293L431.3 300.4Z" fill="#6D6E71"/>
<path d="M430.9 313.3V314.2L443.9 306.6L443.3 306.3L430.9 313.3Z" fill="#6D6E71"/>
<path d="M431.4 300.4L443.4 293.4V306.3L444.1 306.7V293L431.4 300.4Z" fill="#3D3D3D"/>
<path d="M430.9 313.4V314.3L444 306.7L443.4 306.3L430.9 313.4Z" fill="#282828"/>
<path d="M437.4 296.8V309.7L438.1 310.1V296.4L437.4 296.8Z" fill="#3D3D3D"/>
<path d="M438.6 295.7V309.8L438.1 310.1V296.4L438.6 295.7Z" fill="#555555"/>
<path fill-rule="evenodd" clip-rule="evenodd" d="M444.5 292.3V307L430.9 314.9V300.2L444.5 292.3ZM431.5 313.9L444 306.6V293.2L431.5 300.4V313.9Z" fill="#58595B"/>
<path d="M411 311.7V325.3L415.5 322.6V309L411 311.7Z" fill="black"/>
<path d="M415.5 309.4V322L416.2 322.5V308.9L415.5 309.4Z" fill="#6D6E71"/>
<path d="M411 324.6V325.4L416.1 322.4L415.5 322L411 324.6Z" fill="#6D6E71"/>
<path d="M415.5 309.4V322.1L416.3 322.5V308.9L415.5 309.4Z" fill="#3D3D3D"/>
<path d="M411 324.7V325.5L416.2 322.4L415.5 322.1L411 324.7Z" fill="#282828"/>
<path fill-rule="evenodd" clip-rule="evenodd" d="M416.7 308.2V322.7L410.4 326.3V311.8L416.7 308.2ZM411 325.4L416.2 322.4V309.1L411 312V325.4Z" fill="#58595B"/>
<path d="M388.8 265.4V279.2L376.3 272V271.9L388.3 278.9V265.2L388.8 265.4Z" fill="#1C1C1C"/>
<path d="M388.7 265V278.8L376.3 271.6V257.8L388.7 265Z" fill="black"/>
<path d="M388.4 265.1L376.4 258.2V271L375.6 271.5V257.8L388.4 265.1Z" fill="#6D6E71"/>
<path d="M388.7 278V279L375.7 271.4L376.4 271L388.7 278Z" fill="#6D6E71"/>
<path d="M388.3 265.1L376.3 258.2V271.1L375.6 271.5V257.8L388.3 265.1Z" fill="#3D3D3D"/>
<path d="M388.8 278.1V279L375.7 271.4L376.3 271L388.8 278.1Z" fill="#282828"/>
<path d="M382.3 261.6V274.5L381.6 274.9V261.1L382.3 261.6Z" fill="#3D3D3D"/>
<path d="M381.1 260.5V274.6L381.6 274.9V261.1L381.1 260.5Z" fill="#555555"/>
<path fill-rule="evenodd" clip-rule="evenodd" d="M388.8 264.9V279.6L375.2 271.7V257.1L388.8 264.9ZM388.2 265.1L375.7 257.9V271.4L388.2 278.7V265.1Z" fill="#58595B"/>
<path d="M371.6 255.5V269.2L359.2 262L371.2 269V255.2L371.6 255.5Z" fill="#1C1C1C"/>
<path d="M371.6 255.1V268.8L359.2 261.6V247.9L371.6 255.1Z" fill="black"/>
<path d="M371.2 255.2L359.2 248.3V261.1L358.5 261.5V247.8L371.2 255.2Z" fill="#6D6E71"/>
<path d="M371.6 268.1V269L358.6 261.4L359.2 261.1L371.6 268.1Z" fill="#6D6E71"/>
<path d="M371.2 255.2L359.2 248.3V261.2L358.4 261.5V247.8L371.2 255.2Z" fill="#3D3D3D"/>
<path d="M371.6 268.2V269.1L358.5 261.5L359.2 261.1L371.6 268.2Z" fill="#282828"/>
<path d="M365.2 251.6V264.5L364.4 264.9V251.2L365.2 251.6Z" fill="#3D3D3D"/>
<path d="M363.9 250.6V264.6L364.4 264.9V251.2L363.9 250.6Z" fill="#555555"/>
<path fill-rule="evenodd" clip-rule="evenodd" d="M371.6 255V269.7L358 261.8V247.1L371.6 255ZM371.1 255.3L358.5 248.1V261.5L371.1 268.8V255.3Z" fill="#58595B"/>
<path d="M388.4 291V304.8L375.9 297.5L387.9 304.5V290.8L388.4 291Z" fill="#1C1C1C"/>
<path d="M388.4 290.6V304.4L375.9 297.2V283.4L388.4 290.6Z" fill="black"/>
<path d="M388 290.7L376 283.8V296.6L375.2 297.1V283.4L388 290.7Z" fill="#6D6E71"/>
<path d="M388.4 303.6V304.5L375.4 297L376 296.6L388.4 303.6Z" fill="#6D6E71"/>
<path d="M387.9 290.7L375.9 283.8V296.7L375.2 297.1V283.3L387.9 290.7Z" fill="#3D3D3D"/>
<path d="M388.4 303.7V304.6L375.3 297L375.9 296.6L388.4 303.7Z" fill="#282828"/>
<path d="M381.9 287.2V300.1L381.2 300.5V286.7L381.9 287.2Z" fill="#3D3D3D"/>
<path d="M380.7 286.1V300.1L381.2 300.5V286.7L380.7 286.1Z" fill="#555555"/>
<path fill-rule="evenodd" clip-rule="evenodd" d="M388.4 290.5V305.2L374.8 297.3V282.7L388.4 290.5ZM387.8 290.7L375.3 283.5V296.9L387.8 304.3V290.7Z" fill="#58595B"/>
<path d="M371.2 281.1V294.8L358.8 287.6L370.8 294.6V280.8L371.2 281.1Z" fill="#1C1C1C"/>
<path d="M371.2 280.7V294.4L358.8 287.2V273.5L371.2 280.7Z" fill="black"/>
<path d="M370.8 280.8L358.8 273.8V286.7L358.1 287.1V273.4L370.8 280.8Z" fill="#6D6E71"/>
<path d="M371.2 293.7V294.6L358.2 287L358.8 286.7L371.2 293.7Z" fill="#6D6E71"/>
<path d="M370.8 280.8L358.8 273.8V286.8L358 287.1V273.4L370.8 280.8Z" fill="#3D3D3D"/>
<path d="M371.2 293.8V294.7L358.1 287.1L358.8 286.7L371.2 293.8Z" fill="#282828"/>
<path d="M364.8 277.2V290.1L364 290.5V276.8L364.8 277.2Z" fill="#3D3D3D"/>
<path d="M363.5 276.2V290.2L364 290.5V276.8L363.5 276.2Z" fill="#555555"/>
<path fill-rule="evenodd" clip-rule="evenodd" d="M371.2 280.6V295.3L357.6 287.4V272.7L371.2 280.6ZM370.7 280.9L358.2 273.6V287.1L370.7 294.4V280.9Z" fill="#58595B"/>
<path d="M388.4 317.1V330.8L375.9 323.6L387.9 330.5V316.8L388.4 317.1Z" fill="#1C1C1C"/>
<path d="M388.4 316.7V330.4L375.9 323.2V309.5L388.4 316.7Z" fill="black"/>
<path d="M388 316.8L376 309.8V322.7L375.2 323.1V309.4L388 316.8Z" fill="#6D6E71"/>
<path d="M388.4 329.7V330.6L375.4 323L376 322.7L388.4 329.7Z" fill="#6D6E71"/>
<path d="M387.9 316.8L375.9 309.8V322.7L375.2 323.1V309.4L387.9 316.8Z" fill="#3D3D3D"/>
<path d="M388.4 329.8V330.7L375.3 323.1L375.9 322.7L388.4 329.8Z" fill="#282828"/>
<path d="M381.9 313.2V326.1L381.2 326.5V312.8L381.9 313.2Z" fill="#3D3D3D"/>
<path d="M380.7 312.1V326.2L381.2 326.5V312.8L380.7 312.1Z" fill="#555555"/>
<path fill-rule="evenodd" clip-rule="evenodd" d="M388.4 316.6V331.3L374.8 323.4V308.7L388.4 316.6ZM387.8 316.9L375.3 309.6V323.1L387.8 330.4V316.9Z" fill="#58595B"/>
<path d="M371.2 307.1V320.9L358.8 313.6L370.8 320.6V306.9L371.2 307.1Z" fill="#1C1C1C"/>
<path d="M371.2 306.7V320.5L358.8 313.3V299.5L371.2 306.7Z" fill="black"/>
<path d="M370.8 306.8L358.8 299.9V312.7L358.1 313.2V299.5L370.8 306.8Z" fill="#6D6E71"/>
<path d="M371.2 319.7V320.7L358.2 313.1L358.8 312.7L371.2 319.7Z" fill="#6D6E71"/>
<path d="M370.8 306.8L358.8 299.9V312.8L358 313.2V299.4L370.8 306.8Z" fill="#3D3D3D"/>
<path d="M371.2 319.8V320.7L358.1 313.1L358.8 312.7L371.2 319.8Z" fill="#282828"/>
<path d="M364.8 303.3V316.2L364 316.6V302.8L364.8 303.3Z" fill="#3D3D3D"/>
<path d="M363.5 302.2V316.3L364 316.6V302.8L363.5 302.2Z" fill="#555555"/>
<path fill-rule="evenodd" clip-rule="evenodd" d="M371.2 306.6V321.3L357.6 313.4V298.8L371.2 306.6ZM370.7 306.8L358.2 299.6V313L370.7 320.4V306.8Z" fill="#58595B"/>
<path d="M354.5 245.6V259.3L342 252.1L354 259.1V245.3L354.5 245.6Z" fill="#1C1C1C"/>
<path d="M354.4 245.2V258.9L342 251.7V238L354.4 245.2Z" fill="black"/>
<path d="M354.1 245.3L342.1 238.4V251.2L341.3 251.6V237.9L354.1 245.3Z" fill="#6D6E71"/>
<path d="M354.4 258.2V259.1L341.4 251.5L342.1 251.2L354.4 258.2Z" fill="#6D6E71"/>
<path d="M354 245.3L342 238.3V251.3L341.3 251.6V237.9L354 245.3Z" fill="#3D3D3D"/>
<path d="M354.5 258.3V259.2L341.4 251.6L342 251.2L354.5 258.3Z" fill="#282828"/>
<path d="M348 241.7V254.6L347.3 255V241.3L348 241.7Z" fill="#3D3D3D"/>
<path d="M346.8 240.7V254.7L347.3 255V241.3L346.8 240.7Z" fill="#555555"/>
<path fill-rule="evenodd" clip-rule="evenodd" d="M354.5 245.1V259.8L340.9 251.9V237.2L354.5 245.1ZM353.9 245.4L341.4 238.1V251.6L353.9 258.9V245.4Z" fill="#58595B"/>
<path d="M354.1 271.2V284.9L341.6 277.7L353.6 284.6V270.9L354.1 271.2Z" fill="#1C1C1C"/>
<path d="M354.1 270.8V284.5L341.6 277.3V263.6L354.1 270.8Z" fill="black"/>
<path d="M353.7 270.9L341.7 263.9V276.8L340.9 277.2V263.5L353.7 270.9Z" fill="#6D6E71"/>
<path d="M354.1 283.8V284.7L341.1 277.1L341.7 276.8L354.1 283.8Z" fill="#6D6E71"/>
<path d="M353.6 270.9L341.6 263.9V276.9L340.9 277.2V263.5L353.6 270.9Z" fill="#3D3D3D"/>
<path d="M354.1 283.9V284.8L341 277.2L341.7 276.8L354.1 283.9Z" fill="#282828"/>
<path d="M347.6 267.3V280.2L346.9 280.6V266.9L347.6 267.3Z" fill="#3D3D3D"/>
<path d="M346.4 266.2V280.3L346.9 280.6V266.9L346.4 266.2Z" fill="#555555"/>
<path fill-rule="evenodd" clip-rule="evenodd" d="M354.1 270.7V285.4L340.5 277.5V262.8L354.1 270.7ZM353.5 271L341 263.7V277.2L353.5 284.5V271Z" fill="#58595B"/>
<path d="M354.1 297.2V311L341.6 303.7L353.6 310.7V297L354.1 297.2Z" fill="#1C1C1C"/>
<path d="M354.1 296.8V310.6L341.6 303.4V289.6L354.1 296.8Z" fill="black"/>
<path d="M353.7 296.9L341.7 290V302.8L340.9 303.3V289.6L353.7 296.9Z" fill="#6D6E71"/>
<path d="M354.1 309.8V310.7L341.1 303.2L341.7 302.8L354.1 309.8Z" fill="#6D6E71"/>
<path d="M353.6 296.9L341.6 290V302.9L340.9 303.3V289.5L353.6 296.9Z" fill="#3D3D3D"/>
<path d="M354.1 309.9V310.8L341 303.2L341.7 302.8L354.1 309.9Z" fill="#282828"/>
<path d="M347.6 293.4V306.3L346.9 306.7V292.9L347.6 293.4Z" fill="#3D3D3D"/>
<path d="M346.4 292.3V306.4L346.9 306.7V292.9L346.4 292.3Z" fill="#555555"/>
<path fill-rule="evenodd" clip-rule="evenodd" d="M354.1 296.7V311.4L340.5 303.5V288.9L354.1 296.7ZM353.5 296.9L341 289.7V303.1L353.5 310.5V296.9Z" fill="#58595B"/>
<path d="M420.9 337.7L425 340.1V243.7L420.9 241.3V337.7Z" fill="#2B2B2B"/>
<path d="M12 39.6001L12.1 143.2L52 166.3V63.2001L12 39.6001Z" fill="#3D3D3D"/>
<path d="M10 42.8999V144.3L22.6 151.6V50.0999L10 42.8999Z" fill="#3D3D3D"/>
<path d="M22.6 151.6L24.6 150.5V49L22.6 50.1V151.6Z" fill="#2B2B2B"/>
<path d="M99.5 195.9L142 171.2V70.3999L99.5 93.2999V195.9Z" fill="#1C1C1C"/>
<path d="M37.4 58.7V160.1L99.5 195.5V94.2999L37.4 58.7Z" fill="#3D3D3D"/>
<path d="M99.5 98.1V196.4L109.9 190.4V92L99.5 98.1Z" fill="#1C1C1C"/>
<path d="M24.6 150.5L22.6 151.6V146.9L24.6 145.7V150.5Z" fill="#2B2B2B"/>
<path d="M124.9 181.5L109.9 190V185.3L124.9 176.7V181.5Z" fill="#282828"/>
<path d="M124.9 181.5L129 183.9V179.1L124.9 176.7V181.5Z" fill="#2B2B2B"/>
<path d="M154.6 164V169.2L129 183.9V179.1L154.6 164Z" fill="#484848"/>
<path d="M24.6 150.5L37.4 158V153.2L24.6 145.7V150.5Z" fill="#282828"/>
<path d="M10 144.3L22.6 151.6V146.9L10 139.6V144.3Z" fill="#1A1A1A"/>
<path d="M99.5 199.3L109.9 193.3V188.5L99.5 194.5V199.3Z" fill="#484848"/>
<path d="M37.4 158.7V163.4L99.5 199.3V194.5L37.4 158.7Z" fill="#1A1A1A"/>
<path d="M124.9 80.3L109.9 88.8V87.3L107 85.7L124.9 75.5V80.3Z" fill="#282828"/>
<path d="M124.9 80.3L129 82.7V77.8L124.9 75.5V80.3Z" fill="#2B2B2B"/>
<path d="M154.6 63.1001V67.9001L129 82.7001V77.8001L154.6 63.1001Z" fill="#484848"/>
<path d="M10 43.1001L22.6 50.4001L22.7 45.6001L10 38.3V43.1001Z" fill="#1A1A1A"/>
<path d="M99.5 98.1L109.9 92.0001V87.3L99.5 93.3V98.1Z" fill="#484848"/>
<path d="M37.4 57.4001V62.2002L99.5 98.1001V93.3001L37.4 57.4001Z" fill="#1A1A1A"/>
<path d="M24.6 49.2L42.3 59.6V54.8L24.6 44.5V49.2Z" fill="#282828"/>
<path d="M24.6 49.2L22.6 50.4V45.7L24.6 44.5V49.2Z" fill="#2B2B2B"/>
<path d="M99.5 93.3L37.5 57.4L42.3 54.8L24.6 44.5L22.6 45.7L10 38.3L60.8 9L154.6 63.1L129.1 77.8L125 75.5L107.1 85.7L109.9 87.3L99.5 93.3Z" fill="#282828"/>
<path d="M154.6 67.8999V164L129 179.1V82.6999L154.6 67.8999Z" fill="#1C1C1C"/>
<path d="M33.2 71.2001V83.6L29.1 81.2001V68.8L33.2 71.2001Z" fill="#1C1C1C"/>
<path d="M29.1 69.0999V80.7L28.5 81.0999V68.7L29.1 69.0999Z" fill="#6D6E71"/>
<path d="M33.2 82.9999V83.7L28.6 80.9999L29.1 80.7L33.2 82.9999Z" fill="#6D6E71"/>
<path d="M29.1 69.0999V80.7L28.4 81.0999V68.7L29.1 69.0999Z" fill="#555555"/>
<path d="M33.2 83.0999V83.7999L28.5 80.9999L29.1 80.7L33.2 83.0999Z" fill="#282828"/>
<path fill-rule="evenodd" clip-rule="evenodd" d="M33.8 71.3V84.6L28 81.3V68L33.8 71.3ZM33.3 71.6L28.6 68.9V81L33.3 83.7V71.6Z" fill="#58595B"/>
<path d="M33.2 95.5999V108L29.1 105.5V93.0999L33.2 95.5999Z" fill="#1C1C1C"/>
<path d="M29.1 93.4V105L28.5 105.4V93L29.1 93.4Z" fill="#6D6E71"/>
<path d="M33.2 107.4V108.1L28.6 105.3L29.1 105L33.2 107.4Z" fill="#6D6E71"/>
<path d="M29.1 93.4V105.1L28.4 105.4V93L29.1 93.4Z" fill="#555555"/>
<path d="M33.2 107.4V108.1L28.5 105.3L29.1 105L33.2 107.4Z" fill="#282828"/>
<path fill-rule="evenodd" clip-rule="evenodd" d="M33.8 95.6999V109L28 105.7V92.3999L33.8 95.6999ZM33.3 95.8999L28.6 93.2999V105.4L33.3 108.1V95.8999Z" fill="#58595B"/>
<path d="M33.2 120V132.4L29.1 129.9V117.6L33.2 120Z" fill="#1C1C1C"/>
<path d="M29.1 117.9V129.5L28.5 129.9V117.5L29.1 117.9Z" fill="#6D6E71"/>
<path d="M33.2 131.8V132.5L28.6 129.8L29.1 129.5L33.2 131.8Z" fill="#6D6E71"/>
<path d="M29.1 117.9V129.5L28.4 129.9V117.5L29.1 117.9Z" fill="#555555"/>
<path d="M33.2 131.9V132.6L28.5 129.8L29.1 129.5L33.2 131.9Z" fill="#282828"/>
<path fill-rule="evenodd" clip-rule="evenodd" d="M33.8 120.2V133.4L28 130.1V116.9L33.8 120.2ZM33.3 120.4L28.6 117.7V129.9L33.3 132.6V120.4Z" fill="#58595B"/>
<path d="M135.2 87.7001V101.4L147.6 94.2001L135.6 101.2V87.4001L135.2 87.7001Z" fill="#1C1C1C"/>
<path d="M135.2 87.3001V101L147.6 93.8001V80.1001L135.2 87.3001Z" fill="black"/>
<path d="M135.6 87.4L147.6 80.5V93.3L148.3 93.7V80L135.6 87.4Z" fill="#6D6E71"/>
<path d="M135.2 100.3V101.2L148.2 93.7001L147.6 93.3L135.2 100.3Z" fill="#6D6E71"/>
<path d="M135.6 87.4L147.6 80.5V93.4L148.4 93.7V80L135.6 87.4Z" fill="#3D3D3D"/>
<path d="M135.2 100.4V101.3L148.3 93.7001L147.6 93.3L135.2 100.4Z" fill="#282828"/>
<path d="M141.6 83.8001V96.7001L142.4 97.1001V83.4001L141.6 83.8001Z" fill="#3D3D3D"/>
<path d="M142.9 82.8V96.8L142.4 97.1V83.4001L142.9 82.8Z" fill="#555555"/>
<path fill-rule="evenodd" clip-rule="evenodd" d="M148.8 79.3V94.0001L135.2 101.9V87.2001L148.8 79.3ZM135.7 101L148.3 93.6V80.2001L135.7 87.4001V101Z" fill="#58595B"/>
<path d="M115.3 98.7V112.3L119.8 109.6V96L115.3 98.7Z" fill="black"/>
<path d="M119.8 96.4V109.1L120.5 109.5V96L119.8 96.4Z" fill="#6D6E71"/>
<path d="M115.3 111.7V112.4L120.4 109.4L119.8 109.1L115.3 111.7Z" fill="#6D6E71"/>
<path d="M119.8 96.4V109.2L120.6 109.5V96L119.8 96.4Z" fill="#3D3D3D"/>
<path d="M115.3 111.7V112.5L120.5 109.5L119.8 109.1L115.3 111.7Z" fill="#282828"/>
<path fill-rule="evenodd" clip-rule="evenodd" d="M121 95.3V109.8L114.7 113.4V98.8L121 95.3ZM115.3 112.5L120.5 109.5V96.2001L115.3 99.1V112.5Z" fill="#58595B"/>
<path d="M134.9 113.8V127.6L147.4 120.3L135.4 127.3V113.5L134.9 113.8Z" fill="#1C1C1C"/>
<path d="M134.9 113.4V127.2L147.4 119.9V106.2L134.9 113.4Z" fill="black"/>
<path d="M135.3 113.5L147.3 106.6V119.4L148.1 119.9V106.2L135.3 113.5Z" fill="#6D6E71"/>
<path d="M134.9 126.4V127.3L147.9 119.8L147.3 119.4L134.9 126.4Z" fill="#6D6E71"/>
<path d="M135.4 113.5L147.4 106.6V119.5L148.1 119.9V106.1L135.4 113.5Z" fill="#3D3D3D"/>
<path d="M134.9 126.5V127.4L148 119.8L147.3 119.4L134.9 126.5Z" fill="#282828"/>
<path d="M141.4 110V122.9L142.1 123.2V109.5L141.4 110Z" fill="#3D3D3D"/>
<path d="M142.6 108.9V123L142.1 123.2V109.5L142.6 108.9Z" fill="#555555"/>
<path fill-rule="evenodd" clip-rule="evenodd" d="M148.5 105.5V120.1L134.9 128V113.3L148.5 105.5ZM135.5 127.2L148 119.9V106.4L135.5 113.7V127.2Z" fill="#58595B"/>
<path d="M115 124.8V138.4L119.5 135.7V122.2L115 124.8Z" fill="black"/>
<path d="M119.5 122.5V135.2L120.2 135.6V122.1L119.5 122.5Z" fill="#6D6E71"/>
<path d="M115 137.8V138.6L120.1 135.6L119.5 135.2L115 137.8Z" fill="#6D6E71"/>
<path d="M119.5 122.5V135.3L120.3 135.6V122.1L119.5 122.5Z" fill="#3D3D3D"/>
<path d="M115 137.8V138.6L120.2 135.6L119.5 135.2L115 137.8Z" fill="#282828"/>
<path fill-rule="evenodd" clip-rule="evenodd" d="M120.7 121.4V135.9L114.4 139.5V125L120.7 121.4ZM115 138.5L120.2 135.5V122.2L115 125.2V138.5Z" fill="#58595B"/>
<path d="M134.9 139.6V153.4L147.4 146.2L135.4 153.1V139.4L134.9 139.6Z" fill="#1C1C1C"/>
<path d="M134.9 139.3V153L147.4 145.8V132.1L134.9 139.3Z" fill="black"/>
<path d="M135.3 139.4L147.3 132.4V145.3L148.1 145.7V132L135.3 139.4Z" fill="#6D6E71"/>
<path d="M134.9 152.3V153.2L147.9 145.6L147.3 145.3L134.9 152.3Z" fill="#6D6E71"/>
<path d="M135.4 139.4L147.4 132.4V145.3L148.1 145.7V132L135.4 139.4Z" fill="#3D3D3D"/>
<path d="M134.9 152.4V153.3L148 145.7L147.4 145.3L134.9 152.4Z" fill="#282828"/>
<path d="M141.4 135.8V148.7L142.1 149.1V135.4L141.4 135.8Z" fill="#3D3D3D"/>
<path d="M142.6 134.7V148.8L142.1 149.1V135.4L142.6 134.7Z" fill="#555555"/>
<path fill-rule="evenodd" clip-rule="evenodd" d="M148.5 131.3V146L134.9 153.9V139.2L148.5 131.3ZM135.5 152.9L148 145.6V132.2L135.5 139.4V152.9Z" fill="#58595B"/>
<path d="M115 150.7V164.3L119.5 161.6V148L115 150.7Z" fill="black"/>
<path d="M119.5 148.4V161L120.2 161.5V147.9L119.5 148.4Z" fill="#6D6E71"/>
<path d="M115 163.6V164.4L120.1 161.4L119.5 161L115 163.6Z" fill="#6D6E71"/>
<path d="M119.5 148.4V161.1L120.3 161.5V147.9L119.5 148.4Z" fill="#3D3D3D"/>
<path d="M115 163.7V164.5L120.2 161.4L119.5 161.1L115 163.7Z" fill="#282828"/>
<path fill-rule="evenodd" clip-rule="evenodd" d="M120.7 147.2V161.7L114.4 165.3V150.8L120.7 147.2ZM115 164.4L120.2 161.4V148.1L115 151V164.4Z" fill="#58595B"/>
<path d="M92.8 104.4V118.2L80.3 111V110.9L92.3 117.9V104.2L92.8 104.4Z" fill="#1C1C1C"/>
<path d="M92.7 104V117.8L80.3 110.6V96.7998L92.7 104Z" fill="black"/>
<path d="M92.4 104.1L80.4 97.1998V110L79.6 110.5V96.7998L92.4 104.1Z" fill="#6D6E71"/>
<path d="M92.7 117V118L79.7 110.4L80.4 110L92.7 117Z" fill="#6D6E71"/>
<path d="M92.3 104.1L80.3 97.1998V110.1L79.6 110.5V96.7998L92.3 104.1Z" fill="#3D3D3D"/>
<path d="M92.8 117.1V118L79.7 110.4L80.3 110L92.8 117.1Z" fill="#282828"/>
<path d="M86.3 100.6V113.5L85.6 113.9V100.1L86.3 100.6Z" fill="#3D3D3D"/>
<path d="M85.1 99.5V113.6L85.6 113.9V100.1L85.1 99.5Z" fill="#555555"/>
<path fill-rule="evenodd" clip-rule="evenodd" d="M92.8 103.9V118.6L79.2 110.7V96.0999L92.8 103.9ZM92.2 104.1L79.7 96.8999V110.4L92.2 117.7V104.1Z" fill="#58595B"/>
<path d="M75.6 94.4999V108.2L63.2 101L75.2 108V94.2L75.6 94.4999Z" fill="#1C1C1C"/>
<path d="M75.6 94.0999V107.8L63.2 100.6V86.8999L75.6 94.0999Z" fill="black"/>
<path d="M75.2 94.1998L63.2 87.2998V100.1L62.5 100.5V86.7998L75.2 94.1998Z" fill="#6D6E71"/>
<path d="M75.6 107.1V108L62.6 100.4L63.2 100.1L75.6 107.1Z" fill="#6D6E71"/>
<path d="M75.2 94.1998L63.2 87.2998V100.2L62.4 100.5V86.7998L75.2 94.1998Z" fill="#3D3D3D"/>
<path d="M75.6 107.2V108.1L62.5 100.5L63.2 100.1L75.6 107.2Z" fill="#282828"/>
<path d="M69.2 90.5999V103.5L68.4 103.9V90.2L69.2 90.5999Z" fill="#3D3D3D"/>
<path d="M67.9 89.5999V103.6L68.4 103.9V90.1999L67.9 89.5999Z" fill="#555555"/>
<path fill-rule="evenodd" clip-rule="evenodd" d="M75.6 93.9999V108.7L62 100.8V86.0999L75.6 93.9999ZM75.1 94.2999L62.5 87.0999V100.5L75.1 107.8V94.2999Z" fill="#58595B"/>
<path d="M92.4 130V143.8L79.9 136.5L91.9 143.5V129.8L92.4 130Z" fill="#1C1C1C"/>
<path d="M92.4 129.6V143.4L79.9 136.2V122.4L92.4 129.6Z" fill="black"/>
<path d="M92 129.7L80 122.8V135.6L79.2 136.1V122.4L92 129.7Z" fill="#6D6E71"/>
<path d="M92.4 142.6V143.5L79.4 136L80 135.6L92.4 142.6Z" fill="#6D6E71"/>
<path d="M91.9 129.7L79.9 122.8V135.7L79.2 136.1V122.3L91.9 129.7Z" fill="#3D3D3D"/>
<path d="M92.4 142.7V143.6L79.3 136L79.9 135.6L92.4 142.7Z" fill="#282828"/>
<path d="M85.9 126.2V139.1L85.2 139.5V125.7L85.9 126.2Z" fill="#3D3D3D"/>
<path d="M84.7 125.1V139.1L85.2 139.5V125.7L84.7 125.1Z" fill="#555555"/>
<path fill-rule="evenodd" clip-rule="evenodd" d="M92.4 129.5V144.2L78.8 136.3V121.7L92.4 129.5ZM91.8 129.7L79.3 122.5V135.9L91.8 143.3V129.7Z" fill="#58595B"/>
<path d="M75.2 120.1V133.8L62.8 126.6L74.8 133.6V119.8L75.2 120.1Z" fill="#1C1C1C"/>
<path d="M75.2 119.7V133.4L62.8 126.2V112.5L75.2 119.7Z" fill="black"/>
<path d="M74.8 119.8L62.8 112.8V125.7L62.1 126.1V112.4L74.8 119.8Z" fill="#6D6E71"/>
<path d="M75.2 132.7V133.6L62.2 126L62.8 125.7L75.2 132.7Z" fill="#6D6E71"/>
<path d="M74.8 119.8L62.8 112.8V125.8L62 126.1V112.4L74.8 119.8Z" fill="#3D3D3D"/>
<path d="M75.2 132.8V133.7L62.1 126.1L62.8 125.7L75.2 132.8Z" fill="#282828"/>
<path d="M68.8 116.2V129.1L68 129.5V115.8L68.8 116.2Z" fill="#3D3D3D"/>
<path d="M67.5 115.2V129.2L68 129.5V115.8L67.5 115.2Z" fill="#555555"/>
<path fill-rule="evenodd" clip-rule="evenodd" d="M75.2 119.6V134.3L61.6 126.4V111.7L75.2 119.6ZM74.7 119.9L62.2 112.6V126.1L74.7 133.4V119.9Z" fill="#58595B"/>
<path d="M92.4 156.1V169.8L79.9 162.6L91.9 169.5V155.8L92.4 156.1Z" fill="#1C1C1C"/>
<path d="M92.4 155.7V169.4L79.9 162.2V148.5L92.4 155.7Z" fill="black"/>
<path d="M92 155.8L80 148.8V161.7L79.2 162.1V148.4L92 155.8Z" fill="#6D6E71"/>
<path d="M92.4 168.7V169.6L79.4 162L80 161.7L92.4 168.7Z" fill="#6D6E71"/>
<path d="M91.9 155.8L79.9 148.8V161.7L79.2 162.1V148.4L91.9 155.8Z" fill="#3D3D3D"/>
<path d="M92.4 168.8V169.7L79.3 162.1L79.9 161.7L92.4 168.8Z" fill="#282828"/>
<path d="M85.9 152.2V165.1L85.2 165.5V151.8L85.9 152.2Z" fill="#3D3D3D"/>
<path d="M84.7 151.1V165.2L85.2 165.5V151.8L84.7 151.1Z" fill="#555555"/>
<path fill-rule="evenodd" clip-rule="evenodd" d="M92.4 155.6V170.3L78.8 162.4V147.7L92.4 155.6ZM91.8 155.9L79.3 148.6V162.1L91.8 169.4V155.9Z" fill="#58595B"/>
<path d="M75.2 146.1V159.9L62.8 152.6L74.8 159.6V145.9L75.2 146.1Z" fill="#1C1C1C"/>
<path d="M75.2 145.7V159.5L62.8 152.3V138.5L75.2 145.7Z" fill="black"/>
<path d="M74.8 145.8L62.8 138.9V151.7L62.1 152.2V138.5L74.8 145.8Z" fill="#6D6E71"/>
<path d="M75.2 158.7V159.7L62.2 152.1L62.8 151.7L75.2 158.7Z" fill="#6D6E71"/>
<path d="M74.8 145.8L62.8 138.9V151.8L62 152.2V138.4L74.8 145.8Z" fill="#3D3D3D"/>
<path d="M75.2 158.8V159.7L62.1 152.1L62.8 151.7L75.2 158.8Z" fill="#282828"/>
<path d="M68.8 142.3V155.2L68 155.6V141.8L68.8 142.3Z" fill="#3D3D3D"/>
<path d="M67.5 141.2V155.3L68 155.6V141.8L67.5 141.2Z" fill="#555555"/>
<path fill-rule="evenodd" clip-rule="evenodd" d="M75.2 145.6V160.3L61.6 152.4V137.8L75.2 145.6ZM74.7 145.8L62.2 138.6V152L74.7 159.4V145.8Z" fill="#58595B"/>
<path d="M58.5 84.5998V98.2998L46 91.0998L58 98.0998V84.2998L58.5 84.5998Z" fill="#1C1C1C"/>
<path d="M58.4 84.2V97.9L46 90.7V77L58.4 84.2Z" fill="black"/>
<path d="M58.1 84.2999L46.1 77.3999V90.1999L45.3 90.5999V76.8999L58.1 84.2999Z" fill="#6D6E71"/>
<path d="M58.4 97.2V98.0999L45.4 90.4999L46.1 90.2L58.4 97.2Z" fill="#6D6E71"/>
<path d="M58 84.2999L46 77.2999V90.2999L45.3 90.5999V76.8999L58 84.2999Z" fill="#3D3D3D"/>
<path d="M58.5 97.2999V98.2L45.4 90.5999L46 90.2L58.5 97.2999Z" fill="#282828"/>
<path d="M52 80.6998V93.5998L51.3 93.9998V80.2998L52 80.6998Z" fill="#3D3D3D"/>
<path d="M50.8 79.7V93.7L51.3 93.9999V80.2999L50.8 79.7Z" fill="#555555"/>
<path fill-rule="evenodd" clip-rule="evenodd" d="M58.5 84.0999V98.7999L44.9 90.9V76.2L58.5 84.0999ZM57.9 84.4L45.4 77.0999V90.5999L57.9 97.9V84.4Z" fill="#58595B"/>
<path d="M58.1 110.2V123.9L45.6 116.7L57.6 123.6V109.9L58.1 110.2Z" fill="#1C1C1C"/>
<path d="M58.1 109.8V123.5L45.6 116.3V102.6L58.1 109.8Z" fill="black"/>
<path d="M57.7 109.9L45.7 102.9V115.8L44.9 116.2V102.5L57.7 109.9Z" fill="#6D6E71"/>
<path d="M58.1 122.8V123.7L45.1 116.1L45.7 115.8L58.1 122.8Z" fill="#6D6E71"/>
<path d="M57.6 109.9L45.6 102.9V115.9L44.9 116.2V102.5L57.6 109.9Z" fill="#3D3D3D"/>
<path d="M58.1 122.9V123.8L45 116.2L45.7 115.8L58.1 122.9Z" fill="#282828"/>
<path d="M51.6 106.3V119.2L50.9 119.6V105.9L51.6 106.3Z" fill="#3D3D3D"/>
<path d="M50.4 105.2V119.3L50.9 119.6V105.9L50.4 105.2Z" fill="#555555"/>
<path fill-rule="evenodd" clip-rule="evenodd" d="M58.1 109.7V124.4L44.5 116.5V101.8L58.1 109.7ZM57.5 110L45 102.7V116.2L57.5 123.5V110Z" fill="#58595B"/>
<path d="M58.1 136.2V150L45.6 142.7L57.6 149.7V136L58.1 136.2Z" fill="#1C1C1C"/>
<path d="M58.1 135.8V149.6L45.6 142.4V128.6L58.1 135.8Z" fill="black"/>
<path d="M57.7 135.9L45.7 129V141.8L44.9 142.3V128.6L57.7 135.9Z" fill="#6D6E71"/>
<path d="M58.1 148.8V149.7L45.1 142.2L45.7 141.8L58.1 148.8Z" fill="#6D6E71"/>
<path d="M57.6 135.9L45.6 129V141.9L44.9 142.3V128.5L57.6 135.9Z" fill="#3D3D3D"/>
<path d="M58.1 148.9V149.8L45 142.2L45.7 141.8L58.1 148.9Z" fill="#282828"/>
<path d="M51.6 132.4V145.3L50.9 145.7V131.9L51.6 132.4Z" fill="#3D3D3D"/>
<path d="M50.4 131.3V145.4L50.9 145.7V131.9L50.4 131.3Z" fill="#555555"/>
<path fill-rule="evenodd" clip-rule="evenodd" d="M58.1 135.7V150.4L44.5 142.5V127.9L58.1 135.7ZM57.5 135.9L45 128.7V142.1L57.5 149.5V135.9Z" fill="#58595B"/>
<path d="M124.9 176.7L129 179.1V82.7001L124.9 80.3V176.7Z" fill="#2B2B2B"/>
<circle cx="20.5912" cy="20.5912" r="20.5912" transform="matrix(0.866025 -0.5 0.866025 0.5 347 213.591)" fill="#757575"/>
<path fill-rule="evenodd" clip-rule="evenodd" d="M383.441 215.014C380.92 215.014 378.558 214.748 376.495 214.286C376.058 214.188 375.782 213.938 375.782 213.668L375.784 212.65C375.784 211.815 374.761 211.225 373.498 211.225L370.969 211.225C369.286 211.225 367.922 212.013 367.921 212.984L367.921 213.795C367.921 214.717 368.74 215.575 370.098 216.109C373.445 217.428 378.163 218.263 383.441 218.263C388.718 218.263 393.436 217.427 396.784 216.109C398.141 215.574 398.96 214.717 398.96 213.795L398.96 212.985C398.96 212.013 397.596 211.226 395.914 211.226L393.386 211.226C392.123 211.226 391.099 211.817 391.101 212.545L391.102 213.669C391.102 213.939 390.826 214.189 390.389 214.287C388.325 214.749 385.962 215.014 383.441 215.014Z" fill="#282828"/>
<path d="M336 32.6001L336.1 136.2L376 159.3V56.2001L336 32.6001Z" fill="#3D3D3D"/>
<path d="M334 35.8999V137.3L346.6 144.6V43.0999L334 35.8999Z" fill="#3D3D3D"/>
<path d="M346.6 144.6L348.6 143.5V42L346.6 43.1V144.6Z" fill="#2B2B2B"/>
<path d="M423.5 188.9L466 164.2V63.3999L423.5 86.2999V188.9Z" fill="#1C1C1C"/>
<path d="M361.4 51.7V153.1L423.5 188.5V87.2999L361.4 51.7Z" fill="#3D3D3D"/>
<path d="M423.5 91.1V189.4L433.9 183.4V85L423.5 91.1Z" fill="#1C1C1C"/>
<path d="M348.6 143.5L346.6 144.6V139.9L348.6 138.7V143.5Z" fill="#2B2B2B"/>
<path d="M448.9 174.5L433.9 183V178.3L448.9 169.7V174.5Z" fill="#282828"/>
<path d="M448.9 174.5L453 176.9V172.1L448.9 169.7V174.5Z" fill="#2B2B2B"/>
<path d="M478.6 157V162.2L453 176.9V172.1L478.6 157Z" fill="#484848"/>
<path d="M348.6 143.5L361.4 151V146.2L348.6 138.7V143.5Z" fill="#282828"/>
<path d="M334 137.3L346.6 144.6V139.9L334 132.6V137.3Z" fill="#1A1A1A"/>
<path d="M423.5 192.3L433.9 186.3V181.5L423.5 187.5V192.3Z" fill="#484848"/>
<path d="M361.4 151.7V156.4L423.5 192.3V187.5L361.4 151.7Z" fill="#1A1A1A"/>
<path d="M448.9 73.3L433.9 81.8V80.3L431 78.7L448.9 68.5V73.3Z" fill="#282828"/>
<path d="M448.9 73.3L453 75.7V70.8L448.9 68.5V73.3Z" fill="#2B2B2B"/>
<path d="M478.6 56.1001V60.9001L453 75.7001V70.8001L478.6 56.1001Z" fill="#484848"/>
<path d="M334 36.1001L346.6 43.4001L346.7 38.6001L334 31.3V36.1001Z" fill="#1A1A1A"/>
<path d="M423.5 91.1L433.9 85.0001V80.3L423.5 86.3V91.1Z" fill="#484848"/>
<path d="M361.4 50.4001V55.2002L423.5 91.1001V86.3001L361.4 50.4001Z" fill="#1A1A1A"/>
<path d="M348.6 42.2L366.3 52.6V47.8L348.6 37.5V42.2Z" fill="#282828"/>
<path d="M348.6 42.2L346.6 43.4V38.7L348.6 37.5V42.2Z" fill="#2B2B2B"/>
<path d="M423.5 86.3L361.5 50.4L366.3 47.8L348.6 37.5L346.6 38.7L334 31.3L384.8 2L478.6 56.1L453.1 70.8L449 68.5L431.1 78.7L433.9 80.3L423.5 86.3Z" fill="#282828"/>
<path d="M478.6 60.8999V157L453 172.1V75.6999L478.6 60.8999Z" fill="#1C1C1C"/>
<path d="M357.2 64.2001V76.6L353.1 74.2001V61.8L357.2 64.2001Z" fill="#1C1C1C"/>
<path d="M353.1 62.0999V73.7L352.5 74.0999V61.7L353.1 62.0999Z" fill="#6D6E71"/>
<path d="M357.2 75.9999V76.7L352.6 73.9999L353.1 73.7L357.2 75.9999Z" fill="#6D6E71"/>
<path d="M353.1 62.0999V73.7L352.4 74.0999V61.7L353.1 62.0999Z" fill="#555555"/>
<path d="M357.2 76.0999V76.7999L352.5 73.9999L353.1 73.7L357.2 76.0999Z" fill="#282828"/>
<path fill-rule="evenodd" clip-rule="evenodd" d="M357.8 64.3V77.6L352 74.3V61L357.8 64.3ZM357.3 64.6L352.6 61.9V74L357.3 76.7V64.6Z" fill="#58595B"/>
<path d="M357.2 88.5999V101L353.1 98.4999V86.0999L357.2 88.5999Z" fill="#1C1C1C"/>
<path d="M353.1 86.4V98L352.5 98.4V86L353.1 86.4Z" fill="#6D6E71"/>
<path d="M357.2 100.4V101.1L352.6 98.3L353.1 98L357.2 100.4Z" fill="#6D6E71"/>
<path d="M353.1 86.4V98.1L352.4 98.4V86L353.1 86.4Z" fill="#555555"/>
<path d="M357.2 100.4V101.1L352.5 98.3L353.1 98L357.2 100.4Z" fill="#282828"/>
<path fill-rule="evenodd" clip-rule="evenodd" d="M357.8 88.6999V102L352 98.6999V85.3999L357.8 88.6999ZM357.3 88.8999L352.6 86.2999V98.3999L357.3 101.1V88.8999Z" fill="#58595B"/>
<path d="M357.2 113V125.4L353.1 122.9V110.6L357.2 113Z" fill="#1C1C1C"/>
<path d="M353.1 110.9V122.5L352.5 122.9V110.5L353.1 110.9Z" fill="#6D6E71"/>
<path d="M357.2 124.8V125.5L352.6 122.8L353.1 122.5L357.2 124.8Z" fill="#6D6E71"/>
<path d="M353.1 110.9V122.5L352.4 122.9V110.5L353.1 110.9Z" fill="#555555"/>
<path d="M357.2 124.9V125.6L352.5 122.8L353.1 122.5L357.2 124.9Z" fill="#282828"/>
<path fill-rule="evenodd" clip-rule="evenodd" d="M357.8 113.2V126.4L352 123.1V109.9L357.8 113.2ZM357.3 113.4L352.6 110.7V122.9L357.3 125.6V113.4Z" fill="#58595B"/>
<path d="M459.2 80.7001V94.4001L471.6 87.2001L459.6 94.2001V80.4001L459.2 80.7001Z" fill="#1C1C1C"/>
<path d="M459.2 80.3001V94.0001L471.6 86.8001V73.1001L459.2 80.3001Z" fill="black"/>
<path d="M459.6 80.4L471.6 73.5V86.3L472.3 86.7V73L459.6 80.4Z" fill="#6D6E71"/>
<path d="M459.2 93.3V94.2001L472.2 86.7001L471.6 86.3L459.2 93.3Z" fill="#6D6E71"/>
<path d="M459.6 80.4L471.6 73.5V86.4L472.4 86.7V73L459.6 80.4Z" fill="#3D3D3D"/>
<path d="M459.2 93.4001V94.3L472.3 86.7001L471.6 86.3L459.2 93.4001Z" fill="#282828"/>
<path d="M465.6 76.8001V89.7001L466.4 90.1001V76.4001L465.6 76.8001Z" fill="#3D3D3D"/>
<path d="M466.9 75.8V89.8L466.4 90.1V76.4001L466.9 75.8Z" fill="#555555"/>
<path fill-rule="evenodd" clip-rule="evenodd" d="M472.8 72.3V87.0001L459.2 94.9001V80.2001L472.8 72.3ZM459.7 94.0001L472.3 86.6V73.2001L459.7 80.4001V94.0001Z" fill="#58595B"/>
<path d="M439.3 91.7V105.3L443.8 102.6V89L439.3 91.7Z" fill="black"/>
<path d="M443.8 89.4V102.1L444.5 102.5V89L443.8 89.4Z" fill="#6D6E71"/>
<path d="M439.3 104.7V105.4L444.4 102.4L443.8 102.1L439.3 104.7Z" fill="#6D6E71"/>
<path d="M443.8 89.4V102.2L444.6 102.5V89L443.8 89.4Z" fill="#3D3D3D"/>
<path d="M439.3 104.7V105.5L444.5 102.5L443.8 102.1L439.3 104.7Z" fill="#282828"/>
<path fill-rule="evenodd" clip-rule="evenodd" d="M445 88.3V102.8L438.7 106.4V91.8L445 88.3ZM439.3 105.5L444.5 102.5V89.2001L439.3 92.1V105.5Z" fill="#58595B"/>
<path d="M458.9 106.8V120.6L471.4 113.3L459.4 120.3V106.5L458.9 106.8Z" fill="#1C1C1C"/>
<path d="M458.9 106.4V120.2L471.4 112.9V99.2L458.9 106.4Z" fill="black"/>
<path d="M459.3 106.5L471.3 99.5999V112.4L472.1 112.9V99.2L459.3 106.5Z" fill="#6D6E71"/>
<path d="M458.9 119.4V120.3L471.9 112.8L471.3 112.4L458.9 119.4Z" fill="#6D6E71"/>
<path d="M459.4 106.5L471.4 99.6001V112.5L472.1 112.9V99.1001L459.4 106.5Z" fill="#3D3D3D"/>
<path d="M458.9 119.5V120.4L472 112.8L471.3 112.4L458.9 119.5Z" fill="#282828"/>
<path d="M465.4 103V115.9L466.1 116.2V102.5L465.4 103Z" fill="#3D3D3D"/>
<path d="M466.6 101.9V116L466.1 116.2V102.5L466.6 101.9Z" fill="#555555"/>
<path fill-rule="evenodd" clip-rule="evenodd" d="M472.5 98.5V113.1L458.9 121V106.3L472.5 98.5ZM459.5 120.2L472 112.9V99.4L459.5 106.7V120.2Z" fill="#58595B"/>
<path d="M439 117.8V131.4L443.5 128.7V115.2L439 117.8Z" fill="black"/>
<path d="M443.5 115.5V128.2L444.2 128.6V115.1L443.5 115.5Z" fill="#6D6E71"/>
<path d="M439 130.8V131.6L444.1 128.6L443.5 128.2L439 130.8Z" fill="#6D6E71"/>
<path d="M443.5 115.5V128.3L444.3 128.6V115.1L443.5 115.5Z" fill="#3D3D3D"/>
<path d="M439 130.8V131.6L444.2 128.6L443.5 128.2L439 130.8Z" fill="#282828"/>
<path fill-rule="evenodd" clip-rule="evenodd" d="M444.7 114.4V128.9L438.4 132.5V118L444.7 114.4ZM439 131.5L444.2 128.5V115.2L439 118.2V131.5Z" fill="#58595B"/>
<path d="M458.9 132.6V146.4L471.4 139.2L459.4 146.1V132.4L458.9 132.6Z" fill="#1C1C1C"/>
<path d="M458.9 132.3V146L471.4 138.8V125.1L458.9 132.3Z" fill="black"/>
<path d="M459.3 132.4L471.3 125.4V138.3L472.1 138.7V125L459.3 132.4Z" fill="#6D6E71"/>
<path d="M458.9 145.3V146.2L471.9 138.6L471.3 138.3L458.9 145.3Z" fill="#6D6E71"/>
<path d="M459.4 132.4L471.4 125.4V138.3L472.1 138.7V125L459.4 132.4Z" fill="#3D3D3D"/>
<path d="M458.9 145.4V146.3L472 138.7L471.4 138.3L458.9 145.4Z" fill="#282828"/>
<path d="M465.4 128.8V141.7L466.1 142.1V128.4L465.4 128.8Z" fill="#3D3D3D"/>
<path d="M466.6 127.7V141.8L466.1 142.1V128.4L466.6 127.7Z" fill="#555555"/>
<path fill-rule="evenodd" clip-rule="evenodd" d="M472.5 124.3V139L458.9 146.9V132.2L472.5 124.3ZM459.5 145.9L472 138.6V125.2L459.5 132.4V145.9Z" fill="#58595B"/>
<path d="M439 143.7V157.3L443.5 154.6V141L439 143.7Z" fill="black"/>
<path d="M443.5 141.4V154L444.2 154.5V140.9L443.5 141.4Z" fill="#6D6E71"/>
<path d="M439 156.6V157.4L444.1 154.4L443.5 154L439 156.6Z" fill="#6D6E71"/>
<path d="M443.5 141.4V154.1L444.3 154.5V140.9L443.5 141.4Z" fill="#3D3D3D"/>
<path d="M439 156.7V157.5L444.2 154.4L443.5 154.1L439 156.7Z" fill="#282828"/>
<path fill-rule="evenodd" clip-rule="evenodd" d="M444.7 140.2V154.7L438.4 158.3V143.8L444.7 140.2ZM439 157.4L444.2 154.4V141.1L439 144V157.4Z" fill="#58595B"/>
<path d="M416.8 97.4V111.2L404.3 104V103.9L416.3 110.9V97.2L416.8 97.4Z" fill="#1C1C1C"/>
<path d="M416.7 96.9998V110.8L404.3 103.6V89.7998L416.7 96.9998Z" fill="black"/>
<path d="M416.4 97.0998L404.4 90.1998V103L403.6 103.5V89.7998L416.4 97.0998Z" fill="#6D6E71"/>
<path d="M416.7 110V111L403.7 103.4L404.4 103L416.7 110Z" fill="#6D6E71"/>
<path d="M416.3 97.0998L404.3 90.1998V103.1L403.6 103.5V89.7998L416.3 97.0998Z" fill="#3D3D3D"/>
<path d="M416.8 110.1V111L403.7 103.4L404.3 103L416.8 110.1Z" fill="#282828"/>
<path d="M410.3 93.5999V106.5L409.6 106.9V93.0999L410.3 93.5999Z" fill="#3D3D3D"/>
<path d="M409.1 92.5V106.6L409.6 106.9V93.1L409.1 92.5Z" fill="#555555"/>
<path fill-rule="evenodd" clip-rule="evenodd" d="M416.8 96.8999V111.6L403.2 103.7V89.0999L416.8 96.8999ZM416.2 97.0999L403.7 89.8999V103.4L416.2 110.7V97.0999Z" fill="#58595B"/>
<path d="M399.6 87.4999V101.2L387.2 93.9999L399.2 101V87.2L399.6 87.4999Z" fill="#1C1C1C"/>
<path d="M399.6 87.0999V100.8L387.2 93.5999V79.8999L399.6 87.0999Z" fill="black"/>
<path d="M399.2 87.1998L387.2 80.2998V93.0998L386.5 93.4998V79.7998L399.2 87.1998Z" fill="#6D6E71"/>
<path d="M399.6 100.1V101L386.6 93.3999L387.2 93.0999L399.6 100.1Z" fill="#6D6E71"/>
<path d="M399.2 87.1998L387.2 80.2998V93.1998L386.4 93.4998V79.7998L399.2 87.1998Z" fill="#3D3D3D"/>
<path d="M399.6 100.2V101.1L386.5 93.4999L387.2 93.0999L399.6 100.2Z" fill="#282828"/>
<path d="M393.2 83.5999V96.4999L392.4 96.9V83.2L393.2 83.5999Z" fill="#3D3D3D"/>
<path d="M391.9 82.5999V96.5999L392.4 96.8999V83.1999L391.9 82.5999Z" fill="#555555"/>
<path fill-rule="evenodd" clip-rule="evenodd" d="M399.6 86.9999V101.7L386 93.7999V79.0999L399.6 86.9999ZM399.1 87.2999L386.5 80.0999V93.4999L399.1 100.8V87.2999Z" fill="#58595B"/>
<path d="M416.4 123V136.8L403.9 129.5L415.9 136.5V122.8L416.4 123Z" fill="#1C1C1C"/>
<path d="M416.4 122.6V136.4L403.9 129.2V115.4L416.4 122.6Z" fill="black"/>
<path d="M416 122.7L404 115.8V128.6L403.2 129.1V115.4L416 122.7Z" fill="#6D6E71"/>
<path d="M416.4 135.6V136.5L403.4 129L404 128.6L416.4 135.6Z" fill="#6D6E71"/>
<path d="M415.9 122.7L403.9 115.8V128.7L403.2 129.1V115.3L415.9 122.7Z" fill="#3D3D3D"/>
<path d="M416.4 135.7V136.6L403.3 129L403.9 128.6L416.4 135.7Z" fill="#282828"/>
<path d="M409.9 119.2V132.1L409.2 132.5V118.7L409.9 119.2Z" fill="#3D3D3D"/>
<path d="M408.7 118.1V132.1L409.2 132.5V118.7L408.7 118.1Z" fill="#555555"/>
<path fill-rule="evenodd" clip-rule="evenodd" d="M416.4 122.5V137.2L402.8 129.3V114.7L416.4 122.5ZM415.8 122.7L403.3 115.5V128.9L415.8 136.3V122.7Z" fill="#58595B"/>
<path d="M399.2 113.1V126.8L386.8 119.6L398.8 126.6V112.8L399.2 113.1Z" fill="#1C1C1C"/>
<path d="M399.2 112.7V126.4L386.8 119.2V105.5L399.2 112.7Z" fill="black"/>
<path d="M398.8 112.8L386.8 105.8V118.7L386.1 119.1V105.4L398.8 112.8Z" fill="#6D6E71"/>
<path d="M399.2 125.7V126.6L386.2 119L386.8 118.7L399.2 125.7Z" fill="#6D6E71"/>
<path d="M398.8 112.8L386.8 105.8V118.8L386 119.1V105.4L398.8 112.8Z" fill="#3D3D3D"/>
<path d="M399.2 125.8V126.7L386.1 119.1L386.8 118.7L399.2 125.8Z" fill="#282828"/>
<path d="M392.8 109.2V122.1L392 122.5V108.8L392.8 109.2Z" fill="#3D3D3D"/>
<path d="M391.5 108.2V122.2L392 122.5V108.8L391.5 108.2Z" fill="#555555"/>
<path fill-rule="evenodd" clip-rule="evenodd" d="M399.2 112.6V127.3L385.6 119.4V104.7L399.2 112.6ZM398.7 112.9L386.2 105.6V119.1L398.7 126.4V112.9Z" fill="#58595B"/>
<path d="M416.4 149.1V162.8L403.9 155.6L415.9 162.5V148.8L416.4 149.1Z" fill="#1C1C1C"/>
<path d="M416.4 148.7V162.4L403.9 155.2V141.5L416.4 148.7Z" fill="black"/>
<path d="M416 148.8L404 141.8V154.7L403.2 155.1V141.4L416 148.8Z" fill="#6D6E71"/>
<path d="M416.4 161.7V162.6L403.4 155L404 154.7L416.4 161.7Z" fill="#6D6E71"/>
<path d="M415.9 148.8L403.9 141.8V154.7L403.2 155.1V141.4L415.9 148.8Z" fill="#3D3D3D"/>
<path d="M416.4 161.8V162.7L403.3 155.1L403.9 154.7L416.4 161.8Z" fill="#282828"/>
<path d="M409.9 145.2V158.1L409.2 158.5V144.8L409.9 145.2Z" fill="#3D3D3D"/>
<path d="M408.7 144.1V158.2L409.2 158.5V144.8L408.7 144.1Z" fill="#555555"/>
<path fill-rule="evenodd" clip-rule="evenodd" d="M416.4 148.6V163.3L402.8 155.4V140.7L416.4 148.6ZM415.8 148.9L403.3 141.6V155.1L415.8 162.4V148.9Z" fill="#58595B"/>
<path d="M399.2 139.1V152.9L386.8 145.6L398.8 152.6V138.9L399.2 139.1Z" fill="#1C1C1C"/>
<path d="M399.2 138.7V152.5L386.8 145.3V131.5L399.2 138.7Z" fill="black"/>
<path d="M398.8 138.8L386.8 131.9V144.7L386.1 145.2V131.5L398.8 138.8Z" fill="#6D6E71"/>
<path d="M399.2 151.7V152.7L386.2 145.1L386.8 144.7L399.2 151.7Z" fill="#6D6E71"/>
<path d="M398.8 138.8L386.8 131.9V144.8L386 145.2V131.4L398.8 138.8Z" fill="#3D3D3D"/>
<path d="M399.2 151.8V152.7L386.1 145.1L386.8 144.7L399.2 151.8Z" fill="#282828"/>
<path d="M392.8 135.3V148.2L392 148.6V134.8L392.8 135.3Z" fill="#3D3D3D"/>
<path d="M391.5 134.2V148.3L392 148.6V134.8L391.5 134.2Z" fill="#555555"/>
<path fill-rule="evenodd" clip-rule="evenodd" d="M399.2 138.6V153.3L385.6 145.4V130.8L399.2 138.6ZM398.7 138.8L386.2 131.6V145L398.7 152.4V138.8Z" fill="#58595B"/>
<path d="M382.5 77.5998V91.2998L370 84.0998L382 91.0998V77.2998L382.5 77.5998Z" fill="#1C1C1C"/>
<path d="M382.4 77.2V90.9L370 83.7V70L382.4 77.2Z" fill="black"/>
<path d="M382.1 77.2999L370.1 70.3999V83.1999L369.3 83.5999V69.8999L382.1 77.2999Z" fill="#6D6E71"/>
<path d="M382.4 90.2V91.0999L369.4 83.4999L370.1 83.2L382.4 90.2Z" fill="#6D6E71"/>
<path d="M382 77.2999L370 70.2999V83.2999L369.3 83.5999V69.8999L382 77.2999Z" fill="#3D3D3D"/>
<path d="M382.5 90.2999V91.2L369.4 83.5999L370 83.2L382.5 90.2999Z" fill="#282828"/>
<path d="M376 73.6998V86.5998L375.3 86.9998V73.2998L376 73.6998Z" fill="#3D3D3D"/>
<path d="M374.8 72.7V86.7L375.3 86.9999V73.2999L374.8 72.7Z" fill="#555555"/>
<path fill-rule="evenodd" clip-rule="evenodd" d="M382.5 77.0999V91.7999L368.9 83.9V69.2L382.5 77.0999ZM381.9 77.4L369.4 70.0999V83.5999L381.9 90.9V77.4Z" fill="#58595B"/>
<path d="M382.1 103.2V116.9L369.6 109.7L381.6 116.6V102.9L382.1 103.2Z" fill="#1C1C1C"/>
<path d="M382.1 102.8V116.5L369.6 109.3V95.5999L382.1 102.8Z" fill="black"/>
<path d="M381.7 102.9L369.7 95.8998V108.8L368.9 109.2V95.4998L381.7 102.9Z" fill="#6D6E71"/>
<path d="M382.1 115.8V116.7L369.1 109.1L369.7 108.8L382.1 115.8Z" fill="#6D6E71"/>
<path d="M381.6 102.9L369.6 95.8998V108.9L368.9 109.2V95.4998L381.6 102.9Z" fill="#3D3D3D"/>
<path d="M382.1 115.9V116.8L369 109.2L369.7 108.8L382.1 115.9Z" fill="#282828"/>
<path d="M375.6 99.2999V112.2L374.9 112.6V98.8999L375.6 99.2999Z" fill="#3D3D3D"/>
<path d="M374.4 98.1997V112.3L374.9 112.6V98.8997L374.4 98.1997Z" fill="#555555"/>
<path fill-rule="evenodd" clip-rule="evenodd" d="M382.1 102.7V117.4L368.5 109.5V94.7998L382.1 102.7ZM381.5 103L369 95.6998V109.2L381.5 116.5V103Z" fill="#58595B"/>
<path d="M382.1 129.2V143L369.6 135.7L381.6 142.7V129L382.1 129.2Z" fill="#1C1C1C"/>
<path d="M382.1 128.8V142.6L369.6 135.4V121.6L382.1 128.8Z" fill="black"/>
<path d="M381.7 128.9L369.7 122V134.8L368.9 135.3V121.6L381.7 128.9Z" fill="#6D6E71"/>
<path d="M382.1 141.8V142.7L369.1 135.2L369.7 134.8L382.1 141.8Z" fill="#6D6E71"/>
<path d="M381.6 128.9L369.6 122V134.9L368.9 135.3V121.5L381.6 128.9Z" fill="#3D3D3D"/>
<path d="M382.1 141.9V142.8L369 135.2L369.7 134.8L382.1 141.9Z" fill="#282828"/>
<path d="M375.6 125.4V138.3L374.9 138.7V124.9L375.6 125.4Z" fill="#3D3D3D"/>
<path d="M374.4 124.3V138.4L374.9 138.7V124.9L374.4 124.3Z" fill="#555555"/>
<path fill-rule="evenodd" clip-rule="evenodd" d="M382.1 128.7V143.4L368.5 135.5V120.9L382.1 128.7ZM381.5 128.9L369 121.7V135.1L381.5 142.5V128.9Z" fill="#58595B"/>
<path d="M448.9 169.7L453 172.1V75.7001L448.9 73.3V169.7Z" fill="#2B2B2B"/>
<circle cx="20.5912" cy="20.5912" r="20.5912" transform="matrix(0.866025 -0.5 0.866025 0.5 378 47.5913)" fill="#757575"/>
<path fill-rule="evenodd" clip-rule="evenodd" d="M414.441 49.0144C411.92 49.0145 409.558 48.7483 407.495 48.2861C407.058 48.1884 406.782 47.9384 406.782 47.6684L406.784 46.6501C406.784 45.8153 405.761 45.225 404.498 45.225L401.969 45.225C400.286 45.2251 398.922 46.0126 398.921 46.9843L398.921 47.7954C398.921 48.7173 399.74 49.5745 401.098 50.1095C404.445 51.4276 409.163 52.2629 414.441 52.2628C419.718 52.2627 424.436 51.4272 427.784 50.109C429.141 49.574 429.96 48.7168 429.96 47.7949L429.96 46.985C429.96 46.0133 428.596 45.2258 426.914 45.2258L424.386 45.2259C423.123 45.2259 422.099 45.8169 422.101 46.5453L422.102 47.6694C422.102 47.9394 421.826 48.1894 421.389 48.2871C419.325 48.7487 416.962 49.0144 414.441 49.0144Z" fill="#282828"/>
<circle cx="20.5912" cy="20.5912" r="20.5912" transform="matrix(0.866025 -0.5 0.866025 0.5 52 53.5913)" fill="#757575"/>
<path fill-rule="evenodd" clip-rule="evenodd" d="M88.4408 55.0144C85.9196 55.0145 83.5579 54.7483 81.4946 54.2861C81.0582 54.1884 80.7824 53.9384 80.7824 53.6684L80.7836 52.6501C80.7836 51.8153 79.7612 51.225 78.4984 51.225L75.9686 51.225C74.2856 51.2251 72.9215 52.0126 72.9215 52.9843L72.9214 53.7954C72.9214 54.7173 73.7402 55.5745 75.0977 56.1095C78.4453 57.4276 83.1634 58.2629 88.4407 58.2628C93.718 58.2627 98.4362 57.4272 101.784 56.109C103.141 55.574 103.96 54.7168 103.96 53.7949L103.96 52.985C103.96 52.0133 102.596 51.2258 100.914 51.2258L98.3858 51.2259C97.1231 51.2259 96.0995 51.8169 96.1005 52.5453L96.1015 53.6694C96.1015 53.9394 95.8257 54.1894 95.3893 54.2871C93.3249 54.7487 90.9621 55.0144 88.4408 55.0144Z" fill="#282828"/>
<path d="M275.305 304.122C269.044 299.96 258.956 299.96 252.695 304.122C246.435 308.285 246.435 315.049 252.695 319.212C258.956 323.374 269.044 323.374 275.305 319.212C281.565 315.049 281.565 308.285 275.305 304.122Z" fill="#C92222"/>
<path d="M257.667 309.426H263.32C264.518 309.426 265.118 309.426 265.575 309.561C265.978 309.679 266.305 309.868 266.51 310.101C266.743 310.365 266.743 310.711 266.743 311.403L266.743 314.667" stroke="black" stroke-width="2" stroke-linecap="round" stroke-linejoin="round"/>
<path d="M239.192 281.475H216.965L210.179 262.84L229.073 255.456L247.498 263.015L239.192 281.475Z" fill="black"/>
<path d="M295.404 248.951L239.192 281.474V265.242L262.648 243.032L295.404 232.719V248.951Z" fill="black"/>
<path d="M295.404 232.719V219.827L249.311 193.164H227.084L170.872 225.687V238.579L216.965 265.243H239.192L295.404 232.719Z" fill="black"/>
<path d="M216.965 281.476L170.872 254.812V238.58L216.965 265.243V281.476Z" fill="black"/>
<path d="M239.309 277.725H216.438L209.477 227.973L228.897 220.296L247.908 228.09L239.309 277.725Z" fill="#313131"/>
<path d="M297.159 244.264L239.309 277.725V230.376L263.467 207.522L297.159 196.915V244.264Z" fill="#1C1C1C"/>
<path d="M297.159 196.915V183.73L249.721 156.246H226.908L169 189.707V202.951L216.438 230.376H239.309L297.159 196.915Z" fill="#272727"/>
<path d="M216.438 277.724L169 250.299V202.95L216.438 230.375V277.724Z" fill="#3D3D3D"/>
<path d="M239.192 228.794H216.965L210.179 210.218L229.073 202.776L247.498 210.335L239.192 228.794Z" fill="#313131"/>
<path d="M295.404 196.329L239.192 228.794V212.562L262.648 190.352L295.404 180.038V196.329Z" fill="#1C1C1C"/>
<path d="M295.404 180.038V167.204L249.311 140.541H227.084L170.872 173.065V185.898L216.965 212.561H239.192L295.404 180.038Z" fill="#272727"/>
<path d="M216.965 228.794L170.872 202.189V185.898L216.965 212.562V228.794Z" fill="#3D3D3D"/>
<path d="M216.965 228.794L199.943 218.949V211.273L216.965 221.118V228.794Z" fill="#C92222"/>
<path opacity="0.3" d="M243.345 206.936L211.817 207.874L170.872 184.199V200.431L216.965 227.095H239.192L295.404 194.571V178.339L243.345 206.936Z" fill="black"/>
<path d="M239.309 223.988H216.438L209.478 193.515L228.897 185.897L247.908 193.691L239.309 223.988Z" fill="#313131"/>
<path d="M297.159 190.527L239.309 223.988V195.977L263.467 173.123L297.159 162.516V190.527Z" fill="#1C1C1C"/>
<path d="M297.159 162.516V149.272L249.721 121.847H226.908L169 155.308V168.493L216.438 195.977H239.309L297.159 162.516Z" fill="#272727"/>
<path d="M216.438 223.988L169 196.621V168.493L216.438 195.977V223.988Z" fill="#3D3D3D"/>
<path d="M239.192 194.396H216.965L210.179 175.761L229.073 168.318L247.498 175.936L239.192 194.396Z" fill="#313131"/>
<path d="M295.404 161.871L239.192 194.394V178.103L262.648 155.894L295.404 145.639V161.871Z" fill="#1C1C1C"/>
<path d="M295.404 145.639V132.747L249.311 106.084H227.084L170.872 138.607V151.441L216.965 178.104H239.192L295.404 145.639Z" fill="#272727"/>
<path d="M216.965 194.396L170.872 167.732V151.441L216.965 178.105V194.396Z" fill="#3D3D3D"/>
<path d="M216.965 194.396L199.943 184.551V176.815L216.965 186.66V194.396Z" fill="#C92222"/>
<path opacity="0.3" d="M243.345 172.479L211.817 173.416L170.872 149.742V166.033L216.965 192.637H239.192L295.404 160.114V143.882L243.345 172.479Z" fill="black"/>
<path d="M239.309 189.765H216.438L209.478 159.293L228.897 151.616L247.908 159.41L239.309 189.765Z" fill="#313131"/>
<path d="M297.159 156.305L239.309 189.766V161.696L263.467 138.842L297.159 128.236V156.305Z" fill="#1C1C1C"/>
<path d="M297.159 128.235V114.992L249.721 87.5667H226.908L169 121.028V134.271L216.438 161.696H239.309L297.159 128.235Z" fill="#272727"/>
<path d="M216.438 189.766L169 162.341V134.272L216.438 161.697V189.766Z" fill="#3D3D3D"/>
<path d="M239.192 160.114H216.965L210.179 141.537L229.073 134.095L247.498 141.654L239.192 160.114Z" fill="#313131"/>
<path d="M295.404 127.59L239.192 160.113V143.881L262.648 121.671L295.404 111.358V127.59Z" fill="#1C1C1C"/>
<path d="M295.404 111.357V98.4652L249.311 71.8606H227.084L170.872 104.384V117.217L216.965 143.881H239.192L295.404 111.357Z" fill="#272727"/>
<path d="M216.965 160.114L170.872 133.509V117.218L216.965 143.881V160.114Z" fill="#3D3D3D"/>
<path d="M216.965 160.113L199.943 150.268V142.591L216.965 152.436V160.113Z" fill="#C92222"/>
<path opacity="0.3" d="M243.345 138.255L211.817 139.193L170.872 115.518V131.751L216.965 158.414H239.192L295.404 125.891V109.658L243.345 138.255Z" fill="black"/>
<path d="M239.309 155.66H216.438L209.477 125.129L228.897 117.511L247.908 125.305L239.309 155.66Z" fill="#313131"/>
<path d="M297.159 122.141L239.309 155.66V127.532L263.467 104.737L297.159 94.0713V122.141Z" fill="#1C1C1C"/>
<path d="M297.159 94.0711V80.8859L249.721 53.4609H226.909L169 86.9218V100.107L216.438 127.532H239.309L297.159 94.0711Z" fill="#272727"/>
<path d="M216.438 155.66L169 128.176V100.106L216.438 127.531V155.66Z" fill="#3D3D3D"/>
<path d="M239.192 125.599H216.965L210.179 120.677L229.073 113.234L246.211 120.266L239.192 125.599Z" fill="#313131"/>
<path d="M295.404 93.0755L239.192 125.599V123.02L262.648 100.811L295.404 90.4971V93.0755Z" fill="#1C1C1C"/>
<path d="M295.404 90.4967V77.6632L249.311 51H227.084L170.872 83.5233V96.3568L216.965 123.02H239.192L295.404 90.4967Z" fill="#272727"/>
<path fill-rule="evenodd" clip-rule="evenodd" d="M212.097 76.6165C213.659 76.5992 214.891 77.3103 214.861 78.2123L214.335 94.9242L227.644 87.2404C228.755 86.5986 230.558 86.5813 231.624 87.197L232.135 87.4919C232.526 85.4972 234.058 83.5372 236.732 81.9935C242.86 78.4551 252.669 78.3597 258.587 81.7767C264.461 85.1676 264.326 90.7961 258.287 94.3345L258.107 94.4385C251.978 97.9249 242.244 97.9943 236.371 94.6033L229.536 90.6573L213.374 99.989C212.547 100.466 211.346 100.622 210.309 100.371C209.964 100.292 209.663 100.188 209.408 100.041L209.378 100.024C208.897 99.7288 208.597 99.3298 208.627 98.8962L209.243 78.2643C209.258 77.822 209.573 77.4317 210.054 77.1369L210.144 77.0848C210.655 76.8073 211.346 76.6165 212.097 76.6165ZM254.547 84.1096C250.776 81.9328 244.543 81.9935 240.637 84.2483C236.747 86.4945 236.641 90.0936 240.412 92.2704C244.167 94.4385 250.401 94.3778 254.291 92.1317C258.197 89.8768 258.302 86.2777 254.547 84.1096ZM237.678 73.4684C239.24 73.4511 240.472 74.1622 240.427 75.0555C240.427 75.5064 240.096 75.9054 239.571 76.2089C239.06 76.5038 238.354 76.7033 237.573 76.7032C234.959 76.7379 232.466 77.345 230.573 78.4378C228.695 79.5218 227.629 80.9701 227.584 82.4705C227.569 82.9301 227.238 83.3291 226.712 83.6326C226.202 83.9275 225.511 84.1182 224.715 84.1269C223.182 84.1443 221.951 83.4331 221.966 82.5399C222.041 80.1549 223.723 77.9001 226.682 76.1916C229.657 74.4744 233.562 73.5031 237.678 73.4684Z" fill="#757575"/>
<path d="M216.965 125.599L170.872 98.9358V96.3574L216.965 123.021V125.599Z" fill="#3D3D3D"/>
<path d="M142.695 289.211C148.956 293.374 159.044 293.374 165.305 289.211C171.565 285.049 171.565 278.285 165.305 274.122C159.044 269.959 148.956 269.959 142.695 274.122C136.435 278.285 136.435 285.049 142.695 289.211Z" fill="#C92222"/>
<path d="M159.333 282.907H153.68C152.482 282.907 151.883 282.907 151.425 282.773C151.022 282.654 150.695 282.465 150.49 282.233C150.257 281.969 150.257 281.623 150.257 280.931L150.257 277.667" stroke="black" stroke-width="2" stroke-linecap="round" stroke-linejoin="round"/>
<defs>
<linearGradient id="paint0_linear_1230_110773" x1="76.1481" y1="222.394" x2="76.6698" y2="340.031" gradientUnits="userSpaceOnUse">
<stop stop-color="#151515"/>
<stop offset="1" stop-opacity="0"/>
</linearGradient>
<linearGradient id="paint1_linear_1230_110773" x1="76.4999" y1="225" x2="76.9999" y2="338" gradientUnits="userSpaceOnUse">
<stop stop-color="#151515"/>
<stop offset="1" stop-opacity="0"/>
</linearGradient>
</defs>
</svg>
