<svg width="687" height="766" viewBox="0 0 687 766" fill="none" xmlns="http://www.w3.org/2000/svg">
<path d="M172.144 237.632L319.594 151.942L318.335 150L171 235.69L172.144 237.632Z" fill="#272727"/>
<path d="M261.144 289.632L408.594 203.942L407.335 202L260 287.69L261.144 289.632Z" fill="#272727"/>
<path d="M462.742 224.309L547.242 175.409C550.042 173.809 551.342 171.609 551.242 169.409V157.109L546.542 162.609C546.209 162.409 545.876 162.209 545.542 162.009L372.742 62.6094C365.842 58.6094 355.442 58.2094 349.542 61.6094L266.242 109.909C264.542 108.009 261.042 104.109 261.042 104.109V116.109C260.942 118.809 262.842 121.709 266.742 123.909L439.542 223.409C446.442 227.409 456.842 227.809 462.742 224.309Z" fill="#1C1C1C"/>
<path d="M508.442 194.309L503.542 197.109C502.942 197.509 502.442 197.109 502.442 196.209C502.442 195.409 502.942 194.409 503.542 194.009L508.442 191.209C509.042 190.809 509.642 191.209 509.642 192.109C509.642 192.909 509.042 193.909 508.442 194.309Z" fill="#141414"/>
<path d="M372.742 62.6094C365.842 58.6094 355.442 58.2094 349.542 61.6094L266.242 109.909C264.542 108.009 261.042 104.109 261.042 104.109V116.109C260.942 118.809 262.842 121.709 266.742 123.909L439.542 223.409C443.142 225.509 447.642 226.609 452.042 226.709L451.842 108.109L372.742 62.6094Z" fill="#3D3D3D"/>
<path d="M265.042 98.2092L349.542 49.3092C355.442 45.9092 365.842 46.3092 372.642 50.2092L545.542 149.709C552.342 153.709 553.142 159.609 547.242 163.109L462.742 212.009C456.742 215.409 446.442 215.009 439.542 211.109L266.642 111.609C259.842 107.709 259.042 101.709 265.042 98.2092Z" fill="#161616"/>
<path d="M462.742 213.309L547.242 164.409C550.342 162.609 551.542 160.209 551.142 157.709C551.042 159.709 549.742 161.609 547.242 163.109L462.742 212.009C456.742 215.409 446.442 215.009 439.542 211.109L266.642 111.609C263.342 109.709 261.442 107.309 261.142 105.009C260.942 107.709 262.842 110.609 266.742 112.909L439.642 212.409C446.442 216.309 456.842 216.809 462.742 213.309Z" fill="black"/>
<path d="M271.542 100.209L352.742 53.2089C357.142 50.6089 364.842 50.9089 369.942 53.8089L540.342 151.909C545.442 154.809 545.942 159.309 541.542 161.809L460.342 208.909C455.942 211.409 448.242 211.109 443.142 208.209L272.742 110.109C267.642 107.209 267.142 102.709 271.542 100.209Z" fill="#272727"/>
<path d="M461.787 177.182C462.352 177.503 463.046 177.5 463.609 177.174L483.502 165.662C484.705 164.965 484.708 163.23 483.507 162.529C482.946 162.202 482.253 162.2 481.69 162.524L461.776 174C460.548 174.708 460.554 176.482 461.787 177.182Z" fill="#757575"/>
<path d="M474.4 156.924C475.6 157.624 477.5 157.624 478.7 156.924C479.9 156.324 479.9 155.224 478.7 154.524C477.5 153.824 475.6 153.824 474.4 154.524C473.2 155.224 473.2 156.324 474.4 156.924Z" fill="#757575"/>
<path d="M468 160.624C469.2 161.324 471.1 161.324 472.3 160.624C473.5 159.924 473.5 158.824 472.3 158.224C471.1 157.524 469.2 157.524 468 158.224C466.9 158.824 466.9 159.924 468 160.624Z" fill="#757575"/>
<path d="M461.7 164.324C462.8 165.024 464.8 165.024 465.9 164.324C467.1 163.624 467.1 162.524 465.9 161.824C464.8 161.224 462.8 161.224 461.7 161.824C460.5 162.524 460.5 163.624 461.7 164.324Z" fill="#757575"/>
<path d="M455.3 168.024C456.5 168.724 458.4 168.724 459.6 168.024C460.7 167.324 460.7 166.224 459.6 165.524C458.4 164.824 456.5 164.824 455.3 165.524C454.1 166.224 454.1 167.324 455.3 168.024Z" fill="#757575"/>
<path d="M448.9 171.724C450.1 172.324 452 172.324 453.2 171.724C454.4 171.024 454.4 169.924 453.2 169.224C452 168.524 450.1 168.524 448.9 169.224C447.7 169.924 447.7 171.024 448.9 171.724Z" fill="#757575"/>
<path d="M313.626 100.002C314.195 100.317 314.887 100.311 315.451 99.988L321.359 96.6031C322.603 95.8906 322.617 94.1018 321.385 93.3692C320.803 93.023 320.079 93.0184 319.492 93.3571L313.595 96.7614C312.341 97.4855 312.358 99.3016 313.626 100.002Z" fill="#757575"/>
<path d="M300.189 107.758C300.779 108.099 301.505 108.098 302.093 107.755L307.9 104.367C309.153 103.637 309.132 101.819 307.863 101.118C307.291 100.802 306.596 100.808 306.03 101.132L300.197 104.474C298.93 105.2 298.926 107.026 300.189 107.758Z" fill="#757575"/>
<path d="M356.726 74.9024C357.295 75.217 357.987 75.2116 358.551 74.8884L364.459 71.5035C365.703 70.791 365.717 69.0022 364.485 68.2697C363.903 67.9234 363.179 67.9187 362.592 68.2575L356.695 71.6619C355.441 72.3859 355.458 74.202 356.726 74.9024Z" fill="#757575"/>
<path d="M315.731 105.591C316.296 105.912 316.988 105.912 317.553 105.59L327.282 100.04C328.551 99.317 328.556 97.4908 327.293 96.7593C326.705 96.419 325.98 96.4199 325.393 96.7615L315.713 102.396C314.484 103.111 314.494 104.89 315.731 105.591Z" fill="#757575"/>
<path d="M306.092 111.159C306.68 111.5 307.405 111.5 307.994 111.161L310.09 109.953C311.358 109.223 311.36 107.393 310.093 106.66C309.505 106.319 308.779 106.318 308.19 106.658L306.095 107.865C304.827 108.596 304.825 110.426 306.092 111.159Z" fill="#757575"/>
<path d="M165.065 660.481L113.681 632.314L77.0381 652.735L76 650.924L113.681 630L165.065 658.167L199.425 638.953L200.463 640.663L165.065 660.481Z" fill="#272727"/>
<path d="M421.3 18.893L400 5.93958V4.04395L421.3 16.9974V18.893Z" fill="#484848"/>
<path d="M607.3 131.999L586 119.046V117.15L607.3 130.104V131.999Z" fill="#484848"/>
<path d="M421.7 31.4256C421.3 31.1097 420.9 30.5831 420.9 30.0565V5.41337C420.9 4.99212 421.3 4.78149 421.7 5.09743C422.2 5.41337 422.6 5.93994 422.6 6.4665V31.1097C422.6 31.5309 422.2 31.7416 421.7 31.4256Z" fill="#484848"/>
<path d="M425.3 40.6938C424.9 40.4832 424.5 39.8514 424.5 39.3248V0.569689C424.5 0.0431249 424.9 -0.167494 425.3 0.148444C425.8 0.464382 426.1 1.09626 426.1 1.51751V40.3779C426.1 40.7992 425.8 41.0098 425.3 40.6938Z" fill="#484848"/>
<path d="M429.2 38.7979C428.8 38.4819 428.4 37.85 428.4 37.3235V10.7847C428.4 10.2581 428.8 10.1528 429.2 10.3634C429.7 10.6794 430.1 11.3112 430.1 11.7325V38.3766C430.1 38.9032 429.7 39.0085 429.2 38.7979Z" fill="#484848"/>
<path d="M433.2 43.3262C432.7 43.1156 432.3 42.4837 432.3 41.9571V8.15173C432.3 7.62517 432.7 7.41453 433.2 7.73047C433.6 8.04641 434 8.67829 434 9.09954V43.0103C434 43.4315 433.6 43.6421 433.2 43.3262Z" fill="#484848"/>
<path d="M437.1 37.6397C436.6 37.3237 436.2 36.6918 436.2 36.2706V11.1009C436.2 10.6796 436.6 10.469 437.1 10.7849C437.5 10.9956 437.9 11.6274 437.9 12.154V37.2184C437.9 37.745 437.5 37.9556 437.1 37.6397Z" fill="#484848"/>
<path d="M441 36.7972C440.5 36.5866 440.2 35.9547 440.2 35.4281V6.36182C440.2 5.83525 440.5 5.72995 441 5.94057C441.5 6.25651 441.8 6.88839 441.8 7.30964V36.4813C441.8 36.9025 441.5 37.1131 441 36.7972Z" fill="#484848"/>
<path d="M444.9 34.1656C444.5 33.8497 444.1 33.2178 444.1 32.7966V12.4712C444.1 11.9446 444.5 11.8393 444.9 12.0499C445.4 12.3659 445.7 12.9978 445.7 13.419V33.7444C445.7 34.2709 445.4 34.3762 444.9 34.1656Z" fill="#484848"/>
<path d="M448.8 39.0087C448.4 38.7981 448 38.1662 448 37.6397V11.1009C448 10.6796 448.4 10.469 448.8 10.7849C449.3 10.9956 449.7 11.6274 449.7 12.154V38.6928C449.7 39.2194 449.3 39.3247 448.8 39.0087Z" fill="#484848"/>
<path d="M452.8 37.0083C452.3 36.6923 451.9 36.0605 451.9 35.6392V17.2095C451.9 16.6829 452.3 16.5776 452.8 16.7882C453.2 17.1042 453.6 17.736 453.6 18.2626V36.587C453.6 37.1136 453.2 37.2189 452.8 37.0083Z" fill="#484848"/>
<path d="M456.7 50.4879C456.2 50.1719 455.8 49.6454 455.8 49.1188V23.0013C455.8 22.58 456.2 22.3694 456.7 22.6853C457.1 22.8959 457.5 23.5278 457.5 24.0544V50.1719C457.5 50.5932 457.1 50.8038 456.7 50.4879Z" fill="#484848"/>
<path d="M460.6 50.383C460.1 50.067 459.8 49.4351 459.8 49.0139V21.9485C459.8 21.5273 460.1 21.3166 460.6 21.6326C461.1 21.8432 461.4 22.4751 461.4 23.0017V49.9617C461.4 50.4883 461.1 50.5936 460.6 50.383Z" fill="#484848"/>
<path d="M464.5 55.2259C464.1 55.0152 463.7 54.3834 463.7 53.8568V32.1624C463.7 31.7411 464.1 31.5305 464.5 31.8465C465 32.1624 465.3 32.6889 465.3 33.2155V54.9099C465.3 55.3312 465 55.5418 464.5 55.2259Z" fill="#484848"/>
<path d="M468.4 54.6999C468 54.4892 467.6 53.8574 467.6 53.3308V41.1145C467.6 40.6933 468 40.4827 468.4 40.7986C468.9 41.1145 469.3 41.6411 469.3 42.1677V54.3839C469.3 54.8052 468.9 55.0158 468.4 54.6999Z" fill="#484848"/>
<path d="M472.4 61.3352C471.9 61.0192 471.5 60.3873 471.5 59.9661V40.6938C471.5 40.1673 471.9 40.062 472.4 40.2726C472.8 40.5885 473.2 41.2204 473.2 41.6417V60.9139C473.2 61.4405 472.8 61.5458 472.4 61.3352Z" fill="#484848"/>
<path d="M476.3 59.8617C475.8 59.651 475.4 59.0191 475.4 58.4926V46.6976C475.4 46.2763 475.8 46.0657 476.3 46.3816C476.7 46.5922 477.1 47.2241 477.1 47.7507V59.5457C477.1 59.9669 476.7 60.1776 476.3 59.8617Z" fill="#484848"/>
<path d="M480.2 67.0229C479.7 66.7069 479.4 66.0751 479.4 65.5485V44.6966C479.4 44.2753 479.7 44.0647 480.2 44.3806C480.7 44.5913 481 45.2231 481 45.7497V66.6016C481 67.1282 480.7 67.2335 480.2 67.0229Z" fill="#484848"/>
<path d="M484.1 74.3926C483.7 74.0767 483.3 73.4448 483.3 72.9182V38.481C483.3 37.9544 483.7 37.8491 484.1 38.0597C484.6 38.3757 484.9 39.0075 484.9 39.4288V73.9714C484.9 74.4979 484.6 74.6032 484.1 74.3926Z" fill="#484848"/>
<path d="M488 83.5563C487.6 83.2403 487.2 82.6084 487.2 82.0819V35.639C487.2 35.2177 487.6 35.0071 488 35.323C488.5 35.639 488.9 36.1655 488.9 36.6921V83.135C488.9 83.6615 488.5 83.7669 488 83.5563Z" fill="#484848"/>
<path d="M492 78.5009C491.5 78.185 491.1 77.5531 491.1 77.1319V43.853C491.1 43.3265 491.5 43.2212 492 43.4318C492.4 43.7477 492.8 44.3796 492.8 44.9062V78.0797C492.8 78.6062 492.4 78.7115 492 78.5009Z" fill="#484848"/>
<path d="M495.9 77.342C495.4 77.0261 495 76.4995 495 75.973V53.436C495 52.9095 495.4 52.8042 495.9 53.1201C496.3 53.3307 496.7 53.9626 496.7 54.4892V77.0261C496.7 77.4473 496.3 77.658 495.9 77.342Z" fill="#484848"/>
<path d="M499.8 75.7622C499.3 75.4463 499 74.8144 499 74.2879V62.5981C499 62.0716 499.3 61.9663 499.8 62.1769C500.2 62.4928 500.6 63.1247 500.6 63.546V75.341C500.6 75.8676 500.2 75.9729 499.8 75.7622Z" fill="#484848"/>
<path d="M503.7 82.0817C503.3 81.871 502.9 81.2392 502.9 80.7126V59.7554C502.9 59.2288 503.3 59.1235 503.7 59.3341C504.2 59.6501 504.5 60.2819 504.5 60.8085V81.7657C504.5 82.187 504.2 82.3976 503.7 82.0817Z" fill="#484848"/>
<path d="M507.6 96.194C507.2 95.8781 506.8 95.2462 506.8 94.8249V71.3402C506.8 70.8136 507.2 70.603 507.6 70.919C508.1 71.2349 508.5 71.8668 508.5 72.288V95.7727C508.5 96.2993 508.1 96.5099 507.6 96.194Z" fill="#484848"/>
<path d="M511.5 93.1396C511.1 92.8237 510.7 92.2971 510.7 91.7706V63.1255C510.7 62.5989 511.1 62.4936 511.5 62.7042C512 63.0202 512.4 63.6521 512.4 64.0733V92.8237C512.4 93.2449 512 93.4556 511.5 93.1396Z" fill="#484848"/>
<path d="M515.5 91.1375C515 90.9269 514.6 90.295 514.6 89.7684V60.4915C514.6 60.0702 515 59.8596 515.5 60.1756C515.9 60.4915 516.3 61.018 516.3 61.5446V90.8216C516.3 91.2428 515.9 91.4534 515.5 91.1375Z" fill="#484848"/>
<path d="M519.4 82.7143C518.9 82.5037 518.6 81.8719 518.6 81.3453V70.2875C518.6 69.7609 518.9 69.5503 519.4 69.8662C519.8 70.1822 520.2 70.814 520.2 71.2353V82.3984C520.2 82.8197 519.8 83.0303 519.4 82.7143Z" fill="#484848"/>
<path d="M523.3 89.1371C522.8 88.8212 522.5 88.1893 522.5 87.7681V67.9692C522.5 67.4427 522.8 67.3374 523.3 67.548C523.8 67.8639 524.1 68.4958 524.1 68.917V88.7159C524.1 89.2424 523.8 89.3477 523.3 89.1371Z" fill="#484848"/>
<path d="M527.2 94.7196C526.8 94.4036 526.4 93.7717 526.4 93.2452V64.7054C526.4 64.1789 526.8 63.9682 527.2 64.2842C527.7 64.6001 528.1 65.232 528.1 65.6533V94.2983C528.1 94.8249 527.7 94.9302 527.2 94.7196Z" fill="#484848"/>
<path d="M531.1 105.04C530.7 104.83 530.3 104.198 530.3 103.671V60.0718C530.3 59.5452 530.7 59.4399 531.1 59.6505C531.6 59.9665 532 60.5983 532 61.0196V104.724C532 105.146 531.6 105.356 531.1 105.04Z" fill="#484848"/>
<path d="M535.1 83.0294C534.6 82.8187 534.2 82.1868 534.2 81.6603V66.3899C534.2 65.9687 534.6 65.7581 535.1 66.074C535.5 66.2846 535.9 66.9165 535.9 67.443V82.7134C535.9 83.1346 535.5 83.3453 535.1 83.0294Z" fill="#484848"/>
<path d="M539 89.4546C538.5 89.1386 538.2 88.5068 538.2 88.0855V76.3958C538.2 75.9745 538.5 75.7639 539 76.0799C539.4 76.2905 539.8 76.9223 539.8 77.4489V89.0333C539.8 89.5599 539.4 89.6652 539 89.4546Z" fill="#484848"/>
<path d="M542.9 95.4556C542.4 95.1396 542.1 94.5078 542.1 94.0865V73.1293C542.1 72.6027 542.4 72.3921 542.9 72.708C543.4 73.024 543.7 73.6558 543.7 74.0771V95.1396C543.7 95.5609 543.4 95.7715 542.9 95.4556Z" fill="#484848"/>
<path d="M546.8 102.827C546.4 102.511 546 101.88 546 101.458V88.8208C546 88.2943 546.4 88.1889 546.8 88.5049C547.3 88.7155 547.7 89.3474 547.7 89.8739V102.406C547.7 102.933 547.3 103.038 546.8 102.827Z" fill="#484848"/>
<path d="M550.7 109.886C550.3 109.57 549.9 108.938 549.9 108.516V88.4017C549.9 87.8752 550.3 87.6645 550.7 87.9805C551.2 88.2964 551.6 88.9283 551.6 89.3496V109.464C551.6 109.991 551.2 110.201 550.7 109.886Z" fill="#484848"/>
<path d="M554.7 117.257C554.2 116.942 553.8 116.31 553.8 115.888V87.0327C553.8 86.5062 554.2 86.4008 554.7 86.6115C555.1 86.9274 555.5 87.5593 555.5 87.9805V116.836C555.5 117.363 555.1 117.573 554.7 117.257Z" fill="#484848"/>
<path d="M558.6 121.785C558.1 121.469 557.8 120.837 557.8 120.416V81.5552C557.8 81.0286 558.1 80.9233 558.6 81.1339C559 81.4499 559.4 82.0817 559.4 82.6083V121.363C559.4 121.89 559 121.995 558.6 121.785Z" fill="#484848"/>
<path d="M562.5 121.996C562 121.68 561.7 121.153 561.7 120.626V91.7708C561.7 91.3495 562 91.1389 562.5 91.4549C563 91.6655 563.3 92.2973 563.3 92.8239V121.68C563.3 122.101 563 122.311 562.5 121.996Z" fill="#484848"/>
<path d="M566.4 118.52C566 118.204 565.6 117.572 565.6 117.151V100.722C565.6 100.301 566 100.09 566.4 100.406C566.9 100.617 567.3 101.249 567.3 101.775V118.099C567.3 118.625 566.9 118.836 566.4 118.52Z" fill="#484848"/>
<path d="M570.3 123.47C569.9 123.259 569.5 122.627 569.5 122.101V107.357C569.5 106.935 569.9 106.725 570.3 107.041C570.8 107.251 571.2 107.883 571.2 108.41V123.154C571.2 123.575 570.8 123.786 570.3 123.47Z" fill="#484848"/>
<path d="M574.3 131.263C573.8 130.947 573.4 130.421 573.4 129.894V91.139C573.4 90.6125 573.8 90.4018 574.3 90.7178C574.7 91.0337 575.1 91.6656 575.1 92.0868V130.947C575.1 131.369 574.7 131.579 574.3 131.263Z" fill="#484848"/>
<path d="M578.2 129.789C577.7 129.579 577.4 128.947 577.4 128.42V97.3529C577.4 96.8263 577.7 96.6157 578.2 96.9316C578.6 97.2476 579 97.8795 579 98.3007V129.473C579 129.895 578.6 130.105 578.2 129.789Z" fill="#484848"/>
<path d="M582.1 127.471C581.6 127.261 581.3 126.629 581.3 126.102V104.408C581.3 103.881 581.6 103.776 582.1 103.986C582.6 104.302 582.9 104.934 582.9 105.356V127.155C582.9 127.577 582.6 127.787 582.1 127.471Z" fill="#484848"/>
<path d="M586 123.995C585.6 123.679 585.2 123.153 585.2 122.626V112.621C585.2 112.2 585.6 111.99 586 112.305C586.5 112.516 586.9 113.148 586.9 113.674V123.679C586.9 124.1 586.5 124.311 586 123.995Z" fill="#484848"/>
<path d="M54.3 46.893L33 33.9396V32.0439L54.3 44.9974V46.893Z" fill="#484848"/>
<path d="M240.3 159.999L219 147.046V145.15L240.3 158.104V159.999Z" fill="#484848"/>
<path d="M54.6999 59.4256C54.2999 59.1097 53.8999 58.5831 53.8999 58.0565V33.4134C53.8999 32.9921 54.2999 32.7815 54.6999 33.0974C55.1999 33.4134 55.5999 33.9399 55.5999 34.4665V59.1097C55.5999 59.5309 55.1999 59.7416 54.6999 59.4256Z" fill="#484848"/>
<path d="M58.3 68.6938C57.9 68.4832 57.5 67.8514 57.5 67.3248V28.5697C57.5 28.0431 57.9 27.8325 58.3 28.1484C58.8 28.4644 59.1 29.0963 59.1 29.5175V68.3779C59.1 68.7992 58.8 69.0098 58.3 68.6938Z" fill="#484848"/>
<path d="M62.1999 66.7979C61.7999 66.4819 61.3999 65.85 61.3999 65.3235V38.7847C61.3999 38.2581 61.7999 38.1528 62.1999 38.3634C62.6999 38.6794 63.0999 39.3112 63.0999 39.7325V66.3766C63.0999 66.9032 62.6999 67.0085 62.1999 66.7979Z" fill="#484848"/>
<path d="M66.1998 71.3262C65.6998 71.1156 65.2998 70.4837 65.2998 69.9571V36.1517C65.2998 35.6252 65.6998 35.4145 66.1998 35.7305C66.5998 36.0464 66.9998 36.6783 66.9998 37.0995V71.0103C66.9998 71.4315 66.5998 71.6421 66.1998 71.3262Z" fill="#484848"/>
<path d="M70.1002 65.6397C69.6002 65.3237 69.2002 64.6918 69.2002 64.2706V39.1009C69.2002 38.6796 69.6002 38.469 70.1002 38.7849C70.5002 38.9956 70.9002 39.6274 70.9002 40.154V65.2184C70.9002 65.745 70.5002 65.9556 70.1002 65.6397Z" fill="#484848"/>
<path d="M74.0002 64.7972C73.5002 64.5866 73.2002 63.9547 73.2002 63.4281V34.3618C73.2002 33.8353 73.5002 33.7299 74.0002 33.9406C74.5002 34.2565 74.8002 34.8884 74.8002 35.3096V64.4813C74.8002 64.9025 74.5002 65.1131 74.0002 64.7972Z" fill="#484848"/>
<path d="M77.9001 62.1656C77.5001 61.8497 77.1001 61.2178 77.1001 60.7966V40.4712C77.1001 39.9446 77.5001 39.8393 77.9001 40.0499C78.4001 40.3659 78.7001 40.9978 78.7001 41.419V61.7444C78.7001 62.2709 78.4001 62.3762 77.9001 62.1656Z" fill="#484848"/>
<path d="M81.8 67.0087C81.4 66.7981 81 66.1662 81 65.6397V39.1009C81 38.6796 81.4 38.469 81.8 38.7849C82.3 38.9956 82.7 39.6274 82.7 40.154V66.6928C82.7 67.2194 82.3 67.3247 81.8 67.0087Z" fill="#484848"/>
<path d="M85.7999 65.0083C85.2999 64.6923 84.8999 64.0605 84.8999 63.6392V45.2095C84.8999 44.6829 85.2999 44.5776 85.7999 44.7882C86.1999 45.1042 86.5999 45.736 86.5999 46.2626V64.587C86.5999 65.1136 86.1999 65.2189 85.7999 65.0083Z" fill="#484848"/>
<path d="M89.6998 78.4879C89.1998 78.1719 88.7998 77.6454 88.7998 77.1188V51.0013C88.7998 50.58 89.1998 50.3694 89.6998 50.6853C90.0998 50.8959 90.4998 51.5278 90.4998 52.0544V78.1719C90.4998 78.5932 90.0998 78.8038 89.6998 78.4879Z" fill="#484848"/>
<path d="M93.5998 78.383C93.0998 78.067 92.7998 77.4351 92.7998 77.0139V49.9485C92.7998 49.5273 93.0998 49.3166 93.5998 49.6326C94.0998 49.8432 94.3998 50.4751 94.3998 51.0017V77.9617C94.3998 78.4883 94.0998 78.5936 93.5998 78.383Z" fill="#484848"/>
<path d="M97.5002 83.2259C97.1002 83.0152 96.7002 82.3834 96.7002 81.8568V60.1624C96.7002 59.7411 97.1002 59.5305 97.5002 59.8465C98.0002 60.1624 98.3002 60.6889 98.3002 61.2155V82.9099C98.3002 83.3312 98.0002 83.5418 97.5002 83.2259Z" fill="#484848"/>
<path d="M101.4 82.6999C101 82.4892 100.6 81.8574 100.6 81.3308V69.1145C100.6 68.6933 101 68.4827 101.4 68.7986C101.9 69.1145 102.3 69.6411 102.3 70.1677V82.3839C102.3 82.8052 101.9 83.0158 101.4 82.6999Z" fill="#484848"/>
<path d="M105.4 89.3352C104.9 89.0192 104.5 88.3873 104.5 87.9661V68.6938C104.5 68.1673 104.9 68.062 105.4 68.2726C105.8 68.5885 106.2 69.2204 106.2 69.6417V88.9139C106.2 89.4405 105.8 89.5458 105.4 89.3352Z" fill="#484848"/>
<path d="M109.3 87.8617C108.8 87.651 108.4 87.0191 108.4 86.4926V74.6976C108.4 74.2763 108.8 74.0657 109.3 74.3816C109.7 74.5922 110.1 75.2241 110.1 75.7507V87.5457C110.1 87.9669 109.7 88.1776 109.3 87.8617Z" fill="#484848"/>
<path d="M113.2 95.0229C112.7 94.7069 112.4 94.0751 112.4 93.5485V72.6966C112.4 72.2753 112.7 72.0647 113.2 72.3806C113.7 72.5913 114 73.2231 114 73.7497V94.6016C114 95.1282 113.7 95.2335 113.2 95.0229Z" fill="#484848"/>
<path d="M117.1 102.393C116.7 102.077 116.3 101.445 116.3 100.918V66.481C116.3 65.9544 116.7 65.8491 117.1 66.0597C117.6 66.3757 117.9 67.0075 117.9 67.4288V101.971C117.9 102.498 117.6 102.603 117.1 102.393Z" fill="#484848"/>
<path d="M121 111.556C120.6 111.24 120.2 110.608 120.2 110.082V63.639C120.2 63.2177 120.6 63.0071 121 63.323C121.5 63.639 121.9 64.1655 121.9 64.6921V111.135C121.9 111.662 121.5 111.767 121 111.556Z" fill="#484848"/>
<path d="M125 106.501C124.5 106.185 124.1 105.553 124.1 105.132V71.853C124.1 71.3265 124.5 71.2212 125 71.4318C125.4 71.7477 125.8 72.3796 125.8 72.9062V106.08C125.8 106.606 125.4 106.712 125 106.501Z" fill="#484848"/>
<path d="M128.9 105.342C128.4 105.026 128 104.5 128 103.973V81.436C128 80.9095 128.4 80.8042 128.9 81.1201C129.3 81.3307 129.7 81.9626 129.7 82.4892V105.026C129.7 105.447 129.3 105.658 128.9 105.342Z" fill="#484848"/>
<path d="M132.8 103.762C132.3 103.446 132 102.814 132 102.288V90.5981C132 90.0716 132.3 89.9663 132.8 90.1769C133.2 90.4928 133.6 91.1247 133.6 91.546V103.341C133.6 103.868 133.2 103.973 132.8 103.762Z" fill="#484848"/>
<path d="M136.7 110.082C136.3 109.871 135.9 109.239 135.9 108.713V87.7554C135.9 87.2288 136.3 87.1235 136.7 87.3341C137.2 87.6501 137.5 88.2819 137.5 88.8085V109.766C137.5 110.187 137.2 110.398 136.7 110.082Z" fill="#484848"/>
<path d="M140.6 124.194C140.2 123.878 139.8 123.246 139.8 122.825V99.3402C139.8 98.8136 140.2 98.603 140.6 98.919C141.1 99.2349 141.5 99.8668 141.5 100.288V123.773C141.5 124.299 141.1 124.51 140.6 124.194Z" fill="#484848"/>
<path d="M144.5 121.14C144.1 120.824 143.7 120.297 143.7 119.771V91.1255C143.7 90.5989 144.1 90.4936 144.5 90.7042C145 91.0202 145.4 91.6521 145.4 92.0733V120.824C145.4 121.245 145 121.456 144.5 121.14Z" fill="#484848"/>
<path d="M148.5 119.137C148 118.927 147.6 118.295 147.6 117.768V88.4915C147.6 88.0702 148 87.8596 148.5 88.1756C148.9 88.4915 149.3 89.018 149.3 89.5446V118.822C149.3 119.243 148.9 119.453 148.5 119.137Z" fill="#484848"/>
<path d="M152.4 110.714C151.9 110.504 151.6 109.872 151.6 109.345V98.2875C151.6 97.7609 151.9 97.5503 152.4 97.8662C152.8 98.1822 153.2 98.814 153.2 99.2353V110.398C153.2 110.82 152.8 111.03 152.4 110.714Z" fill="#484848"/>
<path d="M156.3 117.137C155.8 116.821 155.5 116.189 155.5 115.768V95.9692C155.5 95.4427 155.8 95.3374 156.3 95.548C156.8 95.8639 157.1 96.4958 157.1 96.917V116.716C157.1 117.242 156.8 117.348 156.3 117.137Z" fill="#484848"/>
<path d="M160.2 122.72C159.8 122.404 159.4 121.772 159.4 121.245V92.7054C159.4 92.1789 159.8 91.9682 160.2 92.2842C160.7 92.6001 161.1 93.232 161.1 93.6533V122.298C161.1 122.825 160.7 122.93 160.2 122.72Z" fill="#484848"/>
<path d="M164.1 133.04C163.7 132.83 163.3 132.198 163.3 131.671V88.0718C163.3 87.5452 163.7 87.4399 164.1 87.6505C164.6 87.9665 165 88.5983 165 89.0196V132.724C165 133.146 164.6 133.356 164.1 133.04Z" fill="#484848"/>
<path d="M168.1 111.029C167.6 110.819 167.2 110.187 167.2 109.66V94.3899C167.2 93.9687 167.6 93.7581 168.1 94.074C168.5 94.2846 168.9 94.9165 168.9 95.443V110.713C168.9 111.135 168.5 111.345 168.1 111.029Z" fill="#484848"/>
<path d="M172 117.455C171.5 117.139 171.2 116.507 171.2 116.086V104.396C171.2 103.975 171.5 103.764 172 104.08C172.4 104.29 172.8 104.922 172.8 105.449V117.033C172.8 117.56 172.4 117.665 172 117.455Z" fill="#484848"/>
<path d="M175.9 123.456C175.4 123.14 175.1 122.508 175.1 122.087V101.129C175.1 100.603 175.4 100.392 175.9 100.708C176.4 101.024 176.7 101.656 176.7 102.077V123.14C176.7 123.561 176.4 123.772 175.9 123.456Z" fill="#484848"/>
<path d="M179.8 130.827C179.4 130.511 179 129.88 179 129.458V116.821C179 116.294 179.4 116.189 179.8 116.505C180.3 116.715 180.7 117.347 180.7 117.874V130.406C180.7 130.933 180.3 131.038 179.8 130.827Z" fill="#484848"/>
<path d="M183.7 137.886C183.3 137.57 182.9 136.938 182.9 136.516V116.402C182.9 115.875 183.3 115.665 183.7 115.98C184.2 116.296 184.6 116.928 184.6 117.35V137.464C184.6 137.991 184.2 138.201 183.7 137.886Z" fill="#484848"/>
<path d="M187.7 145.257C187.2 144.942 186.8 144.31 186.8 143.888V115.033C186.8 114.506 187.2 114.401 187.7 114.611C188.1 114.927 188.5 115.559 188.5 115.981V144.836C188.5 145.363 188.1 145.573 187.7 145.257Z" fill="#484848"/>
<path d="M191.6 149.785C191.1 149.469 190.8 148.837 190.8 148.416V109.555C190.8 109.029 191.1 108.923 191.6 109.134C192 109.45 192.4 110.082 192.4 110.608V149.363C192.4 149.89 192 149.995 191.6 149.785Z" fill="#484848"/>
<path d="M195.5 149.996C195 149.68 194.7 149.153 194.7 148.626V119.771C194.7 119.35 195 119.139 195.5 119.455C196 119.665 196.3 120.297 196.3 120.824V149.68C196.3 150.101 196 150.311 195.5 149.996Z" fill="#484848"/>
<path d="M199.4 146.52C199 146.204 198.6 145.572 198.6 145.151V128.722C198.6 128.301 199 128.09 199.4 128.406C199.9 128.617 200.3 129.249 200.3 129.775V146.099C200.3 146.625 199.9 146.836 199.4 146.52Z" fill="#484848"/>
<path d="M203.3 151.47C202.9 151.259 202.5 150.627 202.5 150.101V135.357C202.5 134.935 202.9 134.725 203.3 135.041C203.8 135.251 204.2 135.883 204.2 136.41V151.154C204.2 151.575 203.8 151.786 203.3 151.47Z" fill="#484848"/>
<path d="M207.3 159.263C206.8 158.947 206.4 158.421 206.4 157.894V119.139C206.4 118.612 206.8 118.402 207.3 118.718C207.7 119.034 208.1 119.666 208.1 120.087V158.947C208.1 159.369 207.7 159.579 207.3 159.263Z" fill="#484848"/>
<path d="M211.2 157.789C210.7 157.579 210.4 156.947 210.4 156.42V125.353C210.4 124.826 210.7 124.616 211.2 124.932C211.6 125.248 212 125.879 212 126.301V157.473C212 157.895 211.6 158.105 211.2 157.789Z" fill="#484848"/>
<path d="M215.1 155.471C214.6 155.261 214.3 154.629 214.3 154.102V132.408C214.3 131.881 214.6 131.776 215.1 131.986C215.6 132.302 215.9 132.934 215.9 133.356V155.155C215.9 155.577 215.6 155.787 215.1 155.471Z" fill="#484848"/>
<path d="M219 151.995C218.6 151.679 218.2 151.153 218.2 150.626V140.621C218.2 140.2 218.6 139.99 219 140.305C219.5 140.516 219.9 141.148 219.9 141.674V151.679C219.9 152.1 219.5 152.311 219 151.995Z" fill="#484848"/>
<path fill-rule="evenodd" clip-rule="evenodd" d="M307.229 613L306.608 612.628L5 438.983L6.86255 437.866L375.771 225L376.392 225.372L678 399.017L676.137 400.134L307.229 613ZM9.96679 438.983L307.229 610.145L672.909 399.017L375.771 227.855L9.96679 438.983Z" fill="#272727"/>
<path d="M51.1441 633.632L198.594 547.942L197.335 546L50.0002 631.69L51.1441 633.632Z" fill="#272727"/>
<path d="M217.45 319.632L70 233.942L71.2583 232L218.594 317.69L217.45 319.632Z" fill="#272727"/>
<path d="M622.45 603.632L475 517.942L476.258 516L623.594 601.69L622.45 603.632Z" fill="#272727"/>
<path d="M169 237.8L158.6 231.8L196.9 209.6C198.7 208.6 198.7 206.9 196.9 205.9L157.8 183.3C156 182.2 153 182.2 151.2 183.3L112.9 205.4L102.5 199.4L140.8 177.3C148.4 172.9 160.6 172.9 168.2 177.3L207.3 199.9C214.8 204.2 214.8 211.3 207.3 215.6L169 237.8Z" fill="#1C1C1C"/>
<path d="M185.7 240.4C185.7 234.8 182.4 228.4 178.2 226L108.8 185.9C107 184.8 105.2 184.8 103.9 185.5L21.1001 233.6L101.2 294L182.8 246.6C183.067 246.533 183.3 246.4 183.5 246.2C184.9 245.2 185.7 243.2 185.7 240.4Z" fill="#272727"/>
<path d="M101.2 294L182.8 246.6C183.067 246.534 183.3 246.4 183.5 246.2C184.9 245.2 185.7 243.2 185.7 240.4C185.7 237.7 185 234.9 183.7 232.4L90.7002 286.1L101.2 294Z" fill="#1C1C1C"/>
<path d="M96 293.8L26.6 253.7C22.4 251.3 19 244.9 19 239.3C19 233.8 22.4 231.2 26.6 233.6L96 273.7C100.1 276.1 103.5 282.5 103.5 288.1C103.5 293.7 100.1 296.2 96 293.8Z" fill="#3D3D3D"/>
<path d="M96.7999 273.3L27.3999 233.3C25.4999 232.1 23.7999 232.1 22.3999 232.9C23.5999 232.5 25.0999 232.7 26.5999 233.6L95.9999 273.7C100.1 276.1 103.5 282.5 103.5 288.1C103.5 291.1 102.5 293.2 101 294.2C103 293.5 104.4 291.2 104.4 287.7C104.4 282.2 101 275.7 96.7999 273.3Z" fill="black"/>
<path d="M85.6002 280.3L77.2002 275.5C76.4002 275 75.7002 273.7 75.7002 272.6C75.7002 271.5 76.4002 271 77.2002 271.5L85.6002 276.3C86.4002 276.8 87.1002 278 87.1002 279.2C87.1002 280.3 86.4002 280.8 85.6002 280.3Z" fill="#C92222"/>
<path d="M96.1999 224C98.3999 222.7 98.3999 220.7 96.1999 219.4C93.9999 218.2 90.3999 218.2 88.2999 219.5C86.0999 220.8 86.0999 222.9 88.2999 224.1C90.4999 225.4 94.0999 225.3 96.1999 224Z" fill="#757575"/>
<path d="M108.4 230.899C110.5 229.599 110.5 227.499 108.3 226.299C106.1 224.999 102.5 225.099 100.4 226.399C98.2 227.599 98.2 229.699 100.4 230.899C102.6 232.199 106.2 232.099 108.4 230.899Z" fill="#757575"/>
<path d="M120.5 237.699C122.6 236.399 122.6 234.299 120.4 233.099C118.2 231.799 114.6 231.899 112.5 233.199C110.3 234.499 110.3 236.499 112.5 237.799C114.7 238.999 118.3 238.999 120.5 237.699Z" fill="#757575"/>
<path d="M611 298.8L600.6 292.8L638.9 270.6C640.7 269.6 640.7 267.9 638.9 266.9L599.8 244.3C598 243.2 595 243.2 593.2 244.3L554.9 266.4L544.5 260.4L582.8 238.3C590.4 233.9 602.6 233.9 610.2 238.3L649.3 260.9C656.8 265.2 656.8 272.3 649.3 276.6L611 298.8Z" fill="#1C1C1C"/>
<path d="M627.7 301.4C627.7 295.8 624.4 289.4 620.2 287L550.8 246.9C549 245.8 547.2 245.8 545.9 246.5L463.1 294.6L543.2 355L624.8 307.6C625.067 307.533 625.3 307.4 625.5 307.2C626.9 306.2 627.7 304.2 627.7 301.4Z" fill="#272727"/>
<path d="M543.2 355L624.8 307.6C625.067 307.534 625.3 307.4 625.5 307.2C626.9 306.2 627.7 304.2 627.7 301.4C627.7 298.7 627 295.9 625.7 293.4L532.7 347.1L543.2 355Z" fill="#1C1C1C"/>
<path d="M538 354.8L468.6 314.7C464.4 312.3 461 305.9 461 300.3C461 294.8 464.4 292.2 468.6 294.6L538 334.7C542.1 337.1 545.5 343.5 545.5 349.1C545.5 354.7 542.1 357.2 538 354.8Z" fill="#3D3D3D"/>
<path d="M538.8 334.3L469.4 294.3C467.5 293.1 465.8 293.1 464.4 293.9C465.6 293.5 467.1 293.7 468.6 294.6L538 334.7C542.1 337.1 545.5 343.5 545.5 349.1C545.5 352.1 544.5 354.2 543 355.2C545 354.5 546.4 352.2 546.4 348.7C546.4 343.2 543 336.7 538.8 334.3Z" fill="black"/>
<path d="M527.6 341.3L519.2 336.5C518.4 336 517.7 334.7 517.7 333.6C517.7 332.5 518.4 332 519.2 332.5L527.6 337.3C528.4 337.8 529.1 339 529.1 340.2C529.1 341.3 528.4 341.8 527.6 341.3Z" fill="#C92222"/>
<path d="M538.2 285C540.4 283.7 540.4 281.7 538.2 280.4C536 279.2 532.4 279.2 530.3 280.5C528.1 281.8 528.1 283.9 530.3 285.1C532.5 286.4 536.1 286.3 538.2 285Z" fill="#757575"/>
<path d="M550.4 291.899C552.5 290.599 552.5 288.499 550.3 287.299C548.1 285.999 544.5 286.099 542.4 287.399C540.2 288.599 540.2 290.699 542.4 291.899C544.6 293.199 548.2 293.099 550.4 291.899Z" fill="#757575"/>
<path d="M562.5 298.699C564.6 297.399 564.6 295.299 562.4 294.099C560.2 292.799 556.6 292.899 554.5 294.199C552.3 295.499 552.3 297.499 554.5 298.799C556.7 299.999 560.3 299.999 562.5 298.699Z" fill="#757575"/>
<path d="M125.235 615.887L117.592 611.477L145.739 595.163C147.062 594.428 147.062 593.178 145.739 592.443L117.004 575.835C115.681 575.026 113.477 575.026 112.154 575.835L84.0072 592.076L76.3643 587.667L104.511 571.425C110.096 568.192 119.062 568.192 124.647 571.425L153.382 588.034C158.894 591.194 158.894 596.412 153.382 599.572L125.235 615.887Z" fill="#1C1C1C"/>
<path d="M137.508 617.798C137.508 613.682 135.083 608.979 131.997 607.215L80.9944 577.746C79.6715 576.937 78.3487 576.937 77.3933 577.452L16.5435 612.8L75.4091 657.189L135.377 622.354C135.573 622.305 135.745 622.207 135.892 622.06C136.92 621.325 137.508 619.856 137.508 617.798Z" fill="#272727"/>
<path d="M75.4089 657.189L135.377 622.355C135.573 622.306 135.744 622.208 135.891 622.061C136.92 621.326 137.508 619.856 137.508 617.798C137.508 615.814 136.994 613.756 136.038 611.919L67.6924 651.383L75.4089 657.189Z" fill="#1C1C1C"/>
<path d="M71.5874 657.042L20.5852 627.572C17.4986 625.808 15 621.105 15 616.989C15 612.947 17.4986 611.037 20.5852 612.8L71.5874 642.27C74.6005 644.034 77.0992 648.737 77.0992 652.853C77.0992 656.968 74.6005 658.805 71.5874 657.042Z" fill="#3D3D3D"/>
<path d="M72.1753 641.976L21.173 612.58C19.7767 611.698 18.5274 611.698 17.4985 612.286C18.3804 611.992 19.4828 612.139 20.5851 612.801L71.5873 642.27C74.6004 644.034 77.0991 648.737 77.0991 652.853C77.0991 655.057 76.3642 656.601 75.2619 657.336C76.7317 656.821 77.7605 655.131 77.7605 652.559C77.7605 648.517 75.2618 643.74 72.1753 641.976Z" fill="black"/>
<path d="M63.9445 647.12L57.7713 643.592C57.1834 643.225 56.6689 642.269 56.6689 641.461C56.6689 640.653 57.1834 640.285 57.7713 640.653L63.9445 644.18C64.5324 644.548 65.0468 645.429 65.0468 646.311C65.0468 647.12 64.5324 647.487 63.9445 647.12Z" fill="#C92222"/>
<path d="M71.7341 605.745C73.3509 604.789 73.3509 603.32 71.7341 602.364C70.1173 601.482 67.4717 601.482 65.9284 602.438C64.3116 603.393 64.3116 604.936 65.9284 605.818C67.5452 606.774 70.1908 606.7 71.7341 605.745Z" fill="#757575"/>
<path d="M80.7002 610.815C82.2435 609.86 82.2435 608.316 80.6267 607.435C79.0099 606.479 76.3643 606.553 74.821 607.508C73.2042 608.39 73.2042 609.933 74.821 610.815C76.4378 611.77 79.0834 611.697 80.7002 610.815Z" fill="#757575"/>
<path d="M89.5928 615.812C91.1361 614.857 91.136 613.313 89.5193 612.432C87.9025 611.476 85.2569 611.55 83.7136 612.505C82.0968 613.46 82.0968 614.93 83.7136 615.886C85.3303 616.767 87.976 616.767 89.5928 615.812Z" fill="#757575"/>
<path d="M328.733 561.592H293.668L282.963 532.194L312.769 520.546L341.837 532.472L328.733 561.592Z" fill="black"/>
<path d="M417.413 510.284L328.734 561.592V535.984L365.737 500.947L417.413 484.676V510.284Z" fill="black"/>
<path d="M417.413 484.677V464.339L344.698 422.275H309.632L220.953 473.584V493.922L293.668 535.985H328.734L417.413 484.677Z" fill="black"/>
<path d="M293.668 561.594L220.953 519.531V493.923L293.668 535.986V561.594Z" fill="black"/>
<path d="M328.918 555.676H292.838L281.856 477.189L312.493 465.078L342.483 477.374L328.918 555.676Z" fill="#313131"/>
<path d="M420.182 502.891L328.918 555.678V480.981L367.029 444.926L420.182 428.193V502.891Z" fill="#1C1C1C"/>
<path d="M420.182 428.193V407.392L345.344 364.034H309.356L218 416.822V437.715L292.838 480.98H328.918L420.182 428.193Z" fill="#272727"/>
<path d="M292.838 555.677L218 512.411V437.714L292.838 480.979V555.677Z" fill="#3D3D3D"/>
<path d="M328.734 478.486H293.668L282.964 449.18L312.77 437.439L341.837 449.365L328.734 478.486Z" fill="#313131"/>
<path d="M417.413 427.269L328.734 478.484V452.877L365.737 417.839L417.413 401.568V427.269Z" fill="#1C1C1C"/>
<path d="M417.413 401.568V381.322L344.698 339.259H309.632L220.953 390.567V410.813L293.668 452.876H328.734L417.413 401.568Z" fill="#272727"/>
<path d="M293.668 478.485L220.953 436.514V410.813L293.668 452.877V478.485Z" fill="#3D3D3D"/>
<path d="M293.668 478.485L266.815 462.954V450.844L293.668 466.375V478.485Z" fill="#C92222"/>
<path opacity="0.3" d="M335.285 444.003L285.547 445.482L220.953 408.133V433.741L293.668 475.805H328.734L417.413 424.497V398.889L335.285 444.003Z" fill="black"/>
<path d="M328.918 470.902H292.838L281.856 422.83L312.493 410.812L342.483 423.107L328.918 470.902Z" fill="#313131"/>
<path d="M420.182 418.117L328.918 470.904V426.714L367.029 390.66L420.182 373.927V418.117Z" fill="#1C1C1C"/>
<path d="M420.182 373.926V353.033L345.344 309.768H309.356L218 362.555V383.356L292.838 426.713H328.918L420.182 373.926Z" fill="#272727"/>
<path d="M292.838 470.903L218 427.73V383.355L292.838 426.713V470.903Z" fill="#3D3D3D"/>
<path d="M328.734 424.219H293.668L282.964 394.821L312.77 383.08L341.837 395.098L328.734 424.219Z" fill="#313131"/>
<path d="M417.413 372.908L328.734 424.216V398.516L365.737 363.478L417.413 347.3V372.908Z" fill="#1C1C1C"/>
<path d="M417.413 347.301V326.963L344.698 284.899H309.632L220.953 336.208V356.454L293.668 398.517H328.734L417.413 347.301Z" fill="#272727"/>
<path d="M293.668 424.218L220.953 382.154V356.454L293.668 398.518V424.218Z" fill="#3D3D3D"/>
<path d="M293.668 424.219L266.815 408.687V396.484L293.668 412.015V424.219Z" fill="#C92222"/>
<path opacity="0.3" d="M335.285 389.644L285.547 391.123L220.953 353.774V379.474L293.668 421.445H328.734L417.413 370.137V344.529L335.285 389.644Z" fill="black"/>
<path d="M328.919 416.915H292.838L281.857 368.842L312.493 356.731L342.484 369.027L328.919 416.915Z" fill="#313131"/>
<path d="M420.182 364.129L328.918 416.916V372.634L367.029 336.58L420.182 319.847V364.129Z" fill="#1C1C1C"/>
<path d="M420.182 319.846V298.953L345.344 255.688H309.356L218 308.475V329.368L292.838 372.633H328.918L420.182 319.846Z" fill="#272727"/>
<path d="M292.838 416.916L218 373.65V329.368L292.838 372.633V416.916Z" fill="#3D3D3D"/>
<path d="M328.734 370.137H293.668L282.964 340.832L312.77 329.091L341.837 341.017L328.734 370.137Z" fill="#313131"/>
<path d="M417.413 318.828L328.734 370.136V344.528L365.737 309.49L417.413 293.22V318.828Z" fill="#1C1C1C"/>
<path d="M417.413 293.22V272.881L344.698 230.91H309.632L220.953 282.218V302.464L293.668 344.528H328.734L417.413 293.22Z" fill="#272727"/>
<path d="M293.668 370.136L220.953 328.165V302.465L293.668 344.528V370.136Z" fill="#3D3D3D"/>
<path d="M293.668 370.135L266.815 354.604V342.493L293.668 358.024V370.135Z" fill="#C92222"/>
<path opacity="0.3" d="M335.285 335.654L285.547 337.133L220.953 299.785V325.393L293.668 367.456H328.734L417.413 316.148V290.54L335.285 335.654Z" fill="black"/>
<path d="M328.918 363.11H292.838L281.856 314.945L312.493 302.927L342.483 315.222L328.918 363.11Z" fill="#313131"/>
<path d="M420.182 310.231L328.918 363.111V318.737L367.029 282.775L420.182 265.949V310.231Z" fill="#1C1C1C"/>
<path d="M420.182 265.949V245.148L345.344 201.883H309.356L218 254.67V275.471L292.838 318.736H328.918L420.182 265.949Z" fill="#272727"/>
<path d="M292.838 363.111L218 319.753V275.471L292.838 318.736V363.111Z" fill="#3D3D3D"/>
<path d="M328.734 315.687H293.668L282.964 307.921L312.77 296.181L339.807 307.274L328.734 315.687Z" fill="#313131"/>
<path d="M417.413 264.377L328.734 315.685V311.618L365.737 276.58L417.413 260.31V264.377Z" fill="#1C1C1C"/>
<path d="M417.413 260.309V240.063L344.698 198H309.632L220.953 249.308V269.554L293.668 311.618H328.734L417.413 260.309Z" fill="#272727"/>
<path fill-rule="evenodd" clip-rule="evenodd" d="M285.988 238.412C288.453 238.385 290.396 239.507 290.349 240.93L289.519 267.294L310.515 255.172C312.269 254.16 315.112 254.132 316.795 255.104L317.601 255.569C318.217 252.422 320.634 249.33 324.852 246.895C334.52 241.313 349.995 241.162 359.331 246.553C368.597 251.902 368.384 260.782 358.858 266.364L358.573 266.528C348.905 272.028 333.549 272.137 324.283 266.788L313.501 260.563L288.003 275.284C286.699 276.037 284.804 276.283 283.168 275.886C282.623 275.763 282.149 275.599 281.747 275.366L281.699 275.339C280.941 274.874 280.467 274.244 280.514 273.56L281.486 241.012C281.51 240.314 282.007 239.698 282.766 239.233L282.908 239.151C283.713 238.713 284.804 238.412 285.988 238.412ZM352.957 250.233C347.009 246.799 337.175 246.895 331.013 250.452C324.876 253.995 324.71 259.673 330.658 263.107C336.582 266.528 346.416 266.432 352.554 262.889C358.715 259.331 358.881 253.653 352.957 250.233ZM326.345 233.446C328.809 233.418 330.753 234.54 330.681 235.949C330.681 236.661 330.16 237.29 329.331 237.769C328.525 238.234 327.411 238.549 326.179 238.549C322.056 238.604 318.122 239.561 315.136 241.285C312.174 242.995 310.491 245.28 310.42 247.647C310.397 248.372 309.875 249.002 309.046 249.481C308.24 249.946 307.15 250.247 305.894 250.26C303.477 250.288 301.534 249.166 301.558 247.757C301.676 243.994 304.33 240.437 308.998 237.742C313.691 235.033 319.852 233.5 326.345 233.446Z" fill="#757575"/>
<path d="M293.668 315.687L220.953 273.623V269.556L293.668 311.619V315.687Z" fill="#3D3D3D"/>
<path d="M639.408 597.362V578.114L596.281 577.97L581.374 569.431C578.046 567.405 572.112 567.694 568.06 570.01L554.167 577.97H511.039V597.797C510.895 599.099 511.618 600.402 513.355 601.27L569.073 633.543C572.401 635.424 578.48 635.279 582.387 632.964L636.224 601.849C638.539 600.546 639.552 598.81 639.408 597.362Z" fill="#1C1C1C"/>
<path d="M575.296 568.128C572.691 568.128 570.086 568.852 568.06 570.009L554.167 577.969H511.039V597.796C510.895 599.098 511.618 600.401 513.355 601.269L569.073 633.542C570.665 634.41 572.98 634.845 575.296 634.845V568.128Z" fill="#3D3D3D"/>
<path d="M515.96 577.971H511.039V597.798C510.895 599.1 511.618 600.403 513.355 601.271L515.96 602.863V577.971Z" fill="#3D3D3D"/>
<path d="M569.941 633.977C572.836 635.135 577.177 635.135 580.506 633.832V611.401H569.941V633.977Z" fill="#313131"/>
<path d="M569.073 613.861L513.355 581.588C509.882 579.707 510.316 576.233 514.223 573.918L568.06 542.803C572.112 540.632 578.046 540.342 581.374 542.368L637.237 574.497C640.565 576.523 640.131 579.851 636.224 582.167L582.387 613.282C578.48 615.598 572.402 615.742 569.073 613.861Z" fill="#272727"/>
<path d="M619.002 602.427C619.002 603.73 617.989 605.611 616.686 606.335C615.529 606.914 614.516 606.335 614.516 605.032C614.516 603.585 615.529 601.849 616.686 601.125C617.989 600.401 619.002 600.98 619.002 602.427Z" fill="#757575"/>
<path d="M626.238 598.231C626.238 599.678 625.225 601.415 623.923 602.139C622.765 602.862 621.752 602.283 621.752 600.836C621.752 599.389 622.765 597.652 623.923 596.929C625.225 596.205 626.238 596.784 626.238 598.231Z" fill="#757575"/>
<path d="M633.474 594.034C633.474 595.481 632.461 597.218 631.159 597.941C630.001 598.665 628.988 598.086 628.988 596.639C628.988 595.192 630.001 593.455 631.159 592.731C632.461 592.008 633.474 592.587 633.474 594.034Z" fill="#757575"/>
<path d="M572.402 593.889L546.207 578.838C544.615 577.824 544.905 576.233 546.786 575.22L571.968 560.603C573.704 559.59 576.599 559.445 578.191 560.458L604.241 575.509C605.832 576.377 605.688 577.969 603.806 579.127L578.625 593.599C576.743 594.612 573.994 594.757 572.402 593.889Z" fill="#161616"/>
<path d="M574.529 584.289L566.371 579.707C565.718 579.402 566.045 579.096 566.371 578.791L574.203 574.514C574.855 574.209 575.834 574.209 576.161 574.514L584.318 578.791C584.971 579.096 584.971 579.707 584.318 580.013L576.487 583.984C575.834 584.289 574.855 584.595 574.529 584.289Z" fill="#757575"/>
<path d="M546.207 578.838H546.352C546.448 578.741 546.593 578.645 546.786 578.548L571.968 564.076C573.704 562.918 576.599 562.918 578.191 563.786L604.096 578.838C605.688 577.68 605.688 576.377 604.241 575.509L578.191 560.458C576.599 559.445 573.704 559.59 571.968 560.603L546.786 575.22C544.905 576.233 544.615 577.824 546.207 578.838Z" fill="black"/>
<path d="M61.3002 451.1L30.7002 468.9V433.4L61.3002 415.7V451.1Z" fill="#1C1C1C"/>
<path d="M30.7 433.4L0 415.7L30.7 398L61.3 415.7L30.7 433.4Z" fill="#272727"/>
<path d="M30.7 468.9L0 451.1V415.7L30.7 433.4V468.9Z" fill="#3D3D3D"/>
<path d="M505.3 524.1L474.7 541.9V506.4L505.3 488.7V524.1Z" fill="#1C1C1C"/>
<path d="M474.7 506.4L444 488.7L474.7 471L505.3 488.7L474.7 506.4Z" fill="#272727"/>
<path d="M474.7 541.9L444 524.1V488.7L474.7 506.4V541.9Z" fill="#3D3D3D"/>
<path d="M659.695 390.122C665.956 385.959 676.044 385.959 682.305 390.122C688.565 394.284 688.565 401.048 682.305 405.211C676.044 409.374 665.956 409.374 659.695 405.211C653.435 401.048 653.435 394.284 659.695 390.122Z" fill="#C92222"/>
<path d="M677.333 395.426H671.68C670.482 395.426 669.883 395.426 669.425 395.56C669.022 395.679 668.695 395.868 668.49 396.1C668.257 396.364 668.257 396.71 668.257 397.402L668.257 400.666" stroke="black" stroke-width="2" stroke-linecap="round" stroke-linejoin="round"/>
<path d="M164.695 285.122C170.956 280.959 181.044 280.959 187.305 285.122C193.565 289.284 193.565 296.048 187.305 300.211C181.044 304.374 170.956 304.374 164.695 300.211C158.435 296.048 158.435 289.284 164.695 285.122Z" fill="#C92222"/>
<path d="M182.333 290.426H176.68C175.482 290.426 174.883 290.426 174.425 290.56C174.022 290.679 173.695 290.868 173.49 291.1C173.257 291.364 173.257 291.71 173.257 292.402L173.257 295.666" stroke="black" stroke-width="2" stroke-linecap="round" stroke-linejoin="round"/>
<path d="M416.305 548.122C410.044 543.959 399.956 543.959 393.695 548.122C387.435 552.284 387.435 559.048 393.695 563.211C399.956 567.374 410.044 567.374 416.305 563.211C422.565 559.048 422.565 552.284 416.305 548.122Z" fill="#C92222"/>
<path d="M398.667 553.426H404.32C405.518 553.426 406.117 553.426 406.575 553.56C406.978 553.679 407.305 553.868 407.51 554.1C407.743 554.364 407.743 554.71 407.743 555.402L407.743 558.666" stroke="black" stroke-width="2" stroke-linecap="round" stroke-linejoin="round"/>
<path d="M112.695 377.211C118.956 381.374 129.044 381.374 135.305 377.211C141.565 373.049 141.565 366.285 135.305 362.122C129.044 357.959 118.956 357.959 112.695 362.122C106.435 366.285 106.435 373.049 112.695 377.211Z" fill="#C92222"/>
<path d="M129.333 370.908H123.68C122.482 370.908 121.883 370.908 121.425 370.773C121.022 370.655 120.695 370.466 120.49 370.233C120.257 369.969 120.257 369.623 120.257 368.931L120.257 365.667" stroke="black" stroke-width="2" stroke-linecap="round" stroke-linejoin="round"/>
<path d="M179.695 555.211C185.956 559.374 196.044 559.374 202.305 555.211C208.565 551.049 208.565 544.285 202.305 540.122C196.044 535.959 185.956 535.959 179.695 540.122C173.435 544.285 173.435 551.049 179.695 555.211Z" fill="#C92222"/>
<path d="M196.333 548.908H190.68C189.482 548.908 188.883 548.908 188.425 548.773C188.022 548.655 187.695 548.466 187.49 548.233C187.257 547.969 187.257 547.623 187.257 546.931L187.257 543.667" stroke="black" stroke-width="2" stroke-linecap="round" stroke-linejoin="round"/>
<path d="M531.305 552.211C525.044 556.374 514.956 556.374 508.695 552.211C502.435 548.049 502.435 541.285 508.695 537.122C514.956 532.959 525.044 532.959 531.305 537.122C537.565 541.285 537.565 548.049 531.305 552.211Z" fill="#C92222"/>
<path d="M514.667 545.908H520.32C521.518 545.908 522.117 545.908 522.575 545.773C522.978 545.655 523.305 545.466 523.51 545.233C523.743 544.969 523.743 544.623 523.743 543.931L523.743 540.667" stroke="black" stroke-width="2" stroke-linecap="round" stroke-linejoin="round"/>
<path d="M256.695 187.211C262.956 191.374 273.044 191.374 279.305 187.211C285.565 183.049 285.565 176.285 279.305 172.122C273.044 167.959 262.956 167.959 256.695 172.122C250.435 176.285 250.435 183.049 256.695 187.211Z" fill="#C92222"/>
<path d="M273.333 180.908H267.68C266.482 180.908 265.883 180.908 265.425 180.773C265.022 180.655 264.695 180.466 264.49 180.233C264.257 179.969 264.257 179.623 264.257 178.931L264.257 175.667" stroke="black" stroke-width="2" stroke-linecap="round" stroke-linejoin="round"/>
<path d="M341.01 590.738L236.985 530.691C235.775 529.913 234.479 529.827 233.443 530.259V530.172L233.27 530.259C233.212 530.259 233.184 530.259 233.184 530.259L229.468 531.727L232.838 533.369C232.78 533.427 232.752 533.484 232.752 533.542L214.348 617.177C213.484 621.065 215.212 625.558 218.15 627.199L319.67 685.865L319.324 690.185L323.471 688.543C324.854 687.938 325.89 686.469 326.409 684.396L344.726 600.761C345.59 596.959 343.948 592.38 341.01 590.738Z" fill="black"/>
<path d="M341.01 590.738L236.985 530.691C235.776 529.913 234.48 529.827 233.443 530.259V530.172L233.27 530.259C233.212 530.259 233.184 530.259 233.184 530.259L229.468 531.727L232.838 533.369C232.78 533.427 232.752 533.484 232.752 533.542L220.137 590.911L271.027 630.569L344.294 594.886C343.602 593.071 342.393 591.516 341.01 590.738Z" fill="#3D3D3D"/>
<path d="M337.036 602.575L344.985 599.206C345.158 596.095 343.862 592.985 341.788 591.257L329.26 596.527L337.036 602.575Z" fill="#313131"/>
<path d="M315.695 689.753L211.67 629.705C208.732 627.977 207.004 623.485 207.868 619.597L226.272 536.048C227.136 532.16 230.16 530.432 233.184 532.074L337.209 592.208C340.146 593.849 341.788 598.342 340.924 602.23L322.607 685.865C321.743 689.667 318.633 691.481 315.695 689.753Z" fill="#272727"/>
<path d="M338.159 591.775L234.134 531.727C232.751 530.949 231.282 530.949 230.073 531.554C231.023 531.381 232.06 531.468 233.183 532.073L337.208 592.207C340.146 593.848 341.788 598.341 340.924 602.229L322.607 685.864C322.175 687.851 321.138 689.234 319.842 689.925C321.57 689.579 323.039 687.938 323.557 685.432L341.96 601.884C342.824 597.996 341.096 593.503 338.159 591.775Z" fill="#585858"/>
<path d="M313.449 684.049L215.645 627.544C212.966 625.989 211.411 621.842 212.189 618.299L229.123 541.317C229.901 537.775 232.665 536.133 235.344 537.688L333.235 594.194C335.913 595.749 337.468 599.81 336.691 603.352L319.756 680.421C318.979 683.963 316.128 685.518 313.449 684.049Z" fill="#585858"/>
<path d="M313.449 684.049L215.645 627.544C212.966 625.989 211.411 621.842 212.189 618.299L229.123 541.317C229.901 537.775 232.665 536.133 235.344 537.688L333.235 594.194C335.913 595.749 337.468 599.81 336.691 603.352L319.756 680.421C318.979 683.963 316.128 685.518 313.449 684.049Z" fill="black"/>
<path d="M314.313 683.619L216.509 627.2C213.744 625.645 212.189 621.498 212.966 617.955L229.987 540.973C230.333 539.159 231.283 537.863 232.406 537.258C230.851 537.603 229.555 539.072 229.123 541.319L212.189 618.301C211.411 621.843 212.966 625.99 215.645 627.546L313.449 684.051C314.832 684.742 316.128 684.742 317.251 684.137C316.387 684.397 315.35 684.224 314.313 683.619Z" fill="#3D3D3D"/>
<path d="M317.164 692.345L302.908 690.444L211.151 637.481C208.214 635.753 203.03 636.012 199.66 638L134.601 675.497L126.048 674.374V679.212C125.961 680.336 126.566 681.459 128.035 682.236L232.06 742.284C234.998 744.012 240.095 743.839 243.551 741.852L314.313 700.985C316.3 699.862 317.25 698.479 317.164 697.097V692.345Z" fill="#1C1C1C"/>
<path d="M248.217 658.908L241.65 655.106H169.939L134.601 675.497L126.048 674.374V679.212C125.961 680.335 126.566 681.458 128.035 682.236L232.06 742.284C233.615 743.234 235.775 743.58 237.935 743.407L248.217 658.908Z" fill="#3D3D3D"/>
<path d="M129.849 674.892L126.048 674.374V679.212C125.961 680.336 126.566 681.459 128.035 682.236L129.849 683.36V674.892Z" fill="#3D3D3D"/>
<path d="M233.097 742.802C235.862 743.839 239.836 743.666 242.86 742.197V731.311H233.097V742.802Z" fill="#313131"/>
<path d="M232.06 737.446L128.035 677.398C125.011 675.67 125.443 672.733 128.813 670.745L199.66 629.878C203.03 627.891 208.214 627.718 211.152 629.36L315.177 689.494C318.114 691.136 317.769 694.16 314.313 696.061L243.552 737.014C240.096 738.915 234.998 739.174 232.06 737.446Z" fill="#272727"/>
<path d="M314.313 694.332L243.551 735.199C240.095 737.186 234.998 737.359 232.06 735.631L128.035 675.583C126.998 675.065 126.393 674.373 126.134 673.596C125.702 674.978 126.307 676.36 128.035 677.397L232.06 737.445C234.998 739.173 240.095 738.914 243.551 737.013L314.313 696.06C316.646 694.764 317.51 693.036 316.991 691.48C316.646 692.517 315.782 693.468 314.313 694.332Z" fill="#585858"/>
<path d="M172.272 657.524L167.52 654.759C167.174 654.586 167.174 654.154 167.606 653.895L173.222 650.698C173.654 650.439 174.259 650.439 174.691 650.698L179.357 653.377C179.789 653.636 179.702 653.981 179.27 654.241L173.741 657.437C173.309 657.697 172.617 657.697 172.272 657.524Z" fill="#3D3D3D"/>
<path d="M179.529 661.672L174.777 658.993C174.431 658.734 174.431 658.388 174.95 658.129L180.479 654.932C180.911 654.673 181.603 654.673 181.948 654.846L186.614 657.611C187.046 657.784 186.959 658.216 186.527 658.388L180.998 661.672C180.566 661.931 179.875 661.931 179.529 661.672Z" fill="#3D3D3D"/>
<path d="M186.787 665.904L182.035 663.139C181.689 662.967 181.776 662.535 182.208 662.362L187.737 659.079C188.169 658.906 188.861 658.819 189.206 659.079L193.958 661.757C194.304 662.016 194.217 662.362 193.785 662.621L188.256 665.818C187.824 666.077 187.133 666.077 186.787 665.904Z" fill="#3D3D3D"/>
<path d="M196.809 662.448L192.143 659.683C191.711 659.51 191.798 659.078 192.23 658.819L196.895 656.141C197.327 655.881 198.019 655.881 198.364 656.141L203.116 658.819C203.462 659.078 203.375 659.424 202.943 659.683L198.278 662.361C197.846 662.621 197.241 662.621 196.809 662.448Z" fill="#3D3D3D"/>
<path d="M204.067 666.596L199.401 663.917C199.056 663.658 199.056 663.312 199.488 663.053L204.153 660.375C204.585 660.116 205.276 660.116 205.622 660.288L210.374 663.053C210.72 663.226 210.72 663.658 210.201 663.831L205.536 666.596C205.104 666.855 204.499 666.855 204.067 666.596Z" fill="#3D3D3D"/>
<path d="M211.411 670.829L206.659 668.064C206.313 667.892 206.313 667.546 206.745 667.287L211.411 664.522C211.843 664.349 212.534 664.263 212.88 664.522L217.632 667.2C217.977 667.46 217.977 667.805 217.545 668.064L212.88 670.743C212.448 671.002 211.757 671.002 211.411 670.829Z" fill="#3D3D3D"/>
<path d="M218.668 674.978L213.916 672.299C213.57 672.126 213.57 671.694 214.002 671.435L218.668 668.757C219.1 668.498 219.791 668.498 220.137 668.67L224.889 671.435C225.234 671.608 225.234 672.04 224.802 672.299L220.137 674.978C219.705 675.237 219.013 675.237 218.668 674.978Z" fill="#3D3D3D"/>
<path d="M225.926 679.211L221.174 676.532C220.829 676.273 220.915 675.928 221.347 675.668L226.013 672.99C226.445 672.731 227.049 672.644 227.481 672.904L232.147 675.582C232.493 675.841 232.493 676.187 232.061 676.446L227.395 679.124C226.963 679.384 226.272 679.47 225.926 679.211Z" fill="#3D3D3D"/>
<path d="M233.184 683.445L228.432 680.68C228.086 680.507 228.172 680.075 228.604 679.816L233.27 677.137C233.702 676.878 234.307 676.878 234.739 677.051L239.404 679.816C239.836 679.989 239.75 680.421 239.318 680.68L234.652 683.358C234.22 683.617 233.529 683.617 233.184 683.445Z" fill="#3D3D3D"/>
<path d="M240.441 687.592L235.775 684.913C235.343 684.654 235.43 684.308 235.862 684.049L240.527 681.371C240.959 681.112 241.65 681.025 241.996 681.284L246.662 683.963C247.094 684.222 247.007 684.568 246.575 684.827L241.91 687.505C241.478 687.764 240.786 687.851 240.441 687.592Z" fill="#3D3D3D"/>
<path d="M247.699 691.825L243.033 689.06C242.601 688.887 242.687 688.455 243.119 688.196L247.785 685.518C248.217 685.258 248.908 685.258 249.254 685.518L253.919 688.196C254.351 688.455 254.265 688.801 253.833 689.06L249.167 691.738C248.735 691.998 248.131 691.998 247.699 691.825Z" fill="#3D3D3D"/>
<path d="M254.956 695.973L250.29 693.294C249.858 693.035 249.945 692.689 250.377 692.43L255.042 689.752C255.474 689.493 256.166 689.493 256.511 689.665L261.263 692.43C261.609 692.603 261.522 693.035 261.09 693.208L256.425 695.973C255.993 696.232 255.388 696.232 254.956 695.973Z" fill="#3D3D3D"/>
<path d="M262.214 700.206L257.548 697.441C257.203 697.269 257.203 696.923 257.635 696.664L262.3 693.899C262.732 693.726 263.423 693.64 263.769 693.899L268.521 696.577C268.866 696.837 268.866 697.182 268.434 697.441L263.769 700.12C263.251 700.379 262.646 700.379 262.214 700.206Z" fill="#3D3D3D"/>
<path d="M207.522 660.462L202.857 657.697C202.425 657.524 202.511 657.092 202.943 656.833L207.609 654.154C208.041 653.895 208.732 653.895 209.078 654.154L213.83 656.833C214.175 657.092 214.089 657.438 213.657 657.697L208.991 660.375C208.559 660.634 207.954 660.634 207.522 660.462Z" fill="#3D3D3D"/>
<path d="M200.179 656.142L195.427 653.464C195.082 653.205 195.168 652.859 195.6 652.6L200.266 649.922C200.698 649.662 201.302 649.662 201.734 649.835L206.4 652.6C206.832 652.773 206.745 653.205 206.313 653.464L201.648 656.142C201.216 656.402 200.525 656.402 200.179 656.142Z" fill="#3D3D3D"/>
<path d="M192.749 651.909L182.64 646.034C182.294 645.861 182.294 645.429 182.726 645.17L187.392 642.491C187.824 642.232 188.515 642.232 188.861 642.491L199.056 648.28C199.401 648.539 199.315 648.885 198.883 649.144L194.217 651.822C193.785 652.082 193.181 652.168 192.749 651.909Z" fill="#3D3D3D"/>
<path d="M197.932 646.723L189.724 641.971C189.379 641.798 189.379 641.366 189.811 641.107L194.476 638.429C194.908 638.169 195.6 638.169 195.945 638.342L204.153 643.094C204.585 643.353 204.499 643.699 204.067 643.958L199.401 646.636C198.969 646.896 198.278 646.982 197.932 646.723Z" fill="#3D3D3D"/>
<path d="M214.781 664.609L210.115 661.931C209.769 661.672 209.769 661.326 210.201 661.067L214.867 658.388C215.299 658.129 215.99 658.129 216.336 658.302L221.088 661.067C221.433 661.24 221.347 661.672 220.915 661.844L216.249 664.609C215.817 664.868 215.213 664.868 214.781 664.609Z" fill="#3D3D3D"/>
<path d="M222.124 668.842L217.372 666.077C217.026 665.904 217.026 665.559 217.458 665.299L222.124 662.535C222.556 662.362 223.247 662.275 223.593 662.535L228.345 665.213C228.69 665.472 228.69 665.818 228.258 666.077L223.593 668.755C223.161 669.015 222.469 669.015 222.124 668.842Z" fill="#3D3D3D"/>
<path d="M229.382 672.99L224.63 670.312C224.284 670.139 224.284 669.707 224.716 669.448L229.382 666.77C229.814 666.51 230.505 666.51 230.85 666.683L235.602 669.448C235.948 669.621 235.948 670.053 235.516 670.312L230.85 672.99C230.418 673.25 229.727 673.25 229.382 672.99Z" fill="#3D3D3D"/>
<path d="M236.64 677.225L231.888 674.547C231.542 674.288 231.542 673.942 232.061 673.683L236.726 671.005C237.158 670.745 237.763 670.659 238.195 670.918L242.861 673.597C243.206 673.856 243.206 674.201 242.774 674.461L238.109 677.139C237.677 677.398 236.985 677.485 236.64 677.225Z" fill="#3D3D3D"/>
<path d="M243.897 681.458L239.145 678.693C238.799 678.52 238.886 678.088 239.318 677.829L243.983 675.15C244.415 674.891 245.02 674.891 245.452 675.064L250.118 677.829C250.55 678.002 250.463 678.434 250.031 678.693L245.366 681.371C244.934 681.63 244.242 681.63 243.897 681.458Z" fill="#3D3D3D"/>
<path d="M251.155 685.603L246.489 682.925C246.057 682.666 246.144 682.32 246.575 682.061L251.241 679.383C251.673 679.123 252.278 679.123 252.71 679.296L257.375 681.975C257.807 682.234 257.721 682.579 257.289 682.839L252.623 685.603C252.191 685.776 251.5 685.863 251.155 685.603Z" fill="#3D3D3D"/>
<path d="M258.412 689.839L253.746 687.074C253.314 686.901 253.4 686.469 253.832 686.21L258.498 683.532C258.93 683.272 259.621 683.272 259.967 683.532L264.632 686.21C265.064 686.469 264.978 686.815 264.546 687.074L259.88 689.752C259.448 690.012 258.844 690.012 258.412 689.839Z" fill="#3D3D3D"/>
<path d="M265.67 693.986L261.004 691.308C260.572 691.048 260.659 690.703 261.091 690.444L265.756 687.765C266.188 687.506 266.879 687.506 267.225 687.679L271.977 690.444C272.323 690.616 272.236 691.048 271.804 691.221L267.139 693.986C266.707 694.245 266.102 694.245 265.67 693.986Z" fill="#3D3D3D"/>
<path d="M272.927 698.218L268.262 695.453C267.916 695.28 267.916 694.935 268.348 694.675L273.013 691.911C273.445 691.738 274.137 691.651 274.482 691.911L279.234 694.589C279.58 694.848 279.58 695.194 279.061 695.453L274.482 698.131C273.964 698.391 273.359 698.391 272.927 698.218Z" fill="#3D3D3D"/>
<path d="M285.887 705.649L275.606 699.774C275.26 699.515 275.26 699.169 275.692 698.91L280.358 696.231C280.79 695.972 281.481 695.886 281.827 696.145L292.108 702.107C292.54 702.279 292.454 702.625 292.022 702.884L287.356 705.649C286.924 705.822 286.233 705.908 285.887 705.649Z" fill="#3D3D3D"/>
<path d="M300.057 697.526L291.33 692.515C290.985 692.255 291.071 691.91 291.503 691.651L296.169 688.972C296.601 688.713 297.206 688.713 297.638 688.886L306.278 693.897C306.623 694.156 306.623 694.502 306.191 694.761L301.526 697.439C301.094 697.699 300.402 697.699 300.057 697.526Z" fill="#3D3D3D"/>
<path d="M227.567 663.832L222.815 661.068C222.47 660.895 222.47 660.463 222.902 660.29L227.567 657.525C227.999 657.266 228.69 657.266 229.122 657.525L233.788 660.204C234.134 660.463 234.134 660.808 233.702 661.068L229.036 663.746C228.604 664.005 227.913 664.005 227.567 663.832Z" fill="#3D3D3D"/>
<path d="M220.051 659.512L215.386 656.833C215.04 656.574 215.04 656.228 215.472 655.969L220.138 653.291C220.57 653.032 221.261 652.945 221.606 653.204L226.358 655.883C226.704 656.142 226.704 656.488 226.272 656.747L221.606 659.425C221.174 659.684 220.483 659.771 220.051 659.512Z" fill="#3D3D3D"/>
<path d="M212.62 655.191L207.955 652.513C207.523 652.254 207.609 651.908 208.041 651.649L212.707 648.971C213.139 648.711 213.83 648.711 214.176 648.884L218.928 651.649C219.273 651.822 219.187 652.167 218.755 652.426L214.089 655.191C213.657 655.364 213.052 655.45 212.62 655.191Z" fill="#3D3D3D"/>
<path d="M205.189 650.872L200.524 648.193C200.092 648.021 200.178 647.589 200.61 647.329L205.276 644.651C205.708 644.392 206.313 644.392 206.745 644.565L211.41 647.329C211.842 647.502 211.756 647.934 211.324 648.193L206.658 650.872C206.226 651.131 205.535 651.131 205.189 650.872Z" fill="#3D3D3D"/>
<path d="M234.825 667.979L230.073 665.3C229.728 665.041 229.814 664.695 230.246 664.436L234.912 661.758C235.344 661.499 235.948 661.499 236.38 661.671L241.046 664.436C241.391 664.609 241.391 665.041 240.959 665.3L236.294 667.979C235.862 668.238 235.171 668.238 234.825 667.979Z" fill="#3D3D3D"/>
<path d="M242.082 672.212L237.417 669.533C236.985 669.274 237.071 668.929 237.503 668.669L242.169 665.991C242.601 665.732 243.206 665.645 243.638 665.905L248.303 668.583C248.735 668.842 248.649 669.188 248.217 669.447L243.551 672.125C243.119 672.385 242.428 672.471 242.082 672.212Z" fill="#3D3D3D"/>
<path d="M249.34 676.446L244.675 673.681C244.243 673.508 244.329 673.076 244.761 672.817L249.427 670.139C249.859 669.88 250.55 669.88 250.895 670.052L255.561 672.817C255.993 672.99 255.907 673.422 255.475 673.681L250.809 676.359C250.377 676.619 249.686 676.619 249.34 676.446Z" fill="#3D3D3D"/>
<path d="M256.598 680.595L251.932 677.916C251.5 677.657 251.587 677.311 252.019 677.052L256.684 674.374C257.116 674.115 257.808 674.028 258.153 674.287L262.905 676.966C263.251 677.225 263.164 677.571 262.732 677.83L258.067 680.508C257.635 680.767 257.03 680.854 256.598 680.595Z" fill="#3D3D3D"/>
<path d="M263.855 684.827L259.189 682.062C258.844 681.889 258.844 681.457 259.276 681.198L263.941 678.52C264.373 678.261 265.064 678.261 265.41 678.52L270.162 681.198C270.508 681.457 270.421 681.803 269.989 682.062L265.324 684.741C264.892 685 264.287 685 263.855 684.827Z" fill="#3D3D3D"/>
<path d="M271.199 688.974L266.447 686.296C266.101 686.037 266.101 685.691 266.533 685.432L271.199 682.753C271.631 682.494 272.322 682.494 272.668 682.667L277.42 685.432C277.765 685.605 277.765 685.95 277.333 686.209L272.668 688.974C272.236 689.147 271.545 689.233 271.199 688.974Z" fill="#3D3D3D"/>
<path d="M278.457 693.208L273.705 690.443C273.359 690.27 273.359 689.838 273.791 689.665L278.457 686.9C278.889 686.641 279.58 686.641 279.926 686.9L284.678 689.579C285.023 689.838 285.023 690.184 284.591 690.443L279.926 693.121C279.494 693.38 278.802 693.38 278.457 693.208Z" fill="#3D3D3D"/>
<path d="M285.715 697.355L280.963 694.677C280.617 694.418 280.617 694.072 281.135 693.813L285.801 691.135C286.233 690.875 286.838 690.875 287.27 691.048L291.935 693.813C292.281 693.986 292.281 694.418 291.849 694.677L287.183 697.355C286.751 697.615 286.06 697.615 285.715 697.355Z" fill="#3D3D3D"/>
<path d="M292.972 701.589L288.22 698.91C287.874 698.651 287.961 698.305 288.393 698.046L293.058 695.368C293.49 695.109 294.095 695.022 294.527 695.282L299.193 697.96C299.625 698.219 299.538 698.565 299.106 698.824L294.441 701.502C294.009 701.761 293.318 701.848 292.972 701.589Z" fill="#3D3D3D"/>
<path d="M223.68 653.464L219.014 650.7C218.668 650.527 218.668 650.095 219.1 649.836L223.766 647.157C224.198 646.898 224.889 646.898 225.235 647.157L229.987 649.836C230.332 650.008 230.332 650.44 229.814 650.7L225.148 653.378C224.716 653.637 224.112 653.637 223.68 653.464Z" fill="#3D3D3D"/>
<path d="M216.508 649.231L211.756 646.552C211.411 646.293 211.411 645.947 211.843 645.688L216.508 643.01C216.94 642.751 217.631 642.751 217.977 642.923L222.729 645.688C223.075 645.861 223.075 646.293 222.643 646.466L217.977 649.231C217.545 649.49 216.854 649.49 216.508 649.231Z" fill="#3D3D3D"/>
<path d="M209.251 645.083L204.585 642.405C204.153 642.145 204.24 641.8 204.672 641.541L209.337 638.862C209.769 638.603 210.374 638.517 210.806 638.776L215.472 641.454C215.904 641.713 215.817 642.059 215.385 642.318L210.72 644.997C210.288 645.256 209.596 645.342 209.251 645.083Z" fill="#3D3D3D"/>
<path d="M201.993 640.936L197.327 638.171C196.895 637.999 196.981 637.567 197.413 637.307L202.079 634.629C202.511 634.37 203.202 634.37 203.548 634.629L208.3 637.307C208.645 637.48 208.559 637.912 208.127 638.171L203.461 640.85C203.029 641.109 202.425 641.109 201.993 640.936Z" fill="#3D3D3D"/>
<path d="M209.423 636.616L204.758 633.938C204.412 633.678 204.412 633.333 204.844 633.074L206.399 632.123C206.831 631.864 207.522 631.864 207.868 632.123L212.534 634.802C212.966 635.061 212.879 635.406 212.447 635.666L210.892 636.53C210.46 636.789 209.855 636.875 209.423 636.616Z" fill="#3D3D3D"/>
<path d="M218.927 642.059L214.175 639.38C213.829 639.121 213.829 638.776 214.261 638.516L215.817 637.566C216.249 637.393 216.94 637.307 217.285 637.566L222.037 640.244C222.383 640.504 222.383 640.849 221.951 641.108L220.396 641.972C219.964 642.232 219.273 642.318 218.927 642.059Z" fill="#3D3D3D"/>
<path d="M226.099 646.205L221.347 643.527C221.001 643.267 221.087 642.922 221.519 642.663L223.075 641.799C223.507 641.539 224.111 641.453 224.543 641.712L229.209 644.391C229.555 644.65 229.555 644.995 229.123 645.255L227.567 646.119C227.135 646.378 226.444 646.464 226.099 646.205Z" fill="#3D3D3D"/>
<path d="M233.27 650.353L228.604 647.675C228.172 647.416 228.259 647.07 228.691 646.811L230.246 645.947C230.678 645.688 231.369 645.601 231.715 645.861L236.38 648.539C236.812 648.798 236.726 649.144 236.294 649.403L234.739 650.353C234.307 650.613 233.702 650.613 233.27 650.353Z" fill="#3D3D3D"/>
<path d="M240.527 654.5L235.775 651.822C235.43 651.562 235.43 651.217 235.862 650.958L237.417 650.094C237.849 649.834 238.54 649.834 238.886 650.007L243.638 652.772C243.983 652.945 243.983 653.377 243.551 653.55L241.996 654.5C241.564 654.759 240.873 654.759 240.527 654.5Z" fill="#3D3D3D"/>
<path d="M280.703 677.743L276.037 675.065C275.605 674.805 275.692 674.46 276.124 674.201L277.679 673.337C278.111 673.077 278.716 672.991 279.148 673.25L283.813 675.929C284.245 676.188 284.159 676.533 283.727 676.793L282.172 677.657C281.74 677.916 281.049 678.002 280.703 677.743Z" fill="#3D3D3D"/>
<path d="M287.874 681.889L283.209 679.21C282.863 678.951 282.863 678.605 283.295 678.346L284.85 677.482C285.282 677.223 285.974 677.137 286.319 677.396L291.071 680.074C291.417 680.333 291.33 680.679 290.898 680.938L289.43 681.889C288.998 682.148 288.306 682.148 287.874 681.889Z" fill="#3D3D3D"/>
<path d="M295.132 686.036L290.38 683.358C290.034 683.098 290.121 682.753 290.553 682.494L292.021 681.63C292.453 681.37 293.145 681.37 293.577 681.543L298.242 684.308C298.588 684.481 298.588 684.913 298.156 685.086L296.601 686.036C296.169 686.295 295.477 686.295 295.132 686.036Z" fill="#3D3D3D"/>
<path d="M302.303 690.27L297.638 687.505C297.206 687.332 297.292 686.9 297.724 686.641L299.279 685.777C299.711 685.518 300.316 685.518 300.748 685.691L305.414 688.456C305.846 688.628 305.759 689.06 305.327 689.32L303.772 690.184C303.34 690.443 302.735 690.443 302.303 690.27Z" fill="#3D3D3D"/>
<path d="M231.023 657.61L226.271 654.932C225.926 654.673 225.926 654.327 226.358 654.068L231.023 651.389C231.455 651.13 232.146 651.13 232.492 651.303L237.244 654.068C237.59 654.241 237.59 654.586 237.158 654.845L232.492 657.61C232.06 657.783 231.369 657.869 231.023 657.61Z" fill="#3D3D3D"/>
<path d="M238.281 661.845L233.529 659.08C233.183 658.907 233.183 658.475 233.615 658.303L238.281 655.538C238.713 655.279 239.404 655.279 239.75 655.538L244.502 658.216C244.847 658.475 244.847 658.821 244.415 659.08L239.75 661.759C239.318 662.018 238.627 662.018 238.281 661.845Z" fill="#3D3D3D"/>
<path d="M245.538 665.992L240.786 663.314C240.441 663.054 240.527 662.709 240.959 662.45L245.625 659.771C246.057 659.512 246.662 659.512 247.094 659.685L251.759 662.45C252.105 662.622 252.105 663.054 251.673 663.314L247.007 665.992C246.575 666.251 245.884 666.251 245.538 665.992Z" fill="#3D3D3D"/>
<path d="M252.796 670.224L248.044 667.546C247.699 667.287 247.785 666.941 248.217 666.682L252.883 664.004C253.315 663.744 253.919 663.658 254.351 663.917L259.017 666.596C259.449 666.855 259.363 667.2 258.931 667.46L254.265 670.138C253.833 670.397 253.142 670.484 252.796 670.224Z" fill="#3D3D3D"/>
<path d="M260.054 674.459L255.388 671.694C254.956 671.521 255.042 671.089 255.474 670.83L260.14 668.151C260.572 667.892 261.177 667.892 261.609 668.065L266.274 670.83C266.706 671.003 266.62 671.435 266.188 671.694L261.522 674.372C261.09 674.631 260.399 674.631 260.054 674.459Z" fill="#3D3D3D"/>
<path d="M267.311 678.605L262.645 675.927C262.213 675.668 262.3 675.322 262.732 675.063L267.397 672.385C267.829 672.125 268.521 672.039 268.866 672.298L273.532 674.976C273.964 675.236 273.877 675.581 273.445 675.84L268.78 678.519C268.348 678.778 267.743 678.864 267.311 678.605Z" fill="#3D3D3D"/>
<path d="M274.569 682.84L269.903 680.075C269.471 679.902 269.558 679.47 269.99 679.211L274.655 676.533C275.087 676.273 275.778 676.273 276.124 676.533L280.876 679.211C281.222 679.47 281.135 679.816 280.703 680.075L276.038 682.753C275.606 683.013 275.001 683.013 274.569 682.84Z" fill="#3D3D3D"/>
<path d="M281.826 686.986L277.161 684.308C276.815 684.049 276.815 683.703 277.247 683.444L281.913 680.765C282.345 680.506 283.036 680.506 283.382 680.679L288.134 683.444C288.479 683.617 288.479 683.962 288.047 684.221L283.382 686.986C282.863 687.159 282.258 687.245 281.826 686.986Z" fill="#3D3D3D"/>
<path d="M289.17 691.219L284.418 688.455C284.073 688.282 284.073 687.85 284.505 687.677L289.17 684.912C289.602 684.653 290.293 684.653 290.639 684.912L295.391 687.591C295.737 687.85 295.737 688.195 295.305 688.455L290.639 691.133C290.207 691.392 289.516 691.392 289.17 691.219Z" fill="#3D3D3D"/>
<path d="M189.465 658.129L175.554 650.18C175.209 649.921 175.209 649.575 175.641 649.316L180.306 646.637C180.738 646.378 181.43 646.292 181.775 646.551L195.686 654.586C196.031 654.759 196.031 655.105 195.599 655.364L190.934 658.129C190.502 658.301 189.81 658.388 189.465 658.129Z" fill="#3D3D3D"/>
<path d="M278.716 709.71L264.892 701.675C264.46 701.502 264.546 701.07 264.978 700.898L269.644 698.133C270.076 697.874 270.767 697.874 271.113 698.133L284.937 706.082C285.369 706.341 285.282 706.686 284.85 706.946L280.185 709.624C279.753 709.883 279.148 709.97 278.716 709.71Z" fill="#3D3D3D"/>
<path d="M249.686 702.194L244.934 699.516C244.588 699.256 244.588 698.911 245.02 698.652L250.636 695.455C251.068 695.196 251.673 695.109 252.105 695.368L256.771 698.047C257.203 698.306 257.116 698.652 256.684 698.911L251.155 702.108C250.723 702.367 250.031 702.453 249.686 702.194Z" fill="#3D3D3D"/>
<path d="M196.895 671.694L189.378 667.374C188.946 667.115 189.033 666.769 189.465 666.51L194.994 663.313C195.426 663.054 196.117 663.054 196.463 663.227L203.98 667.633C204.412 667.806 204.325 668.238 203.893 668.411L198.364 671.694C197.932 671.953 197.241 671.953 196.895 671.694Z" fill="#3D3D3D"/>
<path d="M242.687 698.133L235.084 693.813C234.738 693.553 234.825 693.208 235.257 692.949L240.786 689.752C241.218 689.493 241.909 689.493 242.255 689.665L249.772 694.072C250.204 694.245 250.117 694.59 249.685 694.849L244.156 698.133C243.724 698.305 243.033 698.392 242.687 698.133Z" fill="#3D3D3D"/>
<path d="M207.35 677.742L199.833 673.422C199.487 673.249 199.487 672.817 199.919 672.558L205.449 669.361C205.967 669.102 206.572 669.102 207.004 669.274L214.521 673.681C214.866 673.854 214.866 674.286 214.348 674.545L208.818 677.742C208.386 678.001 207.695 678.001 207.35 677.742Z" fill="#3D3D3D"/>
<path d="M207.004 669.361L239.75 688.196C240.182 688.455 240.182 688.887 239.75 689.06L234.047 692.343C233.702 692.602 233.011 692.602 232.579 692.343L199.919 673.421L207.004 669.361Z" fill="#3D3D3D"/>
<path d="M269.989 709.796L275.26 712.82C275.519 712.993 275.519 713.339 275.173 713.511L272.841 714.807C272.495 715.067 271.977 715.067 271.631 714.894L266.447 711.87C266.101 711.697 266.101 711.351 266.533 711.179L268.78 709.883C269.125 709.623 269.644 709.623 269.989 709.796Z" fill="#3D3D3D"/>
<path d="M262.646 705.564L267.916 708.588C268.175 708.761 268.175 709.106 267.83 709.279L265.497 710.575C265.151 710.834 264.633 710.834 264.287 710.661L259.103 707.637C258.758 707.465 258.844 707.119 259.19 706.946L261.436 705.65C261.782 705.391 262.3 705.391 262.646 705.564Z" fill="#3D3D3D"/>
<path d="M255.388 701.415L260.658 704.439C260.917 704.611 260.917 704.871 260.572 705.13L258.239 706.426C257.893 706.599 257.375 706.685 257.029 706.426L251.845 703.402C251.5 703.229 251.5 702.97 251.932 702.711L254.178 701.415C254.524 701.242 255.042 701.155 255.388 701.415Z" fill="#3D3D3D"/>
<path d="M266.62 703.23L271.89 706.254C272.236 706.427 272.149 706.772 271.804 706.945L269.557 708.328C269.212 708.5 268.607 708.5 268.348 708.328L263.077 705.304C262.818 705.131 262.818 704.785 263.164 704.612L265.41 703.316C265.842 703.144 266.361 703.057 266.62 703.23Z" fill="#3D3D3D"/>
<path d="M252.018 576.567L240.268 569.741L240.7 567.149L252.537 573.975L252.018 576.567Z" fill="#272727"/>
<path d="M250.723 582.442L238.973 575.617L239.405 573.111L251.241 579.937L250.723 582.442Z" fill="#585858"/>
<path d="M308.783 664.521L296.946 657.696L297.465 655.104L309.301 661.929L308.783 664.521Z" fill="#272727"/>
<path d="M248.217 594.278L236.38 587.453L236.899 584.947L248.736 591.773L248.217 594.278Z" fill="#272727"/>
<path d="M366.3 652.893L345 639.94V638.044L366.3 650.997V652.893Z" fill="#484848"/>
<path d="M552.3 766L531 753.046V751.151L552.3 764.104V766Z" fill="#484848"/>
<path d="M366.7 665.425C366.3 665.109 365.9 664.583 365.9 664.056V639.413C365.9 638.992 366.3 638.781 366.7 639.097C367.2 639.413 367.6 639.94 367.6 640.466V665.109C367.6 665.531 367.2 665.741 366.7 665.425Z" fill="#484848"/>
<path d="M370.3 674.694C369.9 674.483 369.5 673.851 369.5 673.325V634.57C369.5 634.043 369.9 633.833 370.3 634.148C370.8 634.464 371.1 635.096 371.1 635.518V674.378C371.1 674.799 370.8 675.01 370.3 674.694Z" fill="#484848"/>
<path d="M374.2 672.798C373.8 672.482 373.4 671.85 373.4 671.323V644.784C373.4 644.258 373.8 644.153 374.2 644.363C374.7 644.679 375.1 645.311 375.1 645.732V672.376C375.1 672.903 374.7 673.008 374.2 672.798Z" fill="#484848"/>
<path d="M378.2 677.326C377.7 677.116 377.3 676.484 377.3 675.957V642.152C377.3 641.625 377.7 641.415 378.2 641.73C378.6 642.046 379 642.678 379 643.1V677.01C379 677.432 378.6 677.642 378.2 677.326Z" fill="#484848"/>
<path d="M382.1 671.64C381.6 671.324 381.2 670.692 381.2 670.271V645.101C381.2 644.68 381.6 644.469 382.1 644.785C382.5 644.996 382.9 645.627 382.9 646.154V671.218C382.9 671.745 382.5 671.956 382.1 671.64Z" fill="#484848"/>
<path d="M386 670.797C385.5 670.587 385.2 669.955 385.2 669.428V640.362C385.2 639.835 385.5 639.73 386 639.941C386.5 640.257 386.8 640.889 386.8 641.31V670.482C386.8 670.903 386.5 671.113 386 670.797Z" fill="#484848"/>
<path d="M389.9 668.165C389.5 667.849 389.1 667.218 389.1 666.796V646.471C389.1 645.944 389.5 645.839 389.9 646.05C390.4 646.366 390.7 646.998 390.7 647.419V667.744C390.7 668.271 390.4 668.376 389.9 668.165Z" fill="#484848"/>
<path d="M393.8 673.009C393.4 672.798 393 672.166 393 671.64V645.101C393 644.68 393.4 644.469 393.8 644.785C394.3 644.996 394.7 645.627 394.7 646.154V672.693C394.7 673.219 394.3 673.325 393.8 673.009Z" fill="#484848"/>
<path d="M397.8 671.008C397.3 670.692 396.9 670.06 396.9 669.639V651.209C396.9 650.683 397.3 650.578 397.8 650.788C398.2 651.104 398.6 651.736 398.6 652.263V670.587C398.6 671.114 398.2 671.219 397.8 671.008Z" fill="#484848"/>
<path d="M401.7 684.488C401.2 684.172 400.8 683.646 400.8 683.119V657.002C400.8 656.58 401.2 656.37 401.7 656.686C402.1 656.896 402.5 657.528 402.5 658.055V684.172C402.5 684.593 402.1 684.804 401.7 684.488Z" fill="#484848"/>
<path d="M405.6 684.383C405.1 684.067 404.8 683.435 404.8 683.014V655.949C404.8 655.528 405.1 655.317 405.6 655.633C406.1 655.843 406.4 656.475 406.4 657.002V683.962C406.4 684.489 406.1 684.594 405.6 684.383Z" fill="#484848"/>
<path d="M409.5 689.226C409.1 689.015 408.7 688.383 408.7 687.857V666.162C408.7 665.741 409.1 665.531 409.5 665.846C410 666.162 410.3 666.689 410.3 667.216V688.91C410.3 689.331 410 689.542 409.5 689.226Z" fill="#484848"/>
<path d="M413.4 688.7C413 688.489 412.6 687.857 412.6 687.331V675.115C412.6 674.693 413 674.483 413.4 674.799C413.9 675.115 414.3 675.641 414.3 676.168V688.384C414.3 688.805 413.9 689.016 413.4 688.7Z" fill="#484848"/>
<path d="M417.4 695.335C416.9 695.019 416.5 694.388 416.5 693.966V674.694C416.5 674.168 416.9 674.062 417.4 674.273C417.8 674.589 418.2 675.221 418.2 675.642V694.914C418.2 695.441 417.8 695.546 417.4 695.335Z" fill="#484848"/>
<path d="M421.3 693.862C420.8 693.651 420.4 693.019 420.4 692.493V680.698C420.4 680.276 420.8 680.066 421.3 680.382C421.7 680.592 422.1 681.224 422.1 681.751V693.546C422.1 693.967 421.7 694.178 421.3 693.862Z" fill="#484848"/>
<path d="M425.2 701.023C424.7 700.707 424.4 700.075 424.4 699.548V678.696C424.4 678.275 424.7 678.064 425.2 678.38C425.7 678.591 426 679.223 426 679.749V700.601C426 701.128 425.7 701.233 425.2 701.023Z" fill="#484848"/>
<path d="M429.1 708.393C428.7 708.077 428.3 707.445 428.3 706.918V672.481C428.3 671.955 428.7 671.849 429.1 672.06C429.6 672.376 429.9 673.008 429.9 673.429V707.972C429.9 708.498 429.6 708.603 429.1 708.393Z" fill="#484848"/>
<path d="M433 717.556C432.6 717.24 432.2 716.608 432.2 716.082V669.639C432.2 669.218 432.6 669.007 433 669.323C433.5 669.639 433.9 670.166 433.9 670.692V717.135C433.9 717.662 433.5 717.767 433 717.556Z" fill="#484848"/>
<path d="M437 712.501C436.5 712.185 436.1 711.553 436.1 711.132V677.853C436.1 677.327 436.5 677.221 437 677.432C437.4 677.748 437.8 678.38 437.8 678.906V712.08C437.8 712.606 437.4 712.712 437 712.501Z" fill="#484848"/>
<path d="M440.9 711.342C440.4 711.026 440 710.5 440 709.973V687.436C440 686.909 440.4 686.804 440.9 687.12C441.3 687.331 441.7 687.963 441.7 688.489V711.026C441.7 711.447 441.3 711.658 440.9 711.342Z" fill="#484848"/>
<path d="M444.8 709.762C444.3 709.446 444 708.814 444 708.288V696.598C444 696.072 444.3 695.966 444.8 696.177C445.2 696.493 445.6 697.125 445.6 697.546V709.341C445.6 709.868 445.2 709.973 444.8 709.762Z" fill="#484848"/>
<path d="M448.7 716.082C448.3 715.871 447.9 715.239 447.9 714.713V693.755C447.9 693.229 448.3 693.124 448.7 693.334C449.2 693.65 449.5 694.282 449.5 694.809V715.766C449.5 716.187 449.2 716.398 448.7 716.082Z" fill="#484848"/>
<path d="M452.6 730.194C452.2 729.878 451.8 729.246 451.8 728.825V705.34C451.8 704.814 452.2 704.603 452.6 704.919C453.1 705.235 453.5 705.867 453.5 706.288V729.773C453.5 730.299 453.1 730.51 452.6 730.194Z" fill="#484848"/>
<path d="M456.5 727.14C456.1 726.824 455.7 726.297 455.7 725.771V697.126C455.7 696.599 456.1 696.494 456.5 696.704C457 697.02 457.4 697.652 457.4 698.074V726.824C457.4 727.245 457 727.456 456.5 727.14Z" fill="#484848"/>
<path d="M460.5 725.138C460 724.927 459.6 724.295 459.6 723.769V694.492C459.6 694.07 460 693.86 460.5 694.176C460.9 694.492 461.3 695.018 461.3 695.545V724.822C461.3 725.243 460.9 725.454 460.5 725.138Z" fill="#484848"/>
<path d="M464.4 716.714C463.9 716.504 463.6 715.872 463.6 715.345V704.287C463.6 703.761 463.9 703.55 464.4 703.866C464.8 704.182 465.2 704.814 465.2 705.235V716.398C465.2 716.82 464.8 717.03 464.4 716.714Z" fill="#484848"/>
<path d="M468.3 723.137C467.8 722.821 467.5 722.189 467.5 721.768V701.969C467.5 701.443 467.8 701.337 468.3 701.548C468.8 701.864 469.1 702.496 469.1 702.917V722.716C469.1 723.242 468.8 723.348 468.3 723.137Z" fill="#484848"/>
<path d="M472.2 728.72C471.8 728.404 471.4 727.772 471.4 727.245V698.705C471.4 698.179 471.8 697.968 472.2 698.284C472.7 698.6 473.1 699.232 473.1 699.653V728.298C473.1 728.825 472.7 728.93 472.2 728.72Z" fill="#484848"/>
<path d="M476.1 739.04C475.7 738.83 475.3 738.198 475.3 737.671V694.072C475.3 693.545 475.7 693.44 476.1 693.651C476.6 693.966 477 694.598 477 695.02V738.724C477 739.146 476.6 739.356 476.1 739.04Z" fill="#484848"/>
<path d="M480.1 717.03C479.6 716.819 479.2 716.187 479.2 715.661V700.39C479.2 699.969 479.6 699.758 480.1 700.074C480.5 700.285 480.9 700.917 480.9 701.443V716.714C480.9 717.135 480.5 717.346 480.1 717.03Z" fill="#484848"/>
<path d="M484 723.455C483.5 723.139 483.2 722.507 483.2 722.086V710.396C483.2 709.975 483.5 709.764 484 710.08C484.4 710.29 484.8 710.922 484.8 711.449V723.033C484.8 723.56 484.4 723.665 484 723.455Z" fill="#484848"/>
<path d="M487.9 729.456C487.4 729.14 487.1 728.508 487.1 728.087V707.129C487.1 706.603 487.4 706.392 487.9 706.708C488.4 707.024 488.7 707.656 488.7 708.077V729.14C488.7 729.561 488.4 729.772 487.9 729.456Z" fill="#484848"/>
<path d="M491.8 736.827C491.4 736.511 491 735.88 491 735.458V722.821C491 722.294 491.4 722.189 491.8 722.505C492.3 722.715 492.7 723.347 492.7 723.874V736.406C492.7 736.933 492.3 737.038 491.8 736.827Z" fill="#484848"/>
<path d="M495.7 743.885C495.3 743.569 494.9 742.937 494.9 742.516V722.401C494.9 721.875 495.3 721.664 495.7 721.98C496.2 722.296 496.6 722.928 496.6 723.349V743.464C496.6 743.991 496.2 744.201 495.7 743.885Z" fill="#484848"/>
<path d="M499.7 751.257C499.2 750.941 498.8 750.309 498.8 749.888V721.032C498.8 720.506 499.2 720.401 499.7 720.611C500.1 720.927 500.5 721.559 500.5 721.98V750.836C500.5 751.363 500.1 751.573 499.7 751.257Z" fill="#484848"/>
<path d="M503.6 755.785C503.1 755.469 502.8 754.837 502.8 754.416V715.555C502.8 715.029 503.1 714.923 503.6 715.134C504 715.45 504.4 716.082 504.4 716.608V755.363C504.4 755.89 504 755.995 503.6 755.785Z" fill="#484848"/>
<path d="M507.5 755.996C507 755.68 506.7 755.153 506.7 754.626V725.771C506.7 725.35 507 725.139 507.5 725.455C508 725.665 508.3 726.297 508.3 726.824V755.68C508.3 756.101 508 756.311 507.5 755.996Z" fill="#484848"/>
<path d="M511.4 752.52C511 752.204 510.6 751.572 510.6 751.151V734.722C510.6 734.301 511 734.09 511.4 734.406C511.9 734.617 512.3 735.249 512.3 735.775V752.099C512.3 752.625 511.9 752.836 511.4 752.52Z" fill="#484848"/>
<path d="M515.3 757.469C514.9 757.259 514.5 756.627 514.5 756.1V741.356C514.5 740.935 514.9 740.725 515.3 741.041C515.8 741.251 516.2 741.883 516.2 742.41V757.153C516.2 757.575 515.8 757.785 515.3 757.469Z" fill="#484848"/>
<path d="M519.3 765.263C518.8 764.947 518.4 764.42 518.4 763.894V725.139C518.4 724.612 518.8 724.402 519.3 724.718C519.7 725.033 520.1 725.665 520.1 726.087V764.947C520.1 765.368 519.7 765.579 519.3 765.263Z" fill="#484848"/>
<path d="M523.2 763.789C522.7 763.579 522.4 762.947 522.4 762.42V731.353C522.4 730.827 522.7 730.616 523.2 730.932C523.6 731.248 524 731.88 524 732.301V763.474C524 763.895 523.6 764.105 523.2 763.789Z" fill="#484848"/>
<path d="M527.1 761.471C526.6 761.261 526.3 760.629 526.3 760.102V738.408C526.3 737.881 526.6 737.776 527.1 737.987C527.6 738.303 527.9 738.935 527.9 739.356V761.156C527.9 761.577 527.6 761.787 527.1 761.471Z" fill="#484848"/>
<path d="M531 757.995C530.6 757.679 530.2 757.153 530.2 756.626V746.621C530.2 746.2 530.6 745.99 531 746.305C531.5 746.516 531.9 747.148 531.9 747.674V757.679C531.9 758.1 531.5 758.311 531 757.995Z" fill="#484848"/>
</svg>
