<svg width="44" height="44" viewBox="0 0 44 44" fill="none" xmlns="http://www.w3.org/2000/svg">
<rect width="44" height="44" rx="12" fill="#F4F4F4"/>
<path opacity="0.12" fill-rule="evenodd" clip-rule="evenodd" d="M16 14C16 15.1046 15.1046 16 14 16C12.8954 16 12 15.1046 12 14C12 12.8954 12.8954 12 14 12C15.1046 12 16 12.8954 16 14ZM16 22C16 23.1046 15.1046 24 14 24C12.8954 24 12 23.1046 12 22C12 20.8954 12.8954 20 14 20C15.1046 20 16 20.8954 16 22ZM22 16C23.1046 16 24 15.1046 24 14C24 12.8954 23.1046 12 22 12C20.8954 12 20 12.8954 20 14C20 15.1046 20.8954 16 22 16ZM24 22C24 23.1046 23.1046 24 22 24C20.8954 24 20 23.1046 20 22C20 20.8954 20.8954 20 22 20C23.1046 20 24 20.8954 24 22ZM22 32C23.1046 32 24 31.1046 24 30C24 28.8954 23.1046 28 22 28C20.8954 28 20 28.8954 20 30C20 31.1046 20.8954 32 22 32ZM32 14C32 15.1046 31.1046 16 30 16C28.8954 16 28 15.1046 28 14C28 12.8954 28.8954 12 30 12C31.1046 12 32 12.8954 32 14ZM30 24C31.1046 24 32 23.1046 32 22C32 20.8954 31.1046 20 30 20C28.8954 20 28 20.8954 28 22C28 23.1046 28.8954 24 30 24Z" fill="black"/>
<path fill-rule="evenodd" clip-rule="evenodd" d="M14 12.75C13.3096 12.75 12.75 13.3096 12.75 14C12.75 14.6904 13.3096 15.25 14 15.25C14.6904 15.25 15.25 14.6904 15.25 14C15.25 13.3096 14.6904 12.75 14 12.75ZM11.25 14C11.25 12.4812 12.4812 11.25 14 11.25C15.5188 11.25 16.75 12.4812 16.75 14C16.75 15.5188 15.5188 16.75 14 16.75C12.4812 16.75 11.25 15.5188 11.25 14ZM14 20.75C13.3096 20.75 12.75 21.3096 12.75 22C12.75 22.6904 13.3096 23.25 14 23.25C14.6904 23.25 15.25 22.6904 15.25 22C15.25 21.3096 14.6904 20.75 14 20.75ZM11.25 22C11.25 20.4812 12.4812 19.25 14 19.25C15.5188 19.25 16.75 20.4812 16.75 22C16.75 23.5188 15.5188 24.75 14 24.75C12.4812 24.75 11.25 23.5188 11.25 22ZM20.75 14C20.75 13.3096 21.3096 12.75 22 12.75C22.6904 12.75 23.25 13.3096 23.25 14C23.25 14.6904 22.6904 15.25 22 15.25C21.3096 15.25 20.75 14.6904 20.75 14ZM22 11.25C20.4812 11.25 19.25 12.4812 19.25 14C19.25 15.5188 20.4812 16.75 22 16.75C23.5188 16.75 24.75 15.5188 24.75 14C24.75 12.4812 23.5188 11.25 22 11.25ZM22 20.75C21.3096 20.75 20.75 21.3096 20.75 22C20.75 22.6904 21.3096 23.25 22 23.25C22.6904 23.25 23.25 22.6904 23.25 22C23.25 21.3096 22.6904 20.75 22 20.75ZM19.25 22C19.25 20.4812 20.4812 19.25 22 19.25C23.5188 19.25 24.75 20.4812 24.75 22C24.75 23.5188 23.5188 24.75 22 24.75C20.4812 24.75 19.25 23.5188 19.25 22ZM20.75 30C20.75 29.3096 21.3096 28.75 22 28.75C22.6904 28.75 23.25 29.3096 23.25 30C23.25 30.6904 22.6904 31.25 22 31.25C21.3096 31.25 20.75 30.6904 20.75 30ZM22 27.25C20.4812 27.25 19.25 28.4812 19.25 30C19.25 31.5188 20.4812 32.75 22 32.75C23.5188 32.75 24.75 31.5188 24.75 30C24.75 28.4812 23.5188 27.25 22 27.25ZM30 12.75C29.3096 12.75 28.75 13.3096 28.75 14C28.75 14.6904 29.3096 15.25 30 15.25C30.6904 15.25 31.25 14.6904 31.25 14C31.25 13.3096 30.6904 12.75 30 12.75ZM27.25 14C27.25 12.4812 28.4812 11.25 30 11.25C31.5188 11.25 32.75 12.4812 32.75 14C32.75 15.5188 31.5188 16.75 30 16.75C28.4812 16.75 27.25 15.5188 27.25 14ZM28.75 22C28.75 21.3096 29.3096 20.75 30 20.75C30.6904 20.75 31.25 21.3096 31.25 22C31.25 22.6904 30.6904 23.25 30 23.25C29.3096 23.25 28.75 22.6904 28.75 22ZM30 19.25C28.4812 19.25 27.25 20.4812 27.25 22C27.25 23.5188 28.4812 24.75 30 24.75C31.5188 24.75 32.75 23.5188 32.75 22C32.75 20.4812 31.5188 19.25 30 19.25Z" fill="black"/>
</svg>
