<svg width="484" height="390" viewBox="0 0 484 390" fill="none" xmlns="http://www.w3.org/2000/svg">
<path d="M313.656 142.443L277.508 122.628L251.73 136.994L251 135.72L277.508 121L313.656 140.815L337.828 127.299L338.558 128.502L313.656 142.443Z" fill="#272727"/>
<path d="M393.656 188.443L357.508 168.628L331.73 182.994L331 181.72L357.508 167L393.656 186.815L417.828 173.299L418.558 174.502L393.656 188.443Z" fill="#272727"/>
<path d="M143.017 333.337L107.238 312.696L81.7228 327.66L81 326.333L107.238 311L143.017 331.641L166.942 317.561L167.665 318.814L143.017 333.337Z" fill="#272727"/>
<path fill-rule="evenodd" clip-rule="evenodd" d="M166.35 319.423L166.012 319.22L1.84644 224.855L2.86022 224.248L203.658 108.568L203.996 108.77L368.162 203.136L367.148 203.743L166.35 319.423ZM4.54987 224.855L166.35 317.871L365.391 203.136L203.658 110.12L4.54987 224.855Z" fill="#272727"/>
<path d="M322.729 350.542L219 289.386L219.885 288L323.534 349.155L322.729 350.542Z" fill="#272727"/>
<path d="M428.729 288.542L325 227.386L325.885 226L429.534 287.156L428.729 288.542Z" fill="#272727"/>
<path d="M367 88.7625V93.7658L399.79 112.707V107.793L367 88.7625Z" fill="#484848"/>
<path d="M464.833 112.171L432.043 131.469L432.133 225.282L464.833 206.698V112.171Z" fill="#1C1C1C"/>
<path d="M367 93.7659L432.043 131.47L432.133 225.282L367.089 187.757L367 93.7659Z" fill="#3D3D3D"/>
<path d="M464.922 206.43L432.133 225.282V230.196L464.922 211.165V206.43Z" fill="#484848"/>
<path d="M432.133 225.282V230.196L367.089 192.671V187.757L432.133 225.282Z" fill="#484848"/>
<path d="M432.043 126.466L464.744 107.436L464.833 112.171L432.043 131.38V126.466Z" fill="#484848"/>
<path d="M399.254 107.525V112.439L432.043 131.469V126.466L399.254 107.525Z" fill="#484848"/>
<path d="M432.043 126.824L367 88.7625L399.611 70L464.744 107.436L432.043 126.824Z" fill="#282828"/>
<path d="M406.491 107.614L409.439 109.401L431.865 122.714L454.558 109.312L457.507 107.525L431.954 92.9617L406.491 107.614Z" fill="black"/>
<path d="M409.439 109.401L431.865 122.713L454.558 109.312L431.954 96.4458L409.439 109.401Z" fill="#161616"/>
<path d="M374.505 89.2093L377.453 90.9962L399.968 104.219L422.573 90.8175L425.61 89.1199L399.968 74.5566L374.505 89.2093Z" fill="black"/>
<path d="M377.453 90.9961L399.968 104.219L422.573 90.8174L399.968 78.041L377.453 90.9961Z" fill="#161616"/>
<path d="M415.425 131.738V146.748L401.845 138.885L414.978 146.479V131.469L415.425 131.738Z" fill="black"/>
<path d="M415.425 131.291V146.39L401.845 138.438V123.428L415.425 131.291Z" fill="black"/>
<path d="M415.068 131.38L401.845 123.786V137.902L401.04 138.349V123.339L415.068 131.38Z" fill="black"/>
<path d="M415.425 145.586V146.569L401.219 138.26L401.845 137.813L415.425 145.586Z" fill="black"/>
<path d="M414.978 131.38L401.845 123.786V137.991L401.04 138.349V123.339L414.978 131.38Z" fill="#484848"/>
<path d="M415.425 145.675V146.658L401.13 138.26L401.845 137.902L415.425 145.675Z" fill="black"/>
<path d="M408.367 127.449V141.655L407.563 142.012V127.002L408.367 127.449Z" fill="#484848"/>
<path d="M407.027 126.288V141.744L407.563 142.012V127.002L407.027 126.288Z" fill="black"/>
<path fill-rule="evenodd" clip-rule="evenodd" d="M415.425 131.201V147.284L400.504 138.617V122.535L415.425 131.201ZM414.889 131.559L401.13 123.607V138.349L414.889 146.301V131.559Z" fill="#606060"/>
<path d="M415.425 156.308V171.407L401.845 163.545L414.978 171.139V156.04L415.425 156.308Z" fill="black"/>
<path d="M415.425 155.95V171.05L401.845 163.098V148.088L415.425 155.95Z" fill="black"/>
<path d="M415.068 156.04L401.845 148.445V162.562L401.04 163.009V147.999L415.068 156.04Z" fill="black"/>
<path d="M415.425 170.156V171.228L401.219 162.919L401.845 162.473L415.425 170.156Z" fill="black"/>
<path d="M414.978 156.04L401.845 148.445V162.562L401.04 163.009V147.999L414.978 156.04Z" fill="#484848"/>
<path d="M415.425 170.246V171.318L401.13 162.919L401.845 162.562L415.425 170.246Z" fill="black"/>
<path d="M408.367 152.108V166.314L407.563 166.672V151.662L408.367 152.108Z" fill="#484848"/>
<path d="M407.027 150.947V166.404L407.563 166.672V151.662L407.027 150.947Z" fill="black"/>
<path fill-rule="evenodd" clip-rule="evenodd" d="M415.425 155.861V171.943L400.504 163.276V147.194L415.425 155.861ZM414.889 156.218L401.13 148.266V163.008L414.889 170.96V156.218Z" fill="#606060"/>
<path d="M415.425 180.967V196.066L401.845 188.114L414.978 195.798V180.698L415.425 180.967Z" fill="black"/>
<path d="M415.425 180.52V195.619L401.845 187.757V172.657L415.425 180.52Z" fill="black"/>
<path d="M415.068 180.698L401.845 173.104V187.131L401.04 187.667V172.568L415.068 180.698Z" fill="black"/>
<path d="M415.425 194.815V195.798L401.219 187.489L401.845 187.131L415.425 194.815Z" fill="black"/>
<path d="M414.978 180.698L401.845 173.015V187.22L401.04 187.667V172.568L414.978 180.698Z" fill="#484848"/>
<path d="M415.425 194.904V195.887L401.13 187.578L401.845 187.131L415.425 194.904Z" fill="black"/>
<path d="M408.367 176.767V190.884L407.563 191.331V176.321L408.367 176.767Z" fill="#484848"/>
<path d="M407.027 175.606V190.973L407.563 191.331V176.321L407.027 175.606Z" fill="black"/>
<path fill-rule="evenodd" clip-rule="evenodd" d="M415.425 180.431V196.513L400.504 187.846V171.854L415.425 180.431ZM414.889 180.699L401.13 172.747V187.489L414.889 195.53V180.699Z" fill="#606060"/>
<path d="M392.195 117.62V132.898L387.103 129.861V114.583L392.195 117.62Z" fill="black"/>
<path d="M387.192 115.03V129.325L386.299 129.772V114.494L387.192 115.03Z" fill="black"/>
<path d="M392.195 132.184V133.077L386.477 129.682L387.192 129.236L392.195 132.184Z" fill="black"/>
<path d="M387.103 115.03V129.325L386.299 129.772V114.494L387.103 115.03Z" fill="#484848"/>
<path d="M392.195 132.273V133.166L386.388 129.682L387.103 129.324L392.195 132.273Z" fill="black"/>
<path fill-rule="evenodd" clip-rule="evenodd" d="M392.91 117.978V134.15L385.852 130.04V113.868L392.91 117.978ZM392.106 118.067L386.299 114.672V129.682L392.106 132.988V118.067Z" fill="#606060"/>
<path d="M392.195 142.28V157.558L387.103 154.52V139.242L392.195 142.28Z" fill="black"/>
<path d="M387.192 139.689V153.984L386.388 154.431V139.153L387.192 139.689Z" fill="black"/>
<path d="M392.195 156.843V157.737L386.477 154.342L387.192 153.895L392.195 156.843Z" fill="black"/>
<path d="M387.103 139.689V153.984L386.299 154.431V139.153L387.103 139.689Z" fill="#484848"/>
<path d="M392.195 156.932V157.826L386.477 154.341L387.103 153.984L392.195 156.932Z" fill="black"/>
<path fill-rule="evenodd" clip-rule="evenodd" d="M392.999 142.637V158.809L385.852 154.699V138.527L392.999 142.637ZM392.195 142.727L386.477 139.421V154.341L392.195 157.737V142.727Z" fill="#606060"/>
<path d="M392.195 166.939V182.217L387.103 179.18V163.902L392.195 166.939Z" fill="black"/>
<path d="M387.192 164.349V178.554L386.388 179.091V163.812L387.192 164.349Z" fill="black"/>
<path d="M392.195 181.503V182.396L386.477 179.001L387.192 178.554L392.195 181.503Z" fill="black"/>
<path d="M387.103 164.349V178.644L386.299 179.091V163.812L387.103 164.349Z" fill="#484848"/>
<path d="M392.195 181.592V182.485L386.477 179.001L387.103 178.644L392.195 181.592Z" fill="black"/>
<path fill-rule="evenodd" clip-rule="evenodd" d="M392.999 167.297V183.468L385.852 179.358V163.187L392.999 167.297ZM392.195 167.386L386.477 163.991V179.001L392.195 182.307V167.386Z" fill="#606060"/>
<path d="M377.632 178.644L383.976 174.981V180.878L377.632 184.63V178.644Z" fill="#1C1C1C"/>
<path d="M383.976 174.981L382.457 174.087L377.453 176.946L377.632 178.644L383.976 174.981Z" fill="#484848"/>
<path d="M392.106 185.434L397.109 182.575V191.063L392.106 194.011V185.434Z" fill="#1C1C1C"/>
<path d="M392.106 185.434L377.453 176.947V185.524L392.106 194.011V185.434Z" fill="#2D2D2D"/>
<path d="M377.453 176.946L378.883 176.142L393.536 184.63L392.106 185.434L377.453 176.946Z" fill="#484848"/>
<path d="M397.109 182.575L395.59 181.592L390.587 184.541L392.106 185.434L397.109 182.575Z" fill="#484848"/>
<path d="M377.632 154.074L384.065 150.322V156.218L377.632 159.971V154.074Z" fill="#1C1C1C"/>
<path d="M384.065 150.322L382.457 149.428L377.453 152.287L377.632 154.074L384.065 150.322Z" fill="#484848"/>
<path d="M392.195 160.775L397.109 157.916L397.199 166.404L392.195 169.352V160.775Z" fill="#1C1C1C"/>
<path d="M392.195 160.775L377.453 152.287V160.864L392.195 169.352V160.775Z" fill="#2D2D2D"/>
<path d="M377.453 152.287L378.883 151.483L393.536 159.971L392.195 160.775L377.453 152.287Z" fill="#484848"/>
<path d="M397.109 157.916L395.59 157.022L390.587 159.882L392.195 160.775L397.109 157.916Z" fill="#484848"/>
<path d="M377.632 129.415L384.065 125.662V131.559L377.632 135.311V129.415Z" fill="#1C1C1C"/>
<path d="M384.065 125.662L382.457 124.769L377.453 127.628L377.632 129.415L384.065 125.662Z" fill="#484848"/>
<path d="M392.195 136.116L397.109 133.257L397.199 141.744L392.195 144.693V136.116Z" fill="#1C1C1C"/>
<path d="M392.195 136.115L377.453 127.627V136.204L392.195 144.692V136.115Z" fill="#2D2D2D"/>
<path d="M377.453 127.628L378.883 126.823L393.536 135.311L392.195 136.115L377.453 127.628Z" fill="#484848"/>
<path d="M397.109 133.256L395.59 132.363L390.587 135.222L392.195 136.116L397.109 133.256Z" fill="#484848"/>
<path d="M441.514 135.758V150.857L455.094 142.905L441.961 150.499V135.49L441.514 135.758Z" fill="black"/>
<path d="M441.514 135.311V150.41L455.094 142.458V127.448L441.514 135.311Z" fill="black"/>
<path d="M441.871 135.4L455.094 127.806V141.922L455.898 142.369V127.359L441.871 135.4Z" fill="black"/>
<path d="M441.514 149.606V150.589L455.72 142.28L455.094 141.923L441.514 149.606Z" fill="black"/>
<path d="M441.961 135.4L455.094 127.806V142.011L455.898 142.369V127.359L441.961 135.4Z" fill="#484848"/>
<path d="M441.514 149.696V150.678L455.809 142.369L455.094 141.923L441.514 149.696Z" fill="black"/>
<path d="M448.572 131.558V145.675L449.376 146.122V131.022L448.572 131.558Z" fill="#484848"/>
<path d="M449.912 130.397V145.764L449.376 146.122V131.022L449.912 130.397Z" fill="black"/>
<path fill-rule="evenodd" clip-rule="evenodd" d="M456.435 126.644V142.637L441.514 151.304V135.221L456.435 126.644ZM442.05 150.41L455.809 142.369V127.627L442.05 135.579V150.41Z" fill="#606060"/>
<path d="M441.514 160.417V175.517L455.094 167.565L441.961 175.159V160.149L441.514 160.417Z" fill="black"/>
<path d="M441.514 159.97V175.07L455.094 167.118V152.108L441.514 159.97Z" fill="black"/>
<path d="M441.871 160.06L455.094 152.465V166.582L455.898 167.029V152.019L441.871 160.06Z" fill="black"/>
<path d="M441.514 174.266V175.249L455.72 166.939L455.094 166.582L441.514 174.266Z" fill="black"/>
<path d="M441.961 160.06L455.094 152.465V166.671L455.898 167.029V152.019L441.961 160.06Z" fill="#484848"/>
<path d="M441.514 174.355V175.338L455.809 166.939L455.094 166.582L441.514 174.355Z" fill="black"/>
<path d="M448.572 156.218V170.334L449.376 170.781V155.682L448.572 156.218Z" fill="#484848"/>
<path d="M449.912 154.967V170.424L449.376 170.781V155.682L449.912 154.967Z" fill="black"/>
<path fill-rule="evenodd" clip-rule="evenodd" d="M456.435 151.214V167.296L441.514 175.963V159.881L456.435 151.214ZM442.05 174.98L455.809 166.939V152.197L442.05 160.149V174.98Z" fill="#606060"/>
<path d="M441.514 184.987V200.086L455.094 192.224L441.961 199.818V184.719L441.514 184.987Z" fill="black"/>
<path d="M441.514 184.629V199.639L455.094 191.777V176.678L441.514 184.629Z" fill="black"/>
<path d="M441.871 184.719L455.094 177.124V191.152L455.898 191.688V176.588L441.871 184.719Z" fill="black"/>
<path d="M441.514 198.836V199.908L455.72 191.599L455.094 191.152L441.514 198.836Z" fill="black"/>
<path d="M441.961 184.719L455.094 177.124V191.241L455.898 191.688V176.588L441.961 184.719Z" fill="#484848"/>
<path d="M441.514 198.925V199.997L455.809 191.599L455.094 191.152L441.514 198.925Z" fill="black"/>
<path d="M448.572 180.788V194.993L449.376 195.351V180.341L448.572 180.788Z" fill="#484848"/>
<path d="M449.912 179.626V195.083L449.376 195.351V180.341L449.912 179.626Z" fill="black"/>
<path fill-rule="evenodd" clip-rule="evenodd" d="M456.435 175.874V191.956L441.514 200.622V184.54L456.435 175.874ZM442.05 199.55L455.809 191.599V176.767L442.05 184.719V199.55Z" fill="#606060"/>
<path d="M174.192 250.475H151.965L145.179 231.84L164.073 224.456L182.498 232.015L174.192 250.475Z" fill="black"/>
<path d="M230.404 217.951L174.192 250.474V234.242L197.648 212.032L230.404 201.719V217.951Z" fill="black"/>
<path d="M230.404 201.719V188.827L184.311 162.164H162.084L105.872 194.687V207.579L151.965 234.243H174.192L230.404 201.719Z" fill="black"/>
<path d="M151.965 250.476L105.872 223.812V207.58L151.965 234.243V250.476Z" fill="black"/>
<path d="M174.309 246.725H151.438L144.477 196.973L163.897 189.296L182.908 197.09L174.309 246.725Z" fill="#313131"/>
<path d="M232.159 213.264L174.309 246.725V199.376L198.467 176.522L232.159 165.915V213.264Z" fill="#1C1C1C"/>
<path d="M232.159 165.915V152.73L184.721 125.246H161.908L104 158.707V171.951L151.438 199.376H174.309L232.159 165.915Z" fill="#272727"/>
<path d="M151.438 246.724L104 219.299V171.95L151.438 199.375V246.724Z" fill="#3D3D3D"/>
<path d="M174.192 197.794H151.965L145.179 179.218L164.073 171.776L182.498 179.335L174.192 197.794Z" fill="#313131"/>
<path d="M230.404 165.329L174.192 197.794V181.562L197.648 159.352L230.404 149.038V165.329Z" fill="#1C1C1C"/>
<path d="M230.404 149.038V136.204L184.311 109.541H162.084L105.872 142.065V154.898L151.965 181.561H174.192L230.404 149.038Z" fill="#272727"/>
<path d="M151.965 197.794L105.872 171.189V154.898L151.965 181.562V197.794Z" fill="#3D3D3D"/>
<path d="M151.965 197.794L134.943 187.949V180.273L151.965 190.118V197.794Z" fill="#C92222"/>
<path opacity="0.3" d="M178.345 175.936L146.817 176.874L105.872 153.199V169.431L151.965 196.095H174.192L230.404 163.571V147.339L178.345 175.936Z" fill="black"/>
<path d="M174.309 192.988H151.438L144.478 162.515L163.897 154.897L182.908 162.691L174.309 192.988Z" fill="#313131"/>
<path d="M232.159 159.527L174.309 192.988V164.977L198.467 142.123L232.159 131.516V159.527Z" fill="#1C1C1C"/>
<path d="M232.159 131.516V118.272L184.721 90.8474H161.908L104 124.308V137.493L151.438 164.977H174.309L232.159 131.516Z" fill="#272727"/>
<path d="M151.438 192.988L104 165.621V137.493L151.438 164.977V192.988Z" fill="#3D3D3D"/>
<path d="M174.192 163.396H151.965L145.179 144.761L164.073 137.318L182.498 144.936L174.192 163.396Z" fill="#313131"/>
<path d="M230.404 130.871L174.192 163.394V147.103L197.648 124.894L230.404 114.639V130.871Z" fill="#1C1C1C"/>
<path d="M230.404 114.639V101.747L184.311 75.084H162.084L105.872 107.607V120.441L151.965 147.104H174.192L230.404 114.639Z" fill="#272727"/>
<path d="M151.965 163.396L105.872 136.732V120.441L151.965 147.105V163.396Z" fill="#3D3D3D"/>
<path d="M151.965 163.396L134.943 153.551V145.815L151.965 155.66V163.396Z" fill="#C92222"/>
<path opacity="0.3" d="M178.345 141.479L146.817 142.416L105.872 118.742V135.033L151.965 161.637H174.192L230.404 129.114V112.882L178.345 141.479Z" fill="black"/>
<path d="M174.309 158.765H151.438L144.478 128.293L163.897 120.616L182.908 128.41L174.309 158.765Z" fill="#313131"/>
<path d="M232.159 125.305L174.309 158.766V130.696L198.467 107.842L232.159 97.2356V125.305Z" fill="#1C1C1C"/>
<path d="M232.159 97.2354V83.9917L184.721 56.5667H161.908L104 90.0275V103.271L151.438 130.696H174.309L232.159 97.2354Z" fill="#272727"/>
<path d="M151.438 158.766L104 131.341V103.272L151.438 130.697V158.766Z" fill="#3D3D3D"/>
<path d="M174.192 129.114H151.965L145.179 110.537L164.073 103.095L182.498 110.654L174.192 129.114Z" fill="#313131"/>
<path d="M230.404 96.59L174.192 129.113V112.881L197.648 90.6713L230.404 80.3577V96.59Z" fill="#1C1C1C"/>
<path d="M230.404 80.3573V67.4652L184.311 40.8606H162.084L105.872 73.3839V86.2174L151.965 112.881H174.192L230.404 80.3573Z" fill="#272727"/>
<path d="M151.965 129.114L105.872 102.509V86.218L151.965 112.881V129.114Z" fill="#3D3D3D"/>
<path d="M151.965 129.113L134.943 119.268V111.591L151.965 121.436V129.113Z" fill="#C92222"/>
<path opacity="0.3" d="M178.345 107.255L146.817 108.193L105.872 84.5185V100.751L151.965 127.414H174.192L230.404 94.8908V78.6584L178.345 107.255Z" fill="black"/>
<path d="M174.309 124.66H151.438L144.477 94.1288L163.897 86.5107L182.908 94.3046L174.309 124.66Z" fill="#313131"/>
<path d="M232.159 91.1409L174.309 124.66V96.5321L198.467 73.7366L232.159 63.0713V91.1409Z" fill="#1C1C1C"/>
<path d="M232.159 63.0711V49.8859L184.721 22.4609H161.908L104 55.9218V69.1069L151.438 96.5319H174.309L232.159 63.0711Z" fill="#272727"/>
<path d="M151.438 124.66L104 97.1761V69.1064L151.438 96.5315V124.66Z" fill="#3D3D3D"/>
<path d="M174.192 94.5991H151.965L145.179 89.6766L164.073 82.2344L181.211 89.2664L174.192 94.5991Z" fill="#313131"/>
<path d="M230.404 62.0755L174.192 94.5987V92.0203L197.648 69.8108L230.404 59.4971V62.0755Z" fill="#1C1C1C"/>
<path d="M230.404 59.4967V46.6632L184.311 20H162.084L105.872 52.5233V65.3568L151.965 92.02H174.192L230.404 59.4967Z" fill="#272727"/>
<path fill-rule="evenodd" clip-rule="evenodd" d="M147.097 45.6165C148.659 45.5992 149.891 46.3103 149.861 47.2123L149.335 63.9242L162.644 56.2404C163.755 55.5986 165.558 55.5813 166.624 56.197L167.135 56.4919C167.526 54.4972 169.058 52.5372 171.732 50.9935C177.86 47.4551 187.669 47.3597 193.587 50.7767C199.461 54.1676 199.326 59.7961 193.287 63.3345L193.107 63.4385C186.978 66.9249 177.244 66.9943 171.371 63.6033L164.536 59.6573L148.374 68.989C147.547 69.4659 146.346 69.622 145.309 69.3705C144.964 69.2925 144.663 69.1884 144.408 69.041L144.378 69.0236C143.897 68.7288 143.597 68.3298 143.627 67.8962L144.243 47.2643C144.258 46.822 144.573 46.4317 145.054 46.1369L145.144 46.0848C145.655 45.8073 146.346 45.6165 147.097 45.6165ZM189.547 53.1096C185.776 50.9328 179.543 50.9935 175.637 53.2483C171.747 55.4945 171.641 59.0936 175.412 61.2704C179.167 63.4385 185.401 63.3778 189.291 61.1317C193.197 58.8768 193.302 55.2777 189.547 53.1096ZM172.678 42.4684C174.24 42.4511 175.472 43.1622 175.427 44.0555C175.427 44.5064 175.096 44.9054 174.571 45.2089C174.06 45.5038 173.354 45.7033 172.573 45.7032C169.959 45.7379 167.466 46.345 165.573 47.4378C163.695 48.5218 162.629 49.9701 162.584 51.4705C162.569 51.9301 162.238 52.3291 161.712 52.6326C161.202 52.9275 160.511 53.1182 159.715 53.1269C158.182 53.1443 156.951 52.4331 156.966 51.5399C157.041 49.1549 158.723 46.9001 161.682 45.1916C164.657 43.4744 168.562 42.5031 172.678 42.4684Z" fill="#757575"/>
<path d="M151.965 94.5991L105.872 67.9358V65.3574L151.965 92.0207V94.5991Z" fill="#3D3D3D"/>
<path d="M365.787 363.984H336.906L328.116 325.503L352.639 315.883L376.646 325.725L365.787 363.984Z" fill="#313131"/>
<path d="M438.841 321.73L365.787 363.985V328.612L396.294 299.752L438.841 286.357V321.73Z" fill="#1C1C1C"/>
<path d="M438.841 286.357V269.633L378.935 235H350.128L277 277.255V293.905L336.906 328.612H365.787L438.841 286.357Z" fill="#272727"/>
<path d="M336.906 363.984L277 329.425V293.905L336.906 328.611V363.984Z" fill="#3D3D3D"/>
<path d="M257 18.7627V23.766L289.79 42.7072V37.7932L257 18.7627Z" fill="#484848"/>
<path d="M354.833 42.1711L322.043 61.4697L322.133 155.282L354.833 136.698V42.1711Z" fill="#1C1C1C"/>
<path d="M257 23.7661L322.043 61.4698L322.133 155.282L257.089 117.757L257 23.7661Z" fill="#3D3D3D"/>
<path d="M354.922 136.43L322.133 155.282V160.196L354.922 141.166V136.43Z" fill="#484848"/>
<path d="M322.133 155.282V160.196L257.089 122.671V117.757L322.133 155.282Z" fill="#484848"/>
<path d="M322.043 56.4666L354.744 37.436L354.833 42.1713L322.043 61.3805V56.4666Z" fill="#484848"/>
<path d="M289.254 37.5254V42.4394L322.043 61.4699V56.4666L289.254 37.5254Z" fill="#484848"/>
<path d="M322.043 56.8235L257 18.7625L289.611 0L354.744 37.4356L322.043 56.8235Z" fill="#282828"/>
<path d="M296.491 37.6145L299.439 39.4014L321.865 52.7139L344.558 39.3121L347.507 37.5252L321.954 22.9619L296.491 37.6145Z" fill="black"/>
<path d="M299.439 39.4013L321.865 52.7138L344.558 39.312L321.954 26.4463L299.439 39.4013Z" fill="#161616"/>
<path d="M264.505 19.2095L267.453 20.9964L289.968 34.2195L312.573 20.8177L315.61 19.1202L289.968 4.55688L264.505 19.2095Z" fill="black"/>
<path d="M267.453 20.9966L289.968 34.2196L312.573 20.8179L289.968 8.0415L267.453 20.9966Z" fill="#161616"/>
<path d="M305.425 61.7382V76.7482L291.845 68.8859L304.978 76.4802V61.4702L305.425 61.7382Z" fill="black"/>
<path d="M305.425 61.2913V76.3907L291.845 68.4389V53.429L305.425 61.2913Z" fill="black"/>
<path d="M305.068 61.3807L291.845 53.7863V67.9029L291.041 68.3496V53.3396L305.068 61.3807Z" fill="black"/>
<path d="M305.425 75.5867V76.5695L291.219 68.2604L291.845 67.8137L305.425 75.5867Z" fill="black"/>
<path d="M304.978 61.3807L291.845 53.7863V67.9922L291.041 68.3496V53.3396L304.978 61.3807Z" fill="#484848"/>
<path d="M305.425 75.6761V76.6589L291.13 68.2605L291.845 67.9031L305.425 75.6761Z" fill="black"/>
<path d="M298.367 57.4497V71.6555L297.563 72.0129V57.0029L298.367 57.4497Z" fill="#484848"/>
<path d="M297.027 56.2883V71.745L297.563 72.0131V57.0031L297.027 56.2883Z" fill="black"/>
<path fill-rule="evenodd" clip-rule="evenodd" d="M305.425 61.2019V77.284L290.505 68.6175V52.5354L305.425 61.2019ZM304.889 61.5593L291.13 53.6075V68.3495L304.889 76.3012V61.5593Z" fill="#606060"/>
<path d="M305.425 86.3081V101.407L291.845 93.545L304.978 101.139V86.04L305.425 86.3081Z" fill="black"/>
<path d="M305.425 85.9508V101.05L291.845 93.0984V78.0884L305.425 85.9508Z" fill="black"/>
<path d="M305.068 86.0401L291.845 78.4457V92.5623L291.041 93.009V77.999L305.068 86.0401Z" fill="black"/>
<path d="M305.425 100.157V101.229L291.219 92.9199L291.845 92.4731L305.425 100.157Z" fill="black"/>
<path d="M304.978 86.0401L291.845 78.4457V92.5623L291.041 93.009V77.999L304.978 86.0401Z" fill="#484848"/>
<path d="M305.425 100.246V101.318L291.13 92.9199L291.845 92.5625L305.425 100.246Z" fill="black"/>
<path d="M298.367 82.1091V96.315L297.563 96.6723V81.6624L298.367 82.1091Z" fill="#484848"/>
<path d="M297.027 80.9478V96.4045L297.563 96.6725V81.6625L297.027 80.9478Z" fill="black"/>
<path fill-rule="evenodd" clip-rule="evenodd" d="M305.425 85.8615V101.944L290.505 93.2772V77.1951L305.425 85.8615ZM304.889 86.2189L291.13 78.2672V93.0092L304.889 100.961V86.2189Z" fill="#606060"/>
<path d="M305.425 110.968V126.067L291.845 118.115L304.978 125.799V110.699L305.425 110.968Z" fill="black"/>
<path d="M305.425 110.521V125.62L291.845 117.758V102.658L305.425 110.521Z" fill="black"/>
<path d="M305.068 110.699L291.845 103.105V117.132L291.041 117.668V102.569L305.068 110.699Z" fill="black"/>
<path d="M305.425 124.816V125.799L291.219 117.49L291.845 117.132L305.425 124.816Z" fill="black"/>
<path d="M304.978 110.699L291.845 103.016V117.221L291.041 117.668V102.569L304.978 110.699Z" fill="#484848"/>
<path d="M305.425 124.905V125.888L291.13 117.579L291.845 117.132L305.425 124.905Z" fill="black"/>
<path d="M298.367 106.768V120.885L297.563 121.332V106.322L298.367 106.768Z" fill="#484848"/>
<path d="M297.027 105.607V120.974L297.563 121.332V106.322L297.027 105.607Z" fill="black"/>
<path fill-rule="evenodd" clip-rule="evenodd" d="M305.425 110.431V126.514L290.505 117.847V101.854L305.425 110.431ZM304.889 110.699L291.13 102.748V117.49L304.889 125.531V110.699Z" fill="#606060"/>
<path d="M282.195 47.621V62.899L277.103 59.8613V44.5833L282.195 47.621Z" fill="black"/>
<path d="M277.192 45.0305V59.3257L276.298 59.7724V44.4944L277.192 45.0305Z" fill="black"/>
<path d="M282.195 62.1847V63.0782L276.477 59.6831L277.192 59.2363L282.195 62.1847Z" fill="black"/>
<path d="M277.103 45.0305V59.3257L276.298 59.7724V44.4944L277.103 45.0305Z" fill="#484848"/>
<path d="M282.195 62.2736V63.167L276.388 59.6826L277.103 59.3252L282.195 62.2736Z" fill="black"/>
<path fill-rule="evenodd" clip-rule="evenodd" d="M282.91 47.9785V64.15L275.852 60.0401V43.8687L282.91 47.9785ZM282.106 48.0679L276.299 44.6728V59.6828L282.106 62.9885V48.0679Z" fill="#606060"/>
<path d="M282.195 72.2807V87.5587L277.103 84.5209V69.2429L282.195 72.2807Z" fill="black"/>
<path d="M277.192 69.6899V83.9851L276.388 84.4318V69.1538L277.192 69.6899Z" fill="black"/>
<path d="M282.195 86.8441V87.7376L276.477 84.3425L277.192 83.8958L282.195 86.8441Z" fill="black"/>
<path d="M277.103 69.6899V83.9851L276.298 84.4318V69.1538L277.103 69.6899Z" fill="#484848"/>
<path d="M282.195 86.9333V87.8267L276.477 84.3422L277.103 83.9849L282.195 86.9333Z" fill="black"/>
<path fill-rule="evenodd" clip-rule="evenodd" d="M282.999 72.638V88.8094L275.852 84.6996V68.5281L282.999 72.638ZM282.195 72.7273L276.477 69.4215V84.3422L282.195 87.7373V72.7273Z" fill="#606060"/>
<path d="M282.195 96.9398V112.218L277.103 109.18V93.9021L282.195 96.9398Z" fill="black"/>
<path d="M277.192 94.3491V108.555L276.388 109.091V93.813L277.192 94.3491Z" fill="black"/>
<path d="M282.195 111.503V112.397L276.477 109.002L277.192 108.555L282.195 111.503Z" fill="black"/>
<path d="M277.103 94.3491V108.644L276.298 109.091V93.813L277.103 94.3491Z" fill="#484848"/>
<path d="M282.195 111.592V112.486L276.477 109.001L277.103 108.644L282.195 111.592Z" fill="black"/>
<path fill-rule="evenodd" clip-rule="evenodd" d="M282.999 97.2974V113.469L275.852 109.359V93.1875L282.999 97.2974ZM282.195 97.3867L276.477 93.9916V109.002L282.195 112.307V97.3867Z" fill="#606060"/>
<path d="M267.632 108.644L273.976 104.981V110.878L267.632 114.63V108.644Z" fill="#1C1C1C"/>
<path d="M273.976 104.981L272.457 104.088L267.453 106.947L267.632 108.644L273.976 104.981Z" fill="#484848"/>
<path d="M282.106 115.434L287.109 112.575V121.063L282.106 124.011V115.434Z" fill="#1C1C1C"/>
<path d="M282.106 115.434L267.453 106.946V115.523L282.106 124.011V115.434Z" fill="#2D2D2D"/>
<path d="M267.453 106.946L268.883 106.142L283.536 114.63L282.106 115.434L267.453 106.946Z" fill="#484848"/>
<path d="M287.109 112.575L285.591 111.592L280.587 114.541L282.106 115.434L287.109 112.575Z" fill="#484848"/>
<path d="M267.632 84.0745L274.065 80.322V86.2188L267.632 89.9713V84.0745Z" fill="#1C1C1C"/>
<path d="M274.065 80.3219L272.457 79.4285L267.453 82.2875L267.632 84.0744L274.065 80.3219Z" fill="#484848"/>
<path d="M282.195 90.7756L287.109 87.9165L287.199 96.4043L282.195 99.3527V90.7756Z" fill="#1C1C1C"/>
<path d="M282.195 90.7754L267.453 82.2876V90.8647L282.195 99.3525V90.7754Z" fill="#2D2D2D"/>
<path d="M267.453 82.2875L268.883 81.4834L283.536 89.9712L282.195 90.7753L267.453 82.2875Z" fill="#484848"/>
<path d="M287.109 87.9164L285.591 87.0229L280.587 89.882L282.195 90.7755L287.109 87.9164Z" fill="#484848"/>
<path d="M267.632 59.4148L274.065 55.6624V61.5591L267.632 65.3116V59.4148Z" fill="#1C1C1C"/>
<path d="M274.065 55.6625L272.457 54.769L267.453 57.6281L267.632 59.415L274.065 55.6625Z" fill="#484848"/>
<path d="M282.195 66.1159L287.109 63.2568L287.199 71.7446L282.195 74.693V66.1159Z" fill="#1C1C1C"/>
<path d="M282.195 66.1155L267.453 57.6277V66.2048L282.195 74.6926V66.1155Z" fill="#2D2D2D"/>
<path d="M267.453 57.6278L268.883 56.8237L283.536 65.3115L282.195 66.1156L267.453 57.6278Z" fill="#484848"/>
<path d="M287.109 63.2567L285.591 62.3633L280.587 65.2223L282.195 66.1158L287.109 63.2567Z" fill="#484848"/>
<path d="M331.514 65.758V80.8574L345.094 72.9056L331.961 80.5V65.49L331.514 65.758Z" fill="black"/>
<path d="M331.514 65.3113V80.4107L345.094 72.459V57.449L331.514 65.3113Z" fill="black"/>
<path d="M331.871 65.4004L345.094 57.8061V71.9226L345.898 72.3694V57.3594L331.871 65.4004Z" fill="black"/>
<path d="M331.514 79.6068V80.5896L345.72 72.2805L345.094 71.9231L331.514 79.6068Z" fill="black"/>
<path d="M331.961 65.4004L345.094 57.8061V72.012L345.898 72.3694V57.3594L331.961 65.4004Z" fill="#484848"/>
<path d="M331.514 79.6961V80.6789L345.809 72.3698L345.094 71.9231L331.514 79.6961Z" fill="black"/>
<path d="M338.572 61.5588V75.6753L339.376 76.122V61.0227L338.572 61.5588Z" fill="#484848"/>
<path d="M339.912 60.3975V75.7648L339.376 76.1222V61.0229L339.912 60.3975Z" fill="black"/>
<path fill-rule="evenodd" clip-rule="evenodd" d="M346.435 56.645V72.6378L331.514 81.3043V65.2222L346.435 56.645ZM332.05 80.4108L345.809 72.3698V57.6278L332.05 65.5795V80.4108Z" fill="#606060"/>
<path d="M331.514 90.4175V105.517L345.094 97.5651L331.961 105.159V90.1494L331.514 90.4175Z" fill="black"/>
<path d="M331.514 89.9708V105.07L345.094 97.1184V82.1084L331.514 89.9708Z" fill="black"/>
<path d="M331.871 90.0599L345.094 82.4655V96.5821L345.898 97.0288V82.0188L331.871 90.0599Z" fill="black"/>
<path d="M331.514 104.266V105.249L345.72 96.9397L345.094 96.5823L331.514 104.266Z" fill="black"/>
<path d="M331.961 90.0599L345.094 82.4655V96.6714L345.898 97.0288V82.0188L331.961 90.0599Z" fill="#484848"/>
<path d="M331.514 104.355V105.338L345.809 96.9397L345.094 96.5823L331.514 104.355Z" fill="black"/>
<path d="M338.572 86.2182V100.335L339.376 100.781V85.6821L338.572 86.2182Z" fill="#484848"/>
<path d="M339.912 84.9675V100.424L339.376 100.782V85.6823L339.912 84.9675Z" fill="black"/>
<path fill-rule="evenodd" clip-rule="evenodd" d="M346.435 81.2148V97.297L331.514 105.963V89.8813L346.435 81.2148ZM332.05 104.981L345.809 96.9396V82.1976L332.05 90.1494V104.981Z" fill="#606060"/>
<path d="M331.514 114.988V130.087L345.094 122.224L331.961 129.819V114.719L331.514 114.988Z" fill="black"/>
<path d="M331.514 114.63V129.64L345.094 121.778V106.678L331.514 114.63Z" fill="black"/>
<path d="M331.871 114.72L345.094 107.125V121.152L345.898 121.688V106.589L331.871 114.72Z" fill="black"/>
<path d="M331.514 128.836V129.908L345.72 121.599L345.094 121.153L331.514 128.836Z" fill="black"/>
<path d="M331.961 114.72L345.094 107.125V121.242L345.898 121.688V106.589L331.961 114.72Z" fill="#484848"/>
<path d="M331.514 128.926V129.998L345.809 121.599L345.094 121.153L331.514 128.926Z" fill="black"/>
<path d="M338.572 110.789V124.994L339.376 125.352V110.342L338.572 110.789Z" fill="#484848"/>
<path d="M339.912 109.627V125.084L339.376 125.352V110.342L339.912 109.627Z" fill="black"/>
<path fill-rule="evenodd" clip-rule="evenodd" d="M346.435 105.874V121.956L331.514 130.623V114.541L346.435 105.874ZM332.05 129.551L345.809 121.599V106.768L332.05 114.719V129.551Z" fill="#606060"/>
<path d="M138 247.762V252.766L170.79 271.707V266.793L138 247.762Z" fill="#484848"/>
<path d="M235.833 271.171L203.043 290.469L203.133 384.282L235.833 365.698V271.171Z" fill="#1C1C1C"/>
<path d="M138 252.766L203.043 290.47L203.133 384.282L138.089 346.757L138 252.766Z" fill="#3D3D3D"/>
<path d="M235.922 365.43L203.133 384.282V389.196L235.922 370.165V365.43Z" fill="#484848"/>
<path d="M203.133 384.282V389.196L138.089 351.671V346.757L203.133 384.282Z" fill="#484848"/>
<path d="M203.043 285.466L235.744 266.436L235.833 271.171L203.043 290.38V285.466Z" fill="#484848"/>
<path d="M170.254 266.525V271.439L203.043 290.469V285.466L170.254 266.525Z" fill="#484848"/>
<path d="M203.043 285.824L138 247.762L170.611 229L235.744 266.436L203.043 285.824Z" fill="#282828"/>
<path d="M177.491 266.614L180.439 268.401L202.865 281.714L225.558 268.312L228.507 266.525L202.954 251.962L177.491 266.614Z" fill="black"/>
<path d="M180.439 268.401L202.865 281.713L225.558 268.312L202.954 255.446L180.439 268.401Z" fill="#161616"/>
<path d="M145.505 248.209L148.453 249.996L170.968 263.219L193.573 249.817L196.61 248.12L170.968 233.557L145.505 248.209Z" fill="black"/>
<path d="M148.453 249.996L170.968 263.219L193.573 249.817L170.968 237.041L148.453 249.996Z" fill="#161616"/>
<path d="M186.425 290.738V305.748L172.845 297.885L185.978 305.479V290.469L186.425 290.738Z" fill="black"/>
<path d="M186.425 290.291V305.39L172.845 297.438V282.428L186.425 290.291Z" fill="black"/>
<path d="M186.068 290.38L172.845 282.786V296.902L172.04 297.349V282.339L186.068 290.38Z" fill="black"/>
<path d="M186.425 304.586V305.569L172.219 297.26L172.845 296.813L186.425 304.586Z" fill="black"/>
<path d="M185.978 290.38L172.845 282.786V296.991L172.04 297.349V282.339L185.978 290.38Z" fill="#484848"/>
<path d="M186.425 304.675V305.658L172.13 297.26L172.845 296.902L186.425 304.675Z" fill="black"/>
<path d="M179.367 286.449V300.655L178.563 301.012V286.002L179.367 286.449Z" fill="#484848"/>
<path d="M178.027 285.288V300.744L178.563 301.012V286.002L178.027 285.288Z" fill="black"/>
<path fill-rule="evenodd" clip-rule="evenodd" d="M186.425 290.201V306.284L171.504 297.617V281.535L186.425 290.201ZM185.889 290.559L172.13 282.607V297.349L185.889 305.301V290.559Z" fill="#606060"/>
<path d="M186.425 315.308V330.407L172.845 322.545L185.978 330.139V315.04L186.425 315.308Z" fill="black"/>
<path d="M186.425 314.95V330.05L172.845 322.098V307.088L186.425 314.95Z" fill="black"/>
<path d="M186.068 315.04L172.845 307.445V321.562L172.04 322.009V306.999L186.068 315.04Z" fill="black"/>
<path d="M186.425 329.156V330.228L172.219 321.919L172.845 321.473L186.425 329.156Z" fill="black"/>
<path d="M185.978 315.04L172.845 307.445V321.562L172.04 322.009V306.999L185.978 315.04Z" fill="#484848"/>
<path d="M186.425 329.246V330.318L172.13 321.919L172.845 321.562L186.425 329.246Z" fill="black"/>
<path d="M179.367 311.108V325.314L178.563 325.672V310.662L179.367 311.108Z" fill="#484848"/>
<path d="M178.027 309.947V325.404L178.563 325.672V310.662L178.027 309.947Z" fill="black"/>
<path fill-rule="evenodd" clip-rule="evenodd" d="M186.425 314.861V330.943L171.504 322.276V306.194L186.425 314.861ZM185.889 315.218L172.13 307.266V322.008L185.889 329.96V315.218Z" fill="#606060"/>
<path d="M186.425 339.967V355.066L172.845 347.114L185.978 354.798V339.698L186.425 339.967Z" fill="black"/>
<path d="M186.425 339.52V354.619L172.845 346.757V331.657L186.425 339.52Z" fill="black"/>
<path d="M186.068 339.698L172.845 332.104V346.131L172.04 346.667V331.568L186.068 339.698Z" fill="black"/>
<path d="M186.425 353.815V354.798L172.219 346.489L172.845 346.131L186.425 353.815Z" fill="black"/>
<path d="M185.978 339.698L172.845 332.015V346.22L172.04 346.667V331.568L185.978 339.698Z" fill="#484848"/>
<path d="M186.425 353.904V354.887L172.13 346.578L172.845 346.131L186.425 353.904Z" fill="black"/>
<path d="M179.367 335.767V349.884L178.563 350.331V335.321L179.367 335.767Z" fill="#484848"/>
<path d="M178.027 334.606V349.973L178.563 350.331V335.321L178.027 334.606Z" fill="black"/>
<path fill-rule="evenodd" clip-rule="evenodd" d="M186.425 339.431V355.513L171.504 346.846V330.854L186.425 339.431ZM185.889 339.699L172.13 331.747V346.489L185.889 354.53V339.699Z" fill="#606060"/>
<path d="M163.195 276.62V291.898L158.103 288.861V273.583L163.195 276.62Z" fill="black"/>
<path d="M158.192 274.03V288.325L157.299 288.772V273.494L158.192 274.03Z" fill="black"/>
<path d="M163.195 291.184V292.077L157.477 288.682L158.192 288.236L163.195 291.184Z" fill="black"/>
<path d="M158.103 274.03V288.325L157.299 288.772V273.494L158.103 274.03Z" fill="#484848"/>
<path d="M163.195 291.273V292.166L157.388 288.682L158.103 288.324L163.195 291.273Z" fill="black"/>
<path fill-rule="evenodd" clip-rule="evenodd" d="M163.91 276.978V293.15L156.852 289.04V272.868L163.91 276.978ZM163.106 277.067L157.299 273.672V288.682L163.106 291.988V277.067Z" fill="#606060"/>
<path d="M163.195 301.28V316.558L158.103 313.52V298.242L163.195 301.28Z" fill="black"/>
<path d="M158.192 298.689V312.984L157.388 313.431V298.153L158.192 298.689Z" fill="black"/>
<path d="M163.195 315.843V316.737L157.477 313.342L158.192 312.895L163.195 315.843Z" fill="black"/>
<path d="M158.103 298.689V312.984L157.299 313.431V298.153L158.103 298.689Z" fill="#484848"/>
<path d="M163.195 315.932V316.826L157.477 313.341L158.103 312.984L163.195 315.932Z" fill="black"/>
<path fill-rule="evenodd" clip-rule="evenodd" d="M163.999 301.637V317.809L156.852 313.699V297.527L163.999 301.637ZM163.195 301.727L157.477 298.421V313.341L163.195 316.737V301.727Z" fill="#606060"/>
<path d="M163.195 325.939V341.217L158.103 338.18V322.902L163.195 325.939Z" fill="black"/>
<path d="M158.192 323.349V337.554L157.388 338.091V322.812L158.192 323.349Z" fill="black"/>
<path d="M163.195 340.503V341.396L157.477 338.001L158.192 337.554L163.195 340.503Z" fill="black"/>
<path d="M158.103 323.349V337.644L157.299 338.091V322.812L158.103 323.349Z" fill="#484848"/>
<path d="M163.195 340.592V341.485L157.477 338.001L158.103 337.644L163.195 340.592Z" fill="black"/>
<path fill-rule="evenodd" clip-rule="evenodd" d="M163.999 326.297V342.468L156.852 338.358V322.187L163.999 326.297ZM163.195 326.386L157.477 322.991V338.001L163.195 341.307V326.386Z" fill="#606060"/>
<path d="M148.632 337.644L154.976 333.981V339.878L148.632 343.63V337.644Z" fill="#1C1C1C"/>
<path d="M154.976 333.981L153.457 333.087L148.453 335.946L148.632 337.644L154.976 333.981Z" fill="#484848"/>
<path d="M163.106 344.434L168.109 341.575V350.063L163.106 353.011V344.434Z" fill="#1C1C1C"/>
<path d="M163.106 344.434L148.453 335.947V344.524L163.106 353.011V344.434Z" fill="#2D2D2D"/>
<path d="M148.453 335.946L149.883 335.142L164.536 343.63L163.106 344.434L148.453 335.946Z" fill="#484848"/>
<path d="M168.109 341.575L166.59 340.592L161.587 343.541L163.106 344.434L168.109 341.575Z" fill="#484848"/>
<path d="M148.632 313.074L155.065 309.322V315.218L148.632 318.971V313.074Z" fill="#1C1C1C"/>
<path d="M155.065 309.322L153.457 308.428L148.453 311.287L148.632 313.074L155.065 309.322Z" fill="#484848"/>
<path d="M163.195 319.775L168.109 316.916L168.199 325.404L163.195 328.352V319.775Z" fill="#1C1C1C"/>
<path d="M163.195 319.775L148.453 311.287V319.864L163.195 328.352V319.775Z" fill="#2D2D2D"/>
<path d="M148.453 311.287L149.883 310.483L164.536 318.971L163.195 319.775L148.453 311.287Z" fill="#484848"/>
<path d="M168.109 316.916L166.59 316.022L161.587 318.882L163.195 319.775L168.109 316.916Z" fill="#484848"/>
<path d="M148.632 288.415L155.065 284.662V290.559L148.632 294.311V288.415Z" fill="#1C1C1C"/>
<path d="M155.065 284.662L153.457 283.769L148.453 286.628L148.632 288.415L155.065 284.662Z" fill="#484848"/>
<path d="M163.195 295.116L168.109 292.257L168.199 300.744L163.195 303.693V295.116Z" fill="#1C1C1C"/>
<path d="M163.195 295.115L148.453 286.627V295.204L163.195 303.692V295.115Z" fill="#2D2D2D"/>
<path d="M148.453 286.628L149.883 285.823L164.536 294.311L163.195 295.115L148.453 286.628Z" fill="#484848"/>
<path d="M168.109 292.256L166.59 291.363L161.587 294.222L163.195 295.116L168.109 292.256Z" fill="#484848"/>
<path d="M212.514 294.758V309.857L226.094 301.905L212.961 309.499V294.49L212.514 294.758Z" fill="black"/>
<path d="M212.514 294.311V309.41L226.094 301.458V286.448L212.514 294.311Z" fill="black"/>
<path d="M212.871 294.4L226.094 286.806V300.922L226.898 301.369V286.359L212.871 294.4Z" fill="black"/>
<path d="M212.514 308.606V309.589L226.72 301.28L226.094 300.923L212.514 308.606Z" fill="black"/>
<path d="M212.96 294.4L226.094 286.806V301.011L226.898 301.369V286.359L212.96 294.4Z" fill="#484848"/>
<path d="M212.514 308.696V309.678L226.809 301.369L226.094 300.923L212.514 308.696Z" fill="black"/>
<path d="M219.572 290.558V304.675L220.376 305.122V290.022L219.572 290.558Z" fill="#484848"/>
<path d="M220.912 289.397V304.764L220.376 305.122V290.022L220.912 289.397Z" fill="black"/>
<path fill-rule="evenodd" clip-rule="evenodd" d="M227.434 285.644V301.637L212.514 310.304V294.221L227.434 285.644ZM213.05 309.41L226.809 301.369V286.627L213.05 294.579V309.41Z" fill="#606060"/>
<path d="M212.514 319.417V334.517L226.094 326.565L212.961 334.159V319.149L212.514 319.417Z" fill="black"/>
<path d="M212.514 318.97V334.07L226.094 326.118V311.108L212.514 318.97Z" fill="black"/>
<path d="M212.871 319.06L226.094 311.465V325.582L226.898 326.029V311.019L212.871 319.06Z" fill="black"/>
<path d="M212.514 333.266V334.249L226.72 325.939L226.094 325.582L212.514 333.266Z" fill="black"/>
<path d="M212.96 319.06L226.094 311.465V325.671L226.898 326.029V311.019L212.96 319.06Z" fill="#484848"/>
<path d="M212.514 333.355V334.338L226.809 325.939L226.094 325.582L212.514 333.355Z" fill="black"/>
<path d="M219.572 315.218V329.334L220.376 329.781V314.682L219.572 315.218Z" fill="#484848"/>
<path d="M220.912 313.967V329.424L220.376 329.781V314.682L220.912 313.967Z" fill="black"/>
<path fill-rule="evenodd" clip-rule="evenodd" d="M227.434 310.214V326.296L212.514 334.963V318.881L227.434 310.214ZM213.05 333.98L226.809 325.939V311.197L213.05 319.149V333.98Z" fill="#606060"/>
<path d="M212.514 343.987V359.086L226.094 351.224L212.961 358.818V343.719L212.514 343.987Z" fill="black"/>
<path d="M212.514 343.629V358.639L226.094 350.777V335.678L212.514 343.629Z" fill="black"/>
<path d="M212.871 343.719L226.094 336.124V350.152L226.898 350.688V335.588L212.871 343.719Z" fill="black"/>
<path d="M212.514 357.836V358.908L226.72 350.599L226.094 350.152L212.514 357.836Z" fill="black"/>
<path d="M212.96 343.719L226.094 336.124V350.241L226.898 350.688V335.588L212.96 343.719Z" fill="#484848"/>
<path d="M212.514 357.925V358.997L226.809 350.599L226.094 350.152L212.514 357.925Z" fill="black"/>
<path d="M219.572 339.788V353.993L220.376 354.351V339.341L219.572 339.788Z" fill="#484848"/>
<path d="M220.912 338.626V354.083L220.376 354.351V339.341L220.912 338.626Z" fill="black"/>
<path fill-rule="evenodd" clip-rule="evenodd" d="M227.434 334.874V350.956L212.514 359.622V343.54L227.434 334.874ZM213.05 358.55L226.809 350.599V335.767L213.05 343.719V358.55Z" fill="#606060"/>
<path d="M10 231.762V236.766L42.7897 255.707V250.793L10 231.762Z" fill="#484848"/>
<path d="M107.833 255.171L75.0433 274.469L75.1327 368.282L107.833 349.698V255.171Z" fill="#1C1C1C"/>
<path d="M10 236.766L75.0433 274.47L75.1326 368.282L10.0893 330.757L10 236.766Z" fill="#3D3D3D"/>
<path d="M107.922 349.43L75.1326 368.282V373.196L107.922 354.165V349.43Z" fill="#484848"/>
<path d="M75.1326 368.282V373.196L10.0894 335.671V330.757L75.1326 368.282Z" fill="#484848"/>
<path d="M75.0432 269.466L107.744 250.436L107.833 255.171L75.0432 274.38V269.466Z" fill="#484848"/>
<path d="M42.2535 250.525V255.439L75.0432 274.469V269.466L42.2535 250.525Z" fill="#484848"/>
<path d="M75.0433 269.824L10 231.762L42.611 213L107.744 250.436L75.0433 269.824Z" fill="#282828"/>
<path d="M49.4906 250.614L52.439 252.401L74.8646 265.714L97.5583 252.312L100.507 250.525L74.954 235.962L49.4906 250.614Z" fill="black"/>
<path d="M52.439 252.401L74.8646 265.713L97.5583 252.312L74.954 239.446L52.439 252.401Z" fill="#161616"/>
<path d="M17.505 232.209L20.4534 233.996L42.9684 247.219L65.5728 233.817L68.6105 232.12L42.9684 217.557L17.505 232.209Z" fill="black"/>
<path d="M20.4535 233.996L42.9684 247.219L65.5728 233.817L42.9684 221.041L20.4535 233.996Z" fill="#161616"/>
<path d="M58.4251 274.738V289.748L44.8446 281.885L57.9784 289.479V274.469L58.4251 274.738Z" fill="black"/>
<path d="M58.4251 274.291V289.39L44.8446 281.438V266.428L58.4251 274.291Z" fill="black"/>
<path d="M58.0676 274.38L44.8445 266.786V280.902L44.0404 281.349V266.339L58.0676 274.38Z" fill="black"/>
<path d="M58.425 288.586V289.569L44.2191 281.26L44.8445 280.813L58.425 288.586Z" fill="black"/>
<path d="M57.9783 274.38L44.8445 266.786V280.991L44.0404 281.349V266.339L57.9783 274.38Z" fill="#484848"/>
<path d="M58.425 288.675V289.658L44.1298 281.26L44.8445 280.902L58.425 288.675Z" fill="black"/>
<path d="M51.3668 270.449V284.655L50.5626 285.012V270.002L51.3668 270.449Z" fill="#484848"/>
<path d="M50.0266 269.288V284.744L50.5627 285.012V270.002L50.0266 269.288Z" fill="black"/>
<path fill-rule="evenodd" clip-rule="evenodd" d="M58.425 274.201V290.284L43.5044 281.617V265.535L58.425 274.201ZM57.8889 274.559L44.1298 266.607V281.349L57.8889 289.301V274.559Z" fill="#606060"/>
<path d="M58.4251 299.308V314.407L44.8446 306.545L57.9784 314.139V299.04L58.4251 299.308Z" fill="black"/>
<path d="M58.4251 298.95V314.05L44.8446 306.098V291.088L58.4251 298.95Z" fill="black"/>
<path d="M58.0676 299.04L44.8445 291.445V305.562L44.0404 306.009V290.999L58.0676 299.04Z" fill="black"/>
<path d="M58.425 313.156V314.228L44.2191 305.919L44.8445 305.473L58.425 313.156Z" fill="black"/>
<path d="M57.9783 299.04L44.8445 291.445V305.562L44.0404 306.009V290.999L57.9783 299.04Z" fill="#484848"/>
<path d="M58.425 313.246V314.318L44.1298 305.919L44.8445 305.562L58.425 313.246Z" fill="black"/>
<path d="M51.3668 295.108V309.314L50.5626 309.672V294.662L51.3668 295.108Z" fill="#484848"/>
<path d="M50.0266 293.947V309.404L50.5627 309.672V294.662L50.0266 293.947Z" fill="black"/>
<path fill-rule="evenodd" clip-rule="evenodd" d="M58.425 298.861V314.943L43.5044 306.276V290.194L58.425 298.861ZM57.8889 299.218L44.1298 291.266V306.008L57.8889 313.96V299.218Z" fill="#606060"/>
<path d="M58.4251 323.967V339.066L44.8446 331.114L57.9784 338.798V323.698L58.4251 323.967Z" fill="black"/>
<path d="M58.4251 323.52V338.619L44.8446 330.757V315.657L58.4251 323.52Z" fill="black"/>
<path d="M58.0676 323.698L44.8445 316.104V330.131L44.0404 330.667V315.568L58.0676 323.698Z" fill="black"/>
<path d="M58.425 337.815V338.798L44.2191 330.489L44.8445 330.131L58.425 337.815Z" fill="black"/>
<path d="M57.9783 323.698L44.8445 316.015V330.22L44.0404 330.667V315.568L57.9783 323.698Z" fill="#484848"/>
<path d="M58.425 337.904V338.887L44.1298 330.578L44.8445 330.131L58.425 337.904Z" fill="black"/>
<path d="M51.3668 319.767V333.884L50.5626 334.331V319.321L51.3668 319.767Z" fill="#484848"/>
<path d="M50.0266 318.606V333.973L50.5627 334.331V319.321L50.0266 318.606Z" fill="black"/>
<path fill-rule="evenodd" clip-rule="evenodd" d="M58.425 323.431V339.513L43.5044 330.846V314.854L58.425 323.431ZM57.8889 323.699L44.1298 315.747V330.489L57.8889 338.53V323.699Z" fill="#606060"/>
<path d="M35.1953 260.62V275.898L30.1027 272.861V257.583L35.1953 260.62Z" fill="black"/>
<path d="M30.192 258.03V272.325L29.2986 272.772V257.494L30.192 258.03Z" fill="black"/>
<path d="M35.1954 275.184V276.077L29.4773 272.682L30.192 272.236L35.1954 275.184Z" fill="black"/>
<path d="M30.1027 258.03V272.325L29.2986 272.772V257.494L30.1027 258.03Z" fill="#484848"/>
<path d="M35.1954 275.273V276.166L29.3879 272.682L30.1027 272.324L35.1954 275.273Z" fill="black"/>
<path fill-rule="evenodd" clip-rule="evenodd" d="M35.9101 260.978V277.15L28.8518 273.04V256.868L35.9101 260.978ZM35.106 261.067L29.2985 257.672V272.682L35.106 275.988V261.067Z" fill="#606060"/>
<path d="M35.1953 285.28V300.558L30.1027 297.52V282.242L35.1953 285.28Z" fill="black"/>
<path d="M30.192 282.689V296.984L29.3879 297.431V282.153L30.192 282.689Z" fill="black"/>
<path d="M35.1954 299.843V300.737L29.4773 297.342L30.192 296.895L35.1954 299.843Z" fill="black"/>
<path d="M30.1027 282.689V296.984L29.2986 297.431V282.153L30.1027 282.689Z" fill="#484848"/>
<path d="M35.1954 299.932V300.826L29.4773 297.341L30.1027 296.984L35.1954 299.932Z" fill="black"/>
<path fill-rule="evenodd" clip-rule="evenodd" d="M35.9994 285.637V301.809L28.8518 297.699V281.527L35.9994 285.637ZM35.1953 285.727L29.4772 282.421V297.341L35.1953 300.737V285.727Z" fill="#606060"/>
<path d="M35.1953 309.939V325.217L30.1027 322.18V306.902L35.1953 309.939Z" fill="black"/>
<path d="M30.192 307.349V321.554L29.3879 322.091V306.812L30.192 307.349Z" fill="black"/>
<path d="M35.1954 324.503V325.396L29.4773 322.001L30.192 321.554L35.1954 324.503Z" fill="black"/>
<path d="M30.1027 307.349V321.644L29.2986 322.091V306.812L30.1027 307.349Z" fill="#484848"/>
<path d="M35.1954 324.592V325.485L29.4773 322.001L30.1027 321.644L35.1954 324.592Z" fill="black"/>
<path fill-rule="evenodd" clip-rule="evenodd" d="M35.9994 310.297V326.468L28.8518 322.358V306.187L35.9994 310.297ZM35.1953 310.386L29.4772 306.991V322.001L35.1953 325.307V310.386Z" fill="#606060"/>
<path d="M20.6321 321.644L26.9756 317.981V323.878L20.6321 327.63V321.644Z" fill="#1C1C1C"/>
<path d="M26.9756 317.981L25.4567 317.087L20.4534 319.946L20.632 321.644L26.9756 317.981Z" fill="#484848"/>
<path d="M35.106 328.434L40.1093 325.575V334.063L35.106 337.011V328.434Z" fill="#1C1C1C"/>
<path d="M35.1059 328.434L20.4534 319.947V328.524L35.1059 337.011V328.434Z" fill="#2D2D2D"/>
<path d="M20.4534 319.946L21.8829 319.142L36.5355 327.63L35.1059 328.434L20.4534 319.946Z" fill="#484848"/>
<path d="M40.1093 325.575L38.5904 324.592L33.587 327.541L35.1059 328.434L40.1093 325.575Z" fill="#484848"/>
<path d="M20.6321 297.074L27.0649 293.322V299.218L20.6321 302.971V297.074Z" fill="#1C1C1C"/>
<path d="M27.0649 293.322L25.4567 292.428L20.4534 295.287L20.632 297.074L27.0649 293.322Z" fill="#484848"/>
<path d="M35.1953 303.775L40.1093 300.916L40.1986 309.404L35.1953 312.352V303.775Z" fill="#1C1C1C"/>
<path d="M35.1953 303.775L20.4534 295.287V303.864L35.1953 312.352V303.775Z" fill="#2D2D2D"/>
<path d="M20.4534 295.287L21.8829 294.483L36.5355 302.971L35.1953 303.775L20.4534 295.287Z" fill="#484848"/>
<path d="M40.1093 300.916L38.5904 300.022L33.587 302.882L35.1953 303.775L40.1093 300.916Z" fill="#484848"/>
<path d="M20.6321 272.415L27.0649 268.662V274.559L20.6321 278.311V272.415Z" fill="#1C1C1C"/>
<path d="M27.0649 268.662L25.4567 267.769L20.4534 270.628L20.632 272.415L27.0649 268.662Z" fill="#484848"/>
<path d="M35.1953 279.116L40.1093 276.257L40.1986 284.744L35.1953 287.693V279.116Z" fill="#1C1C1C"/>
<path d="M35.1953 279.115L20.4534 270.627V279.204L35.1953 287.692V279.115Z" fill="#2D2D2D"/>
<path d="M20.4534 270.628L21.8829 269.823L36.5355 278.311L35.1953 279.115L20.4534 270.628Z" fill="#484848"/>
<path d="M40.1093 276.256L38.5904 275.363L33.587 278.222L35.1953 279.116L40.1093 276.256Z" fill="#484848"/>
<path d="M84.5138 278.758V293.857L98.0943 285.905L84.9605 293.499V278.49L84.5138 278.758Z" fill="black"/>
<path d="M84.5138 278.311V293.41L98.0943 285.458V270.448L84.5138 278.311Z" fill="black"/>
<path d="M84.8712 278.4L98.0943 270.806V284.922L98.8984 285.369V270.359L84.8712 278.4Z" fill="black"/>
<path d="M84.5138 292.606V293.589L98.7197 285.28L98.0943 284.923L84.5138 292.606Z" fill="black"/>
<path d="M84.9604 278.4L98.0942 270.806V285.011L98.8983 285.369V270.359L84.9604 278.4Z" fill="#484848"/>
<path d="M84.5138 292.696V293.678L98.809 285.369L98.0943 284.923L84.5138 292.696Z" fill="black"/>
<path d="M91.572 274.558V288.675L92.3761 289.122V274.022L91.572 274.558Z" fill="#484848"/>
<path d="M92.9123 273.397V288.764L92.3762 289.122V274.022L92.9123 273.397Z" fill="black"/>
<path fill-rule="evenodd" clip-rule="evenodd" d="M99.4344 269.644V285.637L84.5138 294.304V278.221L99.4344 269.644ZM85.0499 293.41L98.809 285.369V270.627L85.0499 278.579V293.41Z" fill="#606060"/>
<path d="M84.5138 303.417V318.517L98.0943 310.565L84.9605 318.159V303.149L84.5138 303.417Z" fill="black"/>
<path d="M84.5138 302.97V318.07L98.0943 310.118V295.108L84.5138 302.97Z" fill="black"/>
<path d="M84.8712 303.06L98.0943 295.465V309.582L98.8984 310.029V295.019L84.8712 303.06Z" fill="black"/>
<path d="M84.5138 317.266V318.249L98.7197 309.939L98.0943 309.582L84.5138 317.266Z" fill="black"/>
<path d="M84.9604 303.06L98.0942 295.465V309.671L98.8983 310.029V295.019L84.9604 303.06Z" fill="#484848"/>
<path d="M84.5138 317.355V318.338L98.809 309.939L98.0943 309.582L84.5138 317.355Z" fill="black"/>
<path d="M91.572 299.218V313.334L92.3761 313.781V298.682L91.572 299.218Z" fill="#484848"/>
<path d="M92.9123 297.967V313.424L92.3762 313.781V298.682L92.9123 297.967Z" fill="black"/>
<path fill-rule="evenodd" clip-rule="evenodd" d="M99.4344 294.214V310.296L84.5138 318.963V302.881L99.4344 294.214ZM85.0499 317.98L98.809 309.939V295.197L85.0499 303.149V317.98Z" fill="#606060"/>
<path d="M84.5138 327.987V343.086L98.0943 335.224L84.9605 342.818V327.719L84.5138 327.987Z" fill="black"/>
<path d="M84.5138 327.629V342.639L98.0943 334.777V319.678L84.5138 327.629Z" fill="black"/>
<path d="M84.8712 327.719L98.0943 320.124V334.152L98.8984 334.688V319.588L84.8712 327.719Z" fill="black"/>
<path d="M84.5138 341.836V342.908L98.7197 334.599L98.0943 334.152L84.5138 341.836Z" fill="black"/>
<path d="M84.9604 327.719L98.0942 320.124V334.241L98.8983 334.688V319.588L84.9604 327.719Z" fill="#484848"/>
<path d="M84.5138 341.925V342.997L98.809 334.599L98.0943 334.152L84.5138 341.925Z" fill="black"/>
<path d="M91.572 323.788V337.993L92.3761 338.351V323.341L91.572 323.788Z" fill="#484848"/>
<path d="M92.9123 322.626V338.083L92.3762 338.351V323.341L92.9123 322.626Z" fill="black"/>
<path fill-rule="evenodd" clip-rule="evenodd" d="M99.4344 318.874V334.956L84.5138 343.622V327.54L99.4344 318.874ZM85.0499 342.55L98.809 334.599V319.767L85.0499 327.719V342.55Z" fill="#606060"/>
<mask id="mask0_1230_113735" style="mask-type:luminance" maskUnits="userSpaceOnUse" x="280" y="234" width="155" height="89">
<path d="M280 278.921L357.806 234L434.024 278.005L356.218 322.926L280 278.921Z" fill="white"/>
</mask>
<g mask="url(#mask0_1230_113735)">
<path d="M379.329 277.309L363.458 268.146C363.061 267.918 362.866 267.64 362.872 267.313C362.878 266.986 363.083 266.706 363.487 266.473L379.892 257.002C380.263 256.787 380.69 256.621 381.172 256.504C381.653 256.386 382.154 256.326 382.674 256.323C383.193 256.32 383.692 256.374 384.169 256.486C384.647 256.598 385.068 256.759 385.431 256.969L399.996 265.377C400.658 265.76 401.248 266.176 401.766 266.628C402.283 267.079 402.718 267.555 403.072 268.058C403.425 268.561 403.689 269.079 403.864 269.614C404.039 270.149 404.121 270.689 404.112 271.236C404.102 271.782 404 272.324 403.806 272.861C403.612 273.397 403.329 273.919 402.958 274.426C402.587 274.933 402.134 275.415 401.6 275.873C401.067 276.33 400.462 276.754 399.786 277.144L399.709 277.188C399.033 277.578 398.299 277.928 397.507 278.236C396.715 278.544 395.88 278.805 395.002 279.02C394.124 279.234 393.22 279.397 392.29 279.509C391.36 279.621 390.422 279.68 389.475 279.686C388.529 279.691 387.593 279.644 386.667 279.543C385.741 279.442 384.842 279.289 383.972 279.085C383.101 278.881 382.275 278.63 381.494 278.331C380.713 278.032 379.991 277.692 379.329 277.309Z" fill="#5059C9"/>
<path d="M368.921 251.648C369.351 251.896 369.734 252.167 370.07 252.46C370.406 252.753 370.689 253.063 370.918 253.389C371.147 253.715 371.319 254.052 371.433 254.4C371.546 254.747 371.6 255.098 371.594 255.453C371.587 255.807 371.521 256.159 371.395 256.508C371.269 256.857 371.085 257.196 370.844 257.525C370.603 257.854 370.309 258.167 369.963 258.464C369.616 258.761 369.223 259.037 368.784 259.29C368.345 259.543 367.868 259.77 367.354 259.97C366.839 260.171 366.297 260.34 365.727 260.479C365.157 260.619 364.569 260.725 363.965 260.797C363.361 260.87 362.752 260.908 362.138 260.912C361.523 260.916 360.915 260.885 360.314 260.819C359.712 260.754 359.129 260.655 358.563 260.522C357.998 260.39 357.461 260.226 356.954 260.032C356.447 259.838 355.978 259.617 355.548 259.369C355.118 259.12 354.734 258.85 354.398 258.557C354.062 258.264 353.779 257.954 353.55 257.628C353.321 257.301 353.149 256.965 353.036 256.617C352.922 256.27 352.868 255.919 352.875 255.564C352.881 255.209 352.947 254.858 353.073 254.509C353.199 254.16 353.383 253.821 353.624 253.492C353.865 253.163 354.159 252.85 354.506 252.553C354.852 252.255 355.245 251.98 355.684 251.727C356.123 251.473 356.6 251.246 357.114 251.046C357.629 250.846 358.171 250.676 358.741 250.537C359.312 250.398 359.899 250.292 360.503 250.219C361.107 250.147 361.716 250.108 362.331 250.105C362.945 250.101 363.553 250.132 364.155 250.198C364.756 250.263 365.34 250.362 365.905 250.495C366.47 250.627 367.007 250.79 367.514 250.984C368.022 251.178 368.49 251.4 368.921 251.648Z" fill="#5059C9"/>
<path d="M399.705 278.046C399.56 278.123 399.41 278.2 399.253 278.278C399.405 278.203 399.556 278.126 399.705 278.046Z" fill="#5059C9"/>
<path d="M347.708 260.457C348.333 260.818 348.891 261.212 349.38 261.638C349.869 262.064 350.28 262.515 350.613 262.989C350.947 263.464 351.196 263.954 351.362 264.459C351.527 264.964 351.605 265.475 351.596 265.991C351.587 266.507 351.49 267.019 351.307 267.526C351.124 268.033 350.857 268.526 350.506 269.005C350.155 269.484 349.728 269.94 349.224 270.372C348.719 270.804 348.148 271.204 347.509 271.573C346.871 271.941 346.177 272.271 345.429 272.563C344.68 272.854 343.892 273.1 343.062 273.303C342.233 273.505 341.379 273.659 340.5 273.765C339.622 273.871 338.736 273.927 337.842 273.932C336.948 273.938 336.063 273.892 335.188 273.797C334.313 273.701 333.465 273.557 332.643 273.365C331.82 273.172 331.04 272.935 330.302 272.653C329.564 272.37 328.882 272.049 328.256 271.687C327.631 271.326 327.073 270.932 326.584 270.506C326.095 270.08 325.684 269.63 325.351 269.155C325.017 268.68 324.768 268.19 324.602 267.685C324.437 267.18 324.359 266.669 324.368 266.153C324.377 265.637 324.474 265.125 324.657 264.618C324.84 264.111 325.107 263.618 325.458 263.139C325.809 262.66 326.236 262.205 326.74 261.773C327.245 261.341 327.816 260.94 328.455 260.572C329.093 260.203 329.787 259.873 330.535 259.582C331.284 259.291 332.072 259.044 332.902 258.841C333.731 258.639 334.585 258.485 335.464 258.379C336.342 258.273 337.228 258.217 338.122 258.212C339.016 258.207 339.901 258.252 340.776 258.347C341.651 258.443 342.499 258.587 343.321 258.779C344.144 258.972 344.924 259.209 345.662 259.492C346.4 259.774 347.082 260.096 347.708 260.457Z" fill="#7B83EB"/>
<path d="M366.481 264.745L338.114 281.123C337.738 281.337 337.446 281.585 337.238 281.865C337.03 282.144 336.922 282.436 336.914 282.738C336.905 283.04 336.998 283.331 337.19 283.61C337.383 283.888 337.661 284.134 338.026 284.347L354.515 293.867C355.615 294.488 356.81 295.04 358.101 295.523C359.392 296.006 360.754 296.412 362.188 296.74C363.622 297.067 365.101 297.311 366.623 297.471C368.146 297.631 369.684 297.704 371.237 297.689C372.791 297.675 374.33 297.574 375.856 297.387C377.381 297.199 378.864 296.928 380.303 296.574C381.743 296.22 383.113 295.79 384.412 295.283C385.711 294.776 386.916 294.202 388.025 293.561C389.135 292.92 390.129 292.225 391.007 291.475C391.885 290.725 392.631 289.934 393.244 289.103C393.857 288.272 394.326 287.416 394.651 286.535C394.976 285.654 395.151 284.765 395.176 283.869C395.2 282.972 395.074 282.084 394.797 281.205C394.521 280.326 394.098 279.472 393.531 278.644C392.963 277.816 392.26 277.03 391.423 276.284C390.586 275.539 389.63 274.849 388.555 274.214L372.066 264.694C371.697 264.484 371.272 264.323 370.789 264.211C370.306 264.1 369.803 264.047 369.279 264.052C368.755 264.057 368.251 264.119 367.766 264.239C367.282 264.359 366.853 264.528 366.481 264.745Z" fill="#7B83EB"/>
<path d="M343.114 270.439L346.222 272.233C345.257 272.667 344.212 273.022 343.089 273.297C341.966 273.572 340.803 273.759 339.6 273.856C338.398 273.954 337.197 273.959 335.998 273.872C334.8 273.785 333.645 273.608 332.534 273.343L337.506 270.472C337.881 270.255 338.313 270.086 338.801 269.967C339.289 269.848 339.796 269.786 340.322 269.783C340.848 269.78 341.353 269.835 341.837 269.949C342.321 270.063 342.746 270.226 343.114 270.439Z" fill="black" fill-opacity="0.098"/>
<path d="M309.136 286.852L337.502 270.474C337.879 270.257 338.311 270.089 338.799 269.97C339.288 269.851 339.796 269.789 340.322 269.786C340.849 269.783 341.354 269.838 341.839 269.952C342.323 270.065 342.749 270.228 343.118 270.441L370.906 286.484C371.274 286.697 371.557 286.943 371.753 287.223C371.95 287.503 372.045 287.794 372.04 288.098C372.034 288.402 371.928 288.695 371.722 288.978C371.515 289.26 371.224 289.509 370.848 289.726L342.481 306.104C342.105 306.321 341.673 306.489 341.184 306.609C340.695 306.728 340.188 306.789 339.661 306.792C339.135 306.795 338.629 306.74 338.145 306.627C337.661 306.513 337.234 306.35 336.866 306.137L309.078 290.094C308.709 289.881 308.427 289.635 308.23 289.355C308.034 289.076 307.938 288.784 307.944 288.48C307.949 288.176 308.055 287.883 308.262 287.601C308.468 287.319 308.759 287.069 309.136 286.852Z" fill="#4B53BC"/>
<path d="M340.779 280.31L335.23 283.513L350.745 292.471L347.209 294.513L331.694 285.555L326.17 288.744L323.16 287.006L337.769 278.572L340.779 280.31Z" fill="white"/>
</g>
<path d="M340.305 175.122C334.044 170.96 323.956 170.96 317.695 175.122C311.435 179.285 311.435 186.049 317.695 190.212C323.956 194.374 334.044 194.374 340.305 190.212C346.565 186.049 346.565 179.285 340.305 175.122Z" fill="#C92222"/>
<path d="M322.667 180.426H328.32C329.519 180.426 330.118 180.426 330.575 180.561C330.978 180.679 331.305 180.868 331.51 181.101C331.743 181.365 331.743 181.711 331.743 182.403L331.743 185.667" stroke="black" stroke-width="2" stroke-linecap="round" stroke-linejoin="round"/>
<path d="M64.6953 191.211C70.9557 195.374 81.0443 195.374 87.3047 191.211C93.5651 187.049 93.5651 180.285 87.3047 176.122C81.0443 171.959 70.9557 171.959 64.6953 176.122C58.4349 180.285 58.4349 187.049 64.6953 191.211Z" fill="#C92222"/>
<path d="M81.3333 184.907H75.6797C74.4815 184.907 73.8824 184.907 73.4248 184.773C73.0222 184.654 72.6949 184.465 72.4898 184.233C72.2567 183.969 72.2567 183.623 72.2567 182.931L72.2567 179.667" stroke="black" stroke-width="2" stroke-linecap="round" stroke-linejoin="round"/>
<path d="M293.305 243.122C287.044 238.96 276.956 238.96 270.695 243.122C264.435 247.285 264.435 254.049 270.695 258.212C276.956 262.374 287.044 262.374 293.305 258.212C299.565 254.049 299.565 247.285 293.305 243.122Z" fill="#C92222"/>
<path d="M275.667 248.426H281.32C282.519 248.426 283.118 248.426 283.575 248.561C283.978 248.679 284.305 248.868 284.51 249.101C284.743 249.365 284.743 249.711 284.743 250.403L284.743 253.667" stroke="black" stroke-width="2" stroke-linecap="round" stroke-linejoin="round"/>
</svg>
