<svg width="484" height="383" viewBox="0 0 484 383" fill="none" xmlns="http://www.w3.org/2000/svg">
<path d="M313.656 142.443L277.508 122.628L251.73 136.994L251 135.72L277.508 121L313.656 140.815L337.828 127.299L338.558 128.502L313.656 142.443Z" fill="#484848"/>
<path d="M393.656 188.443L357.508 168.628L331.73 182.994L331 181.72L357.508 167L393.656 186.815L417.828 173.299L418.558 174.502L393.656 188.443Z" fill="#272727"/>
<path fill-rule="evenodd" clip-rule="evenodd" d="M166.35 319.423L166.012 319.22L1.84644 224.855L2.86022 224.248L203.658 108.568L203.996 108.77L368.162 203.136L367.148 203.743L166.35 319.423ZM4.54987 224.855L166.35 317.871L365.391 203.136L203.658 110.12L4.54987 224.855Z" fill="#272727"/>
<path d="M322.729 350.542L219 289.386L219.885 288L323.534 349.155L322.729 350.542Z" fill="#272727"/>
<path d="M428.729 288.542L325 227.386L325.885 226L429.534 287.156L428.729 288.542Z" fill="#272727"/>
<path d="M257 18.7627V23.766L289.79 42.7072V37.7932L257 18.7627Z" fill="#484848"/>
<path d="M354.833 42.1711L322.043 61.4697L322.133 155.282L354.833 136.698V42.1711Z" fill="#1C1C1C"/>
<path d="M257 23.7661L322.043 61.4698L322.133 155.282L257.089 117.757L257 23.7661Z" fill="#3D3D3D"/>
<path d="M354.922 136.43L322.133 155.282V160.196L354.922 141.166V136.43Z" fill="#484848"/>
<path d="M322.133 155.282V160.196L257.089 122.671V117.757L322.133 155.282Z" fill="#484848"/>
<path d="M322.043 56.4666L354.744 37.436L354.833 42.1713L322.043 61.3805V56.4666Z" fill="#484848"/>
<path d="M289.254 37.5254V42.4394L322.043 61.4699V56.4666L289.254 37.5254Z" fill="#484848"/>
<path d="M322.043 56.8235L257 18.7625L289.611 0L354.744 37.4356L322.043 56.8235Z" fill="#282828"/>
<path d="M296.491 37.6145L299.439 39.4014L321.865 52.7139L344.558 39.3121L347.507 37.5252L321.954 22.9619L296.491 37.6145Z" fill="black"/>
<path d="M299.439 39.4013L321.865 52.7138L344.558 39.312L321.954 26.4463L299.439 39.4013Z" fill="#161616"/>
<path d="M264.505 19.2095L267.453 20.9964L289.968 34.2195L312.573 20.8177L315.61 19.1202L289.968 4.55688L264.505 19.2095Z" fill="black"/>
<path d="M267.453 20.9966L289.968 34.2196L312.573 20.8179L289.968 8.0415L267.453 20.9966Z" fill="#161616"/>
<path d="M305.425 61.7382V76.7482L291.845 68.8859L304.978 76.4802V61.4702L305.425 61.7382Z" fill="black"/>
<path d="M305.425 61.2913V76.3907L291.845 68.4389V53.429L305.425 61.2913Z" fill="black"/>
<path d="M305.068 61.3807L291.845 53.7863V67.9029L291.041 68.3496V53.3396L305.068 61.3807Z" fill="black"/>
<path d="M305.425 75.5867V76.5695L291.219 68.2604L291.845 67.8137L305.425 75.5867Z" fill="black"/>
<path d="M304.979 61.3807L291.845 53.7863V67.9922L291.041 68.3496V53.3396L304.979 61.3807Z" fill="#484848"/>
<path d="M305.425 75.6761V76.6589L291.13 68.2605L291.845 67.9031L305.425 75.6761Z" fill="black"/>
<path d="M298.367 57.4497V71.6555L297.563 72.0129V57.0029L298.367 57.4497Z" fill="#484848"/>
<path d="M297.027 56.2883V71.745L297.563 72.0131V57.0031L297.027 56.2883Z" fill="black"/>
<path fill-rule="evenodd" clip-rule="evenodd" d="M305.425 61.2019V77.284L290.505 68.6175V52.5354L305.425 61.2019ZM304.889 61.5593L291.13 53.6075V68.3495L304.889 76.3012V61.5593Z" fill="#606060"/>
<path d="M305.425 86.3081V101.407L291.845 93.545L304.978 101.139V86.04L305.425 86.3081Z" fill="black"/>
<path d="M305.425 85.9508V101.05L291.845 93.0984V78.0884L305.425 85.9508Z" fill="black"/>
<path d="M305.068 86.0401L291.845 78.4457V92.5623L291.041 93.009V77.999L305.068 86.0401Z" fill="black"/>
<path d="M305.425 100.157V101.229L291.219 92.9199L291.845 92.4731L305.425 100.157Z" fill="black"/>
<path d="M304.979 86.0401L291.845 78.4457V92.5623L291.041 93.009V77.999L304.979 86.0401Z" fill="#484848"/>
<path d="M305.425 100.246V101.318L291.13 92.9199L291.845 92.5625L305.425 100.246Z" fill="black"/>
<path d="M298.367 82.1091V96.315L297.563 96.6723V81.6624L298.367 82.1091Z" fill="#484848"/>
<path d="M297.027 80.9478V96.4045L297.563 96.6725V81.6625L297.027 80.9478Z" fill="black"/>
<path fill-rule="evenodd" clip-rule="evenodd" d="M305.425 85.8615V101.944L290.505 93.2772V77.1951L305.425 85.8615ZM304.889 86.2189L291.13 78.2672V93.0092L304.889 100.961V86.2189Z" fill="#606060"/>
<path d="M305.425 110.968V126.067L291.845 118.115L304.978 125.799V110.699L305.425 110.968Z" fill="black"/>
<path d="M305.425 110.521V125.62L291.845 117.758V102.658L305.425 110.521Z" fill="black"/>
<path d="M305.068 110.699L291.845 103.105V117.132L291.041 117.668V102.569L305.068 110.699Z" fill="black"/>
<path d="M305.425 124.816V125.799L291.219 117.49L291.845 117.132L305.425 124.816Z" fill="black"/>
<path d="M304.979 110.699L291.845 103.016V117.221L291.041 117.668V102.569L304.979 110.699Z" fill="#484848"/>
<path d="M305.425 124.905V125.888L291.13 117.579L291.845 117.132L305.425 124.905Z" fill="black"/>
<path d="M298.367 106.768V120.885L297.563 121.332V106.322L298.367 106.768Z" fill="#484848"/>
<path d="M297.027 105.607V120.974L297.563 121.332V106.322L297.027 105.607Z" fill="black"/>
<path fill-rule="evenodd" clip-rule="evenodd" d="M305.425 110.431V126.514L290.505 117.847V101.854L305.425 110.431ZM304.889 110.699L291.13 102.748V117.49L304.889 125.531V110.699Z" fill="#606060"/>
<path d="M282.195 47.621V62.899L277.103 59.8613V44.5833L282.195 47.621Z" fill="black"/>
<path d="M277.192 45.0305V59.3257L276.299 59.7724V44.4944L277.192 45.0305Z" fill="black"/>
<path d="M282.195 62.1847V63.0782L276.477 59.6831L277.192 59.2363L282.195 62.1847Z" fill="black"/>
<path d="M277.103 45.0305V59.3257L276.299 59.7724V44.4944L277.103 45.0305Z" fill="#484848"/>
<path d="M282.195 62.2736V63.167L276.388 59.6826L277.103 59.3252L282.195 62.2736Z" fill="black"/>
<path fill-rule="evenodd" clip-rule="evenodd" d="M282.91 47.9785V64.15L275.852 60.0401V43.8687L282.91 47.9785ZM282.106 48.0679L276.299 44.6728V59.6828L282.106 62.9885V48.0679Z" fill="#606060"/>
<path d="M282.195 72.2807V87.5587L277.103 84.5209V69.2429L282.195 72.2807Z" fill="black"/>
<path d="M277.192 69.6899V83.9851L276.388 84.4318V69.1538L277.192 69.6899Z" fill="black"/>
<path d="M282.195 86.8441V87.7376L276.477 84.3425L277.192 83.8958L282.195 86.8441Z" fill="black"/>
<path d="M277.103 69.6899V83.9851L276.298 84.4318V69.1538L277.103 69.6899Z" fill="#484848"/>
<path d="M282.195 86.9333V87.8267L276.477 84.3422L277.103 83.9849L282.195 86.9333Z" fill="black"/>
<path fill-rule="evenodd" clip-rule="evenodd" d="M282.999 72.638V88.8094L275.852 84.6996V68.5281L282.999 72.638ZM282.195 72.7273L276.477 69.4215V84.3422L282.195 87.7373V72.7273Z" fill="#606060"/>
<path d="M282.195 96.9398V112.218L277.103 109.18V93.9021L282.195 96.9398Z" fill="black"/>
<path d="M277.192 94.3491V108.555L276.388 109.091V93.813L277.192 94.3491Z" fill="black"/>
<path d="M282.195 111.503V112.397L276.477 109.002L277.192 108.555L282.195 111.503Z" fill="black"/>
<path d="M277.103 94.3491V108.644L276.298 109.091V93.813L277.103 94.3491Z" fill="#484848"/>
<path d="M282.195 111.592V112.486L276.477 109.001L277.103 108.644L282.195 111.592Z" fill="black"/>
<path fill-rule="evenodd" clip-rule="evenodd" d="M282.999 97.2974V113.469L275.852 109.359V93.1875L282.999 97.2974ZM282.195 97.3867L276.477 93.9916V109.002L282.195 112.307V97.3867Z" fill="#606060"/>
<path d="M267.632 108.644L273.976 104.981V110.878L267.632 114.63V108.644Z" fill="#1C1C1C"/>
<path d="M273.976 104.981L272.457 104.088L267.454 106.947L267.632 108.644L273.976 104.981Z" fill="#484848"/>
<path d="M282.106 115.434L287.11 112.575V121.063L282.106 124.011V115.434Z" fill="#1C1C1C"/>
<path d="M282.106 115.434L267.454 106.946V115.523L282.106 124.011V115.434Z" fill="#2D2D2D"/>
<path d="M267.454 106.946L268.883 106.142L283.536 114.63L282.106 115.434L267.454 106.946Z" fill="#484848"/>
<path d="M287.11 112.575L285.591 111.592L280.587 114.541L282.106 115.434L287.11 112.575Z" fill="#484848"/>
<path d="M267.632 84.0745L274.065 80.322V86.2188L267.632 89.9713V84.0745Z" fill="#1C1C1C"/>
<path d="M274.065 80.3219L272.457 79.4285L267.454 82.2875L267.632 84.0744L274.065 80.3219Z" fill="#484848"/>
<path d="M282.196 90.7756L287.11 87.9165L287.199 96.4043L282.196 99.3527V90.7756Z" fill="#1C1C1C"/>
<path d="M282.196 90.7754L267.454 82.2876V90.8647L282.196 99.3525V90.7754Z" fill="#2D2D2D"/>
<path d="M267.454 82.2875L268.883 81.4834L283.536 89.9712L282.196 90.7753L267.454 82.2875Z" fill="#484848"/>
<path d="M287.11 87.9164L285.591 87.0229L280.587 89.882L282.196 90.7755L287.11 87.9164Z" fill="#484848"/>
<path d="M267.632 59.4148L274.065 55.6624V61.5591L267.632 65.3116V59.4148Z" fill="#1C1C1C"/>
<path d="M274.065 55.6625L272.457 54.769L267.453 57.6281L267.632 59.415L274.065 55.6625Z" fill="#484848"/>
<path d="M282.195 66.1159L287.109 63.2568L287.199 71.7446L282.195 74.693V66.1159Z" fill="#1C1C1C"/>
<path d="M282.196 66.1155L267.454 57.6277V66.2048L282.196 74.6926V66.1155Z" fill="#2D2D2D"/>
<path d="M267.454 57.6278L268.883 56.8237L283.536 65.3115L282.196 66.1156L267.454 57.6278Z" fill="#484848"/>
<path d="M287.109 63.2567L285.591 62.3633L280.587 65.2223L282.195 66.1158L287.109 63.2567Z" fill="#484848"/>
<path d="M331.514 65.758V80.8574L345.094 72.9056L331.961 80.5V65.49L331.514 65.758Z" fill="black"/>
<path d="M331.514 65.3113V80.4107L345.094 72.459V57.449L331.514 65.3113Z" fill="black"/>
<path d="M331.871 65.4004L345.094 57.8061V71.9226L345.898 72.3694V57.3594L331.871 65.4004Z" fill="black"/>
<path d="M331.514 79.6068V80.5896L345.72 72.2805L345.094 71.9231L331.514 79.6068Z" fill="black"/>
<path d="M331.961 65.4004L345.094 57.8061V72.012L345.898 72.3694V57.3594L331.961 65.4004Z" fill="#484848"/>
<path d="M331.514 79.6961V80.6789L345.809 72.3698L345.094 71.9231L331.514 79.6961Z" fill="black"/>
<path d="M338.572 61.5588V75.6753L339.376 76.122V61.0227L338.572 61.5588Z" fill="#484848"/>
<path d="M339.912 60.3975V75.7648L339.376 76.1222V61.0229L339.912 60.3975Z" fill="black"/>
<path fill-rule="evenodd" clip-rule="evenodd" d="M346.435 56.645V72.6378L331.514 81.3043V65.2222L346.435 56.645ZM332.05 80.4108L345.809 72.3698V57.6278L332.05 65.5795V80.4108Z" fill="#606060"/>
<path d="M331.514 90.4175V105.517L345.094 97.5651L331.961 105.159V90.1494L331.514 90.4175Z" fill="black"/>
<path d="M331.514 89.9708V105.07L345.094 97.1184V82.1084L331.514 89.9708Z" fill="black"/>
<path d="M331.871 90.0599L345.094 82.4655V96.5821L345.898 97.0288V82.0188L331.871 90.0599Z" fill="black"/>
<path d="M331.514 104.266V105.249L345.72 96.9397L345.094 96.5823L331.514 104.266Z" fill="black"/>
<path d="M331.961 90.0599L345.094 82.4655V96.6714L345.898 97.0288V82.0188L331.961 90.0599Z" fill="#484848"/>
<path d="M331.514 104.355V105.338L345.809 96.9397L345.094 96.5823L331.514 104.355Z" fill="black"/>
<path d="M338.572 86.2182V100.335L339.376 100.781V85.6821L338.572 86.2182Z" fill="#484848"/>
<path d="M339.912 84.9675V100.424L339.376 100.782V85.6823L339.912 84.9675Z" fill="black"/>
<path fill-rule="evenodd" clip-rule="evenodd" d="M346.435 81.2148V97.297L331.514 105.963V89.8813L346.435 81.2148ZM332.05 104.981L345.809 96.9396V82.1976L332.05 90.1494V104.981Z" fill="#606060"/>
<path d="M331.514 114.988V130.087L345.094 122.224L331.961 129.819V114.719L331.514 114.988Z" fill="black"/>
<path d="M331.514 114.63V129.64L345.094 121.778V106.678L331.514 114.63Z" fill="black"/>
<path d="M331.871 114.72L345.094 107.125V121.152L345.898 121.688V106.589L331.871 114.72Z" fill="black"/>
<path d="M331.514 128.836V129.908L345.72 121.599L345.094 121.153L331.514 128.836Z" fill="black"/>
<path d="M331.961 114.72L345.094 107.125V121.242L345.898 121.688V106.589L331.961 114.72Z" fill="#484848"/>
<path d="M331.514 128.926V129.998L345.809 121.599L345.094 121.153L331.514 128.926Z" fill="black"/>
<path d="M338.572 110.789V124.994L339.376 125.352V110.342L338.572 110.789Z" fill="#484848"/>
<path d="M339.912 109.627V125.084L339.376 125.352V110.342L339.912 109.627Z" fill="black"/>
<path fill-rule="evenodd" clip-rule="evenodd" d="M346.435 105.874V121.956L331.514 130.623V114.541L346.435 105.874ZM332.05 129.551L345.809 121.599V106.768L332.05 114.719V129.551Z" fill="#606060"/>
<path d="M367 88.7625V93.7658L399.79 112.707V107.793L367 88.7625Z" fill="#484848"/>
<path d="M464.833 112.171L432.043 131.469L432.133 225.282L464.833 206.698V112.171Z" fill="#1C1C1C"/>
<path d="M367 93.7659L432.043 131.47L432.133 225.282L367.089 187.757L367 93.7659Z" fill="#3D3D3D"/>
<path d="M464.922 206.43L432.133 225.282V230.196L464.922 211.165V206.43Z" fill="#484848"/>
<path d="M432.133 225.282V230.196L367.089 192.671V187.757L432.133 225.282Z" fill="#484848"/>
<path d="M432.043 126.466L464.744 107.436L464.833 112.171L432.043 131.38V126.466Z" fill="#484848"/>
<path d="M399.254 107.525V112.439L432.043 131.469V126.466L399.254 107.525Z" fill="#484848"/>
<path d="M432.043 126.824L367 88.7625L399.611 70L464.744 107.436L432.043 126.824Z" fill="#282828"/>
<path d="M406.491 107.614L409.439 109.401L431.865 122.714L454.558 109.312L457.507 107.525L431.954 92.9617L406.491 107.614Z" fill="black"/>
<path d="M409.439 109.401L431.865 122.713L454.558 109.312L431.954 96.4458L409.439 109.401Z" fill="#161616"/>
<path d="M374.505 89.2093L377.453 90.9962L399.968 104.219L422.573 90.8175L425.61 89.1199L399.968 74.5566L374.505 89.2093Z" fill="black"/>
<path d="M377.453 90.9961L399.968 104.219L422.573 90.8174L399.968 78.041L377.453 90.9961Z" fill="#161616"/>
<path d="M415.425 131.738V146.748L401.845 138.885L414.978 146.479V131.469L415.425 131.738Z" fill="black"/>
<path d="M415.425 131.291V146.39L401.845 138.438V123.428L415.425 131.291Z" fill="black"/>
<path d="M415.068 131.38L401.845 123.786V137.902L401.04 138.349V123.339L415.068 131.38Z" fill="black"/>
<path d="M415.425 145.586V146.569L401.219 138.26L401.845 137.813L415.425 145.586Z" fill="black"/>
<path d="M414.978 131.38L401.845 123.786V137.991L401.04 138.349V123.339L414.978 131.38Z" fill="#484848"/>
<path d="M415.425 145.675V146.658L401.13 138.26L401.845 137.902L415.425 145.675Z" fill="black"/>
<path d="M408.367 127.449V141.655L407.563 142.012V127.002L408.367 127.449Z" fill="#484848"/>
<path d="M407.027 126.288V141.744L407.563 142.012V127.002L407.027 126.288Z" fill="black"/>
<path fill-rule="evenodd" clip-rule="evenodd" d="M415.425 131.201V147.284L400.504 138.617V122.535L415.425 131.201ZM414.889 131.559L401.13 123.607V138.349L414.889 146.301V131.559Z" fill="#606060"/>
<path d="M415.425 156.308V171.407L401.845 163.545L414.978 171.139V156.04L415.425 156.308Z" fill="black"/>
<path d="M415.425 155.95V171.05L401.845 163.098V148.088L415.425 155.95Z" fill="black"/>
<path d="M415.068 156.04L401.845 148.445V162.562L401.04 163.009V147.999L415.068 156.04Z" fill="black"/>
<path d="M415.425 170.156V171.228L401.219 162.919L401.845 162.473L415.425 170.156Z" fill="black"/>
<path d="M414.978 156.04L401.845 148.445V162.562L401.04 163.009V147.999L414.978 156.04Z" fill="#484848"/>
<path d="M415.425 170.246V171.318L401.13 162.919L401.845 162.562L415.425 170.246Z" fill="black"/>
<path d="M408.367 152.108V166.314L407.563 166.672V151.662L408.367 152.108Z" fill="#484848"/>
<path d="M407.027 150.947V166.404L407.563 166.672V151.662L407.027 150.947Z" fill="black"/>
<path fill-rule="evenodd" clip-rule="evenodd" d="M415.425 155.861V171.943L400.504 163.276V147.194L415.425 155.861ZM414.889 156.218L401.13 148.266V163.008L414.889 170.96V156.218Z" fill="#606060"/>
<path d="M415.425 180.967V196.066L401.845 188.114L414.978 195.798V180.698L415.425 180.967Z" fill="black"/>
<path d="M415.425 180.52V195.619L401.845 187.757V172.657L415.425 180.52Z" fill="black"/>
<path d="M415.068 180.698L401.845 173.104V187.131L401.04 187.667V172.568L415.068 180.698Z" fill="black"/>
<path d="M415.425 194.815V195.798L401.219 187.489L401.845 187.131L415.425 194.815Z" fill="black"/>
<path d="M414.978 180.698L401.845 173.015V187.22L401.04 187.667V172.568L414.978 180.698Z" fill="#484848"/>
<path d="M415.425 194.904V195.887L401.13 187.578L401.845 187.131L415.425 194.904Z" fill="black"/>
<path d="M408.367 176.767V190.884L407.563 191.331V176.321L408.367 176.767Z" fill="#484848"/>
<path d="M407.027 175.606V190.973L407.563 191.331V176.321L407.027 175.606Z" fill="black"/>
<path fill-rule="evenodd" clip-rule="evenodd" d="M415.425 180.431V196.513L400.504 187.846V171.854L415.425 180.431ZM414.889 180.699L401.13 172.747V187.489L414.889 195.53V180.699Z" fill="#606060"/>
<path d="M392.195 117.62V132.898L387.103 129.861V114.583L392.195 117.62Z" fill="black"/>
<path d="M387.192 115.03V129.325L386.299 129.772V114.494L387.192 115.03Z" fill="black"/>
<path d="M392.195 132.184V133.077L386.477 129.682L387.192 129.236L392.195 132.184Z" fill="black"/>
<path d="M387.103 115.03V129.325L386.299 129.772V114.494L387.103 115.03Z" fill="#484848"/>
<path d="M392.195 132.273V133.166L386.388 129.682L387.103 129.324L392.195 132.273Z" fill="black"/>
<path fill-rule="evenodd" clip-rule="evenodd" d="M392.91 117.978V134.15L385.852 130.04V113.868L392.91 117.978ZM392.106 118.067L386.299 114.672V129.682L392.106 132.988V118.067Z" fill="#606060"/>
<path d="M392.195 142.28V157.558L387.103 154.52V139.242L392.195 142.28Z" fill="black"/>
<path d="M387.192 139.689V153.984L386.388 154.431V139.153L387.192 139.689Z" fill="black"/>
<path d="M392.195 156.843V157.737L386.477 154.342L387.192 153.895L392.195 156.843Z" fill="black"/>
<path d="M387.103 139.689V153.984L386.299 154.431V139.153L387.103 139.689Z" fill="#484848"/>
<path d="M392.195 156.932V157.826L386.477 154.341L387.103 153.984L392.195 156.932Z" fill="black"/>
<path fill-rule="evenodd" clip-rule="evenodd" d="M392.999 142.637V158.809L385.852 154.699V138.527L392.999 142.637ZM392.195 142.727L386.477 139.421V154.341L392.195 157.737V142.727Z" fill="#606060"/>
<path d="M392.195 166.939V182.217L387.103 179.18V163.902L392.195 166.939Z" fill="black"/>
<path d="M387.192 164.349V178.554L386.388 179.091V163.812L387.192 164.349Z" fill="black"/>
<path d="M392.195 181.503V182.396L386.477 179.001L387.192 178.554L392.195 181.503Z" fill="black"/>
<path d="M387.103 164.349V178.644L386.299 179.091V163.812L387.103 164.349Z" fill="#484848"/>
<path d="M392.195 181.592V182.485L386.477 179.001L387.103 178.644L392.195 181.592Z" fill="black"/>
<path fill-rule="evenodd" clip-rule="evenodd" d="M392.999 167.297V183.468L385.852 179.358V163.187L392.999 167.297ZM392.195 167.386L386.477 163.991V179.001L392.195 182.307V167.386Z" fill="#606060"/>
<path d="M377.632 178.644L383.976 174.981V180.878L377.632 184.63V178.644Z" fill="#1C1C1C"/>
<path d="M383.976 174.981L382.457 174.087L377.453 176.946L377.632 178.644L383.976 174.981Z" fill="#484848"/>
<path d="M392.106 185.434L397.109 182.575V191.063L392.106 194.011V185.434Z" fill="#1C1C1C"/>
<path d="M392.106 185.434L377.453 176.947V185.524L392.106 194.011V185.434Z" fill="#2D2D2D"/>
<path d="M377.453 176.946L378.883 176.142L393.536 184.63L392.106 185.434L377.453 176.946Z" fill="#484848"/>
<path d="M397.109 182.575L395.59 181.592L390.587 184.541L392.106 185.434L397.109 182.575Z" fill="#484848"/>
<path d="M377.632 154.074L384.065 150.322V156.218L377.632 159.971V154.074Z" fill="#1C1C1C"/>
<path d="M384.065 150.322L382.457 149.428L377.453 152.287L377.632 154.074L384.065 150.322Z" fill="#484848"/>
<path d="M392.195 160.775L397.109 157.916L397.199 166.404L392.195 169.352V160.775Z" fill="#1C1C1C"/>
<path d="M392.195 160.775L377.453 152.287V160.864L392.195 169.352V160.775Z" fill="#2D2D2D"/>
<path d="M377.453 152.287L378.883 151.483L393.536 159.971L392.195 160.775L377.453 152.287Z" fill="#484848"/>
<path d="M397.109 157.916L395.59 157.022L390.587 159.882L392.195 160.775L397.109 157.916Z" fill="#484848"/>
<path d="M377.632 129.415L384.065 125.662V131.559L377.632 135.311V129.415Z" fill="#1C1C1C"/>
<path d="M384.065 125.662L382.457 124.769L377.453 127.628L377.632 129.415L384.065 125.662Z" fill="#484848"/>
<path d="M392.195 136.116L397.109 133.257L397.199 141.744L392.195 144.693V136.116Z" fill="#1C1C1C"/>
<path d="M392.195 136.115L377.453 127.627V136.204L392.195 144.692V136.115Z" fill="#2D2D2D"/>
<path d="M377.453 127.628L378.883 126.823L393.536 135.311L392.195 136.115L377.453 127.628Z" fill="#484848"/>
<path d="M397.109 133.256L395.59 132.363L390.587 135.222L392.195 136.116L397.109 133.256Z" fill="#484848"/>
<path d="M441.514 135.758V150.857L455.094 142.905L441.961 150.499V135.49L441.514 135.758Z" fill="black"/>
<path d="M441.514 135.311V150.41L455.094 142.458V127.448L441.514 135.311Z" fill="black"/>
<path d="M441.871 135.4L455.094 127.806V141.922L455.898 142.369V127.359L441.871 135.4Z" fill="black"/>
<path d="M441.514 149.606V150.589L455.72 142.28L455.094 141.923L441.514 149.606Z" fill="black"/>
<path d="M441.961 135.4L455.094 127.806V142.011L455.898 142.369V127.359L441.961 135.4Z" fill="#484848"/>
<path d="M441.514 149.696V150.678L455.809 142.369L455.094 141.923L441.514 149.696Z" fill="black"/>
<path d="M448.572 131.558V145.675L449.376 146.122V131.022L448.572 131.558Z" fill="#484848"/>
<path d="M449.912 130.397V145.764L449.376 146.122V131.022L449.912 130.397Z" fill="black"/>
<path fill-rule="evenodd" clip-rule="evenodd" d="M456.435 126.644V142.637L441.514 151.304V135.221L456.435 126.644ZM442.05 150.41L455.809 142.369V127.627L442.05 135.579V150.41Z" fill="#606060"/>
<path d="M441.514 160.417V175.517L455.094 167.565L441.961 175.159V160.149L441.514 160.417Z" fill="black"/>
<path d="M441.514 159.97V175.07L455.094 167.118V152.108L441.514 159.97Z" fill="black"/>
<path d="M441.871 160.06L455.094 152.465V166.582L455.898 167.029V152.019L441.871 160.06Z" fill="black"/>
<path d="M441.514 174.266V175.249L455.72 166.939L455.094 166.582L441.514 174.266Z" fill="black"/>
<path d="M441.961 160.06L455.094 152.465V166.671L455.898 167.029V152.019L441.961 160.06Z" fill="#484848"/>
<path d="M441.514 174.355V175.338L455.809 166.939L455.094 166.582L441.514 174.355Z" fill="black"/>
<path d="M448.572 156.218V170.334L449.376 170.781V155.682L448.572 156.218Z" fill="#484848"/>
<path d="M449.912 154.967V170.424L449.376 170.781V155.682L449.912 154.967Z" fill="black"/>
<path fill-rule="evenodd" clip-rule="evenodd" d="M456.435 151.214V167.296L441.514 175.963V159.881L456.435 151.214ZM442.05 174.98L455.809 166.939V152.197L442.05 160.149V174.98Z" fill="#606060"/>
<path d="M441.514 184.987V200.086L455.094 192.224L441.961 199.818V184.719L441.514 184.987Z" fill="black"/>
<path d="M441.514 184.629V199.639L455.094 191.777V176.678L441.514 184.629Z" fill="black"/>
<path d="M441.871 184.719L455.094 177.124V191.152L455.898 191.688V176.588L441.871 184.719Z" fill="black"/>
<path d="M441.514 198.836V199.908L455.72 191.599L455.094 191.152L441.514 198.836Z" fill="black"/>
<path d="M441.961 184.719L455.094 177.124V191.241L455.898 191.688V176.588L441.961 184.719Z" fill="#484848"/>
<path d="M441.514 198.925V199.997L455.809 191.599L455.094 191.152L441.514 198.925Z" fill="black"/>
<path d="M448.572 180.788V194.993L449.376 195.351V180.341L448.572 180.788Z" fill="#484848"/>
<path d="M449.912 179.626V195.083L449.376 195.351V180.341L449.912 179.626Z" fill="black"/>
<path fill-rule="evenodd" clip-rule="evenodd" d="M456.435 175.874V191.956L441.514 200.622V184.54L456.435 175.874ZM442.05 199.55L455.809 191.599V176.767L442.05 184.719V199.55Z" fill="#606060"/>
<path d="M207.192 265.475H184.965L178.179 246.84L197.073 239.456L215.498 247.015L207.192 265.475Z" fill="black"/>
<path d="M263.404 232.951L207.192 265.474V249.242L230.648 227.032L263.404 216.719V232.951Z" fill="black"/>
<path d="M263.404 216.719V203.827L217.311 177.164H195.084L138.872 209.687V222.579L184.965 249.243H207.192L263.404 216.719Z" fill="black"/>
<path d="M184.965 265.476L138.872 238.812V222.58L184.965 249.243V265.476Z" fill="black"/>
<path d="M207.309 261.725H184.438L177.477 211.973L196.897 204.296L215.908 212.09L207.309 261.725Z" fill="#313131"/>
<path d="M265.159 228.264L207.309 261.725V214.376L231.467 191.522L265.159 180.915V228.264Z" fill="#1C1C1C"/>
<path d="M265.159 180.915V167.73L217.721 140.246H194.908L137 173.707V186.951L184.438 214.376H207.309L265.159 180.915Z" fill="#272727"/>
<path d="M184.438 261.724L137 234.299V186.95L184.438 214.375V261.724Z" fill="#3D3D3D"/>
<path d="M207.192 212.794H184.965L178.179 194.218L197.073 186.776L215.498 194.335L207.192 212.794Z" fill="#313131"/>
<path d="M263.404 180.329L207.192 212.794V196.562L230.648 174.352L263.404 164.038V180.329Z" fill="#1C1C1C"/>
<path d="M263.404 164.038V151.204L217.311 124.541H195.084L138.872 157.065V169.898L184.965 196.561H207.192L263.404 164.038Z" fill="#272727"/>
<path d="M184.965 212.794L138.872 186.189V169.898L184.965 196.562V212.794Z" fill="#3D3D3D"/>
<path d="M184.965 212.794L167.943 202.949V195.273L184.965 205.118V212.794Z" fill="#C92222"/>
<path opacity="0.3" d="M211.345 190.936L179.817 191.874L138.872 168.199V184.431L184.965 211.095H207.192L263.404 178.571V162.339L211.345 190.936Z" fill="black"/>
<path d="M207.309 207.988H184.438L177.478 177.515L196.897 169.897L215.908 177.691L207.309 207.988Z" fill="#313131"/>
<path d="M265.159 174.527L207.309 207.988V179.977L231.467 157.123L265.159 146.516V174.527Z" fill="#1C1C1C"/>
<path d="M265.159 146.516V133.272L217.721 105.847H194.908L137 139.308V152.493L184.438 179.977H207.309L265.159 146.516Z" fill="#272727"/>
<path d="M184.438 207.988L137 180.621V152.493L184.438 179.977V207.988Z" fill="#3D3D3D"/>
<path d="M207.192 178.396H184.965L178.179 159.761L197.073 152.318L215.498 159.936L207.192 178.396Z" fill="#313131"/>
<path d="M263.404 145.871L207.192 178.394V162.103L230.648 139.894L263.404 129.639V145.871Z" fill="#1C1C1C"/>
<path d="M263.404 129.639V116.747L217.311 90.084H195.084L138.872 122.607V135.441L184.965 162.104H207.192L263.404 129.639Z" fill="#272727"/>
<path d="M184.965 178.396L138.872 151.732V135.441L184.965 162.105V178.396Z" fill="#3D3D3D"/>
<path d="M184.965 178.396L167.943 168.551V160.815L184.965 170.66V178.396Z" fill="#C92222"/>
<path opacity="0.3" d="M211.345 156.479L179.817 157.416L138.872 133.742V150.033L184.965 176.637H207.192L263.404 144.114V127.882L211.345 156.479Z" fill="black"/>
<path d="M207.309 173.765H184.438L177.478 143.293L196.897 135.616L215.908 143.41L207.309 173.765Z" fill="#313131"/>
<path d="M265.159 140.305L207.309 173.766V145.696L231.467 122.842L265.159 112.236V140.305Z" fill="#1C1C1C"/>
<path d="M265.159 112.235V98.9917L217.721 71.5667H194.908L137 105.028V118.271L184.438 145.696H207.309L265.159 112.235Z" fill="#272727"/>
<path d="M184.438 173.766L137 146.341V118.272L184.438 145.697V173.766Z" fill="#3D3D3D"/>
<path d="M207.192 144.114H184.965L178.179 125.537L197.073 118.095L215.498 125.654L207.192 144.114Z" fill="#313131"/>
<path d="M263.404 111.59L207.192 144.113V127.881L230.648 105.671L263.404 95.3577V111.59Z" fill="#1C1C1C"/>
<path d="M263.404 95.3573V82.4652L217.311 55.8606H195.084L138.872 88.3839V101.217L184.965 127.881H207.192L263.404 95.3573Z" fill="#272727"/>
<path d="M184.965 144.114L138.872 117.509V101.218L184.965 127.881V144.114Z" fill="#3D3D3D"/>
<path d="M184.965 144.113L167.943 134.268V126.591L184.965 136.436V144.113Z" fill="#C92222"/>
<path opacity="0.3" d="M211.345 122.255L179.817 123.193L138.872 99.5185V115.751L184.965 142.414H207.192L263.404 109.891V93.6584L211.345 122.255Z" fill="black"/>
<path d="M207.309 139.66H184.438L177.477 109.129L196.897 101.511L215.908 109.305L207.309 139.66Z" fill="#313131"/>
<path d="M265.159 106.141L207.309 139.66V111.532L231.467 88.7366L265.159 78.0713V106.141Z" fill="#1C1C1C"/>
<path d="M265.159 78.0711V64.8859L217.721 37.4609H194.909L137 70.9218V84.1069L184.438 111.532H207.309L265.159 78.0711Z" fill="#272727"/>
<path d="M184.438 139.66L137 112.176V84.1064L184.438 111.531V139.66Z" fill="#3D3D3D"/>
<path d="M207.192 109.599H184.965L178.179 104.677L197.073 97.2344L214.211 104.266L207.192 109.599Z" fill="#313131"/>
<path d="M263.404 77.0755L207.192 109.599V107.02L230.648 84.8108L263.404 74.4971V77.0755Z" fill="#1C1C1C"/>
<path d="M263.404 74.4967V61.6632L217.311 35H195.084L138.872 67.5233V80.3568L184.965 107.02H207.192L263.404 74.4967Z" fill="#272727"/>
<path fill-rule="evenodd" clip-rule="evenodd" d="M180.097 60.6165C181.659 60.5992 182.891 61.3103 182.861 62.2123L182.335 78.9242L195.644 71.2404C196.755 70.5986 198.558 70.5813 199.624 71.197L200.135 71.4919C200.526 69.4972 202.058 67.5372 204.732 65.9935C210.86 62.4551 220.669 62.3597 226.587 65.7767C232.461 69.1676 232.326 74.7961 226.287 78.3345L226.107 78.4385C219.978 81.9249 210.244 81.9943 204.371 78.6033L197.536 74.6573L181.374 83.989C180.547 84.4659 179.346 84.622 178.309 84.3705C177.964 84.2925 177.663 84.1884 177.408 84.041L177.378 84.0236C176.897 83.7288 176.597 83.3298 176.627 82.8962L177.243 62.2643C177.258 61.822 177.573 61.4317 178.054 61.1369L178.144 61.0848C178.655 60.8073 179.346 60.6165 180.097 60.6165ZM222.547 68.1096C218.776 65.9328 212.543 65.9935 208.637 68.2483C204.747 70.4945 204.641 74.0936 208.412 76.2704C212.167 78.4385 218.401 78.3778 222.291 76.1317C226.197 73.8768 226.302 70.2777 222.547 68.1096ZM205.678 57.4684C207.24 57.4511 208.472 58.1622 208.427 59.0555C208.427 59.5064 208.096 59.9054 207.571 60.2089C207.06 60.5038 206.354 60.7033 205.573 60.7032C202.959 60.7379 200.466 61.345 198.573 62.4378C196.695 63.5218 195.629 64.9701 195.584 66.4705C195.569 66.9301 195.238 67.3291 194.712 67.6326C194.202 67.9275 193.511 68.1182 192.715 68.1269C191.182 68.1443 189.951 67.4331 189.966 66.5399C190.041 64.1549 191.723 61.9001 194.682 60.1916C197.657 58.4744 201.562 57.5031 205.678 57.4684Z" fill="#757575"/>
<path d="M184.965 109.599L138.872 82.9358V80.3574L184.965 107.021V109.599Z" fill="#3D3D3D"/>
<path d="M365.787 363.984H336.906L328.116 325.503L352.639 315.883L376.646 325.725L365.787 363.984Z" fill="#313131"/>
<path d="M438.841 321.73L365.787 363.985V328.612L396.294 299.752L438.841 286.357V321.73Z" fill="#1C1C1C"/>
<path d="M438.841 286.357V269.633L378.935 235H350.128L277 277.255V293.905L336.906 328.612H365.787L438.841 286.357Z" fill="#272727"/>
<path d="M336.906 363.984L277 329.425V293.905L336.906 328.611V363.984Z" fill="#3D3D3D"/>
<mask id="mask0_1230_114446" style="mask-type:luminance" maskUnits="userSpaceOnUse" x="280" y="234" width="155" height="89">
<path d="M280 278.921L357.806 234L434.024 278.005L356.218 322.926L280 278.921Z" fill="white"/>
</mask>
<g mask="url(#mask0_1230_114446)">
<path d="M379.329 277.309L363.458 268.146C363.061 267.918 362.866 267.64 362.872 267.313C362.878 266.986 363.083 266.706 363.487 266.473L379.892 257.002C380.263 256.787 380.69 256.621 381.172 256.504C381.653 256.386 382.154 256.326 382.674 256.323C383.193 256.32 383.692 256.374 384.169 256.486C384.647 256.598 385.068 256.759 385.431 256.969L399.996 265.377C400.658 265.76 401.248 266.176 401.766 266.628C402.283 267.079 402.718 267.555 403.072 268.058C403.425 268.561 403.689 269.079 403.864 269.614C404.039 270.149 404.121 270.689 404.112 271.236C404.102 271.782 404 272.324 403.806 272.861C403.612 273.397 403.329 273.919 402.958 274.426C402.587 274.933 402.134 275.415 401.6 275.873C401.067 276.33 400.462 276.754 399.786 277.144L399.709 277.188C399.033 277.578 398.299 277.928 397.507 278.236C396.715 278.544 395.88 278.805 395.002 279.02C394.124 279.234 393.22 279.397 392.29 279.509C391.36 279.621 390.422 279.68 389.475 279.686C388.529 279.691 387.593 279.644 386.667 279.543C385.741 279.442 384.842 279.289 383.972 279.085C383.101 278.881 382.275 278.63 381.494 278.331C380.713 278.032 379.991 277.692 379.329 277.309Z" fill="#5059C9"/>
<path d="M368.921 251.648C369.351 251.896 369.734 252.167 370.07 252.46C370.406 252.753 370.689 253.063 370.918 253.389C371.148 253.715 371.319 254.052 371.433 254.4C371.546 254.747 371.6 255.098 371.594 255.453C371.587 255.807 371.521 256.159 371.395 256.508C371.269 256.857 371.085 257.196 370.844 257.525C370.603 257.854 370.31 258.167 369.963 258.464C369.616 258.761 369.223 259.037 368.784 259.29C368.345 259.543 367.868 259.77 367.354 259.97C366.839 260.171 366.297 260.34 365.727 260.479C365.157 260.619 364.57 260.725 363.966 260.797C363.362 260.87 362.752 260.908 362.138 260.912C361.523 260.916 360.915 260.885 360.314 260.819C359.712 260.754 359.129 260.655 358.563 260.522C357.998 260.39 357.462 260.226 356.954 260.032C356.447 259.838 355.978 259.617 355.548 259.369C355.118 259.12 354.735 258.85 354.398 258.557C354.062 258.264 353.78 257.954 353.55 257.628C353.321 257.301 353.149 256.965 353.036 256.617C352.922 256.27 352.868 255.919 352.875 255.564C352.881 255.209 352.947 254.858 353.073 254.509C353.199 254.16 353.383 253.821 353.624 253.492C353.865 253.163 354.159 252.85 354.506 252.553C354.852 252.255 355.245 251.98 355.684 251.727C356.123 251.473 356.6 251.246 357.115 251.046C357.629 250.846 358.171 250.676 358.742 250.537C359.312 250.398 359.899 250.292 360.503 250.219C361.107 250.147 361.716 250.108 362.331 250.105C362.945 250.101 363.553 250.132 364.155 250.198C364.756 250.263 365.34 250.362 365.905 250.495C366.47 250.627 367.007 250.79 367.514 250.984C368.022 251.178 368.491 251.4 368.921 251.648Z" fill="#5059C9"/>
<path d="M399.705 278.046C399.56 278.123 399.41 278.2 399.253 278.278C399.406 278.203 399.556 278.126 399.705 278.046Z" fill="#5059C9"/>
<path d="M347.708 260.457C348.333 260.818 348.891 261.212 349.38 261.638C349.869 262.064 350.28 262.515 350.613 262.989C350.947 263.464 351.197 263.954 351.362 264.459C351.527 264.964 351.605 265.475 351.596 265.991C351.587 266.507 351.491 267.019 351.307 267.526C351.124 268.033 350.857 268.526 350.506 269.005C350.155 269.484 349.728 269.94 349.224 270.372C348.719 270.804 348.148 271.204 347.509 271.573C346.871 271.941 346.177 272.271 345.429 272.563C344.681 272.854 343.892 273.1 343.062 273.303C342.233 273.505 341.379 273.659 340.5 273.765C339.622 273.871 338.736 273.927 337.842 273.932C336.948 273.938 336.063 273.892 335.189 273.797C334.314 273.701 333.465 273.557 332.643 273.365C331.82 273.172 331.04 272.935 330.302 272.653C329.564 272.37 328.882 272.049 328.256 271.687C327.631 271.326 327.074 270.932 326.585 270.506C326.096 270.08 325.684 269.63 325.351 269.155C325.017 268.68 324.768 268.19 324.602 267.685C324.437 267.18 324.359 266.669 324.368 266.153C324.377 265.637 324.474 265.125 324.657 264.618C324.841 264.111 325.108 263.618 325.458 263.139C325.809 262.66 326.236 262.205 326.741 261.773C327.245 261.341 327.816 260.94 328.455 260.572C329.093 260.203 329.787 259.873 330.535 259.582C331.284 259.291 332.073 259.044 332.902 258.841C333.731 258.639 334.585 258.485 335.464 258.379C336.342 258.273 337.229 258.217 338.122 258.212C339.016 258.207 339.901 258.252 340.776 258.347C341.651 258.443 342.499 258.587 343.322 258.779C344.144 258.972 344.924 259.209 345.662 259.492C346.4 259.774 347.082 260.096 347.708 260.457Z" fill="#7B83EB"/>
<path d="M366.481 264.745L338.114 281.123C337.738 281.337 337.446 281.585 337.238 281.865C337.03 282.144 336.922 282.436 336.914 282.738C336.905 283.04 336.998 283.331 337.19 283.61C337.383 283.888 337.662 284.134 338.026 284.347L354.515 293.867C355.615 294.488 356.81 295.04 358.101 295.523C359.392 296.006 360.755 296.412 362.189 296.74C363.623 297.067 365.101 297.311 366.623 297.471C368.146 297.631 369.684 297.704 371.237 297.689C372.791 297.675 374.33 297.574 375.856 297.387C377.381 297.199 378.864 296.928 380.303 296.574C381.743 296.22 383.113 295.79 384.412 295.283C385.711 294.776 386.916 294.202 388.025 293.561C389.135 292.92 390.129 292.225 391.007 291.475C391.885 290.725 392.631 289.934 393.244 289.103C393.857 288.272 394.326 287.416 394.651 286.535C394.976 285.654 395.151 284.765 395.176 283.869C395.2 282.972 395.074 282.084 394.797 281.205C394.521 280.326 394.098 279.472 393.531 278.644C392.963 277.816 392.261 277.03 391.423 276.284C390.586 275.539 389.63 274.849 388.556 274.214L372.066 264.694C371.698 264.484 371.272 264.323 370.789 264.211C370.306 264.1 369.803 264.047 369.279 264.052C368.755 264.057 368.251 264.119 367.766 264.239C367.282 264.359 366.853 264.528 366.481 264.745Z" fill="#7B83EB"/>
<path d="M343.114 270.439L346.222 272.233C345.257 272.667 344.212 273.022 343.089 273.297C341.966 273.572 340.803 273.759 339.6 273.856C338.398 273.954 337.197 273.959 335.998 273.872C334.8 273.785 333.645 273.608 332.534 273.343L337.506 270.472C337.882 270.255 338.313 270.086 338.801 269.967C339.289 269.848 339.796 269.786 340.322 269.783C340.848 269.78 341.353 269.835 341.837 269.949C342.321 270.063 342.746 270.226 343.114 270.439Z" fill="black" fill-opacity="0.098"/>
<path d="M309.136 286.852L337.502 270.474C337.879 270.257 338.311 270.089 338.8 269.97C339.288 269.851 339.796 269.789 340.322 269.786C340.849 269.783 341.354 269.838 341.839 269.952C342.323 270.065 342.749 270.228 343.118 270.441L370.906 286.484C371.274 286.697 371.557 286.943 371.753 287.223C371.95 287.503 372.045 287.794 372.04 288.098C372.034 288.402 371.928 288.695 371.722 288.978C371.515 289.26 371.224 289.509 370.848 289.726L342.481 306.104C342.105 306.321 341.673 306.489 341.184 306.609C340.695 306.728 340.188 306.789 339.661 306.792C339.135 306.795 338.629 306.74 338.145 306.627C337.661 306.513 337.234 306.35 336.866 306.137L309.078 290.094C308.709 289.881 308.427 289.635 308.23 289.355C308.034 289.076 307.938 288.784 307.944 288.48C307.949 288.176 308.055 287.883 308.262 287.601C308.468 287.319 308.76 287.069 309.136 286.852Z" fill="#4B53BC"/>
<path d="M340.779 280.31L335.23 283.513L350.745 292.471L347.209 294.513L331.694 285.555L326.17 288.744L323.16 287.006L337.769 278.572L340.779 280.31Z" fill="white"/>
</g>
<path d="M11 215.6L11.1 319.2L51 342.3V239.2L11 215.6Z" fill="#3D3D3D"/>
<path d="M9 218.9V320.3L21.6 327.6V226.1L9 218.9Z" fill="#3D3D3D"/>
<path d="M21.6 327.6L23.6 326.5V225L21.6 226.1V327.6Z" fill="#2B2B2B"/>
<path d="M98.5 371.9L141 347.2V246.4L98.5 269.3V371.9Z" fill="#1C1C1C"/>
<path d="M36.4 234.7V336.1L98.5 371.5V270.3L36.4 234.7Z" fill="#3D3D3D"/>
<path d="M98.5 274.1V372.4L108.9 366.4V268L98.5 274.1Z" fill="#1C1C1C"/>
<path d="M23.6 326.5L21.6 327.6V322.9L23.6 321.7V326.5Z" fill="#2B2B2B"/>
<path d="M123.9 357.5L108.9 366V361.3L123.9 352.7V357.5Z" fill="#282828"/>
<path d="M123.9 357.5L128 359.9V355.1L123.9 352.7V357.5Z" fill="#2B2B2B"/>
<path d="M153.6 340V345.2L128 359.9V355.1L153.6 340Z" fill="#484848"/>
<path d="M23.6 326.5L36.4 334V329.2L23.6 321.7V326.5Z" fill="#282828"/>
<path d="M9 320.3L21.6 327.6V322.9L9 315.6V320.3Z" fill="#1A1A1A"/>
<path d="M98.5 375.3L108.9 369.3V364.5L98.5 370.5V375.3Z" fill="#484848"/>
<path d="M36.4 334.7V339.4L98.5 375.3V370.5L36.4 334.7Z" fill="#1A1A1A"/>
<path d="M123.9 256.3L108.9 264.8V263.3L106 261.7L123.9 251.5V256.3Z" fill="#282828"/>
<path d="M123.9 256.3L128 258.7V253.8L123.9 251.5V256.3Z" fill="#2B2B2B"/>
<path d="M153.6 239.1V243.9L128 258.7V253.8L153.6 239.1Z" fill="#484848"/>
<path d="M9 219.1L21.6 226.4L21.7 221.6L9 214.3V219.1Z" fill="#1A1A1A"/>
<path d="M98.5 274.1L108.9 268V263.3L98.5 269.3V274.1Z" fill="#484848"/>
<path d="M36.4 233.4V238.2L98.5 274.1V269.3L36.4 233.4Z" fill="#1A1A1A"/>
<path d="M23.6 225.2L41.3 235.6V230.8L23.6 220.5V225.2Z" fill="#282828"/>
<path d="M23.6 225.2L21.6 226.4V221.7L23.6 220.5V225.2Z" fill="#2B2B2B"/>
<path d="M98.5 269.3L36.5 233.4L41.3 230.8L23.6 220.5L21.6 221.7L9 214.3L59.8 185L153.6 239.1L128.1 253.8L124 251.5L106.1 261.7L108.9 263.3L98.5 269.3Z" fill="#282828"/>
<path d="M153.6 243.9V340L128 355.1V258.7L153.6 243.9Z" fill="#1C1C1C"/>
<path d="M32.2 247.2V259.6L28.1 257.2V244.8L32.2 247.2Z" fill="#1C1C1C"/>
<path d="M28.1 245.1V256.7L27.5 257.1V244.7L28.1 245.1Z" fill="#6D6E71"/>
<path d="M32.2 259V259.7L27.6 257L28.1 256.7L32.2 259Z" fill="#6D6E71"/>
<path d="M28.1 245.1V256.7L27.4 257.1V244.7L28.1 245.1Z" fill="#555555"/>
<path d="M32.2 259.1V259.8L27.5 257L28.1 256.7L32.2 259.1Z" fill="#282828"/>
<path fill-rule="evenodd" clip-rule="evenodd" d="M32.8 247.3V260.6L27 257.3V244L32.8 247.3ZM32.3 247.6L27.6 244.9V257L32.3 259.7V247.6Z" fill="#58595B"/>
<path d="M32.2 271.6V284L28.1 281.5V269.1L32.2 271.6Z" fill="#1C1C1C"/>
<path d="M28.1 269.4V281L27.5 281.4V269L28.1 269.4Z" fill="#6D6E71"/>
<path d="M32.2 283.4V284.1L27.6 281.3L28.1 281L32.2 283.4Z" fill="#6D6E71"/>
<path d="M28.1 269.4V281.1L27.4 281.4V269L28.1 269.4Z" fill="#555555"/>
<path d="M32.2 283.4V284.1L27.5 281.3L28.1 281L32.2 283.4Z" fill="#282828"/>
<path fill-rule="evenodd" clip-rule="evenodd" d="M32.8 271.7V285L27 281.7V268.4L32.8 271.7ZM32.3 271.9L27.6 269.3V281.4L32.3 284.1V271.9Z" fill="#58595B"/>
<path d="M32.2 296V308.4L28.1 305.9V293.6L32.2 296Z" fill="#1C1C1C"/>
<path d="M28.1 293.9V305.5L27.5 305.9V293.5L28.1 293.9Z" fill="#6D6E71"/>
<path d="M32.2 307.8V308.5L27.6 305.8L28.1 305.5L32.2 307.8Z" fill="#6D6E71"/>
<path d="M28.1 293.9V305.5L27.4 305.9V293.5L28.1 293.9Z" fill="#555555"/>
<path d="M32.2 307.9V308.6L27.5 305.8L28.1 305.5L32.2 307.9Z" fill="#282828"/>
<path fill-rule="evenodd" clip-rule="evenodd" d="M32.8 296.2V309.4L27 306.1V292.9L32.8 296.2ZM32.3 296.4L27.6 293.7V305.9L32.3 308.6V296.4Z" fill="#58595B"/>
<path d="M134.2 263.7V277.4L146.6 270.2L134.6 277.2V263.4L134.2 263.7Z" fill="#1C1C1C"/>
<path d="M134.2 263.3V277L146.6 269.8V256.1L134.2 263.3Z" fill="black"/>
<path d="M134.6 263.4L146.6 256.5V269.3L147.3 269.7V256L134.6 263.4Z" fill="#6D6E71"/>
<path d="M134.2 276.3V277.2L147.2 269.7L146.6 269.3L134.2 276.3Z" fill="#6D6E71"/>
<path d="M134.6 263.4L146.6 256.5V269.4L147.4 269.7V256L134.6 263.4Z" fill="#3D3D3D"/>
<path d="M134.2 276.4V277.3L147.3 269.7L146.6 269.3L134.2 276.4Z" fill="#282828"/>
<path d="M140.6 259.8V272.7L141.4 273.1V259.4L140.6 259.8Z" fill="#3D3D3D"/>
<path d="M141.9 258.8V272.8L141.4 273.1V259.4L141.9 258.8Z" fill="#555555"/>
<path fill-rule="evenodd" clip-rule="evenodd" d="M147.8 255.3V270L134.2 277.9V263.2L147.8 255.3ZM134.7 277L147.3 269.6V256.2L134.7 263.4V277Z" fill="#58595B"/>
<path d="M114.3 274.7V288.3L118.8 285.6V272L114.3 274.7Z" fill="black"/>
<path d="M118.8 272.4V285.1L119.5 285.5V272L118.8 272.4Z" fill="#6D6E71"/>
<path d="M114.3 287.7V288.4L119.4 285.4L118.8 285.1L114.3 287.7Z" fill="#6D6E71"/>
<path d="M118.8 272.4V285.2L119.6 285.5V272L118.8 272.4Z" fill="#3D3D3D"/>
<path d="M114.3 287.7V288.5L119.5 285.5L118.8 285.1L114.3 287.7Z" fill="#282828"/>
<path fill-rule="evenodd" clip-rule="evenodd" d="M120 271.3V285.8L113.7 289.4V274.8L120 271.3ZM114.3 288.5L119.5 285.5V272.2L114.3 275.1V288.5Z" fill="#58595B"/>
<path d="M133.9 289.8V303.6L146.4 296.3L134.4 303.3V289.5L133.9 289.8Z" fill="#1C1C1C"/>
<path d="M133.9 289.4V303.2L146.4 295.9V282.2L133.9 289.4Z" fill="black"/>
<path d="M134.3 289.5L146.3 282.6V295.4L147.1 295.9V282.2L134.3 289.5Z" fill="#6D6E71"/>
<path d="M133.9 302.4V303.3L146.9 295.8L146.3 295.4L133.9 302.4Z" fill="#6D6E71"/>
<path d="M134.4 289.5L146.4 282.6V295.5L147.1 295.9V282.1L134.4 289.5Z" fill="#3D3D3D"/>
<path d="M133.9 302.5V303.4L147 295.8L146.3 295.4L133.9 302.5Z" fill="#282828"/>
<path d="M140.4 286V298.9L141.1 299.2V285.5L140.4 286Z" fill="#3D3D3D"/>
<path d="M141.6 284.9V299L141.1 299.2V285.5L141.6 284.9Z" fill="#555555"/>
<path fill-rule="evenodd" clip-rule="evenodd" d="M147.5 281.5V296.1L133.9 304V289.3L147.5 281.5ZM134.5 303.2L147 295.9V282.4L134.5 289.7V303.2Z" fill="#58595B"/>
<path d="M114 300.8V314.4L118.5 311.7V298.2L114 300.8Z" fill="black"/>
<path d="M118.5 298.5V311.2L119.2 311.6V298.1L118.5 298.5Z" fill="#6D6E71"/>
<path d="M114 313.8V314.6L119.1 311.6L118.5 311.2L114 313.8Z" fill="#6D6E71"/>
<path d="M118.5 298.5V311.3L119.3 311.6V298.1L118.5 298.5Z" fill="#3D3D3D"/>
<path d="M114 313.8V314.6L119.2 311.6L118.5 311.2L114 313.8Z" fill="#282828"/>
<path fill-rule="evenodd" clip-rule="evenodd" d="M119.7 297.4V311.9L113.4 315.5V301L119.7 297.4ZM114 314.5L119.2 311.5V298.2L114 301.2V314.5Z" fill="#58595B"/>
<path d="M133.9 315.6V329.4L146.4 322.2L134.4 329.1V315.4L133.9 315.6Z" fill="#1C1C1C"/>
<path d="M133.9 315.3V329L146.4 321.8V308.1L133.9 315.3Z" fill="black"/>
<path d="M134.3 315.4L146.3 308.4V321.3L147.1 321.7V308L134.3 315.4Z" fill="#6D6E71"/>
<path d="M133.9 328.3V329.2L146.9 321.6L146.3 321.3L133.9 328.3Z" fill="#6D6E71"/>
<path d="M134.4 315.4L146.4 308.4V321.3L147.1 321.7V308L134.4 315.4Z" fill="#3D3D3D"/>
<path d="M133.9 328.4V329.3L147 321.7L146.4 321.3L133.9 328.4Z" fill="#282828"/>
<path d="M140.4 311.8V324.7L141.1 325.1V311.4L140.4 311.8Z" fill="#3D3D3D"/>
<path d="M141.6 310.7V324.8L141.1 325.1V311.4L141.6 310.7Z" fill="#555555"/>
<path fill-rule="evenodd" clip-rule="evenodd" d="M147.5 307.3V322L133.9 329.9V315.2L147.5 307.3ZM134.5 328.9L147 321.6V308.2L134.5 315.4V328.9Z" fill="#58595B"/>
<path d="M114 326.7V340.3L118.5 337.6V324L114 326.7Z" fill="black"/>
<path d="M118.5 324.4V337L119.2 337.5V323.9L118.5 324.4Z" fill="#6D6E71"/>
<path d="M114 339.6V340.4L119.1 337.4L118.5 337L114 339.6Z" fill="#6D6E71"/>
<path d="M118.5 324.4V337.1L119.3 337.5V323.9L118.5 324.4Z" fill="#3D3D3D"/>
<path d="M114 339.7V340.5L119.2 337.4L118.5 337.1L114 339.7Z" fill="#282828"/>
<path fill-rule="evenodd" clip-rule="evenodd" d="M119.7 323.2V337.7L113.4 341.3V326.8L119.7 323.2ZM114 340.4L119.2 337.4V324.1L114 327V340.4Z" fill="#58595B"/>
<path d="M91.8 280.4V294.2L79.3 287V286.9L91.3 293.9V280.2L91.8 280.4Z" fill="#1C1C1C"/>
<path d="M91.7 280V293.8L79.3 286.6V272.8L91.7 280Z" fill="black"/>
<path d="M91.4 280.1L79.4 273.2V286L78.6 286.5V272.8L91.4 280.1Z" fill="#6D6E71"/>
<path d="M91.7 293V294L78.7 286.4L79.4 286L91.7 293Z" fill="#6D6E71"/>
<path d="M91.3 280.1L79.3 273.2V286.1L78.6 286.5V272.8L91.3 280.1Z" fill="#3D3D3D"/>
<path d="M91.8 293.1V294L78.7 286.4L79.3 286L91.8 293.1Z" fill="#282828"/>
<path d="M85.3 276.6V289.5L84.6 289.9V276.1L85.3 276.6Z" fill="#3D3D3D"/>
<path d="M84.1 275.5V289.6L84.6 289.9V276.1L84.1 275.5Z" fill="#555555"/>
<path fill-rule="evenodd" clip-rule="evenodd" d="M91.8 279.9V294.6L78.2 286.7V272.1L91.8 279.9ZM91.2 280.1L78.7 272.9V286.4L91.2 293.7V280.1Z" fill="#58595B"/>
<path d="M74.6 270.5V284.2L62.2 277L74.2 284V270.2L74.6 270.5Z" fill="#1C1C1C"/>
<path d="M74.6 270.1V283.8L62.2 276.6V262.9L74.6 270.1Z" fill="black"/>
<path d="M74.2 270.2L62.2 263.3V276.1L61.5 276.5V262.8L74.2 270.2Z" fill="#6D6E71"/>
<path d="M74.6 283.1V284L61.6 276.4L62.2 276.1L74.6 283.1Z" fill="#6D6E71"/>
<path d="M74.2 270.2L62.2 263.3V276.2L61.4 276.5V262.8L74.2 270.2Z" fill="#3D3D3D"/>
<path d="M74.6 283.2V284.1L61.5 276.5L62.2 276.1L74.6 283.2Z" fill="#282828"/>
<path d="M68.2 266.6V279.5L67.4 279.9V266.2L68.2 266.6Z" fill="#3D3D3D"/>
<path d="M66.9 265.6V279.6L67.4 279.9V266.2L66.9 265.6Z" fill="#555555"/>
<path fill-rule="evenodd" clip-rule="evenodd" d="M74.6 270V284.7L61 276.8V262.1L74.6 270ZM74.1 270.3L61.5 263.1V276.5L74.1 283.8V270.3Z" fill="#58595B"/>
<path d="M91.4 306V319.8L78.9 312.5L90.9 319.5V305.8L91.4 306Z" fill="#1C1C1C"/>
<path d="M91.4 305.6V319.4L78.9 312.2V298.4L91.4 305.6Z" fill="black"/>
<path d="M91 305.7L79 298.8V311.6L78.2 312.1V298.4L91 305.7Z" fill="#6D6E71"/>
<path d="M91.4 318.6V319.5L78.4 312L79 311.6L91.4 318.6Z" fill="#6D6E71"/>
<path d="M90.9 305.7L78.9 298.8V311.7L78.2 312.1V298.3L90.9 305.7Z" fill="#3D3D3D"/>
<path d="M91.4 318.7V319.6L78.3 312L78.9 311.6L91.4 318.7Z" fill="#282828"/>
<path d="M84.9 302.2V315.1L84.2 315.5V301.7L84.9 302.2Z" fill="#3D3D3D"/>
<path d="M83.7 301.1V315.1L84.2 315.5V301.7L83.7 301.1Z" fill="#555555"/>
<path fill-rule="evenodd" clip-rule="evenodd" d="M91.4 305.5V320.2L77.8 312.3V297.7L91.4 305.5ZM90.8 305.7L78.3 298.5V311.9L90.8 319.3V305.7Z" fill="#58595B"/>
<path d="M74.2 296.1V309.8L61.8 302.6L73.8 309.6V295.8L74.2 296.1Z" fill="#1C1C1C"/>
<path d="M74.2 295.7V309.4L61.8 302.2V288.5L74.2 295.7Z" fill="black"/>
<path d="M73.8 295.8L61.8 288.8V301.7L61.1 302.1V288.4L73.8 295.8Z" fill="#6D6E71"/>
<path d="M74.2 308.7V309.6L61.2 302L61.8 301.7L74.2 308.7Z" fill="#6D6E71"/>
<path d="M73.8 295.8L61.8 288.8V301.8L61 302.1V288.4L73.8 295.8Z" fill="#3D3D3D"/>
<path d="M74.2 308.8V309.7L61.1 302.1L61.8 301.7L74.2 308.8Z" fill="#282828"/>
<path d="M67.8 292.2V305.1L67 305.5V291.8L67.8 292.2Z" fill="#3D3D3D"/>
<path d="M66.5 291.2V305.2L67 305.5V291.8L66.5 291.2Z" fill="#555555"/>
<path fill-rule="evenodd" clip-rule="evenodd" d="M74.2 295.6V310.3L60.6 302.4V287.7L74.2 295.6ZM73.7 295.9L61.2 288.6V302.1L73.7 309.4V295.9Z" fill="#58595B"/>
<path d="M91.4 332.1V345.8L78.9 338.6L90.9 345.5V331.8L91.4 332.1Z" fill="#1C1C1C"/>
<path d="M91.4 331.7V345.4L78.9 338.2V324.5L91.4 331.7Z" fill="black"/>
<path d="M91 331.8L79 324.8V337.7L78.2 338.1V324.4L91 331.8Z" fill="#6D6E71"/>
<path d="M91.4 344.7V345.6L78.4 338L79 337.7L91.4 344.7Z" fill="#6D6E71"/>
<path d="M90.9 331.8L78.9 324.8V337.7L78.2 338.1V324.4L90.9 331.8Z" fill="#3D3D3D"/>
<path d="M91.4 344.8V345.7L78.3 338.1L78.9 337.7L91.4 344.8Z" fill="#282828"/>
<path d="M84.9 328.2V341.1L84.2 341.5V327.8L84.9 328.2Z" fill="#3D3D3D"/>
<path d="M83.7 327.1V341.2L84.2 341.5V327.8L83.7 327.1Z" fill="#555555"/>
<path fill-rule="evenodd" clip-rule="evenodd" d="M91.4 331.6V346.3L77.8 338.4V323.7L91.4 331.6ZM90.8 331.9L78.3 324.6V338.1L90.8 345.4V331.9Z" fill="#58595B"/>
<path d="M74.2 322.1V335.9L61.8 328.6L73.8 335.6V321.9L74.2 322.1Z" fill="#1C1C1C"/>
<path d="M74.2 321.7V335.5L61.8 328.3V314.5L74.2 321.7Z" fill="black"/>
<path d="M73.8 321.8L61.8 314.9V327.7L61.1 328.2V314.5L73.8 321.8Z" fill="#6D6E71"/>
<path d="M74.2 334.7V335.7L61.2 328.1L61.8 327.7L74.2 334.7Z" fill="#6D6E71"/>
<path d="M73.8 321.8L61.8 314.9V327.8L61 328.2V314.4L73.8 321.8Z" fill="#3D3D3D"/>
<path d="M74.2 334.8V335.7L61.1 328.1L61.8 327.7L74.2 334.8Z" fill="#282828"/>
<path d="M67.8 318.3V331.2L67 331.6V317.8L67.8 318.3Z" fill="#3D3D3D"/>
<path d="M66.5 317.2V331.3L67 331.6V317.8L66.5 317.2Z" fill="#555555"/>
<path fill-rule="evenodd" clip-rule="evenodd" d="M74.2 321.6V336.3L60.6 328.4V313.8L74.2 321.6ZM73.7 321.8L61.2 314.6V328L73.7 335.4V321.8Z" fill="#58595B"/>
<path d="M57.5 260.6V274.3L45 267.1L57 274.1V260.3L57.5 260.6Z" fill="#1C1C1C"/>
<path d="M57.4 260.2V273.9L45 266.7V253L57.4 260.2Z" fill="black"/>
<path d="M57.1 260.3L45.1 253.4V266.2L44.3 266.6V252.9L57.1 260.3Z" fill="#6D6E71"/>
<path d="M57.4 273.2V274.1L44.4 266.5L45.1 266.2L57.4 273.2Z" fill="#6D6E71"/>
<path d="M57 260.3L45 253.3V266.3L44.3 266.6V252.9L57 260.3Z" fill="#3D3D3D"/>
<path d="M57.5 273.3V274.2L44.4 266.6L45 266.2L57.5 273.3Z" fill="#282828"/>
<path d="M51 256.7V269.6L50.3 270V256.3L51 256.7Z" fill="#3D3D3D"/>
<path d="M49.8 255.7V269.7L50.3 270V256.3L49.8 255.7Z" fill="#555555"/>
<path fill-rule="evenodd" clip-rule="evenodd" d="M57.5 260.1V274.8L43.9 266.9V252.2L57.5 260.1ZM56.9 260.4L44.4 253.1V266.6L56.9 273.9V260.4Z" fill="#58595B"/>
<path d="M57.1 286.2V299.9L44.6 292.7L56.6 299.6V285.9L57.1 286.2Z" fill="#1C1C1C"/>
<path d="M57.1 285.8V299.5L44.6 292.3V278.6L57.1 285.8Z" fill="black"/>
<path d="M56.7 285.9L44.7 278.9V291.8L43.9 292.2V278.5L56.7 285.9Z" fill="#6D6E71"/>
<path d="M57.1 298.8V299.7L44.1 292.1L44.7 291.8L57.1 298.8Z" fill="#6D6E71"/>
<path d="M56.6 285.9L44.6 278.9V291.9L43.9 292.2V278.5L56.6 285.9Z" fill="#3D3D3D"/>
<path d="M57.1 298.9V299.8L44 292.2L44.7 291.8L57.1 298.9Z" fill="#282828"/>
<path d="M50.6 282.3V295.2L49.9 295.6V281.9L50.6 282.3Z" fill="#3D3D3D"/>
<path d="M49.4 281.2V295.3L49.9 295.6V281.9L49.4 281.2Z" fill="#555555"/>
<path fill-rule="evenodd" clip-rule="evenodd" d="M57.1 285.7V300.4L43.5 292.5V277.8L57.1 285.7ZM56.5 286L44 278.7V292.2L56.5 299.5V286Z" fill="#58595B"/>
<path d="M57.1 312.2V326L44.6 318.7L56.6 325.7V312L57.1 312.2Z" fill="#1C1C1C"/>
<path d="M57.1 311.8V325.6L44.6 318.4V304.6L57.1 311.8Z" fill="black"/>
<path d="M56.7 311.9L44.7 305V317.8L43.9 318.3V304.6L56.7 311.9Z" fill="#6D6E71"/>
<path d="M57.1 324.8V325.7L44.1 318.2L44.7 317.8L57.1 324.8Z" fill="#6D6E71"/>
<path d="M56.6 311.9L44.6 305V317.9L43.9 318.3V304.5L56.6 311.9Z" fill="#3D3D3D"/>
<path d="M57.1 324.9V325.8L44 318.2L44.7 317.8L57.1 324.9Z" fill="#282828"/>
<path d="M50.6 308.4V321.3L49.9 321.7V307.9L50.6 308.4Z" fill="#3D3D3D"/>
<path d="M49.4 307.3V321.4L49.9 321.7V307.9L49.4 307.3Z" fill="#555555"/>
<path fill-rule="evenodd" clip-rule="evenodd" d="M57.1 311.7V326.4L43.5 318.5V303.9L57.1 311.7ZM56.5 311.9L44 304.7V318.1L56.5 325.5V311.9Z" fill="#58595B"/>
<path d="M123.9 352.7L128 355.1V258.7L123.9 256.3V352.7Z" fill="#2B2B2B"/>
<circle cx="20.5912" cy="20.5912" r="20.5912" transform="matrix(0.866025 -0.5 0.866025 0.5 53 230.591)" fill="#757575"/>
<path fill-rule="evenodd" clip-rule="evenodd" d="M89.4408 232.014C86.9196 232.014 84.5579 231.748 82.4946 231.286C82.0582 231.188 81.7824 230.938 81.7824 230.668L81.7836 229.65C81.7836 228.815 80.7612 228.225 79.4984 228.225L76.9686 228.225C75.2856 228.225 73.9215 229.013 73.9215 229.984L73.9214 230.795C73.9214 231.717 74.7402 232.575 76.0977 233.109C79.4453 234.428 84.1634 235.263 89.4407 235.263C94.718 235.263 99.4362 234.427 102.784 233.109C104.141 232.574 104.96 231.717 104.96 230.795L104.96 229.985C104.96 229.013 103.596 228.226 101.914 228.226L99.3858 228.226C98.1231 228.226 97.0995 228.817 97.1005 229.545L97.1015 230.669C97.1015 230.939 96.8257 231.189 96.3893 231.287C94.3249 231.749 91.9621 232.014 89.4408 232.014Z" fill="#282828"/>
<path d="M343.305 174.122C337.044 169.96 326.956 169.96 320.695 174.122C314.435 178.285 314.435 185.049 320.695 189.212C326.956 193.374 337.044 193.374 343.305 189.212C349.565 185.049 349.565 178.285 343.305 174.122Z" fill="#C92222"/>
<path d="M325.667 179.426H331.32C332.518 179.426 333.118 179.426 333.575 179.561C333.978 179.679 334.305 179.868 334.51 180.101C334.743 180.365 334.743 180.711 334.743 181.403L334.743 184.667" stroke="black" stroke-width="2" stroke-linecap="round" stroke-linejoin="round"/>
<path d="M232.305 295.211C226.044 299.374 215.956 299.374 209.695 295.211C203.435 291.049 203.435 284.285 209.695 280.122C215.956 275.959 226.044 275.959 232.305 280.122C238.565 284.285 238.565 291.049 232.305 295.211Z" fill="#C92222"/>
<path d="M215.667 288.907H221.32C222.519 288.907 223.118 288.907 223.575 288.773C223.978 288.654 224.305 288.465 224.51 288.233C224.743 287.969 224.743 287.623 224.743 286.931L224.743 283.667" stroke="black" stroke-width="2" stroke-linecap="round" stroke-linejoin="round"/>
<path d="M337.305 232.211C331.044 236.374 320.956 236.374 314.695 232.211C308.435 228.049 308.435 221.285 314.695 217.122C320.956 212.959 331.044 212.959 337.305 217.122C343.565 221.285 343.565 228.049 337.305 232.211Z" fill="#C92222"/>
<path d="M320.667 225.907H326.32C327.519 225.907 328.118 225.907 328.575 225.773C328.978 225.654 329.305 225.465 329.51 225.233C329.743 224.969 329.743 224.623 329.743 223.931L329.743 220.667" stroke="black" stroke-width="2" stroke-linecap="round" stroke-linejoin="round"/>
<path d="M92.6953 173.211C98.9557 177.374 109.044 177.374 115.305 173.211C121.565 169.049 121.565 162.285 115.305 158.122C109.044 153.959 98.9557 153.959 92.6953 158.122C86.4349 162.285 86.4349 169.049 92.6953 173.211Z" fill="#C92222"/>
<path d="M109.333 166.907H103.68C102.481 166.907 101.882 166.907 101.425 166.773C101.022 166.654 100.695 166.465 100.49 166.233C100.257 165.969 100.257 165.623 100.257 164.931L100.257 161.667" stroke="black" stroke-width="2" stroke-linecap="round" stroke-linejoin="round"/>
</svg>
