<svg width="16" height="16" viewBox="0 0 16 16" fill="none" xmlns="http://www.w3.org/2000/svg">
<ellipse opacity="0.12" cx="7.99997" cy="7.99982" rx="2.97674" ry="7.44186" transform="rotate(-90 7.99997 7.99982)" fill="#858585"/>
<path fill-rule="evenodd" clip-rule="evenodd" d="M7.24684 1.52646C7.53722 1.21941 7.79192 1.11628 8 1.11628C8.20808 1.11628 8.46278 1.21941 8.75316 1.52646C9.04466 1.83469 9.33288 2.31066 9.58666 2.9451C9.77713 3.42128 9.94203 3.97121 10.0736 4.57861C9.41114 4.50439 8.71559 4.46512 8 4.46512C7.28441 4.46512 6.58886 4.50439 5.92636 4.57861C6.05797 3.97121 6.22287 3.42128 6.41334 2.9451C6.66712 2.31066 6.95534 1.83469 7.24684 1.52646ZM4.75268 4.75268C4.90659 3.92859 5.11809 3.17755 5.3769 2.53052C5.537 2.13029 5.71866 1.76113 5.92175 1.43556C3.79147 2.10936 2.10936 3.79147 1.43556 5.92175C1.76113 5.71866 2.13029 5.537 2.53052 5.37691C3.17755 5.11809 3.92859 4.90659 4.75268 4.75268ZM0 8C0 3.58172 3.58172 0 8 0C12.4183 0 16 3.58172 16 8C16 12.4183 12.4183 16 8 16C3.58172 16 0 12.4183 0 8ZM1.43556 10.0783C2.10936 12.2085 3.79147 13.8906 5.92175 14.5644C5.71866 14.2389 5.537 13.8697 5.3769 13.4695C5.11809 12.8224 4.90659 12.0714 4.75268 11.2473C3.92859 11.0934 3.17755 10.8819 2.53052 10.6231C2.13029 10.463 1.76113 10.2813 1.43556 10.0783ZM4.57861 10.0736C4.50439 9.41114 4.46512 8.71559 4.46512 8C4.46512 7.28441 4.50439 6.58886 4.57861 5.92636C3.97121 6.05797 3.42128 6.22287 2.9451 6.41334C2.31066 6.66712 1.83469 6.95534 1.52646 7.24684C1.21941 7.53722 1.11628 7.79192 1.11628 8C1.11628 8.00014 1.11628 8.00027 1.11628 8.00041C1.11641 8.20842 1.21961 8.46297 1.52646 8.75316C1.83469 9.04466 2.31066 9.33288 2.9451 9.58666C3.42128 9.77713 3.97121 9.94203 4.57861 10.0736ZM5.72747 10.2725C5.63315 9.56215 5.5814 8.79818 5.5814 8C5.5814 7.20182 5.63315 6.43785 5.72747 5.72747C6.43785 5.63315 7.20182 5.5814 8 5.5814C8.79818 5.5814 9.56215 5.63315 10.2725 5.72747C10.3669 6.43785 10.4186 7.20182 10.4186 8C10.4186 8.79818 10.3669 9.56215 10.2725 10.2725C9.56215 10.3669 8.79818 10.4186 8 10.4186C7.20182 10.4186 6.43785 10.3669 5.72747 10.2725ZM5.92636 11.4214C6.05797 12.0288 6.22287 12.5787 6.41334 13.0549C6.66712 13.6893 6.95534 14.1653 7.24684 14.4735C7.53722 14.7806 7.79192 14.8837 8 14.8837C8.20808 14.8837 8.46278 14.7806 8.75316 14.4735C9.04466 14.1653 9.33288 13.6893 9.58666 13.0549C9.77713 12.5787 9.94203 12.0288 10.0736 11.4214C9.41114 11.4956 8.71559 11.5349 8 11.5349C7.28441 11.5349 6.58886 11.4956 5.92636 11.4214ZM11.2473 11.2473C11.0934 12.0714 10.8819 12.8224 10.6231 13.4695C10.463 13.8697 10.2813 14.2389 10.0783 14.5644C12.2085 13.8906 13.8906 12.2085 14.5644 10.0783C14.2389 10.2813 13.8697 10.463 13.4695 10.6231C12.8224 10.8819 12.0714 11.0934 11.2473 11.2473ZM14.5644 5.92175C13.8906 3.79147 12.2085 2.10936 10.0783 1.43556C10.2813 1.76113 10.463 2.13029 10.6231 2.53052C10.8819 3.17755 11.0934 3.92859 11.2473 4.75268C12.0714 4.90659 12.8224 5.11809 13.4695 5.3769C13.8697 5.537 14.2389 5.71866 14.5644 5.92175ZM11.4214 5.92636C12.0288 6.05797 12.5787 6.22287 13.0549 6.41334C13.6893 6.66712 14.1653 6.95534 14.4735 7.24684C14.7806 7.53722 14.8837 7.79192 14.8837 8C14.8837 8.20808 14.7806 8.46278 14.4735 8.75316C14.1653 9.04466 13.6893 9.33288 13.0549 9.58666C12.5787 9.77713 12.0288 9.94203 11.4214 10.0736C11.4956 9.41114 11.5349 8.71559 11.5349 8C11.5349 7.28441 11.4956 6.58886 11.4214 5.92636Z" fill="#858585"/>
</svg>
