<svg width="16" height="16" viewBox="0 0 16 16" fill="none" xmlns="http://www.w3.org/2000/svg">
<path fill-rule="evenodd" clip-rule="evenodd" d="M3.46967 5.46967C3.76256 5.17678 4.23744 5.17678 4.53033 5.46967L6.26759 7.20693C6.67236 7.6117 6.94445 7.88296 7.17076 8.07509C7.39038 8.26153 7.51706 8.32899 7.61373 8.36039C7.86478 8.44197 8.13522 8.44197 8.38627 8.36039C8.48294 8.32899 8.60962 8.26153 8.82924 8.07509C9.05555 7.88296 9.32764 7.6117 9.73241 7.20693L11.4697 5.46967C11.7626 5.17678 12.2374 5.17678 12.5303 5.46967C12.8232 5.76256 12.8232 6.23744 12.5303 6.53033L10.7931 8.26759L10.7715 8.28912C10.3939 8.66682 10.0786 8.98209 9.8 9.2186C9.50944 9.46527 9.20979 9.67001 8.8498 9.78698C8.29748 9.96644 7.70252 9.96644 7.1502 9.78698C6.79021 9.67001 6.49056 9.46527 6.2 9.2186C5.9214 8.98209 5.60614 8.66682 5.22845 8.28911L5.20693 8.26759L3.46967 6.53033C3.17678 6.23744 3.17678 5.76256 3.46967 5.46967Z" fill="black"/>
</svg>
