<svg width="25" height="24" viewBox="0 0 25 24" fill="none" xmlns="http://www.w3.org/2000/svg">
<path fill-rule="evenodd" clip-rule="evenodd" d="M8.16992 3H17.1739C19.6569 3 21.6699 5.013 21.6699 7.496V16.505C21.6699 18.987 19.6569 21 17.1739 21H8.16592C5.68292 21 3.66992 18.987 3.66992 16.504V7.5C3.66992 5.015 5.68492 3 8.16992 3V3Z" stroke="black" stroke-width="1.5" stroke-linecap="round" stroke-linejoin="round"/>
<path opacity="0.12" fill-rule="evenodd" clip-rule="evenodd" d="M8.16992 3H17.1739C19.6569 3 21.6699 5.013 21.6699 7.496V16.505C21.6699 18.987 19.6569 21 17.1739 21H8.16592C5.68292 21 3.66992 18.987 3.66992 16.504V7.5C3.66992 5.015 5.68492 3 8.16992 3V3Z" fill="black"/>
<path d="M8.79004 11.1V16.5" stroke="black" stroke-width="1.5" stroke-linecap="round" stroke-linejoin="round"/>
<path d="M12.3892 16.5V13.35C12.3892 12.107 13.3962 11.1 14.6392 11.1V11.1C15.8822 11.1 16.8892 12.107 16.8892 13.35V16.5" stroke="black" stroke-width="1.5" stroke-linecap="round" stroke-linejoin="round"/>
<path d="M8.78807 7.83799C8.66407 7.83799 8.56307 7.93899 8.56407 8.06299C8.56407 8.18699 8.66507 8.28799 8.78907 8.28799C8.91307 8.28799 9.01407 8.18699 9.01407 8.06299C9.01407 7.93799 8.91307 7.83799 8.78807 7.83799" stroke="black" stroke-width="1.5" stroke-linecap="round" stroke-linejoin="round"/>
</svg>
