<svg width="138" height="57" viewBox="0 0 138 57" fill="none" xmlns="http://www.w3.org/2000/svg">
<path fill-rule="evenodd" clip-rule="evenodd" d="M31.5342 0.832163C32.6948 1.949 32.6948 3.7447 31.5342 4.86154L10.0515 25.5777H29.4538C31.0743 25.5777 32.4101 26.8698 32.4101 28.4246V29.1691C35.2132 26.9355 38.8046 25.5777 42.7025 25.5777C51.6372 25.5777 58.9076 32.6072 58.9076 41.2353C58.9076 49.7977 51.7029 56.8053 42.8339 56.871H42.5711C33.7022 56.8053 26.5194 49.7977 26.5194 41.2353V31.2714H2.95633C1.7519 31.2714 0.678855 30.5925 0.240881 29.5195C0.0875896 29.1691 0 28.8187 0 28.4465V28.4027C0.0218987 27.68 0.306582 26.9574 0.875949 26.4318L27.3734 0.832163C27.9428 0.284694 28.6655 0.0218987 29.3881 0H29.5195C30.2422 0.0218987 30.9867 0.284694 31.5342 0.832163ZM53.0168 41.2353C53.0168 35.7387 48.3962 31.2714 42.7025 31.2714C37.0308 31.2714 32.4101 35.7387 32.4101 41.2353C32.4101 46.71 37.0308 51.1774 42.7025 51.1774C48.3962 51.1774 53.0168 46.71 53.0168 41.2353ZM54.1556 15.5043C55.3162 16.6212 55.3162 18.4168 54.1556 19.5118C53.5862 20.0811 52.8416 20.3439 52.0752 20.3439C51.3306 20.3439 50.5642 20.0811 49.9948 19.5118C48.0458 17.6504 45.4618 16.5993 42.7025 16.5993C39.9652 16.5993 37.3592 17.6504 35.4322 19.5118C34.8409 20.0811 34.0963 20.3439 33.3299 20.3439C32.5853 20.3439 31.8408 20.0811 31.2495 19.5118C30.1108 18.4168 30.1108 16.6212 31.2495 15.5043C34.3153 12.548 38.3885 10.9275 42.7025 10.9275C47.0385 10.9275 51.1117 12.548 54.1556 15.5043Z" fill="black"/>
<path d="M70.8996 39.269V20.8785H73.0317V37.3988H80.2881V39.269H70.8996ZM86.0792 39.269L91.1413 20.8286H94.4578L99.4825 39.269H97.2881L96.0039 34.394H89.5703L88.2736 39.269H86.0792ZM90.069 32.5238H95.5052L92.7996 22.2625L90.069 32.5238ZM111.861 20.8785C115.265 20.8785 117.21 22.2625 117.21 25.2548C117.21 28.0851 115.215 29.5314 113.27 29.6187C115.39 29.6685 117.609 30.8904 117.609 34.182C117.609 37.4113 115.689 39.269 111.762 39.269H105.752V20.8785H111.861ZM111.35 22.7487H107.809V28.7584H110.864C113.52 28.7584 115.078 27.6736 115.078 25.579C115.078 23.4968 113.595 22.7487 111.35 22.7487ZM111.35 37.3988C113.881 37.3988 115.44 36.2767 115.44 34.0698C115.44 31.3892 113.345 30.6161 110.976 30.6161H107.809V37.3988H111.35ZM130.2 39.5184C126.385 39.5184 124.141 37.6981 124.141 34.0449V33.197H126.273V34.0075C126.273 36.551 127.632 37.5983 130.175 37.5983C132.806 37.5983 134.165 36.7505 134.165 34.7431C134.165 32.6235 132.307 31.7133 129.602 30.878C126.522 29.9304 124.278 28.3469 124.278 25.2922C124.278 22.2999 126.622 20.6541 130.088 20.6541C133.754 20.6541 136.11 22.3497 136.11 25.8408V26.7759H133.978V25.9281C133.978 23.5093 132.631 22.5742 130.125 22.5742C127.719 22.5742 126.348 23.3721 126.348 25.2922C126.348 27.4617 128.305 28.3345 130.998 29.2197C134.265 30.292 136.247 31.6136 136.247 34.6683C136.247 37.7355 133.966 39.5184 130.2 39.5184Z" fill="black"/>
</svg>
