<svg width="530" height="298" viewBox="0 0 530 298" fill="none" xmlns="http://www.w3.org/2000/svg">
<g clip-path="url(#clip0_1230_74412)">
<path opacity="0.3" d="M8.42114 307.36L217.316 428.14L290.958 385.527L82.0629 264.747L8.42114 307.36Z" fill="black"/>
<path d="M125.192 230.477H102.964L96.1792 211.842L115.073 204.399L133.498 212.017L125.192 230.477Z" fill="black"/>
<path d="M181.404 197.953L125.192 230.476V214.185L148.648 191.976L181.404 181.662V197.953Z" fill="black"/>
<path d="M181.404 181.662V168.828L135.311 142.165H113.084L56.8718 174.688V187.522L102.965 214.185H125.192L181.404 181.662Z" fill="black"/>
<path d="M102.965 230.477L56.8718 203.813V187.522L102.965 214.186V230.477Z" fill="black"/>
<path d="M125.309 226.725H102.438L95.4189 176.915L114.897 169.297L133.908 177.091L125.309 226.725Z" fill="#313131"/>
<path d="M183.159 193.265L125.309 226.726V179.377L149.408 156.523L183.159 145.916V193.265Z" fill="#1C1C1C"/>
<path d="M183.159 145.916V132.672L135.721 105.247H112.85L55 138.708V151.952L102.438 179.377H125.309L183.159 145.916Z" fill="#272727"/>
<path d="M102.438 226.725L55 199.242V151.951L102.438 179.376V226.725Z" fill="#3D3D3D"/>
<path d="M125.192 177.794H102.964L96.1792 159.159L115.073 151.775L133.498 159.335L125.192 177.794Z" fill="#313131"/>
<path d="M181.404 145.27L125.192 177.794V161.561L148.648 139.352L181.404 128.979V145.27Z" fill="#1C1C1C"/>
<path d="M181.404 128.979V116.146L135.311 89.4824H113.084L56.8718 122.064V134.898L102.965 161.561H125.192L181.404 128.979Z" fill="#272727"/>
<path d="M102.965 177.794L56.8718 151.131V134.898L102.965 161.562V177.794Z" fill="#3D3D3D"/>
<path d="M102.965 177.793L85.9431 167.948V160.213L102.965 170.058V177.793Z" fill="#C92222"/>
<path opacity="0.3" d="M129.345 155.877L97.7587 156.815L56.8718 133.14V149.431L102.965 176.094H125.192L181.404 143.571V127.28L129.345 155.877Z" fill="black"/>
<path d="M125.309 172.989H102.438L95.4189 142.516L114.897 134.84L133.908 142.633L125.309 172.989Z" fill="#313131"/>
<path d="M183.159 139.528L125.309 172.989V144.92L149.408 122.065L183.159 111.459V139.528Z" fill="#1C1C1C"/>
<path d="M183.159 111.459V98.2148L135.721 70.7898H112.85L55 104.251V117.494L102.438 144.919H125.309L183.159 111.459Z" fill="#272727"/>
<path d="M102.438 172.989L55 145.564V117.494L102.438 144.919V172.989Z" fill="#3D3D3D"/>
<path d="M125.192 143.337H102.964L96.1792 124.761L115.073 117.318L133.498 124.878L125.192 143.337Z" fill="#313131"/>
<path d="M181.404 110.812L125.192 143.336V127.103L148.648 104.894L181.404 94.5801V110.812Z" fill="#1C1C1C"/>
<path d="M181.404 94.5807V81.6886L135.311 55.0254H113.084L56.8718 87.5486V100.441L102.965 127.104H125.192L181.404 94.5807Z" fill="#272727"/>
<path d="M102.965 143.337L56.8718 116.674V100.441L102.965 127.105V143.337Z" fill="#3D3D3D"/>
<path d="M102.965 143.336L85.9431 133.491V125.756L102.965 135.601V143.336Z" fill="#C92222"/>
<path opacity="0.3" d="M129.345 121.42L97.7587 122.358L56.8718 98.7419V114.974L102.965 141.637H125.192L181.404 109.114V92.8232L129.345 121.42Z" fill="black"/>
<path d="M125.309 138.765H102.438L95.4189 108.234L114.897 100.616L133.908 108.41L125.309 138.765Z" fill="#313131"/>
<path d="M183.159 105.305L125.309 138.766V110.696L149.408 87.842L183.159 77.1768V105.305Z" fill="#1C1C1C"/>
<path d="M183.159 77.1765V63.9914L135.721 36.5664H112.85L55 70.0273V83.271L102.438 110.696H125.309L183.159 77.1765Z" fill="#272727"/>
<path d="M102.438 138.765L55 111.34V83.2705L102.438 110.696V138.765Z" fill="#3D3D3D"/>
<path d="M125.192 109.114H102.964L96.1792 90.4794L115.073 83.0372L133.498 90.6552L125.192 109.114Z" fill="#313131"/>
<path d="M181.404 76.5909L125.192 109.114V92.8233L148.648 70.6137L181.404 60.3586V76.5909Z" fill="#1C1C1C"/>
<path d="M181.404 60.3583V47.4662L135.311 20.8029H113.084L56.8718 53.3262V66.2183L102.965 92.8229H125.192L181.404 60.3583Z" fill="#272727"/>
<path d="M102.965 109.114L56.8718 82.4511V66.2188L102.965 92.8234V109.114Z" fill="#3D3D3D"/>
<path d="M102.965 109.115L85.9431 99.2697V91.5344L102.965 101.379V109.115Z" fill="#C92222"/>
<path opacity="0.3" d="M129.345 87.1977L97.7587 88.1353L56.8718 64.4607V80.7516L102.965 107.415H125.192L181.404 74.8916V58.6006L129.345 87.1977Z" fill="black"/>
<path d="M125.309 104.601H102.438L95.4189 74.1288L114.897 66.4521L133.908 74.3046L125.309 104.601Z" fill="#313131"/>
<path d="M183.159 71.1409L125.309 104.602V76.5321L149.408 53.678L183.159 43.0713V71.1409Z" fill="#1C1C1C"/>
<path d="M183.159 43.0711V29.8274L135.721 2.40234H112.85L55 35.8632V49.1069L102.438 76.5319H125.309L183.159 43.0711Z" fill="#272727"/>
<path d="M102.438 104.602L55 77.177V49.1074L102.438 76.5324V104.602Z" fill="#3D3D3D"/>
<path d="M125.192 74.5405H102.964L96.1792 69.618L115.073 62.2344L132.153 69.2664L125.192 74.5405Z" fill="#313131"/>
<path d="M181.404 42.0169L125.192 74.5401V72.0203L148.648 49.8108L181.404 39.4971V42.0169Z" fill="#1C1C1C"/>
<path d="M181.404 39.4967V26.6632L135.311 0H113.084L56.8718 32.5233V45.3568L102.965 72.02H125.192L181.404 39.4967Z" fill="#272727"/>
<path fill-rule="evenodd" clip-rule="evenodd" d="M98.2016 25.1703C99.7638 25.153 100.996 25.8641 100.966 26.7661L100.44 43.478L113.749 35.7942C114.86 35.1524 116.663 35.1351 117.729 35.7508L118.24 36.0457C118.631 34.051 120.163 32.091 122.836 30.5473C128.965 27.0089 138.774 26.9135 144.692 30.3305C150.566 33.7214 150.43 39.3499 144.392 42.8883L144.212 42.9924C138.083 46.4787 128.349 46.5481 122.476 43.1571L115.641 39.2111L99.4784 48.5428C98.6523 49.0197 97.4506 49.1759 96.4141 48.9243C96.0686 48.8463 95.7682 48.7422 95.5128 48.5948L95.4828 48.5774C95.0021 48.2826 94.7017 47.8836 94.7317 47.45L95.3476 26.8181C95.3626 26.3758 95.6781 25.9855 96.1587 25.6907L96.2489 25.6386C96.7596 25.3611 97.4506 25.1703 98.2016 25.1703ZM140.652 32.6634C136.881 30.4866 130.647 30.5473 126.742 32.8021C122.851 35.0483 122.746 38.6474 126.517 40.8242C130.272 42.9924 136.506 42.9316 140.396 40.6855C144.302 38.4306 144.407 34.8315 140.652 32.6634ZM123.783 22.0222C125.345 22.0049 126.577 22.716 126.532 23.6093C126.532 24.0602 126.201 24.4592 125.675 24.7627C125.165 25.0576 124.459 25.2571 123.678 25.2571C121.064 25.2917 118.57 25.8988 116.678 26.9916C114.8 28.0756 113.734 29.5239 113.689 31.0243C113.673 31.4839 113.343 31.8829 112.817 32.1864C112.307 32.4813 111.616 32.672 110.819 32.6807C109.287 32.6981 108.056 31.9869 108.071 31.0937C108.146 28.7087 109.828 26.4539 112.787 24.7454C115.761 23.0282 119.667 22.0569 123.783 22.0222Z" fill="#757575"/>
<path d="M102.965 74.5404L56.8718 47.9358V45.3574L102.965 72.0206V74.5404Z" fill="#3D3D3D"/>
<path d="M348.192 230.477H325.964L319.179 211.842L338.073 204.399L356.498 212.017L348.192 230.477Z" fill="black"/>
<path d="M404.404 197.953L348.192 230.476V214.185L371.648 191.976L404.404 181.662V197.953Z" fill="black"/>
<path d="M404.404 181.662V168.828L358.311 142.165H336.084L279.872 174.688V187.522L325.965 214.185H348.192L404.404 181.662Z" fill="black"/>
<path d="M325.965 230.477L279.872 203.813V187.522L325.965 214.186V230.477Z" fill="black"/>
<path d="M348.309 226.725H325.438L318.419 176.915L337.897 169.297L356.908 177.091L348.309 226.725Z" fill="#313131"/>
<path d="M406.159 193.265L348.309 226.726V179.377L372.408 156.523L406.159 145.916V193.265Z" fill="#1C1C1C"/>
<path d="M406.159 145.916V132.672L358.721 105.247H335.85L278 138.708V151.952L325.438 179.377H348.309L406.159 145.916Z" fill="#272727"/>
<path d="M325.438 226.725L278 199.242V151.951L325.438 179.376V226.725Z" fill="#3D3D3D"/>
<path d="M348.192 177.794H325.964L319.179 159.159L338.073 151.775L356.498 159.335L348.192 177.794Z" fill="#313131"/>
<path d="M404.404 145.27L348.192 177.794V161.561L371.648 139.352L404.404 128.979V145.27Z" fill="#1C1C1C"/>
<path d="M404.404 128.979V116.146L358.311 89.4824H336.084L279.872 122.064V134.898L325.964 161.561H348.192L404.404 128.979Z" fill="#272727"/>
<path d="M325.964 177.794L279.872 151.131V134.898L325.964 161.562V177.794Z" fill="#3D3D3D"/>
<path d="M325.964 177.793L308.943 167.948V160.213L325.964 170.058V177.793Z" fill="#C92222"/>
<path opacity="0.3" d="M352.345 155.877L320.758 156.815L279.872 133.14V149.431L325.964 176.094H348.192L404.404 143.571V127.28L352.345 155.877Z" fill="black"/>
<path d="M348.309 172.989H325.438L318.419 142.516L337.897 134.84L356.908 142.633L348.309 172.989Z" fill="#313131"/>
<path d="M406.159 139.528L348.309 172.989V144.92L372.408 122.065L406.159 111.459V139.528Z" fill="#1C1C1C"/>
<path d="M406.159 111.459V98.2148L358.721 70.7898H335.85L278 104.251V117.494L325.438 144.919H348.309L406.159 111.459Z" fill="#272727"/>
<path d="M325.438 172.989L278 145.564V117.494L325.438 144.919V172.989Z" fill="#3D3D3D"/>
<path d="M348.192 143.337H325.964L319.179 124.761L338.073 117.318L356.498 124.878L348.192 143.337Z" fill="#313131"/>
<path d="M404.404 110.812L348.192 143.336V127.103L371.648 104.894L404.404 94.5801V110.812Z" fill="#1C1C1C"/>
<path d="M404.404 94.5807V81.6886L358.311 55.0254H336.084L279.872 87.5486V100.441L325.964 127.104H348.192L404.404 94.5807Z" fill="#272727"/>
<path d="M325.964 143.337L279.872 116.674V100.441L325.964 127.105V143.337Z" fill="#3D3D3D"/>
<path d="M325.964 143.336L308.943 133.491V125.756L325.964 135.601V143.336Z" fill="#C92222"/>
<path opacity="0.3" d="M352.345 121.42L320.758 122.358L279.872 98.7419V114.974L325.964 141.637H348.192L404.404 109.114V92.8232L352.345 121.42Z" fill="black"/>
<path d="M348.309 138.765H325.438L318.419 108.234L337.897 100.616L356.908 108.41L348.309 138.765Z" fill="#313131"/>
<path d="M406.159 105.305L348.309 138.766V110.696L372.408 87.842L406.159 77.1768V105.305Z" fill="#1C1C1C"/>
<path d="M406.159 77.1765V63.9914L358.721 36.5664H335.85L278 70.0273V83.271L325.438 110.696H348.309L406.159 77.1765Z" fill="#272727"/>
<path d="M325.438 138.765L278 111.34V83.2705L325.438 110.696V138.765Z" fill="#3D3D3D"/>
<path d="M348.192 109.114H325.964L319.179 90.4794L338.073 83.0372L356.498 90.6552L348.192 109.114Z" fill="#313131"/>
<path d="M404.404 76.5909L348.192 109.114V92.8233L371.648 70.6137L404.404 60.3586V76.5909Z" fill="#1C1C1C"/>
<path d="M404.404 60.3583V47.4662L358.311 20.8029H336.084L279.872 53.3262V66.2183L325.965 92.8229H348.192L404.404 60.3583Z" fill="#272727"/>
<path d="M325.965 109.114L279.872 82.4511V66.2188L325.965 92.8234V109.114Z" fill="#3D3D3D"/>
<path d="M325.964 109.115L308.943 99.2697V91.5344L325.964 101.379V109.115Z" fill="#C92222"/>
<path opacity="0.3" d="M352.345 87.1977L320.759 88.1353L279.872 64.4607V80.7516L325.965 107.415H348.192L404.404 74.8916V58.6006L352.345 87.1977Z" fill="black"/>
<path d="M348.309 104.601H325.438L318.419 74.1289L337.897 66.4522L356.908 74.3047L348.309 104.601Z" fill="#313131"/>
<path d="M406.159 71.141L348.309 104.602V76.5322L372.408 53.6781L406.159 43.0714V71.141Z" fill="#1C1C1C"/>
<path d="M406.159 43.0712V29.8275L358.721 2.40244H335.85L278 35.8633V49.107L325.438 76.532H348.309L406.159 43.0712Z" fill="#272727"/>
<path d="M325.438 104.602L278 77.1771V49.1075L325.438 76.5325V104.602Z" fill="#3D3D3D"/>
<path d="M348.192 74.5405H325.964L319.179 69.618L338.073 62.2344L355.153 69.2664L348.192 74.5405Z" fill="#313131"/>
<path d="M404.404 42.0169L348.192 74.5401V72.0203L371.648 49.8108L404.404 39.4971V42.0169Z" fill="#1C1C1C"/>
<path d="M404.404 39.4967V26.6632L358.311 0H336.084L279.872 32.5233V45.3568L325.965 72.02H348.192L404.404 39.4967Z" fill="#272727"/>
<path fill-rule="evenodd" clip-rule="evenodd" d="M321.202 25.1703C322.764 25.153 323.996 25.8641 323.966 26.7661L323.44 43.478L336.749 35.7942C337.86 35.1524 339.663 35.1351 340.729 35.7508L341.24 36.0457C341.631 34.051 343.163 32.091 345.836 30.5473C351.965 27.0089 361.774 26.9135 367.692 30.3305C373.566 33.7214 373.43 39.3499 367.392 42.8883L367.212 42.9924C361.083 46.4787 351.349 46.5481 345.476 43.1571L338.641 39.2111L322.478 48.5428C321.652 49.0197 320.451 49.1759 319.414 48.9243C319.069 48.8463 318.768 48.7422 318.513 48.5948L318.483 48.5774C318.002 48.2826 317.702 47.8836 317.732 47.45L318.348 26.8181C318.363 26.3758 318.678 25.9855 319.159 25.6907L319.249 25.6386C319.76 25.3611 320.451 25.1703 321.202 25.1703ZM363.652 32.6634C359.881 30.4866 353.647 30.5473 349.742 32.8021C345.851 35.0483 345.746 38.6474 349.517 40.8242C353.272 42.9924 359.506 42.9316 363.396 40.6855C367.302 38.4306 367.407 34.8315 363.652 32.6634ZM346.783 22.0222C348.345 22.0049 349.577 22.716 349.532 23.6093C349.532 24.0602 349.201 24.4592 348.675 24.7627C348.165 25.0576 347.459 25.2571 346.678 25.2571C344.064 25.2917 341.57 25.8988 339.678 26.9916C337.8 28.0756 336.734 29.5239 336.689 31.0243C336.673 31.4839 336.343 31.8829 335.817 32.1864C335.307 32.4813 334.616 32.672 333.819 32.6807C332.287 32.6981 331.056 31.9869 331.071 31.0937C331.146 28.7087 332.828 26.4539 335.787 24.7454C338.761 23.0282 342.667 22.0569 346.783 22.0222Z" fill="#757575"/>
<path d="M325.965 74.5404L279.872 47.9358V45.3574L325.965 72.0206V74.5404Z" fill="#3D3D3D"/>
<path d="M221.297 286.028H199.069L192.284 267.393L211.178 260.01L229.603 267.569L221.297 286.028Z" fill="black"/>
<path d="M277.509 253.505L221.297 286.028V269.796L244.753 247.586L277.509 237.272V253.505Z" fill="black"/>
<path d="M277.509 237.273V224.381L231.416 197.718H209.189L152.977 230.241V243.133L199.069 269.796H221.297L277.509 237.273Z" fill="black"/>
<path d="M199.069 286.029L152.977 259.366V243.134L199.069 269.797V286.029Z" fill="black"/>
<path d="M221.414 282.278H198.543L191.582 232.526L211.002 224.85L230.012 232.644L221.414 282.278Z" fill="#313131"/>
<path d="M279.264 248.818L221.414 282.279V234.93L245.572 212.076L279.264 201.469V248.818Z" fill="#1C1C1C"/>
<path d="M279.264 201.469V188.283L231.826 160.8H209.013L151.105 194.261V207.504L198.543 234.929H221.414L279.264 201.469Z" fill="#272727"/>
<path d="M198.543 282.278L151.105 254.853V207.504L198.543 234.929V282.278Z" fill="#3D3D3D"/>
<path d="M221.297 233.348H199.069L192.284 214.772L211.178 207.329L229.603 214.889L221.297 233.348Z" fill="#313131"/>
<path d="M277.509 200.883L221.297 233.348V217.115L244.753 194.906L277.509 184.592V200.883Z" fill="#1C1C1C"/>
<path d="M277.509 184.592V171.758L231.416 145.095H209.189L152.977 177.618V190.452L199.069 217.115H221.297L277.509 184.592Z" fill="#272727"/>
<path d="M199.069 233.348L152.977 206.743V190.452L199.069 217.115V233.348Z" fill="#3D3D3D"/>
<path d="M199.069 233.348L182.048 223.503V215.826L199.069 225.671V233.348Z" fill="#C92222"/>
<path opacity="0.3" d="M225.45 211.49L193.922 212.427L152.977 188.753V204.985L199.069 231.648H221.297L277.509 199.125V182.893L225.45 211.49Z" fill="black"/>
<path d="M221.414 228.541H198.543L191.582 198.069L211.002 190.451L230.012 198.245L221.414 228.541Z" fill="#313131"/>
<path d="M279.264 195.081L221.414 228.542V200.531L245.572 177.677L279.264 167.07V195.081Z" fill="#1C1C1C"/>
<path d="M279.264 167.07V153.826L231.826 126.401H209.013L151.105 159.862V173.047L198.543 200.531H221.414L279.264 167.07Z" fill="#272727"/>
<path d="M198.543 228.541L151.105 201.175V173.047L198.543 200.53V228.541Z" fill="#3D3D3D"/>
<path d="M221.297 198.949H199.069L192.284 180.314L211.178 172.872L229.603 180.49L221.297 198.949Z" fill="#313131"/>
<path d="M277.509 166.425L221.297 198.948V182.657L244.753 160.448L277.509 150.192V166.425Z" fill="#1C1C1C"/>
<path d="M277.509 150.193V137.301L231.416 110.638H209.189L152.977 143.161V155.995L199.069 182.658H221.297L277.509 150.193Z" fill="#272727"/>
<path d="M199.069 198.949L152.977 172.286V155.995L199.069 182.658V198.949Z" fill="#3D3D3D"/>
<path d="M199.069 198.949L182.048 189.105V181.369L199.069 191.214V198.949Z" fill="#C92222"/>
<path opacity="0.3" d="M225.45 177.033L193.922 177.97L152.977 154.296V170.587L199.069 197.191H221.297L277.509 164.668V148.436L225.45 177.033Z" fill="black"/>
<path d="M221.414 194.319H198.543L191.582 163.847L211.002 156.17L230.012 163.964L221.414 194.319Z" fill="#313131"/>
<path d="M279.264 160.859L221.414 194.32V166.25L245.572 143.396L279.264 132.789V160.859Z" fill="#1C1C1C"/>
<path d="M279.264 132.789V119.545L231.826 92.1203H209.013L151.105 125.581V138.825L198.543 166.25H221.414L279.264 132.789Z" fill="#272727"/>
<path d="M198.543 194.32L151.105 166.895V138.825L198.543 166.25V194.32Z" fill="#3D3D3D"/>
<path d="M221.297 164.667H199.069L192.284 146.091L211.178 138.649L229.603 146.208L221.297 164.667Z" fill="#313131"/>
<path d="M277.509 132.144L221.297 164.667V148.435L244.753 126.225L277.509 115.911V132.144Z" fill="#1C1C1C"/>
<path d="M277.509 115.911V103.019L231.416 76.4143H209.189L152.977 108.938V121.771L199.069 148.434H221.297L277.509 115.911Z" fill="#272727"/>
<path d="M199.069 164.667L152.977 138.063V121.772L199.069 148.435V164.667Z" fill="#3D3D3D"/>
<path d="M199.069 164.666L182.048 154.821V147.145L199.069 156.99V164.666Z" fill="#C92222"/>
<path opacity="0.3" d="M225.45 142.809L193.922 143.747L152.977 120.072V136.305L199.069 162.968H221.297L277.509 130.444V114.212L225.45 142.809Z" fill="black"/>
<path d="M221.414 160.213H198.543L191.582 129.683L211.002 122.064L230.012 129.858L221.414 160.213Z" fill="#313131"/>
<path d="M279.264 126.695L221.414 160.214V132.086L245.572 109.29L279.264 98.625V126.695Z" fill="#1C1C1C"/>
<path d="M279.264 98.6248V85.4397L231.826 58.0146H209.013L151.105 91.4755V104.661L198.543 132.086H221.414L279.264 98.6248Z" fill="#272727"/>
<path d="M198.543 160.213L151.105 132.73V104.66L198.543 132.085V160.213Z" fill="#3D3D3D"/>
<path d="M221.297 130.153H199.069L192.284 125.23L211.178 117.788L228.316 124.82L221.297 130.153Z" fill="#313131"/>
<path d="M277.509 97.6292L221.297 130.152V127.574L244.753 105.364L277.509 95.0508V97.6292Z" fill="#1C1C1C"/>
<path d="M277.509 95.0504V82.2169L231.416 55.5537H209.189L152.977 88.077V100.91L199.069 127.574H221.297L277.509 95.0504Z" fill="#272727"/>
<path fill-rule="evenodd" clip-rule="evenodd" d="M194.202 81.1703C195.764 81.153 196.996 81.8641 196.966 82.7661L196.44 99.478L209.749 91.7942C210.86 91.1524 212.663 91.1351 213.729 91.7508L214.24 92.0457C214.631 90.051 216.163 88.091 218.836 86.5473C224.965 83.0089 234.774 82.9135 240.692 86.3305C246.566 89.7214 246.43 95.3499 240.392 98.8883L240.212 98.9924C234.083 102.479 224.349 102.548 218.476 99.1571L211.641 95.2111L195.478 104.543C194.652 105.02 193.451 105.176 192.414 104.924C192.069 104.846 191.768 104.742 191.513 104.595L191.483 104.577C191.002 104.283 190.702 103.884 190.732 103.45L191.348 82.8181C191.363 82.3758 191.678 81.9855 192.159 81.6907L192.249 81.6386C192.76 81.3611 193.451 81.1703 194.202 81.1703ZM236.652 88.6634C232.881 86.4866 226.647 86.5473 222.742 88.8021C218.851 91.0483 218.746 94.6474 222.517 96.8242C226.272 98.9924 232.506 98.9316 236.396 96.6855C240.302 94.4306 240.407 90.8315 236.652 88.6634ZM219.783 78.0222C221.345 78.0049 222.577 78.716 222.532 79.6093C222.532 80.0602 222.201 80.4592 221.675 80.7627C221.165 81.0576 220.459 81.2571 219.678 81.2571C217.064 81.2917 214.57 81.8988 212.678 82.9916C210.8 84.0756 209.734 85.5239 209.689 87.0243C209.673 87.4839 209.343 87.8829 208.817 88.1864C208.307 88.4813 207.616 88.672 206.819 88.6807C205.287 88.6981 204.056 87.9869 204.071 87.0937C204.146 84.7087 205.828 82.4539 208.787 80.7454C211.761 79.0282 215.667 78.0569 219.783 78.0222Z" fill="#757575"/>
<path d="M199.069 130.153L152.977 103.49V100.911L199.069 127.574V130.153Z" fill="#3D3D3D"/>
<path d="M444.297 286.028H422.069L415.284 267.393L434.178 260.01L452.603 267.569L444.297 286.028Z" fill="black"/>
<path d="M500.509 253.505L444.297 286.028V269.796L467.753 247.586L500.509 237.272V253.505Z" fill="black"/>
<path d="M500.509 237.273V224.381L454.416 197.718H432.189L375.977 230.241V243.133L422.069 269.796H444.297L500.509 237.273Z" fill="black"/>
<path d="M422.069 286.029L375.977 259.366V243.134L422.069 269.797V286.029Z" fill="black"/>
<path d="M444.414 282.278H421.543L414.582 232.526L434.002 224.85L453.012 232.644L444.414 282.278Z" fill="#313131"/>
<path d="M502.264 248.818L444.414 282.279V234.93L468.572 212.076L502.264 201.469V248.818Z" fill="#1C1C1C"/>
<path d="M502.264 201.469V188.283L454.826 160.8H432.013L374.105 194.261V207.504L421.543 234.929H444.414L502.264 201.469Z" fill="#272727"/>
<path d="M421.543 282.278L374.105 254.853V207.504L421.543 234.929V282.278Z" fill="#3D3D3D"/>
<path d="M444.297 233.348H422.069L415.284 214.772L434.178 207.329L452.603 214.889L444.297 233.348Z" fill="#313131"/>
<path d="M500.509 200.883L444.297 233.348V217.115L467.753 194.906L500.509 184.592V200.883Z" fill="#1C1C1C"/>
<path d="M500.509 184.592V171.758L454.416 145.095H432.189L375.977 177.618V190.452L422.069 217.115H444.297L500.509 184.592Z" fill="#272727"/>
<path d="M422.069 233.348L375.977 206.743V190.452L422.069 217.115V233.348Z" fill="#3D3D3D"/>
<path d="M422.069 233.348L405.048 223.503V215.826L422.069 225.671V233.348Z" fill="#C92222"/>
<path opacity="0.3" d="M448.45 211.49L416.922 212.427L375.977 188.753V204.985L422.069 231.648H444.297L500.509 199.125V182.893L448.45 211.49Z" fill="black"/>
<path d="M444.414 228.541H421.543L414.582 198.069L434.002 190.451L453.012 198.245L444.414 228.541Z" fill="#313131"/>
<path d="M502.264 195.081L444.414 228.542V200.531L468.572 177.677L502.264 167.07V195.081Z" fill="#1C1C1C"/>
<path d="M502.264 167.07V153.826L454.826 126.401H432.013L374.105 159.862V173.047L421.543 200.531H444.414L502.264 167.07Z" fill="#272727"/>
<path d="M421.543 228.541L374.105 201.175V173.047L421.543 200.53V228.541Z" fill="#3D3D3D"/>
<path d="M444.297 198.949H422.069L415.284 180.314L434.178 172.872L452.603 180.49L444.297 198.949Z" fill="#313131"/>
<path d="M500.509 166.425L444.297 198.948V182.657L467.753 160.448L500.509 150.192V166.425Z" fill="#1C1C1C"/>
<path d="M500.509 150.193V137.301L454.416 110.638H432.189L375.977 143.161V155.995L422.069 182.658H444.297L500.509 150.193Z" fill="#272727"/>
<path d="M422.069 198.949L375.977 172.286V155.995L422.069 182.658V198.949Z" fill="#3D3D3D"/>
<path d="M422.069 198.949L405.048 189.105V181.369L422.069 191.214V198.949Z" fill="#C92222"/>
<path opacity="0.3" d="M448.45 177.033L416.922 177.97L375.977 154.296V170.587L422.069 197.191H444.297L500.509 164.668V148.436L448.45 177.033Z" fill="black"/>
<path d="M444.414 194.319H421.543L414.582 163.847L434.002 156.17L453.012 163.964L444.414 194.319Z" fill="#313131"/>
<path d="M502.264 160.859L444.414 194.32V166.25L468.572 143.396L502.264 132.789V160.859Z" fill="#1C1C1C"/>
<path d="M502.264 132.789V119.545L454.826 92.1203H432.013L374.105 125.581V138.825L421.543 166.25H444.414L502.264 132.789Z" fill="#272727"/>
<path d="M421.543 194.32L374.105 166.895V138.825L421.543 166.25V194.32Z" fill="#3D3D3D"/>
<path d="M444.297 164.667H422.069L415.284 146.091L434.178 138.649L452.603 146.208L444.297 164.667Z" fill="#313131"/>
<path d="M500.509 132.144L444.297 164.667V148.435L467.753 126.225L500.509 115.911V132.144Z" fill="#1C1C1C"/>
<path d="M500.509 115.911V103.019L454.416 76.4143H432.189L375.977 108.938V121.771L422.069 148.434H444.297L500.509 115.911Z" fill="#272727"/>
<path d="M422.069 164.667L375.977 138.063V121.772L422.069 148.435V164.667Z" fill="#3D3D3D"/>
<path d="M422.069 164.666L405.048 154.821V147.145L422.069 156.99V164.666Z" fill="#C92222"/>
<path opacity="0.3" d="M448.45 142.809L416.922 143.747L375.977 120.072V136.305L422.069 162.968H444.297L500.509 130.444V114.212L448.45 142.809Z" fill="black"/>
<path d="M444.414 160.213H421.543L414.582 129.683L434.002 122.064L453.012 129.858L444.414 160.213Z" fill="#313131"/>
<path d="M502.264 126.695L444.414 160.214V132.086L468.572 109.29L502.264 98.625V126.695Z" fill="#1C1C1C"/>
<path d="M502.264 98.6248V85.4397L454.826 58.0146H432.013L374.105 91.4755V104.661L421.543 132.086H444.414L502.264 98.6248Z" fill="#272727"/>
<path d="M421.543 160.213L374.105 132.73V104.66L421.543 132.085V160.213Z" fill="#3D3D3D"/>
<path d="M444.297 130.153H422.069L415.284 125.23L434.178 117.788L451.316 124.82L444.297 130.153Z" fill="#313131"/>
<path d="M500.509 97.6292L444.297 130.152V127.574L467.753 105.364L500.509 95.0508V97.6292Z" fill="#1C1C1C"/>
<path d="M500.509 95.0504V82.2169L454.416 55.5537H432.189L375.977 88.077V100.91L422.069 127.574H444.297L500.509 95.0504Z" fill="#272727"/>
<path fill-rule="evenodd" clip-rule="evenodd" d="M417.202 81.1703C418.764 81.153 419.996 81.8641 419.966 82.7661L419.44 99.478L432.749 91.7942C433.86 91.1524 435.663 91.1351 436.729 91.7508L437.24 92.0457C437.631 90.051 439.163 88.091 441.836 86.5473C447.965 83.0089 457.774 82.9135 463.692 86.3305C469.566 89.7214 469.43 95.3499 463.392 98.8883L463.212 98.9924C457.083 102.479 447.349 102.548 441.476 99.1571L434.641 95.2111L418.478 104.543C417.652 105.02 416.451 105.176 415.414 104.924C415.069 104.846 414.768 104.742 414.513 104.595L414.483 104.577C414.002 104.283 413.702 103.884 413.732 103.45L414.348 82.8181C414.363 82.3758 414.678 81.9855 415.159 81.6907L415.249 81.6386C415.76 81.3611 416.451 81.1703 417.202 81.1703ZM459.652 88.6634C455.881 86.4866 449.647 86.5473 445.742 88.8021C441.851 91.0483 441.746 94.6474 445.517 96.8242C449.272 98.9924 455.506 98.9316 459.396 96.6855C463.302 94.4306 463.407 90.8315 459.652 88.6634ZM442.783 78.0222C444.345 78.0049 445.577 78.716 445.532 79.6093C445.532 80.0602 445.201 80.4592 444.675 80.7627C444.165 81.0576 443.459 81.2571 442.678 81.2571C440.064 81.2917 437.57 81.8988 435.678 82.9916C433.8 84.0756 432.734 85.5239 432.689 87.0243C432.673 87.4839 432.343 87.8829 431.817 88.1864C431.307 88.4813 430.616 88.672 429.819 88.6807C428.287 88.6981 427.056 87.9869 427.071 87.0937C427.146 84.7087 428.828 82.4539 431.787 80.7454C434.761 79.0282 438.667 78.0569 442.783 78.0222Z" fill="#757575"/>
<path d="M422.069 130.153L375.977 103.49V100.911L422.069 127.574V130.153Z" fill="#3D3D3D"/>
</g>
<defs>
<clipPath id="clip0_1230_74412">
<rect width="530" height="297" fill="white" transform="translate(0 0.445312)"/>
</clipPath>
</defs>
</svg>
