<svg width="44" height="44" viewBox="0 0 44 44" fill="none" xmlns="http://www.w3.org/2000/svg">
<rect width="44" height="44" rx="12" fill="#F4F4F4"/>
<path opacity="0.12" d="M23.9087 12H20.0913C18.2735 12 17.3645 12 16.6126 12.3208C15.9493 12.6037 15.3748 13.0607 14.9499 13.6434C14.4683 14.304 14.2639 15.1896 13.8552 16.9609L12 25L13.3243 24.3378C13.5763 24.2118 13.7023 24.1488 13.8344 24.1044C13.9516 24.065 14.0723 24.0365 14.1948 24.0193C14.3328 24 14.4737 24 14.7554 24H29.2446C29.5263 24 29.6672 24 29.8052 24.0193C29.9277 24.0365 30.0484 24.065 30.1656 24.1044C30.2977 24.1488 30.4237 24.2118 30.6757 24.3378L32 25L30.1448 16.9609C29.7361 15.1896 29.5317 14.304 29.0501 13.6434C28.6252 13.0607 28.0507 12.6037 27.3874 12.3208C26.6355 12 25.7265 12 23.9087 12Z" fill="black"/>
<path fill-rule="evenodd" clip-rule="evenodd" d="M20.0913 11.25H20.0626H20.0626C19.178 11.25 18.4735 11.25 17.8976 11.2921C17.3061 11.3353 16.7999 11.4255 16.3184 11.6309C15.5307 11.9669 14.8485 12.5096 14.344 13.2016C14.0356 13.6245 13.8339 14.0975 13.6587 14.6642C13.4882 15.2158 13.3298 15.9023 13.1309 16.7643L13.1244 16.7923L11.4332 24.1211L11.4274 24.1461C11.3715 24.3884 11.3354 24.5447 11.3098 24.7046C11.2871 24.8465 11.2708 24.9893 11.261 25.1326C11.25 25.2942 11.25 25.4546 11.25 25.7033L11.25 25.7289V27C11.25 27.0315 11.252 27.0626 11.2558 27.093C11.2498 27.3287 11.2499 27.5896 11.25 27.8842L11.25 28L11.25 28.1158C11.2498 28.9338 11.2496 29.4919 11.3778 29.9706C11.7246 31.2647 12.7354 32.2755 14.0295 32.6222C14.5081 32.7505 15.0663 32.7503 15.8842 32.75H15.8843L16 32.75H28L28.1158 32.75H28.1159C28.9338 32.7503 29.492 32.7505 29.9706 32.6222C31.2647 32.2755 32.2755 31.2647 32.6223 29.9706C32.7505 29.4919 32.7503 28.9338 32.7501 28.1158V28.1158L32.75 28L32.7501 27.8842V27.8842C32.7502 27.5896 32.7503 27.3287 32.7443 27.093C32.7481 27.0626 32.75 27.0315 32.75 27V25.7289V25.7033C32.7501 25.4546 32.7501 25.2942 32.7391 25.1326C32.7293 24.9893 32.713 24.8465 32.6903 24.7046C32.6647 24.5447 32.6286 24.3884 32.5727 24.1461L32.5669 24.1211L30.8757 16.7923L30.8692 16.7644L30.8692 16.7643L30.8692 16.7642L30.8692 16.7642C30.6703 15.9023 30.5119 15.2158 30.3414 14.6642C30.1662 14.0975 29.9645 13.6245 29.6561 13.2016C29.1516 12.5096 28.4694 11.9669 27.6817 11.6309C27.2002 11.4255 26.694 11.3353 26.1025 11.2921C25.5266 11.25 24.8221 11.25 23.9375 11.25H23.9375H23.9088H20.0913ZM30.9531 23.7986L29.4141 17.1295C29.2073 16.2333 29.0607 15.6003 28.9083 15.1071C28.7586 14.623 28.6173 14.3229 28.4441 14.0853C28.0989 13.6118 27.6321 13.2405 27.0932 13.0106C26.8227 12.8952 26.4985 12.825 25.9931 12.7881C25.4783 12.7505 24.8285 12.75 23.9088 12.75H20.0913C19.1716 12.75 18.5218 12.7505 18.007 12.7881C17.5016 12.825 17.1774 12.8952 16.9069 13.0106C16.368 13.2405 15.9012 13.6118 15.556 14.0853C15.3828 14.3229 15.2415 14.623 15.0918 15.1071C14.9394 15.6003 14.7928 16.2333 14.586 17.1295L13.047 23.7986C13.3486 23.6146 13.6786 23.4718 14.0295 23.3778C14.5081 23.2495 15.0663 23.2497 15.8843 23.25L16 23.25H28L28.1158 23.25C28.9338 23.2497 29.492 23.2495 29.9706 23.3778C30.3215 23.4718 30.6515 23.6146 30.9531 23.7986ZM17 29C17.5523 29 18 28.5523 18 28C18 27.4477 17.5523 27 17 27C16.4478 27 16 27.4477 16 28C16 28.5523 16.4478 29 17 29ZM20.25 28C20.25 27.5858 20.5858 27.25 21 27.25H27C27.4143 27.25 27.75 27.5858 27.75 28C27.75 28.4142 27.4143 28.75 27 28.75H21C20.5858 28.75 20.25 28.4142 20.25 28ZM12.8267 29.5823C12.7565 29.3203 12.75 28.9783 12.75 28C12.75 27.0217 12.7565 26.6797 12.8267 26.4177C13.0348 25.6412 13.6412 25.0347 14.4177 24.8267C14.6798 24.7564 15.0218 24.75 16 24.75H28C28.9783 24.75 29.3203 24.7564 29.5824 24.8267C30.3589 25.0347 30.9653 25.6412 31.1734 26.4177C31.2436 26.6797 31.25 27.0217 31.25 28C31.25 28.9783 31.2436 29.3203 31.1734 29.5823C30.9653 30.3588 30.3589 30.9653 29.5824 31.1733C29.3203 31.2436 28.9783 31.25 28 31.25H16C15.0218 31.25 14.6798 31.2436 14.4177 31.1733C13.6412 30.9653 13.0348 30.3588 12.8267 29.5823Z" fill="black"/>
</svg>
