<svg width="44" height="44" viewBox="0 0 44 44" fill="none" xmlns="http://www.w3.org/2000/svg">
<rect width="44" height="44" rx="12" fill="#F4F4F4"/>
<path opacity="0.12" fill-rule="evenodd" clip-rule="evenodd" d="M13.1022 14.2235C13 14.605 13 15.07 13 16C13 16.93 13 17.395 13.1022 17.7765C13.3796 18.8117 14.1883 19.6204 15.2235 19.8978C15.605 20 16.07 20 17 20L27 20C27.93 20 28.395 20 28.7765 19.8978C29.8117 19.6204 30.6204 18.8117 30.8978 17.7765C31 17.395 31 16.93 31 16C31 15.07 31 14.605 30.8978 14.2235C30.6204 13.1883 29.8117 12.3796 28.7765 12.1022C28.395 12 27.93 12 27 12L17 12C16.07 12 15.605 12 15.2235 12.1022C14.1883 12.3796 13.3796 13.1883 13.1022 14.2235ZM13.1022 25.2235C13 25.605 13 26.07 13 27C13 27.93 13 28.395 13.1022 28.7765C13.3796 29.8117 14.1883 30.6204 15.2235 30.8978C15.605 31 16.07 31 17 31L27 31C27.93 31 28.395 31 28.7765 30.8978C29.8117 30.6204 30.6204 29.8117 30.8978 28.7765C31 28.395 31 27.93 31 27C31 26.07 31 25.605 30.8978 25.2235C30.6204 24.1883 29.8117 23.3796 28.7765 23.1022C28.395 23 27.93 23 27 23L17 23C16.07 23 15.605 23 15.2235 23.1022C14.1883 23.3796 13.3796 24.1883 13.1022 25.2235Z" fill="black"/>
<path fill-rule="evenodd" clip-rule="evenodd" d="M17 11.25L16.8843 11.25C16.0663 11.2498 15.5081 11.2496 15.0295 11.3778C13.7354 11.7246 12.7246 12.7354 12.3778 14.0295C12.2496 14.5081 12.2498 15.0663 12.25 15.8843L12.2501 16L12.25 16.1158C12.2498 16.9338 12.2496 17.492 12.3778 17.9706C12.7246 19.2647 13.7354 20.2755 15.0295 20.6223C15.5081 20.7505 16.0663 20.7503 16.8843 20.7501L17.0001 20.75L27.0001 20.75L27.1158 20.7501C27.9338 20.7503 28.492 20.7505 28.9706 20.6223C30.2647 20.2755 31.2755 19.2647 31.6223 17.9706C31.7505 17.492 31.7503 16.9338 31.7501 16.1159L31.7501 16.1159L31.7501 16.1159L31.7501 16.1158L31.7501 16L31.7501 15.8843L31.7501 15.8842L31.7501 15.8842L31.7501 15.8842C31.7503 15.0663 31.7505 14.5081 31.6223 14.0295C31.2755 12.7354 30.2647 11.7246 28.9706 11.3778C28.492 11.2496 27.9338 11.2498 27.1158 11.25L27 11.25L17 11.25ZM13.8267 17.5824C13.7565 17.3203 13.7501 16.9783 13.7501 16C13.7501 15.0218 13.7565 14.6798 13.8267 14.4177C14.0348 13.6412 14.6412 13.0348 15.4177 12.8267C15.6798 12.7565 16.0218 12.75 17 12.75L27 12.75C27.9783 12.75 28.3203 12.7565 28.5824 12.8267C29.3589 13.0348 29.9653 13.6412 30.1734 14.4177C30.2436 14.6798 30.2501 15.0218 30.2501 16C30.2501 16.9783 30.2436 17.3203 30.1734 17.5824C29.9653 18.3588 29.3589 18.9653 28.5824 19.1734C28.3203 19.2436 27.9783 19.25 27.0001 19.25L17.0001 19.25C16.0218 19.25 15.6798 19.2436 15.4177 19.1734C14.6413 18.9653 14.0348 18.3588 13.8267 17.5824ZM17.0001 22.25L16.8843 22.25C16.0663 22.2498 15.5081 22.2496 15.0295 22.3778C13.7354 22.7246 12.7246 23.7354 12.3778 25.0295C12.2496 25.5081 12.2498 26.0663 12.25 26.8843L12.2501 27L12.25 27.1158C12.2498 27.9338 12.2496 28.492 12.3778 28.9706C12.7246 30.2647 13.7354 31.2755 15.0295 31.6223C15.5081 31.7505 16.0663 31.7503 16.8842 31.7501L16.8843 31.7501L17.0001 31.75L27.0001 31.75L27.1159 31.7501L27.1159 31.7501C27.9338 31.7503 28.492 31.7505 28.9706 31.6223C30.2647 31.2755 31.2755 30.2647 31.6223 28.9706C31.7505 28.492 31.7503 27.9338 31.7501 27.1159L31.7501 27.1159L31.7501 27.1159L31.7501 27.1158L31.7501 27L31.7501 26.8843L31.7501 26.8842L31.7501 26.8842L31.7501 26.8842C31.7503 26.0663 31.7505 25.5081 31.6223 25.0295C31.2755 23.7354 30.2647 22.7246 28.9706 22.3778C28.492 22.2496 27.9338 22.2498 27.1158 22.25L27.0001 22.25L17.0001 22.25ZM13.8267 28.5824C13.7565 28.3203 13.7501 27.9783 13.7501 27C13.7501 26.0218 13.7565 25.6798 13.8267 25.4177C14.0348 24.6412 14.6413 24.0348 15.4177 23.8267C15.6798 23.7565 16.0218 23.75 17.0001 23.75L27.0001 23.75C27.9783 23.75 28.3203 23.7565 28.5824 23.8267C29.3589 24.0348 29.9653 24.6412 30.1734 25.4177C30.2436 25.6798 30.2501 26.0218 30.2501 27C30.2501 27.9783 30.2436 28.3203 30.1734 28.5824C29.9653 29.3588 29.3589 29.9653 28.5824 30.1734C28.3203 30.2436 27.9783 30.25 27.0001 30.25L17.0001 30.25C16.0218 30.25 15.6798 30.2436 15.4177 30.1734C14.6413 29.9653 14.0348 29.3588 13.8267 28.5824ZM28.0001 16C28.0001 16.5523 27.5523 17 27.0001 17C26.4478 17 26.0001 16.5523 26.0001 16C26.0001 15.4478 26.4478 15 27.0001 15C27.5523 15 28.0001 15.4478 28.0001 16ZM27.0001 28C27.5523 28 28.0001 27.5523 28.0001 27C28.0001 26.4478 27.5523 26 27.0001 26C26.4478 26 26.0001 26.4478 26.0001 27C26.0001 27.5523 26.4478 28 27.0001 28Z" fill="black"/>
</svg>
