<svg width="807" height="596" viewBox="0 0 807 596" fill="none" xmlns="http://www.w3.org/2000/svg">
<rect width="807" height="596" fill="black"/>
<path d="M484.656 254.443L448.508 234.628L422.73 248.994L422 247.72L448.508 233L484.656 252.815L508.828 239.299L509.558 240.502L484.656 254.443Z" fill="#272727"/>
<path d="M564.656 300.443L528.508 280.628L502.73 294.994L502 293.72L528.508 279L564.656 298.815L588.828 285.299L589.558 286.502L564.656 300.443Z" fill="#272727"/>
<path d="M314.017 445.337L278.238 424.696L252.723 439.66L252 438.333L278.238 423L314.017 443.641L337.942 429.561L338.665 430.814L314.017 445.337Z" fill="#272727"/>
<path fill-rule="evenodd" clip-rule="evenodd" d="M337.35 431.423L337.012 431.22L172.846 336.855L173.86 336.248L374.658 220.568L374.996 220.77L539.162 315.136L538.148 315.743L337.35 431.423ZM175.55 336.855L337.35 429.871L536.391 315.136L374.658 222.12L175.55 336.855Z" fill="#272727"/>
<path d="M493.729 462.542L390 401.386L390.885 400L494.534 461.155L493.729 462.542Z" fill="#272727"/>
<path d="M599.729 400.542L496 339.386L496.885 338L600.534 399.156L599.729 400.542Z" fill="#272727"/>
<path d="M538 200.762V205.766L570.79 224.707V219.793L538 200.762Z" fill="#484848"/>
<path d="M635.833 224.171L603.043 243.469L603.133 337.282L635.833 318.698V224.171Z" fill="#1C1C1C"/>
<path d="M538 205.766L603.043 243.47L603.133 337.282L538.089 299.757L538 205.766Z" fill="#3D3D3D"/>
<path d="M635.922 318.43L603.133 337.282V342.196L635.922 323.165V318.43Z" fill="#484848"/>
<path d="M603.133 337.282V342.196L538.089 304.671V299.757L603.133 337.282Z" fill="#484848"/>
<path d="M603.043 238.466L635.744 219.436L635.833 224.171L603.043 243.38V238.466Z" fill="#484848"/>
<path d="M570.254 219.525V224.439L603.043 243.469V238.466L570.254 219.525Z" fill="#484848"/>
<path d="M603.043 238.824L538 200.762L570.611 182L635.744 219.436L603.043 238.824Z" fill="#282828"/>
<path d="M577.491 219.614L580.439 221.401L602.865 234.714L625.558 221.312L628.507 219.525L602.954 204.962L577.491 219.614Z" fill="black"/>
<path d="M580.439 221.401L602.865 234.713L625.558 221.312L602.954 208.446L580.439 221.401Z" fill="#161616"/>
<path d="M545.505 201.209L548.453 202.996L570.968 216.219L593.573 202.817L596.61 201.12L570.968 186.557L545.505 201.209Z" fill="black"/>
<path d="M548.453 202.996L570.968 216.219L593.573 202.817L570.968 190.041L548.453 202.996Z" fill="#161616"/>
<path d="M586.425 243.738V258.748L572.845 250.885L585.978 258.479V243.469L586.425 243.738Z" fill="black"/>
<path d="M586.425 243.291V258.39L572.845 250.438V235.428L586.425 243.291Z" fill="black"/>
<path d="M586.068 243.38L572.845 235.786V249.902L572.04 250.349V235.339L586.068 243.38Z" fill="black"/>
<path d="M586.425 257.586V258.569L572.219 250.26L572.845 249.813L586.425 257.586Z" fill="black"/>
<path d="M585.978 243.38L572.845 235.786V249.991L572.04 250.349V235.339L585.978 243.38Z" fill="#484848"/>
<path d="M586.425 257.675V258.658L572.13 250.26L572.845 249.902L586.425 257.675Z" fill="black"/>
<path d="M579.367 239.449V253.655L578.563 254.012V239.002L579.367 239.449Z" fill="#484848"/>
<path d="M578.027 238.288V253.744L578.563 254.012V239.002L578.027 238.288Z" fill="black"/>
<path fill-rule="evenodd" clip-rule="evenodd" d="M586.425 243.201V259.284L571.504 250.617V234.535L586.425 243.201ZM585.889 243.559L572.13 235.607V250.349L585.889 258.301V243.559Z" fill="#606060"/>
<path d="M586.425 268.308V283.407L572.845 275.545L585.978 283.139V268.04L586.425 268.308Z" fill="black"/>
<path d="M586.425 267.95V283.05L572.845 275.098V260.088L586.425 267.95Z" fill="black"/>
<path d="M586.068 268.04L572.845 260.445V274.562L572.04 275.009V259.999L586.068 268.04Z" fill="black"/>
<path d="M586.425 282.156V283.228L572.219 274.919L572.845 274.473L586.425 282.156Z" fill="black"/>
<path d="M585.978 268.04L572.845 260.445V274.562L572.04 275.009V259.999L585.978 268.04Z" fill="#484848"/>
<path d="M586.425 282.246V283.318L572.13 274.919L572.845 274.562L586.425 282.246Z" fill="black"/>
<path d="M579.367 264.108V278.314L578.563 278.672V263.662L579.367 264.108Z" fill="#484848"/>
<path d="M578.027 262.947V278.404L578.563 278.672V263.662L578.027 262.947Z" fill="black"/>
<path fill-rule="evenodd" clip-rule="evenodd" d="M586.425 267.861V283.943L571.504 275.276V259.194L586.425 267.861ZM585.889 268.218L572.13 260.266V275.008L585.889 282.96V268.218Z" fill="#606060"/>
<path d="M586.425 292.967V308.066L572.845 300.114L585.978 307.798V292.698L586.425 292.967Z" fill="black"/>
<path d="M586.425 292.52V307.619L572.845 299.757V284.657L586.425 292.52Z" fill="black"/>
<path d="M586.068 292.698L572.845 285.104V299.131L572.04 299.667V284.568L586.068 292.698Z" fill="black"/>
<path d="M586.425 306.815V307.798L572.219 299.489L572.845 299.131L586.425 306.815Z" fill="black"/>
<path d="M585.978 292.698L572.845 285.015V299.22L572.04 299.667V284.568L585.978 292.698Z" fill="#484848"/>
<path d="M586.425 306.904V307.887L572.13 299.578L572.845 299.131L586.425 306.904Z" fill="black"/>
<path d="M579.367 288.767V302.884L578.563 303.331V288.321L579.367 288.767Z" fill="#484848"/>
<path d="M578.027 287.606V302.973L578.563 303.331V288.321L578.027 287.606Z" fill="black"/>
<path fill-rule="evenodd" clip-rule="evenodd" d="M586.425 292.431V308.513L571.504 299.846V283.854L586.425 292.431ZM585.889 292.699L572.13 284.747V299.489L585.889 307.53V292.699Z" fill="#606060"/>
<path d="M563.195 229.62V244.898L558.103 241.861V226.583L563.195 229.62Z" fill="black"/>
<path d="M558.192 227.03V241.325L557.299 241.772V226.494L558.192 227.03Z" fill="black"/>
<path d="M563.195 244.184V245.077L557.477 241.682L558.192 241.236L563.195 244.184Z" fill="black"/>
<path d="M558.103 227.03V241.325L557.299 241.772V226.494L558.103 227.03Z" fill="#484848"/>
<path d="M563.195 244.273V245.166L557.388 241.682L558.103 241.324L563.195 244.273Z" fill="black"/>
<path fill-rule="evenodd" clip-rule="evenodd" d="M563.91 229.978V246.15L556.852 242.04V225.868L563.91 229.978ZM563.106 230.067L557.299 226.672V241.682L563.106 244.988V230.067Z" fill="#606060"/>
<path d="M563.195 254.28V269.558L558.103 266.52V251.242L563.195 254.28Z" fill="black"/>
<path d="M558.192 251.689V265.984L557.388 266.431V251.153L558.192 251.689Z" fill="black"/>
<path d="M563.195 268.843V269.737L557.477 266.342L558.192 265.895L563.195 268.843Z" fill="black"/>
<path d="M558.103 251.689V265.984L557.299 266.431V251.153L558.103 251.689Z" fill="#484848"/>
<path d="M563.195 268.932V269.826L557.477 266.341L558.103 265.984L563.195 268.932Z" fill="black"/>
<path fill-rule="evenodd" clip-rule="evenodd" d="M563.999 254.637V270.809L556.852 266.699V250.527L563.999 254.637ZM563.195 254.727L557.477 251.421V266.341L563.195 269.737V254.727Z" fill="#606060"/>
<path d="M563.195 278.939V294.217L558.103 291.18V275.902L563.195 278.939Z" fill="black"/>
<path d="M558.192 276.349V290.554L557.388 291.091V275.812L558.192 276.349Z" fill="black"/>
<path d="M563.195 293.503V294.396L557.477 291.001L558.192 290.554L563.195 293.503Z" fill="black"/>
<path d="M558.103 276.349V290.644L557.299 291.091V275.812L558.103 276.349Z" fill="#484848"/>
<path d="M563.195 293.592V294.485L557.477 291.001L558.103 290.644L563.195 293.592Z" fill="black"/>
<path fill-rule="evenodd" clip-rule="evenodd" d="M563.999 279.297V295.468L556.852 291.358V275.187L563.999 279.297ZM563.195 279.386L557.477 275.991V291.001L563.195 294.307V279.386Z" fill="#606060"/>
<path d="M548.632 290.644L554.976 286.981V292.878L548.632 296.63V290.644Z" fill="#1C1C1C"/>
<path d="M554.976 286.981L553.457 286.087L548.453 288.946L548.632 290.644L554.976 286.981Z" fill="#484848"/>
<path d="M563.106 297.434L568.109 294.575V303.063L563.106 306.011V297.434Z" fill="#1C1C1C"/>
<path d="M563.106 297.434L548.453 288.947V297.524L563.106 306.011V297.434Z" fill="#2D2D2D"/>
<path d="M548.453 288.946L549.883 288.142L564.536 296.63L563.106 297.434L548.453 288.946Z" fill="#484848"/>
<path d="M568.109 294.575L566.59 293.592L561.587 296.541L563.106 297.434L568.109 294.575Z" fill="#484848"/>
<path d="M548.632 266.074L555.065 262.322V268.218L548.632 271.971V266.074Z" fill="#1C1C1C"/>
<path d="M555.065 262.322L553.457 261.428L548.453 264.287L548.632 266.074L555.065 262.322Z" fill="#484848"/>
<path d="M563.195 272.775L568.109 269.916L568.199 278.404L563.195 281.352V272.775Z" fill="#1C1C1C"/>
<path d="M563.195 272.775L548.453 264.287V272.864L563.195 281.352V272.775Z" fill="#2D2D2D"/>
<path d="M548.453 264.287L549.883 263.483L564.536 271.971L563.195 272.775L548.453 264.287Z" fill="#484848"/>
<path d="M568.109 269.916L566.59 269.022L561.587 271.882L563.195 272.775L568.109 269.916Z" fill="#484848"/>
<path d="M548.632 241.415L555.065 237.662V243.559L548.632 247.311V241.415Z" fill="#1C1C1C"/>
<path d="M555.065 237.662L553.457 236.769L548.453 239.628L548.632 241.415L555.065 237.662Z" fill="#484848"/>
<path d="M563.195 248.116L568.109 245.257L568.199 253.744L563.195 256.693V248.116Z" fill="#1C1C1C"/>
<path d="M563.195 248.115L548.453 239.627V248.204L563.195 256.692V248.115Z" fill="#2D2D2D"/>
<path d="M548.453 239.628L549.883 238.823L564.536 247.311L563.195 248.115L548.453 239.628Z" fill="#484848"/>
<path d="M568.109 245.256L566.59 244.363L561.587 247.222L563.195 248.116L568.109 245.256Z" fill="#484848"/>
<path d="M612.514 247.758V262.857L626.094 254.905L612.961 262.499V247.49L612.514 247.758Z" fill="black"/>
<path d="M612.514 247.311V262.41L626.094 254.458V239.448L612.514 247.311Z" fill="black"/>
<path d="M612.871 247.4L626.094 239.806V253.922L626.898 254.369V239.359L612.871 247.4Z" fill="black"/>
<path d="M612.514 261.606V262.589L626.72 254.28L626.094 253.923L612.514 261.606Z" fill="black"/>
<path d="M612.961 247.4L626.094 239.806V254.011L626.898 254.369V239.359L612.961 247.4Z" fill="#484848"/>
<path d="M612.514 261.696V262.678L626.809 254.369L626.094 253.923L612.514 261.696Z" fill="black"/>
<path d="M619.572 243.558V257.675L620.376 258.122V243.022L619.572 243.558Z" fill="#484848"/>
<path d="M620.912 242.397V257.764L620.376 258.122V243.022L620.912 242.397Z" fill="black"/>
<path fill-rule="evenodd" clip-rule="evenodd" d="M627.435 238.644V254.637L612.514 263.304V247.221L627.435 238.644ZM613.05 262.41L626.809 254.369V239.627L613.05 247.579V262.41Z" fill="#606060"/>
<path d="M612.514 272.417V287.517L626.094 279.565L612.961 287.159V272.149L612.514 272.417Z" fill="black"/>
<path d="M612.514 271.97V287.07L626.094 279.118V264.108L612.514 271.97Z" fill="black"/>
<path d="M612.871 272.06L626.094 264.465V278.582L626.898 279.029V264.019L612.871 272.06Z" fill="black"/>
<path d="M612.514 286.266V287.249L626.72 278.939L626.094 278.582L612.514 286.266Z" fill="black"/>
<path d="M612.961 272.06L626.094 264.465V278.671L626.898 279.029V264.019L612.961 272.06Z" fill="#484848"/>
<path d="M612.514 286.355V287.338L626.809 278.939L626.094 278.582L612.514 286.355Z" fill="black"/>
<path d="M619.572 268.218V282.334L620.376 282.781V267.682L619.572 268.218Z" fill="#484848"/>
<path d="M620.912 266.967V282.424L620.376 282.781V267.682L620.912 266.967Z" fill="black"/>
<path fill-rule="evenodd" clip-rule="evenodd" d="M627.435 263.214V279.296L612.514 287.963V271.881L627.435 263.214ZM613.05 286.98L626.809 278.939V264.197L613.05 272.149V286.98Z" fill="#606060"/>
<path d="M612.514 296.987V312.086L626.094 304.224L612.961 311.818V296.719L612.514 296.987Z" fill="black"/>
<path d="M612.514 296.629V311.639L626.094 303.777V288.678L612.514 296.629Z" fill="black"/>
<path d="M612.871 296.719L626.094 289.124V303.152L626.898 303.688V288.588L612.871 296.719Z" fill="black"/>
<path d="M612.514 310.836V311.908L626.72 303.599L626.094 303.152L612.514 310.836Z" fill="black"/>
<path d="M612.961 296.719L626.094 289.124V303.241L626.898 303.688V288.588L612.961 296.719Z" fill="#484848"/>
<path d="M612.514 310.925V311.997L626.809 303.599L626.094 303.152L612.514 310.925Z" fill="black"/>
<path d="M619.572 292.788V306.993L620.376 307.351V292.341L619.572 292.788Z" fill="#484848"/>
<path d="M620.912 291.626V307.083L620.376 307.351V292.341L620.912 291.626Z" fill="black"/>
<path fill-rule="evenodd" clip-rule="evenodd" d="M627.435 287.874V303.956L612.514 312.622V296.54L627.435 287.874ZM613.05 311.55L626.809 303.599V288.767L613.05 296.719V311.55Z" fill="#606060"/>
<path d="M345.192 362.475H322.965L316.179 343.84L335.073 336.456L353.498 344.015L345.192 362.475Z" fill="black"/>
<path d="M401.404 329.951L345.192 362.474V346.242L368.648 324.032L401.404 313.719V329.951Z" fill="black"/>
<path d="M401.404 313.719V300.827L355.311 274.164H333.084L276.872 306.687V319.579L322.965 346.243H345.192L401.404 313.719Z" fill="black"/>
<path d="M322.965 362.476L276.872 335.812V319.58L322.965 346.243V362.476Z" fill="black"/>
<path d="M345.309 358.725H322.438L315.477 308.973L334.897 301.296L353.908 309.09L345.309 358.725Z" fill="#313131"/>
<path d="M403.159 325.264L345.309 358.725V311.376L369.467 288.522L403.159 277.915V325.264Z" fill="#1C1C1C"/>
<path d="M403.159 277.915V264.73L355.721 237.246H332.908L275 270.707V283.951L322.438 311.376H345.309L403.159 277.915Z" fill="#272727"/>
<path d="M322.438 358.724L275 331.299V283.95L322.438 311.375V358.724Z" fill="#3D3D3D"/>
<path d="M345.192 309.794H322.965L316.179 291.218L335.073 283.776L353.498 291.335L345.192 309.794Z" fill="#313131"/>
<path d="M401.404 277.329L345.192 309.794V293.562L368.648 271.352L401.404 261.038V277.329Z" fill="#1C1C1C"/>
<path d="M401.404 261.038V248.204L355.311 221.541H333.084L276.872 254.065V266.898L322.965 293.561H345.192L401.404 261.038Z" fill="#272727"/>
<path d="M322.965 309.794L276.872 283.189V266.898L322.965 293.562V309.794Z" fill="#3D3D3D"/>
<path d="M322.965 309.794L305.943 299.949V292.273L322.965 302.118V309.794Z" fill="#C92222"/>
<path opacity="0.3" d="M349.345 287.936L317.817 288.874L276.872 265.199V281.431L322.965 308.095H345.192L401.404 275.571V259.339L349.345 287.936Z" fill="black"/>
<path d="M345.309 304.988H322.438L315.478 274.515L334.897 266.897L353.908 274.691L345.309 304.988Z" fill="#313131"/>
<path d="M403.159 271.527L345.309 304.988V276.977L369.467 254.123L403.159 243.516V271.527Z" fill="#1C1C1C"/>
<path d="M403.159 243.516V230.272L355.721 202.847H332.908L275 236.308V249.493L322.438 276.977H345.309L403.159 243.516Z" fill="#272727"/>
<path d="M322.438 304.988L275 277.621V249.493L322.438 276.977V304.988Z" fill="#3D3D3D"/>
<path d="M345.192 275.396H322.965L316.179 256.761L335.073 249.318L353.498 256.936L345.192 275.396Z" fill="#313131"/>
<path d="M401.404 242.871L345.192 275.394V259.103L368.648 236.894L401.404 226.639V242.871Z" fill="#1C1C1C"/>
<path d="M401.404 226.639V213.747L355.311 187.084H333.084L276.872 219.607V232.441L322.965 259.104H345.192L401.404 226.639Z" fill="#272727"/>
<path d="M322.965 275.396L276.872 248.732V232.441L322.965 259.105V275.396Z" fill="#3D3D3D"/>
<path d="M322.965 275.396L305.943 265.551V257.815L322.965 267.66V275.396Z" fill="#C92222"/>
<path opacity="0.3" d="M349.345 253.479L317.817 254.416L276.872 230.742V247.033L322.965 273.637H345.192L401.404 241.114V224.882L349.345 253.479Z" fill="black"/>
<path d="M345.309 270.765H322.438L315.478 240.293L334.897 232.616L353.908 240.41L345.309 270.765Z" fill="#313131"/>
<path d="M403.159 237.305L345.309 270.766V242.696L369.467 219.842L403.159 209.236V237.305Z" fill="#1C1C1C"/>
<path d="M403.159 209.235V195.992L355.721 168.567H332.908L275 202.028V215.271L322.438 242.696H345.309L403.159 209.235Z" fill="#272727"/>
<path d="M322.438 270.766L275 243.341V215.272L322.438 242.697V270.766Z" fill="#3D3D3D"/>
<path d="M345.192 241.114H322.965L316.179 222.537L335.073 215.095L353.498 222.654L345.192 241.114Z" fill="#313131"/>
<path d="M401.404 208.59L345.192 241.113V224.881L368.648 202.671L401.404 192.358V208.59Z" fill="#1C1C1C"/>
<path d="M401.404 192.357V179.465L355.311 152.861H333.084L276.872 185.384V198.217L322.965 224.881H345.192L401.404 192.357Z" fill="#272727"/>
<path d="M322.965 241.114L276.872 214.509V198.218L322.965 224.881V241.114Z" fill="#3D3D3D"/>
<path d="M322.965 241.113L305.943 231.268V223.591L322.965 233.436V241.113Z" fill="#C92222"/>
<path opacity="0.3" d="M349.345 219.255L317.817 220.193L276.872 196.518V212.751L322.965 239.414H345.192L401.404 206.891V190.658L349.345 219.255Z" fill="black"/>
<path d="M345.309 236.66H322.438L315.477 206.129L334.897 198.511L353.908 206.305L345.309 236.66Z" fill="#313131"/>
<path d="M403.159 203.141L345.309 236.66V208.532L369.467 185.737L403.159 175.071V203.141Z" fill="#1C1C1C"/>
<path d="M403.159 175.071V161.886L355.721 134.461H332.908L275 167.922V181.107L322.438 208.532H345.309L403.159 175.071Z" fill="#272727"/>
<path d="M322.438 236.66L275 209.176V181.106L322.438 208.531V236.66Z" fill="#3D3D3D"/>
<path d="M345.192 206.599H322.965L316.179 201.677L335.073 194.234L352.211 201.266L345.192 206.599Z" fill="#313131"/>
<path d="M401.404 174.075L345.192 206.599V204.02L368.648 181.811L401.404 171.497V174.075Z" fill="#1C1C1C"/>
<path d="M401.404 171.497V158.663L355.311 132H333.084L276.872 164.523V177.357L322.965 204.02H345.192L401.404 171.497Z" fill="#272727"/>
<path fill-rule="evenodd" clip-rule="evenodd" d="M318.097 157.617C319.659 157.599 320.891 158.31 320.861 159.212L320.335 175.924L333.644 168.24C334.755 167.599 336.558 167.581 337.624 168.197L338.135 168.492C338.526 166.497 340.058 164.537 342.732 162.993C348.86 159.455 358.669 159.36 364.587 162.777C370.461 166.168 370.326 171.796 364.287 175.334L364.107 175.439C357.978 178.925 348.244 178.994 342.371 175.603L335.536 171.657L319.374 180.989C318.547 181.466 317.346 181.622 316.309 181.371C315.964 181.292 315.663 181.188 315.408 181.041L315.378 181.024C314.897 180.729 314.597 180.33 314.627 179.896L315.243 159.264C315.258 158.822 315.573 158.432 316.054 158.137L316.144 158.085C316.655 157.807 317.346 157.617 318.097 157.617ZM360.547 165.11C356.776 162.933 350.543 162.993 346.637 165.248C342.747 167.495 342.641 171.094 346.412 173.27C350.167 175.439 356.401 175.378 360.291 173.132C364.197 170.877 364.302 167.278 360.547 165.11ZM343.678 154.468C345.24 154.451 346.472 155.162 346.427 156.055C346.427 156.506 346.096 156.905 345.571 157.209C345.06 157.504 344.354 157.703 343.573 157.703C340.959 157.738 338.466 158.345 336.573 159.438C334.695 160.522 333.629 161.97 333.584 163.47C333.569 163.93 333.238 164.329 332.712 164.633C332.202 164.927 331.511 165.118 330.715 165.127C329.182 165.144 327.951 164.433 327.966 163.54C328.041 161.155 329.723 158.9 332.682 157.192C335.657 155.474 339.562 154.503 343.678 154.468Z" fill="#757575"/>
<path d="M322.965 206.599L276.872 179.936V177.357L322.965 204.021V206.599Z" fill="#3D3D3D"/>
<path d="M536.787 475.984H507.906L499.116 437.503L523.639 427.883L547.646 437.725L536.787 475.984Z" fill="#313131"/>
<path d="M609.841 433.73L536.787 475.985V440.612L567.294 411.752L609.841 398.357V433.73Z" fill="#1C1C1C"/>
<path d="M609.841 398.357V381.633L549.935 347H521.128L448 389.255V405.905L507.906 440.612H536.787L609.841 398.357Z" fill="#272727"/>
<path d="M507.906 475.984L448 441.425V405.905L507.906 440.611V475.984Z" fill="#3D3D3D"/>
<path d="M428 130.763V135.766L460.79 154.707V149.793L428 130.763Z" fill="#484848"/>
<path d="M525.833 154.171L493.043 173.47L493.133 267.282L525.833 248.698V154.171Z" fill="#1C1C1C"/>
<path d="M428 135.766L493.043 173.47L493.133 267.282L428.089 229.757L428 135.766Z" fill="#3D3D3D"/>
<path d="M525.922 248.43L493.133 267.282V272.196L525.922 253.166V248.43Z" fill="#484848"/>
<path d="M493.133 267.282V272.196L428.089 234.671V229.757L493.133 267.282Z" fill="#484848"/>
<path d="M493.043 168.467L525.744 149.436L525.833 154.171L493.043 173.381V168.467Z" fill="#484848"/>
<path d="M460.254 149.525V154.439L493.043 173.47V168.467L460.254 149.525Z" fill="#484848"/>
<path d="M493.043 168.824L428 130.762L460.611 112L525.744 149.436L493.043 168.824Z" fill="#282828"/>
<path d="M467.491 149.615L470.439 151.401L492.865 164.714L515.558 151.312L518.507 149.525L492.954 134.962L467.491 149.615Z" fill="black"/>
<path d="M470.439 151.401L492.865 164.714L515.558 151.312L492.954 138.446L470.439 151.401Z" fill="#161616"/>
<path d="M435.505 131.209L438.453 132.996L460.968 146.219L483.573 132.818L486.61 131.12L460.968 116.557L435.505 131.209Z" fill="black"/>
<path d="M438.453 132.997L460.968 146.22L483.573 132.818L460.968 120.042L438.453 132.997Z" fill="#161616"/>
<path d="M476.425 173.738V188.748L462.845 180.886L475.978 188.48V173.47L476.425 173.738Z" fill="black"/>
<path d="M476.425 173.291V188.391L462.845 180.439V165.429L476.425 173.291Z" fill="black"/>
<path d="M476.068 173.381L462.845 165.786V179.903L462.041 180.35V165.34L476.068 173.381Z" fill="black"/>
<path d="M476.425 187.587V188.57L462.219 180.26L462.845 179.814L476.425 187.587Z" fill="black"/>
<path d="M475.978 173.381L462.845 165.786V179.992L462.041 180.35V165.34L475.978 173.381Z" fill="#484848"/>
<path d="M476.425 187.676V188.659L462.13 180.26L462.845 179.903L476.425 187.676Z" fill="black"/>
<path d="M469.367 169.45V183.656L468.563 184.013V169.003L469.367 169.45Z" fill="#484848"/>
<path d="M468.027 168.288V183.745L468.563 184.013V169.003L468.027 168.288Z" fill="black"/>
<path fill-rule="evenodd" clip-rule="evenodd" d="M476.425 173.202V189.284L461.505 180.618V164.535L476.425 173.202ZM475.889 173.559L462.13 165.608V180.349L475.889 188.301V173.559Z" fill="#606060"/>
<path d="M476.425 198.308V213.407L462.845 205.545L475.978 213.139V198.04L476.425 198.308Z" fill="black"/>
<path d="M476.425 197.951V213.05L462.845 205.098V190.088L476.425 197.951Z" fill="black"/>
<path d="M476.068 198.04L462.845 190.446V204.562L462.041 205.009V189.999L476.068 198.04Z" fill="black"/>
<path d="M476.425 212.157V213.229L462.219 204.92L462.845 204.473L476.425 212.157Z" fill="black"/>
<path d="M475.978 198.04L462.845 190.446V204.562L462.041 205.009V189.999L475.978 198.04Z" fill="#484848"/>
<path d="M476.425 212.246V213.318L462.13 204.92L462.845 204.562L476.425 212.246Z" fill="black"/>
<path d="M469.367 194.109V208.315L468.563 208.672V193.662L469.367 194.109Z" fill="#484848"/>
<path d="M468.027 192.948V208.404L468.563 208.673V193.663L468.027 192.948Z" fill="black"/>
<path fill-rule="evenodd" clip-rule="evenodd" d="M476.425 197.862V213.944L461.505 205.277V189.195L476.425 197.862ZM475.889 198.219L462.13 190.267V205.009L475.889 212.961V198.219Z" fill="#606060"/>
<path d="M476.425 222.968V238.067L462.845 230.115L475.978 237.799V222.699L476.425 222.968Z" fill="black"/>
<path d="M476.425 222.521V237.62L462.845 229.758V214.658L476.425 222.521Z" fill="black"/>
<path d="M476.068 222.699L462.845 215.105V229.132L462.041 229.668V214.569L476.068 222.699Z" fill="black"/>
<path d="M476.425 236.816V237.799L462.219 229.49L462.845 229.132L476.425 236.816Z" fill="black"/>
<path d="M475.978 222.699L462.845 215.016V229.221L462.041 229.668V214.569L475.978 222.699Z" fill="#484848"/>
<path d="M476.425 236.905V237.888L462.13 229.579L462.845 229.132L476.425 236.905Z" fill="black"/>
<path d="M469.367 218.768V232.885L468.563 233.332V218.322L469.367 218.768Z" fill="#484848"/>
<path d="M468.027 217.607V232.974L468.563 233.332V218.322L468.027 217.607Z" fill="black"/>
<path fill-rule="evenodd" clip-rule="evenodd" d="M476.425 222.431V238.514L461.505 229.847V213.854L476.425 222.431ZM475.889 222.699L462.13 214.748V229.49L475.889 237.531V222.699Z" fill="#606060"/>
<path d="M453.195 159.621V174.899L448.103 171.861V156.583L453.195 159.621Z" fill="black"/>
<path d="M448.192 157.03V171.326L447.298 171.772V156.494L448.192 157.03Z" fill="black"/>
<path d="M453.195 174.185V175.078L447.477 171.683L448.192 171.236L453.195 174.185Z" fill="black"/>
<path d="M448.103 157.03V171.326L447.298 171.772V156.494L448.103 157.03Z" fill="#484848"/>
<path d="M453.195 174.274V175.167L447.388 171.683L448.103 171.325L453.195 174.274Z" fill="black"/>
<path fill-rule="evenodd" clip-rule="evenodd" d="M453.91 159.979V176.15L446.852 172.04V155.869L453.91 159.979ZM453.106 160.068L447.299 156.673V171.683L453.106 174.989V160.068Z" fill="#606060"/>
<path d="M453.195 184.281V199.559L448.103 196.521V181.243L453.195 184.281Z" fill="black"/>
<path d="M448.192 181.69V195.985L447.388 196.432V181.154L448.192 181.69Z" fill="black"/>
<path d="M453.195 198.844V199.738L447.477 196.342L448.192 195.896L453.195 198.844Z" fill="black"/>
<path d="M448.103 181.69V195.985L447.298 196.432V181.154L448.103 181.69Z" fill="#484848"/>
<path d="M453.195 198.933V199.827L447.477 196.342L448.103 195.985L453.195 198.933Z" fill="black"/>
<path fill-rule="evenodd" clip-rule="evenodd" d="M453.999 184.638V200.809L446.852 196.7V180.528L453.999 184.638ZM453.195 184.727L447.477 181.422V196.342L453.195 199.737V184.727Z" fill="#606060"/>
<path d="M453.195 208.94V224.218L448.103 221.18V205.902L453.195 208.94Z" fill="black"/>
<path d="M448.192 206.349V220.555L447.388 221.091V205.813L448.192 206.349Z" fill="black"/>
<path d="M453.195 223.503V224.397L447.477 221.002L448.192 220.555L453.195 223.503Z" fill="black"/>
<path d="M448.103 206.349V220.644L447.298 221.091V205.813L448.103 206.349Z" fill="#484848"/>
<path d="M453.195 223.592V224.486L447.477 221.001L448.103 220.644L453.195 223.592Z" fill="black"/>
<path fill-rule="evenodd" clip-rule="evenodd" d="M453.999 209.297V225.469L446.852 221.359V205.188L453.999 209.297ZM453.195 209.387L447.477 205.992V221.002L453.195 224.307V209.387Z" fill="#606060"/>
<path d="M438.632 220.644L444.976 216.981V222.878L438.632 226.63V220.644Z" fill="#1C1C1C"/>
<path d="M444.976 216.981L443.457 216.088L438.453 218.947L438.632 220.644L444.976 216.981Z" fill="#484848"/>
<path d="M453.106 227.434L458.109 224.575V233.063L453.106 236.011V227.434Z" fill="#1C1C1C"/>
<path d="M453.106 227.434L438.453 218.946V227.523L453.106 236.011V227.434Z" fill="#2D2D2D"/>
<path d="M438.453 218.946L439.883 218.142L454.536 226.63L453.106 227.434L438.453 218.946Z" fill="#484848"/>
<path d="M458.109 224.575L456.591 223.592L451.587 226.541L453.106 227.434L458.109 224.575Z" fill="#484848"/>
<path d="M438.632 196.075L445.065 192.322V198.219L438.632 201.971V196.075Z" fill="#1C1C1C"/>
<path d="M445.065 192.322L443.457 191.428L438.453 194.288L438.632 196.074L445.065 192.322Z" fill="#484848"/>
<path d="M453.195 202.776L458.109 199.917L458.199 208.404L453.195 211.353V202.776Z" fill="#1C1C1C"/>
<path d="M453.195 202.775L438.453 194.288V202.865L453.195 211.353V202.775Z" fill="#2D2D2D"/>
<path d="M438.453 194.288L439.883 193.483L454.536 201.971L453.195 202.775L438.453 194.288Z" fill="#484848"/>
<path d="M458.109 199.916L456.591 199.023L451.587 201.882L453.195 202.775L458.109 199.916Z" fill="#484848"/>
<path d="M438.632 171.415L445.065 167.662V173.559L438.632 177.312V171.415Z" fill="#1C1C1C"/>
<path d="M445.065 167.662L443.457 166.769L438.453 169.628L438.632 171.415L445.065 167.662Z" fill="#484848"/>
<path d="M453.195 178.116L458.109 175.257L458.199 183.745L453.195 186.693V178.116Z" fill="#1C1C1C"/>
<path d="M453.195 178.115L438.453 169.628V178.205L453.195 186.693V178.115Z" fill="#2D2D2D"/>
<path d="M438.453 169.628L439.883 168.824L454.536 177.312L453.195 178.116L438.453 169.628Z" fill="#484848"/>
<path d="M458.109 175.257L456.591 174.363L451.587 177.222L453.195 178.116L458.109 175.257Z" fill="#484848"/>
<path d="M502.514 177.758V192.857L516.094 184.906L502.961 192.5V177.49L502.514 177.758Z" fill="black"/>
<path d="M502.514 177.311V192.411L516.094 184.459V169.449L502.514 177.311Z" fill="black"/>
<path d="M502.871 177.4L516.094 169.806V183.923L516.898 184.369V169.359L502.871 177.4Z" fill="black"/>
<path d="M502.514 191.607V192.59L516.72 184.28L516.094 183.923L502.514 191.607Z" fill="black"/>
<path d="M502.961 177.4L516.094 169.806V184.012L516.898 184.369V169.359L502.961 177.4Z" fill="#484848"/>
<path d="M502.514 191.696V192.679L516.809 184.37L516.094 183.923L502.514 191.696Z" fill="black"/>
<path d="M509.572 173.559V187.675L510.376 188.122V173.023L509.572 173.559Z" fill="#484848"/>
<path d="M510.912 172.397V187.765L510.376 188.122V173.023L510.912 172.397Z" fill="black"/>
<path fill-rule="evenodd" clip-rule="evenodd" d="M517.435 168.645V184.638L502.514 193.304V177.222L517.435 168.645ZM503.05 192.411L516.809 184.37V169.628L503.05 177.58V192.411Z" fill="#606060"/>
<path d="M502.514 202.417V217.517L516.094 209.565L502.961 217.159V202.149L502.514 202.417Z" fill="black"/>
<path d="M502.514 201.971V217.07L516.094 209.118V194.108L502.514 201.971Z" fill="black"/>
<path d="M502.871 202.06L516.094 194.466V208.582L516.898 209.029V194.019L502.871 202.06Z" fill="black"/>
<path d="M502.514 216.266V217.249L516.72 208.94L516.094 208.582L502.514 216.266Z" fill="black"/>
<path d="M502.961 202.06L516.094 194.466V208.671L516.898 209.029V194.019L502.961 202.06Z" fill="#484848"/>
<path d="M502.514 216.355V217.338L516.809 208.94L516.094 208.582L502.514 216.355Z" fill="black"/>
<path d="M509.572 198.218V212.335L510.376 212.781V197.682L509.572 198.218Z" fill="#484848"/>
<path d="M510.912 196.968V212.424L510.376 212.782V197.682L510.912 196.968Z" fill="black"/>
<path fill-rule="evenodd" clip-rule="evenodd" d="M517.435 193.215V209.297L502.514 217.963V201.881L517.435 193.215ZM503.05 216.981L516.809 208.94V194.198L503.05 202.149V216.981Z" fill="#606060"/>
<path d="M502.514 226.988V242.087L516.094 234.224L502.961 241.819V226.719L502.514 226.988Z" fill="black"/>
<path d="M502.514 226.63V241.64L516.094 233.778V218.678L502.514 226.63Z" fill="black"/>
<path d="M502.871 226.72L516.094 219.125V233.152L516.898 233.688V218.589L502.871 226.72Z" fill="black"/>
<path d="M502.514 240.836V241.908L516.72 233.599L516.094 233.153L502.514 240.836Z" fill="black"/>
<path d="M502.961 226.72L516.094 219.125V233.242L516.898 233.688V218.589L502.961 226.72Z" fill="#484848"/>
<path d="M502.514 240.926V241.998L516.809 233.599L516.094 233.153L502.514 240.926Z" fill="black"/>
<path d="M509.572 222.789V236.994L510.376 237.352V222.342L509.572 222.789Z" fill="#484848"/>
<path d="M510.912 221.627V237.084L510.376 237.352V222.342L510.912 221.627Z" fill="black"/>
<path fill-rule="evenodd" clip-rule="evenodd" d="M517.435 217.874V233.956L502.514 242.623V226.541L517.435 217.874ZM503.05 241.551L516.809 233.599V218.768L503.05 226.719V241.551Z" fill="#606060"/>
<path d="M309 359.762V364.766L341.79 383.707V378.793L309 359.762Z" fill="#484848"/>
<path d="M406.833 383.171L374.043 402.469L374.133 496.282L406.833 477.698V383.171Z" fill="#1C1C1C"/>
<path d="M309 364.766L374.043 402.47L374.133 496.282L309.089 458.757L309 364.766Z" fill="#3D3D3D"/>
<path d="M406.922 477.43L374.133 496.282V501.196L406.922 482.165V477.43Z" fill="#484848"/>
<path d="M374.133 496.282V501.196L309.089 463.671V458.757L374.133 496.282Z" fill="#484848"/>
<path d="M374.043 397.466L406.744 378.436L406.833 383.171L374.043 402.38V397.466Z" fill="#484848"/>
<path d="M341.254 378.525V383.439L374.043 402.469V397.466L341.254 378.525Z" fill="#484848"/>
<path d="M374.043 397.824L309 359.762L341.611 341L406.744 378.436L374.043 397.824Z" fill="#282828"/>
<path d="M348.491 378.614L351.439 380.401L373.865 393.714L396.558 380.312L399.507 378.525L373.954 363.962L348.491 378.614Z" fill="black"/>
<path d="M351.439 380.401L373.865 393.713L396.558 380.312L373.954 367.446L351.439 380.401Z" fill="#161616"/>
<path d="M316.505 360.209L319.453 361.996L341.968 375.219L364.573 361.817L367.61 360.12L341.968 345.557L316.505 360.209Z" fill="black"/>
<path d="M319.453 361.996L341.968 375.219L364.573 361.817L341.968 349.041L319.453 361.996Z" fill="#161616"/>
<path d="M357.425 402.738V417.748L343.845 409.885L356.978 417.479V402.469L357.425 402.738Z" fill="black"/>
<path d="M357.425 402.291V417.39L343.845 409.438V394.428L357.425 402.291Z" fill="black"/>
<path d="M357.068 402.38L343.845 394.786V408.902L343.04 409.349V394.339L357.068 402.38Z" fill="black"/>
<path d="M357.425 416.586V417.569L343.219 409.26L343.845 408.813L357.425 416.586Z" fill="black"/>
<path d="M356.978 402.38L343.845 394.786V408.991L343.04 409.349V394.339L356.978 402.38Z" fill="#484848"/>
<path d="M357.425 416.675V417.658L343.13 409.26L343.845 408.902L357.425 416.675Z" fill="black"/>
<path d="M350.367 398.449V412.655L349.563 413.012V398.002L350.367 398.449Z" fill="#484848"/>
<path d="M349.027 397.288V412.744L349.563 413.012V398.002L349.027 397.288Z" fill="black"/>
<path fill-rule="evenodd" clip-rule="evenodd" d="M357.425 402.201V418.284L342.504 409.617V393.535L357.425 402.201ZM356.889 402.559L343.13 394.607V409.349L356.889 417.301V402.559Z" fill="#606060"/>
<path d="M357.425 427.308V442.407L343.845 434.545L356.978 442.139V427.04L357.425 427.308Z" fill="black"/>
<path d="M357.425 426.95V442.05L343.845 434.098V419.088L357.425 426.95Z" fill="black"/>
<path d="M357.068 427.04L343.845 419.445V433.562L343.04 434.009V418.999L357.068 427.04Z" fill="black"/>
<path d="M357.425 441.156V442.228L343.219 433.919L343.845 433.473L357.425 441.156Z" fill="black"/>
<path d="M356.978 427.04L343.845 419.445V433.562L343.04 434.009V418.999L356.978 427.04Z" fill="#484848"/>
<path d="M357.425 441.246V442.318L343.13 433.919L343.845 433.562L357.425 441.246Z" fill="black"/>
<path d="M350.367 423.108V437.314L349.563 437.672V422.662L350.367 423.108Z" fill="#484848"/>
<path d="M349.027 421.947V437.404L349.563 437.672V422.662L349.027 421.947Z" fill="black"/>
<path fill-rule="evenodd" clip-rule="evenodd" d="M357.425 426.861V442.943L342.504 434.276V418.194L357.425 426.861ZM356.889 427.218L343.13 419.266V434.008L356.889 441.96V427.218Z" fill="#606060"/>
<path d="M357.425 451.967V467.066L343.845 459.114L356.978 466.798V451.698L357.425 451.967Z" fill="black"/>
<path d="M357.425 451.52V466.619L343.845 458.757V443.657L357.425 451.52Z" fill="black"/>
<path d="M357.068 451.698L343.845 444.104V458.131L343.04 458.667V443.568L357.068 451.698Z" fill="black"/>
<path d="M357.425 465.815V466.798L343.219 458.489L343.845 458.131L357.425 465.815Z" fill="black"/>
<path d="M356.978 451.698L343.845 444.015V458.22L343.04 458.667V443.568L356.978 451.698Z" fill="#484848"/>
<path d="M357.425 465.904V466.887L343.13 458.578L343.845 458.131L357.425 465.904Z" fill="black"/>
<path d="M350.367 447.767V461.884L349.563 462.331V447.321L350.367 447.767Z" fill="#484848"/>
<path d="M349.027 446.606V461.973L349.563 462.331V447.321L349.027 446.606Z" fill="black"/>
<path fill-rule="evenodd" clip-rule="evenodd" d="M357.425 451.431V467.513L342.504 458.846V442.854L357.425 451.431ZM356.889 451.699L343.13 443.747V458.489L356.889 466.53V451.699Z" fill="#606060"/>
<path d="M334.195 388.62V403.898L329.103 400.861V385.583L334.195 388.62Z" fill="black"/>
<path d="M329.192 386.03V400.325L328.299 400.772V385.494L329.192 386.03Z" fill="black"/>
<path d="M334.195 403.184V404.077L328.477 400.682L329.192 400.236L334.195 403.184Z" fill="black"/>
<path d="M329.103 386.03V400.325L328.299 400.772V385.494L329.103 386.03Z" fill="#484848"/>
<path d="M334.195 403.273V404.166L328.388 400.682L329.103 400.324L334.195 403.273Z" fill="black"/>
<path fill-rule="evenodd" clip-rule="evenodd" d="M334.91 388.978V405.15L327.852 401.04V384.868L334.91 388.978ZM334.106 389.067L328.299 385.672V400.682L334.106 403.988V389.067Z" fill="#606060"/>
<path d="M334.195 413.28V428.558L329.103 425.52V410.242L334.195 413.28Z" fill="black"/>
<path d="M329.192 410.689V424.984L328.388 425.431V410.153L329.192 410.689Z" fill="black"/>
<path d="M334.195 427.843V428.737L328.477 425.342L329.192 424.895L334.195 427.843Z" fill="black"/>
<path d="M329.103 410.689V424.984L328.299 425.431V410.153L329.103 410.689Z" fill="#484848"/>
<path d="M334.195 427.932V428.826L328.477 425.341L329.103 424.984L334.195 427.932Z" fill="black"/>
<path fill-rule="evenodd" clip-rule="evenodd" d="M334.999 413.637V429.809L327.852 425.699V409.527L334.999 413.637ZM334.195 413.727L328.477 410.421V425.341L334.195 428.737V413.727Z" fill="#606060"/>
<path d="M334.195 437.939V453.217L329.103 450.18V434.902L334.195 437.939Z" fill="black"/>
<path d="M329.192 435.349V449.554L328.388 450.091V434.812L329.192 435.349Z" fill="black"/>
<path d="M334.195 452.503V453.396L328.477 450.001L329.192 449.554L334.195 452.503Z" fill="black"/>
<path d="M329.103 435.349V449.644L328.299 450.091V434.812L329.103 435.349Z" fill="#484848"/>
<path d="M334.195 452.592V453.485L328.477 450.001L329.103 449.644L334.195 452.592Z" fill="black"/>
<path fill-rule="evenodd" clip-rule="evenodd" d="M334.999 438.297V454.468L327.852 450.358V434.187L334.999 438.297ZM334.195 438.386L328.477 434.991V450.001L334.195 453.307V438.386Z" fill="#606060"/>
<path d="M319.632 449.644L325.976 445.981V451.878L319.632 455.63V449.644Z" fill="#1C1C1C"/>
<path d="M325.976 445.981L324.457 445.087L319.453 447.946L319.632 449.644L325.976 445.981Z" fill="#484848"/>
<path d="M334.106 456.434L339.109 453.575V462.063L334.106 465.011V456.434Z" fill="#1C1C1C"/>
<path d="M334.106 456.434L319.453 447.947V456.524L334.106 465.011V456.434Z" fill="#2D2D2D"/>
<path d="M319.453 447.946L320.883 447.142L335.536 455.63L334.106 456.434L319.453 447.946Z" fill="#484848"/>
<path d="M339.109 453.575L337.59 452.592L332.587 455.541L334.106 456.434L339.109 453.575Z" fill="#484848"/>
<path d="M319.632 425.074L326.065 421.322V427.218L319.632 430.971V425.074Z" fill="#1C1C1C"/>
<path d="M326.065 421.322L324.457 420.428L319.453 423.287L319.632 425.074L326.065 421.322Z" fill="#484848"/>
<path d="M334.195 431.775L339.109 428.916L339.199 437.404L334.195 440.352V431.775Z" fill="#1C1C1C"/>
<path d="M334.195 431.775L319.453 423.287V431.864L334.195 440.352V431.775Z" fill="#2D2D2D"/>
<path d="M319.453 423.287L320.883 422.483L335.536 430.971L334.195 431.775L319.453 423.287Z" fill="#484848"/>
<path d="M339.109 428.916L337.59 428.022L332.587 430.882L334.195 431.775L339.109 428.916Z" fill="#484848"/>
<path d="M319.632 400.415L326.065 396.662V402.559L319.632 406.311V400.415Z" fill="#1C1C1C"/>
<path d="M326.065 396.662L324.457 395.769L319.453 398.628L319.632 400.415L326.065 396.662Z" fill="#484848"/>
<path d="M334.195 407.116L339.109 404.257L339.199 412.744L334.195 415.693V407.116Z" fill="#1C1C1C"/>
<path d="M334.195 407.115L319.453 398.627V407.204L334.195 415.692V407.115Z" fill="#2D2D2D"/>
<path d="M319.453 398.628L320.883 397.823L335.536 406.311L334.195 407.115L319.453 398.628Z" fill="#484848"/>
<path d="M339.109 404.256L337.59 403.363L332.587 406.222L334.195 407.116L339.109 404.256Z" fill="#484848"/>
<path d="M383.514 406.758V421.857L397.094 413.905L383.961 421.499V406.49L383.514 406.758Z" fill="black"/>
<path d="M383.514 406.311V421.41L397.094 413.458V398.448L383.514 406.311Z" fill="black"/>
<path d="M383.871 406.4L397.094 398.806V412.922L397.898 413.369V398.359L383.871 406.4Z" fill="black"/>
<path d="M383.514 420.606V421.589L397.72 413.28L397.094 412.923L383.514 420.606Z" fill="black"/>
<path d="M383.96 406.4L397.094 398.806V413.011L397.898 413.369V398.359L383.96 406.4Z" fill="#484848"/>
<path d="M383.514 420.696V421.678L397.809 413.369L397.094 412.923L383.514 420.696Z" fill="black"/>
<path d="M390.572 402.558V416.675L391.376 417.122V402.022L390.572 402.558Z" fill="#484848"/>
<path d="M391.912 401.397V416.764L391.376 417.122V402.022L391.912 401.397Z" fill="black"/>
<path fill-rule="evenodd" clip-rule="evenodd" d="M398.434 397.644V413.637L383.514 422.304V406.221L398.434 397.644ZM384.05 421.41L397.809 413.369V398.627L384.05 406.579V421.41Z" fill="#606060"/>
<path d="M383.514 431.417V446.517L397.094 438.565L383.961 446.159V431.149L383.514 431.417Z" fill="black"/>
<path d="M383.514 430.97V446.07L397.094 438.118V423.108L383.514 430.97Z" fill="black"/>
<path d="M383.871 431.06L397.094 423.465V437.582L397.898 438.029V423.019L383.871 431.06Z" fill="black"/>
<path d="M383.514 445.266V446.249L397.72 437.939L397.094 437.582L383.514 445.266Z" fill="black"/>
<path d="M383.96 431.06L397.094 423.465V437.671L397.898 438.029V423.019L383.96 431.06Z" fill="#484848"/>
<path d="M383.514 445.355V446.338L397.809 437.939L397.094 437.582L383.514 445.355Z" fill="black"/>
<path d="M390.572 427.218V441.334L391.376 441.781V426.682L390.572 427.218Z" fill="#484848"/>
<path d="M391.912 425.967V441.424L391.376 441.781V426.682L391.912 425.967Z" fill="black"/>
<path fill-rule="evenodd" clip-rule="evenodd" d="M398.434 422.214V438.296L383.514 446.963V430.881L398.434 422.214ZM384.05 445.98L397.809 437.939V423.197L384.05 431.149V445.98Z" fill="#606060"/>
<path d="M383.514 455.987V471.086L397.094 463.224L383.961 470.818V455.719L383.514 455.987Z" fill="black"/>
<path d="M383.514 455.629V470.639L397.094 462.777V447.678L383.514 455.629Z" fill="black"/>
<path d="M383.871 455.719L397.094 448.124V462.152L397.898 462.688V447.588L383.871 455.719Z" fill="black"/>
<path d="M383.514 469.836V470.908L397.72 462.599L397.094 462.152L383.514 469.836Z" fill="black"/>
<path d="M383.96 455.719L397.094 448.124V462.241L397.898 462.688V447.588L383.96 455.719Z" fill="#484848"/>
<path d="M383.514 469.925V470.997L397.809 462.599L397.094 462.152L383.514 469.925Z" fill="black"/>
<path d="M390.572 451.788V465.993L391.376 466.351V451.341L390.572 451.788Z" fill="#484848"/>
<path d="M391.912 450.626V466.083L391.376 466.351V451.341L391.912 450.626Z" fill="black"/>
<path fill-rule="evenodd" clip-rule="evenodd" d="M398.434 446.874V462.956L383.514 471.622V455.54L398.434 446.874ZM384.05 470.55L397.809 462.599V447.767L384.05 455.719V470.55Z" fill="#606060"/>
<path d="M181 343.762V348.766L213.79 367.707V362.793L181 343.762Z" fill="#484848"/>
<path d="M278.833 367.171L246.043 386.469L246.133 480.282L278.833 461.698V367.171Z" fill="#1C1C1C"/>
<path d="M181 348.766L246.043 386.47L246.133 480.282L181.089 442.757L181 348.766Z" fill="#3D3D3D"/>
<path d="M278.922 461.43L246.133 480.282V485.196L278.922 466.165V461.43Z" fill="#484848"/>
<path d="M246.133 480.282V485.196L181.089 447.671V442.757L246.133 480.282Z" fill="#484848"/>
<path d="M246.043 381.466L278.744 362.436L278.833 367.171L246.043 386.38V381.466Z" fill="#484848"/>
<path d="M213.254 362.525V367.439L246.043 386.469V381.466L213.254 362.525Z" fill="#484848"/>
<path d="M246.043 381.824L181 343.762L213.611 325L278.744 362.436L246.043 381.824Z" fill="#282828"/>
<path d="M220.491 362.614L223.439 364.401L245.865 377.714L268.558 364.312L271.507 362.525L245.954 347.962L220.491 362.614Z" fill="black"/>
<path d="M223.439 364.401L245.865 377.713L268.558 364.312L245.954 351.446L223.439 364.401Z" fill="#161616"/>
<path d="M188.505 344.209L191.453 345.996L213.968 359.219L236.573 345.817L239.61 344.12L213.968 329.557L188.505 344.209Z" fill="black"/>
<path d="M191.453 345.996L213.968 359.219L236.573 345.817L213.968 333.041L191.453 345.996Z" fill="#161616"/>
<path d="M229.425 386.738V401.748L215.845 393.885L228.978 401.479V386.469L229.425 386.738Z" fill="black"/>
<path d="M229.425 386.291V401.39L215.845 393.438V378.428L229.425 386.291Z" fill="black"/>
<path d="M229.068 386.38L215.845 378.786V392.902L215.04 393.349V378.339L229.068 386.38Z" fill="black"/>
<path d="M229.425 400.586V401.569L215.219 393.26L215.845 392.813L229.425 400.586Z" fill="black"/>
<path d="M228.978 386.38L215.845 378.786V392.991L215.04 393.349V378.339L228.978 386.38Z" fill="#484848"/>
<path d="M229.425 400.675V401.658L215.13 393.26L215.845 392.902L229.425 400.675Z" fill="black"/>
<path d="M222.367 382.449V396.655L221.563 397.012V382.002L222.367 382.449Z" fill="#484848"/>
<path d="M221.027 381.288V396.744L221.563 397.012V382.002L221.027 381.288Z" fill="black"/>
<path fill-rule="evenodd" clip-rule="evenodd" d="M229.425 386.201V402.284L214.504 393.617V377.535L229.425 386.201ZM228.889 386.559L215.13 378.607V393.349L228.889 401.301V386.559Z" fill="#606060"/>
<path d="M229.425 411.308V426.407L215.845 418.545L228.978 426.139V411.04L229.425 411.308Z" fill="black"/>
<path d="M229.425 410.95V426.05L215.845 418.098V403.088L229.425 410.95Z" fill="black"/>
<path d="M229.068 411.04L215.845 403.445V417.562L215.04 418.009V402.999L229.068 411.04Z" fill="black"/>
<path d="M229.425 425.156V426.228L215.219 417.919L215.845 417.473L229.425 425.156Z" fill="black"/>
<path d="M228.978 411.04L215.845 403.445V417.562L215.04 418.009V402.999L228.978 411.04Z" fill="#484848"/>
<path d="M229.425 425.246V426.318L215.13 417.919L215.845 417.562L229.425 425.246Z" fill="black"/>
<path d="M222.367 407.108V421.314L221.563 421.672V406.662L222.367 407.108Z" fill="#484848"/>
<path d="M221.027 405.947V421.404L221.563 421.672V406.662L221.027 405.947Z" fill="black"/>
<path fill-rule="evenodd" clip-rule="evenodd" d="M229.425 410.861V426.943L214.504 418.276V402.194L229.425 410.861ZM228.889 411.218L215.13 403.266V418.008L228.889 425.96V411.218Z" fill="#606060"/>
<path d="M229.425 435.967V451.066L215.845 443.114L228.978 450.798V435.698L229.425 435.967Z" fill="black"/>
<path d="M229.425 435.52V450.619L215.845 442.757V427.657L229.425 435.52Z" fill="black"/>
<path d="M229.068 435.698L215.845 428.104V442.131L215.04 442.667V427.568L229.068 435.698Z" fill="black"/>
<path d="M229.425 449.815V450.798L215.219 442.489L215.845 442.131L229.425 449.815Z" fill="black"/>
<path d="M228.978 435.698L215.845 428.015V442.22L215.04 442.667V427.568L228.978 435.698Z" fill="#484848"/>
<path d="M229.425 449.904V450.887L215.13 442.578L215.845 442.131L229.425 449.904Z" fill="black"/>
<path d="M222.367 431.767V445.884L221.563 446.331V431.321L222.367 431.767Z" fill="#484848"/>
<path d="M221.027 430.606V445.973L221.563 446.331V431.321L221.027 430.606Z" fill="black"/>
<path fill-rule="evenodd" clip-rule="evenodd" d="M229.425 435.431V451.513L214.504 442.846V426.854L229.425 435.431ZM228.889 435.699L215.13 427.747V442.489L228.889 450.53V435.699Z" fill="#606060"/>
<path d="M206.195 372.62V387.898L201.103 384.861V369.583L206.195 372.62Z" fill="black"/>
<path d="M201.192 370.03V384.325L200.299 384.772V369.494L201.192 370.03Z" fill="black"/>
<path d="M206.195 387.184V388.077L200.477 384.682L201.192 384.236L206.195 387.184Z" fill="black"/>
<path d="M201.103 370.03V384.325L200.299 384.772V369.494L201.103 370.03Z" fill="#484848"/>
<path d="M206.195 387.273V388.166L200.388 384.682L201.103 384.324L206.195 387.273Z" fill="black"/>
<path fill-rule="evenodd" clip-rule="evenodd" d="M206.91 372.978V389.15L199.852 385.04V368.868L206.91 372.978ZM206.106 373.067L200.299 369.672V384.682L206.106 387.988V373.067Z" fill="#606060"/>
<path d="M206.195 397.28V412.558L201.103 409.52V394.242L206.195 397.28Z" fill="black"/>
<path d="M201.192 394.689V408.984L200.388 409.431V394.153L201.192 394.689Z" fill="black"/>
<path d="M206.195 411.843V412.737L200.477 409.342L201.192 408.895L206.195 411.843Z" fill="black"/>
<path d="M201.103 394.689V408.984L200.299 409.431V394.153L201.103 394.689Z" fill="#484848"/>
<path d="M206.195 411.932V412.826L200.477 409.341L201.103 408.984L206.195 411.932Z" fill="black"/>
<path fill-rule="evenodd" clip-rule="evenodd" d="M206.999 397.637V413.809L199.852 409.699V393.527L206.999 397.637ZM206.195 397.727L200.477 394.421V409.341L206.195 412.737V397.727Z" fill="#606060"/>
<path d="M206.195 421.939V437.217L201.103 434.18V418.902L206.195 421.939Z" fill="black"/>
<path d="M201.192 419.349V433.554L200.388 434.091V418.812L201.192 419.349Z" fill="black"/>
<path d="M206.195 436.503V437.396L200.477 434.001L201.192 433.554L206.195 436.503Z" fill="black"/>
<path d="M201.103 419.349V433.644L200.299 434.091V418.812L201.103 419.349Z" fill="#484848"/>
<path d="M206.195 436.592V437.485L200.477 434.001L201.103 433.644L206.195 436.592Z" fill="black"/>
<path fill-rule="evenodd" clip-rule="evenodd" d="M206.999 422.297V438.468L199.852 434.358V418.187L206.999 422.297ZM206.195 422.386L200.477 418.991V434.001L206.195 437.307V422.386Z" fill="#606060"/>
<path d="M191.632 433.644L197.976 429.981V435.878L191.632 439.63V433.644Z" fill="#1C1C1C"/>
<path d="M197.976 429.981L196.457 429.087L191.453 431.946L191.632 433.644L197.976 429.981Z" fill="#484848"/>
<path d="M206.106 440.434L211.109 437.575V446.063L206.106 449.011V440.434Z" fill="#1C1C1C"/>
<path d="M206.106 440.434L191.453 431.947V440.524L206.106 449.011V440.434Z" fill="#2D2D2D"/>
<path d="M191.453 431.946L192.883 431.142L207.536 439.63L206.106 440.434L191.453 431.946Z" fill="#484848"/>
<path d="M211.109 437.575L209.59 436.592L204.587 439.541L206.106 440.434L211.109 437.575Z" fill="#484848"/>
<path d="M191.632 409.074L198.065 405.322V411.218L191.632 414.971V409.074Z" fill="#1C1C1C"/>
<path d="M198.065 405.322L196.457 404.428L191.453 407.287L191.632 409.074L198.065 405.322Z" fill="#484848"/>
<path d="M206.195 415.775L211.109 412.916L211.199 421.404L206.195 424.352V415.775Z" fill="#1C1C1C"/>
<path d="M206.195 415.775L191.453 407.287V415.864L206.195 424.352V415.775Z" fill="#2D2D2D"/>
<path d="M191.453 407.287L192.883 406.483L207.536 414.971L206.195 415.775L191.453 407.287Z" fill="#484848"/>
<path d="M211.109 412.916L209.59 412.022L204.587 414.882L206.195 415.775L211.109 412.916Z" fill="#484848"/>
<path d="M191.632 384.415L198.065 380.662V386.559L191.632 390.311V384.415Z" fill="#1C1C1C"/>
<path d="M198.065 380.662L196.457 379.769L191.453 382.628L191.632 384.415L198.065 380.662Z" fill="#484848"/>
<path d="M206.195 391.116L211.109 388.257L211.199 396.744L206.195 399.693V391.116Z" fill="#1C1C1C"/>
<path d="M206.195 391.115L191.453 382.627V391.204L206.195 399.692V391.115Z" fill="#2D2D2D"/>
<path d="M191.453 382.628L192.883 381.823L207.536 390.311L206.195 391.115L191.453 382.628Z" fill="#484848"/>
<path d="M211.109 388.256L209.59 387.363L204.587 390.222L206.195 391.116L211.109 388.256Z" fill="#484848"/>
<path d="M255.514 390.758V405.857L269.094 397.905L255.961 405.499V390.49L255.514 390.758Z" fill="black"/>
<path d="M255.514 390.311V405.41L269.094 397.458V382.448L255.514 390.311Z" fill="black"/>
<path d="M255.871 390.4L269.094 382.806V396.922L269.898 397.369V382.359L255.871 390.4Z" fill="black"/>
<path d="M255.514 404.606V405.589L269.72 397.28L269.094 396.923L255.514 404.606Z" fill="black"/>
<path d="M255.96 390.4L269.094 382.806V397.011L269.898 397.369V382.359L255.96 390.4Z" fill="#484848"/>
<path d="M255.514 404.696V405.678L269.809 397.369L269.094 396.923L255.514 404.696Z" fill="black"/>
<path d="M262.572 386.558V400.675L263.376 401.122V386.022L262.572 386.558Z" fill="#484848"/>
<path d="M263.912 385.397V400.764L263.376 401.122V386.022L263.912 385.397Z" fill="black"/>
<path fill-rule="evenodd" clip-rule="evenodd" d="M270.434 381.644V397.637L255.514 406.304V390.221L270.434 381.644ZM256.05 405.41L269.809 397.369V382.627L256.05 390.579V405.41Z" fill="#606060"/>
<path d="M255.514 415.417V430.517L269.094 422.565L255.961 430.159V415.149L255.514 415.417Z" fill="black"/>
<path d="M255.514 414.97V430.07L269.094 422.118V407.108L255.514 414.97Z" fill="black"/>
<path d="M255.871 415.06L269.094 407.465V421.582L269.898 422.029V407.019L255.871 415.06Z" fill="black"/>
<path d="M255.514 429.266V430.249L269.72 421.939L269.094 421.582L255.514 429.266Z" fill="black"/>
<path d="M255.96 415.06L269.094 407.465V421.671L269.898 422.029V407.019L255.96 415.06Z" fill="#484848"/>
<path d="M255.514 429.355V430.338L269.809 421.939L269.094 421.582L255.514 429.355Z" fill="black"/>
<path d="M262.572 411.218V425.334L263.376 425.781V410.682L262.572 411.218Z" fill="#484848"/>
<path d="M263.912 409.967V425.424L263.376 425.781V410.682L263.912 409.967Z" fill="black"/>
<path fill-rule="evenodd" clip-rule="evenodd" d="M270.434 406.214V422.296L255.514 430.963V414.881L270.434 406.214ZM256.05 429.98L269.809 421.939V407.197L256.05 415.149V429.98Z" fill="#606060"/>
<path d="M255.514 439.987V455.086L269.094 447.224L255.961 454.818V439.719L255.514 439.987Z" fill="black"/>
<path d="M255.514 439.629V454.639L269.094 446.777V431.678L255.514 439.629Z" fill="black"/>
<path d="M255.871 439.719L269.094 432.124V446.152L269.898 446.688V431.588L255.871 439.719Z" fill="black"/>
<path d="M255.514 453.836V454.908L269.72 446.599L269.094 446.152L255.514 453.836Z" fill="black"/>
<path d="M255.96 439.719L269.094 432.124V446.241L269.898 446.688V431.588L255.96 439.719Z" fill="#484848"/>
<path d="M255.514 453.925V454.997L269.809 446.599L269.094 446.152L255.514 453.925Z" fill="black"/>
<path d="M262.572 435.788V449.993L263.376 450.351V435.341L262.572 435.788Z" fill="#484848"/>
<path d="M263.912 434.626V450.083L263.376 450.351V435.341L263.912 434.626Z" fill="black"/>
<path fill-rule="evenodd" clip-rule="evenodd" d="M270.434 430.874V446.956L255.514 455.622V439.54L270.434 430.874ZM256.05 454.55L269.809 446.599V431.767L256.05 439.719V454.55Z" fill="#606060"/>
<mask id="mask0_1230_113734" style="mask-type:luminance" maskUnits="userSpaceOnUse" x="451" y="346" width="155" height="89">
<path d="M451 390.921L528.806 346L605.024 390.005L527.218 434.926L451 390.921Z" fill="white"/>
</mask>
<g mask="url(#mask0_1230_113734)">
<path d="M550.329 389.309L534.458 380.146C534.061 379.918 533.866 379.64 533.872 379.313C533.878 378.986 534.083 378.706 534.487 378.473L550.892 369.002C551.263 368.787 551.69 368.621 552.172 368.504C552.653 368.386 553.154 368.326 553.674 368.323C554.193 368.32 554.692 368.374 555.169 368.486C555.647 368.598 556.068 368.759 556.431 368.969L570.996 377.377C571.658 377.76 572.248 378.176 572.766 378.628C573.283 379.079 573.718 379.555 574.072 380.058C574.425 380.561 574.689 381.079 574.864 381.614C575.039 382.149 575.121 382.689 575.112 383.236C575.102 383.782 575 384.324 574.806 384.861C574.612 385.397 574.329 385.919 573.958 386.426C573.587 386.933 573.134 387.415 572.6 387.873C572.067 388.33 571.462 388.754 570.786 389.144L570.709 389.188C570.033 389.578 569.299 389.928 568.507 390.236C567.715 390.544 566.88 390.805 566.002 391.02C565.124 391.234 564.22 391.397 563.29 391.509C562.36 391.621 561.422 391.68 560.475 391.686C559.529 391.691 558.593 391.644 557.667 391.543C556.741 391.442 555.842 391.289 554.972 391.085C554.101 390.881 553.275 390.63 552.494 390.331C551.713 390.032 550.991 389.692 550.329 389.309Z" fill="#5059C9"/>
<path d="M539.921 363.648C540.351 363.896 540.734 364.167 541.07 364.46C541.406 364.753 541.689 365.063 541.918 365.389C542.147 365.715 542.319 366.052 542.433 366.4C542.546 366.747 542.6 367.098 542.594 367.453C542.587 367.807 542.521 368.159 542.395 368.508C542.269 368.857 542.085 369.196 541.844 369.525C541.603 369.854 541.309 370.167 540.963 370.464C540.616 370.761 540.223 371.037 539.784 371.29C539.345 371.543 538.868 371.77 538.354 371.97C537.839 372.171 537.297 372.34 536.727 372.479C536.157 372.619 535.569 372.725 534.965 372.797C534.361 372.87 533.752 372.908 533.138 372.912C532.523 372.916 531.915 372.885 531.314 372.819C530.712 372.754 530.129 372.655 529.563 372.522C528.998 372.39 528.461 372.226 527.954 372.032C527.447 371.838 526.978 371.617 526.548 371.369C526.118 371.12 525.734 370.85 525.398 370.557C525.062 370.264 524.779 369.954 524.55 369.628C524.321 369.301 524.149 368.965 524.036 368.617C523.922 368.27 523.868 367.919 523.875 367.564C523.881 367.209 523.947 366.858 524.073 366.509C524.199 366.16 524.383 365.821 524.624 365.492C524.865 365.163 525.159 364.85 525.506 364.553C525.852 364.255 526.245 363.98 526.684 363.727C527.123 363.473 527.6 363.246 528.114 363.046C528.629 362.846 529.171 362.676 529.741 362.537C530.312 362.398 530.899 362.292 531.503 362.219C532.107 362.147 532.716 362.108 533.331 362.105C533.945 362.101 534.553 362.132 535.155 362.198C535.756 362.263 536.34 362.362 536.905 362.495C537.47 362.627 538.007 362.79 538.514 362.984C539.022 363.178 539.49 363.4 539.921 363.648Z" fill="#5059C9"/>
<path d="M570.705 390.046C570.56 390.123 570.41 390.2 570.253 390.278C570.405 390.203 570.556 390.126 570.705 390.046Z" fill="#5059C9"/>
<path d="M518.708 372.457C519.333 372.818 519.891 373.212 520.38 373.638C520.869 374.064 521.28 374.515 521.613 374.989C521.947 375.464 522.196 375.954 522.362 376.459C522.527 376.964 522.605 377.475 522.596 377.991C522.587 378.507 522.49 379.019 522.307 379.526C522.124 380.033 521.857 380.526 521.506 381.005C521.155 381.484 520.728 381.94 520.224 382.372C519.719 382.804 519.148 383.204 518.509 383.573C517.871 383.941 517.177 384.271 516.429 384.563C515.68 384.854 514.892 385.1 514.062 385.303C513.233 385.505 512.379 385.659 511.5 385.765C510.622 385.871 509.736 385.927 508.842 385.932C507.948 385.938 507.063 385.892 506.188 385.797C505.313 385.701 504.465 385.557 503.643 385.365C502.82 385.172 502.04 384.935 501.302 384.653C500.564 384.37 499.882 384.049 499.256 383.687C498.631 383.326 498.073 382.932 497.584 382.506C497.095 382.08 496.684 381.63 496.351 381.155C496.017 380.68 495.768 380.19 495.602 379.685C495.437 379.18 495.359 378.669 495.368 378.153C495.377 377.637 495.474 377.125 495.657 376.618C495.84 376.111 496.107 375.618 496.458 375.139C496.809 374.66 497.236 374.205 497.74 373.773C498.245 373.341 498.816 372.94 499.455 372.572C500.093 372.203 500.787 371.873 501.535 371.582C502.284 371.291 503.072 371.044 503.902 370.841C504.731 370.639 505.585 370.485 506.464 370.379C507.342 370.273 508.228 370.217 509.122 370.212C510.016 370.207 510.901 370.252 511.776 370.347C512.651 370.443 513.499 370.587 514.321 370.779C515.144 370.972 515.924 371.209 516.662 371.492C517.4 371.774 518.082 372.096 518.708 372.457Z" fill="#7B83EB"/>
<path d="M537.481 376.745L509.114 393.123C508.738 393.337 508.446 393.585 508.238 393.865C508.03 394.144 507.922 394.436 507.914 394.738C507.905 395.04 507.998 395.331 508.19 395.61C508.383 395.888 508.661 396.134 509.026 396.347L525.515 405.867C526.615 406.488 527.81 407.04 529.101 407.523C530.392 408.006 531.754 408.412 533.188 408.74C534.622 409.067 536.101 409.311 537.623 409.471C539.146 409.631 540.684 409.704 542.237 409.689C543.791 409.675 545.33 409.574 546.856 409.387C548.381 409.199 549.864 408.928 551.303 408.574C552.743 408.22 554.113 407.79 555.412 407.283C556.711 406.776 557.916 406.202 559.025 405.561C560.135 404.92 561.129 404.225 562.007 403.475C562.885 402.725 563.631 401.934 564.244 401.103C564.857 400.272 565.326 399.416 565.651 398.535C565.976 397.654 566.151 396.765 566.176 395.869C566.2 394.972 566.074 394.084 565.797 393.205C565.521 392.326 565.098 391.472 564.531 390.644C563.963 389.816 563.26 389.03 562.423 388.284C561.586 387.539 560.63 386.849 559.555 386.214L543.066 376.694C542.697 376.484 542.272 376.323 541.789 376.211C541.306 376.1 540.803 376.047 540.279 376.052C539.755 376.057 539.251 376.119 538.766 376.239C538.282 376.359 537.853 376.528 537.481 376.745Z" fill="#7B83EB"/>
<path d="M514.114 382.439L517.222 384.233C516.257 384.667 515.212 385.022 514.089 385.297C512.966 385.572 511.803 385.759 510.6 385.856C509.398 385.954 508.197 385.959 506.998 385.872C505.8 385.785 504.645 385.608 503.534 385.343L508.506 382.472C508.881 382.255 509.313 382.086 509.801 381.967C510.289 381.848 510.796 381.786 511.322 381.783C511.848 381.78 512.353 381.835 512.837 381.949C513.321 382.063 513.746 382.226 514.114 382.439Z" fill="black" fill-opacity="0.098"/>
<path d="M480.136 398.852L508.502 382.474C508.879 382.257 509.311 382.089 509.799 381.97C510.288 381.851 510.796 381.789 511.322 381.786C511.849 381.783 512.354 381.838 512.839 381.952C513.323 382.065 513.749 382.228 514.118 382.441L541.906 398.484C542.274 398.697 542.557 398.943 542.753 399.223C542.95 399.503 543.045 399.794 543.04 400.098C543.034 400.402 542.928 400.695 542.722 400.978C542.515 401.26 542.224 401.509 541.848 401.726L513.481 418.104C513.105 418.321 512.673 418.489 512.184 418.609C511.695 418.728 511.188 418.789 510.661 418.792C510.135 418.795 509.629 418.74 509.145 418.627C508.661 418.513 508.234 418.35 507.866 418.137L480.078 402.094C479.709 401.881 479.427 401.635 479.23 401.355C479.034 401.076 478.938 400.784 478.944 400.48C478.949 400.176 479.055 399.883 479.262 399.601C479.468 399.319 479.759 399.069 480.136 398.852Z" fill="#4B53BC"/>
<path d="M511.779 392.31L506.23 395.513L521.745 404.471L518.209 406.513L502.694 397.555L497.17 400.744L494.16 399.006L508.769 390.572L511.779 392.31Z" fill="white"/>
</g>
<path d="M511.305 287.122C505.044 282.96 494.956 282.96 488.695 287.122C482.435 291.285 482.435 298.049 488.695 302.212C494.956 306.374 505.044 306.374 511.305 302.212C517.565 298.049 517.565 291.285 511.305 287.122Z" fill="#C92222"/>
<path d="M493.667 292.426H499.32C500.519 292.426 501.118 292.426 501.575 292.561C501.978 292.679 502.305 292.868 502.51 293.101C502.743 293.365 502.743 293.711 502.743 294.403L502.743 297.667" stroke="black" stroke-width="2" stroke-linecap="round" stroke-linejoin="round"/>
<path d="M235.695 303.211C241.956 307.374 252.044 307.374 258.305 303.211C264.565 299.049 264.565 292.285 258.305 288.122C252.044 283.959 241.956 283.959 235.695 288.122C229.435 292.285 229.435 299.049 235.695 303.211Z" fill="#C92222"/>
<path d="M252.333 296.907H246.68C245.481 296.907 244.882 296.907 244.425 296.773C244.022 296.654 243.695 296.465 243.49 296.233C243.257 295.969 243.257 295.623 243.257 294.931L243.257 291.667" stroke="black" stroke-width="2" stroke-linecap="round" stroke-linejoin="round"/>
<path d="M464.305 355.122C458.044 350.96 447.956 350.96 441.695 355.122C435.435 359.285 435.435 366.049 441.695 370.212C447.956 374.374 458.044 374.374 464.305 370.212C470.565 366.049 470.565 359.285 464.305 355.122Z" fill="#C92222"/>
<path d="M446.667 360.426H452.32C453.519 360.426 454.118 360.426 454.575 360.561C454.978 360.679 455.305 360.868 455.51 361.101C455.743 361.365 455.743 361.711 455.743 362.403L455.743 365.667" stroke="black" stroke-width="2" stroke-linecap="round" stroke-linejoin="round"/>
<path d="M22.372 46.198C19.276 46.198 16.801 43.759 16.801 39.394C16.801 35.029 19.348 32.536 22.615 32.536C26.206 32.536 27.556 35.281 27.556 37.045V37.153H25.252V37.045C25.252 35.803 24.379 34.507 22.615 34.507C20.833 34.507 19.204 35.911 19.204 39.394C19.204 42.931 20.761 44.254 22.534 44.254C24.325 44.254 25.207 43.174 25.396 42.283V41.248H22.561V39.466H27.52V46H26.152L25.954 44.524C25.774 44.956 24.793 46.198 22.372 46.198ZM32.363 31.933V46H30.032V31.933H32.363ZM39.4817 46.189C36.4577 46.189 34.3607 44.128 34.3607 41.221C34.3607 38.314 36.4577 36.28 39.4817 36.28C42.5057 36.28 44.6027 38.314 44.6027 41.221C44.6027 44.128 42.5057 46.189 39.4817 46.189ZM39.4817 44.254C41.1107 44.254 42.2087 43.048 42.2087 41.221C42.2087 39.385 41.1107 38.224 39.4817 38.224C37.8527 38.224 36.7547 39.385 36.7547 41.221C36.7547 43.048 37.8527 44.254 39.4817 44.254ZM46.561 46V31.933H48.937V37.576C49.711 36.766 50.782 36.28 51.943 36.28C54.265 36.28 56.344 38.035 56.344 41.194C56.344 44.461 54.319 46.198 51.943 46.198C50.782 46.198 49.711 45.685 48.937 44.848V46H46.561ZM51.403 38.296C50.143 38.296 48.937 39.259 48.937 40.672V41.698C48.937 43.111 50.134 44.11 51.403 44.11C52.78 44.11 53.896 43.183 53.896 41.194C53.896 39.196 52.789 38.296 51.403 38.296ZM61.5792 46.198C59.4462 46.198 57.9702 45.145 57.9702 43.345C57.9702 41.383 59.7432 40.519 61.9662 40.303C64.1442 40.087 64.9092 39.961 64.9092 39.511V39.493C64.9092 38.647 64.1172 38.179 62.7402 38.179C61.2912 38.179 60.4902 38.674 60.4902 39.772H58.1502C58.1502 37.522 60.1122 36.28 62.7582 36.28C65.2152 36.28 67.2852 37.387 67.2852 39.628V43.984C67.2852 44.443 67.3032 44.893 67.4022 45.244C67.5192 45.64 67.7172 45.901 67.8162 46H65.4762C65.3952 45.919 65.2152 45.649 65.0982 45.325C65.0532 45.199 65.0262 45.082 64.9992 44.947C64.2972 45.73 63.0462 46.198 61.5792 46.198ZM62.1552 44.335C63.6402 44.335 64.9272 43.606 64.9272 41.95V41.5C64.2162 41.689 63.3342 41.815 62.4792 41.896C61.0572 42.04 60.3462 42.328 60.3462 43.147C60.3462 43.939 60.9402 44.335 62.1552 44.335ZM71.9489 31.933V46H69.6179V31.933H71.9489ZM81.6326 46.045L78.2486 32.725H80.8676L83.3966 44.218L85.9076 32.725H88.5266L85.1696 46.045H81.6326ZM94.3606 46.189C91.3366 46.189 89.2396 44.128 89.2396 41.221C89.2396 38.314 91.3366 36.28 94.3606 36.28C97.3846 36.28 99.4816 38.314 99.4816 41.221C99.4816 44.128 97.3846 46.189 94.3606 46.189ZM94.3606 44.254C95.9896 44.254 97.0876 43.048 97.0876 41.221C97.0876 39.385 95.9896 38.224 94.3606 38.224C92.7316 38.224 91.6336 39.385 91.6336 41.221C91.6336 43.048 92.7316 44.254 94.3606 44.254ZM102.574 34.678C101.8 34.678 101.143 34.246 101.143 33.499C101.143 32.761 101.8 32.338 102.574 32.338C103.33 32.338 103.987 32.761 103.987 33.499C103.987 34.255 103.33 34.678 102.574 34.678ZM101.395 46V36.442H103.735V46H101.395ZM110.806 46.198C107.773 46.198 105.658 44.218 105.658 41.194C105.658 38.179 107.773 36.28 110.806 36.28C113.821 36.28 115.513 38.287 115.513 40.033V40.105H113.164C113.164 40.042 113.146 39.97 113.137 39.898C112.984 38.989 112.174 38.242 110.779 38.242C109.267 38.242 108.07 39.241 108.07 41.194C108.07 43.138 109.267 44.236 110.779 44.236C112.381 44.236 113.074 43.408 113.155 42.409H115.513C115.513 44.191 113.875 46.198 110.806 46.198ZM127.074 42.985C126.921 44.578 125.22 46.207 122.178 46.207C119.1 46.207 117.048 44.164 117.048 41.248C117.048 38.287 119.154 36.28 122.178 36.28C125.274 36.28 127.209 38.314 127.209 41.266C127.209 41.518 127.191 41.86 127.173 41.986H119.442C119.685 43.462 120.666 44.326 122.259 44.326C123.942 44.326 124.644 43.606 124.716 42.985H127.074ZM122.205 38.134C120.765 38.134 119.757 38.926 119.469 40.303H124.761C124.662 39.151 123.834 38.134 122.205 38.134ZM137.963 46.198C135.128 46.198 133.274 44.848 133.274 42.148V41.599H135.641V42.103C135.641 43.543 136.442 44.254 137.972 44.254C139.52 44.254 140.366 43.768 140.366 42.625C140.366 41.392 139.007 40.762 137.144 40.177C135.056 39.538 133.364 38.395 133.364 36.118C133.364 33.841 135.281 32.536 137.918 32.536C140.672 32.536 142.58 33.832 142.58 36.388V36.973H140.204V36.496C140.204 35.137 139.457 34.489 137.954 34.489C136.487 34.489 135.659 34.993 135.659 36.109C135.659 37.36 136.973 37.909 138.782 38.521C141.158 39.322 142.679 40.267 142.679 42.544C142.679 44.875 140.807 46.198 137.963 46.198ZM154.268 42.985C154.115 44.578 152.414 46.207 149.372 46.207C146.294 46.207 144.242 44.164 144.242 41.248C144.242 38.287 146.348 36.28 149.372 36.28C152.468 36.28 154.403 38.314 154.403 41.266C154.403 41.518 154.385 41.86 154.367 41.986H146.636C146.879 43.462 147.86 44.326 149.453 44.326C151.136 44.326 151.838 43.606 151.91 42.985H154.268ZM149.399 38.134C147.959 38.134 146.951 38.926 146.663 40.303H151.955C151.856 39.151 151.028 38.134 149.399 38.134ZM156.354 46V36.442H158.721V37.72C159.261 36.856 160.161 36.28 161.448 36.28C162.222 36.28 162.681 36.433 162.789 36.505L162.357 38.674C162.24 38.593 161.871 38.422 161.259 38.422C159.306 38.422 158.721 39.925 158.721 41.248V46H156.354ZM172.67 36.442L169.673 46H166.496L163.427 36.442H165.875L168.089 44.479L170.222 36.442H172.67ZM175.33 34.678C174.556 34.678 173.899 34.246 173.899 33.499C173.899 32.761 174.556 32.338 175.33 32.338C176.086 32.338 176.743 32.761 176.743 33.499C176.743 34.255 176.086 34.678 175.33 34.678ZM174.151 46V36.442H176.491V46H174.151ZM183.561 46.198C180.528 46.198 178.413 44.218 178.413 41.194C178.413 38.179 180.528 36.28 183.561 36.28C186.576 36.28 188.268 38.287 188.268 40.033V40.105H185.919C185.919 40.042 185.901 39.97 185.892 39.898C185.739 38.989 184.929 38.242 183.534 38.242C182.022 38.242 180.825 39.241 180.825 41.194C180.825 43.138 182.022 44.236 183.534 44.236C185.136 44.236 185.829 43.408 185.91 42.409H188.268C188.268 44.191 186.63 46.198 183.561 46.198ZM199.83 42.985C199.677 44.578 197.976 46.207 194.934 46.207C191.856 46.207 189.804 44.164 189.804 41.248C189.804 38.287 191.91 36.28 194.934 36.28C198.03 36.28 199.965 38.314 199.965 41.266C199.965 41.518 199.947 41.86 199.929 41.986H192.198C192.441 43.462 193.422 44.326 195.015 44.326C196.698 44.326 197.4 43.606 197.472 42.985H199.83ZM194.961 38.134C193.521 38.134 192.513 38.926 192.225 40.303H197.517C197.418 39.151 196.59 38.134 194.961 38.134ZM205.778 46.198C203.501 46.198 201.494 45.181 201.494 43.201V42.994H203.852V43.156C203.852 43.939 204.608 44.326 205.85 44.326C206.867 44.326 207.794 44.011 207.794 43.309C207.794 42.553 207.038 42.328 205.391 42.058C203.573 41.752 201.629 41.068 201.629 39.178C201.629 37.297 203.501 36.28 205.796 36.28C207.983 36.28 209.945 37.396 209.945 39.304V39.448H207.605V39.331C207.605 38.512 206.705 38.143 205.796 38.143C204.968 38.143 203.951 38.377 203.951 39.115C203.951 39.844 204.896 40.096 206.3 40.339C208.037 40.636 210.107 41.212 210.107 43.219C210.107 45.307 207.983 46.198 205.778 46.198ZM220.951 46.18C219.583 46.18 217.954 45.811 217.954 43.543V38.332H215.695V36.442H216.613C217.855 36.442 217.954 36.361 217.954 34.813V33.292H220.33V36.442H223.174V38.332H220.33V42.823C220.33 43.723 220.447 44.299 221.257 44.299C221.635 44.299 222.013 44.209 222.184 44.137V45.991C221.95 46.081 221.509 46.18 220.951 46.18ZM229.396 46.189C226.372 46.189 224.275 44.128 224.275 41.221C224.275 38.314 226.372 36.28 229.396 36.28C232.42 36.28 234.517 38.314 234.517 41.221C234.517 44.128 232.42 46.189 229.396 46.189ZM229.396 44.254C231.025 44.254 232.123 43.048 232.123 41.221C232.123 39.385 231.025 38.224 229.396 38.224C227.767 38.224 226.669 39.385 226.669 41.221C226.669 43.048 227.767 44.254 229.396 44.254ZM243.324 46H240.948V32.725H245.214C248.265 32.725 249.966 34.642 249.966 37.099C249.966 39.565 248.22 41.617 245.214 41.617H243.324V46ZM244.953 34.615H243.324V39.736H244.953C246.609 39.736 247.572 38.737 247.572 37.099C247.572 35.47 246.645 34.615 244.953 34.615ZM256.779 32.725C259.443 32.725 260.766 33.877 260.766 35.92C260.766 37.9 259.38 38.989 258.093 39.07C259.461 39.106 261.072 39.943 261.072 42.274C261.072 44.497 259.812 46 256.734 46H251.811V32.725H256.779ZM256.176 34.615H254.079V38.197H255.969C257.544 38.197 258.39 37.504 258.39 36.307C258.39 35.11 257.58 34.615 256.176 34.615ZM256.266 44.11C257.796 44.11 258.66 43.381 258.66 42.13C258.66 40.681 257.562 40.078 256.104 40.078H254.079V44.11H256.266ZM269.392 46L266.737 41.122L264.082 46H261.427L265.261 39.43L261.535 32.725H264.19L266.737 37.738L269.266 32.725H271.93L268.231 39.421L272.056 46H269.392ZM281.499 46.198C279.366 46.198 277.89 45.145 277.89 43.345C277.89 41.383 279.663 40.519 281.886 40.303C284.064 40.087 284.829 39.961 284.829 39.511V39.493C284.829 38.647 284.037 38.179 282.66 38.179C281.211 38.179 280.41 38.674 280.41 39.772H278.07C278.07 37.522 280.032 36.28 282.678 36.28C285.135 36.28 287.205 37.387 287.205 39.628V43.984C287.205 44.443 287.223 44.893 287.322 45.244C287.439 45.64 287.637 45.901 287.736 46H285.396C285.315 45.919 285.135 45.649 285.018 45.325C284.973 45.199 284.946 45.082 284.919 44.947C284.217 45.73 282.966 46.198 281.499 46.198ZM282.075 44.335C283.56 44.335 284.847 43.606 284.847 41.95V41.5C284.136 41.689 283.254 41.815 282.399 41.896C280.977 42.04 280.266 42.328 280.266 43.147C280.266 43.939 280.86 44.335 282.075 44.335ZM289.403 46V36.442H291.77V37.882C292.508 36.883 293.687 36.28 295.01 36.28C297.314 36.28 298.538 37.72 298.538 39.952V46H296.162V40.627C296.162 39.331 295.685 38.35 294.119 38.35C292.742 38.35 291.77 39.421 291.77 40.897V46H289.403ZM304.78 46.198C302.404 46.198 300.388 44.461 300.388 41.194C300.388 38.035 302.467 36.28 304.78 36.28C305.941 36.28 307.021 36.757 307.795 37.576V31.933H310.171V46H307.795V44.857C307.039 45.694 305.977 46.198 304.78 46.198ZM305.329 44.11C306.634 44.11 307.795 43.102 307.795 41.653V40.672C307.795 39.259 306.589 38.296 305.329 38.296C303.943 38.296 302.836 39.196 302.836 41.194C302.836 43.183 303.952 44.11 305.329 44.11ZM326.388 32.725H330.42V46H328.161V34.471L325.362 46H322.194L319.359 34.453V46H317.1V32.725H321.132L323.751 44.353L326.388 32.725ZM334.025 34.678C333.251 34.678 332.594 34.246 332.594 33.499C332.594 32.761 333.251 32.338 334.025 32.338C334.781 32.338 335.438 32.761 335.438 33.499C335.438 34.255 334.781 34.678 334.025 34.678ZM332.846 46V36.442H335.186V46H332.846ZM342.257 46.198C339.224 46.198 337.109 44.218 337.109 41.194C337.109 38.179 339.224 36.28 342.257 36.28C345.272 36.28 346.964 38.287 346.964 40.033V40.105H344.615C344.615 40.042 344.597 39.97 344.588 39.898C344.435 38.989 343.625 38.242 342.23 38.242C340.718 38.242 339.521 39.241 339.521 41.194C339.521 43.138 340.718 44.236 342.23 44.236C343.832 44.236 344.525 43.408 344.606 42.409H346.964C346.964 44.191 345.326 46.198 342.257 46.198ZM348.922 46V36.442H351.289V37.72C351.829 36.856 352.729 36.28 354.016 36.28C354.79 36.28 355.249 36.433 355.357 36.505L354.925 38.674C354.808 38.593 354.439 38.422 353.827 38.422C351.874 38.422 351.289 39.925 351.289 41.248V46H348.922ZM361.372 46.189C358.348 46.189 356.251 44.128 356.251 41.221C356.251 38.314 358.348 36.28 361.372 36.28C364.396 36.28 366.493 38.314 366.493 41.221C366.493 44.128 364.396 46.189 361.372 46.189ZM361.372 44.254C363.001 44.254 364.099 43.048 364.099 41.221C364.099 39.385 363.001 38.224 361.372 38.224C359.743 38.224 358.645 39.385 358.645 41.221C358.645 43.048 359.743 44.254 361.372 44.254ZM372.313 46.198C370.036 46.198 368.029 45.181 368.029 43.201V42.994H370.387V43.156C370.387 43.939 371.143 44.326 372.385 44.326C373.402 44.326 374.329 44.011 374.329 43.309C374.329 42.553 373.573 42.328 371.926 42.058C370.108 41.752 368.164 41.068 368.164 39.178C368.164 37.297 370.036 36.28 372.331 36.28C374.518 36.28 376.48 37.396 376.48 39.304V39.448H374.14V39.331C374.14 38.512 373.24 38.143 372.331 38.143C371.503 38.143 370.486 38.377 370.486 39.115C370.486 39.844 371.431 40.096 372.835 40.339C374.572 40.636 376.642 41.212 376.642 43.219C376.642 45.307 374.518 46.198 372.313 46.198ZM383.292 46.189C380.268 46.189 378.171 44.128 378.171 41.221C378.171 38.314 380.268 36.28 383.292 36.28C386.316 36.28 388.413 38.314 388.413 41.221C388.413 44.128 386.316 46.189 383.292 46.189ZM383.292 44.254C384.921 44.254 386.019 43.048 386.019 41.221C386.019 39.385 384.921 38.224 383.292 38.224C381.663 38.224 380.565 39.385 380.565 41.221C380.565 43.048 381.663 44.254 383.292 44.254ZM391.462 46V38.332H389.437V36.442H391.462V35.587C391.462 32.77 393.487 31.798 395.395 31.798C396.115 31.798 396.466 31.915 396.601 31.969V33.877C396.457 33.832 396.061 33.742 395.656 33.742C394.18 33.742 393.829 34.642 393.829 35.776V36.442H396.475V38.332H393.829V46H391.462ZM402.41 46.18C401.042 46.18 399.413 45.811 399.413 43.543V38.332H397.154V36.442H398.072C399.314 36.442 399.413 36.361 399.413 34.813V33.292H401.789V36.442H404.633V38.332H401.789V42.823C401.789 43.723 401.906 44.299 402.716 44.299C403.094 44.299 403.472 44.209 403.643 44.137V45.991C403.409 46.081 402.968 46.18 402.41 46.18ZM419.398 34.615H416.068V46H413.692V34.615H410.371V32.725H419.398V34.615ZM429.471 42.985C429.318 44.578 427.617 46.207 424.575 46.207C421.497 46.207 419.445 44.164 419.445 41.248C419.445 38.287 421.551 36.28 424.575 36.28C427.671 36.28 429.606 38.314 429.606 41.266C429.606 41.518 429.588 41.86 429.57 41.986H421.839C422.082 43.462 423.063 44.326 424.656 44.326C426.339 44.326 427.041 43.606 427.113 42.985H429.471ZM424.602 38.134C423.162 38.134 422.154 38.926 421.866 40.303H427.158C427.059 39.151 426.231 38.134 424.602 38.134ZM434.833 46.198C432.7 46.198 431.224 45.145 431.224 43.345C431.224 41.383 432.997 40.519 435.22 40.303C437.398 40.087 438.163 39.961 438.163 39.511V39.493C438.163 38.647 437.371 38.179 435.994 38.179C434.545 38.179 433.744 38.674 433.744 39.772H431.404C431.404 37.522 433.366 36.28 436.012 36.28C438.469 36.28 440.539 37.387 440.539 39.628V43.984C440.539 44.443 440.557 44.893 440.656 45.244C440.773 45.64 440.971 45.901 441.07 46H438.73C438.649 45.919 438.469 45.649 438.352 45.325C438.307 45.199 438.28 45.082 438.253 44.947C437.551 45.73 436.3 46.198 434.833 46.198ZM435.409 44.335C436.894 44.335 438.181 43.606 438.181 41.95V41.5C437.47 41.689 436.588 41.815 435.733 41.896C434.311 42.04 433.6 42.328 433.6 43.147C433.6 43.939 434.194 44.335 435.409 44.335ZM442.737 46V36.442H445.104V37.693C445.734 36.82 446.706 36.28 447.939 36.28C449.496 36.28 450.36 37 450.756 38.098C451.341 36.991 452.412 36.28 453.834 36.28C456.075 36.28 456.948 37.783 456.948 39.808V46H454.581V40.501C454.581 39.493 454.473 38.35 452.979 38.35C451.521 38.35 451.026 39.637 451.026 40.852V46H448.677V40.519C448.677 39.565 448.56 38.35 447.084 38.35C445.653 38.35 445.104 39.628 445.104 40.933V46H442.737ZM468.225 50.203C467.469 49.645 464.229 46.936 464.229 40.663C464.229 34.363 467.469 31.636 468.225 31.123L469.476 32.428C468.711 33.013 466.308 35.362 466.308 40.663C466.308 45.955 468.711 48.277 469.476 48.898L468.225 50.203ZM475.515 46.198C472.68 46.198 470.826 44.848 470.826 42.148V41.599H473.193V42.103C473.193 43.543 473.994 44.254 475.524 44.254C477.072 44.254 477.918 43.768 477.918 42.625C477.918 41.392 476.559 40.762 474.696 40.177C472.608 39.538 470.916 38.395 470.916 36.118C470.916 33.841 472.833 32.536 475.47 32.536C478.224 32.536 480.132 33.832 480.132 36.388V36.973H477.756V36.496C477.756 35.137 477.009 34.489 475.506 34.489C474.039 34.489 473.211 34.993 473.211 36.109C473.211 37.36 474.525 37.909 476.334 38.521C478.71 39.322 480.231 40.267 480.231 42.544C480.231 44.875 478.359 46.198 475.515 46.198ZM486.609 46.18C485.241 46.18 483.612 45.811 483.612 43.543V38.332H481.353V36.442H482.271C483.513 36.442 483.612 36.361 483.612 34.813V33.292H485.988V36.442H488.832V38.332H485.988V42.823C485.988 43.723 486.105 44.299 486.915 44.299C487.293 44.299 487.671 44.209 487.842 44.137V45.991C487.608 46.081 487.167 46.18 486.609 46.18ZM493.632 46.198C491.499 46.198 490.023 45.145 490.023 43.345C490.023 41.383 491.796 40.519 494.019 40.303C496.197 40.087 496.962 39.961 496.962 39.511V39.493C496.962 38.647 496.17 38.179 494.793 38.179C493.344 38.179 492.543 38.674 492.543 39.772H490.203C490.203 37.522 492.165 36.28 494.811 36.28C497.268 36.28 499.338 37.387 499.338 39.628V43.984C499.338 44.443 499.356 44.893 499.455 45.244C499.572 45.64 499.77 45.901 499.869 46H497.529C497.448 45.919 497.268 45.649 497.151 45.325C497.106 45.199 497.079 45.082 497.052 44.947C496.35 45.73 495.099 46.198 493.632 46.198ZM494.208 44.335C495.693 44.335 496.98 43.606 496.98 41.95V41.5C496.269 41.689 495.387 41.815 494.532 41.896C493.11 42.04 492.399 42.328 492.399 43.147C492.399 43.939 492.993 44.335 494.208 44.335ZM501.536 46V36.442H503.903V37.72C504.443 36.856 505.343 36.28 506.63 36.28C507.404 36.28 507.863 36.433 507.971 36.505L507.539 38.674C507.422 38.593 507.053 38.422 506.441 38.422C504.488 38.422 503.903 39.925 503.903 41.248V46H501.536ZM513.855 46.18C512.487 46.18 510.858 45.811 510.858 43.543V38.332H508.599V36.442H509.517C510.759 36.442 510.858 36.361 510.858 34.813V33.292H513.234V36.442H516.078V38.332H513.234V42.823C513.234 43.723 513.351 44.299 514.161 44.299C514.539 44.299 514.917 44.209 515.088 44.137V45.991C514.854 46.081 514.413 46.18 513.855 46.18ZM523.5 34.678C522.726 34.678 522.069 34.246 522.069 33.499C522.069 32.761 522.726 32.338 523.5 32.338C524.256 32.338 524.913 32.761 524.913 33.499C524.913 34.255 524.256 34.678 523.5 34.678ZM522.321 46V36.442H524.661V46H522.321ZM527.006 46V36.442H529.373V37.882C530.111 36.883 531.29 36.28 532.613 36.28C534.917 36.28 536.141 37.72 536.141 39.952V46H533.765V40.627C533.765 39.331 533.288 38.35 531.722 38.35C530.345 38.35 529.373 39.421 529.373 40.897V46H527.006ZM547.307 46.18C545.939 46.18 544.31 45.811 544.31 43.543V38.332H542.051V36.442H542.969C544.211 36.442 544.31 36.361 544.31 34.813V33.292H546.686V36.442H549.53V38.332H546.686V42.823C546.686 43.723 546.803 44.299 547.613 44.299C547.991 44.299 548.369 44.209 548.54 44.137V45.991C548.306 46.081 547.865 46.18 547.307 46.18ZM551.317 46V31.933H553.684V37.684C554.404 36.811 555.529 36.28 556.879 36.28C559.201 36.28 560.452 37.729 560.452 40.177V46H558.085V40.807C558.085 39.223 557.536 38.35 556.042 38.35C554.548 38.35 553.684 39.295 553.684 40.663V46H551.317ZM572.346 42.985C572.193 44.578 570.492 46.207 567.45 46.207C564.372 46.207 562.32 44.164 562.32 41.248C562.32 38.287 564.426 36.28 567.45 36.28C570.546 36.28 572.481 38.314 572.481 41.266C572.481 41.518 572.463 41.86 572.445 41.986H564.714C564.957 43.462 565.938 44.326 567.531 44.326C569.214 44.326 569.916 43.606 569.988 42.985H572.346ZM567.477 38.134C566.037 38.134 565.029 38.926 564.741 40.303H570.033C569.934 39.151 569.106 38.134 567.477 38.134ZM580.093 46V38.332H578.068V36.442H580.093V35.587C580.093 32.77 582.118 31.798 584.026 31.798C584.746 31.798 585.097 31.915 585.232 31.969V33.877C585.088 33.832 584.692 33.742 584.287 33.742C582.811 33.742 582.46 34.642 582.46 35.776V36.442H585.106V38.332H582.46V46H580.093ZM589.521 46.198C587.388 46.198 585.912 45.145 585.912 43.345C585.912 41.383 587.685 40.519 589.908 40.303C592.086 40.087 592.851 39.961 592.851 39.511V39.493C592.851 38.647 592.059 38.179 590.682 38.179C589.233 38.179 588.432 38.674 588.432 39.772H586.092C586.092 37.522 588.054 36.28 590.7 36.28C593.157 36.28 595.227 37.387 595.227 39.628V43.984C595.227 44.443 595.245 44.893 595.344 45.244C595.461 45.64 595.659 45.901 595.758 46H593.418C593.337 45.919 593.157 45.649 593.04 45.325C592.995 45.199 592.968 45.082 592.941 44.947C592.239 45.73 590.988 46.198 589.521 46.198ZM590.097 44.335C591.582 44.335 592.869 43.606 592.869 41.95V41.5C592.158 41.689 591.276 41.815 590.421 41.896C588.999 42.04 588.288 42.328 588.288 43.147C588.288 43.939 588.882 44.335 590.097 44.335ZM597.424 46V31.933H599.8V37.576C600.574 36.766 601.645 36.28 602.806 36.28C605.128 36.28 607.207 38.035 607.207 41.194C607.207 44.461 605.182 46.198 602.806 46.198C601.645 46.198 600.574 45.685 599.8 44.848V46H597.424ZM602.266 38.296C601.006 38.296 599.8 39.259 599.8 40.672V41.698C599.8 43.111 600.997 44.11 602.266 44.11C603.643 44.11 604.759 43.183 604.759 41.194C604.759 39.196 603.652 38.296 602.266 38.296ZM609.167 46V36.442H611.534V37.72C612.074 36.856 612.974 36.28 614.261 36.28C615.035 36.28 615.494 36.433 615.602 36.505L615.17 38.674C615.053 38.593 614.684 38.422 614.072 38.422C612.119 38.422 611.534 39.925 611.534 41.248V46H609.167ZM618.228 34.678C617.454 34.678 616.797 34.246 616.797 33.499C616.797 32.761 617.454 32.338 618.228 32.338C618.984 32.338 619.641 32.761 619.641 33.499C619.641 34.255 618.984 34.678 618.228 34.678ZM617.049 46V36.442H619.389V46H617.049ZM626.46 46.198C623.427 46.198 621.312 44.218 621.312 41.194C621.312 38.179 623.427 36.28 626.46 36.28C629.475 36.28 631.167 38.287 631.167 40.033V40.105H628.818C628.818 40.042 628.8 39.97 628.791 39.898C628.638 38.989 627.828 38.242 626.433 38.242C624.921 38.242 623.724 39.241 623.724 41.194C623.724 43.138 624.921 44.236 626.433 44.236C628.035 44.236 628.728 43.408 628.809 42.409H631.167C631.167 44.191 629.529 46.198 626.46 46.198ZM633.549 48.754L633.216 48.16C634.017 47.8 634.89 46.783 634.926 46.117C634.755 46.207 634.548 46.261 634.305 46.261C633.612 46.261 633 45.793 633 44.956C633 44.155 633.603 43.597 634.476 43.597C635.421 43.597 636.024 44.29 636.024 45.307C636.024 46.837 634.755 48.223 633.549 48.754ZM649.325 45.055C651.017 45.217 652.169 45.775 652.169 47.305C652.169 49.042 650.387 50.113 647.093 50.113C643.898 50.113 642.125 49.123 642.125 47.557C642.125 47.116 642.242 46.747 642.404 46.504L644.573 46.819C644.501 46.918 644.411 47.134 644.411 47.431C644.411 48.178 645.491 48.484 647.165 48.484C648.983 48.484 649.955 48.088 649.955 47.449C649.955 46.828 649.298 46.729 648.524 46.666L644.897 46.333C643.601 46.207 642.674 45.532 642.674 44.497C642.674 43.732 643.277 43.057 643.763 42.751C642.998 42.103 642.566 41.185 642.566 40.096C642.566 37.855 644.438 36.28 646.985 36.28C648.443 36.28 649.658 36.856 650.261 37.639L650.396 36.442H652.52L651.656 40.15C651.161 42.238 649.883 43.804 647.165 43.804C646.364 43.804 645.653 43.687 645.041 43.462C644.87 43.606 644.735 43.804 644.735 44.02C644.735 44.398 644.996 44.65 645.959 44.74L649.325 45.055ZM647.156 41.977C648.533 41.977 649.415 41.293 649.415 40.06C649.415 38.854 648.524 38.134 647.165 38.134C645.842 38.134 644.888 38.881 644.888 40.078C644.888 41.293 645.779 41.977 647.156 41.977ZM658.425 46.189C655.401 46.189 653.304 44.128 653.304 41.221C653.304 38.314 655.401 36.28 658.425 36.28C661.449 36.28 663.546 38.314 663.546 41.221C663.546 44.128 661.449 46.189 658.425 46.189ZM658.425 44.254C660.054 44.254 661.152 43.048 661.152 41.221C661.152 39.385 660.054 38.224 658.425 38.224C656.796 38.224 655.698 39.385 655.698 41.221C655.698 43.048 656.796 44.254 658.425 44.254ZM675.107 42.985C674.954 44.578 673.253 46.207 670.211 46.207C667.133 46.207 665.081 44.164 665.081 41.248C665.081 38.287 667.187 36.28 670.211 36.28C673.307 36.28 675.242 38.314 675.242 41.266C675.242 41.518 675.224 41.86 675.206 41.986H667.475C667.718 43.462 668.699 44.326 670.292 44.326C671.975 44.326 672.677 43.606 672.749 42.985H675.107ZM670.238 38.134C668.798 38.134 667.79 38.926 667.502 40.303H672.794C672.695 39.151 671.867 38.134 670.238 38.134ZM681.055 46.198C678.778 46.198 676.771 45.181 676.771 43.201V42.994H679.129V43.156C679.129 43.939 679.885 44.326 681.127 44.326C682.144 44.326 683.071 44.011 683.071 43.309C683.071 42.553 682.315 42.328 680.668 42.058C678.85 41.752 676.906 41.068 676.906 39.178C676.906 37.297 678.778 36.28 681.073 36.28C683.26 36.28 685.222 37.396 685.222 39.304V39.448H682.882V39.331C682.882 38.512 681.982 38.143 681.073 38.143C680.245 38.143 679.228 38.377 679.228 39.115C679.228 39.844 680.173 40.096 681.577 40.339C683.314 40.636 685.384 41.212 685.384 43.219C685.384 45.307 683.26 46.198 681.055 46.198ZM696.57 46.189C693.546 46.189 691.449 44.128 691.449 41.221C691.449 38.314 693.546 36.28 696.57 36.28C699.594 36.28 701.691 38.314 701.691 41.221C701.691 44.128 699.594 46.189 696.57 46.189ZM696.57 44.254C698.199 44.254 699.297 43.048 699.297 41.221C699.297 39.385 698.199 38.224 696.57 38.224C694.941 38.224 693.843 39.385 693.843 41.221C693.843 43.048 694.941 44.254 696.57 44.254ZM707.087 46.18C704.369 46.18 703.649 44.146 703.649 42.355V36.442H706.025V41.743C706.025 43.03 706.403 44.137 707.897 44.137C709.319 44.137 710.201 42.679 710.201 41.365V36.442H712.568V46H710.201V44.605C709.517 45.559 708.446 46.18 707.087 46.18ZM719.238 46.18C717.87 46.18 716.241 45.811 716.241 43.543V38.332H713.982V36.442H714.9C716.142 36.442 716.241 36.361 716.241 34.813V33.292H718.617V36.442H721.461V38.332H718.617V42.823C718.617 43.723 718.734 44.299 719.544 44.299C719.922 44.299 720.3 44.209 720.471 44.137V45.991C720.237 46.081 719.796 46.18 719.238 46.18ZM732.141 46.18C730.773 46.18 729.144 45.811 729.144 43.543V38.332H726.885V36.442H727.803C729.045 36.442 729.144 36.361 729.144 34.813V33.292H731.52V36.442H734.364V38.332H731.52V42.823C731.52 43.723 731.637 44.299 732.447 44.299C732.825 44.299 733.203 44.209 733.374 44.137V45.991C733.14 46.081 732.699 46.18 732.141 46.18ZM740.585 46.189C737.561 46.189 735.464 44.128 735.464 41.221C735.464 38.314 737.561 36.28 740.585 36.28C743.609 36.28 745.706 38.314 745.706 41.221C745.706 44.128 743.609 46.189 740.585 46.189ZM740.585 44.254C742.214 44.254 743.312 43.048 743.312 41.221C743.312 39.385 742.214 38.224 740.585 38.224C738.956 38.224 737.858 39.385 737.858 41.221C737.858 43.048 738.956 44.254 740.585 44.254ZM748.439 50.203L747.197 48.898C747.953 48.277 750.356 45.955 750.356 40.663C750.356 35.362 747.953 33.013 747.197 32.428L748.439 31.123C749.195 31.636 752.435 34.363 752.435 40.663C752.435 46.936 749.195 49.645 748.439 50.203Z" fill="white"/>
</svg>
