<svg width="44" height="44" viewBox="0 0 44 44" fill="none" xmlns="http://www.w3.org/2000/svg">
<rect width="44" height="44" rx="12" fill="#F4F4F4"/>
<path opacity="0.12" d="M32 12V22.6571C32 23.7586 32 24.3093 31.7942 24.7271C31.6076 25.106 31.3343 25.3921 30.9643 25.5957C30.5562 25.8203 29.9707 25.8469 28.7998 25.9002C26.2646 26.0156 24.4268 26.4399 22 28C19.5732 26.4399 17.7354 26.0156 15.2002 25.9002C14.0293 25.8469 13.4438 25.8203 13.0357 25.5957C12.6657 25.3921 12.3924 25.106 12.2058 24.7271C12 24.3093 12 23.7586 12 22.6571V12C16.4444 12 18.6667 12 22 14.1429C25.3333 12 27.5556 12 32 12Z" fill="black"/>
<path fill-rule="evenodd" clip-rule="evenodd" d="M32 11.25H31.9462C29.769 11.25 28.0461 11.25 26.4538 11.5291C24.9454 11.7936 23.5689 12.3041 22 13.2582C20.4311 12.3041 19.0546 11.7936 17.5462 11.5291C15.954 11.25 14.231 11.25 12.0538 11.25H12.0538H12C11.8011 11.25 11.6103 11.329 11.4697 11.4697C11.329 11.6103 11.25 11.8011 11.25 12V22.6571V22.6866V22.6866C11.25 23.2123 11.25 23.6501 11.278 24.0072C11.3072 24.3786 11.3702 24.728 11.5329 25.0585C11.7874 25.5753 12.1694 25.9751 12.6742 26.2528C13.0014 26.4329 13.3604 26.5109 13.7422 26.5568C14.1139 26.6016 14.5764 26.6226 15.1374 26.6482L15.1661 26.6495C17.5953 26.76 19.299 27.1552 21.5944 28.6309C21.8415 28.7897 22.1585 28.7897 22.4056 28.6309C24.701 27.1552 26.4047 26.76 28.8339 26.6495L28.8626 26.6482C29.4236 26.6226 29.8861 26.6016 30.2578 26.5568C30.6396 26.5109 30.9986 26.4329 31.3258 26.2528C31.8306 25.9751 32.2126 25.5753 32.4671 25.0585C32.6298 24.728 32.6928 24.3786 32.722 24.0072C32.75 23.6501 32.75 23.2123 32.75 22.6866V22.6571V12C32.75 11.5858 32.4142 11.25 32 11.25ZM17.2871 13.0066C18.6021 13.2371 19.8118 13.679 21.25 14.5577V26.6851C19.218 25.5917 17.4648 25.2526 15.2343 25.151C14.6374 25.1239 14.2311 25.1049 13.9216 25.0676C13.6159 25.0308 13.4782 24.9832 13.3973 24.9387C13.162 24.8092 12.9973 24.6368 12.8786 24.3958C12.8356 24.3084 12.7957 24.1736 12.7734 23.8898C12.7505 23.5984 12.75 23.2198 12.75 22.6571V12.7505C14.6075 12.7539 16.004 12.7816 17.2871 13.0066ZM28.7657 25.151C26.5352 25.2526 24.782 25.5917 22.75 26.6851V14.5577C24.1882 13.679 25.3979 13.2371 26.7129 13.0066C27.996 12.7816 29.3925 12.7539 31.25 12.7505V22.6571C31.25 23.2198 31.2495 23.5984 31.2266 23.8898C31.2043 24.1736 31.1644 24.3084 31.1214 24.3958C31.0027 24.6368 30.838 24.8092 30.6027 24.9387C30.5218 24.9832 30.3841 25.0308 30.0784 25.0676C29.7689 25.1049 29.3626 25.1239 28.7657 25.151ZM13 28.75C12.5858 28.75 12.25 29.0858 12.25 29.5C12.25 29.9142 12.5858 30.25 13 30.25C14.9738 30.25 16.3969 30.3743 17.6777 30.7236C18.9506 31.0707 20.1262 31.6522 21.584 32.624C21.8359 32.792 22.1641 32.792 22.416 32.624C23.8738 31.6522 25.0494 31.0707 26.3223 30.7236C27.6031 30.3743 29.0262 30.25 31 30.25C31.4142 30.25 31.75 29.9142 31.75 29.5C31.75 29.0858 31.4142 28.75 31 28.75C28.9738 28.75 27.3969 28.8757 25.9277 29.2764C24.585 29.6426 23.3686 30.2283 22 31.1041C20.6314 30.2283 19.415 29.6426 18.0723 29.2764C16.6031 28.8757 15.0262 28.75 13 28.75Z" fill="black"/>
</svg>
