<svg width="430" height="653" viewBox="0 0 430 653" fill="none" xmlns="http://www.w3.org/2000/svg">
<path d="M7.908 553.264V571H4.764V556.324C4.5 556.576 2.964 557.128 1.428 557.26V554.692C2.952 554.5 4.488 553.804 4.836 553.264H7.908ZM17.5069 571.264C13.1989 571.264 11.5789 567.088 11.5789 562.192C11.5789 557.296 13.1989 553.048 17.5069 553.048C21.8029 553.048 23.4349 557.296 23.4349 562.192C23.4349 567.088 21.8029 571.264 17.5069 571.264ZM17.5069 568.744C19.3189 568.744 20.2429 566.74 20.2429 562.192C20.2429 557.644 19.3189 555.628 17.5069 555.628C15.6949 555.628 14.7589 557.644 14.7589 562.192C14.7589 566.752 15.6949 568.744 17.5069 568.744ZM36.8242 571.24C33.2003 571.24 32.2402 568.528 32.2402 566.14V558.256H35.4083V565.324C35.4083 567.04 35.9123 568.516 37.9043 568.516C39.8003 568.516 40.9763 566.572 40.9763 564.82V558.256H44.1323V571H40.9763V569.14C40.0643 570.412 38.6363 571.24 36.8242 571.24ZM52.3179 571.264C49.2819 571.264 46.6059 569.908 46.6059 567.268V566.992H49.7499V567.208C49.7499 568.252 50.7579 568.768 52.4139 568.768C53.7699 568.768 55.0059 568.348 55.0059 567.412C55.0059 566.404 53.9979 566.104 51.8019 565.744C49.3779 565.336 46.7859 564.424 46.7859 561.904C46.7859 559.396 49.2819 558.04 52.3419 558.04C55.2579 558.04 57.8739 559.528 57.8739 562.072V562.264H54.7539V562.108C54.7539 561.016 53.5539 560.524 52.3419 560.524C51.2379 560.524 49.8819 560.836 49.8819 561.82C49.8819 562.792 51.1419 563.128 53.0139 563.452C55.3299 563.848 58.0899 564.616 58.0899 567.292C58.0899 570.076 55.2579 571.264 52.3179 571.264ZM65.0614 571.264C62.2174 571.264 60.2494 569.86 60.2494 567.46C60.2494 564.844 62.6134 563.692 65.5774 563.404C68.4814 563.116 69.5014 562.948 69.5014 562.348V562.324C69.5014 561.196 68.4454 560.572 66.6094 560.572C64.6774 560.572 63.6094 561.232 63.6094 562.696H60.4894C60.4894 559.696 63.1054 558.04 66.6334 558.04C69.9094 558.04 72.6694 559.516 72.6694 562.504V568.312C72.6694 568.924 72.6934 569.524 72.8254 569.992C72.9814 570.52 73.2454 570.868 73.3774 571H70.2574C70.1494 570.892 69.9094 570.532 69.7534 570.1C69.6934 569.932 69.6574 569.776 69.6214 569.596C68.6854 570.64 67.0174 571.264 65.0614 571.264ZM65.8294 568.78C67.8094 568.78 69.5254 567.808 69.5254 565.6V565C68.5774 565.252 67.4014 565.42 66.2614 565.528C64.3654 565.72 63.4174 566.104 63.4174 567.196C63.4174 568.252 64.2094 568.78 65.8294 568.78ZM75.5996 571V552.244H78.7676V559.768C79.7996 558.688 81.2276 558.04 82.7756 558.04C85.8716 558.04 88.6436 560.38 88.6436 564.592C88.6436 568.948 85.9436 571.264 82.7756 571.264C81.2276 571.264 79.7996 570.58 78.7676 569.464V571H75.5996ZM82.0556 560.728C80.3756 560.728 78.7676 562.012 78.7676 563.896V565.264C78.7676 567.148 80.3636 568.48 82.0556 568.48C83.8916 568.48 85.3796 567.244 85.3796 564.592C85.3796 561.928 83.9036 560.728 82.0556 560.728ZM92.7679 555.904C91.7359 555.904 90.8599 555.328 90.8599 554.332C90.8599 553.348 91.7359 552.784 92.7679 552.784C93.7759 552.784 94.6519 553.348 94.6519 554.332C94.6519 555.34 93.7759 555.904 92.7679 555.904ZM91.1959 571V558.256H94.3159V571H91.1959ZM100.731 552.244V571H97.6234V552.244H100.731ZM105.471 555.904C104.439 555.904 103.563 555.328 103.563 554.332C103.563 553.348 104.439 552.784 105.471 552.784C106.479 552.784 107.355 553.348 107.355 554.332C107.355 555.34 106.479 555.904 105.471 555.904ZM103.899 571V558.256H107.019V571H103.899ZM116.003 571.24C114.179 571.24 112.007 570.748 112.007 567.724V560.776H108.995V558.256H110.219C111.875 558.256 112.007 558.148 112.007 556.084V554.056H115.174V558.256H118.967V560.776H115.174V566.764C115.174 567.964 115.331 568.732 116.411 568.732C116.915 568.732 117.419 568.612 117.647 568.516V570.988C117.335 571.108 116.747 571.24 116.003 571.24ZM122.178 576.472C121.434 576.472 120.762 576.376 120.618 576.316V573.856C120.822 573.952 121.386 574.012 121.938 574.012C123.234 574.012 124.062 573.172 124.47 571.948L124.746 571.144L120.354 558.256H123.654L126.474 568.204L129.222 558.256H132.462L127.998 571.78C127.074 574.588 125.79 576.472 122.178 576.472ZM140.498 571V552.244H143.654V559.912C144.614 558.748 146.114 558.04 147.914 558.04C151.01 558.04 152.678 559.972 152.678 563.236V571H149.522V564.076C149.522 561.964 148.79 560.8 146.798 560.8C144.806 560.8 143.654 562.06 143.654 563.884V571H140.498ZM168.536 566.98C168.332 569.104 166.064 571.276 162.008 571.276C157.904 571.276 155.168 568.552 155.168 564.664C155.168 560.716 157.976 558.04 162.008 558.04C166.136 558.04 168.716 560.752 168.716 564.688C168.716 565.024 168.692 565.48 168.668 565.648H158.36C158.684 567.616 159.992 568.768 162.116 568.768C164.36 568.768 165.296 567.808 165.392 566.98H168.536ZM162.044 560.512C160.124 560.512 158.78 561.568 158.396 563.404H165.452C165.32 561.868 164.216 560.512 162.044 560.512ZM175.902 571.24C172.278 571.24 171.318 568.528 171.318 566.14V558.256H174.486V565.324C174.486 567.04 174.99 568.516 176.982 568.516C178.878 568.516 180.054 566.572 180.054 564.82V558.256H183.21V571H180.054V569.14C179.142 570.412 177.714 571.24 175.902 571.24ZM186.248 571V558.256H189.404V559.96C190.124 558.808 191.324 558.04 193.04 558.04C194.072 558.04 194.684 558.244 194.828 558.34L194.252 561.232C194.096 561.124 193.604 560.896 192.788 560.896C190.184 560.896 189.404 562.9 189.404 564.664V571H186.248ZM198.33 555.904C197.298 555.904 196.422 555.328 196.422 554.332C196.422 553.348 197.298 552.784 198.33 552.784C199.338 552.784 200.214 553.348 200.214 554.332C200.214 555.34 199.338 555.904 198.33 555.904ZM196.758 571V558.256H199.878V571H196.758ZM208.154 571.264C205.118 571.264 202.442 569.908 202.442 567.268V566.992H205.586V567.208C205.586 568.252 206.594 568.768 208.25 568.768C209.606 568.768 210.842 568.348 210.842 567.412C210.842 566.404 209.834 566.104 207.638 565.744C205.214 565.336 202.622 564.424 202.622 561.904C202.622 559.396 205.118 558.04 208.178 558.04C211.094 558.04 213.71 559.528 213.71 562.072V562.264H210.59V562.108C210.59 561.016 209.39 560.524 208.178 560.524C207.074 560.524 205.718 560.836 205.718 561.82C205.718 562.792 206.978 563.128 208.85 563.452C211.166 563.848 213.926 564.616 213.926 567.292C213.926 570.076 211.094 571.264 208.154 571.264ZM222.221 571.24C220.397 571.24 218.225 570.748 218.225 567.724V560.776H215.213V558.256H216.437C218.093 558.256 218.225 558.148 218.225 556.084V554.056H221.393V558.256H225.185V560.776H221.393V566.764C221.393 567.964 221.549 568.732 222.629 568.732C223.133 568.732 223.637 568.612 223.865 568.516V570.988C223.553 571.108 222.965 571.24 222.221 571.24ZM229.08 555.904C228.048 555.904 227.172 555.328 227.172 554.332C227.172 553.348 228.048 552.784 229.08 552.784C230.088 552.784 230.964 553.348 230.964 554.332C230.964 555.34 230.088 555.904 229.08 555.904ZM227.508 571V558.256H230.628V571H227.508ZM240.056 571.264C236.012 571.264 233.192 568.624 233.192 564.592C233.192 560.572 236.012 558.04 240.056 558.04C244.076 558.04 246.332 560.716 246.332 563.044V563.14H243.2C243.2 563.056 243.176 562.96 243.164 562.864C242.96 561.652 241.88 560.656 240.02 560.656C238.004 560.656 236.408 561.988 236.408 564.592C236.408 567.184 238.004 568.648 240.02 568.648C242.156 568.648 243.08 567.544 243.188 566.212H246.332C246.332 568.588 244.148 571.264 240.056 571.264ZM254.091 571.264C251.055 571.264 248.379 569.908 248.379 567.268V566.992H251.523V567.208C251.523 568.252 252.531 568.768 254.187 568.768C255.543 568.768 256.779 568.348 256.779 567.412C256.779 566.404 255.771 566.104 253.575 565.744C251.151 565.336 248.559 564.424 248.559 561.904C248.559 559.396 251.055 558.04 254.115 558.04C257.031 558.04 259.647 559.528 259.647 562.072V562.264H256.527V562.108C256.527 561.016 255.327 560.524 254.115 560.524C253.011 560.524 251.655 560.836 251.655 561.82C251.655 562.792 252.915 563.128 254.787 563.452C257.103 563.848 259.863 564.616 259.863 567.292C259.863 570.076 257.031 571.264 254.091 571.264ZM272.882 571.264C270.038 571.264 268.07 569.86 268.07 567.46C268.07 564.844 270.434 563.692 273.398 563.404C276.302 563.116 277.322 562.948 277.322 562.348V562.324C277.322 561.196 276.266 560.572 274.43 560.572C272.498 560.572 271.43 561.232 271.43 562.696H268.31C268.31 559.696 270.926 558.04 274.454 558.04C277.73 558.04 280.49 559.516 280.49 562.504V568.312C280.49 568.924 280.514 569.524 280.646 569.992C280.802 570.52 281.066 570.868 281.198 571H278.078C277.97 570.892 277.73 570.532 277.574 570.1C277.514 569.932 277.478 569.776 277.442 569.596C276.506 570.64 274.838 571.264 272.882 571.264ZM273.65 568.78C275.63 568.78 277.346 567.808 277.346 565.6V565C276.398 565.252 275.222 565.42 274.082 565.528C272.186 565.72 271.238 566.104 271.238 567.196C271.238 568.252 272.03 568.78 273.65 568.78ZM283.42 576.244V558.256H286.576V559.78C287.608 558.676 289.048 558.04 290.596 558.04C293.692 558.04 296.464 560.38 296.464 564.592C296.464 568.948 293.764 571.264 290.596 571.264C289.048 571.264 287.608 570.58 286.576 569.452V576.244H283.42ZM286.588 565.264C286.588 567.148 288.184 568.48 289.876 568.48C291.712 568.48 293.2 567.244 293.2 564.592C293.2 561.928 291.724 560.728 289.876 560.728C288.196 560.728 286.588 562.012 286.588 563.896H286.576V565.144H286.588V565.264ZM299.076 576.244V558.256H302.232V559.78C303.264 558.676 304.704 558.04 306.252 558.04C309.348 558.04 312.12 560.38 312.12 564.592C312.12 568.948 309.42 571.264 306.252 571.264C304.704 571.264 303.264 570.58 302.232 569.452V576.244H299.076ZM302.244 565.264C302.244 567.148 303.84 568.48 305.532 568.48C307.368 568.48 308.856 567.244 308.856 564.592C308.856 561.928 307.38 560.728 305.532 560.728C303.852 560.728 302.244 562.012 302.244 563.896H302.232V565.144H302.244V565.264ZM318.02 552.244V571H314.912V552.244H318.02ZM322.76 555.904C321.728 555.904 320.852 555.328 320.852 554.332C320.852 553.348 321.728 552.784 322.76 552.784C323.768 552.784 324.644 553.348 324.644 554.332C324.644 555.34 323.768 555.904 322.76 555.904ZM321.188 571V558.256H324.308V571H321.188ZM340.24 566.98C340.036 569.104 337.768 571.276 333.712 571.276C329.608 571.276 326.872 568.552 326.872 564.664C326.872 560.716 329.68 558.04 333.712 558.04C337.84 558.04 340.42 560.752 340.42 564.688C340.42 565.024 340.396 565.48 340.372 565.648H330.064C330.388 567.616 331.696 568.768 333.82 568.768C336.064 568.768 337 567.808 337.096 566.98H340.24ZM333.748 560.512C331.828 560.512 330.484 561.568 330.1 563.404H337.156C337.024 561.868 335.92 560.512 333.748 560.512ZM348.314 571.264C345.146 571.264 342.458 568.948 342.458 564.592C342.458 560.38 345.23 558.04 348.314 558.04C349.862 558.04 351.302 558.676 352.334 559.768V552.244H355.502V571H352.334V569.476C351.326 570.592 349.91 571.264 348.314 571.264ZM349.046 568.48C350.786 568.48 352.334 567.136 352.334 565.204V563.896C352.334 562.012 350.726 560.728 349.046 560.728C347.198 560.728 345.722 561.928 345.722 564.592C345.722 567.244 347.21 568.48 349.046 568.48ZM370.463 571.24C368.639 571.24 366.467 570.748 366.467 567.724V560.776H363.455V558.256H364.679C366.335 558.256 366.467 558.148 366.467 556.084V554.056H369.635V558.256H373.427V560.776H369.635V566.764C369.635 567.964 369.791 568.732 370.871 568.732C371.375 568.732 371.879 568.612 372.107 568.516V570.988C371.795 571.108 371.207 571.24 370.463 571.24ZM381.723 571.252C377.691 571.252 374.895 568.504 374.895 564.628C374.895 560.752 377.691 558.04 381.723 558.04C385.755 558.04 388.551 560.752 388.551 564.628C388.551 568.504 385.755 571.252 381.723 571.252ZM381.723 568.672C383.895 568.672 385.359 567.064 385.359 564.628C385.359 562.18 383.895 560.632 381.723 560.632C379.551 560.632 378.087 562.18 378.087 564.628C378.087 567.064 379.551 568.672 381.723 568.672ZM14.448 595.568C14.448 600.08 12 602.264 7.98 602.264C3.972 602.264 1.548 600.08 1.548 595.568V584.3H4.716V595.592C4.716 598.436 5.748 599.672 7.98 599.672C10.224 599.672 11.28 598.436 11.28 595.592V584.3H14.448V595.568ZM27.1924 602L23.6524 595.496L20.1124 602H16.5724L21.6844 593.24L16.7164 584.3H20.2564L23.6524 590.984L27.0244 584.3H30.5764L25.6444 593.228L30.7444 602H27.1924ZM40.4679 602V591.776H37.7679V589.256H40.4679V588.116C40.4679 584.36 43.1679 583.064 45.7119 583.064C46.6719 583.064 47.1399 583.22 47.3199 583.292V585.836C47.1279 585.776 46.5999 585.656 46.0599 585.656C44.0919 585.656 43.6239 586.856 43.6239 588.368V589.256H47.1519V591.776H43.6239V602H40.4679ZM54.9339 602.252C50.9019 602.252 48.1059 599.504 48.1059 595.628C48.1059 591.752 50.9019 589.04 54.9339 589.04C58.9659 589.04 61.7619 591.752 61.7619 595.628C61.7619 599.504 58.9659 602.252 54.9339 602.252ZM54.9339 599.672C57.1059 599.672 58.5699 598.064 58.5699 595.628C58.5699 593.18 57.1059 591.632 54.9339 591.632C52.7619 591.632 51.2979 593.18 51.2979 595.628C51.2979 598.064 52.7619 599.672 54.9339 599.672ZM64.3731 602V589.256H67.5291V590.96C68.2491 589.808 69.4491 589.04 71.1651 589.04C72.1971 589.04 72.8091 589.244 72.9531 589.34L72.3771 592.232C72.2211 592.124 71.7291 591.896 70.9131 591.896C68.3091 591.896 67.5291 593.9 67.5291 595.664V602H64.3731ZM86.7994 602.24C84.9754 602.24 82.8034 601.748 82.8034 598.724V591.776H79.7914V589.256H81.0154C82.6714 589.256 82.8034 589.148 82.8034 587.084V585.056H85.9714V589.256H89.7634V591.776H85.9714V597.764C85.9714 598.964 86.1274 599.732 87.2074 599.732C87.7114 599.732 88.2154 599.612 88.4434 599.516V601.988C88.1314 602.108 87.5434 602.24 86.7994 602.24ZM104.599 597.98C104.395 600.104 102.127 602.276 98.0709 602.276C93.9669 602.276 91.2309 599.552 91.2309 595.664C91.2309 591.716 94.0389 589.04 98.0709 589.04C102.199 589.04 104.779 591.752 104.779 595.688C104.779 596.024 104.755 596.48 104.731 596.648H94.4229C94.7469 598.616 96.0549 599.768 98.1789 599.768C100.423 599.768 101.359 598.808 101.455 597.98H104.599ZM98.1069 591.512C96.1869 591.512 94.8429 592.568 94.4589 594.404H101.515C101.383 592.868 100.279 591.512 98.1069 591.512ZM110.669 583.244V602H107.561V583.244H110.669ZM126.701 597.98C126.497 600.104 124.229 602.276 120.173 602.276C116.069 602.276 113.333 599.552 113.333 595.664C113.333 591.716 116.141 589.04 120.173 589.04C124.301 589.04 126.881 591.752 126.881 595.688C126.881 596.024 126.857 596.48 126.833 596.648H116.525C116.849 598.616 118.157 599.768 120.281 599.768C122.525 599.768 123.461 598.808 123.557 597.98H126.701ZM120.209 591.512C118.289 591.512 116.945 592.568 116.561 594.404H123.617C123.485 592.868 122.381 591.512 120.209 591.512ZM135.782 602.264C131.738 602.264 128.918 599.624 128.918 595.592C128.918 591.572 131.738 589.04 135.782 589.04C139.802 589.04 142.058 591.716 142.058 594.044V594.14H138.926C138.926 594.056 138.902 593.96 138.89 593.864C138.686 592.652 137.606 591.656 135.746 591.656C133.73 591.656 132.134 592.988 132.134 595.592C132.134 598.184 133.73 599.648 135.746 599.648C137.882 599.648 138.806 598.544 138.914 597.212H142.058C142.058 599.588 139.874 602.264 135.782 602.264ZM150.934 602.252C146.902 602.252 144.106 599.504 144.106 595.628C144.106 591.752 146.902 589.04 150.934 589.04C154.966 589.04 157.762 591.752 157.762 595.628C157.762 599.504 154.966 602.252 150.934 602.252ZM150.934 599.672C153.106 599.672 154.57 598.064 154.57 595.628C154.57 593.18 153.106 591.632 150.934 591.632C148.762 591.632 147.298 593.18 147.298 595.628C147.298 598.064 148.762 599.672 150.934 599.672ZM160.373 602V589.256H163.529V590.924C164.369 589.76 165.665 589.04 167.309 589.04C169.385 589.04 170.537 590 171.065 591.464C171.845 589.988 173.273 589.04 175.169 589.04C178.157 589.04 179.321 591.044 179.321 593.744V602H176.165V594.668C176.165 593.324 176.021 591.8 174.029 591.8C172.085 591.8 171.425 593.516 171.425 595.136V602H168.293V594.692C168.293 593.42 168.137 591.8 166.169 591.8C164.261 591.8 163.529 593.504 163.529 595.244V602H160.373ZM182.357 602V589.256H185.513V590.924C186.353 589.76 187.649 589.04 189.293 589.04C191.369 589.04 192.521 590 193.049 591.464C193.829 589.988 195.257 589.04 197.153 589.04C200.141 589.04 201.305 591.044 201.305 593.744V602H198.149V594.668C198.149 593.324 198.005 591.8 196.013 591.8C194.069 591.8 193.409 593.516 193.409 595.136V602H190.277V594.692C190.277 593.42 190.121 591.8 188.153 591.8C186.245 591.8 185.513 593.504 185.513 595.244V602H182.357ZM208.926 602.24C205.302 602.24 204.342 599.528 204.342 597.14V589.256H207.51V596.324C207.51 598.04 208.014 599.516 210.006 599.516C211.902 599.516 213.078 597.572 213.078 595.82V589.256H216.234V602H213.078V600.14C212.166 601.412 210.738 602.24 208.926 602.24ZM219.271 602V589.256H222.428V591.176C223.412 589.844 224.984 589.04 226.748 589.04C229.82 589.04 231.452 590.96 231.452 593.936V602H228.284V594.836C228.284 593.108 227.648 591.8 225.56 591.8C223.724 591.8 222.428 593.228 222.428 595.196V602H219.271ZM235.994 586.904C234.962 586.904 234.086 586.328 234.086 585.332C234.086 584.348 234.962 583.784 235.994 583.784C237.002 583.784 237.878 584.348 237.878 585.332C237.878 586.34 237.002 586.904 235.994 586.904ZM234.422 602V589.256H237.542V602H234.422ZM246.97 602.264C242.926 602.264 240.106 599.624 240.106 595.592C240.106 591.572 242.926 589.04 246.97 589.04C250.99 589.04 253.246 591.716 253.246 594.044V594.14H250.114C250.114 594.056 250.09 593.96 250.078 593.864C249.874 592.652 248.794 591.656 246.934 591.656C244.918 591.656 243.322 592.988 243.322 595.592C243.322 598.184 244.918 599.648 246.934 599.648C249.07 599.648 249.994 598.544 250.102 597.212H253.246C253.246 599.588 251.062 602.264 246.97 602.264ZM260.225 602.264C257.381 602.264 255.413 600.86 255.413 598.46C255.413 595.844 257.777 594.692 260.741 594.404C263.645 594.116 264.665 593.948 264.665 593.348V593.324C264.665 592.196 263.609 591.572 261.773 591.572C259.841 591.572 258.773 592.232 258.773 593.696H255.653C255.653 590.696 258.269 589.04 261.797 589.04C265.073 589.04 267.833 590.516 267.833 593.504V599.312C267.833 599.924 267.857 600.524 267.989 600.992C268.145 601.52 268.409 601.868 268.541 602H265.421C265.313 601.892 265.073 601.532 264.917 601.1C264.857 600.932 264.821 600.776 264.785 600.596C263.849 601.64 262.181 602.264 260.225 602.264ZM260.993 599.78C262.973 599.78 264.689 598.808 264.689 596.6V596C263.741 596.252 262.565 596.42 261.425 596.528C259.529 596.72 258.581 597.104 258.581 598.196C258.581 599.252 259.373 599.78 260.993 599.78ZM276.315 602.24C274.491 602.24 272.319 601.748 272.319 598.724V591.776H269.307V589.256H270.531C272.187 589.256 272.319 589.148 272.319 587.084V585.056H275.487V589.256H279.279V591.776H275.487V597.764C275.487 598.964 275.643 599.732 276.723 599.732C277.227 599.732 277.731 599.612 277.959 599.516V601.988C277.647 602.108 277.059 602.24 276.315 602.24ZM283.174 586.904C282.142 586.904 281.266 586.328 281.266 585.332C281.266 584.348 282.142 583.784 283.174 583.784C284.182 583.784 285.058 584.348 285.058 585.332C285.058 586.34 284.182 586.904 283.174 586.904ZM281.602 602V589.256H284.722V602H281.602ZM294.114 602.252C290.082 602.252 287.286 599.504 287.286 595.628C287.286 591.752 290.082 589.04 294.114 589.04C298.146 589.04 300.942 591.752 300.942 595.628C300.942 599.504 298.146 602.252 294.114 602.252ZM294.114 599.672C296.286 599.672 297.75 598.064 297.75 595.628C297.75 593.18 296.286 591.632 294.114 591.632C291.942 591.632 290.478 593.18 290.478 595.628C290.478 598.064 291.942 599.672 294.114 599.672ZM303.553 602V589.256H306.709V591.176C307.693 589.844 309.265 589.04 311.029 589.04C314.101 589.04 315.733 590.96 315.733 593.936V602H312.565V594.836C312.565 593.108 311.929 591.8 309.841 591.8C308.005 591.8 306.709 593.228 306.709 595.196V602H303.553ZM323.912 602.264C320.876 602.264 318.2 600.908 318.2 598.268V597.992H321.344V598.208C321.344 599.252 322.352 599.768 324.008 599.768C325.364 599.768 326.6 599.348 326.6 598.412C326.6 597.404 325.592 597.104 323.396 596.744C320.972 596.336 318.38 595.424 318.38 592.904C318.38 590.396 320.876 589.04 323.936 589.04C326.852 589.04 329.468 590.528 329.468 593.072V593.264H326.348V593.108C326.348 592.016 325.148 591.524 323.936 591.524C322.832 591.524 321.476 591.836 321.476 592.82C321.476 593.792 322.736 594.128 324.608 594.452C326.924 594.848 329.684 595.616 329.684 598.292C329.684 601.076 326.852 602.264 323.912 602.264Z" fill="black"/>
<path d="M0.945 646V635.675H4.725C6.713 635.675 7.742 636.599 7.742 638.447C7.742 640.078 6.629 640.988 5.859 641.072C6.636 641.135 7.483 641.583 7.483 642.864V645.083C7.483 645.51 7.56 645.874 7.665 646H6.132C6.048 645.86 5.971 645.517 5.971 645.083V643.046C5.971 642.164 5.425 641.716 4.424 641.716H2.429V646H0.945ZM4.368 636.935H2.429V640.456H4.438C5.404 640.456 6.181 639.714 6.181 638.573C6.181 637.432 5.53 636.935 4.368 636.935ZM15.3283 644.74V646H9.47625V635.675H15.3283V636.935H11.0023V640.19H14.5513V641.45H11.0023V644.74H15.3283ZM16.4451 646L19.2031 635.654H21.5901L24.3201 646H22.7591L22.0941 643.375H18.6781L18.0131 646H16.4451ZM19.0001 642.115H21.7791L20.3931 636.641L19.0001 642.115ZM25.6638 646V635.675H28.4988C31.2288 635.675 33.0208 637.684 33.0208 640.827C33.0208 643.97 31.2288 646 28.4988 646H25.6638ZM28.3167 636.935H27.1898V644.74H28.3167C30.1438 644.74 31.4738 643.242 31.4738 640.827C31.4738 638.412 30.1438 636.935 28.3167 636.935ZM45.4125 635.675H48.0095V646H46.5675V636.9L44.1805 646H42.0945L39.6865 636.886V646H38.2375V635.675H40.8345L43.1165 644.88L45.4125 635.675ZM54.0314 646.147C51.5814 646.147 49.7334 644.215 49.7334 640.827C49.7334 637.432 51.5744 635.542 54.0314 635.542C56.5024 635.542 58.3364 637.432 58.3364 640.827C58.3364 644.215 56.4814 646.147 54.0314 646.147ZM54.0314 644.852C55.6204 644.852 56.7894 643.585 56.7894 640.827C56.7894 638.062 55.6064 636.844 54.0314 636.844C52.4634 636.844 51.2734 638.062 51.2734 640.827C51.2734 643.592 52.4634 644.852 54.0314 644.852ZM59.9528 646V635.675H63.7328C65.7208 635.675 66.7498 636.599 66.7498 638.447C66.7498 640.078 65.6368 640.988 64.8668 641.072C65.6438 641.135 66.4908 641.583 66.4908 642.864V645.083C66.4908 645.51 66.5678 645.874 66.6728 646H65.1398C65.0558 645.86 64.9788 645.517 64.9788 645.083V643.046C64.9788 642.164 64.4328 641.716 63.4318 641.716H61.4368V646H59.9528ZM63.3758 636.935H61.4368V640.456H63.4458C64.4118 640.456 65.1888 639.714 65.1888 638.573C65.1888 637.432 64.5378 636.935 63.3758 636.935ZM74.3361 644.74V646H68.4841V635.675H74.3361V636.935H70.0101V640.19H73.5591V641.45H70.0101V644.74H74.3361Z" fill="#353535"/>
<path d="M89.1049 636.195L93.8759 640.966L89.1049 645.737L88.4164 645.06L92.499 640.966L88.4164 636.883L89.1049 636.195ZM93.3324 640.482V641.449H84.0078V640.482H93.3324Z" fill="#353535"/>
<rect width="420" height="520" rx="24" fill="url(#paint0_linear_1230_77433)"/>
<g style="mix-blend-mode:luminosity" opacity="0.7">
<rect width="420" height="520" rx="24" fill="black"/>
</g>
<rect opacity="0.5" width="420" height="520" rx="24" fill="url(#paint1_linear_1230_77433)"/>
<rect opacity="0.5" x="420" y="520" width="420" height="520" rx="24" transform="rotate(180 420 520)" fill="url(#paint2_linear_1230_77433)"/>
<g opacity="0.23">
<rect width="2.18857" height="2.18857" transform="matrix(1 0 0 -1 19 118.008)" fill="white"/>
<rect width="2.18857" height="2.18857" transform="matrix(1 0 0 -1 19 105.919)" fill="white"/>
<rect width="2.18857" height="2.18857" transform="matrix(1 0 0 -1 32.1313 105.919)" fill="white"/>
<rect width="2.18857" height="2.18857" transform="matrix(1 0 0 -1 19 93.8293)" fill="white"/>
<rect width="2.18857" height="2.18857" transform="matrix(1 0 0 -1 32.1313 93.8293)" fill="white"/>
<rect width="2.18857" height="2.18857" transform="matrix(1 0 0 -1 45.2629 93.8293)" fill="white"/>
<rect width="2.18857" height="2.18857" transform="matrix(1 0 0 -1 19 81.7402)" fill="white"/>
<rect width="2.18857" height="2.18857" transform="matrix(1 0 0 -1 32.1313 81.7402)" fill="white"/>
<rect width="2.18857" height="2.18857" transform="matrix(1 0 0 -1 45.2629 81.7402)" fill="white"/>
<rect width="2.18857" height="2.18857" transform="matrix(1 0 0 -1 58.3943 81.7402)" fill="white"/>
<rect width="2.18857" height="2.18857" transform="matrix(1 0 0 -1 19 69.6511)" fill="white"/>
<rect width="2.18857" height="2.18857" transform="matrix(1 0 0 -1 32.1313 69.6509)" fill="white"/>
<rect width="2.18857" height="2.18857" transform="matrix(1 0 0 -1 45.2629 69.6509)" fill="white"/>
<rect width="2.18857" height="2.18857" transform="matrix(1 0 0 -1 58.3943 69.6509)" fill="white"/>
<rect width="2.18857" height="2.18857" transform="matrix(1 0 0 -1 71.5256 69.6509)" fill="white"/>
<rect width="2.18857" height="2.18857" transform="matrix(1 0 0 -1 19 57.562)" fill="white"/>
<rect width="2.18857" height="2.18857" transform="matrix(1 0 0 -1 32.1313 57.562)" fill="white"/>
<rect width="2.18857" height="2.18857" transform="matrix(1 0 0 -1 45.2629 57.562)" fill="white"/>
<rect width="2.18857" height="2.18857" transform="matrix(1 0 0 -1 58.3943 57.562)" fill="white"/>
<rect width="2.18857" height="2.18857" transform="matrix(1 0 0 -1 71.5256 57.562)" fill="white"/>
<rect width="2.18857" height="2.18857" transform="matrix(1 0 0 -1 84.6572 57.562)" fill="white"/>
<rect width="2.18857" height="2.18857" transform="matrix(1 0 0 -1 19 45.4727)" fill="white"/>
<rect width="2.18857" height="2.18857" transform="matrix(1 0 0 -1 32.1313 45.4729)" fill="white"/>
<rect width="2.18857" height="2.18857" transform="matrix(1 0 0 -1 45.2629 45.4729)" fill="white"/>
<rect width="2.18857" height="2.18857" transform="matrix(1 0 0 -1 58.3943 45.4729)" fill="white"/>
<rect width="2.18857" height="2.18857" transform="matrix(1 0 0 -1 71.5256 45.4729)" fill="white"/>
<rect width="2.18857" height="2.18857" transform="matrix(1 0 0 -1 84.6572 45.4729)" fill="white"/>
<rect width="2.18857" height="2.18857" transform="matrix(1 0 0 -1 97.7886 45.4729)" fill="white"/>
<rect width="2.18857" height="2.18857" transform="matrix(1 0 0 -1 19 33.3835)" fill="white"/>
<rect width="2.18857" height="2.18857" transform="matrix(1 0 0 -1 32.1313 33.3833)" fill="white"/>
<rect width="2.18857" height="2.18857" transform="matrix(1 0 0 -1 45.2629 33.3833)" fill="white"/>
<rect width="2.18857" height="2.18857" transform="matrix(1 0 0 -1 58.3943 33.3833)" fill="white"/>
<rect width="2.18857" height="2.18857" transform="matrix(1 0 0 -1 71.5256 33.3833)" fill="white"/>
<rect width="2.18857" height="2.18857" transform="matrix(1 0 0 -1 84.6572 33.3833)" fill="white"/>
<rect width="2.18857" height="2.18857" transform="matrix(1 0 0 -1 97.7886 33.3833)" fill="white"/>
<rect width="2.18857" height="2.18857" transform="matrix(1 0 0 -1 110.92 33.3833)" fill="white"/>
<rect width="2.18857" height="2.18857" transform="matrix(1 0 0 -1 19 21.2944)" fill="white"/>
<rect width="2.18857" height="2.18857" transform="matrix(1 0 0 -1 32.1313 21.2944)" fill="white"/>
<rect width="2.18857" height="2.18857" transform="matrix(1 0 0 -1 45.2629 21.2944)" fill="white"/>
<rect width="2.18857" height="2.18857" transform="matrix(1 0 0 -1 58.3943 21.2944)" fill="white"/>
<rect width="2.18857" height="2.18857" transform="matrix(1 0 0 -1 71.5256 21.2944)" fill="white"/>
<rect width="2.18857" height="2.18857" transform="matrix(1 0 0 -1 84.6572 21.2944)" fill="white"/>
<rect width="2.18857" height="2.18857" transform="matrix(1 0 0 -1 97.7886 21.2944)" fill="white"/>
<rect width="2.18857" height="2.18857" transform="matrix(1 0 0 -1 110.92 21.2944)" fill="white"/>
<rect width="2.18857" height="2.18857" transform="matrix(1 0 0 -1 124.051 21.2944)" fill="white"/>
<rect width="2.18857" height="2.18857" transform="matrix(1 0 0 -1 427.812 21.2944)" fill="white"/>
</g>
<rect x="14" y="470" width="95" height="34" rx="8" fill="#C92222"/>
<path d="M32.288 492H30.8775V482.412H33.7635C35.9735 482.412 37.1305 483.79 37.1305 485.526C37.1305 487.268 35.9345 488.743 33.7635 488.743H32.288V492ZM33.601 483.582H32.288V487.573H33.601C34.979 487.573 35.7135 486.774 35.7135 485.526C35.7135 484.278 35.0115 483.582 33.601 483.582ZM43.2765 492.137C41.0015 492.137 39.2855 490.342 39.2855 487.196C39.2855 484.044 40.995 482.289 43.2765 482.289C45.571 482.289 47.274 484.044 47.274 487.196C47.274 490.342 45.5515 492.137 43.2765 492.137ZM43.2765 490.934C44.752 490.934 45.8375 489.757 45.8375 487.196C45.8375 484.629 44.739 483.498 43.2765 483.498C41.8205 483.498 40.7155 484.629 40.7155 487.196C40.7155 489.764 41.8205 490.934 43.2765 490.934ZM49.775 492V482.412H52.4075C54.9425 482.412 56.6065 484.278 56.6065 487.196C56.6065 490.115 54.9425 492 52.4075 492H49.775ZM52.2385 483.582H51.192V490.83H52.2385C53.935 490.83 55.17 489.439 55.17 487.196C55.17 484.954 53.935 483.582 52.2385 483.582ZM66.4091 488.607C66.4091 490.193 65.2391 492.137 62.7821 492.137C60.2731 492.137 58.8431 490.089 58.8431 487.209C58.8431 484.323 60.2731 482.289 62.7821 482.289C64.8686 482.289 66.0321 483.706 66.3246 485.09C66.3766 485.331 66.4091 485.571 66.4091 485.805H64.9921C64.9921 485.675 64.9791 485.539 64.9596 485.409C64.8101 484.369 64.0496 483.498 62.7821 483.498C61.2936 483.498 60.2796 484.746 60.2796 487.209C60.2796 489.673 61.2936 490.934 62.7821 490.934C64.2056 490.934 64.9921 489.777 64.9921 488.607H66.4091ZM68.0595 492L70.6205 482.393H72.837L75.372 492H73.9225L73.305 489.562H70.133L69.5155 492H68.0595ZM70.432 488.392H73.0125L71.7255 483.309L70.432 488.392ZM80.7246 492.137C78.7031 492.137 77.4486 491.174 77.4486 489.25V488.828H78.8591V489.224C78.8591 490.407 79.5026 490.934 80.7181 490.934C81.9661 490.934 82.6226 490.537 82.6226 489.601C82.6226 488.607 81.6476 488.139 80.2696 487.71C78.7161 487.229 77.5136 486.41 77.5136 484.785C77.5136 483.186 78.8201 482.289 80.6726 482.289C82.6291 482.289 83.9291 483.192 83.9291 485.032V485.487H82.5121V485.09C82.5121 483.972 81.8946 483.491 80.6986 483.491C79.5416 483.491 78.8851 483.881 78.8851 484.785C78.8851 485.805 79.8731 486.228 81.2251 486.676C82.9346 487.248 84.0006 487.931 84.0006 489.556C84.0006 491.194 82.7266 492.137 80.7246 492.137ZM92.4253 483.582H89.9618V492H88.5513V483.582H86.0943V482.412H92.4253V483.582Z" fill="white"/>
<defs>
<linearGradient id="paint0_linear_1230_77433" x1="309.5" y1="123.5" x2="66.0992" y2="497.866" gradientUnits="userSpaceOnUse">
<stop stop-color="#101010"/>
<stop offset="1"/>
</linearGradient>
<linearGradient id="paint1_linear_1230_77433" x1="69" y1="520" x2="222.391" y2="300.043" gradientUnits="userSpaceOnUse">
<stop stop-color="#C92222"/>
<stop offset="1"/>
</linearGradient>
<linearGradient id="paint2_linear_1230_77433" x1="489" y1="1040" x2="642.391" y2="820.043" gradientUnits="userSpaceOnUse">
<stop stop-color="#C92222"/>
<stop offset="1" stop-opacity="0"/>
</linearGradient>
</defs>
</svg>
