<svg width="640" height="454" viewBox="0 0 640 454" fill="none" xmlns="http://www.w3.org/2000/svg">
<rect width="640" height="454" rx="40" fill="black"/>
<path fill-rule="evenodd" clip-rule="evenodd" d="M312.741 400.047L312.305 399.786L100.252 277.894L101.562 277.11L360.931 127.687L361.368 127.948L573.421 249.839L572.111 250.623L312.741 400.047ZM103.744 277.894L312.741 398.043L569.841 249.839L360.931 129.69L103.744 277.894Z" fill="#272727"/>
<path d="M433.107 346.764L405.301 362.938V330.68L433.107 314.596V346.764Z" fill="#1C1C1C"/>
<path d="M405.301 330.68L377.404 314.596L405.301 298.512L433.107 314.596L405.301 330.68Z" fill="#272727"/>
<path d="M405.301 362.938L377.404 346.764V314.596L405.301 330.68V362.938Z" fill="#3D3D3D"/>
<path d="M267.594 325.547L221.378 298.885L188.42 318.215L187.487 316.501L221.378 296.695L267.594 323.357L298.498 305.169L299.431 306.788L267.594 325.547Z" fill="#272727"/>
<path d="M438.428 261.938L392.213 235.276L359.255 254.606L358.321 252.892L392.213 233.086L438.428 259.748L469.332 241.561L470.266 243.18L438.428 261.938Z" fill="#272727"/>
<path d="M295.456 418.312L344.798 389.688C345.797 389.143 346.252 388.416 346.252 387.598H346.343V374.604C346.343 374.604 344.616 376.057 343.526 376.966L312.357 358.974C309.813 357.52 305.997 357.338 303.816 358.611L256.564 385.962L252.929 383.872V396.867C252.929 397.775 253.656 398.866 255.019 399.593L286.823 417.948C289.368 419.402 293.275 419.584 295.456 418.312Z" fill="#3D3D3D"/>
<path d="M343.526 376.966L312.357 358.974C309.813 357.52 305.996 357.338 303.816 358.611L291.457 365.698V419.13C293.002 419.22 294.365 418.948 295.456 418.312L344.798 389.688C345.797 389.143 346.252 388.416 346.252 387.598H346.343V374.604C346.343 374.604 344.616 376.057 343.526 376.966Z" fill="#1C1C1C"/>
<path d="M254.383 381.6L303.816 352.976C305.997 351.704 309.813 351.886 312.357 353.34L344.253 371.696C346.797 373.149 347.07 375.33 344.798 376.603L295.456 405.226C293.275 406.499 289.368 406.317 286.823 404.863L255.019 386.507C252.474 385.053 252.202 382.873 254.383 381.6Z" fill="#272727"/>
<path d="M306.451 373.694C304.634 372.694 304.634 370.968 306.451 369.877C308.359 368.787 311.267 368.787 313.176 369.877C314.993 370.877 314.993 372.603 313.176 373.694C311.267 374.784 308.359 374.784 306.451 373.694Z" fill="#757575"/>
<path d="M296.365 379.51C294.547 378.51 294.547 376.784 296.365 375.693C298.182 374.603 301.181 374.603 303.089 375.693C304.906 376.784 304.906 378.51 303.089 379.51C301.181 380.6 298.182 380.6 296.365 379.51Z" fill="#757575"/>
<path d="M286.278 385.416C284.461 384.325 284.461 382.599 286.278 381.508C288.096 380.509 291.094 380.509 292.912 381.508C294.82 382.599 294.82 384.325 292.912 385.416C291.094 386.415 288.096 386.415 286.278 385.416Z" fill="#757575"/>
<path d="M108.43 59.2344V65.6972L150.785 90.1634V83.8161L108.43 59.2344Z" fill="#484848"/>
<path d="M234.801 89.4714L192.447 114.399L192.562 235.577L234.801 211.572V89.4714Z" fill="#1C1C1C"/>
<path d="M108.43 65.6973L192.447 114.399L192.562 235.576L108.546 187.105L108.43 65.6973Z" fill="#3D3D3D"/>
<path d="M234.916 211.227L192.562 235.578V241.925L234.916 217.343V211.227Z" fill="#484848"/>
<path d="M192.562 235.576V241.924L108.546 193.453V187.105L192.562 235.576Z" fill="#484848"/>
<path d="M192.447 107.937L234.686 83.355L234.801 89.4715L192.447 114.284V107.937Z" fill="#484848"/>
<path d="M150.092 83.4712V89.8186L192.447 114.4V107.937L150.092 83.4712Z" fill="#484848"/>
<path d="M192.447 108.399L108.43 59.2352L150.554 34.9998L234.686 83.3553L192.447 108.399Z" fill="#282828"/>
<path d="M159.44 83.5857L163.249 85.8938L192.216 103.089L221.529 85.7784L225.338 83.4703L192.331 64.6589L159.44 83.5857Z" fill="black"/>
<path d="M163.249 85.8929L192.216 103.089L221.529 85.7775L192.331 69.1589L163.249 85.8929Z" fill="#161616"/>
<path d="M118.125 59.8122L121.933 62.1204L151.015 79.2006L180.214 61.8896L184.137 59.6968L151.015 40.8855L118.125 59.8122Z" fill="black"/>
<path d="M121.933 62.1205L151.015 79.2007L180.213 61.8897L151.015 45.3865L121.933 62.1205Z" fill="#161616"/>
<path d="M170.981 114.746V134.134L153.439 123.978L170.404 133.788V114.399L170.981 114.746Z" fill="black"/>
<path d="M170.981 114.169V133.673L153.439 123.402V104.013L170.981 114.169Z" fill="black"/>
<path d="M170.519 114.285L153.439 104.475V122.709L152.4 123.286V103.898L170.519 114.285Z" fill="black"/>
<path d="M170.981 132.634V133.904L152.631 123.171L153.439 122.594L170.981 132.634Z" fill="black"/>
<path d="M170.404 114.285L153.439 104.475V122.825L152.4 123.286V103.898L170.404 114.285Z" fill="#484848"/>
<path d="M170.981 132.75V134.02L152.516 123.172L153.439 122.71L170.981 132.75Z" fill="black"/>
<path d="M161.864 109.207V127.556L160.825 128.018V108.63L161.864 109.207Z" fill="#484848"/>
<path d="M160.133 107.707V127.672L160.825 128.018V108.63L160.133 107.707Z" fill="black"/>
<path fill-rule="evenodd" clip-rule="evenodd" d="M170.981 114.052V134.826L151.708 123.631V102.858L170.981 114.052ZM170.288 114.514L152.516 104.243V123.285L170.288 133.556V114.514Z" fill="#606060"/>
<path d="M170.981 146.482V165.986L153.439 155.83L170.404 165.64V146.136L170.981 146.482Z" fill="black"/>
<path d="M170.981 146.022V165.526L153.439 155.255V135.866L170.981 146.022Z" fill="black"/>
<path d="M170.519 146.137L153.439 136.327V154.561L152.4 155.138V135.75L170.519 146.137Z" fill="black"/>
<path d="M170.981 164.372V165.757L152.631 155.024L153.439 154.447L170.981 164.372Z" fill="black"/>
<path d="M170.404 146.137L153.439 136.327V154.561L152.4 155.138V135.75L170.404 146.137Z" fill="#484848"/>
<path d="M170.981 164.487V165.872L152.516 155.024L153.439 154.562L170.981 164.487Z" fill="black"/>
<path d="M161.864 141.059V159.408L160.825 159.87V140.482L161.864 141.059Z" fill="#484848"/>
<path d="M160.133 139.56V159.525L160.825 159.871V140.483L160.133 139.56Z" fill="black"/>
<path fill-rule="evenodd" clip-rule="evenodd" d="M170.981 145.906V166.679L151.708 155.485V134.712L170.981 145.906ZM170.288 146.368L152.516 136.097V155.139L170.288 165.41V146.368Z" fill="#606060"/>
<path d="M170.981 178.336V197.84L153.439 187.568L170.404 197.493V177.99L170.981 178.336Z" fill="black"/>
<path d="M170.981 177.759V197.263L153.439 187.107V167.603L170.981 177.759Z" fill="black"/>
<path d="M170.519 177.991L153.439 168.181V186.3L152.4 186.993V167.489L170.519 177.991Z" fill="black"/>
<path d="M170.981 196.225V197.495L152.631 186.762L153.439 186.3L170.981 196.225Z" fill="black"/>
<path d="M170.404 177.991L153.439 168.066V186.416L152.4 186.993V167.489L170.404 177.991Z" fill="#484848"/>
<path d="M170.981 196.34V197.61L152.516 186.877L153.439 186.3L170.981 196.34Z" fill="black"/>
<path d="M161.864 172.913V191.147L160.825 191.724V172.336L161.864 172.913Z" fill="#484848"/>
<path d="M160.133 171.413V191.263L160.825 191.725V172.336L160.133 171.413Z" fill="black"/>
<path fill-rule="evenodd" clip-rule="evenodd" d="M170.981 177.644V198.418L151.708 187.223V166.565L170.981 177.644ZM170.288 177.99L152.516 167.719V186.761L170.288 197.148V177.99Z" fill="#606060"/>
<path d="M140.975 96.5132V116.248L134.397 112.324V92.5894L140.975 96.5132Z" fill="black"/>
<path d="M134.512 93.1666V111.632L133.358 112.209V92.4741L134.512 93.1666Z" fill="black"/>
<path d="M140.975 115.324V116.478L133.589 112.093L134.512 111.516L140.975 115.324Z" fill="black"/>
<path d="M134.397 93.1666V111.632L133.358 112.209V92.4741L134.397 93.1666Z" fill="#484848"/>
<path d="M140.975 115.441V116.595L133.473 112.094L134.397 111.632L140.975 115.441Z" fill="black"/>
<path fill-rule="evenodd" clip-rule="evenodd" d="M141.898 96.975V117.864L132.781 112.555V91.6663L141.898 96.975ZM140.86 97.0904L133.358 92.7049V112.093L140.86 116.363V97.0904Z" fill="#606060"/>
<path d="M140.975 128.365V148.1L134.397 144.176V124.442L140.975 128.365Z" fill="black"/>
<path d="M134.512 125.019V143.484L133.474 144.061V124.326L134.512 125.019Z" fill="black"/>
<path d="M140.975 147.177V148.331L133.589 143.946L134.512 143.369L140.975 147.177Z" fill="black"/>
<path d="M134.397 125.019V143.484L133.358 144.061V124.326L134.397 125.019Z" fill="#484848"/>
<path d="M140.975 147.293V148.447L133.589 143.946L134.397 143.484L140.975 147.293Z" fill="black"/>
<path fill-rule="evenodd" clip-rule="evenodd" d="M142.014 128.828V149.716L132.781 144.407V123.519L142.014 128.828ZM140.975 128.943L133.589 124.673V143.946L140.975 148.331V128.943Z" fill="#606060"/>
<path d="M140.975 160.217V179.952L134.397 176.028V156.293L140.975 160.217Z" fill="black"/>
<path d="M134.512 156.87V175.22L133.474 175.913V156.178L134.512 156.87Z" fill="black"/>
<path d="M140.975 179.028V180.182L133.589 175.797L134.512 175.22L140.975 179.028Z" fill="black"/>
<path d="M134.397 156.87V175.336L133.358 175.913V156.178L134.397 156.87Z" fill="#484848"/>
<path d="M140.975 179.143V180.297L133.589 175.796L134.396 175.334L140.975 179.143Z" fill="black"/>
<path fill-rule="evenodd" clip-rule="evenodd" d="M142.013 160.678V181.567L132.781 176.258V155.37L142.013 160.678ZM140.975 160.794L133.589 156.408V175.797L140.975 180.067V160.794Z" fill="#606060"/>
<path d="M122.164 175.335L130.358 170.604V178.22L122.164 183.067V175.335Z" fill="#1C1C1C"/>
<path d="M130.358 170.603L128.396 169.449L121.933 173.142L122.164 175.335L130.358 170.603Z" fill="#484848"/>
<path d="M140.86 184.105L147.323 180.412V191.376L140.86 195.184V184.105Z" fill="#1C1C1C"/>
<path d="M140.86 184.105L121.933 173.141V184.22L140.86 195.184V184.105Z" fill="#2D2D2D"/>
<path d="M121.933 173.142L123.78 172.103L142.706 183.067L140.86 184.106L121.933 173.142Z" fill="#484848"/>
<path d="M147.323 180.412L145.361 179.143L138.898 182.951L140.86 184.105L147.323 180.412Z" fill="#484848"/>
<path d="M122.164 143.599L130.473 138.751V146.368L122.164 151.215V143.599Z" fill="#1C1C1C"/>
<path d="M130.473 138.751L128.396 137.597L121.933 141.29L122.164 143.598L130.473 138.751Z" fill="#484848"/>
<path d="M140.975 152.255L147.323 148.562L147.438 159.525L140.975 163.334V152.255Z" fill="#1C1C1C"/>
<path d="M140.975 152.254L121.933 141.291V152.37L140.975 163.333V152.254Z" fill="#2D2D2D"/>
<path d="M121.933 141.29L123.78 140.251L142.707 151.215L140.975 152.254L121.933 141.29Z" fill="#484848"/>
<path d="M147.323 148.561L145.361 147.407L138.898 151.1L140.975 152.254L147.323 148.561Z" fill="#484848"/>
<path d="M122.164 111.746L130.473 106.899V114.516L122.164 119.363V111.746Z" fill="#1C1C1C"/>
<path d="M130.473 106.898L128.396 105.744L121.933 109.437L122.164 111.745L130.473 106.898Z" fill="#484848"/>
<path d="M140.975 120.4L147.323 116.707L147.438 127.671L140.975 131.479V120.4Z" fill="#1C1C1C"/>
<path d="M140.975 120.401L121.933 109.437V120.516L140.975 131.48V120.401Z" fill="#2D2D2D"/>
<path d="M121.933 109.438L123.78 108.399L142.707 119.363L140.975 120.401L121.933 109.438Z" fill="#484848"/>
<path d="M147.323 116.708L145.361 115.554L138.898 119.247L140.975 120.401L147.323 116.708Z" fill="#484848"/>
<path d="M204.679 119.939V139.443L222.221 129.172L205.256 138.982V119.593L204.679 119.939Z" fill="black"/>
<path d="M204.679 119.362V138.866L222.221 128.595V109.206L204.679 119.362Z" fill="black"/>
<path d="M205.141 119.479L222.221 109.669V127.903L223.26 128.48V109.092L205.141 119.479Z" fill="black"/>
<path d="M204.679 137.829V139.098L223.029 128.365L222.221 127.904L204.679 137.829Z" fill="black"/>
<path d="M205.256 119.479L222.221 109.669V128.019L223.26 128.48V109.092L205.256 119.479Z" fill="#484848"/>
<path d="M204.679 137.944V139.214L223.145 128.481L222.221 127.904L204.679 137.944Z" fill="black"/>
<path d="M213.797 114.516V132.75L214.835 133.327V113.823L213.797 114.516Z" fill="#484848"/>
<path d="M215.528 113.016V132.866L214.835 133.327V113.824L215.528 113.016Z" fill="black"/>
<path fill-rule="evenodd" clip-rule="evenodd" d="M223.952 108.169V128.827L204.679 140.021V119.248L223.952 108.169ZM205.372 138.867L223.145 128.481V109.438L205.372 119.71V138.867Z" fill="#606060"/>
<path d="M204.679 151.791V171.295L222.221 161.024L205.256 170.833V151.445L204.679 151.791Z" fill="black"/>
<path d="M204.679 151.215V170.719L222.221 160.447V141.059L204.679 151.215Z" fill="black"/>
<path d="M205.141 151.329L222.221 141.52V159.754L223.26 160.331V140.943L205.141 151.329Z" fill="black"/>
<path d="M204.679 169.679V170.948L223.029 160.216L222.221 159.754L204.679 169.679Z" fill="black"/>
<path d="M205.256 151.329L222.221 141.52V159.869L223.26 160.331V140.943L205.256 151.329Z" fill="#484848"/>
<path d="M204.679 169.794V171.064L223.145 160.216L222.221 159.754L204.679 169.794Z" fill="black"/>
<path d="M213.797 146.367V164.601L214.835 165.178V145.674L213.797 146.367Z" fill="#484848"/>
<path d="M215.528 144.752V164.718L214.835 165.179V145.676L215.528 144.752Z" fill="black"/>
<path fill-rule="evenodd" clip-rule="evenodd" d="M223.953 139.905V160.678L204.68 171.872V151.099L223.953 139.905ZM205.372 170.603L223.145 160.216V141.174L205.372 151.445V170.603Z" fill="#606060"/>
<path d="M204.679 183.53V203.034L222.221 192.878L205.256 202.688V183.184L204.679 183.53Z" fill="black"/>
<path d="M204.679 183.068V202.456L222.221 192.3V172.796L204.679 183.068Z" fill="black"/>
<path d="M205.141 183.184L222.221 173.374V191.493L223.26 192.186V172.682L205.141 183.184Z" fill="black"/>
<path d="M204.679 201.419V202.804L223.029 192.071L222.221 191.494L204.679 201.419Z" fill="black"/>
<path d="M205.256 183.184L222.221 173.374V191.609L223.26 192.186V172.682L205.256 183.184Z" fill="#484848"/>
<path d="M204.679 201.534V202.919L223.145 192.071L222.221 191.494L204.679 201.534Z" fill="black"/>
<path d="M213.797 178.107V196.456L214.835 196.918V177.53L213.797 178.107Z" fill="#484848"/>
<path d="M215.528 176.606V196.571L214.835 196.918V177.529L215.528 176.606Z" fill="black"/>
<path fill-rule="evenodd" clip-rule="evenodd" d="M223.952 171.76V192.533L204.679 203.727V182.954L223.952 171.76ZM205.372 202.343L223.144 192.071V172.914L205.372 183.185V202.343Z" fill="#606060"/>
<path d="M480.103 77.9131V82.8842L512.681 101.704V96.8212L480.103 77.9131Z" fill="#484848"/>
<path d="M577.306 101.172L544.728 120.346L544.816 213.555L577.306 195.091V101.172Z" fill="#1C1C1C"/>
<path d="M480.103 82.8848L544.727 120.346L544.816 213.555L480.191 176.271L480.103 82.8848Z" fill="#3D3D3D"/>
<path d="M577.395 194.825L544.816 213.556V218.438L577.395 199.53V194.825Z" fill="#484848"/>
<path d="M544.816 213.554V218.437L480.191 181.153V176.271L544.816 213.554Z" fill="#484848"/>
<path d="M544.727 115.377L577.217 96.4685L577.306 101.173L544.727 120.259V115.377Z" fill="#484848"/>
<path d="M512.148 96.5574V101.44L544.727 120.348V115.377L512.148 96.5574Z" fill="#484848"/>
<path d="M544.727 115.731L480.103 77.915L512.504 59.2732L577.217 96.468L544.727 115.731Z" fill="#282828"/>
<path d="M519.339 96.6482L522.269 98.4236L544.55 111.65L567.098 98.3348L570.027 96.5594L544.639 82.0898L519.339 96.6482Z" fill="black"/>
<path d="M522.268 98.422L544.55 111.649L567.097 98.3332L544.638 85.5503L522.268 98.422Z" fill="#161616"/>
<path d="M487.559 78.3567L490.489 80.1321L512.859 93.2701L535.318 79.9546L538.336 78.2679L512.859 63.7983L487.559 78.3567Z" fill="black"/>
<path d="M490.489 80.1339L512.859 93.272L535.318 79.9564L512.859 67.2622L490.489 80.1339Z" fill="#161616"/>
<path d="M528.216 120.612V135.525L514.723 127.713L527.772 135.259V120.345L528.216 120.612Z" fill="black"/>
<path d="M528.216 120.167V135.169L514.723 127.268V112.355L528.216 120.167Z" fill="black"/>
<path d="M527.861 120.255L514.723 112.71V126.735L513.924 127.179V112.266L527.861 120.255Z" fill="black"/>
<path d="M528.216 134.371V135.347L514.102 127.092L514.723 126.648L528.216 134.371Z" fill="black"/>
<path d="M527.773 120.255L514.723 112.71V126.824L513.924 127.179V112.266L527.773 120.255Z" fill="#484848"/>
<path d="M528.216 134.458V135.435L514.013 127.09L514.723 126.735L528.216 134.458Z" fill="black"/>
<path d="M521.203 116.349V130.463L520.404 130.818V115.905L521.203 116.349Z" fill="#484848"/>
<path d="M519.872 115.196V130.553L520.404 130.819V115.906L519.872 115.196Z" fill="black"/>
<path fill-rule="evenodd" clip-rule="evenodd" d="M528.216 120.079V136.058L513.391 127.447V111.469L528.216 120.079ZM527.683 120.434L514.013 112.534V127.181L527.683 135.081V120.434Z" fill="#606060"/>
<path d="M528.216 145.021V160.023L514.723 152.211L527.772 159.757V144.755L528.216 145.021Z" fill="black"/>
<path d="M528.216 144.667V159.669L514.723 151.769V136.855L528.216 144.667Z" fill="black"/>
<path d="M527.861 144.755L514.723 137.21V151.236L513.924 151.68V136.766L527.861 144.755Z" fill="black"/>
<path d="M528.216 158.781V159.846L514.102 151.591L514.723 151.147L528.216 158.781Z" fill="black"/>
<path d="M527.772 144.755L514.723 137.21V151.236L513.924 151.68V136.766L527.772 144.755Z" fill="#484848"/>
<path d="M528.216 158.869V159.934L514.013 151.59L514.723 151.235L528.216 158.869Z" fill="black"/>
<path d="M521.203 140.849V154.964L520.405 155.319V140.405L521.203 140.849Z" fill="#484848"/>
<path d="M519.872 139.695V155.052L520.404 155.319V140.405L519.872 139.695Z" fill="black"/>
<path fill-rule="evenodd" clip-rule="evenodd" d="M528.216 144.577V160.555L513.391 151.945V135.966L528.216 144.577ZM527.683 144.932L514.013 137.031V151.678L527.683 159.579V144.932Z" fill="#606060"/>
<path d="M528.216 169.522V184.524L514.723 176.623L527.772 184.258V169.255L528.216 169.522Z" fill="black"/>
<path d="M528.216 169.079V184.081L514.723 176.269V161.267L528.216 169.079Z" fill="black"/>
<path d="M527.861 169.256L514.723 161.711V175.648L513.924 176.18V161.178L527.861 169.256Z" fill="black"/>
<path d="M528.216 183.282V184.258L514.102 176.003L514.723 175.648L528.216 183.282Z" fill="black"/>
<path d="M527.772 169.256L514.723 161.622V175.736L513.924 176.18V161.178L527.772 169.256Z" fill="#484848"/>
<path d="M528.216 183.371V184.347L514.013 176.092L514.723 175.648L528.216 183.371Z" fill="black"/>
<path d="M521.203 165.35V179.376L520.404 179.819V164.906L521.203 165.35Z" fill="#484848"/>
<path d="M519.872 164.197V179.466L520.404 179.821V164.907L519.872 164.197Z" fill="black"/>
<path fill-rule="evenodd" clip-rule="evenodd" d="M528.216 168.991V184.97L513.392 176.359V160.469L528.216 168.991ZM527.684 169.257L514.013 161.357V176.004L527.684 183.993V169.257Z" fill="#606060"/>
<path d="M505.136 106.583V121.762L500.076 118.744V103.564L505.136 106.583Z" fill="black"/>
<path d="M500.165 104.007V118.21L499.277 118.654V103.474L500.165 104.007Z" fill="black"/>
<path d="M505.136 121.051V121.939L499.455 118.566L500.165 118.122L505.136 121.051Z" fill="black"/>
<path d="M500.076 104.007V118.21L499.277 118.654V103.474L500.076 104.007Z" fill="#484848"/>
<path d="M505.136 121.14V122.028L499.366 118.566L500.076 118.211L505.136 121.14Z" fill="black"/>
<path fill-rule="evenodd" clip-rule="evenodd" d="M505.846 106.935V123.003L498.833 118.919V102.852L505.846 106.935ZM505.047 107.024L499.277 103.651V118.564L505.047 121.849V107.024Z" fill="#606060"/>
<path d="M505.136 131.084V146.264L500.076 143.245V128.066L505.136 131.084Z" fill="black"/>
<path d="M500.164 128.511V142.714L499.365 143.158V127.978L500.164 128.511Z" fill="black"/>
<path d="M505.136 145.552V146.44L499.454 143.067L500.164 142.623L505.136 145.552Z" fill="black"/>
<path d="M500.076 128.511V142.714L499.277 143.158V127.978L500.076 128.511Z" fill="#484848"/>
<path d="M505.136 145.643V146.53L499.454 143.068L500.076 142.713L505.136 145.643Z" fill="black"/>
<path fill-rule="evenodd" clip-rule="evenodd" d="M505.935 131.44V147.507L498.833 143.424V127.356L505.935 131.44ZM505.136 131.528L499.454 128.244V143.069L505.136 146.442V131.528Z" fill="#606060"/>
<path d="M505.136 155.586V170.766L500.076 167.747V152.568L505.136 155.586Z" fill="black"/>
<path d="M500.165 153.011V167.126L499.366 167.658V152.479L500.165 153.011Z" fill="black"/>
<path d="M505.136 170.054V170.942L499.455 167.569L500.165 167.125L505.136 170.054Z" fill="black"/>
<path d="M500.076 153.011V167.214L499.277 167.658V152.479L500.076 153.011Z" fill="#484848"/>
<path d="M505.136 170.143V171.031L499.455 167.569L500.076 167.214L505.136 170.143Z" fill="black"/>
<path fill-rule="evenodd" clip-rule="evenodd" d="M505.934 155.939V172.007L498.833 167.923V151.856L505.934 155.939ZM505.135 156.028L499.454 152.655V167.568L505.135 170.853V156.028Z" fill="#606060"/>
<path d="M490.667 167.214L496.97 163.574V169.433L490.667 173.161V167.214Z" fill="#1C1C1C"/>
<path d="M496.969 163.573L495.46 162.686L490.489 165.526L490.667 167.213L496.969 163.573Z" fill="#484848"/>
<path d="M505.047 173.959L510.019 171.119V179.552L505.047 182.481V173.959Z" fill="#1C1C1C"/>
<path d="M505.047 173.962L490.489 165.528V174.05L505.047 182.483V173.962Z" fill="#2D2D2D"/>
<path d="M490.489 165.527L491.909 164.728L506.468 173.161L505.047 173.96L490.489 165.527Z" fill="#484848"/>
<path d="M510.019 171.118L508.51 170.142L503.538 173.071L505.047 173.959L510.019 171.118Z" fill="#484848"/>
<path d="M490.667 142.803L497.058 139.074V144.933L490.667 148.662V142.803Z" fill="#1C1C1C"/>
<path d="M497.058 139.074L495.46 138.187L490.489 141.027L490.667 142.803L497.058 139.074Z" fill="#484848"/>
<path d="M505.136 149.46L510.018 146.619L510.107 155.053L505.136 157.982V149.46Z" fill="#1C1C1C"/>
<path d="M505.136 149.458L490.489 141.025V149.547L505.136 157.98V149.458Z" fill="#2D2D2D"/>
<path d="M490.489 141.026L491.909 140.227L506.468 148.66L505.136 149.459L490.489 141.026Z" fill="#484848"/>
<path d="M510.019 146.62L508.51 145.732L503.538 148.573L505.136 149.461L510.019 146.62Z" fill="#484848"/>
<path d="M490.667 118.302L497.058 114.574V120.433L490.667 124.161V118.302Z" fill="#1C1C1C"/>
<path d="M497.058 114.573L495.46 113.686L490.489 116.526L490.667 118.302L497.058 114.573Z" fill="#484848"/>
<path d="M505.136 124.959L510.018 122.119L510.107 130.552L505.136 133.481V124.959Z" fill="#1C1C1C"/>
<path d="M505.136 124.959L490.489 116.526V125.048L505.136 133.481V124.959Z" fill="#2D2D2D"/>
<path d="M490.489 116.526L491.909 115.728L506.468 124.161L505.136 124.96L490.489 116.526Z" fill="#484848"/>
<path d="M510.019 122.119L508.51 121.232L503.538 124.072L505.136 124.96L510.019 122.119Z" fill="#484848"/>
<path d="M554.137 124.602V139.604L567.63 131.703L554.581 139.249V124.335L554.137 124.602Z" fill="black"/>
<path d="M554.137 124.16V139.162L567.63 131.262V116.348L554.137 124.16Z" fill="black"/>
<path d="M554.492 124.247L567.63 116.702V130.728L568.429 131.171V116.258L554.492 124.247Z" fill="black"/>
<path d="M554.137 138.362V139.338L568.252 131.083L567.63 130.728L554.137 138.362Z" fill="black"/>
<path d="M554.581 124.247L567.63 116.702V130.816L568.429 131.171V116.258L554.581 124.247Z" fill="#484848"/>
<path d="M554.137 138.451V139.427L568.34 131.171L567.63 130.728L554.137 138.451Z" fill="black"/>
<path d="M561.15 120.431V134.457L561.949 134.9V119.898L561.15 120.431Z" fill="#484848"/>
<path d="M562.481 119.276V134.544L561.949 134.899V119.897L562.481 119.276Z" fill="black"/>
<path fill-rule="evenodd" clip-rule="evenodd" d="M568.962 115.547V131.437L554.137 140.048V124.069L568.962 115.547ZM554.67 139.16L568.34 131.171V116.524L554.67 124.424V139.16Z" fill="#606060"/>
<path d="M554.137 149.104V164.106L567.63 156.206L554.581 163.751V148.838L554.137 149.104Z" fill="black"/>
<path d="M554.137 148.66V163.662L567.63 155.762V140.848L554.137 148.66Z" fill="black"/>
<path d="M554.492 148.75L567.63 141.205V155.23L568.429 155.674V140.761L554.492 148.75Z" fill="black"/>
<path d="M554.137 162.864V163.841L568.252 155.585L567.63 155.23L554.137 162.864Z" fill="black"/>
<path d="M554.581 148.75L567.63 141.205V155.319L568.429 155.674V140.761L554.581 148.75Z" fill="#484848"/>
<path d="M554.137 162.953V163.93L568.34 155.585L567.63 155.23L554.137 162.953Z" fill="black"/>
<path d="M561.15 144.932V158.958L561.949 159.402V144.4L561.15 144.932Z" fill="#484848"/>
<path d="M562.481 143.691V159.048L561.949 159.403V144.401L562.481 143.691Z" fill="black"/>
<path fill-rule="evenodd" clip-rule="evenodd" d="M568.962 139.959V155.938L554.137 164.548V148.57L568.962 139.959ZM554.67 163.572L568.34 155.583V140.935L554.67 148.836V163.572Z" fill="#606060"/>
<path d="M554.137 173.517V188.519L567.63 180.707L554.581 188.252V173.25L554.137 173.517Z" fill="black"/>
<path d="M554.137 173.161V188.075L567.63 180.263V165.261L554.137 173.161Z" fill="black"/>
<path d="M554.492 173.25L567.63 165.704V179.641L568.429 180.174V165.172L554.492 173.25Z" fill="black"/>
<path d="M554.137 187.276V188.341L568.252 180.085L567.63 179.641L554.137 187.276Z" fill="black"/>
<path d="M554.581 173.25L567.63 165.704V179.73L568.429 180.174V165.172L554.581 173.25Z" fill="#484848"/>
<path d="M554.137 187.364V188.43L568.34 180.085L567.63 179.641L554.137 187.364Z" fill="black"/>
<path d="M561.15 169.344V183.458L561.949 183.813V168.9L561.15 169.344Z" fill="#484848"/>
<path d="M562.482 168.189V183.547L561.949 183.813V168.9L562.482 168.189Z" fill="black"/>
<path fill-rule="evenodd" clip-rule="evenodd" d="M568.962 164.462V180.441L554.137 189.051V173.073L568.962 164.462ZM554.67 187.986L568.34 180.086V165.35L554.67 173.25V187.986Z" fill="#606060"/>
<path d="M451.079 94.7141V99.6853L483.657 118.505V113.622L451.079 94.7141Z" fill="#484848"/>
<path d="M548.282 117.971L515.703 137.145L515.792 230.354L548.282 211.89V117.971Z" fill="#1C1C1C"/>
<path d="M451.079 99.6853L515.704 137.146L515.792 230.355L451.168 193.072L451.079 99.6853Z" fill="#3D3D3D"/>
<path d="M548.371 211.625L515.792 230.356V235.238L548.371 216.33V211.625Z" fill="#484848"/>
<path d="M515.792 230.353V235.236L451.167 197.952V193.07L515.792 230.353Z" fill="#484848"/>
<path d="M515.704 132.175L548.194 113.267L548.283 117.972L515.704 137.058V132.175Z" fill="#484848"/>
<path d="M483.125 113.356V118.239L515.704 137.147V132.176L483.125 113.356Z" fill="#484848"/>
<path d="M515.703 132.529L451.079 94.7128L483.48 76.071L548.193 113.266L515.703 132.529Z" fill="#282828"/>
<path d="M490.315 113.443L493.245 115.218L515.526 128.445L538.074 115.13L541.003 113.354L515.615 98.8845L490.315 113.443Z" fill="black"/>
<path d="M493.245 115.217L515.526 128.444L538.074 115.129L515.615 102.346L493.245 115.217Z" fill="#161616"/>
<path d="M458.536 95.1558L461.465 96.9312L483.835 110.069L506.294 96.7536L509.312 95.067L483.835 80.5974L458.536 95.1558Z" fill="black"/>
<path d="M461.465 96.9332L483.835 110.071L506.294 96.7557L483.835 84.0615L461.465 96.9332Z" fill="#161616"/>
<path d="M499.192 137.413V152.327L485.699 144.515L498.748 152.06V137.147L499.192 137.413Z" fill="black"/>
<path d="M499.192 136.97V151.972L485.699 144.071V129.158L499.192 136.97Z" fill="black"/>
<path d="M498.837 137.057L485.699 129.511V143.537L484.9 143.981V129.068L498.837 137.057Z" fill="black"/>
<path d="M499.193 151.173V152.15L485.078 143.894L485.7 143.45L499.193 151.173Z" fill="black"/>
<path d="M498.748 137.057L485.699 129.511V143.626L484.9 143.981V129.068L498.748 137.057Z" fill="#484848"/>
<path d="M499.193 151.261V152.238L484.989 143.893L485.699 143.538L499.193 151.261Z" fill="black"/>
<path d="M492.18 133.152V147.266L491.381 147.621V132.708L492.18 133.152Z" fill="#484848"/>
<path d="M490.848 131.998V147.355L491.381 147.621V132.708L490.848 131.998Z" fill="black"/>
<path fill-rule="evenodd" clip-rule="evenodd" d="M499.192 136.881V152.86L484.367 144.249V128.271L499.192 136.881ZM498.659 137.236L484.989 129.336V143.983L498.659 151.883V137.236Z" fill="#606060"/>
<path d="M499.192 161.827V176.829L485.699 169.017L498.748 176.563V161.56L499.192 161.827Z" fill="black"/>
<path d="M499.192 161.471V176.474L485.699 168.573V153.66L499.192 161.471Z" fill="black"/>
<path d="M498.837 161.561L485.699 154.016V168.042L484.9 168.485V153.572L498.837 161.561Z" fill="black"/>
<path d="M499.193 175.586V176.651L485.078 168.395L485.7 167.951L499.193 175.586Z" fill="black"/>
<path d="M498.749 161.561L485.699 154.016V168.042L484.9 168.485V153.572L498.749 161.561Z" fill="#484848"/>
<path d="M499.192 175.675V176.74L484.989 168.395L485.699 168.04L499.192 175.675Z" fill="black"/>
<path d="M492.18 157.654V171.768L491.381 172.123V157.21L492.18 157.654Z" fill="#484848"/>
<path d="M490.848 156.5V171.857L491.381 172.123V157.21L490.848 156.5Z" fill="black"/>
<path fill-rule="evenodd" clip-rule="evenodd" d="M499.193 161.385V177.364L484.368 168.753V152.775L499.193 161.385ZM498.66 161.74L484.989 153.84V168.487L498.66 176.388V161.74Z" fill="#606060"/>
<path d="M499.192 186.325V201.327L485.699 193.426L498.748 201.061V186.058L499.192 186.325Z" fill="black"/>
<path d="M499.192 185.882V200.884L485.699 193.072V178.07L499.192 185.882Z" fill="black"/>
<path d="M498.837 186.059L485.699 178.514V192.451L484.9 192.983V177.981L498.837 186.059Z" fill="black"/>
<path d="M499.192 200.085V201.061L485.078 192.806L485.699 192.45L499.192 200.085Z" fill="black"/>
<path d="M498.748 186.059L485.699 178.425V192.539L484.9 192.983V177.981L498.748 186.059Z" fill="#484848"/>
<path d="M499.193 200.173V201.15L484.989 192.894L485.699 192.45L499.193 200.173Z" fill="black"/>
<path d="M492.18 182.153V196.179L491.381 196.622V181.709L492.18 182.153Z" fill="#484848"/>
<path d="M490.848 180.999V196.267L491.381 196.622V181.709L490.848 180.999Z" fill="black"/>
<path fill-rule="evenodd" clip-rule="evenodd" d="M499.192 185.792V201.771L484.368 193.16V177.27L499.192 185.792ZM498.66 186.058L484.989 178.158V192.805L498.66 200.794V186.058Z" fill="#606060"/>
<path d="M476.112 123.388V138.568L471.052 135.55V120.37L476.112 123.388Z" fill="black"/>
<path d="M471.141 120.812V135.016L470.253 135.46V120.28L471.141 120.812Z" fill="black"/>
<path d="M476.112 137.858V138.745L470.431 135.372L471.141 134.928L476.112 137.858Z" fill="black"/>
<path d="M471.052 120.812V135.016L470.253 135.46V120.28L471.052 120.812Z" fill="#484848"/>
<path d="M476.112 137.946V138.833L470.342 135.371L471.052 135.016L476.112 137.946Z" fill="black"/>
<path fill-rule="evenodd" clip-rule="evenodd" d="M476.823 123.744V139.812L469.81 135.728V119.661L476.823 123.744ZM476.024 123.833L470.254 120.46V135.373L476.024 138.658V123.833Z" fill="#606060"/>
<path d="M476.112 147.888V163.068L471.052 160.049V144.87L476.112 147.888Z" fill="black"/>
<path d="M471.141 145.315V159.518L470.342 159.962V144.782L471.141 145.315Z" fill="black"/>
<path d="M476.112 162.358V163.245L470.431 159.872L471.141 159.428L476.112 162.358Z" fill="black"/>
<path d="M471.052 145.315V159.518L470.253 159.962V144.782L471.052 145.315Z" fill="#484848"/>
<path d="M476.112 162.448V163.335L470.431 159.873L471.052 159.518L476.112 162.448Z" fill="black"/>
<path fill-rule="evenodd" clip-rule="evenodd" d="M476.911 148.244V164.311L469.81 160.228V144.16L476.911 148.244ZM476.112 148.332L470.431 145.048V159.873L476.112 163.246V148.332Z" fill="#606060"/>
<path d="M476.112 172.389V187.569L471.052 184.55V169.371L476.112 172.389Z" fill="black"/>
<path d="M471.141 169.815V183.93L470.342 184.462V169.283L471.141 169.815Z" fill="black"/>
<path d="M476.112 186.858V187.746L470.431 184.373L471.141 183.929L476.112 186.858Z" fill="black"/>
<path d="M471.052 169.815V184.019L470.253 184.462V169.283L471.052 169.815Z" fill="#484848"/>
<path d="M476.112 186.947V187.835L470.431 184.373L471.052 184.018L476.112 186.947Z" fill="black"/>
<path fill-rule="evenodd" clip-rule="evenodd" d="M476.911 172.744V188.811L469.809 184.728V168.66L476.911 172.744ZM476.112 172.832L470.431 169.459V184.373L476.112 187.657V172.832Z" fill="#606060"/>
<path d="M461.643 184.018L467.945 180.378V186.237L461.643 189.966V184.018Z" fill="#1C1C1C"/>
<path d="M467.945 180.378L466.436 179.49L461.465 182.331L461.643 184.018L467.945 180.378Z" fill="#484848"/>
<path d="M476.023 190.764L480.995 187.923V196.356L476.023 199.286V190.764Z" fill="#1C1C1C"/>
<path d="M476.023 190.766L461.465 182.333V190.855L476.023 199.288V190.766Z" fill="#2D2D2D"/>
<path d="M461.465 182.331L462.885 181.532L477.444 189.966L476.023 190.765L461.465 182.331Z" fill="#484848"/>
<path d="M480.995 187.923L479.486 186.946L474.514 189.875L476.024 190.763L480.995 187.923Z" fill="#484848"/>
<path d="M461.643 159.605L468.034 155.876V161.735L461.643 165.464V159.605Z" fill="#1C1C1C"/>
<path d="M468.034 155.876L466.436 154.988L461.465 157.829L461.643 159.604L468.034 155.876Z" fill="#484848"/>
<path d="M476.112 166.262L480.995 163.421L481.083 171.854L476.112 174.784V166.262Z" fill="#1C1C1C"/>
<path d="M476.112 166.261L461.465 157.827V166.349L476.112 174.783V166.261Z" fill="#2D2D2D"/>
<path d="M461.465 157.828L462.886 157.029L477.444 165.462L476.112 166.261L461.465 157.828Z" fill="#484848"/>
<path d="M480.995 163.422L479.486 162.534L474.515 165.375L476.113 166.263L480.995 163.422Z" fill="#484848"/>
<path d="M461.643 135.105L468.034 131.377V137.236L461.643 140.964V135.105Z" fill="#1C1C1C"/>
<path d="M468.034 131.377L466.436 130.489L461.465 133.33L461.643 135.105L468.034 131.377Z" fill="#484848"/>
<path d="M476.113 141.763L480.995 138.922L481.084 147.355L476.113 150.284V141.763Z" fill="#1C1C1C"/>
<path d="M476.112 141.764L461.465 133.331V141.853L476.112 150.286V141.764Z" fill="#2D2D2D"/>
<path d="M461.465 133.331L462.886 132.532L477.444 140.965L476.112 141.764L461.465 133.331Z" fill="#484848"/>
<path d="M480.995 138.923L479.486 138.035L474.514 140.876L476.112 141.763L480.995 138.923Z" fill="#484848"/>
<path d="M525.113 141.407V156.409L538.606 148.509L525.557 156.054V141.141L525.113 141.407Z" fill="black"/>
<path d="M525.113 140.964V155.967L538.606 148.066V133.153L525.113 140.964Z" fill="black"/>
<path d="M525.469 141.051L538.607 133.505V147.531L539.406 147.975V133.061L525.469 141.051Z" fill="black"/>
<path d="M525.113 155.166V156.143L539.228 147.887L538.606 147.532L525.113 155.166Z" fill="black"/>
<path d="M525.557 141.051L538.607 133.505V147.62L539.406 147.975V133.061L525.557 141.051Z" fill="#484848"/>
<path d="M525.113 155.255V156.231L539.317 147.976L538.606 147.532L525.113 155.255Z" fill="black"/>
<path d="M532.126 137.235V151.261L532.925 151.705V136.703L532.126 137.235Z" fill="#484848"/>
<path d="M533.458 136.08V151.349L532.925 151.704V136.701L533.458 136.08Z" fill="black"/>
<path fill-rule="evenodd" clip-rule="evenodd" d="M539.938 132.352V148.241L525.113 156.852V140.874L539.938 132.352ZM525.646 155.965L539.317 147.975V133.328L525.646 141.229V155.965Z" fill="#606060"/>
<path d="M525.114 165.909V180.911L538.607 173.011L525.557 180.556V165.643L525.114 165.909Z" fill="black"/>
<path d="M525.114 165.465V180.467L538.607 172.567V157.653L525.114 165.465Z" fill="black"/>
<path d="M525.469 165.554L538.607 158.008V172.034L539.405 172.478V157.564L525.469 165.554Z" fill="black"/>
<path d="M525.114 179.669V180.646L539.228 172.39L538.607 172.035L525.114 179.669Z" fill="black"/>
<path d="M525.557 165.554L538.607 158.008V172.123L539.406 172.478V157.564L525.557 165.554Z" fill="#484848"/>
<path d="M525.114 179.758V180.735L539.317 172.39L538.607 172.035L525.114 179.758Z" fill="black"/>
<path d="M532.126 161.738V175.764L532.925 176.208V161.206L532.126 161.738Z" fill="#484848"/>
<path d="M533.458 160.496V175.853L532.925 176.208V161.206L533.458 160.496Z" fill="black"/>
<path fill-rule="evenodd" clip-rule="evenodd" d="M539.938 156.766V172.745L525.113 181.355V165.377L539.938 156.766ZM525.646 180.379L539.317 172.389V157.742L525.646 165.643V180.379Z" fill="#606060"/>
<path d="M525.114 190.321V205.323L538.607 197.511L525.558 205.057V190.055L525.114 190.321Z" fill="black"/>
<path d="M525.114 189.966V204.879L538.607 197.067V182.065L525.114 189.966Z" fill="black"/>
<path d="M525.469 190.054L538.607 182.509V196.446L539.406 196.979V181.976L525.469 190.054Z" fill="black"/>
<path d="M525.114 204.081V205.147L539.228 196.891L538.607 196.447L525.114 204.081Z" fill="black"/>
<path d="M525.558 190.054L538.607 182.509V196.535L539.406 196.979V181.976L525.558 190.054Z" fill="#484848"/>
<path d="M525.114 204.17V205.235L539.317 196.891L538.607 196.447L525.114 204.17Z" fill="black"/>
<path d="M532.126 186.148V200.263L532.925 200.618V185.704L532.126 186.148Z" fill="#484848"/>
<path d="M533.458 184.995V200.352L532.925 200.619V185.705L533.458 184.995Z" fill="black"/>
<path fill-rule="evenodd" clip-rule="evenodd" d="M539.939 181.268V197.247L525.114 205.857V189.879L539.939 181.268ZM525.647 204.792L539.317 196.891V182.156L525.647 190.056V204.792Z" fill="#606060"/>
<path d="M419 113.046V118.017L451.579 136.837V131.954L419 113.046Z" fill="#484848"/>
<path d="M516.204 136.302L483.625 155.477L483.714 248.686L516.204 230.221V136.302Z" fill="#1C1C1C"/>
<path d="M419 118.015L483.625 155.477L483.714 248.686L419.089 211.402L419 118.015Z" fill="#3D3D3D"/>
<path d="M516.292 229.956L483.714 248.687V253.569L516.292 234.661V229.956Z" fill="#484848"/>
<path d="M483.714 248.685V253.568L419.089 216.284V211.402L483.714 248.685Z" fill="#484848"/>
<path d="M483.625 150.507L516.115 131.599L516.204 136.304L483.625 155.389V150.507Z" fill="#484848"/>
<path d="M451.046 131.688V136.57L483.625 155.478V150.507L451.046 131.688Z" fill="#484848"/>
<path d="M483.625 150.861L419 113.045L451.401 94.4033L516.115 131.598L483.625 150.861Z" fill="#282828"/>
<path d="M458.237 131.776L461.166 133.551L483.448 146.778L505.995 133.463L508.925 131.687L483.536 117.218L458.237 131.776Z" fill="black"/>
<path d="M461.167 133.551L483.448 146.778L505.996 133.462L483.537 120.679L461.167 133.551Z" fill="#161616"/>
<path d="M426.457 113.488L429.386 115.263L451.757 128.401L474.216 115.085L477.234 113.399L451.757 98.9292L426.457 113.488Z" fill="black"/>
<path d="M429.387 115.263L451.757 128.401L474.216 115.086L451.757 102.392L429.387 115.263Z" fill="#161616"/>
<path d="M467.113 155.744V170.658L453.62 162.846L466.669 170.391V155.478L467.113 155.744Z" fill="black"/>
<path d="M467.113 155.3V170.303L453.62 162.402V147.489L467.113 155.3Z" fill="black"/>
<path d="M466.758 155.389L453.62 147.843V161.869L452.821 162.313V147.399L466.758 155.389Z" fill="black"/>
<path d="M467.113 169.503V170.48L452.999 162.224L453.62 161.78L467.113 169.503Z" fill="black"/>
<path d="M466.67 155.389L453.62 147.843V161.958L452.821 162.313V147.399L466.67 155.389Z" fill="#484848"/>
<path d="M467.113 169.592V170.569L452.91 162.224L453.62 161.869L467.113 169.592Z" fill="black"/>
<path d="M460.1 151.482V165.597L459.302 165.952V151.039L460.1 151.482Z" fill="#484848"/>
<path d="M458.769 150.329V165.687L459.301 165.953V151.04L458.769 150.329Z" fill="black"/>
<path fill-rule="evenodd" clip-rule="evenodd" d="M467.113 155.211V171.19L452.288 162.579V146.601L467.113 155.211ZM466.58 155.566L452.91 147.666V162.313L466.58 170.214V155.566Z" fill="#606060"/>
<path d="M467.113 180.155V195.157L453.62 187.346L466.67 194.891V179.889L467.113 180.155Z" fill="black"/>
<path d="M467.113 179.8V194.803L453.62 186.902V171.989L467.113 179.8Z" fill="black"/>
<path d="M466.758 179.889L453.62 172.343V186.369L452.821 186.813V171.899L466.758 179.889Z" fill="black"/>
<path d="M467.114 193.916V194.981L452.999 186.725L453.621 186.281L467.114 193.916Z" fill="black"/>
<path d="M466.67 179.889L453.62 172.343V186.369L452.821 186.813V171.899L466.67 179.889Z" fill="#484848"/>
<path d="M467.114 194.002V195.067L452.91 186.723L453.621 186.368L467.114 194.002Z" fill="black"/>
<path d="M460.101 175.982V190.097L459.302 190.452V175.539L460.101 175.982Z" fill="#484848"/>
<path d="M458.769 174.828V190.186L459.302 190.452V175.539L458.769 174.828Z" fill="black"/>
<path fill-rule="evenodd" clip-rule="evenodd" d="M467.114 179.711V195.69L452.289 187.079V171.1L467.114 179.711ZM466.581 180.066L452.91 172.166V186.813L466.581 194.713V180.066Z" fill="#606060"/>
<path d="M467.113 204.656V219.658L453.62 211.758L466.67 219.392V204.39L467.113 204.656Z" fill="black"/>
<path d="M467.113 204.213V219.215L453.62 211.404V196.401L467.113 204.213Z" fill="black"/>
<path d="M466.758 204.389L453.62 196.844V210.781L452.821 211.313V196.311L466.758 204.389Z" fill="black"/>
<path d="M467.114 218.415V219.392L452.999 211.136L453.621 210.781L467.114 218.415Z" fill="black"/>
<path d="M466.67 204.389L453.62 196.755V210.87L452.821 211.313V196.311L466.67 204.389Z" fill="#484848"/>
<path d="M467.113 218.504V219.481L452.91 211.225L453.62 210.781L467.113 218.504Z" fill="black"/>
<path d="M460.101 200.483V214.509L459.302 214.953V200.039L460.101 200.483Z" fill="#484848"/>
<path d="M458.769 199.33V214.599L459.302 214.954V200.04L458.769 199.33Z" fill="black"/>
<path fill-rule="evenodd" clip-rule="evenodd" d="M467.114 204.123V220.102L452.289 211.491V195.601L467.114 204.123ZM466.581 204.39L452.91 196.489V211.136L466.581 219.125V204.39Z" fill="#606060"/>
<path d="M444.034 141.721V156.901L438.974 153.882V138.703L444.034 141.721Z" fill="black"/>
<path d="M439.063 139.146V153.35L438.175 153.794V138.614L439.063 139.146Z" fill="black"/>
<path d="M444.033 156.19V157.078L438.352 153.705L439.062 153.261L444.033 156.19Z" fill="black"/>
<path d="M438.974 139.146V153.35L438.175 153.794V138.614L438.974 139.146Z" fill="#484848"/>
<path d="M444.034 156.278V157.166L438.263 153.704L438.974 153.349L444.034 156.278Z" fill="black"/>
<path fill-rule="evenodd" clip-rule="evenodd" d="M444.744 142.079V158.147L437.731 154.063V137.996L444.744 142.079ZM443.945 142.168L438.175 138.795V153.708L443.945 156.992V142.168Z" fill="#606060"/>
<path d="M444.034 166.22V181.399L438.974 178.381V163.201L444.034 166.22Z" fill="black"/>
<path d="M439.062 163.646V177.85L438.263 178.294V163.114L439.062 163.646Z" fill="black"/>
<path d="M444.034 180.688V181.576L438.352 178.203L439.062 177.759L444.034 180.688Z" fill="black"/>
<path d="M438.974 163.646V177.85L438.175 178.294V163.114L438.974 163.646Z" fill="#484848"/>
<path d="M444.034 180.778V181.666L438.352 178.204L438.974 177.849L444.034 180.778Z" fill="black"/>
<path fill-rule="evenodd" clip-rule="evenodd" d="M444.833 166.574V182.642L437.731 178.558V162.491L444.833 166.574ZM444.034 166.663L438.352 163.378V178.203L444.034 181.576V166.663Z" fill="#606060"/>
<path d="M444.034 190.721V205.9L438.974 202.882V187.702L444.034 190.721Z" fill="black"/>
<path d="M439.062 188.147V202.262L438.263 202.794V187.615L439.062 188.147Z" fill="black"/>
<path d="M444.033 205.19V206.078L438.352 202.705L439.062 202.261L444.033 205.19Z" fill="black"/>
<path d="M438.974 188.147V202.35L438.175 202.794V187.615L438.974 188.147Z" fill="#484848"/>
<path d="M444.033 205.279V206.167L438.352 202.705L438.973 202.35L444.033 205.279Z" fill="black"/>
<path fill-rule="evenodd" clip-rule="evenodd" d="M444.833 191.076V207.144L437.731 203.06V186.993L444.833 191.076ZM444.034 191.165L438.352 187.792V202.705L444.034 205.99V191.165Z" fill="#606060"/>
<path d="M429.564 202.35L435.867 198.711V204.57L429.564 208.298V202.35Z" fill="#1C1C1C"/>
<path d="M435.867 198.71L434.358 197.823L429.386 200.663L429.564 202.35L435.867 198.71Z" fill="#484848"/>
<path d="M443.945 209.096L448.916 206.256V214.689L443.945 217.618V209.096Z" fill="#1C1C1C"/>
<path d="M443.945 209.098L429.386 200.665V209.187L443.945 217.62V209.098Z" fill="#2D2D2D"/>
<path d="M429.386 200.663L430.807 199.865L445.365 208.298L443.945 209.097L429.386 200.663Z" fill="#484848"/>
<path d="M448.916 206.255L447.407 205.279L442.436 208.208L443.945 209.096L448.916 206.255Z" fill="#484848"/>
<path d="M429.564 177.937L435.956 174.209V180.068L429.564 183.796V177.937Z" fill="#1C1C1C"/>
<path d="M435.956 174.209L434.358 173.321L429.387 176.161L429.564 177.937L435.956 174.209Z" fill="#484848"/>
<path d="M444.034 184.594L448.916 181.754L449.005 190.187L444.034 193.116V184.594Z" fill="#1C1C1C"/>
<path d="M444.034 184.592L429.387 176.159V184.681L444.034 193.114V184.592Z" fill="#2D2D2D"/>
<path d="M429.387 176.16L430.807 175.361L445.366 183.794L444.034 184.593L429.387 176.16Z" fill="#484848"/>
<path d="M448.916 181.754L447.407 180.867L442.436 183.707L444.034 184.595L448.916 181.754Z" fill="#484848"/>
<path d="M429.564 153.438L435.956 149.71V155.569L429.564 159.297V153.438Z" fill="#1C1C1C"/>
<path d="M435.955 149.709L434.358 148.822L429.386 151.662L429.564 153.438L435.955 149.709Z" fill="#484848"/>
<path d="M444.034 160.096L448.916 157.256L449.005 165.689L444.034 168.618V160.096Z" fill="#1C1C1C"/>
<path d="M444.034 160.095L429.387 151.661V160.183L444.034 168.617V160.095Z" fill="#2D2D2D"/>
<path d="M429.387 151.662L430.807 150.863L445.365 159.296L444.034 160.095L429.387 151.662Z" fill="#484848"/>
<path d="M448.916 157.255L447.407 156.367L442.436 159.208L444.034 160.096L448.916 157.255Z" fill="#484848"/>
<path d="M493.035 159.738V174.741L506.528 166.84L493.479 174.386V159.472L493.035 159.738Z" fill="black"/>
<path d="M493.035 159.296V174.298L506.528 166.397V151.484L493.035 159.296Z" fill="black"/>
<path d="M493.39 159.382L506.528 151.836V165.862L507.327 166.306V151.393L493.39 159.382Z" fill="black"/>
<path d="M493.035 173.498V174.474L507.149 166.218L506.528 165.863L493.035 173.498Z" fill="black"/>
<path d="M493.479 159.382L506.528 151.836V165.951L507.327 166.306V151.393L493.479 159.382Z" fill="#484848"/>
<path d="M493.035 173.586V174.563L507.238 166.307L506.528 165.863L493.035 173.586Z" fill="black"/>
<path d="M500.048 155.567V169.592L500.847 170.036V155.034L500.048 155.567Z" fill="#484848"/>
<path d="M501.379 154.411V169.68L500.847 170.035V155.033L501.379 154.411Z" fill="black"/>
<path fill-rule="evenodd" clip-rule="evenodd" d="M507.86 150.684V166.574L493.035 175.184V159.206L507.86 150.684ZM493.568 174.297L507.238 166.307V151.66L493.568 159.561V174.297Z" fill="#606060"/>
<path d="M493.035 184.24V199.243L506.528 191.342L493.479 198.888V183.974L493.035 184.24Z" fill="black"/>
<path d="M493.035 183.796V198.799L506.528 190.898V175.985L493.035 183.796Z" fill="black"/>
<path d="M493.39 183.886L506.528 176.341V190.366L507.327 190.81V175.897L493.39 183.886Z" fill="black"/>
<path d="M493.035 198V198.977L507.149 190.721L506.528 190.366L493.035 198Z" fill="black"/>
<path d="M493.479 183.886L506.528 176.341V190.455L507.327 190.81V175.897L493.479 183.886Z" fill="#484848"/>
<path d="M493.035 198.089V199.066L507.238 190.721L506.528 190.366L493.035 198.089Z" fill="black"/>
<path d="M500.048 180.069V194.094L500.847 194.538V179.536L500.048 180.069Z" fill="#484848"/>
<path d="M501.379 178.827V194.184L500.847 194.539V179.537L501.379 178.827Z" fill="black"/>
<path fill-rule="evenodd" clip-rule="evenodd" d="M507.86 175.098V191.076L493.035 199.687V183.708L507.86 175.098ZM493.568 198.711L507.238 190.721V176.074L493.568 183.975V198.711Z" fill="#606060"/>
<path d="M493.035 208.65V223.652L506.528 215.841L493.479 223.386V208.384L493.035 208.65Z" fill="black"/>
<path d="M493.035 208.295V223.208L506.528 215.397V200.394L493.035 208.295Z" fill="black"/>
<path d="M493.39 208.385L506.528 200.839V214.776L507.327 215.309V200.307L493.39 208.385Z" fill="black"/>
<path d="M493.035 222.41V223.476L507.15 215.22L506.528 214.776L493.035 222.41Z" fill="black"/>
<path d="M493.479 208.385L506.529 200.839V214.865L507.327 215.309V200.307L493.479 208.385Z" fill="#484848"/>
<path d="M493.035 222.499V223.564L507.238 215.22L506.528 214.776L493.035 222.499Z" fill="black"/>
<path d="M500.048 204.479V218.593L500.847 218.948V204.035L500.048 204.479Z" fill="#484848"/>
<path d="M501.379 203.324V218.682L500.847 218.948V204.034L501.379 203.324Z" fill="black"/>
<path fill-rule="evenodd" clip-rule="evenodd" d="M507.86 199.595V215.574L493.035 224.185V208.206L507.86 199.595ZM493.568 223.119L507.239 215.219V200.483L493.568 208.383V223.119Z" fill="#606060"/>
<path d="M333.134 322.149H314.029L308.197 306.132L324.436 299.786L340.273 306.283L333.134 322.149Z" fill="black"/>
<path d="M381.449 294.195L333.134 322.15V308.197L353.295 289.108L381.449 280.243V294.195Z" fill="black"/>
<path d="M381.449 280.244V269.163L341.832 246.245H322.727L274.411 274.199V285.28L314.029 308.198H333.134L381.449 280.244Z" fill="black"/>
<path d="M314.029 322.15L274.411 299.233V285.281L314.029 308.198V322.15Z" fill="black"/>
<path d="M333.234 318.927H313.576L307.593 276.164L324.285 269.565L340.625 276.264L333.234 318.927Z" fill="#313131"/>
<path d="M382.957 290.167L333.234 318.928V278.23L353.998 258.586L382.957 249.469V290.167Z" fill="#1C1C1C"/>
<path d="M382.958 249.469V238.136L342.183 214.513H322.576L272.802 243.274V254.657L313.576 278.229H333.234L382.958 249.469Z" fill="#272727"/>
<path d="M313.576 318.926L272.802 295.354V254.656L313.576 278.229V318.926Z" fill="#3D3D3D"/>
<path d="M333.134 276.871H314.029L308.197 260.904L324.436 254.507L340.273 261.005L333.134 276.871Z" fill="#313131"/>
<path d="M381.45 248.966L333.134 276.87V262.918L353.295 243.828L381.45 234.963V248.966Z" fill="#1C1C1C"/>
<path d="M381.45 234.963V223.933L341.832 201.015H322.727L274.411 228.969V240L314.029 262.918H333.134L381.45 234.963Z" fill="#272727"/>
<path d="M314.029 276.87L274.411 254.003V240L314.029 262.918V276.87Z" fill="#3D3D3D"/>
<path d="M314.029 276.871L299.398 268.409V261.811L314.029 270.272V276.871Z" fill="#C92222"/>
<path opacity="0.3" d="M336.703 258.083L309.604 258.889L274.411 238.541V252.493L314.029 275.41H333.134L381.449 247.456V233.504L336.703 258.083Z" fill="black"/>
<path d="M333.234 272.739H313.576L307.593 246.547L324.285 239.999L340.625 246.698L333.234 272.739Z" fill="#313131"/>
<path d="M382.958 243.979L333.234 272.74V248.664L353.998 229.02L382.958 219.903V243.979Z" fill="#1C1C1C"/>
<path d="M382.958 219.903V208.519L342.184 184.947H322.576L272.802 213.707V225.04L313.576 248.663H333.234L382.958 219.903Z" fill="#272727"/>
<path d="M313.576 272.739L272.802 249.217V225.041L313.576 248.663V272.739Z" fill="#3D3D3D"/>
<path d="M333.134 247.303H314.029L308.197 231.286L324.436 224.889L340.273 231.437L333.134 247.303Z" fill="#313131"/>
<path d="M381.449 219.347L333.134 247.301V233.299L353.295 214.209L381.449 205.395V219.347Z" fill="#1C1C1C"/>
<path d="M381.449 205.395V194.314L341.832 171.397H322.727L274.411 199.351V210.382L314.029 233.3H333.134L381.449 205.395Z" fill="#272727"/>
<path d="M314.029 247.302L274.411 224.384V210.382L314.029 233.299V247.302Z" fill="#3D3D3D"/>
<path d="M314.029 247.303L299.398 238.841V232.192L314.029 240.654V247.303Z" fill="#C92222"/>
<path opacity="0.3" d="M336.703 228.465L309.604 229.271L274.411 208.922V222.925L314.029 245.792H333.134L381.449 217.837V203.885L336.703 228.465Z" fill="black"/>
<path d="M333.234 243.324H313.576L307.593 217.132L324.285 210.534L340.625 217.233L333.234 243.324Z" fill="#313131"/>
<path d="M382.958 214.565L333.234 243.325V219.199L353.998 199.555L382.958 190.438V214.565Z" fill="#1C1C1C"/>
<path d="M382.958 190.437V179.054L342.184 155.482H322.576L272.802 184.242V195.625L313.576 219.198H333.234L382.958 190.437Z" fill="#272727"/>
<path d="M313.576 243.325L272.802 219.752V195.626L313.576 219.198V243.325Z" fill="#3D3D3D"/>
<path d="M333.134 217.838H314.029L308.197 201.871L324.436 195.474L340.273 201.972L333.134 217.838Z" fill="#313131"/>
<path d="M381.45 189.882L333.134 217.837V203.885L353.295 184.795L381.45 175.93V189.882Z" fill="#1C1C1C"/>
<path d="M381.45 175.93V164.849L341.832 141.982H322.727L274.411 169.936V180.967L314.029 203.885H333.134L381.45 175.93Z" fill="#272727"/>
<path d="M314.029 217.837L274.411 194.969V180.967L314.029 203.885V217.837Z" fill="#3D3D3D"/>
<path d="M314.029 217.837L299.398 209.375V202.777L314.029 211.239V217.837Z" fill="#C92222"/>
<path opacity="0.3" d="M336.703 199.05L309.604 199.856L274.411 179.507V193.459L314.029 216.377H333.134L381.449 188.423V174.47L336.703 199.05Z" fill="black"/>
<path d="M333.234 214.007H313.576L307.593 187.765L324.285 181.217L340.625 187.916L333.234 214.007Z" fill="#313131"/>
<path d="M382.957 185.197L333.234 214.008V189.831L353.998 170.238L382.957 161.071V185.197Z" fill="#1C1C1C"/>
<path d="M382.958 161.07V149.737L342.183 126.165H322.576L272.802 154.925V166.258L313.576 189.831H333.234L382.958 161.07Z" fill="#272727"/>
<path d="M313.576 214.008L272.802 190.385V166.259L313.576 189.831V214.008Z" fill="#3D3D3D"/>
<path d="M333.134 188.172H314.029L308.197 183.941L324.436 177.544L339.167 183.588L333.134 188.172Z" fill="#313131"/>
<path d="M381.45 160.216L333.134 188.171V185.955L353.295 166.865L381.45 158V160.216Z" fill="#1C1C1C"/>
<path d="M381.45 158V146.969L341.832 124.052H322.727L274.411 152.006V163.037L314.029 185.955H333.134L381.45 158Z" fill="#272727"/>
<path fill-rule="evenodd" clip-rule="evenodd" d="M309.844 146.07C311.187 146.056 312.246 146.667 312.22 147.442L311.768 161.806L323.207 155.202C324.163 154.65 325.712 154.635 326.629 155.165L327.068 155.418C327.404 153.704 328.72 152.019 331.019 150.692C336.286 147.651 344.717 147.569 349.804 150.506C354.853 153.42 354.736 158.258 349.546 161.299L349.391 161.389C344.123 164.385 335.757 164.445 330.709 161.53L324.834 158.139L310.942 166.16C310.232 166.57 309.199 166.704 308.308 166.488C308.011 166.42 307.753 166.331 307.533 166.204L307.508 166.189C307.094 165.936 306.836 165.593 306.862 165.22L307.391 147.487C307.404 147.107 307.675 146.771 308.089 146.518L308.166 146.473C308.605 146.234 309.199 146.07 309.844 146.07ZM346.331 152.511C343.091 150.64 337.732 150.692 334.376 152.63C331.032 154.561 330.941 157.654 334.182 159.525C337.41 161.389 342.768 161.337 346.112 159.406C349.469 157.468 349.559 154.374 346.331 152.511ZM331.832 143.365C333.175 143.35 334.234 143.961 334.195 144.729C334.195 145.116 333.911 145.459 333.459 145.72C333.02 145.974 332.413 146.145 331.742 146.145C329.495 146.175 327.352 146.697 325.725 147.636C324.111 148.568 323.195 149.812 323.156 151.102C323.143 151.497 322.859 151.84 322.407 152.101C321.968 152.354 321.374 152.518 320.69 152.526C319.373 152.541 318.314 151.929 318.327 151.162C318.392 149.112 319.838 147.174 322.381 145.705C324.938 144.229 328.294 143.394 331.832 143.365Z" fill="#757575"/>
<path d="M314.029 188.172L274.411 165.254V163.038L314.029 185.956V188.172Z" fill="#3D3D3D"/>
<path d="M534.317 342.826C534.317 342.297 533.376 285.923 533.376 285.512C533.376 284.807 532.788 284.042 531.907 283.984H531.848C531.436 283.925 531.025 284.101 531.142 284.042C530.79 284.219 530.555 284.513 530.672 284.395C530.319 284.689 530.202 285.101 530.143 285.512L528.909 342.767C528.85 344.883 534.317 344.825 534.317 342.826Z" fill="#262626"/>
<g opacity="0.7">
<path opacity="0.2" d="M532.847 285.217C532.847 285.57 532.553 285.864 532.2 285.864C531.848 285.864 531.554 285.57 531.554 285.217C531.554 284.806 531.848 284.512 532.2 284.512C532.553 284.512 532.847 284.806 532.847 285.217Z" fill="white"/>
<path opacity="0.3" d="M532.788 285.218C532.788 285.512 532.495 285.747 532.201 285.747C531.907 285.747 531.613 285.512 531.613 285.218C531.613 284.865 531.907 284.63 532.201 284.63C532.495 284.63 532.788 284.865 532.788 285.218Z" fill="white"/>
<path opacity="0.5" d="M532.671 285.159C532.671 285.453 532.494 285.629 532.2 285.629C531.965 285.629 531.73 285.453 531.73 285.159C531.73 284.924 531.965 284.688 532.2 284.688C532.494 284.688 532.671 284.924 532.671 285.159Z" fill="white"/>
<path opacity="0.7" d="M532.612 285.158C532.612 285.393 532.435 285.57 532.2 285.57C532.024 285.57 531.848 285.393 531.848 285.158C531.848 284.982 532.024 284.806 532.2 284.806C532.435 284.806 532.612 284.982 532.612 285.158Z" fill="white"/>
<path opacity="0.8" d="M532.494 285.159C532.494 285.335 532.377 285.453 532.2 285.453C532.024 285.453 531.906 285.335 531.906 285.159C531.906 285.041 532.024 284.865 532.2 284.865C532.377 284.865 532.494 285.041 532.494 285.159Z" fill="white"/>
<path d="M532.435 285.159C532.435 285.276 532.318 285.394 532.2 285.394C532.083 285.394 532.024 285.276 532.024 285.159C532.024 285.041 532.083 284.982 532.2 284.982C532.318 284.982 532.435 285.041 532.435 285.159Z" fill="white"/>
</g>
<path d="M544.898 339.77V345.766L540.959 348.058L541.018 342.004L544.898 339.77Z" fill="#232120"/>
<path d="M541.018 342.003L540.96 348.058L530.261 341.886V335.831L541.018 342.003Z" fill="#151515"/>
<path d="M544.898 339.769L541.018 342.002L530.261 335.83C531.26 335.771 532.201 335.536 532.965 335.125C533.67 334.713 534.082 334.125 534.199 333.538L544.898 339.769Z" fill="#313131"/>
<path d="M532.083 339.713C532.083 340.007 531.789 340.124 531.495 339.948C531.201 339.771 530.907 339.36 530.907 339.007C530.907 338.713 531.201 338.596 531.495 338.772C531.789 338.948 532.083 339.36 532.083 339.713Z" fill="#757575"/>
<path d="M484.528 371.634C484.528 371.105 483.646 314.731 483.646 314.379C483.646 313.614 483.058 312.909 482.176 312.792H482.117C481.647 312.792 481.294 312.968 481.412 312.909C481.059 313.085 480.765 313.321 480.883 313.262C480.589 313.497 480.413 313.908 480.413 314.379L479.178 371.634C479.119 373.75 484.528 373.633 484.528 371.634Z" fill="#262626"/>
<g opacity="0.7">
<path opacity="0.2" d="M483.117 314.027C483.117 314.379 482.823 314.673 482.47 314.673C482.059 314.673 481.765 314.379 481.765 314.027C481.765 313.674 482.059 313.38 482.47 313.38C482.823 313.38 483.117 313.674 483.117 314.027Z" fill="white"/>
<path opacity="0.3" d="M482.999 314.026C482.999 314.32 482.764 314.614 482.47 314.614C482.117 314.614 481.882 314.32 481.882 314.026C481.882 313.732 482.117 313.438 482.47 313.438C482.764 313.438 482.999 313.732 482.999 314.026Z" fill="white"/>
<path opacity="0.5" d="M482.94 314.026C482.94 314.261 482.705 314.496 482.47 314.496C482.176 314.496 482 314.261 482 314.026C482 313.791 482.176 313.555 482.47 313.555C482.705 313.555 482.94 313.791 482.94 314.026Z" fill="white"/>
<path opacity="0.7" d="M482.882 314.025C482.882 314.202 482.705 314.378 482.47 314.378C482.235 314.378 482.059 314.202 482.059 314.025C482.059 313.79 482.235 313.614 482.47 313.614C482.705 313.614 482.882 313.79 482.882 314.025Z" fill="white"/>
<path opacity="0.8" d="M482.764 314.026C482.764 314.202 482.646 314.32 482.47 314.32C482.294 314.32 482.176 314.202 482.176 314.026C482.176 313.85 482.294 313.732 482.47 313.732C482.646 313.732 482.764 313.85 482.764 314.026Z" fill="white"/>
<path d="M482.705 314.026C482.705 314.143 482.588 314.202 482.47 314.202C482.352 314.202 482.294 314.143 482.294 314.026C482.294 313.908 482.352 313.791 482.47 313.791C482.588 313.791 482.705 313.908 482.705 314.026Z" fill="white"/>
</g>
<path d="M495.167 368.576L495.108 374.631L491.229 376.865V370.869L495.167 368.576Z" fill="#232120"/>
<path d="M491.229 370.869V376.865L480.471 370.693L480.53 364.697L491.229 370.869Z" fill="#151515"/>
<path d="M495.167 368.577L491.229 370.869L480.53 364.697C481.471 364.638 482.47 364.403 483.175 363.992C483.939 363.521 484.351 362.992 484.41 362.405L495.167 368.577Z" fill="#313131"/>
<path d="M482.293 368.517C482.293 368.811 482.058 368.929 481.764 368.752C481.412 368.576 481.177 368.165 481.177 367.871C481.177 367.518 481.412 367.459 481.764 367.636C482.058 367.812 482.293 368.223 482.293 368.517Z" fill="#757575"/>
<path d="M526.322 399.965V401.376C526.322 401.572 526.264 401.709 526.146 401.787L586.928 366.458C587.085 366.38 587.163 366.223 587.163 365.988V364.577L526.322 399.965Z" fill="#585858"/>
<path d="M586.87 363.461C586.83 363.382 586.791 363.304 586.752 363.225L582.343 354.937C582.226 354.741 582.089 354.545 581.932 354.349C581.736 354.153 581.54 353.977 581.344 353.82L520.503 389.208C520.738 389.325 520.954 389.482 521.15 389.678C521.306 389.874 521.443 390.09 521.561 390.325L525.97 398.554C526.009 398.633 526.048 398.711 526.087 398.79C526.264 399.201 526.323 399.612 526.323 399.965L587.164 364.577C587.164 364.225 587.046 363.872 586.87 363.461Z" fill="#313131"/>
<path d="M525.97 398.555L521.561 390.325C521.267 389.796 520.914 389.384 520.503 389.208L487.525 370.162C487.173 369.927 486.82 370.103 486.82 370.515V378.509C486.82 378.98 487.114 379.509 487.525 379.744L525.617 401.729C526.028 401.964 526.322 401.788 526.322 401.376V399.965C526.322 399.495 526.205 399.025 525.97 398.555Z" fill="#3D3D3D"/>
<path d="M488.583 378.333V372.748L519.621 390.677C519.739 390.736 519.856 390.912 519.974 391.148L524.089 398.848L488.583 378.333Z" fill="#313131"/>
<g style="mix-blend-mode:multiply" opacity="0.2">
<path d="M489.171 377.98V373.101L488.583 372.748V378.333L524.089 398.848L523.559 397.849L489.171 377.98Z" fill="#B1B1B1"/>
</g>
<path d="M581.344 353.82L548.366 334.774C548.17 334.696 547.994 334.696 547.837 334.774L487.055 370.103C487.172 370.025 487.329 370.044 487.525 370.162L520.503 389.208C520.738 389.325 520.953 389.482 521.149 389.678L581.932 354.349C581.736 354.153 581.54 353.977 581.344 353.82Z" fill="#272727"/>
<path opacity="0.3" d="M526.322 399.965L587.163 364.577C587.163 364.342 587.105 364.087 586.987 363.813L526.146 398.966C526.264 399.318 526.322 399.612 526.322 399.965Z" fill="black"/>
<path d="M521.561 384.918C521.972 384.976 522.208 385.211 522.09 385.447C521.972 385.682 521.561 385.799 521.149 385.741C520.738 385.682 520.503 385.447 520.62 385.211C520.738 384.976 521.149 384.8 521.561 384.918Z" fill="#757575"/>
<path d="M521.502 385.094C521.796 385.094 522.031 385.329 521.914 385.506C521.855 385.682 521.502 385.8 521.208 385.741C520.856 385.682 520.679 385.506 520.797 385.329C520.856 385.153 521.208 385.035 521.502 385.094Z" fill="#757575"/>
<path d="M524.383 383.271C524.794 383.33 525.029 383.565 524.912 383.8C524.794 384.036 524.383 384.212 523.971 384.153C523.56 384.094 523.325 383.8 523.442 383.565C523.56 383.33 523.971 383.213 524.383 383.271Z" fill="#757575"/>
<path d="M524.324 383.448C524.618 383.507 524.794 383.684 524.735 383.86C524.677 384.036 524.324 384.154 524.03 384.095C523.677 384.036 523.501 383.86 523.619 383.684C523.677 383.507 523.971 383.39 524.324 383.448Z" fill="#757575"/>
<path d="M527.204 381.625C527.616 381.684 527.851 381.978 527.733 382.213C527.616 382.448 527.204 382.566 526.793 382.507C526.381 382.448 526.146 382.213 526.205 381.978C526.323 381.743 526.793 381.566 527.204 381.625Z" fill="#757575"/>
<path d="M527.146 381.801C527.439 381.86 527.616 382.036 527.557 382.213C527.439 382.448 527.146 382.507 526.793 382.507C526.499 382.448 526.323 382.271 526.381 382.036C526.499 381.86 526.793 381.742 527.146 381.801Z" fill="#757575"/>
<path d="M529.967 380.038C530.379 380.097 530.673 380.332 530.555 380.567C530.437 380.802 530.026 380.92 529.614 380.861C529.203 380.802 528.909 380.567 529.027 380.332C529.144 380.097 529.556 379.979 529.967 380.038Z" fill="#757575"/>
<path d="M529.967 380.215C530.261 380.274 530.437 380.45 530.379 380.626C530.261 380.803 529.967 380.92 529.614 380.862C529.32 380.803 529.144 380.626 529.203 380.45C529.32 380.274 529.614 380.156 529.967 380.215Z" fill="#757575"/>
<path d="M532.788 378.392C533.2 378.451 533.435 378.686 533.376 378.921C533.259 379.157 532.847 379.333 532.377 379.274C531.965 379.215 531.73 378.921 531.848 378.686C531.965 378.451 532.377 378.334 532.788 378.392Z" fill="#757575"/>
<path d="M532.729 378.569C533.082 378.628 533.258 378.805 533.2 378.981C533.082 379.157 532.788 379.275 532.435 379.216C532.142 379.157 531.965 378.981 532.024 378.805C532.142 378.628 532.435 378.511 532.729 378.569Z" fill="#757575"/>
<path d="M535.61 376.746C536.022 376.805 536.257 377.099 536.139 377.334C536.08 377.569 535.61 377.687 535.199 377.628C534.787 377.569 534.552 377.334 534.67 377.099C534.787 376.864 535.199 376.687 535.61 376.746Z" fill="#757575"/>
<path d="M535.552 376.922C535.904 376.981 536.081 377.157 535.963 377.392C535.904 377.569 535.552 377.686 535.258 377.628C534.964 377.569 534.729 377.392 534.846 377.216C534.905 376.981 535.258 376.922 535.552 376.922Z" fill="#757575"/>
<path d="M538.432 375.159C538.843 375.218 539.078 375.453 538.961 375.688C538.843 375.923 538.432 376.1 538.02 375.982C537.609 375.923 537.374 375.688 537.491 375.453C537.609 375.218 538.02 375.1 538.432 375.159Z" fill="#757575"/>
<path d="M538.373 375.336C538.726 375.395 538.902 375.571 538.785 375.748C538.726 375.924 538.373 376.041 538.079 375.983C537.785 375.924 537.55 375.748 537.668 375.571C537.726 375.395 538.079 375.277 538.373 375.336Z" fill="#757575"/>
<path opacity="0.5" fill-rule="evenodd" clip-rule="evenodd" d="M543.84 362.933C542.547 365.754 537.432 367.459 532.495 366.695C527.557 365.931 524.618 362.992 525.97 360.17C527.263 357.29 532.377 355.585 537.315 356.349C542.253 357.113 545.192 360.052 543.84 362.933ZM536.845 357.348C532.847 356.761 528.733 358.113 527.674 360.405C526.616 362.698 528.968 365.049 532.965 365.696C536.962 366.283 541.018 364.931 542.135 362.639C543.193 360.346 540.842 357.995 536.845 357.348Z" fill="#757575"/>
<path d="M219.83 291.118L139.115 244.526C138.177 243.923 137.171 243.856 136.366 244.191V244.124L136.232 244.191C136.188 244.191 136.165 244.191 136.165 244.191L133.283 245.331L135.897 246.604C135.853 246.649 135.83 246.694 135.83 246.738L121.551 311.632C120.88 314.649 122.221 318.135 124.501 319.409L203.271 364.928L203.003 368.28L206.221 367.006C207.294 366.537 208.098 365.397 208.5 363.788L222.713 298.895C223.383 295.945 222.109 292.392 219.83 291.118Z" fill="black"/>
<path d="M219.83 291.118L139.115 244.526C138.177 243.923 137.171 243.856 136.366 244.191V244.124L136.232 244.191C136.188 244.191 136.165 244.191 136.165 244.191L133.283 245.331L135.897 246.604C135.853 246.649 135.83 246.694 135.83 246.738L126.042 291.252L165.528 322.023L222.377 294.336C221.841 292.928 220.903 291.722 219.83 291.118Z" fill="#3D3D3D"/>
<path d="M216.746 300.303L222.914 297.689C223.048 295.275 222.042 292.862 220.433 291.521L210.713 295.61L216.746 300.303Z" fill="#313131"/>
<path d="M200.188 367.945L119.473 321.353C117.193 320.012 115.853 316.526 116.523 313.509L130.802 248.683C131.473 245.666 133.819 244.325 136.165 245.599L216.88 292.258C219.16 293.532 220.433 297.018 219.763 300.035L205.551 364.928C204.88 367.878 202.467 369.286 200.188 367.945Z" fill="#272727"/>
<path d="M217.618 291.922L136.903 245.33C135.83 244.726 134.69 244.726 133.752 245.196C134.489 245.062 135.294 245.129 136.165 245.598L216.88 292.257C219.16 293.531 220.433 297.017 219.763 300.034L205.551 364.927C205.216 366.469 204.411 367.542 203.405 368.078C204.746 367.81 205.886 366.536 206.288 364.592L220.567 299.765C221.238 296.749 219.897 293.263 217.618 291.922Z" fill="#585858"/>
<path d="M198.445 363.52L122.557 319.676C120.478 318.47 119.272 315.252 119.875 312.503L133.015 252.772C133.618 250.023 135.763 248.749 137.842 249.956L213.797 293.799C215.875 295.006 217.082 298.157 216.478 300.906L203.339 360.704C202.735 363.453 200.523 364.66 198.445 363.52Z" fill="#585858"/>
<path d="M198.445 363.52L122.557 319.676C120.478 318.47 119.272 315.252 119.875 312.503L133.015 252.772C133.618 250.023 135.763 248.749 137.842 249.956L213.797 293.799C215.875 295.006 217.082 298.157 216.478 300.906L203.339 360.704C202.735 363.453 200.523 364.66 198.445 363.52Z" fill="black"/>
<path d="M199.115 363.186L123.227 319.409C121.082 318.202 119.875 314.985 120.478 312.236L133.685 252.504C133.953 251.096 134.691 250.091 135.562 249.622C134.356 249.89 133.35 251.029 133.015 252.772L119.875 312.504C119.272 315.253 120.478 318.471 122.557 319.677L198.445 363.521C199.517 364.057 200.523 364.057 201.394 363.588C200.724 363.789 199.92 363.655 199.115 363.186Z" fill="#3D3D3D"/>
<path d="M201.327 369.957L190.266 368.482L119.071 327.387C116.791 326.046 112.769 326.247 110.154 327.789L59.674 356.884L53.0371 356.012V359.767C52.9701 360.638 53.4394 361.51 54.579 362.113L135.294 408.705C137.573 410.046 141.529 409.912 144.21 408.37L199.115 376.66C200.657 375.789 201.394 374.716 201.327 373.644V369.957Z" fill="#1C1C1C"/>
<path d="M147.83 344.012L142.735 341.062H87.0929L59.674 356.884L53.0371 356.012V359.766C52.9701 360.638 53.4394 361.509 54.579 362.113L135.294 408.705C136.501 409.442 138.177 409.71 139.853 409.576L147.83 344.012Z" fill="#3D3D3D"/>
<path d="M55.9868 356.415L53.0371 356.012V359.767C52.9701 360.638 53.4394 361.51 54.579 362.113L55.9868 362.985V356.415Z" fill="#3D3D3D"/>
<path d="M136.099 409.107C138.244 409.911 141.328 409.777 143.674 408.638V400.191H136.099V409.107Z" fill="#313131"/>
<path d="M135.294 404.95L54.579 358.358C52.2327 357.017 52.5679 354.738 55.1824 353.196L110.154 321.487C112.769 319.945 116.791 319.811 119.071 321.085L199.785 367.744C202.065 369.017 201.797 371.364 199.115 372.839L144.21 404.615C141.529 406.09 137.573 406.291 135.294 404.95Z" fill="#272727"/>
<path d="M199.115 371.498L144.21 403.207C141.529 404.749 137.573 404.883 135.294 403.542L54.579 356.95C53.7745 356.548 53.3053 356.012 53.1041 355.408C52.769 356.481 53.2382 357.553 54.579 358.358L135.294 404.95C137.573 406.291 141.529 406.09 144.21 404.615L199.115 372.838C200.925 371.833 201.595 370.492 201.193 369.285C200.925 370.09 200.255 370.827 199.115 371.498Z" fill="#585858"/>
<path d="M88.903 342.939L85.2159 340.793C84.9477 340.659 84.9477 340.324 85.2829 340.123L89.6405 337.643C89.9757 337.441 90.4449 337.441 90.7801 337.643L94.4002 339.721C94.7354 339.922 94.6684 340.19 94.3332 340.391L90.0427 342.872C89.7075 343.073 89.1712 343.073 88.903 342.939Z" fill="#3D3D3D"/>
<path d="M94.5342 346.157L90.847 344.078C90.5789 343.877 90.5789 343.609 90.9811 343.408L95.2716 340.928C95.6068 340.726 96.1431 340.726 96.4113 340.861L100.031 343.006C100.367 343.14 100.3 343.475 99.9644 343.609L95.6738 346.157C95.3386 346.358 94.8023 346.358 94.5342 346.157Z" fill="#3D3D3D"/>
<path d="M100.166 349.441L96.4784 347.296C96.2103 347.162 96.2773 346.827 96.6125 346.693L100.903 344.145C101.238 344.011 101.775 343.944 102.043 344.145L105.73 346.223C105.998 346.425 105.931 346.693 105.596 346.894L101.305 349.374C100.97 349.575 100.434 349.575 100.166 349.441Z" fill="#3D3D3D"/>
<path d="M107.942 346.76L104.322 344.614C103.987 344.48 104.054 344.145 104.389 343.944L108.009 341.866C108.344 341.665 108.881 341.665 109.149 341.866L112.836 343.944C113.104 344.145 113.037 344.413 112.702 344.614L109.082 346.692C108.746 346.894 108.277 346.894 107.942 346.76Z" fill="#3D3D3D"/>
<path d="M113.573 349.977L109.953 347.899C109.685 347.698 109.685 347.43 110.02 347.229L113.64 345.15C113.976 344.949 114.512 344.949 114.78 345.083L118.467 347.229C118.735 347.363 118.735 347.698 118.333 347.832L114.713 349.977C114.378 350.178 113.908 350.178 113.573 349.977Z" fill="#3D3D3D"/>
<path d="M119.272 353.262L115.585 351.117C115.317 350.983 115.317 350.715 115.652 350.514L119.272 348.368C119.607 348.234 120.143 348.167 120.411 348.368L124.099 350.447C124.367 350.648 124.367 350.916 124.032 351.117L120.411 353.195C120.076 353.396 119.54 353.396 119.272 353.262Z" fill="#3D3D3D"/>
<path d="M124.903 356.481L121.216 354.403C120.947 354.269 120.947 353.934 121.283 353.733L124.903 351.654C125.238 351.453 125.774 351.453 126.042 351.587L129.73 353.733C129.998 353.867 129.998 354.202 129.663 354.403L126.042 356.481C125.707 356.682 125.171 356.682 124.903 356.481Z" fill="#3D3D3D"/>
<path d="M130.534 359.766L126.847 357.688C126.579 357.486 126.646 357.218 126.981 357.017L130.601 354.939C130.936 354.738 131.406 354.671 131.741 354.872L135.361 356.95C135.629 357.151 135.629 357.419 135.294 357.621L131.674 359.699C131.339 359.9 130.802 359.967 130.534 359.766Z" fill="#3D3D3D"/>
<path d="M136.166 363.051L132.478 360.906C132.21 360.772 132.277 360.436 132.613 360.235L136.233 358.157C136.568 357.956 137.037 357.956 137.372 358.09L140.992 360.235C141.328 360.369 141.261 360.705 140.925 360.906L137.305 362.984C136.97 363.185 136.434 363.185 136.166 363.051Z" fill="#3D3D3D"/>
<path d="M141.797 366.269L138.177 364.19C137.841 363.989 137.908 363.721 138.244 363.52L141.864 361.442C142.199 361.241 142.735 361.174 143.003 361.375L146.623 363.453C146.959 363.654 146.892 363.922 146.556 364.123L142.936 366.202C142.601 366.403 142.065 366.47 141.797 366.269Z" fill="#3D3D3D"/>
<path d="M147.428 369.553L143.808 367.408C143.473 367.274 143.54 366.938 143.875 366.737L147.495 364.659C147.83 364.458 148.367 364.458 148.635 364.659L152.255 366.737C152.59 366.938 152.523 367.207 152.188 367.408L148.568 369.486C148.232 369.687 147.763 369.687 147.428 369.553Z" fill="#3D3D3D"/>
<path d="M153.059 372.771L149.439 370.693C149.104 370.492 149.171 370.224 149.506 370.022L153.126 367.944C153.461 367.743 153.998 367.743 154.266 367.877L157.953 370.022C158.221 370.156 158.154 370.492 157.819 370.626L154.199 372.771C153.864 372.972 153.394 372.972 153.059 372.771Z" fill="#3D3D3D"/>
<path d="M158.69 376.056L155.07 373.911C154.802 373.777 154.802 373.508 155.137 373.307L158.758 371.162C159.093 371.028 159.629 370.961 159.897 371.162L163.584 373.24C163.853 373.441 163.852 373.71 163.517 373.911L159.897 375.989C159.495 376.19 159.026 376.19 158.69 376.056Z" fill="#3D3D3D"/>
<path d="M116.255 345.218L112.635 343.073C112.3 342.939 112.367 342.604 112.702 342.402L116.322 340.324C116.657 340.123 117.193 340.123 117.462 340.324L121.149 342.402C121.417 342.604 121.35 342.872 121.015 343.073L117.395 345.151C117.059 345.352 116.59 345.352 116.255 345.218Z" fill="#3D3D3D"/>
<path d="M110.557 341.867L106.869 339.788C106.601 339.587 106.668 339.319 107.004 339.118L110.624 337.04C110.959 336.839 111.428 336.839 111.763 336.973L115.383 339.118C115.719 339.252 115.652 339.587 115.316 339.788L111.696 341.867C111.361 342.068 110.825 342.068 110.557 341.867Z" fill="#3D3D3D"/>
<path d="M104.791 338.582L96.9477 334.023C96.6796 333.889 96.6795 333.554 97.0147 333.353L100.635 331.274C100.97 331.073 101.506 331.073 101.775 331.274L109.685 335.766C109.953 335.967 109.886 336.235 109.551 336.436L105.931 338.515C105.596 338.716 105.126 338.783 104.791 338.582Z" fill="#3D3D3D"/>
<path d="M108.814 334.558L102.445 330.871C102.177 330.737 102.177 330.402 102.512 330.201L106.132 328.122C106.467 327.921 107.004 327.921 107.272 328.055L113.64 331.743C113.976 331.944 113.909 332.212 113.573 332.413L109.953 334.491C109.618 334.692 109.082 334.759 108.814 334.558Z" fill="#3D3D3D"/>
<path d="M121.886 348.436L118.266 346.358C117.998 346.157 117.998 345.889 118.333 345.687L121.953 343.609C122.288 343.408 122.825 343.408 123.093 343.542L126.78 345.687C127.048 345.822 126.981 346.157 126.646 346.291L123.026 348.436C122.691 348.637 122.221 348.637 121.886 348.436Z" fill="#3D3D3D"/>
<path d="M127.584 351.72L123.897 349.575C123.629 349.441 123.629 349.173 123.964 348.971L127.584 346.826C127.92 346.692 128.456 346.625 128.724 346.826L132.411 348.904C132.679 349.105 132.679 349.374 132.344 349.575L128.724 351.653C128.389 351.854 127.853 351.854 127.584 351.72Z" fill="#3D3D3D"/>
<path d="M133.216 354.939L129.529 352.861C129.26 352.727 129.26 352.391 129.596 352.19L133.216 350.112C133.551 349.911 134.087 349.911 134.355 350.045L138.042 352.19C138.311 352.324 138.311 352.66 137.975 352.861L134.355 354.939C134.02 355.14 133.484 355.14 133.216 354.939Z" fill="#3D3D3D"/>
<path d="M138.847 358.225L135.16 356.146C134.892 355.945 134.892 355.677 135.294 355.476L138.914 353.398C139.249 353.197 139.719 353.13 140.054 353.331L143.674 355.409C143.942 355.61 143.942 355.878 143.607 356.079L139.987 358.157C139.652 358.359 139.115 358.426 138.847 358.225Z" fill="#3D3D3D"/>
<path d="M144.478 361.509L140.791 359.363C140.523 359.229 140.59 358.894 140.925 358.693L144.545 356.615C144.88 356.414 145.35 356.414 145.685 356.548L149.305 358.693C149.64 358.827 149.573 359.162 149.238 359.363L145.618 361.442C145.283 361.643 144.746 361.643 144.478 361.509Z" fill="#3D3D3D"/>
<path d="M150.11 364.726L146.489 362.648C146.154 362.446 146.221 362.178 146.556 361.977L150.177 359.899C150.512 359.698 150.981 359.698 151.316 359.832L154.936 361.91C155.272 362.111 155.204 362.379 154.869 362.581L151.249 364.726C150.914 364.86 150.378 364.927 150.11 364.726Z" fill="#3D3D3D"/>
<path d="M155.741 368.012L152.121 365.866C151.785 365.732 151.852 365.397 152.188 365.196L155.808 363.118C156.143 362.917 156.679 362.917 156.947 363.118L160.568 365.196C160.903 365.397 160.836 365.665 160.501 365.866L156.88 367.945C156.545 368.146 156.076 368.146 155.741 368.012Z" fill="#3D3D3D"/>
<path d="M161.372 371.23L157.752 369.152C157.417 368.95 157.484 368.682 157.819 368.481L161.439 366.403C161.774 366.202 162.311 366.202 162.579 366.336L166.266 368.481C166.534 368.615 166.467 368.95 166.132 369.084L162.512 371.23C162.177 371.431 161.707 371.431 161.372 371.23Z" fill="#3D3D3D"/>
<path d="M167.003 374.514L163.383 372.368C163.115 372.234 163.115 371.966 163.45 371.765L167.07 369.62C167.405 369.486 167.942 369.419 168.21 369.62L171.897 371.698C172.165 371.899 172.165 372.167 171.763 372.368L168.21 374.447C167.808 374.648 167.338 374.648 167.003 374.514Z" fill="#3D3D3D"/>
<path d="M177.059 380.279L169.082 375.721C168.813 375.519 168.813 375.251 169.149 375.05L172.769 372.972C173.104 372.771 173.64 372.704 173.908 372.905L181.886 377.531C182.221 377.665 182.154 377.933 181.819 378.134L178.199 380.279C177.864 380.413 177.327 380.48 177.059 380.279Z" fill="#3D3D3D"/>
<path d="M188.054 373.977L181.283 370.089C181.015 369.887 181.082 369.619 181.417 369.418L185.037 367.34C185.372 367.139 185.841 367.139 186.177 367.273L192.881 371.161C193.149 371.362 193.149 371.63 192.813 371.832L189.193 373.91C188.858 374.111 188.322 374.111 188.054 373.977Z" fill="#3D3D3D"/>
<path d="M131.808 347.833L128.121 345.688C127.853 345.554 127.853 345.219 128.188 345.085L131.808 342.939C132.143 342.738 132.68 342.738 133.015 342.939L136.635 345.018C136.903 345.219 136.903 345.487 136.568 345.688L132.948 347.766C132.613 347.967 132.076 347.967 131.808 347.833Z" fill="#3D3D3D"/>
<path d="M125.976 344.48L122.355 342.402C122.087 342.201 122.087 341.933 122.422 341.732L126.043 339.654C126.378 339.452 126.914 339.385 127.182 339.587L130.869 341.665C131.138 341.866 131.138 342.134 130.802 342.335L127.182 344.413C126.847 344.614 126.311 344.681 125.976 344.48Z" fill="#3D3D3D"/>
<path d="M120.21 341.128L116.59 339.05C116.255 338.849 116.322 338.581 116.657 338.38L120.277 336.301C120.612 336.1 121.149 336.1 121.417 336.234L125.104 338.38C125.372 338.514 125.305 338.782 124.97 338.983L121.35 341.128C121.015 341.262 120.545 341.329 120.21 341.128Z" fill="#3D3D3D"/>
<path d="M114.445 337.777L110.825 335.698C110.49 335.564 110.557 335.229 110.892 335.028L114.512 332.95C114.847 332.749 115.316 332.749 115.652 332.883L119.272 335.028C119.607 335.162 119.54 335.497 119.205 335.698L115.585 337.777C115.249 337.978 114.713 337.978 114.445 337.777Z" fill="#3D3D3D"/>
<path d="M137.439 351.05L133.752 348.972C133.484 348.771 133.551 348.503 133.886 348.302L137.506 346.223C137.841 346.022 138.311 346.022 138.646 346.156L142.266 348.302C142.534 348.436 142.534 348.771 142.199 348.972L138.579 351.05C138.244 351.251 137.707 351.251 137.439 351.05Z" fill="#3D3D3D"/>
<path d="M143.071 354.335L139.451 352.257C139.115 352.056 139.182 351.788 139.518 351.587L143.138 349.508C143.473 349.307 143.942 349.24 144.277 349.441L147.898 351.519C148.233 351.721 148.166 351.989 147.83 352.19L144.21 354.268C143.875 354.469 143.339 354.536 143.071 354.335Z" fill="#3D3D3D"/>
<path d="M148.702 357.62L145.082 355.475C144.747 355.341 144.814 355.006 145.149 354.805L148.769 352.726C149.104 352.525 149.64 352.525 149.909 352.659L153.529 354.805C153.864 354.939 153.797 355.274 153.462 355.475L149.842 357.553C149.506 357.754 148.97 357.754 148.702 357.62Z" fill="#3D3D3D"/>
<path d="M154.333 360.839L150.713 358.761C150.378 358.559 150.445 358.291 150.78 358.09L154.4 356.012C154.735 355.811 155.272 355.744 155.54 355.945L159.227 358.023C159.495 358.224 159.428 358.492 159.093 358.694L155.473 360.772C155.138 360.973 154.668 361.04 154.333 360.839Z" fill="#3D3D3D"/>
<path d="M159.964 364.123L156.344 361.978C156.076 361.844 156.076 361.509 156.411 361.307L160.031 359.229C160.366 359.028 160.903 359.028 161.171 359.229L164.858 361.307C165.126 361.509 165.059 361.777 164.724 361.978L161.104 364.056C160.769 364.257 160.299 364.257 159.964 364.123Z" fill="#3D3D3D"/>
<path d="M165.663 367.341L161.976 365.263C161.707 365.062 161.707 364.794 162.043 364.592L165.663 362.514C165.998 362.313 166.534 362.313 166.802 362.447L170.489 364.592C170.758 364.727 170.758 364.995 170.422 365.196L166.802 367.341C166.467 367.475 165.931 367.542 165.663 367.341Z" fill="#3D3D3D"/>
<path d="M171.294 370.626L167.607 368.481C167.339 368.347 167.339 368.011 167.674 367.877L171.294 365.732C171.629 365.531 172.165 365.531 172.434 365.732L176.121 367.81C176.389 368.011 176.389 368.28 176.054 368.481L172.434 370.559C172.098 370.76 171.562 370.76 171.294 370.626Z" fill="#3D3D3D"/>
<path d="M176.925 373.844L173.238 371.766C172.97 371.565 172.97 371.296 173.372 371.095L176.992 369.017C177.328 368.816 177.797 368.816 178.132 368.95L181.752 371.095C182.02 371.229 182.02 371.565 181.685 371.766L178.065 373.844C177.73 374.045 177.194 374.045 176.925 373.844Z" fill="#3D3D3D"/>
<path d="M182.556 377.129L178.869 375.05C178.601 374.849 178.668 374.581 179.003 374.38L182.624 372.302C182.959 372.101 183.428 372.034 183.763 372.235L187.383 374.313C187.718 374.514 187.651 374.782 187.316 374.983L183.696 377.062C183.361 377.263 182.825 377.33 182.556 377.129Z" fill="#3D3D3D"/>
<path d="M128.791 339.788L125.171 337.643C124.903 337.509 124.903 337.174 125.238 336.972L128.858 334.894C129.193 334.693 129.73 334.693 129.998 334.894L133.685 336.972C133.953 337.107 133.953 337.442 133.551 337.643L129.931 339.721C129.596 339.922 129.126 339.922 128.791 339.788Z" fill="#3D3D3D"/>
<path d="M123.227 336.503L119.54 334.425C119.272 334.224 119.272 333.956 119.607 333.755L123.227 331.676C123.562 331.475 124.098 331.475 124.367 331.609L128.054 333.755C128.322 333.889 128.322 334.224 127.987 334.358L124.367 336.503C124.031 336.704 123.495 336.704 123.227 336.503Z" fill="#3D3D3D"/>
<path d="M117.596 333.285L113.976 331.207C113.64 331.006 113.707 330.738 114.043 330.536L117.663 328.458C117.998 328.257 118.467 328.19 118.802 328.391L122.423 330.469C122.758 330.671 122.691 330.939 122.355 331.14L118.735 333.218C118.4 333.419 117.864 333.486 117.596 333.285Z" fill="#3D3D3D"/>
<path d="M111.964 330.067L108.344 327.922C108.009 327.788 108.076 327.453 108.411 327.252L112.031 325.174C112.367 324.972 112.903 324.972 113.171 325.174L116.858 327.252C117.126 327.386 117.059 327.721 116.724 327.922L113.104 330C112.769 330.201 112.3 330.201 111.964 330.067Z" fill="#3D3D3D"/>
<path d="M117.73 326.715L114.11 324.637C113.841 324.436 113.841 324.168 114.177 323.967L115.383 323.229C115.719 323.028 116.255 323.028 116.523 323.229L120.143 325.308C120.478 325.509 120.411 325.777 120.076 325.978L118.869 326.648C118.534 326.85 118.065 326.917 117.73 326.715Z" fill="#3D3D3D"/>
<path d="M125.104 330.939L121.417 328.86C121.149 328.659 121.149 328.391 121.484 328.19L122.691 327.453C123.026 327.319 123.562 327.251 123.83 327.453L127.517 329.531C127.786 329.732 127.786 330 127.45 330.201L126.244 330.872C125.908 331.073 125.372 331.14 125.104 330.939Z" fill="#3D3D3D"/>
<path d="M130.668 334.156L126.981 332.078C126.713 331.877 126.78 331.609 127.115 331.407L128.322 330.737C128.657 330.536 129.127 330.469 129.462 330.67L133.082 332.748C133.35 332.949 133.35 333.217 133.015 333.419L131.808 334.089C131.473 334.29 130.937 334.357 130.668 334.156Z" fill="#3D3D3D"/>
<path d="M136.233 337.375L132.613 335.296C132.277 335.095 132.344 334.827 132.68 334.626L133.886 333.956C134.222 333.754 134.758 333.687 135.026 333.889L138.646 335.967C138.981 336.168 138.914 336.436 138.579 336.637L137.372 337.375C137.037 337.576 136.568 337.576 136.233 337.375Z" fill="#3D3D3D"/>
<path d="M141.864 340.592L138.177 338.514C137.908 338.313 137.908 338.044 138.244 337.843L139.45 337.173C139.786 336.972 140.322 336.972 140.59 337.106L144.277 339.251C144.545 339.385 144.545 339.72 144.21 339.854L143.003 340.592C142.668 340.793 142.132 340.793 141.864 340.592Z" fill="#3D3D3D"/>
<path d="M173.037 358.626L169.417 356.548C169.082 356.347 169.149 356.079 169.484 355.877L170.691 355.207C171.026 355.006 171.495 354.939 171.83 355.14L175.45 357.218C175.786 357.419 175.719 357.687 175.383 357.889L174.177 358.559C173.841 358.76 173.305 358.827 173.037 358.626Z" fill="#3D3D3D"/>
<path d="M178.601 361.844L174.981 359.766C174.713 359.564 174.713 359.296 175.048 359.095L176.255 358.425C176.59 358.224 177.126 358.157 177.394 358.358L181.082 360.436C181.35 360.637 181.283 360.905 180.947 361.106L179.808 361.844C179.473 362.045 178.936 362.045 178.601 361.844Z" fill="#3D3D3D"/>
<path d="M184.232 365.062L180.545 362.984C180.277 362.783 180.344 362.514 180.679 362.313L181.819 361.643C182.154 361.442 182.69 361.442 183.026 361.576L186.646 363.721C186.914 363.855 186.914 364.19 186.579 364.324L185.372 365.062C185.037 365.263 184.5 365.263 184.232 365.062Z" fill="#3D3D3D"/>
<path d="M189.797 368.346L186.177 366.201C185.841 366.067 185.909 365.732 186.244 365.531L187.45 364.86C187.786 364.659 188.255 364.659 188.59 364.793L192.21 366.939C192.545 367.073 192.478 367.408 192.143 367.609L190.936 368.279C190.601 368.481 190.132 368.481 189.797 368.346Z" fill="#3D3D3D"/>
<path d="M134.489 343.005L130.802 340.927C130.534 340.726 130.534 340.458 130.869 340.257L134.489 338.178C134.825 337.977 135.361 337.977 135.629 338.111L139.316 340.257C139.584 340.391 139.584 340.659 139.249 340.86L135.629 343.005C135.294 343.139 134.758 343.206 134.489 343.005Z" fill="#3D3D3D"/>
<path d="M140.121 346.291L136.434 344.146C136.165 344.011 136.165 343.676 136.501 343.542L140.121 341.397C140.456 341.196 140.992 341.196 141.26 341.397L144.947 343.475C145.216 343.676 145.216 343.944 144.88 344.146L141.26 346.224C140.925 346.425 140.389 346.425 140.121 346.291Z" fill="#3D3D3D"/>
<path d="M145.752 349.509L142.065 347.431C141.797 347.229 141.864 346.961 142.199 346.76L145.819 344.682C146.154 344.481 146.624 344.481 146.959 344.615L150.579 346.76C150.847 346.894 150.847 347.229 150.512 347.431L146.892 349.509C146.557 349.71 146.02 349.71 145.752 349.509Z" fill="#3D3D3D"/>
<path d="M151.383 352.794L147.696 350.715C147.428 350.514 147.495 350.246 147.83 350.045L151.45 347.967C151.786 347.766 152.255 347.699 152.59 347.9L156.21 349.978C156.545 350.179 156.478 350.447 156.143 350.648L152.523 352.727C152.188 352.928 151.652 352.995 151.383 352.794Z" fill="#3D3D3D"/>
<path d="M157.015 356.079L153.394 353.933C153.059 353.799 153.126 353.464 153.461 353.263L157.082 351.185C157.417 350.984 157.886 350.984 158.221 351.118L161.841 353.263C162.177 353.397 162.11 353.732 161.774 353.933L158.154 356.012C157.819 356.213 157.283 356.213 157.015 356.079Z" fill="#3D3D3D"/>
<path d="M162.646 359.297L159.026 357.218C158.691 357.017 158.758 356.749 159.093 356.548L162.713 354.47C163.048 354.269 163.585 354.202 163.853 354.403L167.473 356.481C167.808 356.682 167.741 356.95 167.406 357.151L163.786 359.229C163.45 359.431 162.981 359.498 162.646 359.297Z" fill="#3D3D3D"/>
<path d="M168.277 362.582L164.657 360.437C164.322 360.302 164.389 359.967 164.724 359.766L168.344 357.688C168.679 357.487 169.216 357.487 169.484 357.688L173.171 359.766C173.439 359.967 173.372 360.235 173.037 360.437L169.417 362.515C169.082 362.716 168.612 362.716 168.277 362.582Z" fill="#3D3D3D"/>
<path d="M173.909 365.799L170.288 363.721C170.02 363.519 170.02 363.251 170.355 363.05L173.976 360.972C174.311 360.771 174.847 360.771 175.115 360.905L178.802 363.05C179.07 363.184 179.071 363.452 178.735 363.654L175.115 365.799C174.713 365.933 174.244 366 173.909 365.799Z" fill="#3D3D3D"/>
<path d="M179.607 369.084L175.92 366.938C175.651 366.804 175.651 366.469 175.987 366.335L179.607 364.19C179.942 363.989 180.478 363.989 180.746 364.19L184.434 366.268C184.702 366.469 184.702 366.737 184.367 366.938L180.746 369.017C180.411 369.218 179.875 369.218 179.607 369.084Z" fill="#3D3D3D"/>
<path d="M102.244 343.408L91.4505 337.24C91.1824 337.039 91.1824 336.771 91.5176 336.57L95.1377 334.492C95.4729 334.291 96.0092 334.224 96.2773 334.425L107.071 340.659C107.339 340.793 107.339 341.062 107.004 341.263L103.383 343.408C103.048 343.542 102.512 343.609 102.244 343.408Z" fill="#3D3D3D"/>
<path d="M171.495 383.43L160.769 377.196C160.434 377.062 160.501 376.727 160.836 376.592L164.456 374.447C164.791 374.246 165.328 374.246 165.596 374.447L176.322 380.615C176.657 380.816 176.59 381.084 176.255 381.285L172.635 383.363C172.3 383.565 171.83 383.632 171.495 383.43Z" fill="#3D3D3D"/>
<path d="M148.97 377.598L145.283 375.52C145.015 375.319 145.015 375.051 145.35 374.85L149.707 372.369C150.042 372.168 150.512 372.101 150.847 372.302L154.467 374.381C154.802 374.582 154.735 374.85 154.4 375.051L150.109 377.531C149.774 377.732 149.238 377.8 148.97 377.598Z" fill="#3D3D3D"/>
<path d="M108.009 353.933L102.177 350.581C101.841 350.38 101.908 350.112 102.244 349.911L106.534 347.43C106.869 347.229 107.406 347.229 107.674 347.363L113.506 350.782C113.841 350.916 113.774 351.251 113.439 351.386L109.149 353.933C108.813 354.134 108.277 354.134 108.009 353.933Z" fill="#3D3D3D"/>
<path d="M143.54 374.447L137.64 371.095C137.372 370.894 137.439 370.626 137.774 370.425L142.065 367.944C142.4 367.743 142.936 367.743 143.204 367.877L149.037 371.296C149.372 371.43 149.305 371.698 148.97 371.899L144.679 374.447C144.344 374.581 143.808 374.648 143.54 374.447Z" fill="#3D3D3D"/>
<path d="M116.121 358.626L110.288 355.274C110.02 355.14 110.02 354.804 110.355 354.603L114.646 352.123C115.048 351.922 115.517 351.922 115.853 352.056L121.685 355.475C121.953 355.609 121.953 355.944 121.551 356.145L117.26 358.626C116.925 358.827 116.389 358.827 116.121 358.626Z" fill="#3D3D3D"/>
<path d="M115.853 352.123L141.26 366.738C141.596 366.939 141.596 367.274 141.26 367.408L136.836 369.955C136.568 370.157 136.031 370.157 135.696 369.955L110.355 355.274L115.853 352.123Z" fill="#3D3D3D"/>
<path d="M164.724 383.497L168.814 385.844C169.015 385.978 169.015 386.246 168.746 386.38L166.936 387.386C166.668 387.587 166.266 387.587 165.998 387.453L161.976 385.106C161.707 384.972 161.707 384.704 162.043 384.57L163.786 383.564C164.054 383.363 164.456 383.363 164.724 383.497Z" fill="#3D3D3D"/>
<path d="M159.026 380.213L163.115 382.559C163.316 382.693 163.316 382.961 163.048 383.096L161.238 384.101C160.97 384.302 160.568 384.302 160.299 384.168L156.277 381.822C156.009 381.688 156.076 381.42 156.344 381.285L158.087 380.28C158.355 380.079 158.758 380.079 159.026 380.213Z" fill="#3D3D3D"/>
<path d="M153.394 376.994L157.484 379.34C157.685 379.475 157.685 379.676 157.417 379.877L155.607 380.882C155.339 381.016 154.936 381.083 154.668 380.882L150.646 378.536C150.378 378.402 150.378 378.201 150.713 378L152.456 376.994C152.724 376.86 153.126 376.793 153.394 376.994Z" fill="#3D3D3D"/>
<path d="M162.109 378.403L166.199 380.749C166.467 380.883 166.4 381.151 166.132 381.285L164.389 382.358C164.121 382.492 163.651 382.492 163.45 382.358L159.361 380.012C159.16 379.878 159.16 379.609 159.428 379.475L161.171 378.47C161.506 378.336 161.908 378.269 162.109 378.403Z" fill="#3D3D3D"/>
<path d="M150.78 280.122L141.662 274.826L141.998 272.815L151.182 278.111L150.78 280.122Z" fill="#272727"/>
<path d="M149.774 284.681L140.657 279.385L140.992 277.441L150.177 282.737L149.774 284.681Z" fill="#585858"/>
<path d="M194.824 348.368L185.64 343.072L186.042 341.061L195.227 346.357L194.824 348.368Z" fill="#272727"/>
<path d="M147.83 293.865L138.646 288.569L139.048 286.625L148.232 291.921L147.83 293.865Z" fill="#272727"/>
<path d="M251.695 315.121C257.956 310.959 268.044 310.959 274.305 315.121C280.565 319.284 280.565 326.048 274.305 330.211C268.044 334.373 257.956 334.373 251.695 330.211C245.435 326.048 245.435 319.284 251.695 315.121Z" fill="#313131"/>
<path d="M269.333 320.426H263.68C262.481 320.426 261.882 320.426 261.425 320.56C261.022 320.679 260.695 320.868 260.49 321.1C260.257 321.364 260.257 321.71 260.257 322.402L260.257 325.666" stroke="black" stroke-width="2" stroke-linecap="round" stroke-linejoin="round"/>
<path d="M425.695 266.211C431.956 270.374 442.044 270.374 448.305 266.211C454.565 262.049 454.565 255.284 448.305 251.122C442.044 246.959 431.956 246.959 425.695 251.122C419.435 255.284 419.435 262.049 425.695 266.211Z" fill="#313131"/>
<path d="M442.333 259.907H436.68C435.481 259.907 434.882 259.907 434.425 259.773C434.022 259.654 433.695 259.465 433.49 259.233C433.257 258.969 433.257 258.623 433.257 257.931L433.257 254.667" stroke="black" stroke-width="2" stroke-linecap="round" stroke-linejoin="round"/>
<path d="M554.695 259.211C560.956 263.374 571.044 263.374 577.305 259.211C583.565 255.049 583.565 248.284 577.305 244.122C571.044 239.959 560.956 239.959 554.695 244.122C548.435 248.284 548.435 255.049 554.695 259.211Z" fill="#313131"/>
<path d="M571.333 252.907H565.68C564.481 252.907 563.882 252.907 563.425 252.773C563.022 252.654 562.695 252.465 562.49 252.233C562.257 251.969 562.257 251.623 562.257 250.931L562.257 247.667" stroke="black" stroke-width="2" stroke-linecap="round" stroke-linejoin="round"/>
</svg>
