<svg width="45" height="44" viewBox="0 0 45 44" fill="none" xmlns="http://www.w3.org/2000/svg">
<path opacity="0.12" d="M22.4999 5.5C14.7035 5.5 8.38325 12.0118 8.38325 20.0444C8.38325 20.1317 8.384 20.2188 8.38548 20.3057C4.90514 21.2275 2.33325 24.4821 2.33325 28.3556C2.33325 32.9457 5.94482 36.6667 10.3999 36.6667H32.5833C38.1521 36.6667 42.6666 32.0154 42.6666 26.2778C42.6666 21.859 39.989 18.0846 36.2143 16.5829C34.7069 10.2214 29.1386 5.5 22.4999 5.5Z" fill="black"/>
<path fill-rule="evenodd" clip-rule="evenodd" d="M9.13325 20.0444C9.13325 12.4047 15.1387 6.25 22.4999 6.25C28.7689 6.25 34.0521 10.7106 35.4845 16.7558C35.5409 16.9938 35.7098 17.1893 35.9371 17.2797C39.4259 18.6677 41.9166 22.1657 41.9166 26.2778C41.9166 31.6224 37.717 35.9167 32.5833 35.9167H10.3999C6.37998 35.9167 3.08325 32.5527 3.08325 28.3556C3.08325 24.817 5.43124 21.864 8.57751 21.0307C8.91104 20.9423 9.14127 20.6379 9.13537 20.2929C9.13396 20.2102 9.13325 20.1274 9.13325 20.0444ZM22.4999 4.75C14.3648 4.75 7.78904 11.4587 7.63598 19.7488C4.10972 20.9438 1.58325 24.355 1.58325 28.3556C1.58325 33.3386 5.50966 37.4167 10.3999 37.4167H32.5833C38.5873 37.4167 43.4166 32.4084 43.4166 26.2778C43.4166 21.6929 40.72 17.7431 36.8507 16.0366C35.1421 9.54734 29.377 4.75 22.4999 4.75ZM28.5302 20.6973C28.8231 20.4044 28.8231 19.9296 28.5302 19.6367C28.2373 19.3438 27.7624 19.3438 27.4695 19.6367L20.6665 26.4397L18.4468 24.22C18.1539 23.9271 17.6791 23.9271 17.3862 24.22C17.0933 24.5129 17.0933 24.9878 17.3862 25.2807L20.1362 28.0307C20.2768 28.1713 20.4676 28.2503 20.6665 28.2503C20.8654 28.2503 21.0562 28.1713 21.1968 28.0307L28.5302 20.6973Z" fill="black"/>
</svg>
