<svg width="45" height="44" viewBox="0 0 45 44" fill="none" xmlns="http://www.w3.org/2000/svg">
<path opacity="0.12" fill-rule="evenodd" clip-rule="evenodd" d="M6.32698 5.30502C6 5.94676 6 6.78684 6 8.467V13.5337C6 15.2138 6 16.0539 6.32698 16.6956C6.6146 17.2601 7.07354 17.7191 7.63803 18.0067C8.27976 18.3337 9.11984 18.3337 10.8 18.3337H34.2C35.8802 18.3337 36.7202 18.3337 37.362 18.0067C37.9265 17.7191 38.3854 17.2601 38.673 16.6956C39 16.0539 39 15.2138 39 13.5337V8.46699C39 6.78683 39 5.94676 38.673 5.30502C38.3854 4.74053 37.9265 4.28159 37.362 3.99397C36.7202 3.66699 35.8802 3.66699 34.2 3.66699H10.8C9.11984 3.66699 8.27976 3.66699 7.63803 3.99397C7.07354 4.28159 6.6146 4.74053 6.32698 5.30502ZM6.32698 25.472C6 26.1137 6 26.9538 6 28.634V33.7007C6 35.3808 6 36.2209 6.32698 36.8626C6.6146 37.4271 7.07354 37.8861 7.63803 38.1737C8.27976 38.5007 9.11984 38.5007 10.8 38.5007H34.2C35.8802 38.5007 36.7202 38.5007 37.362 38.1737C37.9265 37.8861 38.3854 37.4271 38.673 36.8626C39 36.2209 39 35.3808 39 33.7006V28.634C39 26.9538 39 26.1137 38.673 25.472C38.3854 24.9075 37.9265 24.4486 37.362 24.161C36.7202 23.834 35.8802 23.834 34.2 23.834H10.8C9.11984 23.834 8.27976 23.834 7.63803 24.161C7.07354 24.4486 6.6146 24.9075 6.32698 25.472Z" fill="black"/>
<path fill-rule="evenodd" clip-rule="evenodd" d="M10.8 2.91699H10.7679H10.7679C9.95505 2.91699 9.29944 2.91698 8.76853 2.96036C8.2219 3.00502 7.74175 3.09938 7.29754 3.32572C6.59193 3.68524 6.01825 4.25892 5.65873 4.96453C5.43239 5.40875 5.33803 5.88889 5.29336 6.43553C5.24999 6.96643 5.24999 7.62205 5.25 8.43488V8.43489V8.467V13.5337V13.5658V13.5658C5.24999 14.3786 5.24999 15.0342 5.29336 15.5651C5.33803 16.1118 5.43239 16.5919 5.65873 17.0361C6.01825 17.7417 6.59193 18.3154 7.29754 18.6749C7.74175 18.9013 8.2219 18.9956 8.76853 19.0403C9.29944 19.0837 9.95505 19.0837 10.7679 19.0837H10.8H34.2H34.2321C35.045 19.0837 35.7006 19.0837 36.2315 19.0403C36.7781 18.9956 37.2582 18.9013 37.7025 18.6749C38.4081 18.3154 38.9818 17.7417 39.3413 17.0361C39.5676 16.5919 39.662 16.1118 39.7066 15.5651C39.75 15.0343 39.75 14.3787 39.75 13.566V13.5659V13.5659V13.5658V13.5337V8.46699V8.43487V8.43478V8.4347V8.43462C39.75 7.6219 39.75 6.96637 39.7066 6.43552C39.662 5.88889 39.5676 5.40875 39.3413 4.96453C38.9818 4.25892 38.4081 3.68524 37.7025 3.32572C37.2582 3.09938 36.7781 3.00502 36.2315 2.96036C35.7006 2.91698 35.0449 2.91699 34.2321 2.91699H34.2H10.8ZM7.97852 4.66223C8.17604 4.56159 8.43681 4.49246 8.89068 4.45537C9.35331 4.41758 9.94755 4.41699 10.8 4.41699H34.2C35.0525 4.41699 35.6467 4.41758 36.1093 4.45537C36.5632 4.49246 36.824 4.56159 37.0215 4.66223C37.4448 4.87794 37.7891 5.22215 38.0048 5.64551C38.1054 5.84303 38.1745 6.1038 38.2116 6.55767C38.2494 7.0203 38.25 7.61454 38.25 8.46699V13.5337C38.25 14.3861 38.2494 14.9803 38.2116 15.443C38.1745 15.8969 38.1054 16.1576 38.0048 16.3551C37.7891 16.7785 37.4448 17.1227 37.0215 17.3384C36.824 17.4391 36.5632 17.5082 36.1093 17.5453C35.6467 17.5831 35.0525 17.5837 34.2 17.5837H10.8C9.94755 17.5837 9.35331 17.5831 8.89068 17.5453C8.43681 17.5082 8.17604 17.4391 7.97852 17.3384C7.55516 17.1227 7.21095 16.7785 6.99524 16.3551C6.8946 16.1576 6.82547 15.8969 6.78838 15.443C6.75058 14.9803 6.75 14.3861 6.75 13.5337V8.467C6.75 7.61454 6.75058 7.0203 6.78838 6.55767C6.82547 6.1038 6.8946 5.84303 6.99524 5.64551C7.21095 5.22215 7.55516 4.87794 7.97852 4.66223ZM10.8 23.084H10.7679C9.95506 23.084 9.29944 23.084 8.76853 23.1273C8.2219 23.172 7.74175 23.2664 7.29754 23.4927C6.59193 23.8522 6.01825 24.4259 5.65873 25.1315C5.43239 25.5757 5.33803 26.0559 5.29336 26.6025C5.24999 27.1334 5.24999 27.789 5.25 28.6019V28.634V33.7007V33.7328C5.24999 34.5456 5.24999 35.2012 5.29336 35.7321C5.33803 36.2788 5.43239 36.7589 5.65873 37.2031C6.01825 37.9087 6.59193 38.4824 7.29754 38.8419C7.74175 39.0683 8.22189 39.1626 8.76853 39.2073C9.29944 39.2507 9.95505 39.2507 10.7679 39.2507H10.8H34.2H34.2321C35.045 39.2507 35.7006 39.2507 36.2315 39.2073C36.7781 39.1626 37.2582 39.0683 37.7025 38.8419C38.4081 38.4824 38.9818 37.9087 39.3413 37.2031C39.5676 36.7589 39.662 36.2788 39.7066 35.7321C39.75 35.2013 39.75 34.5457 39.75 33.733V33.7329V33.7329V33.7328V33.7006V28.634V28.6019V28.6018V28.6017V28.6016C39.75 27.7889 39.75 27.1334 39.7066 26.6025C39.662 26.0559 39.5676 25.5757 39.3413 25.1315C38.9818 24.4259 38.4081 23.8522 37.7025 23.4927C37.2582 23.2664 36.7781 23.172 36.2315 23.1273C35.7006 23.084 35.0449 23.084 34.2321 23.084H34.2H10.8ZM7.97852 24.8292C8.17604 24.7286 8.4368 24.6594 8.89068 24.6224C9.35331 24.5846 9.94755 24.584 10.8 24.584H34.2C35.0525 24.584 35.6467 24.5846 36.1093 24.6224C36.5632 24.6594 36.824 24.7286 37.0215 24.8292C37.4448 25.0449 37.789 25.3891 38.0048 25.8125C38.1054 26.01 38.1745 26.2708 38.2116 26.7247C38.2494 27.1873 38.25 27.7815 38.25 28.634V33.7006C38.25 34.5531 38.2494 35.1473 38.2116 35.61C38.1745 36.0638 38.1054 36.3246 38.0048 36.5221C37.789 36.9455 37.4448 37.2897 37.0215 37.5054C36.824 37.6061 36.5632 37.6752 36.1093 37.7123C35.6467 37.7501 35.0525 37.7507 34.2 37.7507H10.8C9.94755 37.7507 9.35331 37.7501 8.89068 37.7123C8.4368 37.6752 8.17604 37.6061 7.97852 37.5054C7.55516 37.2897 7.21095 36.9455 6.99524 36.5221C6.8946 36.3246 6.82547 36.0638 6.78838 35.61C6.75058 35.1473 6.75 34.5531 6.75 33.7007V28.634C6.75 27.7815 6.75058 27.1873 6.78838 26.7247C6.82547 26.2708 6.8946 26.01 6.99524 25.8125C7.21095 25.3891 7.55516 25.0449 7.97852 24.8292ZM33.5 11.0003C33.5 12.0128 32.6792 12.8337 31.6667 12.8337C30.6541 12.8337 29.8333 12.0128 29.8333 11.0003C29.8333 9.9878 30.6541 9.16699 31.6667 9.16699C32.6792 9.16699 33.5 9.9878 33.5 11.0003ZM31.6666 33.0007C32.6791 33.0007 33.4999 32.1798 33.4999 31.1673C33.4999 30.1548 32.6791 29.334 31.6666 29.334C30.6541 29.334 29.8333 30.1548 29.8333 31.1673C29.8333 32.1798 30.6541 33.0007 31.6666 33.0007Z" fill="black"/>
</svg>
