<svg width="45" height="44" viewBox="0 0 45 44" fill="none" xmlns="http://www.w3.org/2000/svg">
<rect opacity="0.12" x="4.16675" y="3.66699" width="36.6667" height="36.6667" rx="18.3333" fill="black"/>
<path fill-rule="evenodd" clip-rule="evenodd" d="M14.8665 4.50522C17.2051 3.48344 19.7874 2.91699 22.5001 2.91699C33.0395 2.91699 41.5834 11.4609 41.5834 22.0003C41.5834 22.4145 41.2476 22.7503 40.8334 22.7503C40.4192 22.7503 40.0834 22.4145 40.0834 22.0003C40.0834 12.2893 32.2111 4.41699 22.5001 4.41699C19.998 4.41699 17.6198 4.93916 15.467 5.87975C15.0875 6.04559 14.6453 5.87233 14.4795 5.49276C14.3136 5.1132 14.4869 4.67106 14.8665 4.50522ZM8.28251 10.4007C8.6137 10.6494 8.68051 11.1196 8.43175 11.4508C6.22443 14.3894 4.91675 18.0411 4.91675 22.0003C4.91675 30.5061 10.9571 37.6028 18.9826 39.2319C19.3885 39.3143 19.6508 39.7102 19.5684 40.1161C19.486 40.5221 19.0902 40.7843 18.6842 40.7019C9.97335 38.9337 3.41675 31.2336 3.41675 22.0003C3.41675 17.7051 4.83666 13.7394 7.2324 10.5499C7.48116 10.2187 7.95131 10.1519 8.28251 10.4007ZM38.7563 30.5178C39.1148 30.7252 39.2374 31.184 39.0299 31.5425C36.3417 36.1897 31.7492 39.599 26.316 40.7019C25.91 40.7843 25.5141 40.5221 25.4317 40.1161C25.3493 39.7102 25.6116 39.3143 26.0176 39.2319C31.0196 38.2165 35.2531 35.076 37.7315 30.7914C37.9389 30.4329 38.3977 30.3104 38.7563 30.5178ZM22.5 11.75C16.8391 11.75 12.25 16.3391 12.25 22C12.25 24.0968 12.8788 26.0444 13.9579 27.6674C14.1872 28.0123 14.0935 28.4778 13.7486 28.7072C13.4037 28.9365 12.9381 28.8428 12.7088 28.4979C11.4711 26.6364 10.75 24.4013 10.75 22C10.75 15.5107 16.0107 10.25 22.5 10.25C22.9142 10.25 23.25 10.5858 23.25 11C23.25 11.4142 22.9142 11.75 22.5 11.75ZM29.2745 13.3008C29.5507 12.9921 30.0249 12.9658 30.3335 13.2421C32.7362 15.3925 34.25 18.52 34.25 22C34.25 28.4893 28.9893 33.75 22.5 33.75C21.128 33.75 19.8094 33.5145 18.5834 33.0812C18.1929 32.9432 17.9882 32.5147 18.1262 32.1241C18.2642 31.7336 18.6927 31.5289 19.0833 31.667C20.151 32.0443 21.3007 32.25 22.5 32.25C28.1609 32.25 32.75 27.6609 32.75 22C32.75 18.9644 31.4313 16.2377 29.3331 14.3598C29.0245 14.0835 28.9982 13.6094 29.2745 13.3008ZM23.25 18.334C23.25 17.9198 22.9142 17.584 22.5 17.584C22.0858 17.584 21.75 17.9198 21.75 18.334V25.6673C21.75 26.0815 22.0858 26.4173 22.5 26.4173C22.9142 26.4173 23.25 26.0815 23.25 25.6673V18.334Z" fill="black"/>
</svg>
