<svg width="45" height="44" viewBox="0 0 45 44" fill="none" xmlns="http://www.w3.org/2000/svg">
<rect opacity="0.12" x="4.16675" y="3.66699" width="36.6667" height="36.6667" rx="5" fill="black"/>
<path fill-rule="evenodd" clip-rule="evenodd" d="M12.1667 2.91699H12.1332C10.7615 2.91699 9.68603 2.91698 8.82168 2.9876C7.94154 3.05951 7.21443 3.20837 6.5563 3.5437C5.47437 4.09498 4.59473 4.97461 4.04346 6.05655C3.70813 6.71468 3.55927 7.44179 3.48736 8.32193C3.41674 9.18628 3.41674 10.2617 3.41675 11.6334V11.667V32.3337V32.3672C3.41674 33.7389 3.41674 34.8144 3.48736 35.6787C3.55927 36.5589 3.70813 37.286 4.04346 37.9441C4.59473 39.026 5.47437 39.9057 6.5563 40.4569C7.21443 40.7923 7.94154 40.9411 8.82169 41.0131C9.68602 41.0837 10.7614 41.0837 12.1331 41.0837H12.1332H12.1668H32.8334H32.867H32.867C34.2387 41.0837 35.3141 41.0837 36.1785 41.0131C37.0586 40.9411 37.7857 40.7923 38.4439 40.4569C39.5258 39.9057 40.4054 39.026 40.9567 37.9441C41.292 37.286 41.4409 36.5589 41.5128 35.6787C41.5834 34.8144 41.5834 33.739 41.5834 32.3673V32.3672V32.3337V11.667V11.6334V11.6334C41.5834 10.2617 41.5834 9.18626 41.5128 8.32193C41.4409 7.44179 41.292 6.71468 40.9567 6.05655C40.4054 4.97461 39.5258 4.09498 38.4439 3.5437C37.7857 3.20837 37.0586 3.05951 36.1785 2.9876C35.3141 2.91698 34.2387 2.91699 32.867 2.91699H32.8334H12.1667ZM7.23729 4.88021C7.64872 4.67058 8.15645 4.54695 8.94383 4.48262C9.73997 4.41758 10.7542 4.41699 12.1667 4.41699H32.8334C34.2459 4.41699 35.2602 4.41758 36.0563 4.48262C36.8437 4.54695 37.3514 4.67058 37.7629 4.88021C38.5626 5.28768 39.2127 5.93784 39.6202 6.73753C39.8298 7.14896 39.9535 7.6567 40.0178 8.44408C40.0828 9.24021 40.0834 10.2545 40.0834 11.667V32.3337C40.0834 33.7462 40.0828 34.7604 40.0178 35.5566C39.9535 36.344 39.8298 36.8517 39.6202 37.2631C39.2127 38.0628 38.5626 38.713 37.7629 39.1204C37.3514 39.3301 36.8437 39.4537 36.0563 39.518C35.2602 39.5831 34.2459 39.5837 32.8334 39.5837H12.1668C10.7542 39.5837 9.73997 39.5831 8.94383 39.518C8.15645 39.4537 7.64872 39.3301 7.23729 39.1204C6.4376 38.713 5.78743 38.0628 5.37997 37.2631C5.17034 36.8517 5.04671 36.344 4.98238 35.5566C4.91733 34.7604 4.91675 33.7462 4.91675 32.3337V11.667C4.91675 10.2545 4.91733 9.24021 4.98238 8.44408C5.04671 7.6567 5.17034 7.14896 5.37997 6.73753C5.78743 5.93784 6.4376 5.28768 7.23729 4.88021ZM32.1969 17.0303C32.4898 16.7374 32.4898 16.2626 32.1969 15.9697C31.904 15.6768 31.4291 15.6768 31.1363 15.9697L24.3333 22.7727L21.1969 19.6363C20.904 19.3434 20.4291 19.3434 20.1363 19.6363L12.8029 26.9697C12.51 27.2626 12.51 27.7374 12.8029 28.0303C13.0958 28.3232 13.5707 28.3232 13.8636 28.0303L20.6666 21.2273L23.8029 24.3637C23.9436 24.5043 24.1343 24.5833 24.3333 24.5833C24.5322 24.5833 24.7229 24.5043 24.8636 24.3637L32.1969 17.0303Z" fill="black"/>
</svg>
