<svg width="45" height="44" viewBox="0 0 45 44" fill="none" xmlns="http://www.w3.org/2000/svg">
<path opacity="0.12" fill-rule="evenodd" clip-rule="evenodd" d="M33.5001 14.667C36.5376 14.667 39.0001 12.2046 39.0001 9.16699C39.0001 6.12943 36.5376 3.66699 33.5001 3.66699C30.4625 3.66699 28.0001 6.12943 28.0001 9.16699C28.0001 12.2046 30.4625 14.667 33.5001 14.667ZM9.66675 40.334C12.7043 40.334 15.1667 37.8716 15.1667 34.834C15.1667 31.7964 12.7043 29.334 9.66675 29.334C6.62918 29.334 4.16675 31.7964 4.16675 34.834C4.16675 37.8716 6.62918 40.334 9.66675 40.334Z" fill="black"/>
<path fill-rule="evenodd" clip-rule="evenodd" d="M33.5001 4.41699C30.8767 4.41699 28.7501 6.54364 28.7501 9.16699C28.7501 11.7903 30.8767 13.917 33.5001 13.917C36.1234 13.917 38.2501 11.7903 38.2501 9.16699C38.2501 6.54364 36.1234 4.41699 33.5001 4.41699ZM27.2501 9.16699C27.2501 5.71521 30.0483 2.91699 33.5001 2.91699C36.9519 2.91699 39.7501 5.71521 39.7501 9.16699C39.7501 12.6188 36.9519 15.417 33.5001 15.417C30.0483 15.417 27.2501 12.6188 27.2501 9.16699ZM9.66675 30.084C7.0434 30.084 4.91675 32.2106 4.91675 34.834C4.91675 37.4573 7.0434 39.584 9.66675 39.584C12.2866 39.584 14.4111 37.463 14.4167 34.8444C14.4167 34.8409 14.4167 34.8375 14.4167 34.834C14.4167 34.8305 14.4167 34.827 14.4167 34.8236C14.4111 32.205 12.2866 30.084 9.66675 30.084ZM15.8722 34.084C15.5017 30.9858 12.8647 28.584 9.66675 28.584C6.21497 28.584 3.41675 31.3822 3.41675 34.834C3.41675 38.2858 6.21497 41.084 9.66675 41.084C12.8647 41.084 15.5017 38.6822 15.8722 35.584H30.75C34.708 35.584 37.9167 32.3754 37.9167 28.4173C37.9167 24.4593 34.708 21.2507 30.75 21.2507H12.4167C9.28705 21.2507 6.75 18.7136 6.75 15.584C6.75 12.4544 9.28705 9.91732 12.4167 9.91732H20.6893L17.3863 13.2203C17.0934 13.5132 17.0934 13.9881 17.3863 14.281C17.6792 14.5739 18.1541 14.5739 18.447 14.281L23.0303 9.69765C23.3232 9.40475 23.3232 8.92988 23.0303 8.63699L18.447 4.05365C18.1541 3.76076 17.6792 3.76076 17.3863 4.05365C17.0934 4.34655 17.0934 4.82142 17.3863 5.11431L20.6893 8.41732H12.4167C8.45863 8.41732 5.25 11.6259 5.25 15.584C5.25 19.542 8.45862 22.7507 12.4167 22.7507H30.75C33.8796 22.7507 36.4167 25.2877 36.4167 28.4173C36.4167 31.5469 33.8796 34.084 30.75 34.084H15.8722Z" fill="black"/>
</svg>
