<svg width="45" height="44" viewBox="0 0 45 44" fill="none" xmlns="http://www.w3.org/2000/svg">
<rect opacity="0.12" x="4.16675" y="3.66699" width="36.6667" height="36.6667" rx="4" fill="black"/>
<path fill-rule="evenodd" clip-rule="evenodd" d="M10.5667 2.91699H10.5337H10.5337C9.4416 2.91699 8.5761 2.91698 7.87848 2.97398C7.16509 3.03227 6.56147 3.15387 6.01029 3.43471C5.11652 3.89011 4.38987 4.61677 3.93447 5.51054C3.65363 6.06171 3.53202 6.66534 3.47374 7.37873C3.41674 8.07635 3.41674 8.94184 3.41675 10.034V10.034V10.067V22.0003V33.9337V33.9667C3.41674 35.0588 3.41674 35.9243 3.47374 36.6219C3.53202 37.3353 3.65363 37.9389 3.93447 38.4901C4.38987 39.3839 5.11652 40.1105 6.01029 40.5659C6.56147 40.8468 7.16509 40.9684 7.87848 41.0267C8.5761 41.0837 9.44159 41.0837 10.5337 41.0837H10.5667H22.5001H34.4334H34.4664C35.5586 41.0837 36.4241 41.0837 37.1217 41.0267C37.8351 40.9684 38.4387 40.8468 38.9899 40.5659C39.8836 40.1105 40.6103 39.3839 41.0657 38.4901C41.3465 37.9389 41.4681 37.3353 41.5264 36.6219C41.5834 35.9243 41.5834 35.0588 41.5834 33.9667V33.9337V22.0003V10.067V10.034C41.5834 8.94184 41.5834 8.07634 41.5264 7.37873C41.4681 6.66534 41.3465 6.06171 41.0657 5.51054C40.6103 4.61677 39.8836 3.89011 38.9899 3.43471C38.4387 3.15387 37.8351 3.03227 37.1217 2.97398C36.4241 2.91698 35.5586 2.91699 34.4664 2.91699H34.4334H22.5001H10.5667ZM6.69128 4.77122C6.99575 4.61608 7.38 4.51971 8.00063 4.469C8.63001 4.41758 9.43427 4.41699 10.5667 4.41699H22.5001H34.4334C35.5659 4.41699 36.3702 4.41758 36.9995 4.469C37.6202 4.51971 38.0044 4.61608 38.3089 4.77122C38.9204 5.08281 39.4176 5.58 39.7292 6.19152C39.8843 6.496 39.9807 6.88025 40.0314 7.50087C40.0828 8.13026 40.0834 8.93451 40.0834 10.067V22.0003V33.9337C40.0834 35.0661 40.0828 35.8704 40.0314 36.4998C39.9807 37.1204 39.8843 37.5047 39.7292 37.8091C39.4176 38.4207 38.9204 38.9178 38.3089 39.2294C38.0044 39.3846 37.6202 39.4809 36.9995 39.5317C36.3702 39.5831 35.5659 39.5837 34.4334 39.5837H22.5001H10.5667C9.43427 39.5837 8.63001 39.5831 8.00063 39.5317C7.38 39.4809 6.99575 39.3846 6.69128 39.2294C6.07975 38.9178 5.58257 38.4207 5.27098 37.8091C5.11584 37.5047 5.01946 37.1204 4.96875 36.4998C4.91733 35.8704 4.91675 35.0661 4.91675 33.9337V22.0003V10.067C4.91675 8.93451 4.91733 8.13026 4.96875 7.50087C5.01946 6.88025 5.11584 6.496 5.27098 6.19152C5.58257 5.58 6.07975 5.08281 6.69128 4.77122ZM24.3334 14.6673C24.3334 15.6798 23.5126 16.5007 22.5001 16.5007C21.4876 16.5007 20.6667 15.6798 20.6667 14.6673C20.6667 13.6548 21.4876 12.834 22.5001 12.834C23.5126 12.834 24.3334 13.6548 24.3334 14.6673ZM15.1667 23.8337C16.1793 23.8337 17.0001 23.0128 17.0001 22.0003C17.0001 20.9878 16.1793 20.167 15.1667 20.167C14.1542 20.167 13.3334 20.9878 13.3334 22.0003C13.3334 23.0128 14.1542 23.8337 15.1667 23.8337ZM29.8334 23.8337C30.8459 23.8337 31.6667 23.0128 31.6667 22.0003C31.6667 20.9878 30.8459 20.167 29.8334 20.167C28.8209 20.167 28.0001 20.9878 28.0001 22.0003C28.0001 23.0128 28.8209 23.8337 29.8334 23.8337ZM22.5001 31.1667C23.5126 31.1667 24.3334 30.3459 24.3334 29.3333C24.3334 28.3208 23.5126 27.5 22.5001 27.5C21.4876 27.5 20.6667 28.3208 20.6667 29.3333C20.6667 30.3459 21.4876 31.1667 22.5001 31.1667ZM24.3334 22.0003C24.3334 23.0128 23.5126 23.8337 22.5001 23.8337C21.4876 23.8337 20.6667 23.0128 20.6667 22.0003C20.6667 20.9878 21.4876 20.167 22.5001 20.167C23.5126 20.167 24.3334 20.9878 24.3334 22.0003Z" fill="black"/>
</svg>
