<svg width="45" height="44" viewBox="0 0 45 44" fill="none" xmlns="http://www.w3.org/2000/svg">
<circle opacity="0.12" cx="22.5" cy="22.0001" r="18.3333" fill="black"/>
<path fill-rule="evenodd" clip-rule="evenodd" d="M4.91669 22.0001C4.91669 12.2891 12.789 4.41675 22.5 4.41675C25.3085 4.41675 27.9612 5.07465 30.3144 6.24407C30.6853 6.42841 31.1355 6.27714 31.3198 5.90621C31.5041 5.53528 31.3529 5.08514 30.9819 4.9008C28.426 3.63061 25.5453 2.91675 22.5 2.91675C11.9606 2.91675 3.41669 11.4606 3.41669 22.0001C3.41669 32.5395 11.9606 41.0834 22.5 41.0834C33.0395 41.0834 41.5834 32.5395 41.5834 22.0001C41.5834 21.284 41.5439 20.5768 41.4669 19.8806C41.4214 19.4689 41.0508 19.1721 40.6391 19.2176C40.2274 19.2631 39.9305 19.6337 39.976 20.0455C40.0469 20.687 40.0834 21.3391 40.0834 22.0001C40.0834 31.7111 32.211 39.5834 22.5 39.5834C12.789 39.5834 4.91669 31.7111 4.91669 22.0001ZM41.3637 7.86375C41.6566 7.57085 41.6566 7.09598 41.3637 6.80308C41.0708 6.51019 40.5959 6.51019 40.303 6.80308L22.5 24.6061L17.5303 19.6364C17.2375 19.3435 16.7626 19.3435 16.4697 19.6364C16.1768 19.9293 16.1768 20.4042 16.4697 20.6971L21.9697 26.1971C22.2626 26.49 22.7375 26.49 23.0303 26.1971L41.3637 7.86375Z" fill="black"/>
</svg>
