<svg width="507" height="506" viewBox="0 0 507 506" fill="none" xmlns="http://www.w3.org/2000/svg">
<path d="M490.156 252.82C490.156 383.537 384.189 489.503 253.472 489.503C122.756 489.503 16.7887 383.537 16.7887 252.82C16.7887 122.104 122.756 16.1371 253.472 16.1371C384.189 16.1371 490.156 122.104 490.156 252.82Z" stroke="#DFDFDF" stroke-width="1.94801"/>
<circle cx="253.5" cy="252.814" r="67.526" stroke="#DFDFDF" stroke-width="1.94801"/>
<path d="M397.843 252.971C397.843 332.704 333.206 397.341 253.473 397.341C173.739 397.341 109.103 332.704 109.103 252.971C109.103 173.238 173.739 108.601 253.473 108.601C333.206 108.601 397.843 173.238 397.843 252.971Z" stroke="#DFDFDF" stroke-width="1.94801"/>
<path d="M491.128 252.971H311.412" stroke="#DFDFDF" stroke-width="1.94801"/>
<path d="M196.517 252.971H16.8005" stroke="#DFDFDF" stroke-width="1.94801"/>
<path d="M253.964 15.8046L253.964 195.521" stroke="#DFDFDF" stroke-width="1.94801"/>
<path d="M253.964 310.422L253.964 490.138" stroke="#DFDFDF" stroke-width="1.94801"/>
<path d="M421.665 420.673L294.586 293.595" stroke="#DFDFDF" stroke-width="1.94801"/>
<path d="M213.338 212.348L86.2593 85.2695" stroke="#DFDFDF" stroke-width="1.94801"/>
<path d="M421.665 85.2693L294.586 212.348" stroke="#DFDFDF" stroke-width="1.94801"/>
<path d="M213.338 293.595L86.2593 420.673" stroke="#DFDFDF" stroke-width="1.94801"/>
<path d="M398.983 216.87L399.028 216.887L399.074 216.9C425.448 224.033 431.535 258.691 409.171 274.385L390.955 287.167C373.564 299.371 367.197 322.147 375.738 341.6L386.109 365.219C386.699 366.563 387.164 367.959 387.499 369.388C391.911 388.229 373.319 404.256 355.334 397.116L310.016 379.123C301.183 375.616 291.317 380.894 289.334 390.189C287.753 397.595 280.355 402.223 273.003 400.404L247.592 394.118C237.528 391.628 226.894 393.073 217.859 398.157L201.289 407.48C174.777 422.398 142.68 400.396 147.032 370.288L148.022 363.441C150.007 349.713 142.281 336.425 129.37 331.357C116.427 326.277 109.193 312.45 112.399 298.921L117.411 277.768C120.833 263.328 116.76 248.135 106.574 237.343C81.2067 210.469 100.259 166.285 137.215 166.285H148.763C152.234 166.285 155.688 166.781 159.02 167.756L162.222 168.694C182.966 174.768 204.285 161.079 207.393 139.689C207.989 135.591 209.337 131.638 211.369 128.03L230.967 93.2386C244.059 69.9968 277.458 69.8014 290.821 92.8885C292.226 95.3149 293.329 97.9035 294.106 100.597L308.402 150.132C311.163 159.699 319.919 166.285 329.876 166.285C339.034 166.285 347.07 172.387 349.529 181.209L350.873 186.031C353.346 194.9 359.891 202.064 368.501 205.325L398.983 216.87Z" stroke="#DFDFDF" stroke-width="1.94801"/>
<g filter="url(#filter0_d_1230_81447)">
<path d="M369.879 149.061L369.956 149.05L370.033 149.031C396.827 142.45 419.139 170.109 407.037 194.905L393.68 222.273C385.9 238.213 390.447 257.427 404.544 268.19L431.644 288.881C432.815 289.775 433.901 290.775 434.889 291.867C447.909 306.271 439.362 329.37 420.102 331.83L370.346 338.185C360.281 339.47 353.79 349.497 356.736 359.207C358.899 366.335 354.732 373.839 347.538 375.772L319.525 383.297C310.368 385.757 302.495 391.618 297.512 399.684L282.848 423.42C268.01 447.439 232.062 443.976 222.081 417.568L217.353 405.059C212.21 391.453 198.379 383.176 183.958 385.075C170.076 386.903 156.964 378.241 153.199 364.755L145.925 338.699C142.555 326.628 133.338 317.062 121.399 313.248L97.6787 305.669C69.2546 296.588 65.4595 257.921 91.5754 243.486L120.027 227.761C122.858 226.196 125.899 225.042 129.056 224.336L132.821 223.494C154.871 218.561 167.453 195.255 159.481 174.113C158.004 170.197 157.264 166.041 157.298 161.856L157.643 119.34C157.857 93.0087 186.617 76.8919 209.187 90.4551L210.515 91.2534C212.888 92.679 215.077 94.3888 217.035 96.3449L254.619 133.889C262.054 141.316 273.506 142.93 282.704 137.846C290.712 133.419 300.689 134.871 307.103 141.396L310.711 145.066C317.483 151.956 327.13 155.212 336.693 153.836L369.879 149.061Z" stroke="#C92222" stroke-width="3.20603"/>
</g>
<ellipse cx="253.5" cy="253.314" rx="68.5" ry="69" fill="#C92222"/>
<path fill-rule="evenodd" clip-rule="evenodd" d="M239.425 232.217C243.918 230.343 249.316 228.648 254 228.648C258.684 228.648 264.082 230.343 268.575 232.217C271.194 233.31 272.137 233.724 273.227 234.735C274.074 235.521 275.067 237.011 275.466 238.096C275.974 239.476 276 240.785 276 244.311L276 249.841C276 256.092 275.979 258.811 275.049 261.667C274.327 263.882 272.571 266.914 271.009 268.642C268.982 270.884 267.208 271.919 263.069 274.294C261.176 275.379 259.345 276.321 257.724 276.987C256.056 277.672 254.802 277.982 254 277.982C253.198 277.982 251.944 277.672 250.276 276.987C248.655 276.321 246.823 275.379 244.931 274.294C240.792 271.919 239.018 270.884 236.991 268.642C235.429 266.914 233.673 263.882 232.951 261.667C232.021 258.811 232 256.092 232 249.841L232 244.311C232 240.785 232.026 239.476 232.533 238.096C232.933 237.011 233.926 235.521 234.773 234.735C235.863 233.724 236.806 233.31 239.425 232.217ZM254 224.648C248.51 224.648 242.52 226.593 237.885 228.526L237.707 228.6C235.295 229.605 233.709 230.266 232.053 231.803C230.744 233.017 229.397 235.038 228.78 236.714C227.999 238.836 227.999 240.881 228 244.015L228 244.311L228 249.841L228 250.151C228 256.008 227.999 259.381 229.148 262.906C230.044 265.655 232.084 269.179 234.023 271.324C236.509 274.074 238.812 275.395 242.791 277.677L242.941 277.763C244.915 278.896 246.913 279.93 248.757 280.687C250.552 281.424 252.397 281.982 254 281.982C255.603 281.982 257.448 281.424 259.243 280.687C261.087 279.93 263.085 278.896 265.059 277.763L265.209 277.677C269.187 275.395 271.491 274.074 273.977 271.324C275.915 269.179 277.956 265.655 278.852 262.906C280.001 259.381 280 256.008 280 250.151L280 249.841L280 244.311L280 244.015C280.001 240.881 280.001 238.836 279.22 236.714C278.603 235.038 277.256 233.017 275.947 231.803C274.29 230.266 272.705 229.605 270.293 228.6L270.115 228.526C265.48 226.593 259.49 224.648 254 224.648ZM264.748 248.063C265.529 247.282 265.529 246.015 264.748 245.234C263.966 244.453 262.7 244.453 261.919 245.234L251.333 255.82L247.414 251.901C246.633 251.12 245.367 251.12 244.586 251.901C243.805 252.682 243.805 253.948 244.586 254.729L249.919 260.063C250.7 260.844 251.966 260.844 252.748 260.063L264.748 248.063Z" fill="white"/>
<ellipse cx="253.802" cy="16.1164" rx="16.0302" ry="16.0304" fill="#010103"/>
<path fill-rule="evenodd" clip-rule="evenodd" d="M254.378 8.94751C254.688 9.25158 254.688 9.74048 254.378 10.0445L248.529 15.6847H253.811C254.252 15.6847 254.61 16.0365 254.61 16.4598V16.6625C255.373 16.0544 256.351 15.6847 257.418 15.6847C259.851 15.6847 261.83 17.5986 261.83 19.9476C261.83 22.2788 259.869 24.1867 257.454 24.2046H257.383C254.968 24.1867 253.006 22.2788 253.006 19.9476V17.2349H246.591C246.269 17.2349 245.977 17.05 245.852 16.7579C245.81 16.6625 245.792 16.5671 245.792 16.4658V16.4538C245.792 16.2571 245.876 16.0603 246.025 15.9172L253.245 8.94751C253.394 8.79846 253.591 8.72691 253.793 8.72095H253.829C254.026 8.72691 254.223 8.79846 254.378 8.94751ZM260.226 19.9476C260.226 18.4511 258.963 17.2349 257.418 17.2349C255.868 17.2349 254.61 18.4511 254.61 19.9476C254.61 21.4382 255.868 22.6544 257.418 22.6544C258.963 22.6544 260.226 21.4382 260.226 19.9476ZM260.536 12.9421C260.847 13.2462 260.847 13.7351 260.536 14.0332C260.381 14.1882 260.173 14.2598 259.97 14.2598C259.761 14.2598 259.559 14.1882 259.404 14.0332C258.873 13.5264 258.17 13.2402 257.418 13.2402C256.667 13.2402 255.964 13.5264 255.433 14.0332C255.278 14.1882 255.069 14.2598 254.867 14.2598C254.664 14.2598 254.455 14.1882 254.3 14.0332C253.984 13.7351 253.984 13.2462 254.3 12.9421C255.135 12.1373 256.238 11.6961 257.418 11.6961C258.593 11.6961 259.702 12.1373 260.536 12.9421Z" fill="white"/>
<ellipse cx="421.317" cy="86.6488" rx="16.0302" ry="16.0304" fill="#010103"/>
<path fill-rule="evenodd" clip-rule="evenodd" d="M421.893 79.481C422.203 79.785 422.203 80.2739 421.893 80.578L416.044 86.2182H421.327C421.768 86.2182 422.125 86.5699 422.125 86.9932V87.196C422.889 86.5878 423.866 86.2182 424.934 86.2182C427.366 86.2182 429.346 88.132 429.346 90.4811C429.346 92.8123 427.384 94.7202 424.969 94.738H424.898C422.483 94.7202 420.522 92.8123 420.522 90.4811V87.7683H414.107C413.785 87.7683 413.492 87.5835 413.367 87.2913C413.326 87.196 413.308 87.1006 413.308 86.9992V86.9873C413.308 86.7905 413.391 86.5938 413.54 86.4507L420.76 79.481C420.909 79.3319 421.106 79.2604 421.309 79.2544H421.344C421.541 79.2604 421.738 79.3319 421.893 79.481ZM427.742 90.4811C427.742 88.9846 426.478 87.7683 424.934 87.7683C423.383 87.7683 422.125 88.9846 422.125 90.4811C422.125 91.9716 423.383 93.1879 424.934 93.1879C426.478 93.1879 427.742 91.9716 427.742 90.4811ZM428.052 83.4756C428.362 83.7797 428.362 84.2685 428.052 84.5667C427.897 84.7217 427.688 84.7932 427.485 84.7932C427.277 84.7932 427.074 84.7217 426.919 84.5667C426.388 84.0599 425.685 83.7737 424.934 83.7737C424.182 83.7737 423.479 84.0599 422.948 84.5667C422.793 84.7217 422.585 84.7932 422.382 84.7932C422.179 84.7932 421.97 84.7217 421.815 84.5667C421.499 84.2685 421.499 83.7797 421.815 83.4756C422.65 82.6707 423.753 82.2295 424.934 82.2295C426.108 82.2295 427.217 82.6707 428.052 83.4756Z" fill="white"/>
<ellipse cx="490.247" cy="251.76" rx="16.0302" ry="16.0304" fill="#010103"/>
<path fill-rule="evenodd" clip-rule="evenodd" d="M490.823 244.593C491.133 244.897 491.133 245.386 490.823 245.69L484.974 251.33H490.256C490.698 251.33 491.055 251.682 491.055 252.105V252.308C491.819 251.7 492.796 251.33 493.864 251.33C496.296 251.33 498.275 253.244 498.275 255.593C498.275 257.924 496.314 259.832 493.899 259.85H493.828C491.413 259.832 489.452 257.924 489.452 255.593V252.88H483.036C482.715 252.88 482.422 252.695 482.297 252.403C482.255 252.308 482.238 252.212 482.238 252.111V252.099C482.238 251.902 482.321 251.706 482.47 251.563L489.69 244.593C489.839 244.444 490.036 244.372 490.239 244.366H490.274C490.471 244.372 490.668 244.444 490.823 244.593ZM496.672 255.593C496.672 254.096 495.408 252.88 493.864 252.88C492.313 252.88 491.055 254.096 491.055 255.593C491.055 257.083 492.313 258.3 493.864 258.3C495.408 258.3 496.672 257.083 496.672 255.593ZM496.982 248.587C497.292 248.891 497.292 249.38 496.982 249.678C496.827 249.833 496.618 249.905 496.415 249.905C496.207 249.905 496.004 249.833 495.849 249.678C495.318 249.172 494.615 248.886 493.864 248.886C493.112 248.886 492.409 249.172 491.878 249.678C491.723 249.833 491.514 249.905 491.312 249.905C491.109 249.905 490.9 249.833 490.745 249.678C490.429 249.38 490.429 248.891 490.745 248.587C491.58 247.783 492.683 247.341 493.864 247.341C495.038 247.341 496.147 247.783 496.982 248.587Z" fill="white"/>
<ellipse cx="86.2866" cy="86.6488" rx="16.0302" ry="16.0304" fill="#010103"/>
<path fill-rule="evenodd" clip-rule="evenodd" d="M86.8623 79.481C87.1723 79.785 87.1723 80.2739 86.8623 80.578L81.0136 86.2182H86.2959C86.7371 86.2182 87.0948 86.5699 87.0948 86.9932V87.196C87.858 86.5878 88.8358 86.2182 89.903 86.2182C92.3355 86.2182 94.3149 88.132 94.3149 90.4811C94.3149 92.8123 92.3534 94.7202 89.9387 94.738H89.8672C87.4526 94.7202 85.491 92.8123 85.491 90.4811V87.7683H79.0759C78.7539 87.7683 78.4618 87.5835 78.3366 87.2913C78.2949 87.196 78.277 87.1006 78.277 86.9992V86.9873C78.277 86.7905 78.3604 86.5938 78.5095 86.4507L85.7295 79.481C85.8786 79.3319 86.0753 79.2604 86.278 79.2544H86.3138C86.5106 79.2604 86.7073 79.3319 86.8623 79.481ZM92.7111 90.4811C92.7111 88.9846 91.4471 87.7683 89.903 87.7683C88.3528 87.7683 87.0948 88.9846 87.0948 90.4811C87.0948 91.9716 88.3528 93.1879 89.903 93.1879C91.4471 93.1879 92.7111 91.9716 92.7111 90.4811ZM93.0211 83.4756C93.3311 83.7797 93.3311 84.2685 93.0211 84.5667C92.8661 84.7217 92.6574 84.7932 92.4547 84.7932C92.246 84.7932 92.0433 84.7217 91.8883 84.5667C91.3577 84.0599 90.6542 83.7737 89.903 83.7737C89.1517 83.7737 88.4482 84.0599 87.9176 84.5667C87.7626 84.7217 87.5539 84.7932 87.3512 84.7932C87.1485 84.7932 86.9398 84.7217 86.7848 84.5667C86.4688 84.2685 86.4688 83.7797 86.7848 83.4756C87.6195 82.6707 88.7225 82.2295 89.903 82.2295C91.0775 82.2295 92.1864 82.6707 93.0211 83.4756Z" fill="white"/>
<ellipse cx="16.5554" cy="251.76" rx="16.0302" ry="16.0304" fill="#010103"/>
<path fill-rule="evenodd" clip-rule="evenodd" d="M17.1312 244.593C17.4413 244.897 17.4413 245.386 17.1312 245.69L11.2825 251.33H16.5648C17.006 251.33 17.3638 251.682 17.3638 252.105V252.308C18.1269 251.7 19.1047 251.33 20.1719 251.33C22.6044 251.33 24.5838 253.244 24.5838 255.593C24.5838 257.924 22.6223 259.832 20.2077 259.85H20.1361C17.7215 259.832 15.76 257.924 15.76 255.593V252.88H9.34481C9.02286 252.88 8.73072 252.695 8.60552 252.403C8.56378 252.308 8.5459 252.212 8.5459 252.111V252.099C8.5459 251.902 8.62937 251.706 8.77842 251.563L15.9985 244.593C16.1475 244.444 16.3443 244.372 16.547 244.366H16.5827C16.7795 244.372 16.9762 244.444 17.1312 244.593ZM22.98 255.593C22.98 254.096 21.7161 252.88 20.1719 252.88C18.6218 252.88 17.3638 254.096 17.3638 255.593C17.3638 257.083 18.6218 258.3 20.1719 258.3C21.7161 258.3 22.98 257.083 22.98 255.593ZM23.29 248.587C23.6001 248.891 23.6001 249.38 23.29 249.678C23.135 249.833 22.9263 249.905 22.7236 249.905C22.515 249.905 22.3123 249.833 22.1572 249.678C21.6266 249.172 20.9231 248.886 20.1719 248.886C19.4207 248.886 18.7171 249.172 18.1865 249.678C18.0315 249.833 17.8228 249.905 17.6201 249.905C17.4174 249.905 17.2087 249.833 17.0537 249.678C16.7377 249.38 16.7377 248.891 17.0537 248.587C17.8884 247.783 18.9914 247.341 20.1719 247.341C21.3464 247.341 22.4553 247.783 23.29 248.587Z" fill="white"/>
<ellipse cx="88.6912" cy="420.877" rx="16.0302" ry="16.0304" fill="#010103"/>
<path fill-rule="evenodd" clip-rule="evenodd" d="M89.2669 413.709C89.5769 414.013 89.5769 414.502 89.2669 414.806L83.4181 420.446H88.7005C89.1417 420.446 89.4994 420.798 89.4994 421.222V421.424C90.2625 420.816 91.2403 420.446 92.3075 420.446C94.74 420.446 96.7194 422.36 96.7194 424.709C96.7194 427.041 94.7579 428.948 92.3433 428.966H92.2717C89.8571 428.948 87.8956 427.041 87.8956 424.709V421.997H81.4804C81.1585 421.997 80.8663 421.812 80.7411 421.52C80.6994 421.424 80.6815 421.329 80.6815 421.227V421.216C80.6815 421.019 80.765 420.822 80.914 420.679L88.1341 413.709C88.2831 413.56 88.4799 413.489 88.6826 413.483H88.7184C88.9151 413.489 89.1118 413.56 89.2669 413.709ZM95.1156 424.709C95.1156 423.213 93.8517 421.997 92.3075 421.997C90.7574 421.997 89.4994 423.213 89.4994 424.709C89.4994 426.2 90.7574 427.416 92.3075 427.416C93.8517 427.416 95.1156 426.2 95.1156 424.709ZM95.4256 417.704C95.7357 418.008 95.7357 418.497 95.4256 418.795C95.2706 418.95 95.062 419.021 94.8593 419.021C94.6506 419.021 94.4479 418.95 94.2929 418.795C93.7622 418.288 93.0587 418.002 92.3075 418.002C91.5563 418.002 90.8528 418.288 90.3221 418.795C90.1671 418.95 89.9585 419.021 89.7557 419.021C89.553 419.021 89.3444 418.95 89.1894 418.795C88.8734 418.497 88.8734 418.008 89.1894 417.704C90.024 416.899 91.127 416.458 92.3075 416.458C93.482 416.458 94.591 416.899 95.4256 417.704Z" fill="white"/>
<ellipse cx="418.111" cy="420.877" rx="16.0302" ry="16.0304" fill="#010103"/>
<path fill-rule="evenodd" clip-rule="evenodd" d="M418.687 413.709C418.997 414.013 418.997 414.502 418.687 414.806L412.838 420.446H418.121C418.562 420.446 418.919 420.798 418.919 421.222V421.424C419.683 420.816 420.66 420.446 421.728 420.446C424.16 420.446 426.139 422.36 426.139 424.709C426.139 427.041 424.178 428.948 421.763 428.966H421.692C419.277 428.948 417.316 427.041 417.316 424.709V421.997H410.9C410.579 421.997 410.286 421.812 410.161 421.52C410.119 421.424 410.102 421.329 410.102 421.227V421.216C410.102 421.019 410.185 420.822 410.334 420.679L417.554 413.709C417.703 413.56 417.9 413.489 418.103 413.483H418.138C418.335 413.489 418.532 413.56 418.687 413.709ZM424.536 424.709C424.536 423.213 423.272 421.997 421.728 421.997C420.177 421.997 418.919 423.213 418.919 424.709C418.919 426.2 420.177 427.416 421.728 427.416C423.272 427.416 424.536 426.2 424.536 424.709ZM424.846 417.704C425.156 418.008 425.156 418.497 424.846 418.795C424.691 418.95 424.482 419.021 424.279 419.021C424.071 419.021 423.868 418.95 423.713 418.795C423.182 418.288 422.479 418.002 421.728 418.002C420.976 418.002 420.273 418.288 419.742 418.795C419.587 418.95 419.379 419.021 419.176 419.021C418.973 419.021 418.764 418.95 418.609 418.795C418.293 418.497 418.293 418.008 418.609 417.704C419.444 416.899 420.547 416.458 421.728 416.458C422.902 416.458 424.011 416.899 424.846 417.704Z" fill="white"/>
<ellipse cx="253.802" cy="489.005" rx="16.0302" ry="16.0304" fill="#010103"/>
<path fill-rule="evenodd" clip-rule="evenodd" d="M254.378 481.837C254.688 482.141 254.688 482.63 254.378 482.934L248.529 488.574H253.811C254.253 488.574 254.61 488.926 254.61 489.349V489.552C255.373 488.944 256.351 488.574 257.418 488.574C259.851 488.574 261.83 490.488 261.83 492.837C261.83 495.168 259.869 497.076 257.454 497.094H257.383C254.968 497.076 253.007 495.168 253.007 492.837V490.125H246.591C246.269 490.125 245.977 489.94 245.852 489.648C245.81 489.552 245.792 489.457 245.792 489.355V489.343C245.792 489.147 245.876 488.95 246.025 488.807L253.245 481.837C253.394 481.688 253.591 481.617 253.794 481.611H253.829C254.026 481.617 254.223 481.688 254.378 481.837ZM260.227 492.837C260.227 491.341 258.963 490.125 257.418 490.125C255.868 490.125 254.61 491.341 254.61 492.837C254.61 494.328 255.868 495.544 257.418 495.544C258.963 495.544 260.227 494.328 260.227 492.837ZM260.537 485.832C260.847 486.136 260.847 486.625 260.537 486.923C260.382 487.078 260.173 487.149 259.97 487.149C259.762 487.149 259.559 487.078 259.404 486.923C258.873 486.416 258.17 486.13 257.418 486.13C256.667 486.13 255.964 486.416 255.433 486.923C255.278 487.078 255.069 487.149 254.867 487.149C254.664 487.149 254.455 487.078 254.3 486.923C253.984 486.625 253.984 486.136 254.3 485.832C255.135 485.027 256.238 484.586 257.418 484.586C258.593 484.586 259.702 485.027 260.537 485.832Z" fill="white"/>
<defs>
<filter id="filter0_d_1230_81447" x="69.4903" y="82.0711" width="376.15" height="363.056" filterUnits="userSpaceOnUse" color-interpolation-filters="sRGB">
<feFlood flood-opacity="0" result="BackgroundImageFix"/>
<feColorMatrix in="SourceAlpha" type="matrix" values="0 0 0 0 0 0 0 0 0 0 0 0 0 0 0 0 0 0 127 0" result="hardAlpha"/>
<feOffset dy="1.04615"/>
<feGaussianBlur stdDeviation="1.4565"/>
<feColorMatrix type="matrix" values="0 0 0 0 0.403922 0 0 0 0 0.0941176 0 0 0 0 1 0 0 0 0.182963 0"/>
<feBlend mode="normal" in2="BackgroundImageFix" result="effect1_dropShadow_1230_81447"/>
<feBlend mode="normal" in="SourceGraphic" in2="effect1_dropShadow_1230_81447" result="shape"/>
</filter>
</defs>
</svg>
