<svg width="45" height="44" viewBox="0 0 45 44" fill="none" xmlns="http://www.w3.org/2000/svg">
<rect opacity="0.12" x="4.16663" y="3.66663" width="36.6667" height="25.6667" rx="4" fill="black"/>
<path fill-rule="evenodd" clip-rule="evenodd" d="M10.5336 2.91663H10.5666H34.4333H34.4663C35.5584 2.91662 36.4239 2.91662 37.1216 2.97361C37.8349 3.0319 38.4386 3.15351 38.9897 3.43435C39.8835 3.88974 40.6102 4.6164 41.0656 5.51017C41.3464 6.06135 41.468 6.66497 41.5263 7.37836C41.5833 8.07598 41.5833 8.94147 41.5833 10.0336V10.0666V22.9333V22.9663C41.5833 24.0585 41.5833 24.9239 41.5263 25.6216C41.468 26.3349 41.3464 26.9386 41.0656 27.4897C40.6102 28.3835 39.8835 29.1102 38.9897 29.5656C38.4386 29.8464 37.8349 29.968 37.1216 30.0263C36.4239 30.0833 35.5585 30.0833 34.4663 30.0833H34.4333H10.5666H10.5336C9.44147 30.0833 8.57598 30.0833 7.87836 30.0263C7.16497 29.968 6.56135 29.8464 6.01017 29.5656C5.1164 29.1102 4.38974 28.3835 3.93435 27.4897C3.65351 26.9386 3.5319 26.3349 3.47361 25.6216C3.41662 24.9239 3.41662 24.0584 3.41663 22.9663V22.9333V10.0666V10.0336V10.0336C3.41662 8.94147 3.41662 8.07598 3.47361 7.37836C3.5319 6.66497 3.65351 6.06135 3.93435 5.51017C4.38974 4.6164 5.1164 3.88974 6.01017 3.43435C6.56135 3.15351 7.16497 3.0319 7.87836 2.97361C8.57598 2.91662 9.44148 2.91662 10.5336 2.91663H10.5336ZM8.00051 4.46863C7.37988 4.51934 6.99563 4.61572 6.69116 4.77086C6.07963 5.08244 5.58244 5.57963 5.27086 6.19116C5.11572 6.49563 5.01934 6.87988 4.96863 7.50051C4.91721 8.12989 4.91663 8.93414 4.91663 10.0666V22.9333C4.91663 24.0658 4.91721 24.87 4.96863 25.4994C5.01934 26.12 5.11572 26.5043 5.27086 26.8088C5.58244 27.4203 6.07963 27.9175 6.69116 28.2291C6.99563 28.3842 7.37988 28.4806 8.00051 28.5313C8.62989 28.5827 9.43415 28.5833 10.5666 28.5833H34.4333C35.5658 28.5833 36.37 28.5827 36.9994 28.5313C37.62 28.4806 38.0043 28.3842 38.3088 28.2291C38.9203 27.9175 39.4175 27.4203 39.7291 26.8088C39.8842 26.5043 39.9806 26.12 40.0313 25.4994C40.0827 24.87 40.0833 24.0658 40.0833 22.9333V10.0666C40.0833 8.93414 40.0827 8.12989 40.0313 7.50051C39.9806 6.87988 39.8842 6.49563 39.7291 6.19116C39.4175 5.57963 38.9203 5.08244 38.3088 4.77086C38.0043 4.61572 37.62 4.51934 36.9994 4.46863C36.37 4.41721 35.5658 4.41663 34.4333 4.41663H10.5666C9.43415 4.41663 8.62989 4.41721 8.00051 4.46863ZM18.0833 20.1666C18.0833 19.7524 18.4191 19.4166 18.8333 19.4166H26.1666C26.5808 19.4166 26.9166 19.7524 26.9166 20.1666C26.9166 20.5808 26.5808 20.9166 26.1666 20.9166H18.8333C18.4191 20.9166 18.0833 20.5808 18.0833 20.1666ZM11.5 22C12.5125 22 13.3333 21.1791 13.3333 20.1666C13.3333 19.1541 12.5125 18.3333 11.5 18.3333C10.4874 18.3333 9.66663 19.1541 9.66663 20.1666C9.66663 21.1791 10.4874 22 11.5 22ZM35.3333 20.1666C35.3333 21.1791 34.5125 22 33.5 22C32.4874 22 31.6666 21.1791 31.6666 20.1666C31.6666 19.1541 32.4874 18.3333 33.5 18.3333C34.5125 18.3333 35.3333 19.1541 35.3333 20.1666ZM33.5 14.6666C34.5125 14.6666 35.3333 13.8458 35.3333 12.8333C35.3333 11.8208 34.5125 11 33.5 11C32.4874 11 31.6666 11.8208 31.6666 12.8333C31.6666 13.8458 32.4874 14.6666 33.5 14.6666ZM13.3333 12.8333C13.3333 13.8458 12.5125 14.6666 11.5 14.6666C10.4874 14.6666 9.66663 13.8458 9.66663 12.8333C9.66663 11.8208 10.4874 11 11.5 11C12.5125 11 13.3333 11.8208 13.3333 12.8333ZM18.8333 14.6666C19.8458 14.6666 20.6666 13.8458 20.6666 12.8333C20.6666 11.8208 19.8458 11 18.8333 11C17.8208 11 17 11.8208 17 12.8333C17 13.8458 17.8208 14.6666 18.8333 14.6666ZM28 12.8333C28 13.8458 27.1791 14.6666 26.1666 14.6666C25.1541 14.6666 24.3333 13.8458 24.3333 12.8333C24.3333 11.8208 25.1541 11 26.1666 11C27.1791 11 28 11.8208 28 12.8333ZM22.1137 36.4729C22.3647 36.3913 22.6352 36.3913 22.8862 36.4729C22.9829 36.5043 23.1096 36.5718 23.3292 36.7582C23.5555 36.9503 23.8276 37.2216 24.2324 37.6264L27.4696 40.8636C27.7625 41.1565 28.2374 41.1565 28.5303 40.8636C28.8232 40.5707 28.8232 40.0959 28.5303 39.803L25.293 36.5657L25.2715 36.5442L25.2714 36.5441C24.8938 36.1664 24.5785 35.8512 24.3 35.6147C24.0094 35.368 23.7097 35.1633 23.3498 35.0463C22.7974 34.8669 22.2025 34.8669 21.6502 35.0463C21.2902 35.1633 20.9905 35.368 20.7 35.6147C20.4214 35.8512 20.1062 36.1664 19.7285 36.5441L19.7284 36.5442L19.7069 36.5657L16.4696 39.803C16.1767 40.0959 16.1767 40.5707 16.4696 40.8636C16.7625 41.1565 17.2374 41.1565 17.5303 40.8636L20.7675 37.6264C21.1723 37.2216 21.4444 36.9503 21.6707 36.7582C21.8903 36.5718 22.017 36.5043 22.1137 36.4729Z" fill="black"/>
</svg>
