<svg width="583" height="509" viewBox="0 0 583 509" fill="none" xmlns="http://www.w3.org/2000/svg">
<rect x="0.0125122" y="0.685547" width="582" height="508" rx="56" fill="black"/>
<path d="M227.779 274.499L124.05 214.217L124.935 212.851L228.584 273.133L227.779 274.499Z" fill="#484848"/>
<path d="M478.946 410.63L375.216 349.474L376.102 348.088L479.75 409.243L478.946 410.63Z" fill="#484848"/>
<path d="M470.931 248.021L434.783 228.206L409.004 242.572L408.274 241.298L434.783 226.578L470.931 246.393L495.102 232.876L495.832 234.08L470.931 248.021Z" fill="#484848"/>
<path d="M175.452 371.317L139.673 350.676L114.158 365.641L113.435 364.314L139.673 348.981L175.452 369.622L199.377 355.542L200.1 356.795L175.452 371.317Z" fill="#484848"/>
<path d="M519.278 228.457C517.184 229.666 513.72 229.666 511.625 228.457C509.45 227.249 509.45 225.235 511.625 224.027C513.72 222.818 517.184 222.818 519.278 224.027C521.373 225.235 521.373 227.249 519.278 228.457Z" fill="#484848"/>
<path d="M96.3404 374.27C94.2459 375.479 90.7818 375.479 88.6872 374.27C86.5121 373.062 86.5121 371.048 88.6872 369.839C90.7818 368.631 94.2459 368.631 96.3404 369.839C98.4349 371.048 98.4349 373.062 96.3404 374.27Z" fill="#484848"/>
<path fill-rule="evenodd" clip-rule="evenodd" d="M282.406 403.482L282.068 403.279L117.902 308.914L118.916 308.307L319.714 192.627L320.052 192.829L484.218 287.194L483.204 287.802L282.406 403.482ZM120.606 308.914L282.406 401.93L481.447 287.194L319.714 194.178L120.606 308.914Z" fill="#484848"/>
<path d="M435.078 105.962V110.966L467.867 129.907V124.993L435.078 105.962Z" fill="#484848"/>
<path d="M532.911 129.371L500.121 148.67L500.21 242.482L532.911 223.898V129.371Z" fill="#1C1C1C"/>
<path d="M435.078 110.966L500.121 148.669L500.21 242.482L435.167 204.957L435.078 110.966Z" fill="#3D3D3D"/>
<path d="M533 223.63L500.21 242.482V247.396L533 228.365V223.63Z" fill="#484848"/>
<path d="M500.21 242.482V247.396L435.167 209.871V204.957L500.21 242.482Z" fill="#484848"/>
<path d="M500.121 143.666L532.821 124.635L532.911 129.371L500.121 148.58V143.666Z" fill="#484848"/>
<path d="M467.331 124.725V129.639L500.121 148.669V143.666L467.331 124.725Z" fill="#484848"/>
<path d="M500.121 144.023L435.078 105.962L467.689 87.1997L532.821 124.635L500.121 144.023Z" fill="#282828"/>
<path d="M474.568 124.814L477.517 126.601L499.942 139.914L522.636 126.512L525.584 124.725L500.032 110.162L474.568 124.814Z" fill="black"/>
<path d="M477.517 126.601L499.942 139.914L522.636 126.512L500.032 113.646L477.517 126.601Z" fill="#161616"/>
<path d="M442.583 106.409L445.531 108.196L468.046 121.419L490.65 108.017L493.688 106.32L468.046 91.7565L442.583 106.409Z" fill="black"/>
<path d="M445.531 108.196L468.046 121.419L490.65 108.017L468.046 95.2411L445.531 108.196Z" fill="#161616"/>
<path d="M483.503 148.938V163.948L469.922 156.086L483.056 163.68V148.67L483.503 148.938Z" fill="black"/>
<path d="M483.503 148.491V163.591L469.922 155.639V140.629L483.503 148.491Z" fill="black"/>
<path d="M483.145 148.58L469.922 140.986V155.103L469.118 155.549V140.539L483.145 148.58Z" fill="black"/>
<path d="M483.503 162.787V163.769L469.297 155.46L469.922 155.013L483.503 162.787Z" fill="black"/>
<path d="M483.056 148.58L469.922 140.986V155.192L469.118 155.549V140.539L483.056 148.58Z" fill="#484848"/>
<path d="M483.503 162.876V163.859L469.208 155.46L469.922 155.103L483.503 162.876Z" fill="black"/>
<path d="M476.444 144.649V158.855L475.64 159.213V144.203L476.444 144.649Z" fill="#484848"/>
<path d="M475.104 143.488V158.945L475.64 159.213V144.203L475.104 143.488Z" fill="black"/>
<path fill-rule="evenodd" clip-rule="evenodd" d="M483.503 148.402V164.484L468.582 155.817V139.735L483.503 148.402ZM482.967 148.759L469.208 140.807V155.549L482.967 163.501V148.759Z" fill="#606060"/>
<path d="M483.503 173.508V188.607L469.922 180.745L483.056 188.339V173.24L483.503 173.508Z" fill="black"/>
<path d="M483.503 173.15V188.25L469.922 180.298V165.288L483.503 173.15Z" fill="black"/>
<path d="M483.145 173.24L469.922 165.645V179.762L469.118 180.209V165.199L483.145 173.24Z" fill="black"/>
<path d="M483.503 187.356V188.429L469.297 180.119L469.922 179.673L483.503 187.356Z" fill="black"/>
<path d="M483.056 173.24L469.922 165.645V179.762L469.118 180.209V165.199L483.056 173.24Z" fill="#484848"/>
<path d="M483.503 187.446V188.518L469.208 180.12L469.922 179.762L483.503 187.446Z" fill="black"/>
<path d="M476.444 169.309V183.514L475.64 183.872V168.862L476.444 169.309Z" fill="#484848"/>
<path d="M475.104 168.147V183.604L475.64 183.872V168.862L475.104 168.147Z" fill="black"/>
<path fill-rule="evenodd" clip-rule="evenodd" d="M483.503 173.061V189.143L468.582 180.477V164.395L483.503 173.061ZM482.967 173.419L469.208 165.467V180.209L482.967 188.161V173.419Z" fill="#606060"/>
<path d="M483.503 198.167V213.267L469.922 205.315L483.056 212.999V197.899L483.503 198.167Z" fill="black"/>
<path d="M483.503 197.721V212.82L469.922 204.957V189.858L483.503 197.721Z" fill="black"/>
<path d="M483.145 197.899L469.922 190.305V204.332L469.118 204.868V189.769L483.145 197.899Z" fill="black"/>
<path d="M483.503 212.016V212.999L469.297 204.69L469.922 204.332L483.503 212.016Z" fill="black"/>
<path d="M483.056 197.899L469.922 190.215V204.421L469.118 204.868V189.769L483.056 197.899Z" fill="#484848"/>
<path d="M483.503 212.105V213.088L469.208 204.779L469.922 204.332L483.503 212.105Z" fill="black"/>
<path d="M476.444 193.968V208.085L475.64 208.531V193.521L476.444 193.968Z" fill="#484848"/>
<path d="M475.104 192.807V208.174L475.64 208.532V193.522L475.104 192.807Z" fill="black"/>
<path fill-rule="evenodd" clip-rule="evenodd" d="M483.503 197.631V213.713L468.582 205.047V189.054L483.503 197.631ZM482.967 197.899L469.208 189.948V204.689L482.967 212.731V197.899Z" fill="#606060"/>
<path d="M460.273 134.821V150.099L455.18 147.061V131.783L460.273 134.821Z" fill="black"/>
<path d="M455.27 132.23V146.525L454.376 146.972V131.694L455.27 132.23Z" fill="black"/>
<path d="M460.273 149.384V150.278L454.555 146.883L455.27 146.436L460.273 149.384Z" fill="black"/>
<path d="M455.18 132.23V146.525L454.376 146.972V131.694L455.18 132.23Z" fill="#484848"/>
<path d="M460.273 149.473V150.367L454.466 146.882L455.18 146.525L460.273 149.473Z" fill="black"/>
<path fill-rule="evenodd" clip-rule="evenodd" d="M460.988 135.178V151.35L453.929 147.24V131.068L460.988 135.178ZM460.184 135.268L454.376 131.873V146.883L460.184 150.188V135.268Z" fill="#606060"/>
<path d="M460.273 159.48V174.759L455.18 171.721V156.443L460.273 159.48Z" fill="black"/>
<path d="M455.27 156.89V171.185L454.466 171.632V156.354L455.27 156.89Z" fill="black"/>
<path d="M460.273 174.044V174.938L454.555 171.542L455.269 171.096L460.273 174.044Z" fill="black"/>
<path d="M455.18 156.89V171.185L454.376 171.632V156.354L455.18 156.89Z" fill="#484848"/>
<path d="M460.273 174.133V175.027L454.555 171.542L455.18 171.185L460.273 174.133Z" fill="black"/>
<path fill-rule="evenodd" clip-rule="evenodd" d="M461.077 159.838V176.009L453.929 171.899V155.728L461.077 159.838ZM460.273 159.927L454.555 156.621V171.542L460.273 174.937V159.927Z" fill="#606060"/>
<path d="M460.273 184.14V199.418L455.18 196.38V181.102L460.273 184.14Z" fill="black"/>
<path d="M455.27 181.549V195.755L454.466 196.291V181.013L455.27 181.549Z" fill="black"/>
<path d="M460.273 198.703V199.597L454.555 196.201L455.269 195.755L460.273 198.703Z" fill="black"/>
<path d="M455.18 181.549V195.844L454.376 196.291V181.013L455.18 181.549Z" fill="#484848"/>
<path d="M460.273 198.792V199.686L454.555 196.201L455.18 195.844L460.273 198.792Z" fill="black"/>
<path fill-rule="evenodd" clip-rule="evenodd" d="M461.077 184.497V200.669L453.929 196.559V180.387L461.077 184.497ZM460.273 184.586L454.555 181.191V196.201L460.273 199.507V184.586Z" fill="#606060"/>
<path d="M445.71 195.844L452.053 192.181V198.077L445.71 201.83V195.844Z" fill="#1C1C1C"/>
<path d="M452.053 192.181L450.534 191.287L445.531 194.146L445.71 195.844L452.053 192.181Z" fill="#484848"/>
<path d="M460.184 202.634L465.187 199.775V208.263L460.184 211.211V202.634Z" fill="#1C1C1C"/>
<path d="M460.184 202.634L445.531 194.146V202.723L460.184 211.211V202.634Z" fill="#2D2D2D"/>
<path d="M445.531 194.146L446.961 193.342L461.613 201.83L460.184 202.634L445.531 194.146Z" fill="#484848"/>
<path d="M465.187 199.775L463.668 198.792L458.665 201.741L460.184 202.634L465.187 199.775Z" fill="#484848"/>
<path d="M445.71 171.274L452.143 167.522V173.418L445.71 177.171V171.274Z" fill="#1C1C1C"/>
<path d="M452.143 167.522L450.534 166.628L445.531 169.487L445.71 171.274L452.143 167.522Z" fill="#484848"/>
<path d="M460.273 177.975L465.187 175.116L465.276 183.604L460.273 186.552V177.975Z" fill="#1C1C1C"/>
<path d="M460.273 177.975L445.531 169.487V178.064L460.273 186.552V177.975Z" fill="#2D2D2D"/>
<path d="M445.531 169.487L446.961 168.683L461.613 177.171L460.273 177.975L445.531 169.487Z" fill="#484848"/>
<path d="M465.187 175.116L463.668 174.223L458.665 177.082L460.273 177.975L465.187 175.116Z" fill="#484848"/>
<path d="M445.71 146.615L452.143 142.862V148.759L445.71 152.511V146.615Z" fill="#1C1C1C"/>
<path d="M452.143 142.862L450.534 141.969L445.531 144.828L445.71 146.615L452.143 142.862Z" fill="#484848"/>
<path d="M460.273 153.316L465.187 150.456L465.276 158.944L460.273 161.893V153.316Z" fill="#1C1C1C"/>
<path d="M460.273 153.315L445.531 144.828V153.405L460.273 161.893V153.315Z" fill="#2D2D2D"/>
<path d="M445.531 144.828L446.961 144.023L461.613 152.511L460.273 153.315L445.531 144.828Z" fill="#484848"/>
<path d="M465.187 150.457L463.668 149.563L458.665 152.422L460.273 153.316L465.187 150.457Z" fill="#484848"/>
<path d="M509.591 152.958V168.057L523.172 160.105L510.038 167.7V152.69L509.591 152.958Z" fill="black"/>
<path d="M509.591 152.511V167.61L523.172 159.659V144.649L509.591 152.511Z" fill="black"/>
<path d="M509.949 152.6L523.172 145.006V159.122L523.976 159.569V144.559L509.949 152.6Z" fill="black"/>
<path d="M509.591 166.806V167.789L523.797 159.48L523.172 159.123L509.591 166.806Z" fill="black"/>
<path d="M510.038 152.6L523.172 145.006V159.212L523.976 159.569V144.559L510.038 152.6Z" fill="#484848"/>
<path d="M509.591 166.896V167.879L523.887 159.569L523.172 159.123L509.591 166.896Z" fill="black"/>
<path d="M516.65 148.758V162.875L517.454 163.322V148.222L516.65 148.758Z" fill="#484848"/>
<path d="M517.99 147.597V162.965L517.454 163.322V148.223L517.99 147.597Z" fill="black"/>
<path fill-rule="evenodd" clip-rule="evenodd" d="M524.512 143.845V159.837L509.592 168.504V152.422L524.512 143.845ZM510.128 167.61L523.887 159.569V144.827L510.128 152.779V167.61Z" fill="#606060"/>
<path d="M509.591 177.617V192.716L523.172 184.765L510.038 192.359V177.349L509.591 177.617Z" fill="black"/>
<path d="M509.591 177.17V192.27L523.172 184.318V169.308L509.591 177.17Z" fill="black"/>
<path d="M509.949 177.26L523.172 169.665V183.782L523.976 184.228V169.219L509.949 177.26Z" fill="black"/>
<path d="M509.591 191.466V192.449L523.797 184.139L523.172 183.782L509.591 191.466Z" fill="black"/>
<path d="M510.038 177.26L523.172 169.665V183.871L523.976 184.228V169.219L510.038 177.26Z" fill="#484848"/>
<path d="M509.591 191.555V192.538L523.887 184.139L523.172 183.782L509.591 191.555Z" fill="black"/>
<path d="M516.65 173.418V187.534L517.454 187.981V172.882L516.65 173.418Z" fill="#484848"/>
<path d="M517.99 172.167V187.624L517.454 187.981V172.882L517.99 172.167Z" fill="black"/>
<path fill-rule="evenodd" clip-rule="evenodd" d="M524.512 168.414V184.497L509.591 193.163V177.081L524.512 168.414ZM510.128 192.18L523.887 184.139V169.397L510.128 177.349V192.18Z" fill="#606060"/>
<path d="M509.591 202.187V217.286L523.172 209.424L510.038 217.018V201.919L509.591 202.187Z" fill="black"/>
<path d="M509.591 201.83V216.84L523.172 208.977V193.878L509.591 201.83Z" fill="black"/>
<path d="M509.949 201.919L523.172 194.325V208.352L523.976 208.888V193.789L509.949 201.919Z" fill="black"/>
<path d="M509.591 216.036V217.108L523.797 208.799L523.172 208.352L509.591 216.036Z" fill="black"/>
<path d="M510.038 201.919L523.172 194.325V208.441L523.976 208.888V193.789L510.038 201.919Z" fill="#484848"/>
<path d="M509.591 216.125V217.197L523.887 208.799L523.172 208.352L509.591 216.125Z" fill="black"/>
<path d="M516.65 197.988V212.194L517.454 212.551V197.541L516.65 197.988Z" fill="#484848"/>
<path d="M517.99 196.827V212.283L517.454 212.551V197.541L517.99 196.827Z" fill="black"/>
<path fill-rule="evenodd" clip-rule="evenodd" d="M524.512 193.074V209.156L509.591 217.822V201.74L524.512 193.074ZM510.128 216.75L523.887 208.799V193.967L510.128 201.919V216.75Z" fill="#606060"/>
<path d="M64.2952 281.972V286.976L97.0849 305.917V301.003L64.2952 281.972Z" fill="#484848"/>
<path d="M162.128 305.381L129.339 324.68L129.428 418.492L162.128 399.908V305.381Z" fill="#1C1C1C"/>
<path d="M64.2952 286.976L129.339 324.679L129.428 418.492L64.3846 380.967L64.2952 286.976Z" fill="#3D3D3D"/>
<path d="M162.218 399.64L129.428 418.492V423.406L162.218 404.375V399.64Z" fill="#484848"/>
<path d="M129.428 418.492V423.406L64.3845 385.881V380.967L129.428 418.492Z" fill="#484848"/>
<path d="M129.339 319.676L162.039 300.645L162.128 305.381L129.339 324.59V319.676Z" fill="#484848"/>
<path d="M96.5488 300.735V305.649L129.339 324.679V319.676L96.5488 300.735Z" fill="#484848"/>
<path d="M129.339 320.033L64.2952 281.972L96.9062 263.21L162.039 300.646L129.339 320.033Z" fill="#282828"/>
<path d="M103.786 300.824L106.734 302.611L129.16 315.924L151.854 302.522L154.802 300.735L129.249 286.172L103.786 300.824Z" fill="black"/>
<path d="M106.734 302.611L129.16 315.923L151.854 302.522L129.249 289.656L106.734 302.611Z" fill="#161616"/>
<path d="M71.8002 282.419L74.7486 284.206L97.2635 297.429L119.868 284.027L122.906 282.33L97.2635 267.767L71.8002 282.419Z" fill="black"/>
<path d="M74.7486 284.206L97.2635 297.429L119.868 284.027L97.2635 271.251L74.7486 284.206Z" fill="#161616"/>
<path d="M112.72 324.947V339.957L99.1398 332.095L112.274 339.689V324.679L112.72 324.947Z" fill="black"/>
<path d="M112.72 324.501V339.6L99.1398 331.648V316.638L112.72 324.501Z" fill="black"/>
<path d="M112.363 324.59L99.1398 316.996V331.112L98.3357 331.559V316.549L112.363 324.59Z" fill="black"/>
<path d="M112.72 338.796V339.779L98.5144 331.47L99.1398 331.023L112.72 338.796Z" fill="black"/>
<path d="M112.274 324.59L99.1398 316.996V331.201L98.3357 331.559V316.549L112.274 324.59Z" fill="#484848"/>
<path d="M112.72 338.885V339.868L98.4251 331.47L99.1399 331.112L112.72 338.885Z" fill="black"/>
<path d="M105.662 320.659V334.865L104.858 335.222V320.212L105.662 320.659Z" fill="#484848"/>
<path d="M104.322 319.497V334.954L104.858 335.222V320.212L104.322 319.497Z" fill="black"/>
<path fill-rule="evenodd" clip-rule="evenodd" d="M112.72 324.411V340.493L97.7997 331.827V315.745L112.72 324.411ZM112.184 324.769L98.4251 316.817V331.559L112.184 339.511V324.769Z" fill="#606060"/>
<path d="M112.72 349.517V364.617L99.1398 356.754L112.274 364.349V349.249L112.72 349.517Z" fill="black"/>
<path d="M112.72 349.16V364.26L99.1398 356.308V341.298L112.72 349.16Z" fill="black"/>
<path d="M112.363 349.249L99.1398 341.655V355.772L98.3357 356.218V341.208L112.363 349.249Z" fill="black"/>
<path d="M112.72 363.366V364.438L98.5144 356.129L99.1398 355.682L112.72 363.366Z" fill="black"/>
<path d="M112.274 349.249L99.1398 341.655V355.772L98.3357 356.218V341.208L112.274 349.249Z" fill="#484848"/>
<path d="M112.72 363.456V364.528L98.4251 356.129L99.1399 355.772L112.72 363.456Z" fill="black"/>
<path d="M105.662 345.318V359.524L104.858 359.882V344.872L105.662 345.318Z" fill="#484848"/>
<path d="M104.322 344.157V359.614L104.858 359.882V344.872L104.322 344.157Z" fill="black"/>
<path fill-rule="evenodd" clip-rule="evenodd" d="M112.72 349.071V365.153L97.7997 356.486V340.404L112.72 349.071ZM112.184 349.428L98.4251 341.476V356.218L112.184 364.17V349.428Z" fill="#606060"/>
<path d="M112.72 374.176V389.276L99.1398 381.324L112.274 389.008V373.908L112.72 374.176Z" fill="black"/>
<path d="M112.72 373.73V388.829L99.1398 380.967V365.867L112.72 373.73Z" fill="black"/>
<path d="M112.363 373.908L99.1398 366.314V380.341L98.3357 380.877V365.778L112.363 373.908Z" fill="black"/>
<path d="M112.72 388.025V389.008L98.5144 380.699L99.1398 380.341L112.72 388.025Z" fill="black"/>
<path d="M112.274 373.908L99.1398 366.225V380.431L98.3357 380.877V365.778L112.274 373.908Z" fill="#484848"/>
<path d="M112.72 388.115V389.097L98.4251 380.788L99.1399 380.341L112.72 388.115Z" fill="black"/>
<path d="M105.662 369.977V384.094L104.858 384.541V369.531L105.662 369.977Z" fill="#484848"/>
<path d="M104.322 368.816V384.183L104.858 384.541V369.531L104.322 368.816Z" fill="black"/>
<path fill-rule="evenodd" clip-rule="evenodd" d="M112.72 373.641V389.723L97.7997 381.056V365.064L112.72 373.641ZM112.184 373.909L98.4251 365.957V380.699L112.184 388.74V373.909Z" fill="#606060"/>
<path d="M89.4906 310.83V326.108L84.3979 323.071V307.793L89.4906 310.83Z" fill="black"/>
<path d="M84.4872 308.24V322.535L83.5938 322.982V307.704L84.4872 308.24Z" fill="black"/>
<path d="M89.4906 325.394V326.287L83.7725 322.892L84.4872 322.446L89.4906 325.394Z" fill="black"/>
<path d="M84.3979 308.24V322.535L83.5938 322.982V307.704L84.3979 308.24Z" fill="#484848"/>
<path d="M89.4906 325.483V326.376L83.6832 322.892L84.3979 322.535L89.4906 325.483Z" fill="black"/>
<path fill-rule="evenodd" clip-rule="evenodd" d="M90.2053 311.188V327.36L83.147 323.25V307.078L90.2053 311.188ZM89.4012 311.277L83.5938 307.882V322.892L89.4012 326.198V311.277Z" fill="#606060"/>
<path d="M89.4906 335.49V350.768L84.3979 347.73V332.452L89.4906 335.49Z" fill="black"/>
<path d="M84.4872 332.899V347.194L83.6832 347.641V332.363L84.4872 332.899Z" fill="black"/>
<path d="M89.4906 350.053V350.947L83.7725 347.552L84.4872 347.105L89.4906 350.053Z" fill="black"/>
<path d="M84.3979 332.899V347.194L83.5938 347.641V332.363L84.3979 332.899Z" fill="#484848"/>
<path d="M89.4906 350.142V351.036L83.7725 347.551L84.3979 347.194L89.4906 350.142Z" fill="black"/>
<path fill-rule="evenodd" clip-rule="evenodd" d="M90.2946 335.847V352.019L83.147 347.909V331.737L90.2946 335.847ZM89.4906 335.937L83.7725 332.631V347.552L89.4906 350.947V335.937Z" fill="#606060"/>
<path d="M89.4906 360.149V375.427L84.3979 372.39V357.112L89.4906 360.149Z" fill="black"/>
<path d="M84.4872 357.559V371.764L83.6832 372.301V357.023L84.4872 357.559Z" fill="black"/>
<path d="M89.4906 374.713V375.606L83.7725 372.211L84.4872 371.764L89.4906 374.713Z" fill="black"/>
<path d="M84.3979 357.559V371.854L83.5938 372.301V357.023L84.3979 357.559Z" fill="#484848"/>
<path d="M89.4906 374.802V375.695L83.7725 372.211L84.3979 371.854L89.4906 374.802Z" fill="black"/>
<path fill-rule="evenodd" clip-rule="evenodd" d="M90.2946 360.507V376.678L83.147 372.568V356.397L90.2946 360.507ZM89.4906 360.596L83.7725 357.201V372.211L89.4906 375.517V360.596Z" fill="#606060"/>
<path d="M74.9272 371.854L81.2708 368.191V374.088L74.9272 377.84V371.854Z" fill="#1C1C1C"/>
<path d="M81.2708 368.191L79.7519 367.297L74.7486 370.156L74.9272 371.854L81.2708 368.191Z" fill="#484848"/>
<path d="M89.4012 378.644L94.4045 375.785V384.273L89.4012 387.221V378.644Z" fill="#1C1C1C"/>
<path d="M89.4012 378.644L74.7486 370.156V378.734L89.4012 387.221V378.644Z" fill="#2D2D2D"/>
<path d="M74.7486 370.156L76.1781 369.352L90.8307 377.84L89.4012 378.644L74.7486 370.156Z" fill="#484848"/>
<path d="M94.4046 375.785L92.8857 374.802L87.8823 377.751L89.4012 378.644L94.4046 375.785Z" fill="#484848"/>
<path d="M74.9272 347.284L81.3601 343.531V349.428L74.9272 353.181V347.284Z" fill="#1C1C1C"/>
<path d="M81.3601 343.532L79.7519 342.638L74.7486 345.497L74.9272 347.284L81.3601 343.532Z" fill="#484848"/>
<path d="M89.4906 353.985L94.4046 351.126L94.4939 359.614L89.4906 362.562V353.985Z" fill="#1C1C1C"/>
<path d="M89.4906 353.984L74.7486 345.497V354.074L89.4906 362.562V353.984Z" fill="#2D2D2D"/>
<path d="M74.7486 345.497L76.1781 344.693L90.8307 353.18L89.4906 353.985L74.7486 345.497Z" fill="#484848"/>
<path d="M94.4046 351.126L92.8857 350.232L87.8823 353.091L89.4906 353.985L94.4046 351.126Z" fill="#484848"/>
<path d="M74.9272 322.625L81.3601 318.872V324.769L74.9272 328.521V322.625Z" fill="#1C1C1C"/>
<path d="M81.3601 318.872L79.7519 317.979L74.7486 320.838L74.9272 322.624L81.3601 318.872Z" fill="#484848"/>
<path d="M89.4906 329.326L94.4046 326.466L94.4939 334.954L89.4906 337.903V329.326Z" fill="#1C1C1C"/>
<path d="M89.4906 329.325L74.7486 320.837V329.414L89.4906 337.902V329.325Z" fill="#2D2D2D"/>
<path d="M74.7486 320.838L76.1781 320.033L90.8307 328.521L89.4906 329.325L74.7486 320.838Z" fill="#484848"/>
<path d="M94.4046 326.467L92.8857 325.573L87.8823 328.432L89.4906 329.326L94.4046 326.467Z" fill="#484848"/>
<path d="M138.809 328.968V344.067L152.39 336.115L139.256 343.71V328.7L138.809 328.968Z" fill="black"/>
<path d="M138.809 328.521V343.62L152.39 335.669V320.659L138.809 328.521Z" fill="black"/>
<path d="M139.167 328.61L152.39 321.016V335.132L153.194 335.579V320.569L139.167 328.61Z" fill="black"/>
<path d="M138.809 342.816V343.799L153.015 335.49L152.39 335.133L138.809 342.816Z" fill="black"/>
<path d="M139.256 328.61L152.39 321.016V335.222L153.194 335.579V320.569L139.256 328.61Z" fill="#484848"/>
<path d="M138.809 342.906V343.888L153.104 335.579L152.39 335.133L138.809 342.906Z" fill="black"/>
<path d="M145.867 324.768V338.885L146.671 339.332V324.232L145.867 324.768Z" fill="#484848"/>
<path d="M147.208 323.607V338.975L146.672 339.332V324.233L147.208 323.607Z" fill="black"/>
<path fill-rule="evenodd" clip-rule="evenodd" d="M153.73 319.854V335.847L138.809 344.514V328.432L153.73 319.854ZM139.345 343.62L153.104 335.579V320.837L139.345 328.789V343.62Z" fill="#606060"/>
<path d="M138.809 353.627V368.727L152.39 360.775L139.256 368.369V353.359L138.809 353.627Z" fill="black"/>
<path d="M138.809 353.18V368.28L152.39 360.328V345.318L138.809 353.18Z" fill="black"/>
<path d="M139.167 353.27L152.39 345.675V359.792L153.194 360.239V345.229L139.167 353.27Z" fill="black"/>
<path d="M138.809 367.476V368.459L153.015 360.15L152.39 359.792L138.809 367.476Z" fill="black"/>
<path d="M139.256 353.27L152.39 345.675V359.881L153.194 360.239V345.229L139.256 353.27Z" fill="#484848"/>
<path d="M138.809 367.565V368.548L153.104 360.15L152.39 359.792L138.809 367.565Z" fill="black"/>
<path d="M145.867 349.428V363.545L146.671 363.991V348.892L145.867 349.428Z" fill="#484848"/>
<path d="M147.208 348.177V363.634L146.672 363.991V348.892L147.208 348.177Z" fill="black"/>
<path fill-rule="evenodd" clip-rule="evenodd" d="M153.73 344.424V360.507L138.809 369.173V353.091L153.73 344.424ZM139.345 368.19L153.104 360.149V345.407L139.345 353.359V368.19Z" fill="#606060"/>
<path d="M138.809 378.197V393.296L152.39 385.434L139.256 393.028V377.929L138.809 378.197Z" fill="black"/>
<path d="M138.809 377.839V392.849L152.39 384.987V369.888L138.809 377.839Z" fill="black"/>
<path d="M139.167 377.929L152.39 370.334V384.362L153.194 384.898V369.798L139.167 377.929Z" fill="black"/>
<path d="M138.809 392.045V393.118L153.015 384.809L152.39 384.362L138.809 392.045Z" fill="black"/>
<path d="M139.256 377.929L152.39 370.334V384.451L153.194 384.898V369.798L139.256 377.929Z" fill="#484848"/>
<path d="M138.809 392.135V393.207L153.104 384.809L152.39 384.362L138.809 392.135Z" fill="black"/>
<path d="M145.867 373.998V388.204L146.671 388.561V373.551L145.867 373.998Z" fill="#484848"/>
<path d="M147.208 372.836V388.293L146.672 388.561V373.551L147.208 372.836Z" fill="black"/>
<path fill-rule="evenodd" clip-rule="evenodd" d="M153.73 369.084V385.166L138.809 393.832V377.75L153.73 369.084ZM139.345 392.76L153.104 384.809V369.977L139.345 377.929V392.76Z" fill="#606060"/>
<path d="M49 90.4479V95.4513L81.7897 114.392V109.478L49 90.4479Z" fill="#484848"/>
<path d="M146.833 113.857L114.043 133.155L114.133 226.968L146.833 208.384V113.857Z" fill="#1C1C1C"/>
<path d="M49 95.4514L114.043 133.155L114.133 226.967L49.0893 189.442L49 95.4514Z" fill="#3D3D3D"/>
<path d="M146.922 208.116L114.133 226.968V231.882L146.922 212.851V208.116Z" fill="#484848"/>
<path d="M114.133 226.967V231.881L49.0893 194.356V189.442L114.133 226.967Z" fill="#484848"/>
<path d="M114.043 128.151L146.744 109.121L146.833 113.856L114.043 133.065V128.151Z" fill="#484848"/>
<path d="M81.2536 109.21V114.124L114.043 133.155V128.151L81.2536 109.21Z" fill="#484848"/>
<path d="M114.043 128.509L49 90.448L81.611 71.6855L146.744 109.121L114.043 128.509Z" fill="#282828"/>
<path d="M88.4906 109.3L91.439 111.087L113.865 124.399L136.558 110.998L139.507 109.211L113.954 94.6473L88.4906 109.3Z" fill="black"/>
<path d="M91.439 111.087L113.865 124.399L136.558 110.997L113.954 98.1316L91.439 111.087Z" fill="#161616"/>
<path d="M56.5049 90.8948L59.4534 92.6817L81.9683 105.905L104.573 92.503L107.61 90.8055L81.9683 76.2422L56.5049 90.8948Z" fill="black"/>
<path d="M59.4534 92.6816L81.9683 105.905L104.573 92.5029L81.9683 79.7266L59.4534 92.6816Z" fill="#161616"/>
<path d="M97.4251 133.423V148.433L83.8446 140.571L96.9784 148.165V133.155L97.4251 133.423Z" fill="black"/>
<path d="M97.4251 132.976V148.076L83.8446 140.124V125.114L97.4251 132.976Z" fill="black"/>
<path d="M97.0677 133.065L83.8446 125.471V139.588L83.0405 140.034V125.024L97.0677 133.065Z" fill="black"/>
<path d="M97.4251 147.272V148.254L83.2192 139.945L83.8446 139.499L97.4251 147.272Z" fill="black"/>
<path d="M96.9783 133.065L83.8446 125.471V139.677L83.0405 140.034V125.024L96.9783 133.065Z" fill="#484848"/>
<path d="M97.4251 147.361V148.344L83.1299 139.945L83.8446 139.588L97.4251 147.361Z" fill="black"/>
<path d="M90.3668 129.134V143.34L89.5627 143.698V128.688L90.3668 129.134Z" fill="#484848"/>
<path d="M89.0266 127.973V143.43L89.5627 143.698V128.688L89.0266 127.973Z" fill="black"/>
<path fill-rule="evenodd" clip-rule="evenodd" d="M97.4251 132.887V148.969L82.5045 140.303V124.22L97.4251 132.887ZM96.889 133.244L83.1299 125.293V140.035L96.889 147.986V133.244Z" fill="#606060"/>
<path d="M97.4251 157.993V173.092L83.8446 165.23L96.9784 172.824V157.725L97.4251 157.993Z" fill="black"/>
<path d="M97.4251 157.636V172.735L83.8446 164.783V149.773L97.4251 157.636Z" fill="black"/>
<path d="M97.0677 157.725L83.8446 150.131V164.247L83.0405 164.694V149.684L97.0677 157.725Z" fill="black"/>
<path d="M97.4251 171.842V172.914L83.2192 164.605L83.8446 164.158L97.4251 171.842Z" fill="black"/>
<path d="M96.9783 157.725L83.8446 150.131V164.247L83.0405 164.694V149.684L96.9783 157.725Z" fill="#484848"/>
<path d="M97.4251 171.931V173.003L83.1299 164.605L83.8446 164.247L97.4251 171.931Z" fill="black"/>
<path d="M90.3668 153.794V168L89.5627 168.357V153.347L90.3668 153.794Z" fill="#484848"/>
<path d="M89.0266 152.633V168.089L89.5627 168.357V153.347L89.0266 152.633Z" fill="black"/>
<path fill-rule="evenodd" clip-rule="evenodd" d="M97.4251 157.546V173.628L82.5045 164.962V148.88L97.4251 157.546ZM96.889 157.904L83.1299 149.952V164.694L96.889 172.646V157.904Z" fill="#606060"/>
<path d="M97.4251 182.652V197.751L83.8446 189.8L96.9784 197.483V182.384L97.4251 182.652Z" fill="black"/>
<path d="M97.4251 182.205V197.305L83.8446 189.442V174.343L97.4251 182.205Z" fill="black"/>
<path d="M97.0677 182.384L83.8446 174.79V188.817L83.0405 189.353V174.254L97.0677 182.384Z" fill="black"/>
<path d="M97.4251 196.501V197.484L83.2192 189.174L83.8446 188.817L97.4251 196.501Z" fill="black"/>
<path d="M96.9783 182.384L83.8446 174.7V188.906L83.0405 189.353V174.254L96.9783 182.384Z" fill="#484848"/>
<path d="M97.4251 196.59V197.573L83.1299 189.264L83.8446 188.817L97.4251 196.59Z" fill="black"/>
<path d="M90.3668 178.453V192.569L89.5627 193.016V178.006L90.3668 178.453Z" fill="#484848"/>
<path d="M89.0266 177.292V192.659L89.5627 193.016V178.006L89.0266 177.292Z" fill="black"/>
<path fill-rule="evenodd" clip-rule="evenodd" d="M97.4251 182.116V198.198L82.5045 189.532V173.539L97.4251 182.116ZM96.889 182.384L83.1299 174.433V189.175L96.889 197.216V182.384Z" fill="#606060"/>
<path d="M74.1953 119.306V134.584L69.1027 131.546V116.268L74.1953 119.306Z" fill="black"/>
<path d="M69.192 116.715V131.011L68.2985 131.457V116.179L69.192 116.715Z" fill="black"/>
<path d="M74.1953 133.87V134.763L68.4772 131.368L69.192 130.921L74.1953 133.87Z" fill="black"/>
<path d="M69.1027 116.715V131.011L68.2985 131.457V116.179L69.1027 116.715Z" fill="#484848"/>
<path d="M74.1954 133.959V134.852L68.3879 131.368L69.1027 131.01L74.1954 133.959Z" fill="black"/>
<path fill-rule="evenodd" clip-rule="evenodd" d="M74.9101 119.664V135.835L67.8518 131.725V115.554L74.9101 119.664ZM74.106 119.753L68.2985 116.358V131.368L74.106 134.674V119.753Z" fill="#606060"/>
<path d="M74.1953 143.965V159.243L69.1027 156.206V140.928L74.1953 143.965Z" fill="black"/>
<path d="M69.192 141.375V155.67L68.3879 156.117V140.839L69.192 141.375Z" fill="black"/>
<path d="M74.1953 158.529V159.422L68.4772 156.027L69.192 155.581L74.1953 158.529Z" fill="black"/>
<path d="M69.1027 141.375V155.67L68.2985 156.117V140.839L69.1027 141.375Z" fill="#484848"/>
<path d="M74.1953 158.618V159.511L68.4772 156.027L69.1027 155.67L74.1953 158.618Z" fill="black"/>
<path fill-rule="evenodd" clip-rule="evenodd" d="M74.9994 144.323V160.494L67.8518 156.384V140.213L74.9994 144.323ZM74.1953 144.412L68.4772 141.106V156.027L74.1953 159.422V144.412Z" fill="#606060"/>
<path d="M74.1953 168.625V183.903L69.1027 180.865V165.587L74.1953 168.625Z" fill="black"/>
<path d="M69.192 166.034V180.24L68.3879 180.776V165.498L69.192 166.034Z" fill="black"/>
<path d="M74.1953 183.189V184.082L68.4772 180.687L69.192 180.24L74.1953 183.189Z" fill="black"/>
<path d="M69.1027 166.034V180.329L68.2985 180.776V165.498L69.1027 166.034Z" fill="#484848"/>
<path d="M74.1953 183.277V184.171L68.4772 180.686L69.1027 180.329L74.1953 183.277Z" fill="black"/>
<path fill-rule="evenodd" clip-rule="evenodd" d="M74.9994 168.982V185.154L67.8518 181.044V164.872L74.9994 168.982ZM74.1953 169.072L68.4772 165.676V180.686L74.1953 183.992V169.072Z" fill="#606060"/>
<path d="M59.632 180.33L65.9756 176.667V182.563L59.632 186.316V180.33Z" fill="#1C1C1C"/>
<path d="M65.9756 176.666L64.4567 175.773L59.4534 178.632L59.632 180.33L65.9756 176.666Z" fill="#484848"/>
<path d="M74.106 187.12L79.1093 184.261V192.749L74.106 195.697V187.12Z" fill="#1C1C1C"/>
<path d="M74.1059 187.12L59.4534 178.632V187.209L74.1059 195.697V187.12Z" fill="#2D2D2D"/>
<path d="M59.4534 178.632L60.8829 177.828L75.5355 186.316L74.1059 187.12L59.4534 178.632Z" fill="#484848"/>
<path d="M79.1093 184.261L77.5905 183.278L72.5871 186.226L74.106 187.12L79.1093 184.261Z" fill="#484848"/>
<path d="M59.632 155.759L66.0649 152.007V157.904L59.632 161.656V155.759Z" fill="#1C1C1C"/>
<path d="M66.0649 152.007L64.4567 151.114L59.4534 153.973L59.632 155.76L66.0649 152.007Z" fill="#484848"/>
<path d="M74.1954 162.46L79.1094 159.601L79.1987 168.089L74.1954 171.038V162.46Z" fill="#1C1C1C"/>
<path d="M74.1953 162.46L59.4534 153.972V162.549L74.1953 171.037V162.46Z" fill="#2D2D2D"/>
<path d="M59.4534 153.972L60.8829 153.168L75.5355 161.656L74.1953 162.46L59.4534 153.972Z" fill="#484848"/>
<path d="M79.1093 159.601L77.5905 158.708L72.5871 161.567L74.1954 162.46L79.1093 159.601Z" fill="#484848"/>
<path d="M59.632 131.1L66.0649 127.348V133.245L59.632 136.997V131.1Z" fill="#1C1C1C"/>
<path d="M66.0649 127.348L64.4567 126.454L59.4534 129.313L59.632 131.1L66.0649 127.348Z" fill="#484848"/>
<path d="M74.1954 137.801L79.1094 134.942L79.1987 143.43L74.1954 146.378V137.801Z" fill="#1C1C1C"/>
<path d="M74.1953 137.801L59.4534 129.313V137.89L74.1953 146.378V137.801Z" fill="#2D2D2D"/>
<path d="M59.4534 129.313L60.8829 128.509L75.5355 136.997L74.1953 137.801L59.4534 129.313Z" fill="#484848"/>
<path d="M79.1093 134.942L77.5905 134.049L72.5871 136.908L74.1954 137.801L79.1093 134.942Z" fill="#484848"/>
<path d="M123.514 137.443V152.543L137.094 144.591L123.961 152.185V137.175L123.514 137.443Z" fill="black"/>
<path d="M123.514 136.997V152.096L137.094 144.144V129.134L123.514 136.997Z" fill="black"/>
<path d="M123.871 137.086L137.094 129.491V143.608L137.898 144.055V129.045L123.871 137.086Z" fill="black"/>
<path d="M123.514 151.292V152.275L137.72 143.966L137.094 143.608L123.514 151.292Z" fill="black"/>
<path d="M123.961 137.086L137.094 129.491V143.697L137.898 144.055V129.045L123.961 137.086Z" fill="#484848"/>
<path d="M123.514 151.381V152.364L137.809 144.055L137.094 143.608L123.514 151.381Z" fill="black"/>
<path d="M130.572 133.244V147.361L131.376 147.807V132.708L130.572 133.244Z" fill="#484848"/>
<path d="M131.912 132.083V147.45L131.376 147.808V132.708L131.912 132.083Z" fill="black"/>
<path fill-rule="evenodd" clip-rule="evenodd" d="M138.435 128.33V144.323L123.514 152.989V136.907L138.435 128.33ZM124.05 152.096L137.809 144.055V129.313L124.05 137.265V152.096Z" fill="#606060"/>
<path d="M123.514 162.103V177.202L137.094 169.25L123.961 176.845V161.835L123.514 162.103Z" fill="black"/>
<path d="M123.514 161.656V176.755L137.094 168.804V153.794L123.514 161.656Z" fill="black"/>
<path d="M123.871 161.745L137.094 154.151V168.268L137.898 168.714V153.704L123.871 161.745Z" fill="black"/>
<path d="M123.514 175.951V176.934L137.72 168.625L137.094 168.268L123.514 175.951Z" fill="black"/>
<path d="M123.961 161.745L137.094 154.151V168.357L137.898 168.714V153.704L123.961 161.745Z" fill="#484848"/>
<path d="M123.514 176.041V177.024L137.809 168.625L137.094 168.268L123.514 176.041Z" fill="black"/>
<path d="M130.572 157.904V172.02L131.376 172.467V157.368L130.572 157.904Z" fill="#484848"/>
<path d="M131.912 156.653V172.11L131.376 172.467V157.368L131.912 156.653Z" fill="black"/>
<path fill-rule="evenodd" clip-rule="evenodd" d="M138.435 152.9V168.982L123.514 177.649V161.567L138.435 152.9ZM124.05 176.666L137.809 168.625V153.883L124.05 161.835V176.666Z" fill="#606060"/>
<path d="M123.514 186.672V201.772L137.094 193.909L123.961 201.504V186.404L123.514 186.672Z" fill="black"/>
<path d="M123.514 186.315V201.325L137.094 193.463V178.363L123.514 186.315Z" fill="black"/>
<path d="M123.871 186.404L137.094 178.81V192.837L137.898 193.373V178.274L123.871 186.404Z" fill="black"/>
<path d="M123.514 200.521V201.593L137.72 193.284L137.094 192.837L123.514 200.521Z" fill="black"/>
<path d="M123.961 186.404L137.094 178.81V192.926L137.898 193.373V178.274L123.961 186.404Z" fill="#484848"/>
<path d="M123.514 200.61V201.683L137.809 193.284L137.094 192.837L123.514 200.61Z" fill="black"/>
<path d="M130.572 182.473V196.679L131.376 197.037V182.027L130.572 182.473Z" fill="#484848"/>
<path d="M131.912 181.312V196.769L131.376 197.037V182.027L131.912 181.312Z" fill="black"/>
<path fill-rule="evenodd" clip-rule="evenodd" d="M138.435 177.559V193.642L123.514 202.308V186.226L138.435 177.559ZM124.05 201.236L137.809 193.284V178.453L124.05 186.405V201.236Z" fill="#606060"/>
<path d="M399.34 296.268V301.271L432.129 320.212V315.298L399.34 296.268Z" fill="#484848"/>
<path d="M497.173 319.676L464.383 338.975L464.472 432.787L497.173 414.203V319.676Z" fill="#1C1C1C"/>
<path d="M399.34 301.271L464.383 338.975L464.472 432.787L399.429 395.262L399.34 301.271Z" fill="#3D3D3D"/>
<path d="M497.262 413.935L464.472 432.787V437.701L497.262 418.671V413.935Z" fill="#484848"/>
<path d="M464.472 432.787V437.701L399.429 400.176V395.262L464.472 432.787Z" fill="#484848"/>
<path d="M464.383 333.971L497.083 314.941L497.173 319.676L464.383 338.885V333.971Z" fill="#484848"/>
<path d="M431.593 315.03V319.944L464.383 338.975V333.971L431.593 315.03Z" fill="#484848"/>
<path d="M464.383 334.328L399.34 296.267L431.951 277.505L497.083 314.941L464.383 334.328Z" fill="#282828"/>
<path d="M438.83 315.12L441.779 316.906L464.204 330.219L486.898 316.817L489.846 315.03L464.294 300.467L438.83 315.12Z" fill="black"/>
<path d="M441.779 316.907L464.204 330.219L486.898 316.817L464.294 303.952L441.779 316.907Z" fill="#161616"/>
<path d="M406.845 296.714L409.793 298.501L432.308 311.724L454.912 298.323L457.95 296.625L432.308 282.062L406.845 296.714Z" fill="black"/>
<path d="M409.793 298.501L432.308 311.724L454.912 298.322L432.308 285.546L409.793 298.501Z" fill="#161616"/>
<path d="M447.765 339.243V354.253L434.184 346.39L447.318 353.985V338.975L447.765 339.243Z" fill="black"/>
<path d="M447.765 338.796V353.895L434.184 345.944V330.934L447.765 338.796Z" fill="black"/>
<path d="M447.407 338.885L434.184 331.291V345.407L433.38 345.854V330.844L447.407 338.885Z" fill="black"/>
<path d="M447.765 353.091V354.074L433.559 345.765L434.184 345.318L447.765 353.091Z" fill="black"/>
<path d="M447.318 338.885L434.184 331.291V345.497L433.38 345.854V330.844L447.318 338.885Z" fill="#484848"/>
<path d="M447.765 353.181V354.164L433.469 345.765L434.184 345.408L447.765 353.181Z" fill="black"/>
<path d="M440.706 334.954V349.16L439.902 349.517V334.507L440.706 334.954Z" fill="#484848"/>
<path d="M439.366 333.793V349.25L439.902 349.518V334.508L439.366 333.793Z" fill="black"/>
<path fill-rule="evenodd" clip-rule="evenodd" d="M447.765 338.707V354.789L432.844 346.123V330.04L447.765 338.707ZM447.229 339.064L433.47 331.113V345.854L447.229 353.806V339.064Z" fill="#606060"/>
<path d="M447.765 363.813V378.912L434.184 371.05L447.318 378.644V363.545L447.765 363.813Z" fill="black"/>
<path d="M447.765 363.455V378.555L434.184 370.603V355.593L447.765 363.455Z" fill="black"/>
<path d="M447.407 363.545L434.184 355.95V370.067L433.38 370.513V355.503L447.407 363.545Z" fill="black"/>
<path d="M447.765 377.661V378.733L433.559 370.424L434.184 369.978L447.765 377.661Z" fill="black"/>
<path d="M447.318 363.545L434.184 355.95V370.067L433.38 370.513V355.503L447.318 363.545Z" fill="#484848"/>
<path d="M447.765 377.751V378.823L433.469 370.424L434.184 370.067L447.765 377.751Z" fill="black"/>
<path d="M440.706 359.613V373.819L439.902 374.177V359.167L440.706 359.613Z" fill="#484848"/>
<path d="M439.366 358.452V373.909L439.902 374.177V359.167L439.366 358.452Z" fill="black"/>
<path fill-rule="evenodd" clip-rule="evenodd" d="M447.765 363.366V379.448L432.844 370.782V354.7L447.765 363.366ZM447.229 363.723L433.469 355.772V370.514L447.229 378.465V363.723Z" fill="#606060"/>
<path d="M447.765 388.472V403.571L434.184 395.62L447.318 403.303V388.204L447.765 388.472Z" fill="black"/>
<path d="M447.765 388.025V403.125L434.184 395.262V380.163L447.765 388.025Z" fill="black"/>
<path d="M447.407 388.204L434.184 380.61V394.637L433.38 395.173V380.074L447.407 388.204Z" fill="black"/>
<path d="M447.765 402.321V403.304L433.559 394.995L434.184 394.637L447.765 402.321Z" fill="black"/>
<path d="M447.318 388.204L434.184 380.52V394.726L433.38 395.173V380.074L447.318 388.204Z" fill="#484848"/>
<path d="M447.765 402.41V403.393L433.469 395.084L434.184 394.637L447.765 402.41Z" fill="black"/>
<path d="M440.706 384.273V398.39L439.902 398.836V383.826L440.706 384.273Z" fill="#484848"/>
<path d="M439.366 383.112V398.479L439.902 398.836V383.826L439.366 383.112Z" fill="black"/>
<path fill-rule="evenodd" clip-rule="evenodd" d="M447.765 387.936V404.018L432.844 395.352V379.359L447.765 387.936ZM447.229 388.204L433.469 380.252V394.994L447.229 403.035V388.204Z" fill="#606060"/>
<path d="M424.535 325.126V340.404L419.442 337.367V322.089L424.535 325.126Z" fill="black"/>
<path d="M419.532 322.536V336.831L418.638 337.278V322L419.532 322.536Z" fill="black"/>
<path d="M424.535 339.69V340.583L418.817 337.188L419.532 336.741L424.535 339.69Z" fill="black"/>
<path d="M419.442 322.536V336.831L418.638 337.278V322L419.442 322.536Z" fill="#484848"/>
<path d="M424.535 339.779V340.672L418.728 337.188L419.442 336.83L424.535 339.779Z" fill="black"/>
<path fill-rule="evenodd" clip-rule="evenodd" d="M425.25 325.484V341.655L418.191 337.545V321.374L425.25 325.484ZM424.446 325.573L418.638 322.178V337.188L424.446 340.494V325.573Z" fill="#606060"/>
<path d="M424.535 349.785V365.063L419.442 362.026V346.748L424.535 349.785Z" fill="black"/>
<path d="M419.532 347.195V361.49L418.728 361.937V346.659L419.532 347.195Z" fill="black"/>
<path d="M424.535 364.349V365.242L418.817 361.847L419.532 361.401L424.535 364.349Z" fill="black"/>
<path d="M419.442 347.195V361.49L418.638 361.937V346.659L419.442 347.195Z" fill="#484848"/>
<path d="M424.535 364.438V365.331L418.817 361.847L419.442 361.49L424.535 364.438Z" fill="black"/>
<path fill-rule="evenodd" clip-rule="evenodd" d="M425.339 350.143V366.315L418.191 362.205V346.033L425.339 350.143ZM424.535 350.232L418.817 346.927V361.847L424.535 365.242V350.232Z" fill="#606060"/>
<path d="M424.535 374.445V389.723L419.442 386.685V371.407L424.535 374.445Z" fill="black"/>
<path d="M419.532 371.854V386.06L418.728 386.596V371.318L419.532 371.854Z" fill="black"/>
<path d="M424.535 389.009V389.902L418.817 386.507L419.532 386.06L424.535 389.009Z" fill="black"/>
<path d="M419.442 371.854V386.149L418.638 386.596V371.318L419.442 371.854Z" fill="#484848"/>
<path d="M424.535 389.098V389.991L418.817 386.507L419.442 386.149L424.535 389.098Z" fill="black"/>
<path fill-rule="evenodd" clip-rule="evenodd" d="M425.339 374.802V390.974L418.191 386.864V370.693L425.339 374.802ZM424.535 374.892L418.817 371.497V386.507L424.535 389.812V374.892Z" fill="#606060"/>
<path d="M409.972 386.149L416.315 382.486V388.383L409.972 392.135V386.149Z" fill="#1C1C1C"/>
<path d="M416.315 382.486L414.796 381.593L409.793 384.452L409.972 386.149L416.315 382.486Z" fill="#484848"/>
<path d="M424.445 392.939L429.449 390.08V398.568L424.445 401.517V392.939Z" fill="#1C1C1C"/>
<path d="M424.446 392.939L409.793 384.451V393.028L424.446 401.516V392.939Z" fill="#2D2D2D"/>
<path d="M409.793 384.452L411.222 383.647L425.875 392.135L424.446 392.939L409.793 384.452Z" fill="#484848"/>
<path d="M429.449 390.08L427.93 389.098L422.927 392.046L424.446 392.939L429.449 390.08Z" fill="#484848"/>
<path d="M409.972 361.58L416.404 357.827V363.724L409.972 367.476V361.58Z" fill="#1C1C1C"/>
<path d="M416.404 357.827L414.796 356.933L409.793 359.792L409.972 361.579L416.404 357.827Z" fill="#484848"/>
<path d="M424.535 368.28L429.449 365.421L429.538 373.909L424.535 376.858V368.28Z" fill="#1C1C1C"/>
<path d="M424.535 368.28L409.793 359.792V368.369L424.535 376.857V368.28Z" fill="#2D2D2D"/>
<path d="M409.793 359.792L411.222 358.988L425.875 367.476L424.535 368.28L409.793 359.792Z" fill="#484848"/>
<path d="M429.449 365.421L427.93 364.528L422.927 367.387L424.535 368.28L429.449 365.421Z" fill="#484848"/>
<path d="M409.972 336.92L416.404 333.167V339.064L409.972 342.817V336.92Z" fill="#1C1C1C"/>
<path d="M416.404 333.167L414.796 332.274L409.793 335.133L409.972 336.92L416.404 333.167Z" fill="#484848"/>
<path d="M424.535 343.621L429.449 340.762L429.538 349.25L424.535 352.198V343.621Z" fill="#1C1C1C"/>
<path d="M424.535 343.621L409.793 335.133V343.71L424.535 352.198V343.621Z" fill="#2D2D2D"/>
<path d="M409.793 335.133L411.222 334.329L425.875 342.817L424.535 343.621L409.793 335.133Z" fill="#484848"/>
<path d="M429.449 340.762L427.93 339.868L422.927 342.727L424.535 343.621L429.449 340.762Z" fill="#484848"/>
<path d="M473.853 343.263V358.362L487.434 350.411L474.3 358.005V342.995L473.853 343.263Z" fill="black"/>
<path d="M473.853 342.816V357.916L487.434 349.964V334.954L473.853 342.816Z" fill="black"/>
<path d="M474.211 342.906L487.434 335.311V349.428L488.238 349.874V334.865L474.211 342.906Z" fill="black"/>
<path d="M473.853 357.112V358.094L488.059 349.785L487.434 349.428L473.853 357.112Z" fill="black"/>
<path d="M474.3 342.906L487.434 335.311V349.517L488.238 349.874V334.865L474.3 342.906Z" fill="#484848"/>
<path d="M473.853 357.201V358.184L488.149 349.875L487.434 349.428L473.853 357.201Z" fill="black"/>
<path d="M480.912 339.064V353.18L481.716 353.627V338.528L480.912 339.064Z" fill="#484848"/>
<path d="M482.252 337.903V353.27L481.716 353.627V338.528L482.252 337.903Z" fill="black"/>
<path fill-rule="evenodd" clip-rule="evenodd" d="M488.774 334.15V350.143L473.853 358.809V342.727L488.774 334.15ZM474.39 357.916L488.149 349.875V335.133L474.39 343.084V357.916Z" fill="#606060"/>
<path d="M473.853 367.922V383.022L487.434 375.07L474.3 382.664V367.654L473.853 367.922Z" fill="black"/>
<path d="M473.853 367.476V382.575L487.434 374.623V359.613L473.853 367.476Z" fill="black"/>
<path d="M474.211 367.565L487.434 359.971V374.087L488.238 374.534V359.524L474.211 367.565Z" fill="black"/>
<path d="M473.853 381.771V382.754L488.059 374.445L487.434 374.087L473.853 381.771Z" fill="black"/>
<path d="M474.3 367.565L487.434 359.971V374.177L488.238 374.534V359.524L474.3 367.565Z" fill="#484848"/>
<path d="M473.853 381.86V382.843L488.149 374.445L487.434 374.087L473.853 381.86Z" fill="black"/>
<path d="M480.912 363.723V377.84L481.716 378.286V363.187L480.912 363.723Z" fill="#484848"/>
<path d="M482.252 362.473V377.929L481.716 378.287V363.187L482.252 362.473Z" fill="black"/>
<path fill-rule="evenodd" clip-rule="evenodd" d="M488.774 358.72V374.802L473.853 383.468V367.386L488.774 358.72ZM474.39 382.486L488.149 374.445V359.703L474.39 367.654V382.486Z" fill="#606060"/>
<path d="M473.853 392.492V407.592L487.434 399.729L474.3 407.324V392.224L473.853 392.492Z" fill="black"/>
<path d="M473.853 392.135V407.145L487.434 399.283V384.183L473.853 392.135Z" fill="black"/>
<path d="M474.211 392.224L487.434 384.63V398.657L488.238 399.193V384.094L474.211 392.224Z" fill="black"/>
<path d="M473.853 406.341V407.413L488.059 399.104L487.434 398.657L473.853 406.341Z" fill="black"/>
<path d="M474.3 392.224L487.434 384.63V398.747L488.238 399.193V384.094L474.3 392.224Z" fill="#484848"/>
<path d="M473.853 406.43V407.503L488.149 399.104L487.434 398.657L473.853 406.43Z" fill="black"/>
<path d="M480.912 388.293V402.499L481.716 402.857V387.847L480.912 388.293Z" fill="#484848"/>
<path d="M482.252 387.132V402.589L481.716 402.857V387.847L482.252 387.132Z" fill="black"/>
<path fill-rule="evenodd" clip-rule="evenodd" d="M488.774 383.379V399.461L473.853 408.128V392.046L488.774 383.379ZM474.39 407.056L488.149 399.104V384.273L474.39 392.224V407.056Z" fill="#606060"/>
<path d="M300.2 364.16H274.308L266.404 342.453L288.412 333.852L309.875 342.657L300.2 364.16Z" fill="black"/>
<path d="M365.68 326.274L300.2 364.16V345.251L327.523 319.38L365.68 307.365V326.274Z" fill="black"/>
<path d="M365.68 307.366V292.348L311.988 261.289H286.095L220.615 299.175V314.192L274.308 345.252H300.2L365.68 307.366Z" fill="black"/>
<path d="M274.308 364.161L220.615 333.102V314.193L274.308 345.253V364.161Z" fill="black"/>
<path d="M300.336 359.791H273.694L265.586 301.837L288.208 292.894L310.352 301.973L300.336 359.791Z" fill="#313131"/>
<path d="M367.724 320.814L300.336 359.792V304.636L328.477 278.014L367.724 265.659V320.814Z" fill="#1C1C1C"/>
<path d="M367.724 265.658V250.299L312.465 218.284H285.891L218.435 257.262V272.689L273.694 304.636H300.336L367.724 265.658Z" fill="#272727"/>
<path d="M273.694 359.792L218.435 327.845V272.689L273.694 304.636V359.792Z" fill="#3D3D3D"/>
<path d="M300.2 302.793H274.308L266.404 281.154L288.412 272.485L309.876 281.29L300.2 302.793Z" fill="#313131"/>
<path d="M365.68 264.975L300.2 302.793V283.884L327.523 258.013L365.68 245.998V264.975Z" fill="#1C1C1C"/>
<path d="M365.68 245.998V231.049L311.988 199.989H286.095L220.615 237.875V252.824L274.308 283.884H300.2L365.68 245.998Z" fill="#272727"/>
<path d="M274.308 302.793L220.615 271.802V252.825L274.308 283.884V302.793Z" fill="#3D3D3D"/>
<path d="M274.308 302.793L254.48 291.325V282.383L274.308 293.851V302.793Z" fill="#C92222"/>
<path opacity="0.3" d="M305.038 277.331L268.312 278.423L220.615 250.845V269.754L274.308 300.813H300.2L365.68 262.928V244.019L305.038 277.331Z" fill="black"/>
<path d="M300.336 297.195H273.694L265.586 261.699L288.208 252.825L310.352 261.904L300.336 297.195Z" fill="#313131"/>
<path d="M367.724 258.218L300.336 297.196V264.567L328.477 237.944L367.724 225.589V258.218Z" fill="#1C1C1C"/>
<path d="M367.724 225.589V210.161L312.465 178.215H285.891L218.435 217.192V232.551L273.694 264.567H300.336L367.724 225.589Z" fill="#272727"/>
<path d="M273.694 297.195L218.435 265.317V232.551L273.694 264.566V297.195Z" fill="#3D3D3D"/>
<path d="M300.2 262.724H274.308L266.404 241.016L288.412 232.347L309.876 241.221L300.2 262.724Z" fill="#313131"/>
<path d="M365.68 224.837L300.2 262.722V243.745L327.523 217.874L365.68 205.928V224.837Z" fill="#1C1C1C"/>
<path d="M365.68 205.929V190.911L311.988 159.852H286.095L220.615 197.737V212.687L274.308 243.746H300.2L365.68 205.929Z" fill="#272727"/>
<path d="M274.308 262.724L220.615 231.664V212.687L274.308 243.747V262.724Z" fill="#3D3D3D"/>
<path d="M274.308 262.724L254.48 251.256V242.245L274.308 253.713V262.724Z" fill="#C92222"/>
<path opacity="0.3" d="M305.038 237.193L268.312 238.286L220.615 210.708V229.685L274.308 260.676H300.2L365.68 222.79V203.881L305.038 237.193Z" fill="black"/>
<path d="M300.336 257.329H273.694L265.586 221.833L288.208 212.891L310.352 221.97L300.336 257.329Z" fill="#313131"/>
<path d="M367.724 218.352L300.336 257.33V224.633L328.477 198.01L367.724 185.655V218.352Z" fill="#1C1C1C"/>
<path d="M367.724 185.655V170.227L312.465 138.281H285.891L218.435 177.258V192.686L273.694 224.632H300.336L367.724 185.655Z" fill="#272727"/>
<path d="M273.694 257.331L218.435 225.384V192.686L273.694 224.633V257.331Z" fill="#3D3D3D"/>
<path d="M300.2 222.789H274.308L266.404 201.15L288.412 192.481L309.876 201.286L300.2 222.789Z" fill="#313131"/>
<path d="M365.68 184.903L300.2 222.789V203.88L327.523 178.009L365.68 165.994V184.903Z" fill="#1C1C1C"/>
<path d="M365.68 165.994V150.976L311.988 119.985H286.095L220.615 157.871V172.82L274.308 203.88H300.2L365.68 165.994Z" fill="#272727"/>
<path d="M274.308 222.789L220.615 191.798V172.821L274.308 203.88V222.789Z" fill="#3D3D3D"/>
<path d="M274.308 222.788L254.48 211.32V202.377L274.308 213.845V222.788Z" fill="#C92222"/>
<path opacity="0.3" d="M305.038 197.327L268.312 198.419L220.615 170.841V189.75L274.308 220.809H300.2L365.68 182.924V164.015L305.038 197.327Z" fill="black"/>
<path d="M300.336 217.602H273.694L265.586 182.037L288.208 173.163L310.352 182.242L300.336 217.602Z" fill="#313131"/>
<path d="M367.724 178.556L300.336 217.602V184.837L328.477 158.283L367.724 145.859V178.556Z" fill="#1C1C1C"/>
<path d="M367.724 145.859V130.499L312.465 98.5527H285.891L218.435 137.53V152.89L273.694 184.836H300.336L367.724 145.859Z" fill="#272727"/>
<path d="M273.694 217.602L218.435 185.587V152.889L273.694 184.836V217.602Z" fill="#3D3D3D"/>
<path d="M300.2 182.584H274.308L266.404 176.85L288.412 168.181L308.377 176.372L300.2 182.584Z" fill="#313131"/>
<path d="M365.68 144.698L300.2 182.584V179.58L327.523 153.709L365.68 141.695V144.698Z" fill="#1C1C1C"/>
<path d="M365.68 141.694V126.745L311.988 95.6855H286.095L220.615 133.571V148.521L274.308 179.58H300.2L365.68 141.694Z" fill="#272727"/>
<path fill-rule="evenodd" clip-rule="evenodd" d="M268.637 125.525C270.457 125.505 271.892 126.333 271.857 127.384L271.244 146.851L286.748 137.901C288.042 137.153 290.142 137.133 291.385 137.85L291.979 138.194C292.434 135.87 294.219 133.587 297.334 131.789C304.473 127.667 315.899 127.556 322.793 131.536C329.635 135.486 329.477 142.043 322.443 146.164L322.233 146.286C315.094 150.347 303.756 150.428 296.914 146.478L288.952 141.881L270.125 152.751C269.162 153.307 267.762 153.489 266.555 153.196C266.153 153.105 265.803 152.983 265.505 152.812L265.47 152.792C264.91 152.448 264.56 151.983 264.595 151.478L265.313 127.445C265.33 126.929 265.698 126.475 266.258 126.131L266.363 126.071C266.957 125.747 267.762 125.525 268.637 125.525ZM318.086 134.254C313.694 131.718 306.433 131.789 301.883 134.415C297.351 137.032 297.229 141.224 301.621 143.76C305.995 146.286 313.257 146.215 317.789 143.598C322.338 140.972 322.461 136.779 318.086 134.254ZM298.436 121.858C300.256 121.838 301.691 122.666 301.638 123.707C301.638 124.232 301.253 124.697 300.641 125.05C300.046 125.394 299.224 125.626 298.314 125.626C295.269 125.667 292.364 126.374 290.16 127.647C287.972 128.909 286.73 130.597 286.678 132.344C286.66 132.88 286.275 133.344 285.663 133.698C285.068 134.041 284.263 134.264 283.335 134.274C281.551 134.294 280.116 133.466 280.133 132.425C280.221 129.647 282.181 127.02 285.628 125.03C289.092 123.03 293.642 121.898 298.436 121.858Z" fill="#757575"/>
<path d="M274.308 182.584L220.615 151.525V148.521L274.308 179.581V182.584Z" fill="#3D3D3D"/>
</svg>
