<svg width="45" height="44" viewBox="0 0 45 44" fill="none" xmlns="http://www.w3.org/2000/svg">
<path opacity="0.12" d="M13.7578 3.66699H31.2422C35.3255 3.66699 37.3672 3.66699 38.2235 4.4396C38.965 5.10865 39.325 6.10287 39.1837 7.09157C39.0204 8.2333 37.452 9.54035 34.315 12.1545L22.5 22.0003L34.315 31.8462C37.452 34.4603 39.0204 35.7673 39.1837 36.9091C39.325 37.8978 38.965 38.892 38.2235 39.5611C37.3672 40.3337 35.3255 40.3337 31.2422 40.3337H13.7578C9.67448 40.3337 7.63281 40.3337 6.77649 39.5611C6.03495 38.892 5.675 37.8978 5.81635 36.9091C5.97957 35.7673 7.54803 34.4603 10.685 31.8462L22.5 22.0003L10.685 12.1545L10.685 12.1545C7.54803 9.54035 5.97957 8.2333 5.81635 7.09157C5.675 6.10287 6.03495 5.10865 6.77649 4.4396C7.63281 3.66699 9.67448 3.66699 13.7578 3.66699Z" fill="black"/>
<path fill-rule="evenodd" clip-rule="evenodd" d="M13.7176 2.91699H13.7579H31.2422H31.2825C33.2901 2.91699 34.8471 2.91698 36.007 3.0163C37.1379 3.11313 38.0953 3.31377 38.726 3.88276C39.6529 4.71907 40.1028 5.96183 39.9261 7.19771C39.8059 8.03854 39.1988 8.80563 38.3921 9.60398C37.5646 10.4228 36.3686 11.4195 34.8263 12.7047L34.7952 12.7306L11.1651 32.4224C9.58549 33.7387 8.43935 34.6947 7.66309 35.4629C6.86059 36.257 6.60185 36.7143 6.55883 37.0152C6.45282 37.7568 6.72278 38.5024 7.27894 39.0042C7.50462 39.2078 7.99615 39.3935 9.12104 39.4898C10.2091 39.583 11.7016 39.5837 13.7579 39.5837H31.2422C33.2984 39.5837 34.7909 39.583 35.879 39.4898C37.0039 39.3935 37.4954 39.2078 37.7211 39.0042C38.2773 38.5024 38.5472 37.7568 38.4412 37.0152C38.3982 36.7143 38.1395 36.257 37.337 35.4629C36.5607 34.6947 35.4146 33.7387 33.8349 32.4224L28.6199 28.0765L27.5199 27.1598C27.2017 26.8947 27.1587 26.4217 27.4239 26.1035C27.689 25.7853 28.162 25.7423 28.4802 26.0075L29.5802 26.9242L34.7952 31.27L34.8262 31.2959C36.3685 32.5811 37.5646 33.5778 38.3921 34.3967C39.1988 35.195 39.8059 35.9621 39.9261 36.8029C40.1028 38.0388 39.6529 39.2816 38.726 40.1179C38.0953 40.6869 37.1379 40.8875 36.007 40.9843C34.8471 41.0837 33.2901 41.0837 31.2825 41.0837H31.2422H13.7579H13.7176C11.7099 41.0837 10.153 41.0837 8.99307 40.9843C7.86221 40.8875 6.90474 40.6869 6.27411 40.1179C5.34718 39.2816 4.89724 38.0388 5.07393 36.8029C5.19414 35.9621 5.80124 35.195 6.60801 34.3967C7.43548 33.5778 8.63155 32.5811 10.1739 31.2959L10.2049 31.27L33.8349 11.5783C35.4146 10.2619 36.5607 9.30593 37.337 8.53777C38.1395 7.74364 38.3982 7.28633 38.4412 6.98542C38.5472 6.2439 38.2773 5.49824 37.7211 4.99645C37.4954 4.79283 37.0039 4.60715 35.879 4.51083C34.7909 4.41766 33.2984 4.41699 31.2422 4.41699H13.7579C11.7016 4.41699 10.2091 4.41766 9.12104 4.51083C7.99615 4.60715 7.50462 4.79283 7.27894 4.99645C6.72278 5.49824 6.45282 6.2439 6.55883 6.98542C6.60185 7.28633 6.86059 7.74364 7.66309 8.53777C8.43935 9.30593 9.58549 10.2619 11.1651 11.5783L16.3802 15.9242L17.4802 16.8408C17.7984 17.106 17.8414 17.5789 17.5762 17.8971C17.311 18.2153 16.8381 18.2583 16.5199 17.9932L15.4199 17.0765L10.2049 12.7306L10.1739 12.7048C8.63158 11.4196 7.43549 10.4228 6.608 9.60398C5.80124 8.80563 5.19414 8.03854 5.07393 7.19771C4.89724 5.96183 5.34718 4.71907 6.27411 3.88276C6.90474 3.31377 7.86221 3.11313 8.99307 3.0163C10.153 2.91698 11.7099 2.91699 13.7176 2.91699Z" fill="black"/>
</svg>
