<svg width="45" height="44" viewBox="0 0 45 44" fill="none" xmlns="http://www.w3.org/2000/svg">
<path opacity="0.12" d="M22.5 40.3337C32.6252 40.3337 40.8334 32.1255 40.8334 22.0003C40.8334 11.8751 32.6252 3.66699 22.5 3.66699C12.3748 3.66699 4.16669 11.8751 4.16669 22.0003C4.16669 32.1255 12.3748 40.3337 22.5 40.3337Z" fill="black"/>
<path fill-rule="evenodd" clip-rule="evenodd" d="M22.5 4.41699C12.789 4.41699 4.91669 12.2893 4.91669 22.0003C4.91669 31.7113 12.789 39.5837 22.5 39.5837C32.211 39.5837 40.0834 31.7113 40.0834 22.0003C40.0834 12.2893 32.211 4.41699 22.5 4.41699ZM22.5 2.91699C33.0395 2.91699 41.5834 11.4609 41.5834 22.0003C41.5834 32.5398 33.0395 41.0837 22.5 41.0837C11.9606 41.0837 3.41669 32.5398 3.41669 22.0003C3.41669 11.4609 11.9606 2.91699 22.5 2.91699ZM16.2498 17.8633C16.2498 15.6838 18.0166 13.917 20.1961 13.917H21.7498V11.917C21.7498 11.5028 22.0856 11.167 22.4998 11.167C22.914 11.167 23.2498 11.5028 23.2498 11.917V13.917H24.3331C26.7724 13.917 28.7498 15.8944 28.7498 18.3337C28.7498 18.7479 28.414 19.0837 27.9998 19.0837C27.5856 19.0837 27.2498 18.7479 27.2498 18.3337C27.2498 16.7228 25.944 15.417 24.3331 15.417H23.2498V21.4598L26.0515 22.3936C27.6629 22.9308 28.7498 24.4388 28.7498 26.1374C28.7498 28.3169 26.983 30.0837 24.8035 30.0837H23.2498V32.0837C23.2498 32.4979 22.914 32.8337 22.4998 32.8337C22.0856 32.8337 21.7498 32.4979 21.7498 32.0837V30.0837H20.6665C18.2272 30.0837 16.2498 28.1063 16.2498 25.667C16.2498 25.2528 16.5856 24.917 16.9998 24.917C17.414 24.917 17.7498 25.2528 17.7498 25.667C17.7498 27.2778 19.0556 28.5837 20.6665 28.5837H21.7498V22.5409L18.9481 21.607C17.3367 21.0699 16.2498 19.5618 16.2498 17.8633ZM21.7498 20.9598V15.417H20.1961C18.845 15.417 17.7498 16.5122 17.7498 17.8633C17.7498 18.9162 18.4236 19.851 19.4225 20.184L21.7498 20.9598ZM23.2498 23.0409V28.5837H24.8035C26.1546 28.5837 27.2498 27.4884 27.2498 26.1374C27.2498 25.0844 26.576 24.1496 25.5771 23.8167L23.2498 23.0409Z" fill="black"/>
</svg>
