<svg width="45" height="44" viewBox="0 0 45 44" fill="none" xmlns="http://www.w3.org/2000/svg">
<path opacity="0.12" fill-rule="evenodd" clip-rule="evenodd" d="M11.7179 12.092C11.4999 12.5198 11.4999 13.0799 11.4999 14.2V18.3333H7.3665C6.2464 18.3333 5.68635 18.3333 5.25852 18.5513C4.8822 18.7431 4.57624 19.049 4.38449 19.4254C4.1665 19.8532 4.1665 20.4132 4.1665 21.5333V37.1333C4.1665 38.2534 4.1665 38.8135 4.38449 39.2413C4.57624 39.6176 4.8822 39.9236 5.25852 40.1153C5.68635 40.3333 6.2464 40.3333 7.3665 40.3333H22.9665C24.0866 40.3333 24.6467 40.3333 25.0745 40.1153C25.4508 39.9236 25.7568 39.6176 25.9485 39.2413C26.1665 38.8135 26.1665 38.2534 26.1665 37.1333V33H30.2999C31.4201 33 31.9801 33 32.4079 32.782C32.7843 32.5903 33.0902 32.2843 33.282 31.908C33.4999 31.4802 33.4999 30.9201 33.4999 29.8V14.2C33.4999 13.0799 33.4999 12.5198 33.282 12.092C33.0902 11.7157 32.7843 11.4097 32.4079 11.218C31.9801 11 31.4201 11 30.2999 11H14.6999C13.5798 11 13.0198 11 12.592 11.218C12.2156 11.4097 11.9097 11.7157 11.7179 12.092Z" fill="black"/>
<path fill-rule="evenodd" clip-rule="evenodd" d="M22.0027 2.91675L22.0332 2.91675H37.6332L37.6636 2.91675C38.1978 2.91674 38.6436 2.91673 39.0078 2.94649C39.3877 2.97753 39.7444 3.04464 40.0816 3.21648C40.5991 3.48013 41.0198 3.90083 41.2834 4.41827C41.4553 4.75554 41.5224 5.11219 41.5534 5.49208C41.5832 5.85631 41.5832 6.30215 41.5832 6.8363V6.86675V22.4667V22.4972C41.5832 23.0313 41.5832 23.4772 41.5534 23.8414C41.5224 24.2213 41.4553 24.578 41.2834 24.9152C41.0198 25.4327 40.5991 25.8534 40.0816 26.117C39.7444 26.2889 39.3877 26.356 39.0078 26.387C38.6436 26.4168 38.1978 26.4168 37.6636 26.4167H37.6332H35.3332C34.919 26.4167 34.5832 26.081 34.5832 25.6667C34.5832 25.2525 34.919 24.9167 35.3332 24.9167H37.6332C38.2056 24.9167 38.5898 24.9162 38.8857 24.892C39.1728 24.8685 39.3101 24.8267 39.4007 24.7805C39.6359 24.6607 39.8271 24.4694 39.9469 24.2342C39.9931 24.1437 40.035 24.0064 40.0584 23.7193C40.0826 23.4234 40.0832 23.0392 40.0832 22.4667V6.86675C40.0832 6.29432 40.0826 5.91011 40.0584 5.61423C40.035 5.3271 39.9931 5.18982 39.9469 5.09926C39.8271 4.86406 39.6359 4.67283 39.4007 4.55299C39.3101 4.50685 39.1728 4.46497 38.8857 4.44151C38.5898 4.41733 38.2056 4.41675 37.6332 4.41675H22.0332C21.4607 4.41675 21.0765 4.41733 20.7806 4.44151C20.4935 4.46497 20.3562 4.50685 20.2657 4.55299C20.0305 4.67283 19.8393 4.86406 19.7194 5.09926C19.6733 5.18982 19.6314 5.3271 19.6079 5.61423C19.5838 5.91011 19.5832 6.29432 19.5832 6.86675V9.16675C19.5832 9.58096 19.2474 9.91675 18.8332 9.91675C18.419 9.91675 18.0832 9.58096 18.0832 9.16675V6.86675V6.83631C18.0832 6.30216 18.0832 5.85631 18.1129 5.49208C18.1439 5.11219 18.2111 4.75554 18.3829 4.41827C18.6466 3.90083 19.0673 3.48013 19.5847 3.21648C19.922 3.04464 20.2786 2.97753 20.6585 2.94649C21.0227 2.91673 21.4686 2.91674 22.0027 2.91675ZM14.6694 10.2501H14.6998H30.2998H30.3303C30.8644 10.2501 31.3103 10.2501 31.6745 10.2798C32.0544 10.3109 32.411 10.378 32.7483 10.5498C33.2658 10.8135 33.6865 11.2342 33.9501 11.7516C34.1219 12.0889 34.1891 12.4455 34.2201 12.8254C34.2499 13.1896 34.2498 13.6355 34.2498 14.1696V14.2001V29.8001V29.8305C34.2498 30.3647 34.2499 30.8105 34.2201 31.1748C34.1891 31.5546 34.1219 31.9113 33.9501 32.2486C33.6865 32.766 33.2658 33.1867 32.7483 33.4504C32.411 33.6222 32.0544 33.6893 31.6745 33.7203C31.3103 33.7501 30.8644 33.7501 30.3303 33.7501H30.2998H27.9998C27.5856 33.7501 27.2498 33.4143 27.2498 33.0001C27.2498 32.5859 27.5856 32.2501 27.9998 32.2501H30.2998C30.8723 32.2501 31.2565 32.2495 31.5524 32.2253C31.8395 32.2019 31.9768 32.16 32.0673 32.1138C32.3025 31.994 32.4938 31.8028 32.6136 31.5676C32.6597 31.477 32.7016 31.3397 32.7251 31.0526C32.7493 30.7567 32.7498 30.3725 32.7498 29.8001V14.2001C32.7498 13.6277 32.7493 13.2434 32.7251 12.9476C32.7016 12.6604 32.6597 12.5232 32.6136 12.4326C32.4938 12.1974 32.3025 12.0062 32.0673 11.8863C31.9768 11.8402 31.8395 11.7983 31.5524 11.7748C31.2565 11.7507 30.8723 11.7501 30.2998 11.7501H14.6998C14.1274 11.7501 13.7432 11.7507 13.4473 11.7748C13.1602 11.7983 13.0229 11.8402 12.9323 11.8863C12.6971 12.0062 12.5059 12.1974 12.3861 12.4326C12.3399 12.5232 12.2981 12.6604 12.2746 12.9476C12.2504 13.2434 12.2498 13.6277 12.2498 14.2001V16.5001C12.2498 16.9143 11.9141 17.2501 11.4998 17.2501C11.0856 17.2501 10.7498 16.9143 10.7498 16.5001V14.2001V14.1696C10.7498 13.6355 10.7498 13.1896 10.7796 12.8254C10.8106 12.4455 10.8777 12.0889 11.0496 11.7516C11.3132 11.2342 11.7339 10.8135 12.2514 10.5498C12.5886 10.378 12.9453 10.3109 13.3252 10.2798C13.6894 10.2501 14.1352 10.2501 14.6694 10.2501ZM7.3665 17.5834H7.33607C6.80192 17.5834 6.35607 17.5834 5.99183 17.6132C5.61195 17.6442 5.25529 17.7113 4.91803 17.8831C4.40058 18.1468 3.97989 18.5675 3.71624 19.0849C3.54439 19.4222 3.47728 19.7789 3.44624 20.1587C3.41648 20.523 3.41649 20.9688 3.4165 21.503L3.4165 21.5334V37.1334L3.4165 37.1638C3.41649 37.698 3.41648 38.1439 3.44624 38.5081C3.47728 38.888 3.54439 39.2446 3.71624 39.5819C3.97989 40.0993 4.40058 40.52 4.91803 40.7837C5.25529 40.9555 5.61195 41.0226 5.99183 41.0537C6.35605 41.0834 6.80187 41.0834 7.33599 41.0834H7.33605H7.36651H22.9665H22.997H22.997C23.5311 41.0834 23.977 41.0834 24.3412 41.0537C24.7211 41.0226 25.0777 40.9555 25.415 40.7837C25.9324 40.52 26.3531 40.0993 26.6168 39.5819C26.7886 39.2446 26.8557 38.888 26.8868 38.5081C26.9165 38.1439 26.9165 37.698 26.9165 37.1639V37.1334V21.5334V21.503C26.9165 20.9688 26.9165 20.523 26.8868 20.1587C26.8557 19.7789 26.7886 19.4222 26.6168 19.0849C26.3531 18.5675 25.9324 18.1468 25.415 17.8831C25.0777 17.7113 24.7211 17.6442 24.3412 17.6132C23.9769 17.5834 23.5311 17.5834 22.9969 17.5834H22.9665H7.3665ZM5.59902 19.2197C5.68958 19.1735 5.82686 19.1316 6.11398 19.1082C6.40986 19.084 6.79408 19.0834 7.3665 19.0834H22.9665C23.5389 19.0834 23.9231 19.084 24.219 19.1082C24.5061 19.1316 24.6434 19.1735 24.734 19.2197C24.9692 19.3395 25.1604 19.5307 25.2803 19.7659C25.3264 19.8565 25.3683 19.9938 25.3917 20.2809C25.4159 20.5768 25.4165 20.961 25.4165 21.5334V37.1334C25.4165 37.7058 25.4159 38.0901 25.3917 38.3859C25.3683 38.6731 25.3264 38.8103 25.2803 38.9009C25.1604 39.1361 24.9692 39.3273 24.734 39.4472C24.6434 39.4933 24.5061 39.5352 24.219 39.5587C23.9231 39.5828 23.5389 39.5834 22.9665 39.5834H7.36651C6.79408 39.5834 6.40986 39.5828 6.11398 39.5587C5.82686 39.5352 5.68958 39.4933 5.59902 39.4472C5.36381 39.3273 5.17259 39.1361 5.05275 38.9009C5.0066 38.8103 4.96472 38.6731 4.94126 38.3859C4.91709 38.0901 4.9165 37.7058 4.9165 37.1334V21.5334C4.9165 20.961 4.91709 20.5768 4.94126 20.2809C4.96472 19.9938 5.0066 19.8565 5.05275 19.7659C5.17259 19.5307 5.36381 19.3395 5.59902 19.2197Z" fill="black"/>
</svg>
