<svg width="45" height="44" viewBox="0 0 45 44" fill="none" xmlns="http://www.w3.org/2000/svg">
<path opacity="0.12" d="M6 12.7906C6 11.497 6 10.8503 6.22302 10.2107C6.40459 9.68992 6.77537 9.09742 7.16433 8.70646C7.64207 8.22627 8.16075 7.97414 9.1981 7.46989C12.5222 5.85407 17.8756 3.66699 22.5 3.66699C27.1244 3.66699 32.4778 5.85407 35.8019 7.46989C36.8393 7.97414 37.3579 8.22627 37.8357 8.70646C38.2246 9.09742 38.5954 9.68992 38.777 10.2107C39 10.8503 39 11.497 39 12.7906L39 24.8642C39 27.1574 39 28.304 38.6568 29.4376C38.3732 30.3744 37.8108 31.4291 37.1908 32.1866C36.4407 33.1031 35.5843 33.6776 33.8716 34.8267C30.0652 37.3806 25.1014 40.3336 22.5 40.3336C19.8986 40.3336 14.9348 37.3806 11.1284 34.8267C9.41566 33.6776 8.5593 33.1031 7.80917 32.1866C7.18921 31.4291 6.62676 30.3744 6.34316 29.4376C6 28.304 6 27.1574 6 24.8642L6 12.7906Z" fill="black"/>
<path fill-rule="evenodd" clip-rule="evenodd" d="M9.52602 8.14443C12.8401 6.53348 18.0599 4.417 22.5 4.417C26.9402 4.417 32.16 6.53348 35.4741 8.14443C36.5427 8.66387 36.9335 8.863 37.304 9.23544C37.6138 9.54678 37.9242 10.0429 38.0688 10.4576C38.2409 10.9509 38.25 11.4519 38.25 12.7906L38.25 24.8642C38.25 27.1975 38.2429 28.2166 37.9391 29.2203C37.6839 30.063 37.1682 31.0301 36.6105 31.7116C35.9448 32.5248 35.193 33.0371 33.4538 34.2039C31.5611 35.4738 29.395 36.833 27.389 37.8719C26.386 38.3914 25.4354 38.8242 24.5877 39.1257C23.7298 39.4307 23.0255 39.5836 22.5 39.5836C21.9746 39.5836 21.2702 39.4307 20.4123 39.1257C19.5646 38.8242 18.6141 38.3914 17.611 37.8719C15.605 36.833 13.439 35.4738 11.5463 34.2039C9.80712 33.0371 9.05524 32.5248 8.3896 31.7116C7.83189 31.0301 7.31615 30.063 7.06102 29.2203C6.75717 28.2166 6.75003 27.1975 6.75003 24.8642L6.75003 12.7906C6.75003 11.4519 6.75921 10.9509 6.93124 10.4576C7.07584 10.0429 7.3863 9.54678 7.69605 9.23543C8.06658 8.863 8.45741 8.66387 9.52602 8.14443ZM22.5 2.917C17.6914 2.91699 12.2044 5.17467 8.87025 6.79536L8.78442 6.83707L8.78442 6.83707C7.82706 7.30219 7.20083 7.60642 6.63268 8.1775C6.16451 8.64807 5.73342 9.33695 5.51487 9.96373C5.24956 10.7246 5.24974 11.4918 5.25002 12.673L5.25003 12.7906L5.25003 24.8642L5.25003 24.9857C5.2499 27.1635 5.24983 28.4144 5.62536 29.6549C5.93745 30.6858 6.5466 31.8281 7.22882 32.6616C8.04964 33.6645 8.99253 34.297 10.6275 35.3939L10.7105 35.4496C12.6243 36.7335 14.8433 38.1278 16.9212 39.2039C17.9601 39.7419 18.9761 40.2069 19.9097 40.5389C20.8332 40.8673 21.7248 41.0836 22.5 41.0836C23.2753 41.0836 24.1669 40.8673 25.0903 40.5389C26.0239 40.2069 27.04 39.7419 28.0789 39.2039C30.1567 38.1278 32.3758 36.7336 34.2895 35.4496L34.3726 35.3939C36.0075 34.297 36.9504 33.6645 37.7713 32.6616C38.4535 31.8281 39.0626 30.6858 39.3747 29.6549C39.7502 28.4144 39.7502 27.1635 39.75 24.9858L39.75 24.9857L39.75 24.8642L39.75 12.7906L39.7501 12.673C39.7503 11.4918 39.7505 10.7246 39.4852 9.96373C39.2667 9.33695 38.8356 8.64807 38.3674 8.1775C37.7992 7.60642 37.173 7.30218 36.2156 6.83707L36.1298 6.79536C32.7957 5.17467 27.3087 2.917 22.5 2.917ZM29.447 17.9473C29.7399 17.6544 29.7399 17.1796 29.447 16.8867C29.1541 16.5938 28.6793 16.5938 28.3864 16.8867L20.6667 24.6063L17.5304 21.47C17.2375 21.1771 16.7626 21.1771 16.4697 21.47C16.1768 21.7629 16.1768 22.2378 16.4697 22.5307L20.1364 26.1973C20.4293 26.4902 20.9041 26.4902 21.197 26.1973L29.447 17.9473Z" fill="black"/>
</svg>
