<svg width="371" height="235" viewBox="0 0 371 235" fill="none" xmlns="http://www.w3.org/2000/svg">
<rect width="371" height="235" rx="24" fill="black"/>
<g clip-path="url(#clip0_1230_75881)">
<rect opacity="0.5" x="-16.6779" y="53.0787" width="398.45" height="148.065" stroke="#424141" stroke-width="0.48745"/>
<path opacity="0.8" d="M-16.9216 83.3491H382.015" stroke="#424141" stroke-width="0.48745" stroke-dasharray="0.97 0.97"/>
<path opacity="0.8" d="M-16.9216 113.06H382.015" stroke="#424141" stroke-width="0.48745" stroke-dasharray="0.97 0.97"/>
<path opacity="0.8" d="M-16.9216 142.768H382.015" stroke="#424141" stroke-width="0.48745" stroke-dasharray="0.97 0.97"/>
<path opacity="0.8" d="M-16.9216 172.48H382.015" stroke="#424141" stroke-width="0.48745" stroke-dasharray="0.97 0.97"/>
<path opacity="0.8" d="M83.8354 52.835L83.8354 201.387" stroke="#424141" stroke-width="0.48745" stroke-dasharray="0.97 0.97"/>
<path opacity="0.8" d="M181.868 52.835L181.868 201.387" stroke="#424141" stroke-width="0.48745" stroke-dasharray="0.97 0.97"/>
<path opacity="0.8" d="M282.623 52.835L282.623 201.387" stroke="#424141" stroke-width="0.48745" stroke-dasharray="0.97 0.97"/>
<g filter="url(#filter0_d_1230_75881)">
<path d="M-143.753 164.77C-109.642 159.51 -103.948 137.533 -63.1185 131.237C-22.2886 124.941 -24.3473 140.172 5.11225 135.629C34.5718 131.086 36.7716 147.252 71.9163 141.833C107.061 136.413 105.534 126.329 132.926 122.105C160.318 117.881 160.866 90.732 187.912 86.5614C211.729 82.8888 230.942 96.7163 254.758 93.0437C280.795 89.0288 299.053 107.603 325.09 103.588C351.126 99.573 354.223 81.131 380.26 77.116C406.499 73.0699 420.312 79.1606 446.551 75.1145C472.386 71.1307 484.764 78.9658 510.599 74.9819C537.04 70.9047 560.944 40.7712 587.385 36.6939" stroke="#424141" stroke-width="3" stroke-linecap="round"/>
</g>
<path d="M282.281 95.7129V200.712" stroke="#1C1C1C" stroke-width="1.46235"/>
<path d="M83.9006 138.928V200.713" stroke="#1C1C1C" stroke-width="1.46235"/>
<path opacity="0.7" d="M-0.5 135.838H22.531L59.581 143.338L85.6161 139.838L113.654 126.838L141.191 119.838L152.206 112.838L176.323 89.782L190.758 85.8379L231.312 92.3379H262.354L310 104.244L343.5 97.3379L370.5 104.244V234.838L-0.5 234.338V135.838Z" fill="url(#paint0_radial_1230_75881)"/>
<g filter="url(#filter1_d_1230_75881)">
<path d="M282.849 96.0512C274.059 93.3853 265.012 91.4633 254.759 93.0444C230.942 96.717 211.729 82.8895 187.913 86.5621C160.866 90.7327 160.319 117.882 132.927 122.106C108.901 125.811 107.123 134.024 83.3341 139.643" stroke="#C92222" stroke-width="3" stroke-linecap="round"/>
</g>
<circle cx="282.5" cy="95.8379" r="4" fill="#C92222" stroke="black" stroke-width="1.9498" stroke-linecap="round"/>
<circle cx="83.5" cy="139.838" r="4" fill="#C92222" stroke="black" stroke-width="1.9498" stroke-linecap="round"/>
</g>
<path d="M120.729 64.6377C120.729 64.6377 156.435 41.8379 185 41.8379C213.565 41.8379 249.272 64.6377 249.272 64.6377V155.838C249.272 155.838 202.853 193.838 185 193.838C167.147 193.838 120.729 155.838 120.729 155.838V64.6377Z" fill="#C92222"/>
<path fill-rule="evenodd" clip-rule="evenodd" d="M161.38 93.8352C162.112 94.5393 162.112 95.6713 161.38 96.3754L147.837 109.436H160.069C161.091 109.436 161.933 110.25 161.933 111.23V111.7C163.7 110.292 165.964 109.436 168.421 109.436C174.054 109.436 178.638 113.867 178.638 119.307C178.638 124.705 174.096 129.123 168.504 129.164H168.339C162.747 129.123 158.219 124.705 158.219 119.307V113.025H143.364C142.605 113.025 141.928 112.597 141.652 111.921C141.555 111.7 141.5 111.479 141.5 111.244V111.217C141.514 110.761 141.694 110.305 142.052 109.974L158.757 93.8352C159.116 93.49 159.572 93.3244 160.028 93.3105H160.11C160.566 93.3244 161.035 93.49 161.38 93.8352ZM174.924 119.307C174.924 115.841 172.011 113.025 168.421 113.025C164.846 113.025 161.933 115.841 161.933 119.307C161.933 122.758 164.846 125.575 168.421 125.575C172.011 125.575 174.924 122.758 174.924 119.307ZM175.642 103.085C176.374 103.789 176.374 104.921 175.642 105.611C175.283 105.97 174.813 106.136 174.33 106.136C173.861 106.136 173.378 105.97 173.019 105.611C171.79 104.438 170.161 103.775 168.421 103.775C166.696 103.775 165.053 104.438 163.838 105.611C163.465 105.97 162.996 106.136 162.513 106.136C162.043 106.136 161.574 105.97 161.201 105.611C160.483 104.921 160.483 103.789 161.201 103.085C163.134 101.221 165.702 100.2 168.421 100.2C171.155 100.2 173.723 101.221 175.642 103.085Z" fill="#FFABAB"/>
<path d="M186.198 117.458V105.864H187.542V116.279H192.117V117.458H186.198ZM195.768 117.458L198.959 105.833H201.05L204.218 117.458H202.834L202.025 114.385H197.969L197.151 117.458H195.768ZM198.283 113.206H201.71L200.004 106.737L198.283 113.206ZM212.022 105.864C214.168 105.864 215.394 106.737 215.394 108.623C215.394 110.408 214.136 111.319 212.91 111.374C214.246 111.406 215.645 112.176 215.645 114.251C215.645 116.287 214.435 117.458 211.959 117.458H208.17V105.864H212.022ZM211.699 107.043H209.467V110.832H211.393C213.067 110.832 214.05 110.148 214.05 108.828C214.05 107.515 213.114 107.043 211.699 107.043ZM211.699 116.279C213.295 116.279 214.278 115.572 214.278 114.181C214.278 112.491 212.957 112.003 211.464 112.003H209.467V116.279H211.699ZM223.583 117.616C221.178 117.616 219.763 116.468 219.763 114.165V113.63H221.107V114.141C221.107 115.745 221.964 116.405 223.567 116.405C225.226 116.405 226.083 115.871 226.083 114.605C226.083 113.269 224.911 112.695 223.206 112.168C221.264 111.571 219.849 110.573 219.849 108.647C219.849 106.76 221.327 105.723 223.512 105.723C225.823 105.723 227.309 106.792 227.309 108.993V109.582H225.965V109.048C225.965 107.523 225.116 106.933 223.536 106.933C222.019 106.933 221.154 107.436 221.154 108.647C221.154 110.015 222.388 110.565 224.086 111.123C226.146 111.799 227.395 112.632 227.395 114.558C227.395 116.492 225.957 117.616 223.583 117.616Z" fill="#FFABAB"/>
<defs>
<filter id="filter0_d_1230_75881" x="-146.299" y="35.2679" width="736.23" height="132.878" filterUnits="userSpaceOnUse" color-interpolation-filters="sRGB">
<feFlood flood-opacity="0" result="BackgroundImageFix"/>
<feColorMatrix in="SourceAlpha" type="matrix" values="0 0 0 0 0 0 0 0 0 0 0 0 0 0 0 0 0 0 127 0" result="hardAlpha"/>
<feOffset dy="0.9749"/>
<feGaussianBlur stdDeviation="0.48745"/>
<feComposite in2="hardAlpha" operator="out"/>
<feColorMatrix type="matrix" values="0 0 0 0 0 0 0 0 0 0 0 0 0 0 0 0 0 0 0.85 0"/>
<feBlend mode="normal" in2="BackgroundImageFix" result="effect1_dropShadow_1230_75881"/>
<feBlend mode="normal" in="SourceGraphic" in2="effect1_dropShadow_1230_75881" result="shape"/>
</filter>
<filter id="filter1_d_1230_75881" x="-34.7376" y="19.1919" width="435.659" height="289.56" filterUnits="userSpaceOnUse" color-interpolation-filters="sRGB">
<feFlood flood-opacity="0" result="BackgroundImageFix"/>
<feColorMatrix in="SourceAlpha" type="matrix" values="0 0 0 0 0 0 0 0 0 0 0 0 0 0 0 0 0 0 127 0" result="hardAlpha"/>
<feOffset dy="51.1823"/>
<feGaussianBlur stdDeviation="58.2503"/>
<feColorMatrix type="matrix" values="0 0 0 0 0.145098 0 0 0 0 1 0 0 0 0 0.623529 0 0 0 0.8 0"/>
<feBlend mode="normal" in2="BackgroundImageFix" result="effect1_dropShadow_1230_75881"/>
<feBlend mode="normal" in="SourceGraphic" in2="effect1_dropShadow_1230_75881" result="shape"/>
</filter>
<radialGradient id="paint0_radial_1230_75881" cx="0" cy="0" r="1" gradientUnits="userSpaceOnUse" gradientTransform="translate(5.40567 433.136) rotate(-65.7899) scale(434.36 321.896)">
<stop stop-color="#6D6D6D"/>
<stop offset="1" stop-color="#3F3F3F" stop-opacity="0"/>
</radialGradient>
<clipPath id="clip0_1230_75881">
<rect x="0.5" y="52.5547" width="370" height="182" rx="24" fill="white"/>
</clipPath>
</defs>
</svg>
