<svg width="44" height="44" viewBox="0 0 44 44" fill="none" xmlns="http://www.w3.org/2000/svg">
<rect width="44" height="44" rx="12" fill="#F4F4F4"/>
<path d="M14.5 19H13" stroke="black" stroke-width="1.5" stroke-linecap="round" stroke-linejoin="round"/>
<path d="M14.5 25H13" stroke="black" stroke-width="1.5" stroke-linecap="round" stroke-linejoin="round"/>
<path d="M14 22H12" stroke="black" stroke-width="1.5" stroke-linecap="round" stroke-linejoin="round"/>
<path d="M15 14.9291C17.8481 12.0692 22.1313 11.2137 25.8525 12.7615C29.5737 14.3092 32 17.9555 32 22C32 26.0445 29.5737 29.6908 25.8525 31.2385C22.1313 32.7863 17.8481 31.9308 15 29.0709" stroke="black" stroke-width="1.5" stroke-linecap="round" stroke-linejoin="round"/>
<path opacity="0.12" fill-rule="evenodd" clip-rule="evenodd" d="M15 14.9291C17.8481 12.0692 22.1313 11.2137 25.8525 12.7615C29.5737 14.3092 32 17.9555 32 22C32 26.0445 29.5737 29.6908 25.8525 31.2385C22.1313 32.7863 17.8481 31.9308 15 29.0709" fill="black"/>
<path fill-rule="evenodd" clip-rule="evenodd" d="M18.5 24.75C18.5 25.4405 20.067 26 22 26C23.933 26 25.5 25.4405 25.5 24.75V19.25C25.5 18.5595 23.933 18 22 18C20.067 18 18.5 18.5595 18.5 19.25V24.75Z" stroke="black" stroke-width="1.5" stroke-linecap="round" stroke-linejoin="round"/>
<path d="M25.5 20.25C25.5 20.9405 23.933 21.5 22 21.5C20.067 21.5 18.5 20.9405 18.5 20.25" stroke="black" stroke-width="1.5" stroke-linecap="round" stroke-linejoin="round"/>
</svg>
