<svg width="274" height="148" viewBox="0 0 274 148" fill="none" xmlns="http://www.w3.org/2000/svg">
<g clip-path="url(#clip0_1230_77435)">
<path d="M236.373 38.3304L240.786 45.6631C242.154 47.8607 244.408 48.858 247.215 48.858H258.568L245.277 32.7524L243.392 31.6787L238.416 33.3024L235.895 36.9509L236.373 38.3304Z" fill="white"/>
<path d="M245.277 32.7528L242.503 29.3896L235.17 33.3339L235.948 37.3152L236.374 38.3308C236.207 35.6326 240.84 32.4998 245.277 32.7528Z" fill="white"/>
<path d="M236.373 38.3309L232.406 31.7709C231.928 31.0267 231.797 30.3755 231.797 29.6169C231.797 28.7825 232.153 28.325 233.519 27.6004C235.11 26.8384 238.315 26.5071 241.618 26.5071C246.985 26.5071 248.271 28.2296 248.819 30.0883C248.819 30.0883 248.062 29.7871 246.279 29.7871C240.625 29.7871 236.105 32.5318 236.105 36.6877C236.105 37.5597 236.373 38.3309 236.373 38.3309Z" fill="white"/>
<path d="M219.333 10.4229H224.669C226.92 10.4229 227.843 11.3435 228.753 12.2468C229.795 13.1941 232.956 17.4717 239.637 25.8203H232.406C229.449 25.8203 228.514 25.3166 227.37 23.5725L219.333 10.4229Z" fill="white"/>
<path d="M135.839 25.8312H135.779L132.742 34.4164H138.883L135.839 25.8312ZM141.275 41.1801L139.787 36.9629H131.836L130.346 41.1801H126.952L134.074 22.4088H137.856L144.869 41.1801H141.275ZM170.083 21.6567H173.403V24.7947H170.083V21.6567ZM170.12 26.882H173.364V41.1801H170.12V26.882ZM146.162 21.6552H149.483V24.7947H146.162V21.6552ZM146.2 26.882H149.445V41.1801H146.2V26.882ZM166.578 21.6737H163.333V41.1801H166.578V21.6737ZM156.235 34.2074V41.1801H152.981V30.556C152.981 29.5351 152.864 27.5915 152.824 26.8848H155.445C155.728 26.8848 155.809 27.0043 155.817 27.2829C155.823 27.7052 155.846 29.0546 155.846 29.0546H155.92C156.176 28.4361 157.098 26.5848 159.794 26.5848C160.697 26.5848 161.365 26.8763 161.475 26.9204C161.475 27.536 161.411 28.8868 161.378 29.2437C161.358 29.4783 161.256 29.5551 161.139 29.5551C161.028 29.5551 160.977 29.5295 160.916 29.5053C160.714 29.42 160.242 29.2764 159.587 29.2764C157.855 29.2764 156.235 30.5262 156.235 34.2074ZM185.787 41.1801V31.9466C185.787 30.1835 184.982 29.1086 183.472 29.1086C181.476 29.1086 180.151 31.2328 180.151 34.0993V41.1801H176.905V30.6769C176.905 29.5209 176.8 27.836 176.746 26.8848H179.353C179.648 26.8848 179.731 27.0057 179.734 27.2701C179.743 27.5758 179.768 29.0546 179.768 29.0546H179.842C180.233 28.382 181.233 26.5834 184.225 26.5834C187.309 26.5834 189.032 28.692 189.032 31.0594V41.1801H185.787ZM194.768 32.5623H200.773C200.897 30.2575 199.687 28.9664 197.862 28.9664C195.951 28.9664 194.854 30.3485 194.768 32.5623ZM202.774 38.0407C202.955 38.0407 203.007 38.1985 203.021 38.3606C203.077 38.9706 203.13 40.3498 203.121 40.701C202.774 40.8119 201.029 41.4531 198.686 41.4531C194.135 41.4531 191.396 39.0985 191.396 34.0296C191.396 29.6773 193.731 26.5848 197.928 26.5848C202.049 26.5848 204.008 29.3404 204.008 32.7613C204.008 33.1637 203.964 33.8434 203.893 34.7462H194.726C194.726 37.1876 196.282 38.9393 199.157 38.9393C200.741 38.9393 202.001 38.372 202.501 38.1303C202.601 38.0819 202.659 38.0407 202.774 38.0407ZM210.375 41.4531C214.6 41.4531 216.621 39.7256 216.621 37.1577C216.621 34.6297 214.826 33.5661 212.923 32.9376C212.377 32.7613 211.843 32.5822 211.344 32.4144C210.041 31.9836 209.366 31.4177 209.366 30.5731C209.366 29.6816 210.179 29.0574 211.868 29.0574C213.37 29.0574 214.597 29.6702 215.083 29.9048C215.164 29.9418 215.237 29.9944 215.366 29.9944C215.468 29.9944 215.595 29.9304 215.612 29.6773C215.645 29.1982 215.702 28.3294 215.702 27.4948C215.308 27.3142 213.887 26.5848 211.602 26.5848C208.112 26.5848 205.966 28.4005 205.966 30.7963C205.966 33.1196 207.554 34.1803 209.302 34.759C209.704 34.8955 210.451 35.1401 210.887 35.288C212.711 35.8937 213.232 36.4439 213.232 37.297C213.232 38.4104 212.046 38.9606 210.006 38.9606C208.332 38.9606 207.182 38.3464 206.72 38.1303C206.626 38.089 206.57 38.0407 206.441 38.0407C206.201 38.0407 206.196 38.3606 206.194 38.4132C206.184 38.5668 206.107 40.0483 206.107 40.5417C206.489 40.7067 208.147 41.4531 210.375 41.4531ZM19.0763 25.8312H19.0166L15.9781 34.4164H22.1148L19.0763 25.8312ZM24.5106 41.1801L23.0219 36.9629H15.0709L13.5822 41.1801H10.1897L17.3118 22.4074H21.091L28.1036 41.1801H24.5106ZM77.5443 21.6552H80.8629V24.7933H77.5443V21.6552ZM77.5827 26.882H80.8245V41.1801H77.5827V26.882ZM70.6156 34.2074V41.1801H67.3667V30.556C67.3667 29.5337 67.2501 27.5901 67.2074 26.882H69.8293C70.1123 26.882 70.1962 27.0043 70.1976 27.2815C70.2061 27.7024 70.2317 29.0546 70.2317 29.0546H70.3042C70.5616 28.4361 71.4815 26.5848 74.1788 26.5848C75.0788 26.5848 75.7528 26.8749 75.8637 26.9189C75.8637 27.5346 75.7969 28.8854 75.7656 29.2437C75.7442 29.4769 75.6405 29.5522 75.5253 29.5522C75.4158 29.5522 75.3604 29.5295 75.3006 29.5053C75.0959 29.4186 74.6253 29.275 73.9755 29.275C72.2422 29.275 70.6156 30.5262 70.6156 34.2074ZM46.6474 41.1801V32.0319C46.6474 30.384 45.9507 29.1058 44.2687 29.1058C42.3748 29.1058 41.2828 31.1788 41.2828 34.0822V41.1801H38.0395V32.0035C38.0395 30.5049 37.4139 29.1058 35.6736 29.1058C33.7527 29.1058 32.6777 31.1745 32.6777 34.1846V41.1801H29.4274V30.7665C29.4274 29.4214 29.3079 27.519 29.2696 26.882H31.8673C32.1602 26.882 32.2569 26.9787 32.2626 27.2815C32.2697 27.6611 32.2924 29.0546 32.2924 29.0546H32.3663C32.564 28.6465 33.6318 26.5834 36.612 26.5834C39.3889 26.5834 40.451 28.5754 40.714 29.1896C40.97 28.6493 42.2027 26.5834 44.9995 26.5834C47.9086 26.5834 49.8935 28.1446 49.8935 31.2812V41.1801H46.6474ZM55.625 32.5594H61.6324C61.7561 30.2589 60.5503 28.965 58.7204 28.965C56.8094 28.965 55.716 30.3484 55.625 32.5594ZM63.6357 38.0407C63.8135 38.0407 63.8675 38.1985 63.8817 38.3606C63.9372 38.9706 63.9898 40.3512 63.9813 40.701C63.6357 40.8119 61.8911 41.4531 59.5479 41.4531C54.9951 41.4531 52.2567 39.0957 52.2567 34.0268C52.2567 29.6802 54.5899 26.5848 58.7915 26.5848C62.9078 26.5848 64.8713 29.3389 64.8713 32.7613C64.8713 33.1637 64.8258 33.8434 64.7533 34.7434H55.5866C55.5866 37.1876 57.1436 38.9393 60.0143 38.9393C61.5997 38.9393 62.8623 38.372 63.3613 38.1274C63.4609 38.0791 63.5177 38.0407 63.6357 38.0407ZM104.346 33.9258H103.795C99.7167 33.9258 98.9148 35.3434 98.9148 36.7838C98.9148 37.9611 99.6911 39.0758 101.215 39.0758C103.24 39.0758 104.346 37.1207 104.346 35.0633V33.9258ZM105.128 41.1801C104.867 41.1801 104.649 41.0934 104.621 40.7138C104.589 40.2474 104.525 39.3445 104.525 39.3445H104.481C104.289 39.6076 103.106 41.4531 100.136 41.4531C97.291 41.4531 95.6587 39.2606 95.6587 36.8534C95.6587 33.5163 98.8991 31.84 103.706 31.84H104.346V31.3153C104.346 29.8181 103.281 29.0162 101.291 29.0162C99.4992 29.0162 98.0119 29.6446 97.4332 29.939C97.3948 29.9574 97.2896 30.0186 97.1929 30.0186C97.0393 30.0186 96.9526 29.9233 96.9441 29.7541C96.9185 29.2167 96.863 28.183 96.8545 27.5275C97.4403 27.3043 99.3826 26.5834 101.52 26.5834C105.768 26.5834 107.592 28.5555 107.592 31.7049V37.28C107.592 39.3132 107.781 40.6441 107.848 41.1801H105.128ZM93.9113 38.0407C93.9966 38.0407 94.1174 38.0976 94.1459 38.3478C94.2084 39.0289 94.234 40.1436 94.2369 40.4934C93.5885 40.8133 92.1837 41.4531 90.4604 41.4531C86.1295 41.4531 83.4734 38.9393 83.4734 34.0211C83.4734 29.4129 85.8351 26.5848 90.4604 26.5848C91.9946 26.5848 93.4065 27.1194 94.2369 27.546C94.2369 28.055 94.1871 29.2081 94.1459 29.693C94.126 29.8963 94.0279 29.9944 93.9113 29.9944C93.7819 29.9944 93.7378 29.9603 93.661 29.9262C92.616 29.4143 91.6335 29.1669 90.7491 29.1669C87.9921 29.1669 86.8575 30.9712 86.8575 34.0211C86.8575 36.7397 87.7646 38.871 90.7491 38.871C91.8894 38.871 92.9288 38.4644 93.5729 38.1544C93.7463 38.0734 93.7762 38.0407 93.9113 38.0407ZM119.284 41.1801V31.9466C119.284 30.1821 118.479 29.1072 116.972 29.1072C114.975 29.1072 113.647 31.23 113.647 34.0993V41.1801H110.403V30.6769C110.403 29.5209 110.298 27.836 110.247 26.882H112.85C113.148 26.882 113.233 27.0057 113.234 27.2701C113.241 27.573 113.266 29.0546 113.266 29.0546H113.337C113.732 28.3806 114.73 26.582 117.722 26.582C120.81 26.582 122.533 28.692 122.533 31.0565V41.1801H119.284Z" fill="white"/>
</g>
<path d="M96.2088 83H94.3608V72.675H97.6788C100.052 72.675 101.375 74.166 101.375 76.077C101.375 77.995 100.017 79.591 97.6788 79.591H96.2088V83ZM97.4758 74.145H96.2088V78.128H97.4758C98.7638 78.128 99.5128 77.351 99.5128 76.077C99.5128 74.81 98.7918 74.145 97.4758 74.145ZM110.996 83.154C108.49 83.154 106.53 81.243 106.53 77.827C106.53 74.404 108.483 72.528 110.996 72.528C113.53 72.528 115.476 74.404 115.476 77.827C115.476 81.243 113.502 83.154 110.996 83.154ZM110.996 81.635C112.445 81.635 113.593 80.508 113.593 77.827C113.593 75.139 112.438 74.054 110.996 74.054C109.568 74.054 108.399 75.139 108.399 77.827C108.399 80.515 109.568 81.635 110.996 81.635ZM120.996 83V72.675H124.083C126.827 72.675 128.654 74.733 128.654 77.827C128.654 80.921 126.827 83 124.083 83H120.996ZM123.845 74.145H122.844V81.53H123.845C125.518 81.53 126.778 80.116 126.778 77.827C126.778 75.538 125.518 74.145 123.845 74.145ZM142.324 79.283C142.324 81.033 141.029 83.154 138.278 83.154C135.485 83.154 133.889 80.949 133.889 77.841C133.889 74.719 135.485 72.528 138.278 72.528C140.588 72.528 141.883 74.04 142.219 75.552C142.289 75.832 142.324 76.112 142.324 76.392H140.469C140.469 76.252 140.462 76.112 140.441 75.972C140.287 74.901 139.524 74.054 138.278 74.054C136.801 74.054 135.765 75.293 135.765 77.841C135.765 80.389 136.801 81.642 138.278 81.642C139.685 81.642 140.469 80.501 140.469 79.283H142.324ZM146.936 83L149.603 72.661H152.515L155.161 83H153.264L152.662 80.487H149.442L148.833 83H146.936ZM149.799 79.01H152.305L151.059 73.83L149.799 79.01ZM163.87 83.154C161.665 83.154 160.223 82.104 160.223 80.004V79.577H162.064V79.969C162.064 81.089 162.687 81.642 163.877 81.642C165.081 81.642 165.739 81.264 165.739 80.375C165.739 79.416 164.682 78.926 163.233 78.471C161.609 77.974 160.293 77.085 160.293 75.314C160.293 73.543 161.784 72.528 163.835 72.528C165.977 72.528 167.461 73.536 167.461 75.524V75.979H165.613V75.608C165.613 74.551 165.032 74.047 163.863 74.047C162.722 74.047 162.078 74.439 162.078 75.307C162.078 76.28 163.1 76.707 164.507 77.183C166.355 77.806 167.538 78.541 167.538 80.312C167.538 82.125 166.082 83.154 163.87 83.154ZM179.677 74.145H177.087V83H175.239V74.145H172.656V72.675H179.677V74.145Z" fill="#858585"/>
<rect x="13.6448" y="110.845" width="2.71124" height="16.2674" rx="1.35562" fill="white"/>
<rect x="22.356" y="106.507" width="2.71124" height="24.9434" rx="1.35562" fill="white"/>
<rect x="31.0671" y="110.845" width="2.71124" height="16.2674" rx="1.35562" fill="white"/>
<rect x="39.7786" y="105.422" width="2.71124" height="27.1124" rx="1.35562" fill="white"/>
<rect x="48.4897" y="100" width="2.71124" height="37.9574" rx="1.35562" fill="white"/>
<rect x="57.2009" y="110.845" width="2.71124" height="16.2674" rx="1.35562" fill="white"/>
<rect x="65.9121" y="106.507" width="2.71124" height="24.9434" rx="1.35562" fill="white"/>
<rect x="74.6235" y="110.845" width="2.71124" height="16.2674" rx="1.35562" fill="white"/>
<rect x="83.3347" y="105.422" width="2.71124" height="27.1124" rx="1.35562" fill="white"/>
<rect x="92.0459" y="100" width="2.71124" height="37.9574" rx="1.35562" fill="white"/>
<rect x="100.757" y="110.845" width="2.71124" height="16.2674" rx="1.35562" fill="white"/>
<rect x="109.469" y="106.507" width="2.71124" height="24.9434" rx="1.35562" fill="white"/>
<rect x="118.18" y="110.845" width="2.71124" height="16.2674" rx="1.35562" fill="white"/>
<rect x="126.891" y="105.422" width="2.71124" height="27.1124" rx="1.35562" fill="white"/>
<rect x="135.602" y="100" width="2.71124" height="37.9574" rx="1.35562" fill="white"/>
<rect x="144.313" y="110.845" width="2.71124" height="16.2674" rx="1.35562" fill="white"/>
<rect x="153.025" y="106.507" width="2.71124" height="24.9434" rx="1.35562" fill="white"/>
<rect x="161.736" y="110.845" width="2.71124" height="16.2674" rx="1.35562" fill="white"/>
<rect x="170.447" y="105.422" width="2.71124" height="27.1124" rx="1.35562" fill="white"/>
<rect x="179.158" y="100" width="2.71124" height="37.9574" rx="1.35562" fill="white"/>
<rect x="187.87" y="110.845" width="2.71124" height="16.2674" rx="1.35562" fill="white"/>
<rect x="196.581" y="106.507" width="2.71124" height="24.9434" rx="1.35562" fill="white"/>
<rect x="205.292" y="110.845" width="2.71124" height="16.2674" rx="1.35562" fill="white"/>
<rect x="214.003" y="105.422" width="2.71124" height="27.1124" rx="1.35562" fill="white"/>
<rect x="222.715" y="100" width="2.71124" height="37.9574" rx="1.35562" fill="white"/>
<rect x="231.426" y="105.422" width="2.71124" height="27.1124" rx="1.35562" fill="white"/>
<rect x="240.137" y="110.845" width="2.71124" height="16.2674" rx="1.35562" fill="white"/>
<rect x="248.848" y="106.507" width="2.71124" height="24.9434" rx="1.35562" fill="white"/>
<rect x="257.56" y="110.845" width="2.71124" height="16.2674" rx="1.35562" fill="white"/>
<defs>
<clipPath id="clip0_1230_77435">
<rect width="253.916" height="39.283" fill="white" transform="translate(10 10)"/>
</clipPath>
</defs>
</svg>
