<svg width="16" height="16" viewBox="0 0 16 16" fill="none" xmlns="http://www.w3.org/2000/svg">
<path opacity="0.12" d="M13.3335 7.3335C13.3335 10.6472 10.6472 13.3335 7.3335 13.3335C4.01979 13.3335 1.3335 10.6472 1.3335 7.3335C1.3335 4.01979 4.01979 1.3335 7.3335 1.3335C10.6472 1.3335 13.3335 4.01979 13.3335 7.3335Z" fill="#858585"/>
<path fill-rule="evenodd" clip-rule="evenodd" d="M2.0835 7.3335C2.0835 4.434 4.434 2.0835 7.3335 2.0835C10.233 2.0835 12.5835 4.434 12.5835 7.3335C12.5835 10.233 10.233 12.5835 7.3335 12.5835C4.434 12.5835 2.0835 10.233 2.0835 7.3335ZM7.3335 0.583496C3.60557 0.583496 0.583496 3.60557 0.583496 7.3335C0.583496 11.0614 3.60557 14.0835 7.3335 14.0835C8.92726 14.0835 10.392 13.5311 11.5468 12.6074L13.4698 14.5305C13.7627 14.8234 14.2376 14.8234 14.5305 14.5305C14.8234 14.2376 14.8234 13.7627 14.5305 13.4698L12.6074 11.5468C13.5311 10.392 14.0835 8.92726 14.0835 7.3335C14.0835 3.60557 11.0614 0.583496 7.3335 0.583496Z" fill="#858585"/>
</svg>
