<svg width="484" height="367" viewBox="0 0 484 367" fill="none" xmlns="http://www.w3.org/2000/svg">
<path d="M178.779 202.814L75.0499 142.532L75.9351 141.166L179.584 201.447L178.779 202.814Z" fill="#272727"/>
<path d="M429.946 338.944L326.216 277.789L327.102 276.402L430.75 337.558L429.946 338.944Z" fill="#272727"/>
<path d="M420.656 178.443L384.508 158.628L358.73 172.994L358 171.72L384.508 157L420.656 176.815L444.828 163.299L445.558 164.502L420.656 178.443Z" fill="#272727"/>
<path d="M126.452 299.632L90.673 278.991L65.1579 293.955L64.4351 292.629L90.673 277.295L126.452 297.936L150.377 283.856L151.1 285.109L126.452 299.632Z" fill="#272727"/>
<path d="M470.278 156.772C468.184 157.98 464.72 157.98 462.625 156.772C460.45 155.563 460.45 153.55 462.625 152.341C464.72 151.133 468.184 151.133 470.278 152.341C472.373 153.55 472.373 155.563 470.278 156.772Z" fill="#484848"/>
<path d="M47.3404 302.585C45.2459 303.793 41.7818 303.793 39.6872 302.585C37.5121 301.376 37.5121 299.362 39.6872 298.154C41.7818 296.945 45.2459 296.945 47.3404 298.154C49.4349 299.362 49.4349 301.376 47.3404 302.585Z" fill="#484848"/>
<path fill-rule="evenodd" clip-rule="evenodd" d="M233.406 331.796L233.068 331.594L68.9023 237.228L69.9161 236.621L270.714 120.941L271.052 121.144L435.218 215.509L434.204 216.116L233.406 331.796ZM71.6058 237.228L233.406 330.245L432.447 215.509L270.714 122.493L71.6058 237.228Z" fill="#272727"/>
<path d="M386.078 34.2769V39.2802L418.867 58.2214V53.3074L386.078 34.2769Z" fill="#484848"/>
<path d="M483.911 57.6853L451.121 76.9839L451.21 170.796L483.911 152.213V57.6853Z" fill="#1C1C1C"/>
<path d="M386.078 39.2803L451.121 76.9839L451.21 170.796L386.167 133.271L386.078 39.2803Z" fill="#3D3D3D"/>
<path d="M484 151.945L451.21 170.796V175.71L484 156.68V151.945Z" fill="#484848"/>
<path d="M451.21 170.796V175.71L386.167 138.185V133.271L451.21 170.796Z" fill="#484848"/>
<path d="M451.121 71.9807L483.821 52.9502L483.911 57.6855L451.121 76.8947V71.9807Z" fill="#484848"/>
<path d="M418.331 53.0396V57.9535L451.121 76.9841V71.9807L418.331 53.0396Z" fill="#484848"/>
<path d="M451.121 72.3377L386.078 34.2766L418.689 15.5142L483.821 52.9498L451.121 72.3377Z" fill="#282828"/>
<path d="M425.568 53.1287L428.517 54.9156L450.942 68.228L473.636 54.8262L476.584 53.0393L451.032 38.4761L425.568 53.1287Z" fill="black"/>
<path d="M428.517 54.9155L450.942 68.2279L473.636 54.8262L451.032 41.9604L428.517 54.9155Z" fill="#161616"/>
<path d="M393.583 34.7237L396.531 36.5106L419.046 49.7336L441.65 36.3319L444.688 34.6343L419.046 20.071L393.583 34.7237Z" fill="black"/>
<path d="M396.531 36.5107L419.046 49.7338L441.65 36.332L419.046 23.5557L396.531 36.5107Z" fill="#161616"/>
<path d="M434.503 77.2524V92.2624L420.922 84.4L434.056 91.9944V76.9844L434.503 77.2524Z" fill="black"/>
<path d="M434.503 76.8055V91.9048L420.922 83.9531V68.9431L434.503 76.8055Z" fill="black"/>
<path d="M434.145 76.8948L420.922 69.3005V83.417L420.118 83.8638V68.8538L434.145 76.8948Z" fill="black"/>
<path d="M434.503 91.1009V92.0837L420.297 83.7746L420.922 83.3279L434.503 91.1009Z" fill="black"/>
<path d="M434.056 76.8948L420.922 69.3005V83.5064L420.118 83.8638V68.8538L434.056 76.8948Z" fill="#484848"/>
<path d="M434.503 91.1903V92.1731L420.208 83.7746L420.922 83.4172L434.503 91.1903Z" fill="black"/>
<path d="M427.445 72.9638V87.1697L426.64 87.5271V72.5171L427.445 72.9638Z" fill="#484848"/>
<path d="M426.104 71.8025V87.2592L426.64 87.5272V72.5173L426.104 71.8025Z" fill="black"/>
<path fill-rule="evenodd" clip-rule="evenodd" d="M434.503 76.716V92.7982L419.582 84.1317V68.0496L434.503 76.716ZM433.967 77.0734L420.208 69.1217V83.8637L433.967 91.8154V77.0734Z" fill="#606060"/>
<path d="M434.503 101.822V116.922L420.922 109.059L434.056 116.654V101.554L434.503 101.822Z" fill="black"/>
<path d="M434.503 101.465V116.564L420.922 108.613V93.6025L434.503 101.465Z" fill="black"/>
<path d="M434.145 101.554L420.922 93.9599V108.076L420.118 108.523V93.5132L434.145 101.554Z" fill="black"/>
<path d="M434.503 115.671V116.743L420.297 108.434L420.922 107.987L434.503 115.671Z" fill="black"/>
<path d="M434.056 101.554L420.922 93.9599V108.076L420.118 108.523V93.5132L434.056 101.554Z" fill="#484848"/>
<path d="M434.503 115.76V116.832L420.208 108.434L420.922 108.077L434.503 115.76Z" fill="black"/>
<path d="M427.445 97.6232V111.829L426.64 112.186V97.1765L427.445 97.6232Z" fill="#484848"/>
<path d="M426.104 96.4619V111.919L426.64 112.187V97.1767L426.104 96.4619Z" fill="black"/>
<path fill-rule="evenodd" clip-rule="evenodd" d="M434.503 101.376V117.458L419.582 108.791V92.7092L434.503 101.376ZM433.967 101.733L420.208 93.7814V108.523L433.967 116.475V101.733Z" fill="#606060"/>
<path d="M434.503 126.482V141.581L420.922 133.629L434.056 141.313V126.214L434.503 126.482Z" fill="black"/>
<path d="M434.503 126.035V141.134L420.922 133.272V118.173L434.503 126.035Z" fill="black"/>
<path d="M434.145 126.213L420.922 118.619V132.646L420.118 133.182V118.083L434.145 126.213Z" fill="black"/>
<path d="M434.503 140.33V141.313L420.297 133.004L420.922 132.646L434.503 140.33Z" fill="black"/>
<path d="M434.056 126.213L420.922 118.53V132.736L420.118 133.182V118.083L434.056 126.213Z" fill="#484848"/>
<path d="M434.503 140.42V141.402L420.208 133.093L420.922 132.646L434.503 140.42Z" fill="black"/>
<path d="M427.445 122.282V136.399L426.64 136.846V121.836L427.445 122.282Z" fill="#484848"/>
<path d="M426.104 121.121V136.488L426.64 136.846V121.836L426.104 121.121Z" fill="black"/>
<path fill-rule="evenodd" clip-rule="evenodd" d="M434.503 125.946V142.028L419.582 133.361V117.368L434.503 125.946ZM433.967 126.214L420.208 118.262V133.004L433.967 141.045V126.214Z" fill="#606060"/>
<path d="M411.273 63.1351V78.4132L406.18 75.3754V60.0974L411.273 63.1351Z" fill="black"/>
<path d="M406.27 60.5446V74.8398L405.376 75.2866V60.0085L406.27 60.5446Z" fill="black"/>
<path d="M411.273 77.6989V78.5923L405.555 75.1972L406.27 74.7505L411.273 77.6989Z" fill="black"/>
<path d="M406.18 60.5446V74.8398L405.376 75.2866V60.0085L406.18 60.5446Z" fill="#484848"/>
<path d="M411.273 77.7877V78.6812L405.466 75.1967L406.18 74.8394L411.273 77.7877Z" fill="black"/>
<path fill-rule="evenodd" clip-rule="evenodd" d="M411.988 63.4927V79.6642L404.929 75.5543V59.3828L411.988 63.4927ZM411.184 63.582L405.376 60.1869V75.1969L411.184 78.5027V63.582Z" fill="#606060"/>
<path d="M411.273 87.7948V103.073L406.18 100.035V84.7571L411.273 87.7948Z" fill="black"/>
<path d="M406.27 85.204V99.4993L405.466 99.946V84.668L406.27 85.204Z" fill="black"/>
<path d="M411.273 102.358V103.252L405.555 99.8566L406.269 99.4099L411.273 102.358Z" fill="black"/>
<path d="M406.18 85.204V99.4993L405.376 99.946V84.668L406.18 85.204Z" fill="#484848"/>
<path d="M411.273 102.447V103.341L405.555 99.8564L406.18 99.499L411.273 102.447Z" fill="black"/>
<path fill-rule="evenodd" clip-rule="evenodd" d="M412.077 88.1521V104.324L404.929 100.214V84.0422L412.077 88.1521ZM411.273 88.2415L405.555 84.9357V99.8563L411.273 103.251V88.2415Z" fill="#606060"/>
<path d="M411.273 112.454V127.732L406.18 124.694V109.416L411.273 112.454Z" fill="black"/>
<path d="M406.27 109.863V124.069L405.466 124.605V109.327L406.27 109.863Z" fill="black"/>
<path d="M411.273 127.017V127.911L405.555 124.516L406.269 124.069L411.273 127.017Z" fill="black"/>
<path d="M406.18 109.863V124.158L405.376 124.605V109.327L406.18 109.863Z" fill="#484848"/>
<path d="M411.273 127.107V128L405.555 124.516L406.18 124.158L411.273 127.107Z" fill="black"/>
<path fill-rule="evenodd" clip-rule="evenodd" d="M412.077 112.812V128.983L404.929 124.873V108.702L412.077 112.812ZM411.273 112.901L405.555 109.506V124.516L411.273 127.822V112.901Z" fill="#606060"/>
<path d="M396.71 124.158L403.053 120.495V126.392L396.71 130.144V124.158Z" fill="#1C1C1C"/>
<path d="M403.053 120.495L401.534 119.602L396.531 122.461L396.71 124.158L403.053 120.495Z" fill="#484848"/>
<path d="M411.184 130.948L416.187 128.089V136.577L411.184 139.526V130.948Z" fill="#1C1C1C"/>
<path d="M411.184 130.948L396.531 122.46V131.038L411.184 139.525V130.948Z" fill="#2D2D2D"/>
<path d="M396.531 122.461L397.961 121.656L412.613 130.144L411.184 130.948L396.531 122.461Z" fill="#484848"/>
<path d="M416.187 128.089L414.668 127.106L409.665 130.055L411.184 130.948L416.187 128.089Z" fill="#484848"/>
<path d="M396.71 99.5887L403.143 95.8362V101.733L396.71 105.485V99.5887Z" fill="#1C1C1C"/>
<path d="M403.143 95.8361L401.534 94.9426L396.531 97.8017L396.71 99.5886L403.143 95.8361Z" fill="#484848"/>
<path d="M411.273 106.29L416.187 103.431L416.277 111.918L411.273 114.867V106.29Z" fill="#1C1C1C"/>
<path d="M411.273 106.29L396.531 97.8018V106.379L411.273 114.867V106.29Z" fill="#2D2D2D"/>
<path d="M396.531 97.8017L397.961 96.9976L412.613 105.485L411.273 106.289L396.531 97.8017Z" fill="#484848"/>
<path d="M416.187 103.431L414.668 102.537L409.665 105.396L411.273 106.29L416.187 103.431Z" fill="#484848"/>
<path d="M396.71 74.929L403.143 71.1765V77.0733L396.71 80.8258V74.929Z" fill="#1C1C1C"/>
<path d="M403.143 71.1767L401.534 70.2832L396.531 73.1422L396.71 74.9291L403.143 71.1767Z" fill="#484848"/>
<path d="M411.273 81.63L416.187 78.771L416.276 87.2588L411.273 90.2072V81.63Z" fill="#1C1C1C"/>
<path d="M411.273 81.6296L396.531 73.1418V81.719L411.273 90.2068V81.6296Z" fill="#2D2D2D"/>
<path d="M396.531 73.142L397.961 72.3379L412.613 80.8257L411.273 81.6298L396.531 73.142Z" fill="#484848"/>
<path d="M416.187 78.7709L414.668 77.8774L409.665 80.7365L411.273 81.6299L416.187 78.7709Z" fill="#484848"/>
<path d="M460.591 81.2722V96.3715L474.172 88.4198L461.038 96.0141V81.0042L460.591 81.2722Z" fill="black"/>
<path d="M460.591 80.8255V95.9248L474.172 87.9731V72.9631L460.591 80.8255Z" fill="black"/>
<path d="M460.949 80.9146L474.172 73.3203V87.4368L474.976 87.8835V72.8735L460.949 80.9146Z" fill="black"/>
<path d="M460.591 95.1209V96.1037L474.797 87.7946L474.172 87.4373L460.591 95.1209Z" fill="black"/>
<path d="M461.038 80.9146L474.172 73.3203V87.5261L474.976 87.8835V72.8735L461.038 80.9146Z" fill="#484848"/>
<path d="M460.591 95.2103V96.1931L474.887 87.884L474.172 87.4373L460.591 95.2103Z" fill="black"/>
<path d="M467.65 77.0729V91.1895L468.454 91.6362V76.5369L467.65 77.0729Z" fill="#484848"/>
<path d="M468.99 75.9116V91.279L468.454 91.6364V76.537L468.99 75.9116Z" fill="black"/>
<path fill-rule="evenodd" clip-rule="evenodd" d="M475.512 72.1592V88.152L460.592 96.8184V80.7363L475.512 72.1592ZM461.128 95.925L474.887 87.8839V73.142L461.128 81.0937V95.925Z" fill="#606060"/>
<path d="M460.591 105.932V121.031L474.172 113.079L461.038 120.674V105.664L460.591 105.932Z" fill="black"/>
<path d="M460.591 105.485V120.584L474.172 112.633V97.6226L460.591 105.485Z" fill="black"/>
<path d="M460.949 105.574L474.172 97.9797V112.096L474.976 112.543V97.533L460.949 105.574Z" fill="black"/>
<path d="M460.591 119.78V120.763L474.797 112.454L474.172 112.096L460.591 119.78Z" fill="black"/>
<path d="M461.038 105.574L474.172 97.9797V112.186L474.976 112.543V97.533L461.038 105.574Z" fill="#484848"/>
<path d="M460.591 119.869V120.852L474.887 112.454L474.172 112.096L460.591 119.869Z" fill="black"/>
<path d="M467.65 101.732V115.849L468.454 116.296V101.196L467.65 101.732Z" fill="#484848"/>
<path d="M468.99 100.482V115.938L468.454 116.296V101.196L468.99 100.482Z" fill="black"/>
<path fill-rule="evenodd" clip-rule="evenodd" d="M475.512 96.729V112.811L460.591 121.478V105.395L475.512 96.729ZM461.128 120.495L474.887 112.454V97.7118L461.128 105.664V120.495Z" fill="#606060"/>
<path d="M460.591 130.502V145.601L474.172 137.739L461.038 145.333V130.234L460.591 130.502Z" fill="black"/>
<path d="M460.591 130.144V145.154L474.172 137.292V122.193L460.591 130.144Z" fill="black"/>
<path d="M460.949 130.234L474.172 122.639V136.667L474.976 137.203V122.103L460.949 130.234Z" fill="black"/>
<path d="M460.591 144.35V145.423L474.797 137.113L474.172 136.667L460.591 144.35Z" fill="black"/>
<path d="M461.038 130.234L474.172 122.639V136.756L474.976 137.203V122.103L461.038 130.234Z" fill="#484848"/>
<path d="M460.591 144.44V145.512L474.887 137.113L474.172 136.667L460.591 144.44Z" fill="black"/>
<path d="M467.65 126.303V140.509L468.454 140.866V125.856L467.65 126.303Z" fill="#484848"/>
<path d="M468.99 125.141V140.598L468.454 140.866V125.856L468.99 125.141Z" fill="black"/>
<path fill-rule="evenodd" clip-rule="evenodd" d="M475.512 121.388V137.471L460.591 146.137V130.055L475.512 121.388ZM461.128 145.065L474.887 137.113V122.282L461.128 130.234V145.065Z" fill="#606060"/>
<path d="M15.2952 210.287V215.29L48.0849 234.231V229.317L15.2952 210.287Z" fill="#484848"/>
<path d="M113.128 233.695L80.3385 252.994L80.4278 346.806L113.128 328.223V233.695Z" fill="#1C1C1C"/>
<path d="M15.2952 215.29L80.3384 252.994L80.4278 346.806L15.3845 309.281L15.2952 215.29Z" fill="#3D3D3D"/>
<path d="M113.217 327.955L80.4277 346.806V351.72L113.217 332.69V327.955Z" fill="#484848"/>
<path d="M80.4278 346.806V351.72L15.3845 314.195V309.281L80.4278 346.806Z" fill="#484848"/>
<path d="M80.3384 247.99L113.039 228.96L113.128 233.695L80.3384 252.904V247.99Z" fill="#484848"/>
<path d="M47.5487 229.049V233.963L80.3384 252.994V247.99L47.5487 229.049Z" fill="#484848"/>
<path d="M80.3384 248.348L15.2952 210.287L47.9062 191.524L113.039 228.96L80.3384 248.348Z" fill="#282828"/>
<path d="M54.7858 229.139L57.7341 230.926L80.1598 244.238L102.853 230.836L105.802 229.049L80.2491 214.486L54.7858 229.139Z" fill="black"/>
<path d="M57.7341 230.925L80.1597 244.238L102.853 230.836L80.2491 217.97L57.7341 230.925Z" fill="#161616"/>
<path d="M22.8002 210.734L25.7486 212.521L48.2635 225.744L70.8679 212.342L73.9056 210.644L48.2635 196.081L22.8002 210.734Z" fill="black"/>
<path d="M25.7487 212.52L48.2636 225.744L70.868 212.342L48.2636 199.565L25.7487 212.52Z" fill="#161616"/>
<path d="M63.7202 253.262V268.272L50.1398 260.41L63.2735 268.004V252.994L63.7202 253.262Z" fill="black"/>
<path d="M63.7202 252.815V267.914L50.1398 259.963V244.953L63.7202 252.815Z" fill="black"/>
<path d="M63.3628 252.904L50.1397 245.31V259.427L49.3356 259.873V244.863L63.3628 252.904Z" fill="black"/>
<path d="M63.7202 267.11V268.093L49.5143 259.784L50.1397 259.337L63.7202 267.11Z" fill="black"/>
<path d="M63.2735 252.904L50.1397 245.31V259.516L49.3356 259.873V244.863L63.2735 252.904Z" fill="#484848"/>
<path d="M63.7202 267.2V268.183L49.4249 259.784L50.1397 259.427L63.7202 267.2Z" fill="black"/>
<path d="M56.6619 248.973V263.179L55.8578 263.537V248.527L56.6619 248.973Z" fill="#484848"/>
<path d="M55.3218 247.812V263.269L55.8578 263.537V248.527L55.3218 247.812Z" fill="black"/>
<path fill-rule="evenodd" clip-rule="evenodd" d="M63.7202 252.726V268.808L48.7996 260.141V244.059L63.7202 252.726ZM63.1841 253.083L49.425 245.131V259.873L63.1841 267.825V253.083Z" fill="#606060"/>
<path d="M63.7202 277.832V292.931L50.1398 285.069L63.2735 292.663V277.564L63.7202 277.832Z" fill="black"/>
<path d="M63.7202 277.475V292.574L50.1398 284.622V269.612L63.7202 277.475Z" fill="black"/>
<path d="M63.3628 277.564L50.1397 269.97V284.086L49.3356 284.533V269.523L63.3628 277.564Z" fill="black"/>
<path d="M63.7202 291.681V292.753L49.5143 284.444L50.1397 283.997L63.7202 291.681Z" fill="black"/>
<path d="M63.2735 277.564L50.1397 269.97V284.086L49.3356 284.533V269.523L63.2735 277.564Z" fill="#484848"/>
<path d="M63.7202 291.77V292.842L49.4249 284.444L50.1397 284.086L63.7202 291.77Z" fill="black"/>
<path d="M56.6619 273.633V287.839L55.8578 288.196V273.186L56.6619 273.633Z" fill="#484848"/>
<path d="M55.3218 272.472V287.928L55.8578 288.196V273.186L55.3218 272.472Z" fill="black"/>
<path fill-rule="evenodd" clip-rule="evenodd" d="M63.7202 277.385V293.467L48.7996 284.801V268.719L63.7202 277.385ZM63.1841 277.743L49.425 269.791V284.533L63.1841 292.485V277.743Z" fill="#606060"/>
<path d="M63.7202 302.491V317.59L50.1398 309.639L63.2735 317.322V302.223L63.7202 302.491Z" fill="black"/>
<path d="M63.7202 302.044V317.144L50.1398 309.281V294.182L63.7202 302.044Z" fill="black"/>
<path d="M63.3628 302.223L50.1397 294.628V308.656L49.3356 309.192V294.092L63.3628 302.223Z" fill="black"/>
<path d="M63.7202 316.339V317.322L49.5143 309.013L50.1397 308.656L63.7202 316.339Z" fill="black"/>
<path d="M63.2735 302.223L50.1397 294.539V308.745L49.3356 309.192V294.092L63.2735 302.223Z" fill="#484848"/>
<path d="M63.7202 316.429V317.412L49.4249 309.102L50.1397 308.656L63.7202 316.429Z" fill="black"/>
<path d="M56.6619 298.292V312.408L55.8578 312.855V297.845L56.6619 298.292Z" fill="#484848"/>
<path d="M55.3218 297.13V312.498L55.8578 312.855V297.845L55.3218 297.13Z" fill="black"/>
<path fill-rule="evenodd" clip-rule="evenodd" d="M63.7202 301.955V318.037L48.7996 309.371V293.378L63.7202 301.955ZM63.1841 302.223L49.425 294.271V309.013L63.1841 317.054V302.223Z" fill="#606060"/>
<path d="M40.4905 239.145V254.423L35.3978 251.385V236.107L40.4905 239.145Z" fill="black"/>
<path d="M35.4872 236.554V250.849L34.5938 251.296V236.018L35.4872 236.554Z" fill="black"/>
<path d="M40.4906 253.708V254.602L34.7725 251.207L35.4872 250.76L40.4906 253.708Z" fill="black"/>
<path d="M35.3979 236.554V250.849L34.5938 251.296V236.018L35.3979 236.554Z" fill="#484848"/>
<path d="M40.4905 253.797V254.691L34.6831 251.206L35.3979 250.849L40.4905 253.797Z" fill="black"/>
<path fill-rule="evenodd" clip-rule="evenodd" d="M41.2053 239.502V255.674L34.147 251.564V235.393L41.2053 239.502ZM40.4011 239.592L34.5937 236.197V251.207L40.4011 254.512V239.592Z" fill="#606060"/>
<path d="M40.4905 263.804V279.082L35.3978 276.044V260.766L40.4905 263.804Z" fill="black"/>
<path d="M35.4872 261.213V275.509L34.6831 275.955V260.677L35.4872 261.213Z" fill="black"/>
<path d="M40.4906 278.368V279.261L34.7725 275.866L35.4872 275.419L40.4906 278.368Z" fill="black"/>
<path d="M35.3979 261.213V275.509L34.5938 275.955V260.677L35.3979 261.213Z" fill="#484848"/>
<path d="M40.4906 278.457V279.35L34.7725 275.866L35.3979 275.508L40.4906 278.457Z" fill="black"/>
<path fill-rule="evenodd" clip-rule="evenodd" d="M41.2946 264.162V280.333L34.147 276.223V260.052L41.2946 264.162ZM40.4905 264.251L34.7724 260.945V275.866L40.4905 279.261V264.251Z" fill="#606060"/>
<path d="M40.4905 288.464V303.742L35.3978 300.704V285.426L40.4905 288.464Z" fill="black"/>
<path d="M35.4872 285.873V300.079L34.6831 300.615V285.337L35.4872 285.873Z" fill="black"/>
<path d="M40.4906 303.027V303.921L34.7725 300.526L35.4872 300.079L40.4906 303.027Z" fill="black"/>
<path d="M35.3979 285.873V300.168L34.5938 300.615V285.337L35.3979 285.873Z" fill="#484848"/>
<path d="M40.4906 303.116V304.01L34.7725 300.525L35.3979 300.168L40.4906 303.116Z" fill="black"/>
<path fill-rule="evenodd" clip-rule="evenodd" d="M41.2946 288.821V304.993L34.147 300.883V284.711L41.2946 288.821ZM40.4905 288.91L34.7724 285.515V300.525L40.4905 303.831V288.91Z" fill="#606060"/>
<path d="M25.9272 300.169L32.2708 296.505V302.402L25.9272 306.155V300.169Z" fill="#1C1C1C"/>
<path d="M32.2707 296.505L30.7518 295.612L25.7485 298.471L25.9272 300.168L32.2707 296.505Z" fill="#484848"/>
<path d="M40.4011 306.959L45.4045 304.1V312.587L40.4011 315.536V306.959Z" fill="#1C1C1C"/>
<path d="M40.4011 306.959L25.7485 298.471V307.048L40.4011 315.536V306.959Z" fill="#2D2D2D"/>
<path d="M25.7485 298.471L27.178 297.667L41.8307 306.155L40.4011 306.959L25.7485 298.471Z" fill="#484848"/>
<path d="M45.4044 304.1L43.8856 303.117L38.8822 306.065L40.4011 306.959L45.4044 304.1Z" fill="#484848"/>
<path d="M25.9272 275.598L32.3601 271.846V277.743L25.9272 281.495V275.598Z" fill="#1C1C1C"/>
<path d="M32.36 271.846L30.7518 270.953L25.7485 273.812L25.9272 275.599L32.36 271.846Z" fill="#484848"/>
<path d="M40.4905 282.299L45.4045 279.44L45.4938 287.928L40.4905 290.877V282.299Z" fill="#1C1C1C"/>
<path d="M40.4905 282.299L25.7485 273.811V282.388L40.4905 290.876V282.299Z" fill="#2D2D2D"/>
<path d="M25.7485 273.811L27.178 273.007L41.8307 281.495L40.4905 282.299L25.7485 273.811Z" fill="#484848"/>
<path d="M45.4044 279.44L43.8856 278.547L38.8822 281.406L40.4905 282.299L45.4044 279.44Z" fill="#484848"/>
<path d="M25.9272 250.939L32.3601 247.187V253.083L25.9272 256.836V250.939Z" fill="#1C1C1C"/>
<path d="M32.36 247.186L30.7518 246.293L25.7485 249.152L25.9272 250.939L32.36 247.186Z" fill="#484848"/>
<path d="M40.4905 257.64L45.4045 254.781L45.4938 263.269L40.4905 266.217V257.64Z" fill="#1C1C1C"/>
<path d="M40.4905 257.639L25.7485 249.152V257.729L40.4905 266.217V257.639Z" fill="#2D2D2D"/>
<path d="M25.7485 249.152L27.178 248.348L41.8307 256.836L40.4905 257.64L25.7485 249.152Z" fill="#484848"/>
<path d="M45.4044 254.781L43.8856 253.887L38.8822 256.746L40.4905 257.64L45.4044 254.781Z" fill="#484848"/>
<path d="M89.809 257.282V272.381L103.389 264.43L90.2557 272.024V257.014L89.809 257.282Z" fill="black"/>
<path d="M89.809 256.835V271.935L103.389 263.983V248.973L89.809 256.835Z" fill="black"/>
<path d="M90.1664 256.924L103.389 249.33V263.447L104.194 263.893V248.883L90.1664 256.924Z" fill="black"/>
<path d="M89.809 271.131V272.114L104.015 263.804L103.389 263.447L89.809 271.131Z" fill="black"/>
<path d="M90.2556 256.924L103.389 249.33V263.536L104.193 263.893V248.883L90.2556 256.924Z" fill="#484848"/>
<path d="M89.809 271.22V272.203L104.104 263.894L103.389 263.447L89.809 271.22Z" fill="black"/>
<path d="M96.8672 253.083V267.199L97.6713 267.646V252.547L96.8672 253.083Z" fill="#484848"/>
<path d="M98.2074 251.921V267.289L97.6714 267.646V252.547L98.2074 251.921Z" fill="black"/>
<path fill-rule="evenodd" clip-rule="evenodd" d="M104.73 248.169V264.161L89.809 272.828V256.746L104.73 248.169ZM90.3451 271.935L104.104 263.893V249.151L90.3451 257.103V271.935Z" fill="#606060"/>
<path d="M89.809 281.942V297.041L103.389 289.089L90.2557 296.684V281.674L89.809 281.942Z" fill="black"/>
<path d="M89.809 281.495V296.594L103.389 288.642V273.632L89.809 281.495Z" fill="black"/>
<path d="M90.1664 281.584L103.389 273.99V288.106L104.194 288.553V273.543L90.1664 281.584Z" fill="black"/>
<path d="M89.809 295.79V296.773L104.015 288.464L103.389 288.106L89.809 295.79Z" fill="black"/>
<path d="M90.2556 281.584L103.389 273.99V288.196L104.193 288.553V273.543L90.2556 281.584Z" fill="#484848"/>
<path d="M89.809 295.879V296.862L104.104 288.464L103.389 288.106L89.809 295.879Z" fill="black"/>
<path d="M96.8672 277.742V291.859L97.6713 292.306V277.206L96.8672 277.742Z" fill="#484848"/>
<path d="M98.2074 276.492V291.948L97.6714 292.306V277.206L98.2074 276.492Z" fill="black"/>
<path fill-rule="evenodd" clip-rule="evenodd" d="M104.73 272.739V288.821L89.809 297.487V281.405L104.73 272.739ZM90.3451 296.505L104.104 288.464V273.722L90.3451 281.673V296.505Z" fill="#606060"/>
<path d="M89.809 306.511V321.611L103.389 313.748L90.2557 321.343V306.243L89.809 306.511Z" fill="black"/>
<path d="M89.809 306.154V321.164L103.389 313.301V298.202L89.809 306.154Z" fill="black"/>
<path d="M90.1664 306.243L103.389 298.649V312.676L104.194 313.212V298.113L90.1664 306.243Z" fill="black"/>
<path d="M89.809 320.36V321.432L104.015 313.123L103.389 312.676L89.809 320.36Z" fill="black"/>
<path d="M90.2556 306.243L103.389 298.649V312.765L104.193 313.212V298.113L90.2556 306.243Z" fill="#484848"/>
<path d="M89.809 320.449V321.521L104.104 313.123L103.389 312.676L89.809 320.449Z" fill="black"/>
<path d="M96.8672 302.312V316.518L97.6713 316.875V301.865L96.8672 302.312Z" fill="#484848"/>
<path d="M98.2074 301.151V316.608L97.6714 316.876V301.866L98.2074 301.151Z" fill="black"/>
<path fill-rule="evenodd" clip-rule="evenodd" d="M104.73 297.398V313.48L89.809 322.147V306.065L104.73 297.398ZM90.3451 321.075L104.104 313.123V298.292L90.3451 306.243V321.075Z" fill="#606060"/>
<path d="M0 18.7625V23.7658L32.7897 42.707V37.793L0 18.7625Z" fill="#484848"/>
<path d="M97.8329 42.1709L65.0432 61.4695L65.1325 155.282L97.8329 136.698V42.1709Z" fill="#1C1C1C"/>
<path d="M0 23.7659L65.0433 61.4695L65.1326 155.282L0.0893234 117.757L0 23.7659Z" fill="#3D3D3D"/>
<path d="M97.9223 136.43L65.1326 155.282V160.196L97.9223 141.165V136.43Z" fill="#484848"/>
<path d="M65.1326 155.282V160.196L0.0893555 122.671V117.757L65.1326 155.282Z" fill="#484848"/>
<path d="M65.0432 56.4661L97.7435 37.4355L97.8329 42.1708L65.0432 61.3801V56.4661Z" fill="#484848"/>
<path d="M32.2535 37.5249V42.4389L65.0432 61.4694V56.4661L32.2535 37.5249Z" fill="#484848"/>
<path d="M65.0433 56.8235L0 18.7625L32.611 0L97.7436 37.4356L65.0433 56.8235Z" fill="#282828"/>
<path d="M39.4906 37.6143L42.439 39.4012L64.8646 52.7136L87.5583 39.3118L90.5067 37.5249L64.954 22.9617L39.4906 37.6143Z" fill="black"/>
<path d="M42.439 39.4009L64.8646 52.7133L87.5583 39.3115L64.954 26.4458L42.439 39.4009Z" fill="#161616"/>
<path d="M7.505 19.2093L10.4534 20.9962L32.9684 34.2192L55.5728 20.8175L58.6105 19.1199L32.9684 4.55664L7.505 19.2093Z" fill="black"/>
<path d="M10.4535 20.9961L32.9684 34.2192L55.5728 20.8174L32.9684 8.04102L10.4535 20.9961Z" fill="#161616"/>
<path d="M48.4251 61.7375V76.7475L34.8446 68.8851L47.9784 76.4795V61.4695L48.4251 61.7375Z" fill="black"/>
<path d="M48.4251 61.2906V76.3899L34.8446 68.4382V53.4282L48.4251 61.2906Z" fill="black"/>
<path d="M48.0676 61.3799L34.8445 53.7856V67.9021L34.0404 68.3489V53.3389L48.0676 61.3799Z" fill="black"/>
<path d="M48.425 75.586V76.5688L34.2191 68.2597L34.8445 67.813L48.425 75.586Z" fill="black"/>
<path d="M47.9783 61.3799L34.8445 53.7856V67.9915L34.0404 68.3489V53.3389L47.9783 61.3799Z" fill="#484848"/>
<path d="M48.425 75.6754V76.6582L34.1298 68.2597L34.8445 67.9023L48.425 75.6754Z" fill="black"/>
<path d="M41.3668 57.4489V71.6548L40.5626 72.0122V57.0022L41.3668 57.4489Z" fill="#484848"/>
<path d="M40.0266 56.2876V71.7443L40.5627 72.0123V57.0024L40.0266 56.2876Z" fill="black"/>
<path fill-rule="evenodd" clip-rule="evenodd" d="M48.425 61.2014V77.2835L33.5044 68.617V52.5349L48.425 61.2014ZM47.8889 61.5588L34.1298 53.6071V68.349L47.8889 76.3007V61.5588Z" fill="#606060"/>
<path d="M48.4251 86.3076V101.407L34.8446 93.5445L47.9784 101.139V86.0396L48.4251 86.3076Z" fill="black"/>
<path d="M48.4251 85.9503V101.05L34.8446 93.0979V78.0879L48.4251 85.9503Z" fill="black"/>
<path d="M48.0676 86.0396L34.8445 78.4453V92.5618L34.0404 93.0085V77.9985L48.0676 86.0396Z" fill="black"/>
<path d="M48.425 100.156V101.228L34.2191 92.9194L34.8445 92.4727L48.425 100.156Z" fill="black"/>
<path d="M47.9783 86.0396L34.8445 78.4453V92.5618L34.0404 93.0085V77.9985L47.9783 86.0396Z" fill="#484848"/>
<path d="M48.425 100.246V101.318L34.1298 92.9194L34.8445 92.562L48.425 100.246Z" fill="black"/>
<path d="M41.3668 82.1083V96.3142L40.5626 96.6716V81.6616L41.3668 82.1083Z" fill="#484848"/>
<path d="M40.0266 80.9473V96.404L40.5627 96.672V81.662L40.0266 80.9473Z" fill="black"/>
<path fill-rule="evenodd" clip-rule="evenodd" d="M48.425 85.8608V101.943L33.5044 93.2765V77.1943L48.425 85.8608ZM47.8889 86.2182L34.1298 78.2665V93.0084L47.8889 100.96V86.2182Z" fill="#606060"/>
<path d="M48.4251 110.967V126.066L34.8446 118.114L47.9784 125.798V110.698L48.4251 110.967Z" fill="black"/>
<path d="M48.4251 110.52V125.619L34.8446 117.757V102.657L48.4251 110.52Z" fill="black"/>
<path d="M48.0676 110.698L34.8445 103.104V117.131L34.0404 117.667V102.568L48.0676 110.698Z" fill="black"/>
<path d="M48.425 124.815V125.798L34.2191 117.489L34.8445 117.131L48.425 124.815Z" fill="black"/>
<path d="M47.9783 110.698L34.8445 103.015V117.22L34.0404 117.667V102.568L47.9783 110.698Z" fill="#484848"/>
<path d="M48.425 124.904V125.887L34.1298 117.578L34.8445 117.131L48.425 124.904Z" fill="black"/>
<path d="M41.3668 106.767V120.884L40.5626 121.331V106.321L41.3668 106.767Z" fill="#484848"/>
<path d="M40.0266 105.606V120.973L40.5627 121.331V106.321L40.0266 105.606Z" fill="black"/>
<path fill-rule="evenodd" clip-rule="evenodd" d="M48.425 110.431V126.513L33.5044 117.846V101.854L48.425 110.431ZM47.8889 110.699L34.1298 102.747V117.489L47.8889 125.53V110.699Z" fill="#606060"/>
<path d="M25.1953 47.6203V62.8983L20.1027 59.8605V44.5825L25.1953 47.6203Z" fill="black"/>
<path d="M20.192 45.0297V59.325L19.2986 59.7717V44.4937L20.192 45.0297Z" fill="black"/>
<path d="M25.1954 62.184V63.0774L19.4773 59.6823L20.192 59.2356L25.1954 62.184Z" fill="black"/>
<path d="M20.1027 45.0297V59.325L19.2986 59.7717V44.4937L20.1027 45.0297Z" fill="#484848"/>
<path d="M25.1954 62.2728V63.1663L19.3879 59.6818L20.1027 59.3245L25.1954 62.2728Z" fill="black"/>
<path fill-rule="evenodd" clip-rule="evenodd" d="M25.9101 47.978V64.1495L18.8518 60.0396V43.8682L25.9101 47.978ZM25.106 48.0674L19.2985 44.6723V59.6823L25.106 62.988V48.0674Z" fill="#606060"/>
<path d="M25.1953 72.2797V87.5577L20.1027 84.52V69.2419L25.1953 72.2797Z" fill="black"/>
<path d="M20.192 69.6889V83.9841L19.3879 84.4309V69.1528L20.192 69.6889Z" fill="black"/>
<path d="M25.1954 86.8432V87.7366L19.4773 84.3415L20.192 83.8948L25.1954 86.8432Z" fill="black"/>
<path d="M20.1027 69.6889V83.9841L19.2986 84.4309V69.1528L20.1027 69.6889Z" fill="#484848"/>
<path d="M25.1954 86.9323V87.8257L19.4773 84.3413L20.1027 83.9839L25.1954 86.9323Z" fill="black"/>
<path fill-rule="evenodd" clip-rule="evenodd" d="M25.9994 72.6372V88.8087L18.8518 84.6988V68.5273L25.9994 72.6372ZM25.1953 72.7266L19.4772 69.4208V84.3414L25.1953 87.7366V72.7266Z" fill="#606060"/>
<path d="M25.1953 96.9393V112.217L20.1027 109.18V93.9016L25.1953 96.9393Z" fill="black"/>
<path d="M20.192 94.3486V108.554L19.3879 109.091V93.8125L20.192 94.3486Z" fill="black"/>
<path d="M25.1954 111.503V112.396L19.4773 109.001L20.192 108.554L25.1954 111.503Z" fill="black"/>
<path d="M20.1027 94.3486V108.644L19.2986 109.091V93.8125L20.1027 94.3486Z" fill="#484848"/>
<path d="M25.1954 111.592V112.485L19.4773 109.001L20.1027 108.644L25.1954 111.592Z" fill="black"/>
<path fill-rule="evenodd" clip-rule="evenodd" d="M25.9994 97.2966V113.468L18.8518 109.358V93.1868L25.9994 97.2966ZM25.1953 97.386L19.4772 93.9909V109.001L25.1953 112.307V97.386Z" fill="#606060"/>
<path d="M10.6321 108.644L16.9756 104.981V110.878L10.6321 114.63V108.644Z" fill="#1C1C1C"/>
<path d="M16.9756 104.981L15.4567 104.087L10.4534 106.946L10.632 108.644L16.9756 104.981Z" fill="#484848"/>
<path d="M25.106 115.434L30.1093 112.575V121.063L25.106 124.011V115.434Z" fill="#1C1C1C"/>
<path d="M25.1059 115.434L10.4534 106.947V115.524L25.1059 124.011V115.434Z" fill="#2D2D2D"/>
<path d="M10.4534 106.946L11.8829 106.142L26.5355 114.63L25.1059 115.434L10.4534 106.946Z" fill="#484848"/>
<path d="M30.1093 112.575L28.5904 111.592L23.587 114.541L25.1059 115.434L30.1093 112.575Z" fill="#484848"/>
<path d="M10.6321 84.074L17.0649 80.3215V86.2183L10.6321 89.9708V84.074Z" fill="#1C1C1C"/>
<path d="M17.0649 80.3217L15.4567 79.4282L10.4534 82.2873L10.632 84.0742L17.0649 80.3217Z" fill="#484848"/>
<path d="M25.1953 90.7751L30.1093 87.916L30.1986 96.4038L25.1953 99.3522V90.7751Z" fill="#1C1C1C"/>
<path d="M25.1953 90.7747L10.4534 82.2869V90.864L25.1953 99.3518V90.7747Z" fill="#2D2D2D"/>
<path d="M10.4534 82.287L11.8829 81.4829L26.5355 89.9707L25.1953 90.7748L10.4534 82.287Z" fill="#484848"/>
<path d="M30.1093 87.9159L28.5904 87.0225L23.587 89.8815L25.1953 90.775L30.1093 87.9159Z" fill="#484848"/>
<path d="M10.6321 59.4146L17.0649 55.6621V61.5589L10.6321 65.3114V59.4146Z" fill="#1C1C1C"/>
<path d="M17.0649 55.662L15.4567 54.7686L10.4534 57.6276L10.632 59.4145L17.0649 55.662Z" fill="#484848"/>
<path d="M25.1953 66.1156L30.1093 63.2566L30.1986 71.7444L25.1953 74.6928V66.1156Z" fill="#1C1C1C"/>
<path d="M25.1953 66.115L10.4534 57.6272V66.2043L25.1953 74.6921V66.115Z" fill="#2D2D2D"/>
<path d="M10.4534 57.6276L11.8829 56.8235L26.5355 65.3113L25.1953 66.1154L10.4534 57.6276Z" fill="#484848"/>
<path d="M30.1093 63.2565L28.5904 62.363L23.587 65.2221L25.1953 66.1155L30.1093 63.2565Z" fill="#484848"/>
<path d="M74.5138 65.7575V80.8569L88.0943 72.9051L74.9605 80.4995V65.4895L74.5138 65.7575Z" fill="black"/>
<path d="M74.5138 65.3109V80.4102L88.0943 72.4585V57.4485L74.5138 65.3109Z" fill="black"/>
<path d="M74.8712 65.4L88.0943 57.8056V71.9222L88.8984 72.3689V57.3589L74.8712 65.4Z" fill="black"/>
<path d="M74.5138 79.6063V80.5891L88.7197 72.28L88.0943 71.9226L74.5138 79.6063Z" fill="black"/>
<path d="M74.9604 65.4L88.0942 57.8056V72.0115L88.8983 72.3689V57.3589L74.9604 65.4Z" fill="#484848"/>
<path d="M74.5138 79.6956V80.6784L88.809 72.3693L88.0943 71.9226L74.5138 79.6956Z" fill="black"/>
<path d="M81.572 61.5583V75.6748L82.3761 76.1215V61.0222L81.572 61.5583Z" fill="#484848"/>
<path d="M82.9123 60.397V75.7643L82.3762 76.1217V61.0224L82.9123 60.397Z" fill="black"/>
<path fill-rule="evenodd" clip-rule="evenodd" d="M89.4344 56.6443V72.6371L74.5138 81.3036V65.2214L89.4344 56.6443ZM75.0499 80.4101L88.809 72.369V57.6271L75.0499 65.5788V80.4101Z" fill="#606060"/>
<path d="M74.5138 90.4172V105.517L88.0943 97.5648L74.9605 105.159V90.1492L74.5138 90.4172Z" fill="black"/>
<path d="M74.5138 89.9703V105.07L88.0943 97.1179V82.1079L74.5138 89.9703Z" fill="black"/>
<path d="M74.8712 90.0596L88.0943 82.4653V96.5818L88.8984 97.0285V82.0186L74.8712 90.0596Z" fill="black"/>
<path d="M74.5138 104.266V105.249L88.7197 96.9394L88.0943 96.582L74.5138 104.266Z" fill="black"/>
<path d="M74.9604 90.0596L88.0942 82.4653V96.6712L88.8983 97.0285V82.0186L74.9604 90.0596Z" fill="#484848"/>
<path d="M74.5138 104.355V105.338L88.809 96.9394L88.0943 96.582L74.5138 104.355Z" fill="black"/>
<path d="M81.572 86.218V100.334L82.3761 100.781V85.6819L81.572 86.218Z" fill="#484848"/>
<path d="M82.9123 84.9673V100.424L82.3762 100.781V85.682L82.9123 84.9673Z" fill="black"/>
<path fill-rule="evenodd" clip-rule="evenodd" d="M89.4344 81.2144V97.2965L74.5138 105.963V89.8808L89.4344 81.2144ZM75.0499 104.98L88.809 96.9391V82.1972L75.0499 90.1489V104.98Z" fill="#606060"/>
<path d="M74.5138 114.987V130.086L88.0943 122.224L74.9605 129.818V114.719L74.5138 114.987Z" fill="black"/>
<path d="M74.5138 114.629V129.639L88.0943 121.777V106.678L74.5138 114.629Z" fill="black"/>
<path d="M74.8712 114.719L88.0943 107.124V121.152L88.8984 121.688V106.588L74.8712 114.719Z" fill="black"/>
<path d="M74.5138 128.836V129.908L88.7197 121.599L88.0943 121.152L74.5138 128.836Z" fill="black"/>
<path d="M74.9604 114.719L88.0942 107.124V121.241L88.8983 121.688V106.588L74.9604 114.719Z" fill="#484848"/>
<path d="M74.5138 128.925V129.997L88.809 121.599L88.0943 121.152L74.5138 128.925Z" fill="black"/>
<path d="M81.572 110.788V124.994L82.3761 125.351V110.341L81.572 110.788Z" fill="#484848"/>
<path d="M82.9123 109.626V125.083L82.3762 125.351V110.341L82.9123 109.626Z" fill="black"/>
<path fill-rule="evenodd" clip-rule="evenodd" d="M89.4344 105.874V121.956L74.5138 130.622V114.54L89.4344 105.874ZM75.0499 129.55L88.809 121.599V106.767L75.0499 114.719V129.55Z" fill="#606060"/>
<path d="M350.34 224.582V229.585L383.129 248.527V243.613L350.34 224.582Z" fill="#484848"/>
<path d="M448.173 247.991L415.383 267.289L415.472 361.102L448.173 342.518V247.991Z" fill="#1C1C1C"/>
<path d="M350.34 229.585L415.383 267.289L415.472 361.102L350.429 323.577L350.34 229.585Z" fill="#3D3D3D"/>
<path d="M448.262 342.25L415.472 361.102V366.016L448.262 346.985V342.25Z" fill="#484848"/>
<path d="M415.472 361.101V366.015L350.429 328.49V323.576L415.472 361.101Z" fill="#484848"/>
<path d="M415.383 262.286L448.083 243.255L448.173 247.991L415.383 267.2V262.286Z" fill="#484848"/>
<path d="M382.593 243.345V248.259L415.383 267.289V262.286L382.593 243.345Z" fill="#484848"/>
<path d="M415.383 262.643L350.34 224.582L382.951 205.819L448.083 243.255L415.383 262.643Z" fill="#282828"/>
<path d="M389.83 243.434L392.779 245.221L415.204 258.533L437.898 245.132L440.846 243.345L415.294 228.781L389.83 243.434Z" fill="black"/>
<path d="M392.779 245.221L415.204 258.534L437.898 245.132L415.294 232.266L392.779 245.221Z" fill="#161616"/>
<path d="M357.845 225.029L360.793 226.816L383.308 240.039L405.912 226.637L408.95 224.939L383.308 210.376L357.845 225.029Z" fill="black"/>
<path d="M360.793 226.815L383.308 240.038L405.912 226.637L383.308 213.86L360.793 226.815Z" fill="#161616"/>
<path d="M398.765 267.557V282.567L385.184 274.705L398.318 282.299V267.289L398.765 267.557Z" fill="black"/>
<path d="M398.765 267.11V282.21L385.184 274.258V259.248L398.765 267.11Z" fill="black"/>
<path d="M398.407 267.2L385.184 259.605V273.722L384.38 274.168V259.158L398.407 267.2Z" fill="black"/>
<path d="M398.765 281.406V282.388L384.559 274.079L385.184 273.633L398.765 281.406Z" fill="black"/>
<path d="M398.318 267.2L385.184 259.605V273.811L384.38 274.168V259.158L398.318 267.2Z" fill="#484848"/>
<path d="M398.765 281.495V282.478L384.469 274.08L385.184 273.722L398.765 281.495Z" fill="black"/>
<path d="M391.706 263.269V277.474L390.902 277.832V262.822L391.706 263.269Z" fill="#484848"/>
<path d="M390.366 262.107V277.564L390.902 277.832V262.822L390.366 262.107Z" fill="black"/>
<path fill-rule="evenodd" clip-rule="evenodd" d="M398.765 267.021V283.103L383.844 274.437V258.355L398.765 267.021ZM398.229 267.379L384.47 259.427V274.169L398.229 282.121V267.379Z" fill="#606060"/>
<path d="M398.765 292.127V307.226L385.184 299.364L398.318 306.958V291.859L398.765 292.127Z" fill="black"/>
<path d="M398.765 291.77V306.869L385.184 298.917V283.907L398.765 291.77Z" fill="black"/>
<path d="M398.407 291.859L385.184 284.265V298.381L384.38 298.828V283.818L398.407 291.859Z" fill="black"/>
<path d="M398.765 305.976V307.048L384.559 298.739L385.184 298.292L398.765 305.976Z" fill="black"/>
<path d="M398.318 291.859L385.184 284.265V298.381L384.38 298.828V283.818L398.318 291.859Z" fill="#484848"/>
<path d="M398.765 306.065V307.137L384.469 298.739L385.184 298.381L398.765 306.065Z" fill="black"/>
<path d="M391.706 287.928V302.134L390.902 302.491V287.481L391.706 287.928Z" fill="#484848"/>
<path d="M390.366 286.767V302.223L390.902 302.491V287.481L390.366 286.767Z" fill="black"/>
<path fill-rule="evenodd" clip-rule="evenodd" d="M398.765 291.68V307.763L383.844 299.096V283.014L398.765 291.68ZM398.229 292.038L384.47 284.086V298.828L398.229 306.78V292.038Z" fill="#606060"/>
<path d="M398.765 316.787V331.886L385.184 323.934L398.318 331.618V316.519L398.765 316.787Z" fill="black"/>
<path d="M398.765 316.34V331.439L385.184 323.577V308.478L398.765 316.34Z" fill="black"/>
<path d="M398.407 316.518L385.184 308.924V322.951L384.38 323.487V308.388L398.407 316.518Z" fill="black"/>
<path d="M398.765 330.635V331.618L384.559 323.309L385.184 322.952L398.765 330.635Z" fill="black"/>
<path d="M398.318 316.518L385.184 308.835V323.041L384.38 323.487V308.388L398.318 316.518Z" fill="#484848"/>
<path d="M398.765 330.725V331.707L384.469 323.398L385.184 322.952L398.765 330.725Z" fill="black"/>
<path d="M391.706 312.587V326.704L390.902 327.151V312.141L391.706 312.587Z" fill="#484848"/>
<path d="M390.366 311.426V326.793L390.902 327.151V312.141L390.366 311.426Z" fill="black"/>
<path fill-rule="evenodd" clip-rule="evenodd" d="M398.765 316.25V332.333L383.844 323.666V307.673L398.765 316.25ZM398.229 316.519L384.47 308.567V323.309L398.229 331.35V316.519Z" fill="#606060"/>
<path d="M375.535 253.44V268.718L370.442 265.681V250.403L375.535 253.44Z" fill="black"/>
<path d="M370.532 250.85V265.145L369.638 265.592V250.314L370.532 250.85Z" fill="black"/>
<path d="M375.535 268.004V268.898L369.817 265.502L370.532 265.056L375.535 268.004Z" fill="black"/>
<path d="M370.442 250.85V265.145L369.638 265.592V250.314L370.442 250.85Z" fill="#484848"/>
<path d="M375.535 268.093V268.986L369.728 265.502L370.442 265.145L375.535 268.093Z" fill="black"/>
<path fill-rule="evenodd" clip-rule="evenodd" d="M376.25 253.798V269.969L369.191 265.859V249.688L376.25 253.798ZM375.445 253.887L369.638 250.492V265.502L375.445 268.808V253.887Z" fill="#606060"/>
<path d="M375.535 278.1V293.378L370.442 290.34V275.062L375.535 278.1Z" fill="black"/>
<path d="M370.532 275.509V289.804L369.728 290.251V274.973L370.532 275.509Z" fill="black"/>
<path d="M375.535 292.663V293.557L369.817 290.162L370.532 289.715L375.535 292.663Z" fill="black"/>
<path d="M370.442 275.509V289.804L369.638 290.251V274.973L370.442 275.509Z" fill="#484848"/>
<path d="M375.535 292.752V293.646L369.817 290.161L370.442 289.804L375.535 292.752Z" fill="black"/>
<path fill-rule="evenodd" clip-rule="evenodd" d="M376.339 278.457V294.629L369.191 290.519V274.347L376.339 278.457ZM375.535 278.547L369.817 275.241V290.162L375.535 293.557V278.547Z" fill="#606060"/>
<path d="M375.535 302.759V318.037L370.442 314.999V299.721L375.535 302.759Z" fill="black"/>
<path d="M370.532 300.168V314.374L369.728 314.91V299.632L370.532 300.168Z" fill="black"/>
<path d="M375.535 317.323V318.216L369.817 314.821L370.532 314.374L375.535 317.323Z" fill="black"/>
<path d="M370.442 300.168V314.464L369.638 314.91V299.632L370.442 300.168Z" fill="#484848"/>
<path d="M375.535 317.412V318.305L369.817 314.821L370.442 314.463L375.535 317.412Z" fill="black"/>
<path fill-rule="evenodd" clip-rule="evenodd" d="M376.339 303.117V319.288L369.191 315.178V299.007L376.339 303.117ZM375.535 303.206L369.817 299.811V314.821L375.535 318.127V303.206Z" fill="#606060"/>
<path d="M360.972 314.463L367.315 310.8V316.697L360.972 320.45V314.463Z" fill="#1C1C1C"/>
<path d="M367.315 310.8L365.796 309.907L360.793 312.766L360.972 314.464L367.315 310.8Z" fill="#484848"/>
<path d="M375.446 321.254L380.449 318.395V326.882L375.446 329.831V321.254Z" fill="#1C1C1C"/>
<path d="M375.446 321.253L360.793 312.766V321.343L375.446 329.831V321.253Z" fill="#2D2D2D"/>
<path d="M360.793 312.766L362.222 311.962L376.875 320.449L375.446 321.254L360.793 312.766Z" fill="#484848"/>
<path d="M380.449 318.395L378.93 317.412L373.927 320.36L375.446 321.254L380.449 318.395Z" fill="#484848"/>
<path d="M360.972 289.894L367.405 286.141V292.038L360.972 295.791V289.894Z" fill="#1C1C1C"/>
<path d="M367.404 286.141L365.796 285.248L360.793 288.107L360.972 289.894L367.404 286.141Z" fill="#484848"/>
<path d="M375.535 296.595L380.449 293.736L380.538 302.224L375.535 305.172V296.595Z" fill="#1C1C1C"/>
<path d="M375.535 296.594L360.793 288.106V296.684L375.535 305.171V296.594Z" fill="#2D2D2D"/>
<path d="M360.793 288.107L362.222 287.303L376.875 295.791L375.535 296.595L360.793 288.107Z" fill="#484848"/>
<path d="M380.449 293.736L378.93 292.842L373.927 295.701L375.535 296.595L380.449 293.736Z" fill="#484848"/>
<path d="M360.972 265.234L367.405 261.482V267.379L360.972 271.131V265.234Z" fill="#1C1C1C"/>
<path d="M367.404 261.482L365.796 260.588L360.793 263.447L360.972 265.234L367.404 261.482Z" fill="#484848"/>
<path d="M375.535 271.935L380.449 269.076L380.538 277.564L375.535 280.512V271.935Z" fill="#1C1C1C"/>
<path d="M375.535 271.935L360.793 263.447V272.024L375.535 280.512V271.935Z" fill="#2D2D2D"/>
<path d="M360.793 263.447L362.222 262.643L376.875 271.131L375.535 271.935L360.793 263.447Z" fill="#484848"/>
<path d="M380.449 269.076L378.93 268.183L373.927 271.042L375.535 271.935L380.449 269.076Z" fill="#484848"/>
<path d="M424.854 271.577V286.677L438.434 278.725L425.3 286.319V271.309L424.854 271.577Z" fill="black"/>
<path d="M424.854 271.131V286.23L438.434 278.278V263.268L424.854 271.131Z" fill="black"/>
<path d="M425.211 271.22L438.434 263.626V277.742L439.238 278.189V263.179L425.211 271.22Z" fill="black"/>
<path d="M424.854 285.426V286.409L439.059 278.1L438.434 277.742L424.854 285.426Z" fill="black"/>
<path d="M425.3 271.22L438.434 263.626V277.832L439.238 278.189V263.179L425.3 271.22Z" fill="#484848"/>
<path d="M424.854 285.515V286.498L439.149 278.189L438.434 277.742L424.854 285.515Z" fill="black"/>
<path d="M431.912 267.378V281.495L432.716 281.941V266.842L431.912 267.378Z" fill="#484848"/>
<path d="M433.252 266.217V281.584L432.716 281.942V266.842L433.252 266.217Z" fill="black"/>
<path fill-rule="evenodd" clip-rule="evenodd" d="M439.774 262.464V278.457L424.853 287.124V271.041L439.774 262.464ZM425.39 286.23L439.149 278.189V263.447L425.39 271.399V286.23Z" fill="#606060"/>
<path d="M424.854 296.237V311.336L438.434 303.384L425.3 310.979V295.969L424.854 296.237Z" fill="black"/>
<path d="M424.854 295.79V310.889L438.434 302.938V287.928L424.854 295.79Z" fill="black"/>
<path d="M425.211 295.879L438.434 288.285V302.401L439.238 302.848V287.838L425.211 295.879Z" fill="black"/>
<path d="M424.854 310.086V311.068L439.059 302.759L438.434 302.402L424.854 310.086Z" fill="black"/>
<path d="M425.3 295.879L438.434 288.285V302.491L439.238 302.848V287.838L425.3 295.879Z" fill="#484848"/>
<path d="M424.854 310.175V311.158L439.149 302.759L438.434 302.402L424.854 310.175Z" fill="black"/>
<path d="M431.912 292.038V306.154L432.716 306.601V291.501L431.912 292.038Z" fill="#484848"/>
<path d="M433.252 290.787V306.244L432.716 306.601V291.502L433.252 290.787Z" fill="black"/>
<path fill-rule="evenodd" clip-rule="evenodd" d="M439.774 287.034V303.116L424.854 311.783V295.701L439.774 287.034ZM425.39 310.8L439.149 302.759V288.017L425.39 295.969V310.8Z" fill="#606060"/>
<path d="M424.854 320.807V335.906L438.434 328.044L425.3 335.638V320.539L424.854 320.807Z" fill="black"/>
<path d="M424.854 320.45V335.46L438.434 327.597V312.498L424.854 320.45Z" fill="black"/>
<path d="M425.211 320.539L438.434 312.945V326.972L439.238 327.508V312.408L425.211 320.539Z" fill="black"/>
<path d="M424.854 334.656V335.728L439.059 327.419L438.434 326.972L424.854 334.656Z" fill="black"/>
<path d="M425.3 320.539L438.434 312.945V327.061L439.238 327.508V312.408L425.3 320.539Z" fill="#484848"/>
<path d="M424.854 334.745V335.817L439.149 327.419L438.434 326.972L424.854 334.745Z" fill="black"/>
<path d="M431.912 316.608V330.814L432.716 331.171V316.161L431.912 316.608Z" fill="#484848"/>
<path d="M433.252 315.447V330.903L432.716 331.171V316.161L433.252 315.447Z" fill="black"/>
<path fill-rule="evenodd" clip-rule="evenodd" d="M439.774 311.694V327.776L424.854 336.442V320.36L439.774 311.694ZM425.39 335.37L439.149 327.418V312.587L425.39 320.539V335.37Z" fill="#606060"/>
<path d="M250.192 273.475H227.965L221.179 254.84L240.073 247.456L258.498 255.015L250.192 273.475Z" fill="black"/>
<path d="M306.404 240.951L250.192 273.474V257.242L273.648 235.032L306.404 224.719V240.951Z" fill="black"/>
<path d="M306.404 224.719V211.827L260.311 185.164H238.084L181.872 217.687V230.579L227.965 257.243H250.192L306.404 224.719Z" fill="black"/>
<path d="M227.965 273.476L181.872 246.812V230.58L227.965 257.243V273.476Z" fill="black"/>
<path d="M250.309 269.725H227.438L220.477 219.973L239.897 212.296L258.908 220.09L250.309 269.725Z" fill="#313131"/>
<path d="M308.159 236.264L250.309 269.725V222.376L274.467 199.522L308.159 188.915V236.264Z" fill="#1C1C1C"/>
<path d="M308.159 188.915V175.73L260.721 148.246H237.908L180 181.707V194.951L227.438 222.376H250.309L308.159 188.915Z" fill="#272727"/>
<path d="M227.438 269.724L180 242.299V194.95L227.438 222.375V269.724Z" fill="#3D3D3D"/>
<path d="M250.192 220.794H227.965L221.179 202.218L240.073 194.776L258.498 202.335L250.192 220.794Z" fill="#313131"/>
<path d="M306.404 188.329L250.192 220.794V204.562L273.648 182.352L306.404 172.038V188.329Z" fill="#1C1C1C"/>
<path d="M306.404 172.038V159.204L260.311 132.541H238.084L181.872 165.065V177.898L227.965 204.561H250.192L306.404 172.038Z" fill="#272727"/>
<path d="M227.965 220.794L181.872 194.189V177.898L227.965 204.562V220.794Z" fill="#3D3D3D"/>
<path d="M227.965 220.794L210.943 210.949V203.273L227.965 213.118V220.794Z" fill="#C92222"/>
<path opacity="0.3" d="M254.345 198.936L222.817 199.874L181.872 176.199V192.431L227.965 219.095H250.192L306.404 186.571V170.339L254.345 198.936Z" fill="black"/>
<path d="M250.309 215.988H227.438L220.478 185.515L239.897 177.897L258.908 185.691L250.309 215.988Z" fill="#313131"/>
<path d="M308.159 182.527L250.309 215.988V187.977L274.467 165.123L308.159 154.516V182.527Z" fill="#1C1C1C"/>
<path d="M308.159 154.516V141.272L260.721 113.847H237.908L180 147.308V160.493L227.438 187.977H250.309L308.159 154.516Z" fill="#272727"/>
<path d="M227.438 215.988L180 188.621V160.493L227.438 187.977V215.988Z" fill="#3D3D3D"/>
<path d="M250.192 186.396H227.965L221.179 167.761L240.073 160.318L258.498 167.936L250.192 186.396Z" fill="#313131"/>
<path d="M306.404 153.871L250.192 186.394V170.103L273.648 147.894L306.404 137.639V153.871Z" fill="#1C1C1C"/>
<path d="M306.404 137.639V124.747L260.311 98.084H238.084L181.872 130.607V143.441L227.965 170.104H250.192L306.404 137.639Z" fill="#272727"/>
<path d="M227.965 186.396L181.872 159.732V143.441L227.965 170.105V186.396Z" fill="#3D3D3D"/>
<path d="M227.965 186.396L210.943 176.551V168.815L227.965 178.66V186.396Z" fill="#C92222"/>
<path opacity="0.3" d="M254.345 164.479L222.817 165.416L181.872 141.742V158.033L227.965 184.637H250.192L306.404 152.114V135.882L254.345 164.479Z" fill="black"/>
<path d="M250.309 181.765H227.438L220.478 151.293L239.897 143.616L258.908 151.41L250.309 181.765Z" fill="#313131"/>
<path d="M308.159 148.305L250.309 181.766V153.696L274.467 130.842L308.159 120.236V148.305Z" fill="#1C1C1C"/>
<path d="M308.159 120.235V106.992L260.721 79.5667H237.908L180 113.028V126.271L227.438 153.696H250.309L308.159 120.235Z" fill="#272727"/>
<path d="M227.438 181.766L180 154.341V126.272L227.438 153.697V181.766Z" fill="#3D3D3D"/>
<path d="M250.192 152.114H227.965L221.179 133.537L240.073 126.095L258.498 133.654L250.192 152.114Z" fill="#313131"/>
<path d="M306.404 119.59L250.192 152.113V135.881L273.648 113.671L306.404 103.358V119.59Z" fill="#1C1C1C"/>
<path d="M306.404 103.357V90.4652L260.311 63.8606H238.084L181.872 96.3839V109.217L227.965 135.881H250.192L306.404 103.357Z" fill="#272727"/>
<path d="M227.965 152.114L181.872 125.509V109.218L227.965 135.881V152.114Z" fill="#3D3D3D"/>
<path d="M227.965 152.113L210.943 142.268V134.591L227.965 144.436V152.113Z" fill="#C92222"/>
<path opacity="0.3" d="M254.345 130.255L222.817 131.193L181.872 107.518V123.751L227.965 150.414H250.192L306.404 117.891V101.658L254.345 130.255Z" fill="black"/>
<path d="M250.309 147.66H227.438L220.477 117.129L239.897 109.511L258.908 117.305L250.309 147.66Z" fill="#313131"/>
<path d="M308.159 114.141L250.309 147.66V119.532L274.467 96.7366L308.159 86.0713V114.141Z" fill="#1C1C1C"/>
<path d="M308.159 86.0711V72.8859L260.721 45.4609H237.908L180 78.9218V92.1069L227.438 119.532H250.309L308.159 86.0711Z" fill="#272727"/>
<path d="M227.438 147.66L180 120.176V92.1064L227.438 119.531V147.66Z" fill="#3D3D3D"/>
<path d="M250.192 117.599H227.965L221.179 112.677L240.073 105.234L257.211 112.266L250.192 117.599Z" fill="#313131"/>
<path d="M306.404 85.0755L250.192 117.599V115.02L273.648 92.8108L306.404 82.4971V85.0755Z" fill="#1C1C1C"/>
<path d="M306.404 82.4967V69.6632L260.311 43H238.084L181.872 75.5233V88.3568L227.965 115.02H250.192L306.404 82.4967Z" fill="#272727"/>
<path fill-rule="evenodd" clip-rule="evenodd" d="M223.097 68.6165C224.659 68.5992 225.891 69.3103 225.861 70.2123L225.335 86.9242L238.644 79.2404C239.755 78.5986 241.558 78.5813 242.624 79.197L243.135 79.4919C243.526 77.4972 245.058 75.5372 247.732 73.9935C253.86 70.4551 263.669 70.3597 269.587 73.7767C275.461 77.1676 275.326 82.7961 269.287 86.3345L269.107 86.4385C262.978 89.9249 253.244 89.9943 247.371 86.6033L240.536 82.6573L224.374 91.989C223.547 92.4659 222.346 92.622 221.309 92.3705C220.964 92.2925 220.663 92.1884 220.408 92.041L220.378 92.0236C219.897 91.7288 219.597 91.3298 219.627 90.8962L220.243 70.2643C220.258 69.822 220.573 69.4317 221.054 69.1369L221.144 69.0848C221.655 68.8073 222.346 68.6165 223.097 68.6165ZM265.547 76.1096C261.776 73.9328 255.543 73.9935 251.637 76.2483C247.747 78.4945 247.641 82.0936 251.412 84.2704C255.167 86.4385 261.401 86.3778 265.291 84.1317C269.197 81.8768 269.302 78.2777 265.547 76.1096ZM248.678 65.4684C250.24 65.4511 251.472 66.1622 251.427 67.0555C251.427 67.5064 251.096 67.9054 250.571 68.2089C250.06 68.5038 249.354 68.7033 248.573 68.7032C245.959 68.7379 243.466 69.345 241.573 70.4378C239.695 71.5218 238.629 72.9701 238.584 74.4705C238.569 74.9301 238.238 75.3291 237.712 75.6326C237.202 75.9275 236.511 76.1182 235.715 76.1269C234.182 76.1443 232.951 75.4331 232.966 74.5399C233.041 72.1549 234.723 69.9001 237.682 68.1916C240.657 66.4744 244.562 65.5031 248.678 65.4684Z" fill="#757575"/>
<path d="M227.965 117.599L181.872 90.9358V88.3574L227.965 115.021V117.599Z" fill="#3D3D3D"/>
<path d="M337.305 283.211C331.044 287.374 320.956 287.374 314.695 283.211C308.435 279.049 308.435 272.285 314.695 268.122C320.956 263.959 331.044 263.959 337.305 268.122C343.565 272.285 343.565 279.049 337.305 283.211Z" fill="#C92222"/>
<path d="M320.667 276.907H326.32C327.518 276.907 328.117 276.907 328.575 276.773C328.978 276.654 329.305 276.465 329.51 276.233C329.743 275.969 329.743 275.623 329.743 274.931L329.743 271.667" stroke="black" stroke-width="2" stroke-linecap="round" stroke-linejoin="round"/>
<path d="M139.695 291.211C145.956 295.374 156.044 295.374 162.305 291.211C168.565 287.049 168.565 280.285 162.305 276.122C156.044 271.959 145.956 271.959 139.695 276.122C133.435 280.285 133.435 287.049 139.695 291.211Z" fill="#C92222"/>
<path d="M156.333 284.907H150.68C149.482 284.907 148.883 284.907 148.425 284.773C148.022 284.654 147.695 284.465 147.49 284.233C147.257 283.969 147.257 283.623 147.257 282.931L147.257 279.667" stroke="black" stroke-width="2" stroke-linecap="round" stroke-linejoin="round"/>
<path d="M142.695 178.122C148.956 173.96 159.044 173.96 165.305 178.122C171.565 182.285 171.565 189.049 165.305 193.212C159.044 197.374 148.956 197.374 142.695 193.212C136.435 189.049 136.435 182.285 142.695 178.122Z" fill="#C92222"/>
<path d="M160.333 183.426H154.68C153.481 183.426 152.882 183.426 152.425 183.561C152.022 183.679 151.695 183.868 151.49 184.101C151.257 184.365 151.257 184.711 151.257 185.403L151.257 188.667" stroke="black" stroke-width="2" stroke-linecap="round" stroke-linejoin="round"/>
<path d="M368.305 164.122C362.044 159.96 351.956 159.96 345.695 164.122C339.435 168.285 339.435 175.049 345.695 179.212C351.956 183.374 362.044 183.374 368.305 179.212C374.565 175.049 374.565 168.285 368.305 164.122Z" fill="#C92222"/>
<path d="M350.667 169.426H356.32C357.519 169.426 358.118 169.426 358.575 169.561C358.978 169.679 359.305 169.868 359.51 170.101C359.743 170.365 359.743 170.711 359.743 171.403L359.743 174.667" stroke="black" stroke-width="2" stroke-linecap="round" stroke-linejoin="round"/>
</svg>
