<svg width="484" height="368" viewBox="0 0 484 368" fill="none" xmlns="http://www.w3.org/2000/svg">
<path d="M419.656 177.443L383.508 157.628L357.73 171.994L357 170.72L383.508 156L419.656 175.815L443.828 162.298L444.558 163.501L419.656 177.443Z" fill="#272727"/>
<path d="M187.656 272.443L151.508 252.628L125.73 266.994L125 265.72L151.508 251L187.656 270.815L211.828 257.298L212.558 258.501L187.656 272.443Z" fill="#272727"/>
<path d="M126.452 299.632L90.673 278.991L65.1578 293.956L64.435 292.629L90.673 277.296L126.452 297.936L150.377 283.856L151.1 285.11L126.452 299.632Z" fill="#484848"/>
<path fill-rule="evenodd" clip-rule="evenodd" d="M233.406 331.796L233.068 331.594L68.9023 237.229L69.9161 236.622L270.714 120.942L271.052 121.144L435.218 215.509L434.204 216.116L233.406 331.796ZM71.6057 237.229L233.406 330.245L432.447 215.509L270.714 122.493L71.6057 237.229Z" fill="#272727"/>
<path d="M148.729 192.648L45 132.366L45.8852 131L149.534 191.282L148.729 192.648Z" fill="#272727"/>
<path d="M415.729 346.648L312 286.366L312.885 285L416.534 345.282L415.729 346.648Z" fill="#272727"/>
<path d="M386.078 34.2773V39.2807L418.867 58.2219V53.3079L386.078 34.2773Z" fill="#484848"/>
<path d="M483.911 57.6858L451.121 76.9844L451.21 170.797L483.911 152.213V57.6858Z" fill="#1C1C1C"/>
<path d="M386.078 39.2808L451.121 76.9844L451.21 170.797L386.167 133.272L386.078 39.2808Z" fill="#3D3D3D"/>
<path d="M484 151.945L451.21 170.797V175.711L484 156.68V151.945Z" fill="#484848"/>
<path d="M451.21 170.796V175.71L386.167 138.185V133.271L451.21 170.796Z" fill="#484848"/>
<path d="M451.121 71.9812L483.821 52.9507L483.911 57.686L451.121 76.8952V71.9812Z" fill="#484848"/>
<path d="M418.331 53.04V57.954L451.121 76.9845V71.9812L418.331 53.04Z" fill="#484848"/>
<path d="M451.121 72.3382L386.078 34.2771L418.689 15.5146L483.821 52.9503L451.121 72.3382Z" fill="#282828"/>
<path d="M425.568 53.1292L428.517 54.9161L450.942 68.2285L473.636 54.8267L476.584 53.0398L451.032 38.4766L425.568 53.1292Z" fill="black"/>
<path d="M428.517 54.916L450.942 68.2284L473.636 54.8266L451.032 41.9609L428.517 54.916Z" fill="#161616"/>
<path d="M393.583 34.7241L396.531 36.511L419.046 49.7341L441.65 36.3324L444.688 34.6348L419.046 20.0715L393.583 34.7241Z" fill="black"/>
<path d="M396.531 36.5112L419.046 49.7343L441.65 36.3325L419.046 23.5562L396.531 36.5112Z" fill="#161616"/>
<path d="M434.503 77.2529V92.2629L420.922 84.4005L434.056 91.9948V76.9849L434.503 77.2529Z" fill="black"/>
<path d="M434.503 76.806V91.9053L420.922 83.9536V68.9436L434.503 76.806Z" fill="black"/>
<path d="M434.145 76.8953L420.922 69.301V83.4175L420.118 83.8642V68.8542L434.145 76.8953Z" fill="black"/>
<path d="M434.503 91.1014V92.0842L420.297 83.7751L420.922 83.3284L434.503 91.1014Z" fill="black"/>
<path d="M434.056 76.8953L420.922 69.301V83.5069L420.118 83.8642V68.8542L434.056 76.8953Z" fill="#484848"/>
<path d="M434.503 91.1908V92.1736L420.208 83.7751L420.922 83.4177L434.503 91.1908Z" fill="black"/>
<path d="M427.445 72.9643V87.1702L426.64 87.5276V72.5176L427.445 72.9643Z" fill="#484848"/>
<path d="M426.104 71.803V87.2597L426.64 87.5277V72.5177L426.104 71.803Z" fill="black"/>
<path fill-rule="evenodd" clip-rule="evenodd" d="M434.503 76.7165V92.7987L419.582 84.1322V68.05L434.503 76.7165ZM433.967 77.0739L420.208 69.1222V83.8641L433.967 91.8159V77.0739Z" fill="#606060"/>
<path d="M434.503 101.823V116.922L420.922 109.06L434.056 116.654V101.555L434.503 101.823Z" fill="black"/>
<path d="M434.503 101.465V116.565L420.922 108.613V93.603L434.503 101.465Z" fill="black"/>
<path d="M434.145 101.555L420.922 93.9604V108.077L420.118 108.524V93.5137L434.145 101.555Z" fill="black"/>
<path d="M434.503 115.671V116.744L420.297 108.435L420.922 107.988L434.503 115.671Z" fill="black"/>
<path d="M434.056 101.555L420.922 93.9604V108.077L420.118 108.524V93.5137L434.056 101.555Z" fill="#484848"/>
<path d="M434.503 115.761V116.833L420.208 108.435L420.922 108.077L434.503 115.761Z" fill="black"/>
<path d="M427.445 97.6237V111.83L426.64 112.187V97.177L427.445 97.6237Z" fill="#484848"/>
<path d="M426.104 96.4624V111.919L426.64 112.187V97.1772L426.104 96.4624Z" fill="black"/>
<path fill-rule="evenodd" clip-rule="evenodd" d="M434.503 101.376V117.458L419.582 108.792V92.7097L434.503 101.376ZM433.967 101.734L420.208 93.7819V108.524L433.967 116.476V101.734Z" fill="#606060"/>
<path d="M434.503 126.482V141.581L420.922 133.63L434.056 141.313V126.214L434.503 126.482Z" fill="black"/>
<path d="M434.503 126.035V141.135L420.922 133.272V118.173L434.503 126.035Z" fill="black"/>
<path d="M434.145 126.214L420.922 118.62V132.647L420.118 133.183V118.083L434.145 126.214Z" fill="black"/>
<path d="M434.503 140.331V141.313L420.297 133.004L420.922 132.647L434.503 140.331Z" fill="black"/>
<path d="M434.056 126.214L420.922 118.53V132.736L420.118 133.183V118.083L434.056 126.214Z" fill="#484848"/>
<path d="M434.503 140.42V141.403L420.208 133.094L420.922 132.647L434.503 140.42Z" fill="black"/>
<path d="M427.445 122.283V136.399L426.64 136.846V121.836L427.445 122.283Z" fill="#484848"/>
<path d="M426.104 121.122V136.489L426.64 136.846V121.836L426.104 121.122Z" fill="black"/>
<path fill-rule="evenodd" clip-rule="evenodd" d="M434.503 125.946V142.028L419.582 133.362V117.369L434.503 125.946ZM433.967 126.214L420.208 118.262V133.004L433.967 141.045V126.214Z" fill="#606060"/>
<path d="M411.273 63.1356V78.4137L406.18 75.3759V60.0979L411.273 63.1356Z" fill="black"/>
<path d="M406.27 60.5451V74.8403L405.376 75.2871V60.009L406.27 60.5451Z" fill="black"/>
<path d="M411.273 77.6994V78.5928L405.555 75.1977L406.27 74.751L411.273 77.6994Z" fill="black"/>
<path d="M406.18 60.5451V74.8403L405.376 75.2871V60.009L406.18 60.5451Z" fill="#484848"/>
<path d="M411.273 77.7882V78.6817L405.466 75.1972L406.18 74.8398L411.273 77.7882Z" fill="black"/>
<path fill-rule="evenodd" clip-rule="evenodd" d="M411.988 63.4932V79.6647L404.929 75.5548V59.3833L411.988 63.4932ZM411.184 63.5825L405.376 60.1874V75.1974L411.184 78.5032V63.5825Z" fill="#606060"/>
<path d="M411.273 87.7953V103.073L406.18 100.036V84.7576L411.273 87.7953Z" fill="black"/>
<path d="M406.27 85.2045V99.4998L405.466 99.9465V84.6685L406.27 85.2045Z" fill="black"/>
<path d="M411.273 102.359V103.252L405.555 99.8571L406.27 99.4104L411.273 102.359Z" fill="black"/>
<path d="M406.18 85.2045V99.4998L405.376 99.9465V84.6685L406.18 85.2045Z" fill="#484848"/>
<path d="M411.273 102.448V103.341L405.555 99.8569L406.18 99.4995L411.273 102.448Z" fill="black"/>
<path fill-rule="evenodd" clip-rule="evenodd" d="M412.077 88.1526V104.324L404.929 100.214V84.0427L412.077 88.1526ZM411.273 88.242L405.555 84.9362V99.8568L411.273 103.252V88.242Z" fill="#606060"/>
<path d="M411.273 112.454V127.733L406.18 124.695V109.417L411.273 112.454Z" fill="black"/>
<path d="M406.27 109.864V124.07L405.466 124.606V109.328L406.27 109.864Z" fill="black"/>
<path d="M411.273 127.018V127.911L405.555 124.516L406.27 124.07L411.273 127.018Z" fill="black"/>
<path d="M406.18 109.864V124.159L405.376 124.606V109.328L406.18 109.864Z" fill="#484848"/>
<path d="M411.273 127.107V128.001L405.555 124.516L406.18 124.159L411.273 127.107Z" fill="black"/>
<path fill-rule="evenodd" clip-rule="evenodd" d="M412.077 112.812V128.984L404.929 124.874V108.702L412.077 112.812ZM411.273 112.901L405.555 109.506V124.516L411.273 127.822V112.901Z" fill="#606060"/>
<path d="M396.71 124.159L403.053 120.496V126.392L396.71 130.145V124.159Z" fill="#1C1C1C"/>
<path d="M403.053 120.496L401.534 119.602L396.531 122.461L396.71 124.159L403.053 120.496Z" fill="#484848"/>
<path d="M411.184 130.949L416.187 128.09V136.578L411.184 139.526V130.949Z" fill="#1C1C1C"/>
<path d="M411.184 130.949L396.531 122.461V131.038L411.184 139.526V130.949Z" fill="#2D2D2D"/>
<path d="M396.531 122.461L397.961 121.657L412.613 130.145L411.184 130.949L396.531 122.461Z" fill="#484848"/>
<path d="M416.187 128.09L414.668 127.107L409.665 130.055L411.184 130.949L416.187 128.09Z" fill="#484848"/>
<path d="M396.71 99.5892L403.143 95.8367V101.733L396.71 105.486V99.5892Z" fill="#1C1C1C"/>
<path d="M403.143 95.8366L401.534 94.9431L396.531 97.8022L396.71 99.5891L403.143 95.8366Z" fill="#484848"/>
<path d="M411.273 106.29L416.187 103.431L416.276 111.919L411.273 114.867V106.29Z" fill="#1C1C1C"/>
<path d="M411.273 106.29L396.531 97.8022V106.379L411.273 114.867V106.29Z" fill="#2D2D2D"/>
<path d="M396.531 97.8022L397.961 96.998L412.613 105.486L411.273 106.29L396.531 97.8022Z" fill="#484848"/>
<path d="M416.187 103.431L414.668 102.538L409.665 105.397L411.273 106.29L416.187 103.431Z" fill="#484848"/>
<path d="M396.71 74.9295L403.143 71.177V77.0738L396.71 80.8263V74.9295Z" fill="#1C1C1C"/>
<path d="M403.143 71.1771L401.534 70.2837L396.531 73.1427L396.71 74.9296L403.143 71.1771Z" fill="#484848"/>
<path d="M411.273 81.6305L416.187 78.7715L416.276 87.2593L411.273 90.2077V81.6305Z" fill="#1C1C1C"/>
<path d="M411.273 81.6301L396.531 73.1423V81.7195L411.273 90.2073V81.6301Z" fill="#2D2D2D"/>
<path d="M396.531 73.1425L397.961 72.3384L412.613 80.8262L411.273 81.6303L396.531 73.1425Z" fill="#484848"/>
<path d="M416.187 78.7714L414.668 77.8779L409.665 80.737L411.273 81.6304L416.187 78.7714Z" fill="#484848"/>
<path d="M460.591 81.2727V96.372L474.172 88.4203L461.038 96.0146V81.0046L460.591 81.2727Z" fill="black"/>
<path d="M460.591 80.826V95.9253L474.172 87.9736V72.9636L460.591 80.826Z" fill="black"/>
<path d="M460.949 80.9151L474.172 73.3207V87.4373L474.976 87.884V72.874L460.949 80.9151Z" fill="black"/>
<path d="M460.591 95.1214V96.1042L474.797 87.7951L474.172 87.4377L460.591 95.1214Z" fill="black"/>
<path d="M461.038 80.9151L474.172 73.3207V87.5266L474.976 87.884V72.874L461.038 80.9151Z" fill="#484848"/>
<path d="M460.591 95.2108V96.1936L474.887 87.8845L474.172 87.4377L460.591 95.2108Z" fill="black"/>
<path d="M467.65 77.0734V91.19L468.454 91.6367V76.5374L467.65 77.0734Z" fill="#484848"/>
<path d="M468.99 75.9121V91.2795L468.454 91.6369V76.5375L468.99 75.9121Z" fill="black"/>
<path fill-rule="evenodd" clip-rule="evenodd" d="M475.512 72.1597V88.1525L460.592 96.8189V80.7368L475.512 72.1597ZM461.128 95.9255L474.887 87.8844V73.1425L461.128 81.0942V95.9255Z" fill="#606060"/>
<path d="M460.591 105.932V121.031L474.172 113.08L461.038 120.674V105.664L460.591 105.932Z" fill="black"/>
<path d="M460.591 105.485V120.585L474.172 112.633V97.623L460.591 105.485Z" fill="black"/>
<path d="M460.949 105.575L474.172 97.9802V112.097L474.976 112.543V97.5334L460.949 105.575Z" fill="black"/>
<path d="M460.591 119.781V120.763L474.797 112.454L474.172 112.097L460.591 119.781Z" fill="black"/>
<path d="M461.038 105.575L474.172 97.9802V112.186L474.976 112.543V97.5334L461.038 105.575Z" fill="#484848"/>
<path d="M460.591 119.87V120.853L474.887 112.454L474.172 112.097L460.591 119.87Z" fill="black"/>
<path d="M467.65 101.733V115.849L468.454 116.296V101.197L467.65 101.733Z" fill="#484848"/>
<path d="M468.99 100.482V115.939L468.454 116.296V101.197L468.99 100.482Z" fill="black"/>
<path fill-rule="evenodd" clip-rule="evenodd" d="M475.512 96.7295V112.812L460.591 121.478V105.396L475.512 96.7295ZM461.128 120.495L474.887 112.454V97.7123L461.128 105.664V120.495Z" fill="#606060"/>
<path d="M460.591 130.502V145.602L474.172 137.739L461.038 145.333V130.234L460.591 130.502Z" fill="black"/>
<path d="M460.591 130.145V145.155L474.172 137.292V122.193L460.591 130.145Z" fill="black"/>
<path d="M460.949 130.234L474.172 122.64V136.667L474.976 137.203V122.104L460.949 130.234Z" fill="black"/>
<path d="M460.591 144.351V145.423L474.797 137.114L474.172 136.667L460.591 144.351Z" fill="black"/>
<path d="M461.038 130.234L474.172 122.64V136.756L474.976 137.203V122.104L461.038 130.234Z" fill="#484848"/>
<path d="M460.591 144.44V145.512L474.887 137.114L474.172 136.667L460.591 144.44Z" fill="black"/>
<path d="M467.65 126.303V140.509L468.454 140.866V125.856L467.65 126.303Z" fill="#484848"/>
<path d="M468.99 125.142V140.599L468.454 140.867V125.857L468.99 125.142Z" fill="black"/>
<path fill-rule="evenodd" clip-rule="evenodd" d="M475.512 121.389V137.471L460.591 146.138V130.055L475.512 121.389ZM461.128 145.065L474.887 137.114V122.282L461.128 130.234V145.065Z" fill="#606060"/>
<path d="M175.933 366.259L198.494 353.037L176.983 326.173L171.316 335.408L175.933 366.259Z" fill="#3A3A3A"/>
<path d="M175.933 366.259L198.494 353.037L176.983 326.173L171.316 335.408L175.933 366.259Z" fill="black" fill-opacity="0.2"/>
<path d="M12.2344 219.243L48.2271 198.466C48.2271 198.466 46.863 219.138 46.863 219.243L26.1908 225.644L12.2344 219.243Z" fill="#3A3A3A"/>
<path d="M12.2344 219.243L48.2271 198.466C48.2271 198.466 46.863 219.138 46.863 219.243L26.1908 225.644L12.2344 219.243Z" fill="black" fill-opacity="0.2"/>
<path d="M182.124 298.889C179.396 297.315 176.772 296.371 174.359 295.951C170.791 276.958 157.464 256.705 141.619 247.576C136.897 244.848 132.385 243.379 128.292 243.064C126.089 219.873 110.034 193.639 90.5157 182.411C80.337 176.535 71.1027 175.8 64.2819 179.368L63.9671 179.578C63.7573 179.648 63.5824 179.753 63.4425 179.893L42.2456 192.38L49.2762 197.942C42.9801 200.775 38.8876 207.806 38.8876 218.299C38.8876 237.712 52.5292 261.218 69.3188 270.872L182.124 351.462C194.716 358.807 205 352.826 205 338.345C205 323.864 194.716 306.13 182.124 298.889Z" fill="#3A3A3A"/>
<path d="M182.124 298.889C179.396 297.315 176.772 296.371 174.359 295.951C170.791 276.958 157.464 256.705 141.619 247.576C136.897 244.848 132.385 243.379 128.292 243.064C126.089 219.873 110.034 193.639 90.5157 182.411C80.337 176.535 71.1027 175.8 64.2819 179.368L63.9671 179.578C63.7573 179.648 63.5824 179.753 63.4425 179.893L42.2456 192.38L49.2762 197.942C42.9801 200.775 38.8876 207.806 38.8876 218.299C38.8876 237.712 52.5292 261.218 69.3188 270.872L182.124 351.462C194.716 358.807 205 352.826 205 338.345C205 323.864 194.716 306.13 182.124 298.889Z" fill="black" fill-opacity="0.2"/>
<path d="M39.9373 209.799L88.6272 181.362C79.183 176.43 70.6833 176.01 64.2822 179.368L63.9674 179.578C63.7575 179.648 63.5827 179.753 63.4427 179.893L42.2458 192.38L49.2765 197.941C44.8692 199.935 41.5113 203.923 39.9373 209.799Z" fill="#3A3A3A"/>
<path d="M39.9373 209.799L88.6272 181.362C79.183 176.43 70.6833 176.01 64.2822 179.368L63.9674 179.578C63.7575 179.648 63.5827 179.753 63.4427 179.893L42.2458 192.38L49.2765 197.941C44.8692 199.935 41.5113 203.923 39.9373 209.799Z" fill="black" fill-opacity="0.2"/>
<path d="M129.867 293.537L165.44 272.655C159.353 262.162 150.959 252.928 141.619 247.576C140.43 246.876 139.241 246.247 138.052 245.687L92.8245 272.131L129.867 293.537Z" fill="#3A3A3A"/>
<path d="M52.2147 194.688L68.0599 203.923L97.022 186.818C94.9233 185.139 92.7547 183.67 90.5161 182.411C87.0532 180.312 83.5903 178.948 80.4423 178.109L52.2147 194.688Z" fill="#C92222"/>
<path d="M161.557 266.569L133.12 283.254L142.983 294.272L168.798 279.057C166.699 274.649 164.285 270.452 161.557 266.569Z" fill="#C92222"/>
<path d="M159.878 312.007C157.15 310.433 154.526 309.489 152.113 309.069C148.44 290.076 135.218 269.823 119.373 260.694C114.651 257.966 110.139 256.496 106.046 256.182C103.843 232.991 87.7876 206.757 68.2697 195.529C47.2826 183.357 30.2831 193.221 30.2831 217.461C30.2831 218.3 30.2831 219.105 30.2831 219.874C14.9626 212.843 3 220.819 3 238.972C3 258.385 16.5366 281.891 33.3263 291.545L159.878 364.58C172.47 371.925 182.649 366.049 182.649 351.463C182.649 336.982 172.47 319.248 159.878 312.007Z" fill="#272727"/>
<path d="M159.878 312.007C157.15 310.433 154.526 309.489 152.113 309.069C148.44 290.076 135.218 269.823 119.373 260.694C114.651 257.966 110.139 256.496 106.046 256.182C103.843 232.991 87.7876 206.757 68.2697 195.529C47.2826 183.357 30.2831 193.221 30.2831 217.461C30.2831 218.3 30.2831 219.105 30.2831 219.874C14.9626 212.843 3 220.819 3 238.972C3 258.385 16.5366 281.891 33.3263 291.545L159.878 364.58C172.47 371.925 182.649 366.049 182.649 351.463C182.649 336.982 172.47 319.248 159.878 312.007Z" fill="url(#paint0_linear_1230_109911)"/>
<path d="M30.2831 219.874C30.2831 219.105 30.2831 218.3 30.2831 217.461C30.2831 217.391 30.2831 217.356 30.2831 217.356C21.7834 213.998 14.5429 215.467 9.92572 220.819C14.8577 216.726 22.0982 216.096 30.2831 219.874Z" fill="#272727"/>
<path d="M161.767 310.222C159.038 308.648 156.415 307.704 154.002 307.284C150.329 288.291 137.107 268.038 121.262 258.909C116.54 256.075 111.923 254.606 107.83 254.292C105.731 231.206 89.6764 204.972 70.1584 193.744C57.0415 186.189 45.4986 187.133 38.6779 194.793C45.6036 188.812 56.307 188.602 68.2696 195.528C87.7875 206.756 103.843 232.99 106.046 256.18C110.139 256.495 114.651 257.964 119.373 260.693C135.218 269.822 148.44 290.074 152.113 309.068C154.526 309.487 157.15 310.432 159.878 312.006C172.47 319.246 182.649 336.98 182.649 351.462C182.649 356.708 181.285 360.801 179.081 363.634C182.439 360.906 184.538 356.184 184.538 349.678C184.538 335.092 174.359 317.463 161.767 310.222Z" fill="#292929"/>
<path d="M25.7036 223.577L35.5965 228.247L35.0529 217.387C35.0529 216.59 35.0166 215.83 34.9442 215.106C34.9442 205.44 37.8794 198.381 43.2064 195.34C48.5333 192.299 56.1432 193.277 64.5141 198.055C82.5605 208.481 98.2152 233.786 100.281 255.724L100.824 261.263L106.369 261.697C109.739 261.914 113.544 263.217 117.457 265.498C131.808 273.752 144.744 292.975 148.114 311.22L148.984 315.782L153.659 316.433C155.471 316.723 157.391 317.447 159.421 318.605C170.401 325.013 179.75 341.086 179.75 353.793C179.75 358.571 178.445 362.047 176.054 363.35C173.771 364.653 170.075 364.11 165.943 361.721L34.8354 286.133C19.6156 277.336 6.78748 254.964 6.78748 237.37C6.78748 230.528 8.74431 225.206 12.3318 222.925C13.7451 222.057 15.5932 221.622 17.5501 221.622C19.9418 221.622 22.7683 222.274 25.7036 223.577Z" fill="#272727"/>
<path d="M25.7036 223.577L35.5965 228.247L35.0529 217.387C35.0529 216.59 35.0166 215.83 34.9442 215.106C34.9442 205.44 37.8794 198.381 43.2064 195.34C48.5333 192.299 56.1432 193.277 64.5141 198.055C82.5605 208.481 98.2152 233.786 100.281 255.724L100.824 261.263L106.369 261.697C109.739 261.914 113.544 263.217 117.457 265.498C131.808 273.752 144.744 292.975 148.114 311.22L148.984 315.782L153.659 316.433C155.471 316.723 157.391 317.447 159.421 318.605C170.401 325.013 179.75 341.086 179.75 353.793C179.75 358.571 178.445 362.047 176.054 363.35C173.771 364.653 170.075 364.11 165.943 361.721L34.8354 286.133C19.6156 277.336 6.78748 254.964 6.78748 237.37C6.78748 230.528 8.74431 225.206 12.3318 222.925C13.7451 222.057 15.5932 221.622 17.5501 221.622C19.9418 221.622 22.7683 222.274 25.7036 223.577Z" fill="url(#paint1_linear_1230_109911)"/>
<path d="M55.2561 264.734C55.1396 267.809 53.0712 270.323 48.977 267.748C44.8203 265.133 42.5918 259.766 42.7986 254.305C43.0063 248.82 45.5274 246.465 49.6841 249.079C53.1219 251.241 54.9486 255.11 55.3481 258.081C55.4336 258.638 55.4671 259.163 55.4484 259.655L52.6877 257.919C52.697 257.673 52.6959 257.42 52.674 257.155C52.5161 255.129 51.4369 252.926 49.5825 251.76C47.3844 250.378 45.7601 251.585 45.5906 256.061C45.421 260.538 46.8795 263.709 49.0776 265.092C51.1716 266.409 52.4143 265.138 52.4954 262.998L55.2561 264.734ZM59.593 274.148L60.28 256.008L63.0303 257.738L62.4448 273.197L68.2684 276.86L68.1668 279.541L59.593 274.148ZM77.7112 285.821C73.9816 283.475 71.1918 278.283 71.4191 272.281C71.6468 266.268 74.6782 264.8 78.4182 267.152C82.1895 269.524 84.9608 274.642 84.733 280.656C84.5057 286.657 81.4408 288.167 77.7112 285.821ZM77.8123 283.152C79.9688 284.509 81.7523 283.603 81.9307 278.893C82.1095 274.17 80.4628 271.183 78.3167 269.833C76.1915 268.496 74.3795 269.308 74.2006 274.031C74.0218 278.754 75.687 281.816 77.8123 283.152ZM100.414 293.075C100.239 297.699 98.029 298.6 94.5391 296.405C91.0595 294.217 89.0399 290.655 89.215 286.031L89.6524 274.483L92.4027 276.212L91.9644 287.785C91.854 290.7 92.702 292.53 94.6397 293.749C96.5878 294.974 97.5526 294.284 97.6629 291.369L98.1012 279.797L100.852 281.527L100.414 293.075ZM105.157 302.807L105.844 284.667L110.439 287.557C114.522 290.125 117.104 295.451 116.899 300.887C116.693 306.323 113.835 308.265 109.752 305.697L105.157 302.807ZM109.987 289.916L108.497 288.979L108.005 301.954L109.495 302.891C111.985 304.457 113.954 303.152 114.107 299.131C114.259 295.109 112.476 291.482 109.987 289.916Z" fill="#757575"/>
<path d="M350.34 224.582V229.585L383.129 248.527V243.613L350.34 224.582Z" fill="#484848"/>
<path d="M448.173 247.991L415.383 267.289L415.472 361.102L448.173 342.518V247.991Z" fill="#1C1C1C"/>
<path d="M350.34 229.585L415.383 267.289L415.472 361.102L350.429 323.577L350.34 229.585Z" fill="#3D3D3D"/>
<path d="M448.262 342.25L415.472 361.102V366.016L448.262 346.985V342.25Z" fill="#484848"/>
<path d="M415.472 361.101V366.015L350.429 328.49V323.576L415.472 361.101Z" fill="#484848"/>
<path d="M415.383 262.286L448.083 243.255L448.173 247.991L415.383 267.2V262.286Z" fill="#484848"/>
<path d="M382.593 243.345V248.259L415.383 267.289V262.286L382.593 243.345Z" fill="#484848"/>
<path d="M415.383 262.643L350.34 224.582L382.951 205.819L448.083 243.255L415.383 262.643Z" fill="#282828"/>
<path d="M389.83 243.434L392.779 245.221L415.204 258.533L437.898 245.132L440.846 243.345L415.294 228.781L389.83 243.434Z" fill="black"/>
<path d="M392.779 245.221L415.204 258.534L437.898 245.132L415.294 232.266L392.779 245.221Z" fill="#161616"/>
<path d="M357.845 225.029L360.793 226.816L383.308 240.039L405.912 226.637L408.95 224.939L383.308 210.376L357.845 225.029Z" fill="black"/>
<path d="M360.793 226.815L383.308 240.038L405.912 226.637L383.308 213.86L360.793 226.815Z" fill="#161616"/>
<path d="M398.765 267.557V282.567L385.184 274.705L398.318 282.299V267.289L398.765 267.557Z" fill="black"/>
<path d="M398.765 267.11V282.21L385.184 274.258V259.248L398.765 267.11Z" fill="black"/>
<path d="M398.407 267.2L385.184 259.605V273.722L384.38 274.168V259.158L398.407 267.2Z" fill="black"/>
<path d="M398.765 281.406V282.388L384.559 274.079L385.184 273.633L398.765 281.406Z" fill="black"/>
<path d="M398.318 267.2L385.184 259.605V273.811L384.38 274.168V259.158L398.318 267.2Z" fill="#484848"/>
<path d="M398.765 281.495V282.478L384.469 274.08L385.184 273.722L398.765 281.495Z" fill="black"/>
<path d="M391.706 263.269V277.474L390.902 277.832V262.822L391.706 263.269Z" fill="#484848"/>
<path d="M390.366 262.107V277.564L390.902 277.832V262.822L390.366 262.107Z" fill="black"/>
<path fill-rule="evenodd" clip-rule="evenodd" d="M398.765 267.021V283.103L383.844 274.437V258.355L398.765 267.021ZM398.229 267.379L384.47 259.427V274.169L398.229 282.121V267.379Z" fill="#606060"/>
<path d="M398.765 292.127V307.226L385.184 299.364L398.318 306.958V291.859L398.765 292.127Z" fill="black"/>
<path d="M398.765 291.77V306.869L385.184 298.917V283.907L398.765 291.77Z" fill="black"/>
<path d="M398.407 291.859L385.184 284.265V298.381L384.38 298.828V283.818L398.407 291.859Z" fill="black"/>
<path d="M398.765 305.976V307.048L384.559 298.739L385.184 298.292L398.765 305.976Z" fill="black"/>
<path d="M398.318 291.859L385.184 284.265V298.381L384.38 298.828V283.818L398.318 291.859Z" fill="#484848"/>
<path d="M398.765 306.065V307.137L384.469 298.739L385.184 298.381L398.765 306.065Z" fill="black"/>
<path d="M391.706 287.928V302.134L390.902 302.491V287.481L391.706 287.928Z" fill="#484848"/>
<path d="M390.366 286.767V302.223L390.902 302.491V287.481L390.366 286.767Z" fill="black"/>
<path fill-rule="evenodd" clip-rule="evenodd" d="M398.765 291.68V307.763L383.844 299.096V283.014L398.765 291.68ZM398.229 292.038L384.469 284.086V298.828L398.229 306.78V292.038Z" fill="#606060"/>
<path d="M398.765 316.787V331.886L385.184 323.934L398.318 331.618V316.519L398.765 316.787Z" fill="black"/>
<path d="M398.765 316.34V331.439L385.184 323.577V308.478L398.765 316.34Z" fill="black"/>
<path d="M398.407 316.518L385.184 308.924V322.951L384.38 323.487V308.388L398.407 316.518Z" fill="black"/>
<path d="M398.765 330.635V331.618L384.559 323.309L385.184 322.952L398.765 330.635Z" fill="black"/>
<path d="M398.318 316.518L385.184 308.835V323.041L384.38 323.487V308.388L398.318 316.518Z" fill="#484848"/>
<path d="M398.765 330.725V331.707L384.469 323.398L385.184 322.952L398.765 330.725Z" fill="black"/>
<path d="M391.706 312.587V326.704L390.902 327.151V312.141L391.706 312.587Z" fill="#484848"/>
<path d="M390.366 311.426V326.793L390.902 327.151V312.141L390.366 311.426Z" fill="black"/>
<path fill-rule="evenodd" clip-rule="evenodd" d="M398.765 316.25V332.333L383.844 323.666V307.673L398.765 316.25ZM398.229 316.519L384.469 308.567V323.309L398.229 331.35V316.519Z" fill="#606060"/>
<path d="M375.535 253.44V268.718L370.442 265.681V250.403L375.535 253.44Z" fill="black"/>
<path d="M370.532 250.85V265.145L369.638 265.592V250.314L370.532 250.85Z" fill="black"/>
<path d="M375.535 268.004V268.898L369.817 265.502L370.532 265.056L375.535 268.004Z" fill="black"/>
<path d="M370.442 250.85V265.145L369.638 265.592V250.314L370.442 250.85Z" fill="#484848"/>
<path d="M375.535 268.093V268.986L369.728 265.502L370.442 265.145L375.535 268.093Z" fill="black"/>
<path fill-rule="evenodd" clip-rule="evenodd" d="M376.25 253.798V269.969L369.191 265.859V249.688L376.25 253.798ZM375.446 253.887L369.638 250.492V265.502L375.446 268.808V253.887Z" fill="#606060"/>
<path d="M375.535 278.1V293.378L370.442 290.34V275.062L375.535 278.1Z" fill="black"/>
<path d="M370.532 275.509V289.804L369.728 290.251V274.973L370.532 275.509Z" fill="black"/>
<path d="M375.535 292.663V293.557L369.817 290.162L370.532 289.715L375.535 292.663Z" fill="black"/>
<path d="M370.442 275.509V289.804L369.638 290.251V274.973L370.442 275.509Z" fill="#484848"/>
<path d="M375.535 292.752V293.646L369.817 290.161L370.442 289.804L375.535 292.752Z" fill="black"/>
<path fill-rule="evenodd" clip-rule="evenodd" d="M376.339 278.457V294.629L369.191 290.519V274.347L376.339 278.457ZM375.535 278.547L369.817 275.241V290.162L375.535 293.557V278.547Z" fill="#606060"/>
<path d="M375.535 302.759V318.037L370.442 314.999V299.721L375.535 302.759Z" fill="black"/>
<path d="M370.532 300.168V314.374L369.728 314.91V299.632L370.532 300.168Z" fill="black"/>
<path d="M375.535 317.323V318.216L369.817 314.821L370.532 314.374L375.535 317.323Z" fill="black"/>
<path d="M370.442 300.168V314.464L369.638 314.91V299.632L370.442 300.168Z" fill="#484848"/>
<path d="M375.535 317.412V318.305L369.817 314.821L370.442 314.463L375.535 317.412Z" fill="black"/>
<path fill-rule="evenodd" clip-rule="evenodd" d="M376.339 303.117V319.288L369.191 315.178V299.007L376.339 303.117ZM375.535 303.206L369.817 299.811V314.821L375.535 318.127V303.206Z" fill="#606060"/>
<path d="M360.972 314.463L367.315 310.8V316.697L360.972 320.45V314.463Z" fill="#1C1C1C"/>
<path d="M367.315 310.8L365.796 309.907L360.793 312.766L360.972 314.464L367.315 310.8Z" fill="#484848"/>
<path d="M375.446 321.254L380.449 318.395V326.882L375.446 329.831V321.254Z" fill="#1C1C1C"/>
<path d="M375.446 321.253L360.793 312.766V321.343L375.446 329.831V321.253Z" fill="#2D2D2D"/>
<path d="M360.793 312.766L362.223 311.962L376.875 320.449L375.446 321.254L360.793 312.766Z" fill="#484848"/>
<path d="M380.449 318.395L378.93 317.412L373.927 320.36L375.446 321.254L380.449 318.395Z" fill="#484848"/>
<path d="M360.972 289.894L367.405 286.141V292.038L360.972 295.791V289.894Z" fill="#1C1C1C"/>
<path d="M367.405 286.141L365.796 285.248L360.793 288.107L360.972 289.894L367.405 286.141Z" fill="#484848"/>
<path d="M375.535 296.595L380.449 293.736L380.538 302.224L375.535 305.172V296.595Z" fill="#1C1C1C"/>
<path d="M375.535 296.594L360.793 288.106V296.684L375.535 305.171V296.594Z" fill="#2D2D2D"/>
<path d="M360.793 288.107L362.223 287.303L376.875 295.791L375.535 296.595L360.793 288.107Z" fill="#484848"/>
<path d="M380.449 293.736L378.93 292.842L373.927 295.701L375.535 296.595L380.449 293.736Z" fill="#484848"/>
<path d="M360.972 265.234L367.405 261.482V267.379L360.972 271.131V265.234Z" fill="#1C1C1C"/>
<path d="M367.405 261.482L365.796 260.588L360.793 263.447L360.972 265.234L367.405 261.482Z" fill="#484848"/>
<path d="M375.535 271.935L380.449 269.076L380.538 277.564L375.535 280.512V271.935Z" fill="#1C1C1C"/>
<path d="M375.535 271.935L360.793 263.447V272.024L375.535 280.512V271.935Z" fill="#2D2D2D"/>
<path d="M360.793 263.447L362.223 262.643L376.875 271.131L375.535 271.935L360.793 263.447Z" fill="#484848"/>
<path d="M380.449 269.076L378.93 268.183L373.927 271.042L375.535 271.935L380.449 269.076Z" fill="#484848"/>
<path d="M424.853 271.577V286.677L438.434 278.725L425.3 286.319V271.309L424.853 271.577Z" fill="black"/>
<path d="M424.853 271.131V286.23L438.434 278.278V263.268L424.853 271.131Z" fill="black"/>
<path d="M425.211 271.22L438.434 263.626V277.742L439.238 278.189V263.179L425.211 271.22Z" fill="black"/>
<path d="M424.853 285.426V286.409L439.059 278.1L438.434 277.742L424.853 285.426Z" fill="black"/>
<path d="M425.3 271.22L438.434 263.626V277.832L439.238 278.189V263.179L425.3 271.22Z" fill="#484848"/>
<path d="M424.853 285.515V286.498L439.149 278.189L438.434 277.742L424.853 285.515Z" fill="black"/>
<path d="M431.912 267.378V281.495L432.716 281.941V266.842L431.912 267.378Z" fill="#484848"/>
<path d="M433.252 266.217V281.584L432.716 281.942V266.842L433.252 266.217Z" fill="black"/>
<path fill-rule="evenodd" clip-rule="evenodd" d="M439.774 262.464V278.457L424.853 287.124V271.041L439.774 262.464ZM425.39 286.23L439.149 278.189V263.447L425.39 271.399V286.23Z" fill="#606060"/>
<path d="M424.854 296.237V311.336L438.434 303.384L425.3 310.979V295.969L424.854 296.237Z" fill="black"/>
<path d="M424.854 295.79V310.889L438.434 302.938V287.928L424.854 295.79Z" fill="black"/>
<path d="M425.211 295.879L438.434 288.285V302.401L439.238 302.848V287.838L425.211 295.879Z" fill="black"/>
<path d="M424.854 310.086V311.068L439.059 302.759L438.434 302.402L424.854 310.086Z" fill="black"/>
<path d="M425.3 295.879L438.434 288.285V302.491L439.238 302.848V287.838L425.3 295.879Z" fill="#484848"/>
<path d="M424.854 310.175V311.158L439.149 302.759L438.434 302.402L424.854 310.175Z" fill="black"/>
<path d="M431.912 292.038V306.154L432.716 306.601V291.501L431.912 292.038Z" fill="#484848"/>
<path d="M433.252 290.787V306.244L432.716 306.601V291.502L433.252 290.787Z" fill="black"/>
<path fill-rule="evenodd" clip-rule="evenodd" d="M439.774 287.034V303.116L424.853 311.783V295.701L439.774 287.034ZM425.39 310.8L439.149 302.759V288.017L425.39 295.969V310.8Z" fill="#606060"/>
<path d="M424.854 320.807V335.906L438.434 328.044L425.3 335.638V320.539L424.854 320.807Z" fill="black"/>
<path d="M424.854 320.45V335.46L438.434 327.597V312.498L424.854 320.45Z" fill="black"/>
<path d="M425.211 320.539L438.434 312.945V326.972L439.238 327.508V312.408L425.211 320.539Z" fill="black"/>
<path d="M424.854 334.656V335.728L439.059 327.419L438.434 326.972L424.854 334.656Z" fill="black"/>
<path d="M425.3 320.539L438.434 312.945V327.061L439.238 327.508V312.408L425.3 320.539Z" fill="#484848"/>
<path d="M424.854 334.745V335.817L439.149 327.419L438.434 326.972L424.854 334.745Z" fill="black"/>
<path d="M431.912 316.608V330.814L432.716 331.171V316.161L431.912 316.608Z" fill="#484848"/>
<path d="M433.252 315.447V330.903L432.716 331.171V316.161L433.252 315.447Z" fill="black"/>
<path fill-rule="evenodd" clip-rule="evenodd" d="M439.774 311.694V327.776L424.853 336.442V320.36L439.774 311.694ZM425.39 335.37L439.149 327.418V312.587L425.39 320.539V335.37Z" fill="#606060"/>
<path d="M75 49.2036V52.4579L96.3273 64.7778V61.5816L75 49.2036Z" fill="#484848"/>
<path d="M138.633 64.4292L117.306 76.9815L117.364 138L138.633 125.912V64.4292Z" fill="#1C1C1C"/>
<path d="M75 52.458L117.306 76.9815L117.364 138L75.0581 113.592L75 52.458Z" fill="#3D3D3D"/>
<path d="M138.691 125.738L117.364 138V141.196L138.691 128.818V125.738Z" fill="#484848"/>
<path d="M117.364 138V141.196L75.0581 116.788V113.592L117.364 138Z" fill="#484848"/>
<path d="M117.306 73.7271L138.575 61.3491L138.633 64.4291L117.306 76.9233V73.7271Z" fill="#484848"/>
<path d="M95.9786 61.4072V64.6034L117.306 76.9814V73.7271L95.9786 61.4072Z" fill="#484848"/>
<path d="M117.306 73.9596L75 49.2036L96.2111 37L138.575 61.3492L117.306 73.9596Z" fill="#282828"/>
<path d="M100.686 61.4653L102.603 62.6275L117.19 71.2863L131.95 62.5694L133.868 61.4072L117.248 51.9348L100.686 61.4653Z" fill="black"/>
<path d="M102.603 62.6275L117.19 71.2863L131.95 62.5694L117.248 54.2012L102.603 62.6275Z" fill="#161616"/>
<path d="M79.8814 49.4943L81.7992 50.6566L96.4435 59.2573L111.146 50.5404L113.122 49.4362L96.4435 39.9639L79.8814 49.4943Z" fill="black"/>
<path d="M81.7992 50.6563L96.4435 59.257L111.146 50.5401L96.4435 42.23L81.7992 50.6563Z" fill="#161616"/>
<path d="M106.497 77.1558V86.9187L97.6639 81.8048L106.206 86.7444V76.9814L106.497 77.1558Z" fill="black"/>
<path d="M106.497 76.8651V86.6862L97.6639 81.5141V71.7512L106.497 76.8651Z" fill="black"/>
<path d="M106.265 76.9232L97.6639 71.9837V81.1655L97.1409 81.456V71.6931L106.265 76.9232Z" fill="black"/>
<path d="M106.497 86.1632V86.8025L97.2571 81.398L97.6639 81.1074L106.497 86.1632Z" fill="black"/>
<path d="M106.206 76.9232L97.6639 71.9837V81.2236L97.1409 81.456V71.6931L106.206 76.9232Z" fill="#484848"/>
<path d="M106.497 86.2213V86.8606L97.199 81.398L97.6639 81.1655L106.497 86.2213Z" fill="black"/>
<path d="M101.906 74.3665V83.6064L101.383 83.8388V74.0759L101.906 74.3665Z" fill="#484848"/>
<path d="M101.034 73.6111V83.6646L101.383 83.8389V74.076L101.034 73.6111Z" fill="black"/>
<path fill-rule="evenodd" clip-rule="evenodd" d="M106.497 76.8071V87.2674L96.7922 81.6304V71.1702L106.497 76.8071ZM106.148 77.0395L97.199 71.8675V81.4561L106.148 86.6281V77.0395Z" fill="#606060"/>
<path d="M106.497 93.137V102.958L97.6639 97.8441L106.206 102.784V92.9626L106.497 93.137Z" fill="black"/>
<path d="M106.497 92.9044V102.725L97.6639 97.5534V87.7905L106.497 92.9044Z" fill="black"/>
<path d="M106.265 92.9626L97.6639 88.023V97.2048L97.1409 97.4953V87.7324L106.265 92.9626Z" fill="black"/>
<path d="M106.497 102.144V102.842L97.2571 97.4373L97.6639 97.1467L106.497 102.144Z" fill="black"/>
<path d="M106.206 92.9626L97.6639 88.023V97.2048L97.1409 97.4953V87.7324L106.206 92.9626Z" fill="#484848"/>
<path d="M106.497 102.203V102.9L97.199 97.4373L97.6639 97.2048L106.497 102.203Z" fill="black"/>
<path d="M101.906 90.4056V99.6455L101.383 99.8779V90.115L101.906 90.4056Z" fill="#484848"/>
<path d="M101.034 89.6504V99.7039L101.383 99.8782V90.1153L101.034 89.6504Z" fill="black"/>
<path fill-rule="evenodd" clip-rule="evenodd" d="M106.497 92.8464V103.307L96.7922 97.6697V87.2095L106.497 92.8464ZM106.148 93.0788L97.199 87.9068V97.4954L106.148 102.667V93.0788Z" fill="#606060"/>
<path d="M106.497 109.176V118.997L97.6639 113.825L106.206 118.823V109.001L106.497 109.176Z" fill="black"/>
<path d="M106.497 108.885V118.706L97.6639 113.592V103.771L106.497 108.885Z" fill="black"/>
<path d="M106.265 109.001L97.6639 104.062V113.185L97.1409 113.534V103.713L106.265 109.001Z" fill="black"/>
<path d="M106.497 118.183V118.822L97.2571 113.418L97.6639 113.186L106.497 118.183Z" fill="black"/>
<path d="M106.206 109.001L97.6639 104.004V113.244L97.1409 113.534V103.713L106.206 109.001Z" fill="#484848"/>
<path d="M106.497 118.241V118.881L97.199 113.476L97.6639 113.186L106.497 118.241Z" fill="black"/>
<path d="M101.906 106.444V115.626L101.383 115.917V106.154L101.906 106.444Z" fill="#484848"/>
<path d="M101.034 105.689V115.684L101.383 115.917V106.154L101.034 105.689Z" fill="black"/>
<path fill-rule="evenodd" clip-rule="evenodd" d="M106.497 108.827V119.287L96.7922 113.65V103.248L106.497 108.827ZM106.148 109.001L97.199 103.829V113.418L106.148 118.648V109.001Z" fill="#606060"/>
<path d="M91.3878 67.9736V77.9109L88.0753 75.9351V65.9978L91.3878 67.9736Z" fill="black"/>
<path d="M88.1334 66.2886V75.5866L87.5523 75.8772V65.9399L88.1334 66.2886Z" fill="black"/>
<path d="M91.3878 77.4463V78.0274L87.6685 75.8191L88.1334 75.5286L91.3878 77.4463Z" fill="black"/>
<path d="M88.0753 66.2886V75.5866L87.5523 75.8772V65.9399L88.0753 66.2886Z" fill="#484848"/>
<path d="M91.3878 77.5039V78.085L87.6104 75.8186L88.0753 75.5862L91.3878 77.5039Z" fill="black"/>
<path fill-rule="evenodd" clip-rule="evenodd" d="M91.8527 68.2064V78.7248L87.2617 76.0516V65.5332L91.8527 68.2064ZM91.3296 68.2645L87.5523 66.0562V75.8191L91.3296 77.9693V68.2645Z" fill="#606060"/>
<path d="M91.3878 84.0127V93.95L88.0753 91.9741V82.0369L91.3878 84.0127Z" fill="black"/>
<path d="M88.1334 82.3277V91.6257L87.6104 91.9163V81.979L88.1334 82.3277Z" fill="black"/>
<path d="M91.3878 93.4853V94.0665L87.6685 91.8582L88.1334 91.5676L91.3878 93.4853Z" fill="black"/>
<path d="M88.0753 82.3277V91.6257L87.5523 91.9163V81.979L88.0753 82.3277Z" fill="#484848"/>
<path d="M91.3878 93.5432V94.1243L87.6685 91.8579L88.0753 91.6255L91.3878 93.5432Z" fill="black"/>
<path fill-rule="evenodd" clip-rule="evenodd" d="M91.9108 84.2452V94.7636L87.2617 92.0904V81.572L91.9108 84.2452ZM91.3878 84.3033L87.6685 82.1531V91.858L91.3878 94.0662V84.3033Z" fill="#606060"/>
<path d="M91.3878 100.052V109.989L88.0753 108.013V98.0762L91.3878 100.052Z" fill="black"/>
<path d="M88.1334 98.367V107.607L87.6104 107.956V98.0183L88.1334 98.367Z" fill="black"/>
<path d="M91.3878 109.525V110.106L87.6685 107.897L88.1334 107.607L91.3878 109.525Z" fill="black"/>
<path d="M88.0753 98.367V107.665L87.5523 107.956V98.0183L88.0753 98.367Z" fill="#484848"/>
<path d="M91.3878 109.583V110.164L87.6685 107.897L88.0753 107.665L91.3878 109.583Z" fill="black"/>
<path fill-rule="evenodd" clip-rule="evenodd" d="M91.9108 100.285V110.803L87.2617 108.13V97.6113L91.9108 100.285ZM91.3878 100.343L87.6685 98.1343V107.897L91.3878 110.047V100.343Z" fill="#606060"/>
<path d="M81.9154 107.665L86.0415 105.282V109.118L81.9154 111.559V107.665Z" fill="#1C1C1C"/>
<path d="M86.0414 105.283L85.0535 104.701L81.7992 106.561L81.9154 107.665L86.0414 105.283Z" fill="#484848"/>
<path d="M91.3297 112.082L94.584 110.222V115.743L91.3297 117.661V112.082Z" fill="#1C1C1C"/>
<path d="M91.3297 112.082L81.7993 106.561V112.14L91.3297 117.661V112.082Z" fill="#2D2D2D"/>
<path d="M81.7993 106.561L82.729 106.038L92.2595 111.559L91.3297 112.082L81.7993 106.561Z" fill="#484848"/>
<path d="M94.584 110.222L93.5961 109.583L90.3418 111.5L91.3297 112.082L94.584 110.222Z" fill="#484848"/>
<path d="M81.9154 91.6841L86.0996 89.2434V93.0788L81.9154 95.5196V91.6841Z" fill="#1C1C1C"/>
<path d="M86.0995 89.2435L85.0535 88.6624L81.7992 90.522L81.9154 91.6842L86.0995 89.2435Z" fill="#484848"/>
<path d="M91.3878 96.0427L94.584 94.1831L94.6421 99.7038L91.3878 101.622V96.0427Z" fill="#1C1C1C"/>
<path d="M91.3878 96.0424L81.7993 90.5217V96.1005L91.3878 101.621V96.0424Z" fill="#2D2D2D"/>
<path d="M81.7993 90.5218L82.729 89.9988L92.2595 95.5195L91.3878 96.0425L81.7993 90.5218Z" fill="#484848"/>
<path d="M94.584 94.1829L93.5961 93.6018L90.3418 95.4614L91.3878 96.0425L94.584 94.1829Z" fill="#484848"/>
<path d="M81.9154 75.6448L86.0995 73.2041V77.0395L81.9154 79.4803V75.6448Z" fill="#1C1C1C"/>
<path d="M86.0995 73.2042L85.0535 72.623L81.7992 74.4826L81.9154 75.6449L86.0995 73.2042Z" fill="#484848"/>
<path d="M91.3878 80.0034L94.584 78.1438L94.6421 83.6645L91.3878 85.5822V80.0034Z" fill="#1C1C1C"/>
<path d="M91.3878 80.0031L81.7993 74.4824V80.0612L91.3878 85.5819V80.0031Z" fill="#2D2D2D"/>
<path d="M81.7992 74.4825L82.729 73.9595L92.2595 79.4802L91.3878 80.0032L81.7992 74.4825Z" fill="#484848"/>
<path d="M94.584 78.1439L93.5961 77.5627L90.3417 79.4223L91.3878 80.0035L94.584 78.1439Z" fill="#484848"/>
<path d="M123.466 79.7705V89.5916L132.299 84.4195L123.756 89.3591V79.5962L123.466 79.7705Z" fill="black"/>
<path d="M123.466 79.4801V89.3011L132.299 84.1291V74.3662L123.466 79.4801Z" fill="black"/>
<path d="M123.698 79.538L132.299 74.5984V83.7802L132.822 84.0708V74.3079L123.698 79.538Z" fill="black"/>
<path d="M123.466 88.7782V89.4174L132.706 84.013L132.299 83.7805L123.466 88.7782Z" fill="black"/>
<path d="M123.756 79.538L132.299 74.5984V83.8383L132.822 84.0708V74.3079L123.756 79.538Z" fill="#484848"/>
<path d="M123.466 88.8363V89.4756L132.764 84.0711L132.299 83.7805L123.466 88.8363Z" fill="black"/>
<path d="M128.057 77.0393V86.2211L128.58 86.5117V76.6907L128.057 77.0393Z" fill="#484848"/>
<path d="M128.928 76.2839V86.2793L128.58 86.5118V76.6907L128.928 76.2839Z" fill="black"/>
<path fill-rule="evenodd" clip-rule="evenodd" d="M133.171 73.843V84.2452L123.466 89.8821V79.4218L133.171 73.843ZM123.815 89.301L132.764 84.0708V74.4823L123.815 79.6543V89.301Z" fill="#606060"/>
<path d="M123.466 95.8098V105.631L132.299 100.459L123.756 105.398V95.6355L123.466 95.8098Z" fill="black"/>
<path d="M123.466 95.5192V105.34L132.299 100.168V90.4053L123.466 95.5192Z" fill="black"/>
<path d="M123.698 95.5773L132.299 90.6377V99.8195L132.822 100.11V90.3472L123.698 95.5773Z" fill="black"/>
<path d="M123.466 104.817V105.457L132.706 100.052L132.299 99.8196L123.466 104.817Z" fill="black"/>
<path d="M123.756 95.5773L132.299 90.6377V99.8776L132.822 100.11V90.3472L123.756 95.5773Z" fill="#484848"/>
<path d="M123.466 104.875V105.515L132.764 100.052L132.299 99.8196L123.466 104.875Z" fill="black"/>
<path d="M128.057 93.0787V102.26L128.58 102.551V92.73L128.057 93.0787Z" fill="#484848"/>
<path d="M128.928 92.2651V102.319L128.58 102.551V92.73L128.928 92.2651Z" fill="black"/>
<path fill-rule="evenodd" clip-rule="evenodd" d="M133.171 89.824V100.284L123.466 105.921V95.4609L133.171 89.824ZM123.815 105.282L132.764 100.052V90.4632L123.815 95.6352V105.282Z" fill="#606060"/>
<path d="M123.466 111.791V121.612L132.299 116.498L123.756 121.437V111.616L123.466 111.791Z" fill="black"/>
<path d="M123.466 111.558V121.321L132.299 116.207V106.386L123.466 111.558Z" fill="black"/>
<path d="M123.698 111.616L132.299 106.677V115.8L132.822 116.149V106.328L123.698 111.616Z" fill="black"/>
<path d="M123.466 120.798V121.496L132.706 116.091L132.299 115.801L123.466 120.798Z" fill="black"/>
<path d="M123.756 111.616L132.299 106.677V115.859L132.822 116.149V106.328L123.756 111.616Z" fill="#484848"/>
<path d="M123.466 120.856V121.554L132.764 116.091L132.299 115.801L123.466 120.856Z" fill="black"/>
<path d="M128.057 109.059V118.299L128.58 118.532V108.769L128.057 109.059Z" fill="#484848"/>
<path d="M128.928 108.304V118.358L128.58 118.532V108.769L128.928 108.304Z" fill="black"/>
<path fill-rule="evenodd" clip-rule="evenodd" d="M133.171 105.863V116.324L123.466 121.96V111.5L133.171 105.863ZM123.815 121.263L132.764 116.091V106.444L123.815 111.616V121.263Z" fill="#606060"/>
<path d="M56 60.2036V63.4579L77.3273 75.7778V72.5816L56 60.2036Z" fill="#484848"/>
<path d="M119.633 75.4292L98.306 87.9815L98.3641 149L119.633 136.912V75.4292Z" fill="#1C1C1C"/>
<path d="M56 63.458L98.306 87.9815L98.3641 149L56.0581 124.592L56 63.458Z" fill="#3D3D3D"/>
<path d="M119.691 136.738L98.3641 149V152.196L119.691 139.818V136.738Z" fill="#484848"/>
<path d="M98.3641 149V152.196L56.0581 127.788V124.592L98.3641 149Z" fill="#484848"/>
<path d="M98.306 84.7271L119.575 72.3491L119.633 75.4291L98.306 87.9233V84.7271Z" fill="#484848"/>
<path d="M76.9786 72.4072V75.6034L98.306 87.9814V84.7271L76.9786 72.4072Z" fill="#484848"/>
<path d="M98.306 84.9596L56 60.2036L77.2111 48L119.575 72.3492L98.306 84.9596Z" fill="#282828"/>
<path d="M81.6858 72.4653L83.6035 73.6275L98.1897 82.2863L112.95 73.5694L114.868 72.4072L98.2479 62.9348L81.6858 72.4653Z" fill="black"/>
<path d="M83.6035 73.6275L98.1897 82.2863L112.95 73.5694L98.2478 65.2012L83.6035 73.6275Z" fill="#161616"/>
<path d="M60.8814 60.4943L62.7992 61.6566L77.4435 70.2573L92.146 61.5404L94.1219 60.4362L77.4435 50.9639L60.8814 60.4943Z" fill="black"/>
<path d="M62.7992 61.6563L77.4435 70.257L92.1461 61.5401L77.4435 53.23L62.7992 61.6563Z" fill="#161616"/>
<path d="M87.497 88.1558V97.9187L78.6639 92.8048L87.2065 97.7444V87.9814L87.497 88.1558Z" fill="black"/>
<path d="M87.497 87.8651V97.6862L78.6639 92.5141V82.7512L87.497 87.8651Z" fill="black"/>
<path d="M87.2646 87.9232L78.6639 82.9837V92.1655L78.1409 92.456V82.6931L87.2646 87.9232Z" fill="black"/>
<path d="M87.497 97.1632V97.8025L78.2571 92.398L78.6639 92.1074L87.497 97.1632Z" fill="black"/>
<path d="M87.2065 87.9232L78.6639 82.9837V92.2236L78.1409 92.456V82.6931L87.2065 87.9232Z" fill="#484848"/>
<path d="M87.4971 97.2213V97.8606L78.199 92.398L78.6639 92.1655L87.4971 97.2213Z" fill="black"/>
<path d="M82.9061 85.3665V94.6064L82.3831 94.8388V85.0759L82.9061 85.3665Z" fill="#484848"/>
<path d="M82.0345 84.6111V94.6646L82.3831 94.8389V85.076L82.0345 84.6111Z" fill="black"/>
<path fill-rule="evenodd" clip-rule="evenodd" d="M87.497 87.8071V98.2674L77.7922 92.6304V82.1702L87.497 87.8071ZM87.1484 88.0395L78.199 82.8675V92.4561L87.1484 97.6281V88.0395Z" fill="#606060"/>
<path d="M87.497 104.137V113.958L78.6639 108.844L87.2065 113.784V103.963L87.497 104.137Z" fill="black"/>
<path d="M87.497 103.904V113.725L78.6639 108.553V98.7905L87.497 103.904Z" fill="black"/>
<path d="M87.2646 103.963L78.6639 99.023V108.205L78.1409 108.495V98.7324L87.2646 103.963Z" fill="black"/>
<path d="M87.497 113.144V113.842L78.2571 108.437L78.6639 108.147L87.497 113.144Z" fill="black"/>
<path d="M87.2065 103.963L78.6639 99.023V108.205L78.1409 108.495V98.7324L87.2065 103.963Z" fill="#484848"/>
<path d="M87.4971 113.203V113.9L78.199 108.437L78.6639 108.205L87.4971 113.203Z" fill="black"/>
<path d="M82.9061 101.406V110.645L82.3831 110.878V101.115L82.9061 101.406Z" fill="#484848"/>
<path d="M82.0345 100.65V110.704L82.3831 110.878V101.115L82.0345 100.65Z" fill="black"/>
<path fill-rule="evenodd" clip-rule="evenodd" d="M87.497 103.846V114.307L77.7922 108.67V98.2095L87.497 103.846ZM87.1484 104.079L78.199 98.9068V108.495L87.1484 113.667V104.079Z" fill="#606060"/>
<path d="M87.497 120.176V129.997L78.6639 124.825L87.2065 129.823V120.001L87.497 120.176Z" fill="black"/>
<path d="M87.497 119.885V129.706L78.6639 124.592V114.771L87.497 119.885Z" fill="black"/>
<path d="M87.2646 120.001L78.6639 115.062V124.185L78.1409 124.534V114.713L87.2646 120.001Z" fill="black"/>
<path d="M87.497 129.183V129.822L78.2571 124.418L78.6639 124.186L87.497 129.183Z" fill="black"/>
<path d="M87.2065 120.001L78.6639 115.004V124.244L78.1409 124.534V114.713L87.2065 120.001Z" fill="#484848"/>
<path d="M87.4971 129.241V129.881L78.199 124.476L78.6639 124.186L87.4971 129.241Z" fill="black"/>
<path d="M82.9061 117.444V126.626L82.3831 126.917V117.154L82.9061 117.444Z" fill="#484848"/>
<path d="M82.0345 116.689V126.684L82.3831 126.917V117.154L82.0345 116.689Z" fill="black"/>
<path fill-rule="evenodd" clip-rule="evenodd" d="M87.497 119.827V130.287L77.7922 124.65V114.248L87.497 119.827ZM87.1484 120.001L78.199 114.829V124.418L87.1484 129.648V120.001Z" fill="#606060"/>
<path d="M72.3878 78.9736V88.9109L69.0753 86.9351V76.9978L72.3878 78.9736Z" fill="black"/>
<path d="M69.1334 77.2886V86.5866L68.5523 86.8772V76.9399L69.1334 77.2886Z" fill="black"/>
<path d="M72.3878 88.4463V89.0274L68.6685 86.8191L69.1334 86.5286L72.3878 88.4463Z" fill="black"/>
<path d="M69.0753 77.2886V86.5866L68.5523 86.8772V76.9399L69.0753 77.2886Z" fill="#484848"/>
<path d="M72.3878 88.5039V89.085L68.6104 86.8186L69.0753 86.5862L72.3878 88.5039Z" fill="black"/>
<path fill-rule="evenodd" clip-rule="evenodd" d="M72.8527 79.2064V89.7248L68.2617 87.0516V76.5332L72.8527 79.2064ZM72.3296 79.2645L68.5523 77.0562V86.8191L72.3296 88.9693V79.2645Z" fill="#606060"/>
<path d="M72.3878 95.0127V104.95L69.0753 102.974V93.0369L72.3878 95.0127Z" fill="black"/>
<path d="M69.1334 93.3277V102.626L68.6104 102.916V92.979L69.1334 93.3277Z" fill="black"/>
<path d="M72.3878 104.485V105.066L68.6685 102.858L69.1334 102.568L72.3878 104.485Z" fill="black"/>
<path d="M69.0753 93.3277V102.626L68.5523 102.916V92.979L69.0753 93.3277Z" fill="#484848"/>
<path d="M72.3878 104.543V105.124L68.6685 102.858L69.0753 102.625L72.3878 104.543Z" fill="black"/>
<path fill-rule="evenodd" clip-rule="evenodd" d="M72.9108 95.2452V105.764L68.2617 103.09V92.572L72.9108 95.2452ZM72.3878 95.3033L68.6685 93.1531V102.858L72.3878 105.066V95.3033Z" fill="#606060"/>
<path d="M72.3878 111.052V120.989L69.0753 119.013V109.076L72.3878 111.052Z" fill="black"/>
<path d="M69.1334 109.367V118.607L68.6104 118.956V109.018L69.1334 109.367Z" fill="black"/>
<path d="M72.3878 120.525V121.106L68.6685 118.897L69.1334 118.607L72.3878 120.525Z" fill="black"/>
<path d="M69.0753 109.367V118.665L68.5523 118.956V109.018L69.0753 109.367Z" fill="#484848"/>
<path d="M72.3878 120.583V121.164L68.6685 118.897L69.0753 118.665L72.3878 120.583Z" fill="black"/>
<path fill-rule="evenodd" clip-rule="evenodd" d="M72.9108 111.285V121.803L68.2617 119.13V108.611L72.9108 111.285ZM72.3878 111.343L68.6685 109.134V118.897L72.3878 121.047V111.343Z" fill="#606060"/>
<path d="M62.9154 118.665L67.0415 116.282V120.118L62.9154 122.559V118.665Z" fill="#1C1C1C"/>
<path d="M67.0414 116.283L66.0535 115.701L62.7992 117.561L62.9154 118.665L67.0414 116.283Z" fill="#484848"/>
<path d="M72.3297 123.082L75.584 121.222V126.743L72.3297 128.661V123.082Z" fill="#1C1C1C"/>
<path d="M72.3297 123.082L62.7993 117.561V123.14L72.3297 128.661V123.082Z" fill="#2D2D2D"/>
<path d="M62.7993 117.561L63.729 117.038L73.2595 122.559L72.3297 123.082L62.7993 117.561Z" fill="#484848"/>
<path d="M75.584 121.222L74.5961 120.583L71.3418 122.5L72.3297 123.082L75.584 121.222Z" fill="#484848"/>
<path d="M62.9154 102.684L67.0996 100.243V104.079L62.9154 106.52V102.684Z" fill="#1C1C1C"/>
<path d="M67.0995 100.243L66.0535 99.6624L62.7992 101.522L62.9154 102.684L67.0995 100.243Z" fill="#484848"/>
<path d="M72.3878 107.043L75.584 105.183L75.6421 110.704L72.3878 112.622V107.043Z" fill="#1C1C1C"/>
<path d="M72.3878 107.042L62.7993 101.522V107.101L72.3878 112.621V107.042Z" fill="#2D2D2D"/>
<path d="M62.7993 101.522L63.729 100.999L73.2595 106.519L72.3878 107.042L62.7993 101.522Z" fill="#484848"/>
<path d="M75.584 105.183L74.5961 104.602L71.3418 106.461L72.3878 107.043L75.584 105.183Z" fill="#484848"/>
<path d="M62.9154 86.6448L67.0995 84.2041V88.0395L62.9154 90.4803V86.6448Z" fill="#1C1C1C"/>
<path d="M67.0995 84.2042L66.0535 83.623L62.7992 85.4826L62.9154 86.6449L67.0995 84.2042Z" fill="#484848"/>
<path d="M72.3878 91.0034L75.584 89.1438L75.6421 94.6645L72.3878 96.5822V91.0034Z" fill="#1C1C1C"/>
<path d="M72.3878 91.0031L62.7993 85.4824V91.0612L72.3878 96.5819V91.0031Z" fill="#2D2D2D"/>
<path d="M62.7992 85.4825L63.729 84.9595L73.2595 90.4802L72.3878 91.0032L62.7992 85.4825Z" fill="#484848"/>
<path d="M75.584 89.1439L74.5961 88.5627L71.3417 90.4223L72.3878 91.0035L75.584 89.1439Z" fill="#484848"/>
<path d="M104.466 90.7705V100.592L113.299 95.4195L104.756 100.359V90.5962L104.466 90.7705Z" fill="black"/>
<path d="M104.466 90.4801V100.301L113.299 95.1291V85.3662L104.466 90.4801Z" fill="black"/>
<path d="M104.698 90.538L113.299 85.5984V94.7802L113.822 95.0708V85.3079L104.698 90.538Z" fill="black"/>
<path d="M104.466 99.7782V100.417L113.706 95.013L113.299 94.7805L104.466 99.7782Z" fill="black"/>
<path d="M104.756 90.538L113.299 85.5984V94.8383L113.822 95.0708V85.3079L104.756 90.538Z" fill="#484848"/>
<path d="M104.466 99.8363V100.476L113.764 95.0711L113.299 94.7805L104.466 99.8363Z" fill="black"/>
<path d="M109.057 88.0393V97.2211L109.58 97.5117V87.6907L109.057 88.0393Z" fill="#484848"/>
<path d="M109.928 87.2839V97.2793L109.58 97.5118V87.6907L109.928 87.2839Z" fill="black"/>
<path fill-rule="evenodd" clip-rule="evenodd" d="M114.171 84.843V95.2452L104.466 100.882V90.4218L114.171 84.843ZM104.815 100.301L113.764 95.0708V85.4823L104.815 90.6543V100.301Z" fill="#606060"/>
<path d="M104.466 106.81V116.631L113.299 111.459L104.756 116.398V106.635L104.466 106.81Z" fill="black"/>
<path d="M104.466 106.519V116.34L113.299 111.168V101.405L104.466 106.519Z" fill="black"/>
<path d="M104.698 106.577L113.299 101.638V110.82L113.822 111.11V101.347L104.698 106.577Z" fill="black"/>
<path d="M104.466 115.817V116.457L113.706 111.052L113.299 110.82L104.466 115.817Z" fill="black"/>
<path d="M104.756 106.577L113.299 101.638V110.878L113.822 111.11V101.347L104.756 106.577Z" fill="#484848"/>
<path d="M104.466 115.875V116.515L113.764 111.052L113.299 110.82L104.466 115.875Z" fill="black"/>
<path d="M109.057 104.079V113.26L109.58 113.551V103.73L109.057 104.079Z" fill="#484848"/>
<path d="M109.928 103.265V113.319L109.58 113.551V103.73L109.928 103.265Z" fill="black"/>
<path fill-rule="evenodd" clip-rule="evenodd" d="M114.171 100.824V111.284L104.466 116.921V106.461L114.171 100.824ZM104.815 116.282L113.764 111.052V101.463L104.815 106.635V116.282Z" fill="#606060"/>
<path d="M104.466 122.791V132.612L113.299 127.498L104.756 132.437V122.616L104.466 122.791Z" fill="black"/>
<path d="M104.466 122.558V132.321L113.299 127.207V117.386L104.466 122.558Z" fill="black"/>
<path d="M104.698 122.616L113.299 117.677V126.8L113.822 127.149V117.328L104.698 122.616Z" fill="black"/>
<path d="M104.466 131.798V132.496L113.706 127.091L113.299 126.801L104.466 131.798Z" fill="black"/>
<path d="M104.756 122.616L113.299 117.677V126.859L113.822 127.149V117.328L104.756 122.616Z" fill="#484848"/>
<path d="M104.466 131.856V132.554L113.764 127.091L113.299 126.801L104.466 131.856Z" fill="black"/>
<path d="M109.057 120.059V129.299L109.58 129.532V119.769L109.057 120.059Z" fill="#484848"/>
<path d="M109.928 119.304V129.358L109.58 129.532V119.769L109.928 119.304Z" fill="black"/>
<path fill-rule="evenodd" clip-rule="evenodd" d="M114.171 116.863V127.324L104.466 132.96V122.5L114.171 116.863ZM104.815 132.263L113.764 127.091V117.444L104.815 122.616V132.263Z" fill="#606060"/>
<path d="M35 72.2036V75.4579L56.3273 87.7778V84.5816L35 72.2036Z" fill="#484848"/>
<path d="M98.6333 87.4292L77.306 99.9815L77.3641 161L98.6333 148.912V87.4292Z" fill="#1C1C1C"/>
<path d="M35 75.458L77.306 99.9815L77.3641 161L35.0581 136.592L35 75.458Z" fill="#3D3D3D"/>
<path d="M98.6914 148.738L77.3641 161V164.196L98.6914 151.818V148.738Z" fill="#484848"/>
<path d="M77.3641 161V164.196L35.0581 139.788V136.592L77.3641 161Z" fill="#484848"/>
<path d="M77.306 96.7271L98.5752 84.3491L98.6333 87.4291L77.306 99.9233V96.7271Z" fill="#484848"/>
<path d="M55.9786 84.4072V87.6034L77.306 99.9814V96.7271L55.9786 84.4072Z" fill="#484848"/>
<path d="M77.306 96.9596L35 72.2036L56.2111 60L98.5752 84.3492L77.306 96.9596Z" fill="#282828"/>
<path d="M60.6858 84.4653L62.6035 85.6275L77.1897 94.2863L91.9503 85.5694L93.868 84.4072L77.2479 74.9348L60.6858 84.4653Z" fill="black"/>
<path d="M62.6035 85.6275L77.1897 94.2863L91.9503 85.5694L77.2478 77.2012L62.6035 85.6275Z" fill="#161616"/>
<path d="M39.8815 72.4943L41.7992 73.6566L56.4436 82.2573L71.1461 73.5404L73.1219 72.4362L56.4436 62.9639L39.8815 72.4943Z" fill="black"/>
<path d="M41.7993 73.6563L56.4436 82.257L71.1461 73.5401L56.4436 65.23L41.7993 73.6563Z" fill="#161616"/>
<path d="M66.497 100.156V109.919L57.6639 104.805L66.2064 109.744V99.9814L66.497 100.156Z" fill="black"/>
<path d="M66.497 99.8651V109.686L57.6639 104.514V94.7512L66.497 99.8651Z" fill="black"/>
<path d="M66.2646 99.9232L57.6639 94.9837V104.165L57.1409 104.456V94.6931L66.2646 99.9232Z" fill="black"/>
<path d="M66.497 109.163V109.802L57.2571 104.398L57.6639 104.107L66.497 109.163Z" fill="black"/>
<path d="M66.2065 99.9232L57.6639 94.9837V104.224L57.1409 104.456V94.6931L66.2065 99.9232Z" fill="#484848"/>
<path d="M66.4971 109.221V109.861L57.199 104.398L57.6639 104.166L66.4971 109.221Z" fill="black"/>
<path d="M61.9061 97.3665V106.606L61.3831 106.839V97.0759L61.9061 97.3665Z" fill="#484848"/>
<path d="M61.0345 96.6111V106.665L61.3831 106.839V97.076L61.0345 96.6111Z" fill="black"/>
<path fill-rule="evenodd" clip-rule="evenodd" d="M66.497 99.8071V110.267L56.7922 104.63V94.1702L66.497 99.8071ZM66.1484 100.04L57.199 94.8675V104.456L66.1484 109.628V100.04Z" fill="#606060"/>
<path d="M66.497 116.137V125.958L57.6639 120.844L66.2064 125.784V115.963L66.497 116.137Z" fill="black"/>
<path d="M66.497 115.904V125.725L57.6639 120.553V110.791L66.497 115.904Z" fill="black"/>
<path d="M66.2646 115.963L57.6639 111.023V120.205L57.1409 120.495V110.732L66.2646 115.963Z" fill="black"/>
<path d="M66.497 125.144V125.842L57.2571 120.437L57.6639 120.147L66.497 125.144Z" fill="black"/>
<path d="M66.2065 115.963L57.6639 111.023V120.205L57.1409 120.495V110.732L66.2065 115.963Z" fill="#484848"/>
<path d="M66.4971 125.203V125.9L57.199 120.437L57.6639 120.205L66.4971 125.203Z" fill="black"/>
<path d="M61.9061 113.406V122.645L61.3831 122.878V113.115L61.9061 113.406Z" fill="#484848"/>
<path d="M61.0345 112.65V122.704L61.3831 122.878V113.115L61.0345 112.65Z" fill="black"/>
<path fill-rule="evenodd" clip-rule="evenodd" d="M66.497 115.846V126.307L56.7922 120.67V110.209L66.497 115.846ZM66.1484 116.079L57.199 110.907V120.495L66.1484 125.667V116.079Z" fill="#606060"/>
<path d="M66.497 132.176V141.997L57.6639 136.825L66.2064 141.823V132.001L66.497 132.176Z" fill="black"/>
<path d="M66.497 131.885V141.706L57.6639 136.592V126.771L66.497 131.885Z" fill="black"/>
<path d="M66.2646 132.001L57.6639 127.062V136.185L57.1409 136.534V126.713L66.2646 132.001Z" fill="black"/>
<path d="M66.497 141.183V141.822L57.2571 136.418L57.6639 136.186L66.497 141.183Z" fill="black"/>
<path d="M66.2065 132.001L57.6639 127.004V136.244L57.1409 136.534V126.713L66.2065 132.001Z" fill="#484848"/>
<path d="M66.4971 141.241V141.881L57.199 136.476L57.6639 136.186L66.4971 141.241Z" fill="black"/>
<path d="M61.9061 129.444V138.626L61.3831 138.917V129.154L61.9061 129.444Z" fill="#484848"/>
<path d="M61.0345 128.689V138.684L61.3831 138.917V129.154L61.0345 128.689Z" fill="black"/>
<path fill-rule="evenodd" clip-rule="evenodd" d="M66.497 131.827V142.287L56.7922 136.65V126.248L66.497 131.827ZM66.1484 132.001L57.199 126.829V136.418L66.1484 141.648V132.001Z" fill="#606060"/>
<path d="M51.3878 90.9736V100.911L48.0754 98.9351V88.9978L51.3878 90.9736Z" fill="black"/>
<path d="M48.1335 89.2886V98.5866L47.5524 98.8772V88.9399L48.1335 89.2886Z" fill="black"/>
<path d="M51.3878 100.446V101.027L47.6686 98.8191L48.1335 98.5286L51.3878 100.446Z" fill="black"/>
<path d="M48.0754 89.2886V98.5866L47.5524 98.8772V88.9399L48.0754 89.2886Z" fill="#484848"/>
<path d="M51.3878 100.504V101.085L47.6105 98.8186L48.0754 98.5862L51.3878 100.504Z" fill="black"/>
<path fill-rule="evenodd" clip-rule="evenodd" d="M51.8527 91.2064V101.725L47.2618 99.0516V88.5332L51.8527 91.2064ZM51.3297 91.2645L47.5523 89.0562V98.8191L51.3297 100.969V91.2645Z" fill="#606060"/>
<path d="M51.3878 107.013V116.95L48.0754 114.974V105.037L51.3878 107.013Z" fill="black"/>
<path d="M48.1335 105.328V114.626L47.6105 114.916V104.979L48.1335 105.328Z" fill="black"/>
<path d="M51.3878 116.485V117.066L47.6686 114.858L48.1335 114.568L51.3878 116.485Z" fill="black"/>
<path d="M48.0754 105.328V114.626L47.5524 114.916V104.979L48.0754 105.328Z" fill="#484848"/>
<path d="M51.3878 116.543V117.124L47.6686 114.858L48.0754 114.625L51.3878 116.543Z" fill="black"/>
<path fill-rule="evenodd" clip-rule="evenodd" d="M51.9108 107.245V117.764L47.2618 115.09V104.572L51.9108 107.245ZM51.3878 107.303L47.6686 105.153V114.858L51.3878 117.066V107.303Z" fill="#606060"/>
<path d="M51.3878 123.052V132.989L48.0754 131.013V121.076L51.3878 123.052Z" fill="black"/>
<path d="M48.1335 121.367V130.607L47.6105 130.956V121.018L48.1335 121.367Z" fill="black"/>
<path d="M51.3878 132.525V133.106L47.6686 130.897L48.1335 130.607L51.3878 132.525Z" fill="black"/>
<path d="M48.0754 121.367V130.665L47.5524 130.956V121.018L48.0754 121.367Z" fill="#484848"/>
<path d="M51.3878 132.583V133.164L47.6686 130.897L48.0754 130.665L51.3878 132.583Z" fill="black"/>
<path fill-rule="evenodd" clip-rule="evenodd" d="M51.9108 123.285V133.803L47.2618 131.13V120.611L51.9108 123.285ZM51.3878 123.343L47.6686 121.134V130.897L51.3878 133.047V123.343Z" fill="#606060"/>
<path d="M41.9154 130.665L46.0414 128.282V132.118L41.9154 134.559V130.665Z" fill="#1C1C1C"/>
<path d="M46.0414 128.283L45.0535 127.701L41.7992 129.561L41.9154 130.665L46.0414 128.283Z" fill="#484848"/>
<path d="M51.3297 135.082L54.584 133.222V138.743L51.3297 140.661V135.082Z" fill="#1C1C1C"/>
<path d="M51.3296 135.082L41.7992 129.561V135.14L51.3296 140.661V135.082Z" fill="#2D2D2D"/>
<path d="M41.7992 129.561L42.729 129.038L52.2595 134.559L51.3296 135.082L41.7992 129.561Z" fill="#484848"/>
<path d="M54.584 133.222L53.5961 132.583L50.3417 134.5L51.3297 135.082L54.584 133.222Z" fill="#484848"/>
<path d="M41.9154 114.684L46.0995 112.243V116.079L41.9154 118.52V114.684Z" fill="#1C1C1C"/>
<path d="M46.0995 112.243L45.0535 111.662L41.7992 113.522L41.9154 114.684L46.0995 112.243Z" fill="#484848"/>
<path d="M51.3878 119.043L54.5839 117.183L54.642 122.704L51.3878 124.622V119.043Z" fill="#1C1C1C"/>
<path d="M51.3878 119.042L41.7992 113.522V119.101L51.3878 124.621V119.042Z" fill="#2D2D2D"/>
<path d="M41.7992 113.522L42.729 112.999L52.2595 118.519L51.3878 119.042L41.7992 113.522Z" fill="#484848"/>
<path d="M54.584 117.183L53.5961 116.602L50.3417 118.461L51.3878 119.043L54.584 117.183Z" fill="#484848"/>
<path d="M41.9154 98.6448L46.0995 96.2041V100.04L41.9154 102.48V98.6448Z" fill="#1C1C1C"/>
<path d="M46.0995 96.2042L45.0535 95.623L41.7992 97.4826L41.9154 98.6449L46.0995 96.2042Z" fill="#484848"/>
<path d="M51.3878 103.003L54.584 101.144L54.6421 106.664L51.3878 108.582V103.003Z" fill="#1C1C1C"/>
<path d="M51.3878 103.003L41.7992 97.4824V103.061L51.3878 108.582V103.003Z" fill="#2D2D2D"/>
<path d="M41.7992 97.4825L42.729 96.9595L52.2595 102.48L51.3878 103.003L41.7992 97.4825Z" fill="#484848"/>
<path d="M54.584 101.144L53.5961 100.563L50.3417 102.422L51.3878 103.003L54.584 101.144Z" fill="#484848"/>
<path d="M83.4659 102.771V112.592L92.299 107.42L83.7565 112.359V102.596L83.4659 102.771Z" fill="black"/>
<path d="M83.4659 102.48V112.301L92.299 107.129V97.3662L83.4659 102.48Z" fill="black"/>
<path d="M83.6984 102.538L92.299 97.5984V106.78L92.8221 107.071V97.3079L83.6984 102.538Z" fill="black"/>
<path d="M83.4659 111.778V112.417L92.7058 107.013L92.299 106.781L83.4659 111.778Z" fill="black"/>
<path d="M83.7565 102.538L92.299 97.5984V106.838L92.8221 107.071V97.3079L83.7565 102.538Z" fill="#484848"/>
<path d="M83.4659 111.836V112.476L92.7639 107.071L92.299 106.781L83.4659 111.836Z" fill="black"/>
<path d="M88.0568 100.039V109.221L88.5799 109.512V99.6907L88.0568 100.039Z" fill="#484848"/>
<path d="M88.9285 99.2839V109.279L88.5798 109.512V99.6907L88.9285 99.2839Z" fill="black"/>
<path fill-rule="evenodd" clip-rule="evenodd" d="M93.1707 96.843V107.245L83.4659 112.882V102.422L93.1707 96.843ZM83.8146 112.301L92.7639 107.071V97.4823L83.8146 102.654V112.301Z" fill="#606060"/>
<path d="M83.4659 118.81V128.631L92.299 123.459L83.7565 128.398V118.635L83.4659 118.81Z" fill="black"/>
<path d="M83.4659 118.519V128.34L92.299 123.168V113.405L83.4659 118.519Z" fill="black"/>
<path d="M83.6984 118.577L92.299 113.638V122.82L92.8221 123.11V113.347L83.6984 118.577Z" fill="black"/>
<path d="M83.4659 127.817V128.457L92.7058 123.052L92.299 122.82L83.4659 127.817Z" fill="black"/>
<path d="M83.7565 118.577L92.299 113.638V122.878L92.8221 123.11V113.347L83.7565 118.577Z" fill="#484848"/>
<path d="M83.4659 127.875V128.515L92.7639 123.052L92.299 122.82L83.4659 127.875Z" fill="black"/>
<path d="M88.0568 116.079V125.26L88.5799 125.551V115.73L88.0568 116.079Z" fill="#484848"/>
<path d="M88.9285 115.265V125.319L88.5798 125.551V115.73L88.9285 115.265Z" fill="black"/>
<path fill-rule="evenodd" clip-rule="evenodd" d="M93.1707 112.824V123.284L83.4659 128.921V118.461L93.1707 112.824ZM83.8146 128.282L92.7639 123.052V113.463L83.8146 118.635V128.282Z" fill="#606060"/>
<path d="M83.4659 134.791V144.612L92.299 139.498L83.7565 144.437V134.616L83.4659 134.791Z" fill="black"/>
<path d="M83.4659 134.558V144.321L92.299 139.207V129.386L83.4659 134.558Z" fill="black"/>
<path d="M83.6984 134.616L92.299 129.677V138.8L92.8221 139.149V129.328L83.6984 134.616Z" fill="black"/>
<path d="M83.4659 143.798V144.496L92.7058 139.091L92.299 138.801L83.4659 143.798Z" fill="black"/>
<path d="M83.7565 134.616L92.299 129.677V138.859L92.8221 139.149V129.328L83.7565 134.616Z" fill="#484848"/>
<path d="M83.4659 143.856V144.554L92.7639 139.091L92.299 138.801L83.4659 143.856Z" fill="black"/>
<path d="M88.0568 132.059V141.299L88.5799 141.532V131.769L88.0568 132.059Z" fill="#484848"/>
<path d="M88.9285 131.304V141.358L88.5798 141.532V131.769L88.9285 131.304Z" fill="black"/>
<path fill-rule="evenodd" clip-rule="evenodd" d="M93.1707 128.863V139.324L83.4659 144.96V134.5L93.1707 128.863ZM83.8146 144.263L92.7639 139.091V129.444L83.8146 134.616V144.263Z" fill="#606060"/>
<path d="M250.192 273.475H227.965L221.179 254.84L240.073 247.456L258.498 255.015L250.192 273.475Z" fill="black"/>
<path d="M306.404 240.951L250.192 273.474V257.242L273.648 235.032L306.404 224.719V240.951Z" fill="black"/>
<path d="M306.404 224.719V211.827L260.311 185.164H238.084L181.872 217.687V230.579L227.965 257.243H250.192L306.404 224.719Z" fill="black"/>
<path d="M227.965 273.476L181.872 246.812V230.58L227.965 257.243V273.476Z" fill="black"/>
<path d="M250.309 269.725H227.438L220.477 219.973L239.897 212.296L258.908 220.09L250.309 269.725Z" fill="#313131"/>
<path d="M308.159 236.264L250.309 269.725V222.376L274.467 199.522L308.159 188.915V236.264Z" fill="#1C1C1C"/>
<path d="M308.159 188.915V175.73L260.721 148.246H237.908L180 181.707V194.951L227.438 222.376H250.309L308.159 188.915Z" fill="#272727"/>
<path d="M227.438 269.724L180 242.299V194.95L227.438 222.375V269.724Z" fill="#3D3D3D"/>
<path d="M250.192 220.794H227.965L221.179 202.218L240.073 194.776L258.498 202.335L250.192 220.794Z" fill="#313131"/>
<path d="M306.404 188.329L250.192 220.794V204.562L273.648 182.352L306.404 172.038V188.329Z" fill="#1C1C1C"/>
<path d="M306.404 172.038V159.204L260.311 132.541H238.084L181.872 165.065V177.898L227.965 204.561H250.192L306.404 172.038Z" fill="#272727"/>
<path d="M227.965 220.794L181.872 194.189V177.898L227.965 204.562V220.794Z" fill="#3D3D3D"/>
<path d="M227.965 220.794L210.943 210.949V203.273L227.965 213.118V220.794Z" fill="#C92222"/>
<path opacity="0.3" d="M254.345 198.936L222.817 199.874L181.872 176.199V192.431L227.965 219.095H250.192L306.404 186.571V170.339L254.345 198.936Z" fill="black"/>
<path d="M250.309 215.988H227.438L220.478 185.515L239.897 177.897L258.908 185.691L250.309 215.988Z" fill="#313131"/>
<path d="M308.159 182.527L250.309 215.988V187.977L274.467 165.123L308.159 154.516V182.527Z" fill="#1C1C1C"/>
<path d="M308.159 154.516V141.272L260.721 113.847H237.908L180 147.308V160.493L227.438 187.977H250.309L308.159 154.516Z" fill="#272727"/>
<path d="M227.438 215.988L180 188.621V160.493L227.438 187.977V215.988Z" fill="#3D3D3D"/>
<path d="M250.192 186.396H227.965L221.179 167.761L240.073 160.318L258.498 167.936L250.192 186.396Z" fill="#313131"/>
<path d="M306.404 153.871L250.192 186.394V170.103L273.648 147.894L306.404 137.639V153.871Z" fill="#1C1C1C"/>
<path d="M306.404 137.639V124.747L260.311 98.084H238.084L181.872 130.607V143.441L227.965 170.104H250.192L306.404 137.639Z" fill="#272727"/>
<path d="M227.965 186.396L181.872 159.732V143.441L227.965 170.105V186.396Z" fill="#3D3D3D"/>
<path d="M227.965 186.396L210.943 176.551V168.815L227.965 178.66V186.396Z" fill="#C92222"/>
<path opacity="0.3" d="M254.345 164.479L222.817 165.416L181.872 141.742V158.033L227.965 184.637H250.192L306.404 152.114V135.882L254.345 164.479Z" fill="black"/>
<path d="M250.309 181.765H227.438L220.478 151.293L239.897 143.616L258.908 151.41L250.309 181.765Z" fill="#313131"/>
<path d="M308.159 148.305L250.309 181.766V153.696L274.467 130.842L308.159 120.236V148.305Z" fill="#1C1C1C"/>
<path d="M308.159 120.235V106.992L260.721 79.5667H237.908L180 113.028V126.271L227.438 153.696H250.309L308.159 120.235Z" fill="#272727"/>
<path d="M227.438 181.766L180 154.341V126.272L227.438 153.697V181.766Z" fill="#3D3D3D"/>
<path d="M250.192 152.114H227.965L221.179 133.537L240.073 126.095L258.498 133.654L250.192 152.114Z" fill="#313131"/>
<path d="M306.404 119.59L250.192 152.113V135.881L273.648 113.671L306.404 103.358V119.59Z" fill="#1C1C1C"/>
<path d="M306.404 103.357V90.4652L260.311 63.8606H238.084L181.872 96.3839V109.217L227.965 135.881H250.192L306.404 103.357Z" fill="#272727"/>
<path d="M227.965 152.114L181.872 125.509V109.218L227.965 135.881V152.114Z" fill="#3D3D3D"/>
<path d="M227.965 152.113L210.943 142.268V134.591L227.965 144.436V152.113Z" fill="#C92222"/>
<path opacity="0.3" d="M254.345 130.255L222.817 131.193L181.872 107.518V123.751L227.965 150.414H250.192L306.404 117.891V101.658L254.345 130.255Z" fill="black"/>
<path d="M250.309 147.66H227.438L220.477 117.129L239.897 109.511L258.908 117.305L250.309 147.66Z" fill="#313131"/>
<path d="M308.159 114.141L250.309 147.66V119.532L274.467 96.7366L308.159 86.0713V114.141Z" fill="#1C1C1C"/>
<path d="M308.159 86.0711V72.8859L260.721 45.4609H237.909L180 78.9218V92.1069L227.438 119.532H250.309L308.159 86.0711Z" fill="#272727"/>
<path d="M227.438 147.66L180 120.176V92.1064L227.438 119.531V147.66Z" fill="#3D3D3D"/>
<path d="M250.192 117.599H227.965L221.179 112.677L240.073 105.234L257.211 112.266L250.192 117.599Z" fill="#313131"/>
<path d="M306.404 85.0755L250.192 117.599V115.02L273.648 92.8108L306.404 82.4971V85.0755Z" fill="#1C1C1C"/>
<path d="M306.404 82.4967V69.6632L260.311 43H238.084L181.872 75.5233V88.3568L227.965 115.02H250.192L306.404 82.4967Z" fill="#272727"/>
<path fill-rule="evenodd" clip-rule="evenodd" d="M223.097 68.6165C224.659 68.5992 225.891 69.3103 225.861 70.2123L225.335 86.9242L238.644 79.2404C239.755 78.5986 241.558 78.5813 242.624 79.197L243.135 79.4919C243.526 77.4972 245.058 75.5372 247.732 73.9935C253.86 70.4551 263.669 70.3597 269.587 73.7767C275.461 77.1676 275.326 82.7961 269.287 86.3345L269.107 86.4385C262.978 89.9249 253.244 89.9943 247.371 86.6033L240.536 82.6573L224.374 91.989C223.547 92.4659 222.346 92.622 221.309 92.3705C220.964 92.2925 220.663 92.1884 220.408 92.041L220.378 92.0236C219.897 91.7288 219.597 91.3298 219.627 90.8962L220.243 70.2643C220.258 69.822 220.573 69.4317 221.054 69.1369L221.144 69.0848C221.655 68.8073 222.346 68.6165 223.097 68.6165ZM265.547 76.1096C261.776 73.9328 255.543 73.9935 251.637 76.2483C247.747 78.4945 247.641 82.0936 251.412 84.2704C255.167 86.4385 261.401 86.3778 265.291 84.1317C269.197 81.8768 269.302 78.2777 265.547 76.1096ZM248.678 65.4684C250.24 65.4511 251.472 66.1622 251.427 67.0555C251.427 67.5064 251.096 67.9054 250.571 68.2089C250.06 68.5038 249.354 68.7033 248.573 68.7032C245.959 68.7379 243.466 69.345 241.573 70.4378C239.695 71.5218 238.629 72.9701 238.584 74.4705C238.569 74.9301 238.238 75.3291 237.712 75.6326C237.202 75.9275 236.511 76.1182 235.715 76.1269C234.182 76.1443 232.951 75.4331 232.966 74.5399C233.041 72.1549 234.723 69.9001 237.682 68.1916C240.657 66.4744 244.562 65.5031 248.678 65.4684Z" fill="#757575"/>
<path d="M227.965 117.599L181.872 90.9358V88.3574L227.965 115.021V117.599Z" fill="#3D3D3D"/>
<path d="M132.695 181.122C138.956 176.96 149.044 176.96 155.305 181.122C161.565 185.285 161.565 192.049 155.305 196.212C149.044 200.374 138.956 200.374 132.695 196.212C126.435 192.049 126.435 185.285 132.695 181.122Z" fill="#C92222"/>
<path d="M150.333 186.426H144.68C143.482 186.426 142.882 186.426 142.425 186.561C142.022 186.679 141.695 186.868 141.49 187.101C141.257 187.365 141.257 187.711 141.257 188.403L141.257 191.667" stroke="black" stroke-width="2" stroke-linecap="round" stroke-linejoin="round"/>
<path d="M370.305 163.122C364.044 158.96 353.956 158.96 347.695 163.122C341.435 167.285 341.435 174.049 347.695 178.212C353.956 182.374 364.044 182.374 370.305 178.212C376.565 174.049 376.565 167.285 370.305 163.122Z" fill="#C92222"/>
<path d="M352.667 168.426H358.32C359.518 168.426 360.118 168.426 360.575 168.561C360.978 168.679 361.305 168.868 361.51 169.101C361.743 169.365 361.743 169.711 361.743 170.403L361.743 173.667" stroke="black" stroke-width="2" stroke-linecap="round" stroke-linejoin="round"/>
<path d="M325.305 292.211C319.044 296.374 308.956 296.374 302.695 292.211C296.435 288.049 296.435 281.285 302.695 277.122C308.956 272.959 319.044 272.959 325.305 277.122C331.565 281.285 331.565 288.049 325.305 292.211Z" fill="#C92222"/>
<path d="M308.667 285.907H314.32C315.518 285.907 316.117 285.907 316.575 285.773C316.978 285.654 317.305 285.465 317.51 285.233C317.743 284.969 317.743 284.623 317.743 283.931L317.743 280.667" stroke="black" stroke-width="2" stroke-linecap="round" stroke-linejoin="round"/>
<defs>
<linearGradient id="paint0_linear_1230_109911" x1="92.8245" y1="190.312" x2="93.4832" y2="338.83" gradientUnits="userSpaceOnUse">
<stop stop-color="#151515"/>
<stop offset="1" stop-opacity="0"/>
</linearGradient>
<linearGradient id="paint1_linear_1230_109911" x1="93.2687" y1="193.602" x2="93.9" y2="336.265" gradientUnits="userSpaceOnUse">
<stop stop-color="#151515"/>
<stop offset="1" stop-opacity="0"/>
</linearGradient>
</defs>
</svg>
