<svg width="44" height="44" viewBox="0 0 44 44" fill="none" xmlns="http://www.w3.org/2000/svg">
<rect width="44" height="44" rx="12" fill="#F4F4F4"/>
<path opacity="0.12" fill-rule="evenodd" clip-rule="evenodd" d="M12 15.2C12 14.0799 12 13.5198 12.218 13.092C12.4097 12.7157 12.7157 12.4097 13.092 12.218C13.5198 12 14.0799 12 15.2 12H16.8C17.9201 12 18.4802 12 18.908 12.218C19.2843 12.4097 19.5903 12.7157 19.782 13.092C20 13.5198 20 14.0799 20 15.2V18.8C20 19.9201 20 20.4802 19.782 20.908C19.5903 21.2843 19.2843 21.5903 18.908 21.782C18.4802 22 17.9201 22 16.8 22H15.2C14.0799 22 13.5198 22 13.092 21.782C12.7157 21.5903 12.4097 21.2843 12.218 20.908C12 20.4802 12 19.9201 12 18.8V15.2ZM12 29C12 28.0681 12 27.6022 12.1522 27.2346C12.3552 26.7446 12.7446 26.3552 13.2346 26.1522C13.6022 26 14.0681 26 15 26H17C17.9319 26 18.3978 26 18.7654 26.1522C19.2554 26.3552 19.6448 26.7446 19.8478 27.2346C20 27.6022 20 28.0681 20 29C20 29.9319 20 30.3978 19.8478 30.7654C19.6448 31.2554 19.2554 31.6448 18.7654 31.8478C18.3978 32 17.9319 32 17 32H15C14.0681 32 13.6022 32 13.2346 31.8478C12.7446 31.6448 12.3552 31.2554 12.1522 30.7654C12 30.3978 12 29.9319 12 29ZM24.218 23.092C24 23.5198 24 24.0799 24 25.2V28.8C24 29.9201 24 30.4802 24.218 30.908C24.4097 31.2843 24.7157 31.5903 25.092 31.782C25.5198 32 26.0799 32 27.2 32H28.8C29.9201 32 30.4802 32 30.908 31.782C31.2843 31.5903 31.5903 31.2843 31.782 30.908C32 30.4802 32 29.9201 32 28.8V25.2C32 24.0799 32 23.5198 31.782 23.092C31.5903 22.7157 31.2843 22.4097 30.908 22.218C30.4802 22 29.9201 22 28.8 22H27.2C26.0799 22 25.5198 22 25.092 22.218C24.7157 22.4097 24.4097 22.7157 24.218 23.092Z" fill="black"/>
<path fill-rule="evenodd" clip-rule="evenodd" d="M15.2 11.25L15.1696 11.25C14.6354 11.25 14.1896 11.25 13.8253 11.2797C13.4454 11.3108 13.0888 11.3779 12.7515 11.5497C12.2341 11.8134 11.8134 12.2341 11.5497 12.7515C11.3779 13.0888 11.3108 13.4454 11.2797 13.8253C11.25 14.1896 11.25 14.6354 11.25 15.1696L11.25 15.2V18.8L11.25 18.8304C11.25 19.3646 11.25 19.8104 11.2797 20.1747C11.3108 20.5546 11.3779 20.9112 11.5497 21.2485C11.8134 21.7659 12.2341 22.1866 12.7515 22.4503C13.0888 22.6221 13.4454 22.6892 13.8253 22.7203C14.1896 22.75 14.6354 22.75 15.1695 22.75H15.1695H15.2H16.8H16.8305H16.8305C17.3646 22.75 17.8105 22.75 18.1747 22.7203C18.5546 22.6892 18.9112 22.6221 19.2485 22.4503C19.7659 22.1866 20.1866 21.7659 20.4503 21.2485C20.6221 20.9112 20.6892 20.5546 20.7203 20.1747C20.75 19.8105 20.75 19.3646 20.75 18.8305V18.8305V18.8V15.2V15.1695V15.1695C20.75 14.6354 20.75 14.1896 20.7203 13.8253C20.6892 13.4454 20.6221 13.0888 20.4503 12.7515C20.1866 12.2341 19.7659 11.8134 19.2485 11.5497C18.9112 11.3779 18.5546 11.3108 18.1747 11.2797C17.8104 11.25 17.3646 11.25 16.8304 11.25L16.8 11.25H15.2ZM13.4325 12.8862C13.5231 12.8401 13.6604 12.7982 13.9475 12.7748C14.2434 12.7506 14.6276 12.75 15.2 12.75H16.8C17.3724 12.75 17.7566 12.7506 18.0525 12.7748C18.3396 12.7982 18.4769 12.8401 18.5675 12.8862C18.8027 13.0061 18.9939 13.1973 19.1138 13.4325C19.1599 13.5231 19.2018 13.6604 19.2252 13.9475C19.2494 14.2434 19.25 14.6276 19.25 15.2V18.8C19.25 19.3724 19.2494 19.7566 19.2252 20.0525C19.2018 20.3396 19.1599 20.4769 19.1138 20.5675C18.9939 20.8027 18.8027 20.9939 18.5675 21.1138C18.4769 21.1599 18.3396 21.2018 18.0525 21.2252C17.7566 21.2494 17.3724 21.25 16.8 21.25H15.2C14.6276 21.25 14.2434 21.2494 13.9475 21.2252C13.6604 21.2018 13.5231 21.1599 13.4325 21.1138C13.1973 20.9939 13.0061 20.8027 12.8862 20.5675C12.8401 20.4769 12.7982 20.3396 12.7748 20.0525C12.7506 19.7566 12.75 19.3724 12.75 18.8V15.2C12.75 14.6276 12.7506 14.2434 12.7748 13.9475C12.7982 13.6604 12.8401 13.5231 12.8862 13.4325C13.0061 13.1973 13.1973 13.0061 13.4325 12.8862ZM15 25.25H14.9748C14.5303 25.25 14.1592 25.25 13.8546 25.2708C13.5375 25.2924 13.238 25.339 12.9476 25.4593C12.2738 25.7384 11.7384 26.2738 11.4593 26.9476C11.339 27.238 11.2924 27.5375 11.2708 27.8546C11.25 28.1592 11.25 28.5303 11.25 28.9747L11.25 29L11.25 29.0253C11.25 29.4697 11.25 29.8408 11.2708 30.1454C11.2924 30.4625 11.339 30.762 11.4593 31.0524C11.7384 31.7262 12.2738 32.2616 12.9476 32.5407C13.238 32.661 13.5375 32.7076 13.8546 32.7292C14.1592 32.75 14.5303 32.75 14.9747 32.75H15H17H17.0253C17.4697 32.75 17.8408 32.75 18.1454 32.7292C18.4625 32.7076 18.762 32.661 19.0524 32.5407C19.7262 32.2616 20.2616 31.7262 20.5407 31.0524C20.661 30.762 20.7076 30.4625 20.7292 30.1454C20.75 29.8408 20.75 29.4697 20.75 29.0253V29V28.9747C20.75 28.5303 20.75 28.1592 20.7292 27.8546C20.7076 27.5375 20.661 27.238 20.5407 26.9476C20.2616 26.2738 19.7262 25.7384 19.0524 25.4593C18.762 25.339 18.4625 25.2924 18.1454 25.2708C17.8408 25.25 17.4697 25.25 17.0253 25.25H17H15ZM12.7673 30.0433C12.7504 29.7958 12.75 29.4762 12.75 29C12.75 28.5238 12.7504 28.2042 12.7673 27.9567C12.7837 27.716 12.8132 27.5988 12.8452 27.5216C12.972 27.2154 13.2154 26.972 13.5216 26.8452C13.5988 26.8132 13.716 26.7837 13.9567 26.7673C14.2042 26.7504 14.5238 26.75 15 26.75H17C17.4762 26.75 17.7958 26.7504 18.0433 26.7673C18.284 26.7837 18.4012 26.8132 18.4784 26.8452C18.7846 26.972 19.028 27.2154 19.1549 27.5216C19.1868 27.5988 19.2163 27.716 19.2327 27.9567C19.2496 28.2042 19.25 28.5238 19.25 29C19.25 29.4762 19.2496 29.7958 19.2327 30.0433C19.2163 30.284 19.1868 30.4012 19.1549 30.4784C19.028 30.7846 18.7846 31.028 18.4784 31.1549C18.4012 31.1868 18.284 31.2163 18.0433 31.2327C17.7958 31.2496 17.4762 31.25 17 31.25H15C14.5238 31.25 14.2042 31.2496 13.9567 31.2327C13.716 31.2163 13.5988 31.1868 13.5216 31.1549C13.2154 31.028 12.972 30.7846 12.8452 30.4784C12.8132 30.4012 12.7837 30.284 12.7673 30.0433ZM26.9747 11.25L27 11.25H29L29.0253 11.25C29.4697 11.25 29.8408 11.25 30.1454 11.2708C30.4625 11.2924 30.762 11.339 31.0524 11.4593C31.7262 11.7384 32.2616 12.2738 32.5407 12.9476C32.661 13.238 32.7076 13.5375 32.7292 13.8546C32.75 14.1592 32.75 14.5303 32.75 14.9747V15V15.0253C32.75 15.4697 32.75 15.8408 32.7292 16.1454C32.7076 16.4625 32.661 16.762 32.5407 17.0524C32.2616 17.7262 31.7262 18.2616 31.0524 18.5407C30.762 18.661 30.4625 18.7076 30.1454 18.7292C29.8408 18.75 29.4697 18.75 29.0253 18.75H29H27H26.9747C26.5303 18.75 26.1592 18.75 25.8546 18.7292C25.5375 18.7076 25.238 18.661 24.9476 18.5407C24.2738 18.2616 23.7384 17.7262 23.4593 17.0524C23.339 16.762 23.2924 16.4625 23.2708 16.1454C23.25 15.8408 23.25 15.4697 23.25 15.0253V15V14.9748C23.25 14.5303 23.25 14.1592 23.2708 13.8546C23.2924 13.5375 23.339 13.238 23.4593 12.9476C23.7384 12.2738 24.2738 11.7384 24.9476 11.4593C25.238 11.339 25.5375 11.2924 25.8546 11.2708C26.1592 11.25 26.5303 11.25 26.9747 11.25ZM24.75 15C24.75 15.4762 24.7504 15.7958 24.7673 16.0433C24.7837 16.284 24.8132 16.4012 24.8452 16.4784C24.972 16.7846 25.2154 17.028 25.5216 17.1549C25.5988 17.1868 25.716 17.2163 25.9567 17.2327C26.2042 17.2496 26.5238 17.25 27 17.25H29C29.4762 17.25 29.7958 17.2496 30.0433 17.2327C30.284 17.2163 30.4012 17.1868 30.4784 17.1549C30.7846 17.028 31.028 16.7846 31.1549 16.4784C31.1868 16.4012 31.2163 16.284 31.2327 16.0433C31.2496 15.7958 31.25 15.4762 31.25 15C31.25 14.5238 31.2496 14.2042 31.2327 13.9567C31.2163 13.716 31.1868 13.5988 31.1549 13.5216C31.028 13.2154 30.7846 12.972 30.4784 12.8452C30.4012 12.8132 30.284 12.7837 30.0433 12.7673C29.7958 12.7504 29.4762 12.75 29 12.75H27C26.5238 12.75 26.2042 12.7504 25.9567 12.7673C25.716 12.7837 25.5988 12.8132 25.5216 12.8452C25.2154 12.972 24.972 13.2154 24.8452 13.5216C24.8132 13.5988 24.7837 13.716 24.7673 13.9567C24.7504 14.2042 24.75 14.5238 24.75 15ZM27.2 21.25H27.1696C26.6354 21.25 26.1896 21.25 25.8253 21.2797C25.4454 21.3108 25.0888 21.3779 24.7515 21.5497C24.2341 21.8134 23.8134 22.2341 23.5497 22.7515C23.3779 23.0888 23.3108 23.4454 23.2797 23.8253C23.25 24.1896 23.25 24.6354 23.25 25.1696V25.2V28.8V28.8304C23.25 29.3646 23.25 29.8104 23.2797 30.1747C23.3108 30.5546 23.3779 30.9112 23.5497 31.2485C23.8134 31.7659 24.2341 32.1866 24.7515 32.4503C25.0888 32.6221 25.4454 32.6892 25.8253 32.7203C26.1895 32.75 26.6353 32.75 27.1694 32.75H27.1695H27.2H28.8H28.8305H28.8306C29.3647 32.75 29.8105 32.75 30.1747 32.7203C30.5546 32.6892 30.9112 32.6221 31.2485 32.4503C31.7659 32.1866 32.1866 31.7659 32.4503 31.2485C32.6221 30.9112 32.6892 30.5546 32.7203 30.1747C32.75 29.8105 32.75 29.3647 32.75 28.8306V28.8305V28.8V25.2V25.1695V25.1694C32.75 24.6353 32.75 24.1895 32.7203 23.8253C32.6892 23.4454 32.6221 23.0888 32.4503 22.7515C32.1866 22.2341 31.7659 21.8134 31.2485 21.5497C30.9112 21.3779 30.5546 21.3108 30.1747 21.2797C29.8104 21.25 29.3646 21.25 28.8304 21.25H28.8H27.2ZM25.4325 22.8862C25.5231 22.8401 25.6604 22.7982 25.9475 22.7748C26.2434 22.7506 26.6276 22.75 27.2 22.75H28.8C29.3724 22.75 29.7566 22.7506 30.0525 22.7748C30.3396 22.7982 30.4769 22.8401 30.5675 22.8862C30.8027 23.0061 30.9939 23.1973 31.1138 23.4325C31.1599 23.5231 31.2018 23.6604 31.2252 23.9475C31.2494 24.2434 31.25 24.6276 31.25 25.2V28.8C31.25 29.3724 31.2494 29.7566 31.2252 30.0525C31.2018 30.3396 31.1599 30.4769 31.1138 30.5675C30.9939 30.8027 30.8027 30.9939 30.5675 31.1138C30.4769 31.1599 30.3396 31.2018 30.0525 31.2252C29.7566 31.2494 29.3724 31.25 28.8 31.25H27.2C26.6276 31.25 26.2434 31.2494 25.9475 31.2252C25.6604 31.2018 25.5231 31.1599 25.4325 31.1138C25.1973 30.9939 25.0061 30.8027 24.8862 30.5675C24.8401 30.4769 24.7982 30.3396 24.7748 30.0525C24.7506 29.7566 24.75 29.3724 24.75 28.8V25.2C24.75 24.6276 24.7506 24.2434 24.7748 23.9475C24.7982 23.6604 24.8401 23.5231 24.8862 23.4325C25.0061 23.1973 25.1973 23.0061 25.4325 22.8862Z" fill="black"/>
</svg>
