<svg width="44" height="44" viewBox="0 0 44 44" fill="none" xmlns="http://www.w3.org/2000/svg">
<rect width="44" height="44" rx="12" fill="#F4F4F4"/>
<circle opacity="0.12" cx="22" cy="22" r="10" fill="black"/>
<path fill-rule="evenodd" clip-rule="evenodd" d="M22 12.75C16.8914 12.75 12.75 16.8914 12.75 22C12.75 27.1086 16.8914 31.25 22 31.25C27.1086 31.25 31.25 27.1086 31.25 22C31.25 16.8914 27.1086 12.75 22 12.75ZM11.25 22C11.25 16.0629 16.0629 11.25 22 11.25C27.9371 11.25 32.75 16.0629 32.75 22C32.75 27.9371 27.9371 32.75 22 32.75C16.0629 32.75 11.25 27.9371 11.25 22Z" fill="black"/>
<path d="M18.6668 17.0762H17V27.4581H18.6668V17.0762Z" fill="black"/>
<path d="M22.2145 17.0762H20.3706C20.8836 18.0695 21.43 19.5198 21.43 21.1904C21.43 22.8609 20.8836 24.311 20.3706 25.3045H22.2145C22.8003 23.9416 23.0971 22.558 23.0971 21.1904C23.0974 19.8225 22.8003 18.4391 22.2145 17.0762Z" fill="black"/>
<path d="M26.1173 17.0762H24.2734C24.7864 18.0695 25.3329 19.5195 25.3329 21.1904C25.3329 22.8609 24.7864 24.3112 24.2734 25.3045H26.1173C26.7031 23.9413 26.9999 22.558 26.9999 21.1904C26.9999 19.8227 26.7031 18.4391 26.1173 17.0762Z" fill="black"/>
</svg>
