<svg width="44" height="44" viewBox="0 0 44 44" fill="none" xmlns="http://www.w3.org/2000/svg">
<rect width="44" height="44" rx="12" fill="#F4F4F4"/>
<rect opacity="0.12" x="11.7505" y="11.75" width="20" height="20" rx="5" fill="black"/>
<path fill-rule="evenodd" clip-rule="evenodd" d="M19.7505 11L19.7169 11L19.7169 11C18.3452 11 17.2698 11 16.4054 11.0706C15.5253 11.1425 14.7982 11.2914 14.14 11.6267C13.0581 12.178 12.1785 13.0576 11.6272 14.1396C11.2919 14.7977 11.143 15.5248 11.0711 16.4049C11.0005 17.2693 11.0005 18.3447 11.0005 19.7164L11.0005 19.75L11.0005 23.75L11.0005 23.7836L11.0005 23.7836C11.0005 25.1553 11.0005 26.2307 11.0711 27.0951C11.143 27.9752 11.2919 28.7023 11.6272 29.3604C12.1785 30.4424 13.0581 31.322 14.14 31.8733C14.7982 32.2086 15.5253 32.3575 16.4054 32.4294C17.2698 32.5 18.3452 32.5 19.7169 32.5L19.7505 32.5L23.7505 32.5L23.7841 32.5L23.7841 32.5L23.7842 32.5L23.7842 32.5L23.7843 32.5L23.7843 32.5C25.1559 32.5 26.2313 32.5 27.0956 32.4294C27.9757 32.3575 28.7028 32.2086 29.3609 31.8733C30.4429 31.322 31.3225 30.4424 31.8738 29.3604C32.2091 28.7023 32.358 27.9752 32.4299 27.0951C32.5005 26.2307 32.5005 25.1553 32.5005 23.7836L32.5005 23.75L32.5005 19.75L32.5005 19.7164L32.5005 19.7164L32.5005 19.7163L32.5005 19.7163L32.5005 19.7162L32.5005 19.7162C32.5005 18.3446 32.5005 17.2692 32.4299 16.4049C32.358 15.5248 32.2091 14.7977 31.8738 14.1396C31.3225 13.0576 30.4429 12.178 29.3609 11.6267C28.7028 11.2914 27.9757 11.1425 27.0956 11.0706C26.2312 11 25.1558 11 23.784 11L23.7505 11L19.7505 11ZM14.821 12.9632C15.2325 12.7536 15.7402 12.63 16.5276 12.5656C17.3237 12.5006 18.338 12.5 19.7505 12.5L23.7505 12.5C25.163 12.5 26.1773 12.5006 26.9734 12.5656C27.7608 12.63 28.2685 12.7536 28.6799 12.9632C29.4796 13.3707 30.1298 14.0209 30.5373 14.8205C30.7469 15.232 30.8705 15.7397 30.9349 16.5271C30.9999 17.3232 31.0005 18.3375 31.0005 19.75L31.0005 23.75C31.0005 25.1625 30.9999 26.1768 30.9349 26.9729C30.8705 27.7603 30.7469 28.268 30.5373 28.6795C30.1298 29.4791 29.4796 30.1293 28.6799 30.5368C28.2685 30.7464 27.7608 30.87 26.9734 30.9344C26.1773 30.9994 25.163 31 23.7505 31L19.7505 31C18.338 31 17.3237 30.9994 16.5276 30.9344C15.7402 30.87 15.2325 30.7464 14.821 30.5368C14.0213 30.1293 13.3712 29.4791 12.9637 28.6795C12.7541 28.268 12.6304 27.7603 12.5661 26.9729C12.5011 26.1768 12.5005 25.1625 12.5005 23.75L12.5005 19.75C12.5005 18.3375 12.5011 17.3232 12.5661 16.5271C12.6304 15.7397 12.7541 15.232 12.9637 14.8205C13.3712 14.0209 14.0213 13.3707 14.821 12.9632ZM19.5008 18.7498C19.5008 18.3356 19.1651 17.9998 18.7508 17.9998C18.3366 17.9998 18.0008 18.3356 18.0008 18.7498L18.0008 24.7498C18.0008 25.164 18.3366 25.4998 18.7508 25.4998C19.1651 25.4998 19.5008 25.164 19.5008 24.7498L19.5008 18.7498ZM15.7508 20C16.1651 20 16.5008 20.3358 16.5008 20.75L16.5008 22.75C16.5008 23.1642 16.1651 23.5 15.7508 23.5C15.3366 23.5 15.0008 23.1642 15.0008 22.75L15.0008 20.75C15.0008 20.3358 15.3366 20 15.7508 20ZM22.5008 16.7502C22.5008 16.336 22.1651 16.0002 21.7508 16.0002C21.3366 16.0002 21.0008 16.336 21.0008 16.7502L21.0008 26.7502C21.0008 27.1644 21.3366 27.5002 21.7508 27.5002C22.1651 27.5002 22.5008 27.1644 22.5008 26.7502L22.5008 16.7502ZM24.7508 17.9998C25.1651 17.9998 25.5008 18.3356 25.5008 18.7498L25.5008 24.7498C25.5008 25.164 25.1651 25.4998 24.7508 25.4998C24.3366 25.4998 24.0008 25.164 24.0008 24.7498L24.0008 18.7498C24.0008 18.3356 24.3366 17.9998 24.7508 17.9998ZM28.5008 20.75C28.5008 20.3358 28.1651 20 27.7508 20C27.3366 20 27.0008 20.3358 27.0008 20.75L27.0008 22.75C27.0008 23.1642 27.3366 23.5 27.7508 23.5C28.1651 23.5 28.5008 23.1642 28.5008 22.75L28.5008 20.75Z" fill="black"/>
</svg>
