<svg width="25" height="24" viewBox="0 0 25 24" fill="none" xmlns="http://www.w3.org/2000/svg">
<path fill-rule="evenodd" clip-rule="evenodd" d="M22.2529 6.37299C22.0239 5.36899 21.3459 4.57699 20.4839 4.30499C18.9249 3.81799 12.6699 3.81799 12.6699 3.81799C12.6699 3.81799 6.41792 3.81799 4.85592 4.30499C3.99692 4.57299 3.31892 5.36499 3.08692 6.37299C2.66992 8.19499 2.66992 12 2.66992 12C2.66992 12 2.66992 15.805 3.08692 17.627C3.31592 18.631 3.99392 19.423 4.85592 19.695C6.41792 20.182 12.6699 20.182 12.6699 20.182C12.6699 20.182 18.9249 20.182 20.4839 19.695C21.3429 19.427 22.0209 18.635 22.2529 17.627C22.6699 15.805 22.6699 12 22.6699 12C22.6699 12 22.6699 8.19499 22.2529 6.37299Z" stroke="black" stroke-width="1.5" stroke-linecap="round" stroke-linejoin="round"/>
<path opacity="0.12" fill-rule="evenodd" clip-rule="evenodd" d="M22.2529 6.37299C22.0239 5.36899 21.3459 4.57699 20.4839 4.30499C18.9249 3.81799 12.6699 3.81799 12.6699 3.81799C12.6699 3.81799 6.41792 3.81799 4.85592 4.30499C3.99692 4.57299 3.31892 5.36499 3.08692 6.37299C2.66992 8.19499 2.66992 12 2.66992 12C2.66992 12 2.66992 15.805 3.08692 17.627C3.31592 18.631 3.99392 19.423 4.85592 19.695C6.41792 20.182 12.6699 20.182 12.6699 20.182C12.6699 20.182 18.9249 20.182 20.4839 19.695C21.3429 19.427 22.0209 18.635 22.2529 17.627C22.6699 15.805 22.6699 12 22.6699 12C22.6699 12 22.6699 8.19499 22.2529 6.37299Z" fill="black"/>
<path fill-rule="evenodd" clip-rule="evenodd" d="M10.6719 15L15.8679 12L10.6719 9V15Z" fill="white" stroke="black" stroke-width="1.5" stroke-linecap="round" stroke-linejoin="round"/>
</svg>
