<svg width="56" height="56" viewBox="0 0 56 56" fill="none" xmlns="http://www.w3.org/2000/svg">
<ellipse cx="28" cy="28" rx="28" ry="28" fill="#030303"/>
<path fill-rule="evenodd" clip-rule="evenodd" d="M27.8105 14.9933C28.352 15.5244 28.352 16.3783 27.8105 16.9094L17.5945 26.761H26.8212C27.5918 26.761 28.2167 27.3754 28.2167 28.1148V28.4689C29.5496 27.4067 31.2575 26.761 33.1216 26.761C37.3705 26.761 40.8279 30.1039 40.8279 34.207C40.8279 38.2788 37.4018 41.6113 33.1841 41.6425H33.0591C28.8415 41.6113 25.4153 38.2788 25.4153 34.207V29.4686H14.2099C13.6476 29.4686 13.1373 29.1458 12.9186 28.6355C12.8457 28.4689 12.8145 28.3023 12.8145 28.1252V28.1044C12.8145 27.7608 12.9603 27.4171 13.2206 27.1672L25.8319 14.9933C26.0922 14.7329 26.4359 14.6079 26.79 14.5975H26.8524C27.1961 14.6079 27.5398 14.7329 27.8105 14.9933ZM38.0266 34.207C38.0266 31.5931 35.8188 29.4686 33.1216 29.4686C30.414 29.4686 28.2167 31.5931 28.2167 34.207C28.2167 36.8105 30.414 38.9349 33.1216 38.9349C35.8188 38.9349 38.0266 36.8105 38.0266 34.207ZM38.5681 21.9706C39.1096 22.5017 39.1096 23.3556 38.5681 23.8763C38.2973 24.1471 37.9329 24.2721 37.5788 24.2721C37.2143 24.2721 36.8602 24.1471 36.5895 23.8763C35.6626 22.9912 34.4338 22.4913 33.1216 22.4913C31.8095 22.4913 30.5806 22.9912 29.6538 23.8763C29.383 24.1471 29.0185 24.2721 28.6645 24.2721C28.3104 24.2721 27.9459 24.1471 27.6751 23.8763C27.1232 23.3556 27.1232 22.5017 27.6751 21.9706C29.1331 20.5647 31.0597 19.7941 33.1216 19.7941C35.1732 19.7941 37.1102 20.5647 38.5681 21.9706Z" fill="white"/>
</svg>
